<svg width="1345" height="798" viewBox="0 0 1345 798" fill="none" xmlns="http://www.w3.org/2000/svg">
<g filter="url(#filter0_d_317_405)">
<path d="M1204.13 116.547C1149.87 125.348 1091.48 131.948 1030.84 136.833C1020.58 149.462 1013.63 155.535 1013.63 155.535C1013.63 155.535 1012.8 149.506 1014.78 138.065C1010.82 138.373 1006.81 138.593 1002.81 138.901C992.862 156.503 982.345 168.648 982.345 168.648C982.345 168.648 982.169 157.471 986.877 140.045C951.805 142.377 916.206 144.182 880.254 145.546C874.049 156.415 857.592 182.114 857.592 182.114C857.592 182.114 860.54 159.319 862.432 146.118C787.361 148.626 712.641 149.462 638.097 149.022C633.257 159.671 625.204 178.109 625.204 178.109C625.204 178.109 619.043 158.835 616.755 148.846C551.672 148.318 485.929 146.734 421.375 143.654C401.089 154.743 365.621 169.836 354.576 139.825C279.328 134.765 206.808 127.328 140.45 116.591C223.97 678.529 -34.3365 723.898 409.977 655.603C411.914 650.146 417.678 622.247 417.678 622.247C417.678 622.247 421.507 644.205 426.347 654.239C442.541 652.962 458.998 651.862 475.632 650.894C478.228 627.22 485.357 624.447 487.997 650.146C548.812 646.846 611.694 645.438 672.465 645.438C695.611 626.208 730.419 628.848 753.785 646.318C793.345 647.154 832.949 648.694 871.585 651.026C876.998 631.004 884.082 618.859 884.082 618.859C884.082 618.859 887.383 628.452 885.227 651.862C893.939 652.434 902.564 653.05 911.145 653.711C913.302 644.074 918.494 638.705 918.494 638.705C918.494 638.705 923.027 643.633 922.939 654.679C939.572 656.043 955.81 657.627 971.739 659.299C984.545 653.534 988.769 639.189 999.594 631.004C1004.74 625.504 1024.5 613.314 1025.25 627.264C1030.97 638.617 1030.31 653.887 1026.97 666.12C1084.3 675.493 1203.73 708.364 1204.13 635.009C1204.13 635.009 1167.96 296.085 1204.08 116.547H1204.13ZM1026.48 585.679C1014.6 603.457 991.454 592.456 1003.86 572.918C1013.98 551.4 1042.67 566.273 1026.48 585.679Z" fill="url(#paint0_radial_317_405)"/>
<path style="mix-blend-mode:multiply" opacity="0.35" d="M1204.12 116.545C1161.53 123.453 1116.38 128.998 1069.6 133.398C1106.57 165.17 1098.16 275.357 1091.65 368.251C1084.61 468.185 1062.65 574.676 1029.21 654.236C1028.81 658.329 1028.06 662.333 1027.05 666.029C1084.39 675.402 1203.82 708.274 1204.21 634.918C1204.21 634.918 1168.04 295.995 1204.17 116.457L1204.12 116.545Z" fill="url(#paint1_linear_317_405)"/>
<path d="M1067.01 602.707C1070 629.769 1100.28 651.244 1126.81 653.84C1153.35 651.684 1158.76 639.846 1165.27 626.909C1165.27 626.909 1169.54 578.548 1171.34 564.467C1173.15 550.385 1080.43 531.419 1076.16 555.226L1067.05 602.707H1067.01Z" fill="url(#paint2_linear_317_405)"/>
<g style="mix-blend-mode:multiply" opacity="0.75">
<path d="M1067.01 602.707C1070 629.77 1100.28 651.244 1126.81 653.84C1153.35 651.684 1158.76 639.847 1165.27 626.909C1165.27 626.909 1169.54 578.548 1171.34 564.467C1173.15 550.385 1082.15 529.967 1077.92 553.818L1067.05 602.707H1067.01Z" fill="#BC6182"/>
</g>
<path d="M1103.75 611.026C1103.75 616.658 1111.94 626.208 1111.94 626.208C1111.94 626.208 1125.36 631.004 1133.06 624.667L1136.45 589.596L1106.09 586.647L1103.71 611.026H1103.75Z" fill="url(#paint3_linear_317_405)"/>
<g style="mix-blend-mode:multiply" opacity="0.15">
<path d="M1204.13 116.547C1149.87 125.348 1091.48 131.948 1030.84 136.833C1020.59 149.462 1013.63 155.535 1013.63 155.535C1013.63 155.535 1012.8 149.506 1014.78 138.065C1010.82 138.373 1006.81 138.593 1002.81 138.901C992.865 156.503 982.348 168.648 982.348 168.648C982.348 168.648 982.172 157.471 986.88 140.045C951.809 142.377 916.209 144.182 880.257 145.546C874.053 156.415 857.595 182.113 857.595 182.113C857.595 182.113 860.543 159.319 862.435 146.118C787.364 148.626 712.644 149.462 638.1 149.022C633.26 159.671 625.207 178.109 625.207 178.109C625.207 178.109 619.046 158.835 616.758 148.846C551.675 148.318 485.933 146.734 421.378 143.653C401.092 154.743 365.624 169.792 354.579 139.825C279.331 134.765 206.812 127.328 140.453 116.591C171.608 326.14 155.238 463.831 145.469 550.608C155.106 465.151 194.578 336.966 169.716 146.206C208.748 151.75 252.268 149.814 298.165 150.562C298.253 151.618 298.517 152.674 298.913 153.642C299.969 156.151 301.949 158.307 304.326 159.627C309.87 162.619 316.295 160.331 319.947 155.535C320.959 154.259 321.707 152.762 322.235 151.222C328.572 151.486 334.997 151.838 341.421 152.278C346.834 159.187 350.574 167.68 355.987 173.577C356.163 174.501 356.383 175.381 356.559 176.305C357.835 183.83 359.243 191.354 360.431 198.879C361.619 206.58 362.544 214.325 363.82 222.026C364.26 224.842 364.744 227.658 365.228 230.475C365.052 218.285 364.92 206.14 364.92 193.951C364.524 189.022 364.172 184.094 363.644 179.209C366.02 180.221 368.704 180.837 371.829 180.837C372.093 180.837 372.401 180.793 372.665 180.749C373.633 191.662 374.733 202.488 376.097 213.357C377.725 226.558 378.121 240.024 379.089 253.313C380.057 266.646 381.245 279.936 382.126 293.269C382.126 293.841 382.17 294.413 382.214 294.985C383.314 301.41 384.59 307.835 385.998 314.215C386.262 315.359 386.526 316.503 386.79 317.603C387.186 312.411 387.538 307.218 387.846 301.982C387.626 298.726 387.362 295.469 387.142 292.213C386.262 278.88 385.602 265.59 384.766 252.257C383.93 239.319 382.566 226.294 382.434 213.313C382.302 201.652 381.906 190.078 381.334 178.461C395.327 172.785 414.073 157.999 428.463 150.738C447.913 151.662 469.167 153.158 491.257 154.743C493.501 155.887 494.425 158.351 495.878 160.331C497.242 162.179 498.958 163.676 501.158 164.512C505.294 166.052 509.827 164.996 513.875 163.324C514.535 163.324 515.195 163.103 515.811 162.487C515.987 162.399 516.163 162.311 516.339 162.267C517.968 161.475 519.596 160.639 521.268 159.847C523.644 159.803 526.152 160.771 527.869 162.619C532.005 167.02 531.433 174.589 531.389 180.133C531.257 191.046 531.125 201.916 531.125 212.829C531.565 218.197 531.741 223.61 531.829 229.022C531.917 235.667 531.829 242.268 532.005 248.912C532.225 253.401 532.445 257.889 532.709 262.334C533.193 269.507 533.721 276.679 534.249 283.808C534.381 285.568 534.513 287.372 534.601 289.133C534.821 268.494 535.261 247.856 537.55 227.394C537.022 213.533 536.846 199.539 538.65 185.854C539.09 182.509 539.618 178.857 540.586 175.469C540.498 174.589 540.498 173.709 540.41 172.829C540.762 171.42 541.202 170.012 541.862 168.692C543.402 165.524 545.779 162.751 548.639 160.727C550.443 160.463 552.335 160.375 554.139 160.155C555.02 160.023 555.592 159.539 555.944 158.967C573.941 159.935 591.939 160.683 609.541 160.859C611.345 166.932 623.359 213.093 623.359 213.093C623.359 213.093 639.024 171.156 642.236 158.527C644.833 158.527 668.199 158.263 699.046 157.867C704.327 156.063 710.532 156.195 715.812 156.723C717.792 156.943 719.817 157.207 721.797 157.559C769.542 156.899 826.044 156.019 853.502 155.227C853.062 158.659 847.87 213.269 845.978 233.071C844.526 239.407 843.029 245.744 841.709 252.125C841.313 254.061 844.261 254.853 844.657 252.917C846.022 245.964 847.474 239.055 849.322 232.279C859.311 212.697 885.01 162.443 890.73 153.158C896.539 152.938 905.824 152.498 916.209 151.97C916.077 152.718 915.945 153.51 915.813 154.215C915.285 156.899 914.405 159.495 913.657 162.091C912.909 164.732 912.116 167.328 911.324 169.924C910.532 172.52 909.652 175.029 909.388 177.757C909.3 178.549 910.4 178.725 910.796 178.153C912.249 175.821 913.085 173.225 914.053 170.672C915.021 168.12 916.033 165.568 917.045 163.015C918.057 160.463 919.025 157.867 920.257 155.403C920.874 154.171 921.578 152.938 922.15 151.662C948.376 150.386 978.651 148.846 978.651 149.022L961.226 229.682L1009.41 153.467L999.202 208.516C999.202 208.516 1034.76 154.391 1042.24 145.942C1050.69 145.238 1059.09 144.974 1067.41 145.018C1066.97 147.57 1066.57 150.122 1066 152.674C1065.16 156.679 1064.33 160.683 1063.4 164.688C1061.56 172.828 1060.02 181.013 1058.26 189.198C1058.08 189.99 1059.18 190.298 1059.44 189.506C1062 181.585 1064.77 173.709 1067.23 165.744C1068.46 161.827 1069.74 157.955 1071.02 154.083C1071.98 151.09 1073.17 148.098 1074.23 145.15C1109.3 145.81 1142.83 150.562 1173.81 146.162C1148.16 326.8 1201.49 609.178 1204.17 634.832C1204.17 634.832 1168 295.909 1204.13 116.371V116.547ZM501.774 157.119C501.774 157.119 501.686 156.987 501.642 156.899C501.466 156.415 501.07 155.975 500.498 155.799C499.574 155.535 498.606 156.107 498.342 157.031C498.254 157.471 498.21 157.867 498.21 158.263C497.154 157.207 496.186 156.063 495.041 155.139C497.242 155.315 499.486 155.447 501.686 155.623C501.598 155.975 501.554 156.371 501.686 156.723C501.73 156.855 501.818 156.943 501.862 157.075C501.862 157.075 501.774 157.075 501.774 157.119Z" fill="#BC6182"/>
</g>
<g style="mix-blend-mode:multiply" opacity="0.15">
<path d="M1137.37 669.241C1137.37 669.241 1059.97 667.305 1040.25 653.839C1039.99 653.663 1038.71 626.864 1031.32 615.379C1028.12 610.392 1024.53 605.742 1020.54 601.43C1031.32 596.501 1041.88 582.948 1039.81 567.766C1037.88 553.553 1034.05 550.604 1019.31 550.604C1004.57 550.604 986.084 569.834 997.965 598.877C984.412 658.02 938.471 643.102 931.518 642.442C929.142 637.381 925.358 590.737 925.358 590.737L924.346 592.321C924.874 589.02 925.402 585.676 926.018 582.376C926.766 578.063 927.118 573.795 927.734 569.482C927.734 569.262 927.514 569.218 927.426 569.394C925.754 573.443 923.994 577.271 922.673 581.452C921.353 585.544 920.121 589.637 918.933 593.773C917.789 597.821 916.601 601.87 915.677 605.962L892.926 641.87C892.75 641.166 891.606 606.622 890.814 582.42C890.902 581.54 891.034 580.616 891.122 579.735C891.518 575.951 891.87 572.211 892.178 568.47C893.102 559.141 894.026 549.812 894.73 540.439C894.818 539.075 894.95 537.711 895.038 536.391C894.73 521.869 894.818 507.304 894.994 492.739C894.642 493.707 894.334 494.719 893.982 495.687C893.982 495.819 893.938 495.907 893.894 496.039C893.718 497.931 893.542 499.867 893.278 501.715C891.65 514.697 889.802 527.634 887.954 540.571C886.238 552.409 884.917 564.29 883.509 576.171C882.981 580.616 882.453 585.06 881.969 589.46C876.381 609.835 869.604 634.125 867.227 640.286C857.899 639.802 847.161 638.834 835.852 637.689C835.412 636.677 834.664 635.797 833.652 635.093C833.564 635.005 833.432 634.961 833.344 634.873C833.168 634.609 832.552 634.257 832.376 634.081C831.76 633.509 831.144 632.937 830.572 632.321C830.308 632.013 830.044 631.749 829.78 631.441C829.648 631.265 829.472 631.089 829.34 630.913C828.988 630.473 829.076 630.561 829.516 631.177C829.34 631.177 828.856 630.209 828.723 630.077C828.459 629.681 828.24 629.329 828.02 628.933C826.875 626.952 824.235 626.072 822.079 626.644C821.067 625.808 819.967 625.016 818.647 624.664C816.754 624.136 814.598 624.664 813.19 625.984C814.29 624.928 812.574 626.424 812.266 626.732C811.826 627.172 811.386 627.832 811.078 628.36C810.55 629.241 810.11 630.165 809.626 631.089C809.538 631.265 809.45 631.441 809.362 631.617C808.526 632.101 807.822 632.717 807.469 633.553C807.073 634.477 806.853 635.357 806.721 636.281C801.045 635.885 795.236 636.105 789.736 634.433C788.459 634.037 787.271 633.509 786.171 632.893C777.722 632.233 769.581 631.705 762.145 631.529C747.007 622.2 728.833 607.194 711.011 607.194C694.466 607.194 674.356 622.2 660.802 631.133C660.318 630.781 659.79 630.473 659.218 630.209C659.922 630.517 659.614 630.473 659.306 630.033C659.042 629.637 658.558 629.285 658.206 628.888C657.546 628.184 656.974 627.392 656.358 626.644C655.258 625.28 654.202 623.916 652.881 622.816C649.537 620 644.961 619.032 641.044 621.232C638.844 622.464 637.392 624.312 636.204 626.336C635.367 626.776 634.62 627.392 634.091 628.14C629.383 628.405 624.718 628.845 620.054 629.461C616.974 629.857 613.893 630.341 610.813 630.869C607.513 631.441 603.904 631.749 602.1 634.961C601.88 635.401 601.748 635.929 601.66 636.457C598.008 635.929 594.355 634.873 590.923 633.377C582.342 633.641 573.805 633.949 565.312 634.301C565.004 635.137 564.256 635.753 563.068 635.621C558.36 635.137 553.651 635.357 548.987 636.017C546.567 636.369 544.146 636.765 541.77 637.073C539.482 637.381 536.974 638.041 534.685 637.733C533.013 637.513 531.561 636.765 530.241 635.797C517.567 636.369 505.246 636.941 493.585 637.513C488.348 626.072 487.028 588.756 481.572 588.756C472.463 588.756 467.358 639.714 467.358 639.714L431.803 643.014C431.803 643.014 424.586 597.821 419.877 568.47C419.525 554.961 418.645 541.408 417.721 528.03C417.325 521.913 417.017 515.753 416.753 509.592C416.049 504.224 415.433 498.855 414.905 493.487C414.289 496.127 413.673 498.811 413.013 501.451C413.145 510.648 413.233 519.845 413.101 529.042C412.969 539.955 412.924 551.001 413.189 562.002C409.14 588.888 401.967 636.545 401.131 640.242C386.346 643.19 372.22 645.742 358.623 648.031C356.907 649.879 355.058 651.507 352.638 652.387C349.558 653.575 346.17 653.619 342.913 653.399C342.825 653.311 342.737 653.179 342.605 653.091C339.657 650.583 336.357 649.307 332.748 648.471C329.228 646.886 325.663 645.346 321.923 644.378C316.775 643.058 311.01 642.134 306.082 644.598C301.725 646.798 298.645 650.847 295.784 654.675C294.332 656.611 292.484 658.9 290.372 660.704C288.26 661.54 286.059 662.2 283.771 662.464C279.327 663.036 275.278 661.892 271.67 659.824C245.267 662.508 223.749 663.784 208.083 664.312C157.654 665.94 149.997 651.375 142.252 637.689C140.096 625.5 139.7 614.455 140.624 599.229C134.024 696.26 166.587 692.959 409.976 655.555C411.912 650.099 417.677 622.2 417.677 622.2C417.677 622.2 421.505 644.158 426.346 654.191C442.54 652.915 458.997 651.815 475.631 650.847C478.227 627.172 485.356 624.4 487.996 650.099C548.811 646.798 611.693 645.39 672.464 645.39C695.61 626.16 730.417 628.801 753.784 646.27C793.344 647.106 832.948 648.647 871.584 650.979C876.073 634.433 881.705 623.3 883.509 619.912C883.817 619.912 884.081 619.868 884.345 619.692C885.049 622.508 887.03 632.409 885.225 651.815C893.938 652.387 902.563 653.003 911.144 653.663C913.3 644.026 918.493 638.658 918.493 638.658C918.493 638.658 923.025 643.586 922.937 654.631C939.571 655.995 955.809 657.58 971.738 659.252C984.544 653.487 988.768 639.142 999.593 630.957C1004.74 625.456 1024.5 613.267 1025.25 627.216C1030.97 638.57 1030.31 653.839 1026.96 666.072C1084.3 675.445 1203.73 708.317 1204.13 634.961C1201.05 656.039 1182.83 669.197 1137.33 669.197L1137.37 669.241ZM1003.86 572.915C1013.98 551.396 1042.67 566.27 1026.48 585.676C1014.6 603.454 991.453 592.453 1003.86 572.915Z" fill="#BC6182"/>
</g>
<g style="mix-blend-mode:multiply" opacity="0.15">
<path d="M140.712 599.232C141.636 585.943 143.264 570.718 145.2 553.468C143 572.962 141.46 587.395 140.712 599.232Z" fill="#BC6182"/>
</g>
<g style="mix-blend-mode:multiply" opacity="0.15">
<path d="M145.507 550.606C145.507 550.782 145.507 550.958 145.463 551.178C145.463 551.002 145.463 550.826 145.507 550.65V550.606Z" fill="#BC6182"/>
</g>
<g style="mix-blend-mode:multiply" opacity="0.15">
<path d="M838.275 628.405C838.275 628.405 838.627 628.449 838.759 628.493C841.267 629.813 844.215 629.681 846.679 628.361C848.528 627.349 849.892 625.589 850.508 623.608C850.684 623.168 850.86 622.772 851.036 622.332C851.388 621.276 851.168 620.396 851.036 619.34C851.036 619.12 850.948 618.9 850.86 618.68C850.64 618.064 850.376 617.448 850.068 616.876C849.716 616.304 849.276 615.732 848.836 615.248C848.704 615.072 848.528 614.896 848.352 614.764C847.956 614.411 847.472 614.06 847.032 613.751C846.944 613.663 846.811 613.619 846.723 613.575C846.107 613.267 845.491 613.003 844.831 612.783C844.743 612.783 844.655 612.739 844.567 612.695C843.995 612.563 843.335 612.475 842.763 612.431C842.543 612.431 842.323 612.431 842.103 612.431C841.443 612.519 840.695 612.519 840.035 612.783C839.419 613.003 838.803 613.223 838.275 613.531C837.703 613.839 837.175 614.323 836.647 614.764C835.986 615.292 835.502 616.04 835.062 616.744C834.622 617.492 834.226 618.328 834.05 619.208C833.918 619.868 833.786 620.572 833.786 621.276C833.786 621.98 833.918 622.684 834.006 623.344C834.138 624.225 834.534 625.149 835.018 625.897C835.766 627.085 836.911 628.053 838.275 628.405Z" fill="#BC6182"/>
</g>
<g style="mix-blend-mode:multiply" opacity="0.15">
<path d="M598.362 621.147C598.494 621.543 598.713 621.895 599.066 622.203C599.374 622.511 599.726 622.731 600.122 622.907C600.518 623.127 600.958 623.215 601.398 623.171C601.706 623.171 601.97 623.083 602.278 623.039C602.85 622.863 603.334 622.599 603.73 622.203C603.906 621.983 604.082 621.763 604.258 621.543C604.566 621.015 604.698 620.487 604.698 619.871C604.698 619.606 604.698 619.342 604.698 619.078C604.698 618.946 604.698 618.814 604.698 618.682C604.698 618.286 604.61 617.89 604.522 617.494C604.434 616.966 604.302 616.482 604.17 615.998C604.082 615.778 603.994 615.514 603.862 615.294C603.686 614.942 603.422 614.678 603.114 614.458C602.938 614.282 602.718 614.15 602.454 614.062C602.102 613.886 601.75 613.798 601.31 613.798L600.518 613.886C600.298 613.974 600.034 614.062 599.814 614.194C599.462 614.37 599.198 614.634 598.978 614.942C598.714 615.206 598.538 615.558 598.45 615.954C598.318 616.438 598.186 616.966 598.098 617.45C598.01 617.846 597.922 618.242 597.922 618.638C597.922 618.77 597.922 618.902 597.922 619.034C597.922 619.298 597.922 619.606 597.922 619.871C597.922 620.311 598.01 620.751 598.186 621.147H598.362Z" fill="#BC6182"/>
</g>
<g style="mix-blend-mode:multiply" opacity="0.15">
<path d="M316.467 626.205C316.643 626.425 316.819 626.689 316.995 626.909C317.347 627.349 317.875 627.745 318.359 628.053C318.887 628.361 319.416 628.625 319.988 628.713C320.34 628.757 320.736 628.845 321.088 628.845C321.968 628.845 322.936 628.493 323.552 627.833C324.124 627.173 324.388 626.777 324.652 625.941C324.916 625.105 324.872 623.961 324.652 623.125C324.3 621.849 323.376 620.749 322.232 620.088C321.792 619.824 321.308 619.604 320.78 619.516C319.944 619.34 319.02 619.252 318.184 619.516C317.919 619.56 317.743 619.736 317.523 619.868H317.435C317.259 619.956 317.039 620.001 316.863 620.177C316.423 620.441 316.071 620.837 315.851 621.277L315.455 622.245C315.279 622.949 315.279 623.653 315.455 624.357C315.587 625.061 316.027 625.589 316.467 626.117V626.205Z" fill="#BC6182"/>
</g>
<g style="mix-blend-mode:multiply" opacity="0.2">
<path d="M1103.75 611.026C1103.75 616.658 1111.94 626.208 1111.94 626.208C1111.94 626.208 1125.36 631.004 1133.06 624.667L1136.45 589.596L1106.09 586.647L1103.71 611.026H1103.75Z" fill="#BC6182"/>
</g>
<path d="M1103.75 611.023C1103.8 601.518 1112.16 591.133 1134.38 593.289C1155.85 598.833 1162.06 611.067 1165.23 626.952C1165.23 626.952 1169.36 584.18 1170.95 567.942C1172.53 551.705 1110.44 541.804 1108.5 561.87C1107.05 576.831 1103.75 611.067 1103.75 611.067V611.023Z" fill="url(#paint4_linear_317_405)"/>
<g style="mix-blend-mode:multiply" opacity="0.15">
<path d="M1107.76 570.85L1106.57 582.159C1119.2 570.013 1149.26 574.15 1156.34 586.383C1155.99 592.896 1155.2 599.497 1154.1 602.093C1160.35 607.461 1162.68 617.626 1165.23 626.075C1165.23 626.075 1169.98 584.579 1171.04 566.977C1171.04 566.537 1109.43 558.352 1107.8 570.85H1107.76Z" fill="#8E1613"/>
</g>
<path d="M1252.62 135.335C1251.74 117.029 1244.04 102.111 1232.6 91.0222C1227.54 98.591 1221.24 105.412 1215.74 112.672C1214.2 114.697 1211.08 113.552 1211.61 110.912C1213.63 100.703 1215.96 90.5821 1219.53 80.8131C1216.18 78.7449 1212.66 77.0287 1209.06 75.4445C1207.87 78.4368 1206.81 81.4291 1205.89 84.4654C1205.14 86.9297 1201.44 86.4457 1201.44 83.8494C1201.44 80.109 1201.53 76.3687 1201.93 72.6283C1168.97 61.5832 1129.63 70.032 1115.46 102.991C1121.53 180.307 1114.27 291.683 1107.27 352.233C1099.88 416.612 1071.54 588.098 1067.05 602.619C1070.79 593.686 1075.77 586.91 1081.71 581.849C1081.71 581.585 1081.71 581.277 1081.75 581.013C1082.37 578.637 1083.64 576.48 1085.14 574.456C1085.49 571.464 1086.28 568.516 1087.21 565.655C1087.6 564.467 1088.75 563.719 1089.98 564.071C1090.2 564.115 1090.37 564.247 1090.55 564.379C1090.59 564.247 1090.64 564.159 1090.73 564.027C1091.47 562.531 1093.9 562.531 1094.64 564.027C1095.74 566.271 1097.02 568.472 1097.77 570.848C1097.99 571.508 1098.08 572.168 1098.21 572.828C1109.3 569.308 1122.15 569.176 1135.92 571.288C1169.76 576.524 1203.2 595.93 1204.21 634.919C1201 576.701 1205.09 425.985 1211.65 356.722C1216.93 300.66 1231.94 213.003 1252.66 135.291L1252.62 135.335Z" fill="url(#paint5_linear_317_405)"/>
<path d="M1219.53 80.8158C1216.18 78.7476 1212.66 77.0314 1209.05 75.4473C1208.13 77.8235 1207.25 80.1998 1206.5 82.62C1210.86 81.3439 1215.21 80.8158 1219.53 80.8158Z" fill="#FFB64A"/>
<path style="mix-blend-mode:multiply" opacity="0.35" d="M289.404 134.721C237.522 130.1 187.445 124.16 140.536 116.547C218.293 639.761 -0.278258 715.141 327.952 667.924C284.123 610.982 269.822 485.745 257.852 391.355C245.047 290.233 238.138 181.278 289.448 134.765L289.404 134.721Z" fill="url(#paint6_linear_317_405)"/>
<path d="M252.662 612.475C252.442 609.834 256.402 609.526 257.106 611.859C259.086 618.151 261.595 624.268 264.103 630.341C271.408 622.42 276.468 612.959 277.612 602.662L268.503 555.181C264.235 531.33 171.517 550.34 173.321 564.422C175.126 578.503 179.394 626.864 179.394 626.864C185.863 639.801 191.276 651.595 217.854 653.795C230.528 652.563 243.993 646.974 254.994 638.569C254.246 629.856 253.498 621.144 252.706 612.431L252.662 612.475Z" fill="url(#paint7_linear_317_405)"/>
<g style="mix-blend-mode:multiply" opacity="0.75">
<path d="M252.662 612.475C252.442 609.834 256.402 609.526 257.106 611.859C259.086 618.151 261.595 624.268 264.103 630.341C271.408 622.42 276.468 612.959 277.612 602.662L268.503 555.181C264.235 531.33 171.517 550.34 173.321 564.422C175.126 578.503 179.394 626.864 179.394 626.864C185.863 639.801 191.276 651.595 217.854 653.795C230.528 652.563 243.993 646.974 254.994 638.569C254.246 629.856 253.498 621.144 252.706 612.431L252.662 612.475Z" fill="#BC6182"/>
</g>
<path d="M240.868 611.026C240.868 616.658 232.683 626.208 232.683 626.208C232.683 626.208 219.261 631.004 211.561 624.667L208.172 589.596L238.535 586.647L240.912 611.026H240.868Z" fill="url(#paint8_linear_317_405)"/>
<g style="mix-blend-mode:multiply" opacity="0.2">
<path d="M240.868 611.026C240.868 616.658 232.683 626.208 232.683 626.208C232.683 626.208 219.261 631.004 211.561 624.667L208.172 589.596L238.535 586.647L240.912 611.026H240.868Z" fill="#BC6182"/>
</g>
<path d="M240.87 611.023C240.826 601.518 232.465 591.133 210.243 593.289C188.768 598.833 182.564 611.067 179.395 626.952C179.395 626.952 175.259 584.18 173.675 567.942C172.091 551.705 234.181 541.804 236.117 561.87C237.569 576.831 240.87 611.067 240.87 611.067V611.023Z" fill="url(#paint9_linear_317_405)"/>
<path d="M237.391 352.323C230.438 291.772 223.178 180.397 229.206 103.081C222.121 86.579 208.656 76.194 192.858 71.3535C191.89 71.5735 190.922 71.8815 189.91 72.0135C186.698 72.4976 183.618 71.5735 180.449 70.9574C179.041 70.6934 176.841 70.6494 175.961 70.8254C175.785 70.9134 175.609 71.0014 175.477 71.0894C173.321 72.4976 171.428 74.3458 169.184 75.798C166.984 77.2061 163.903 78.1301 162.143 75.5338C160.867 73.6856 160.867 71.0894 161.263 68.5371C144.673 70.3413 128.216 76.942 115.498 87.8111C116.07 95.996 116.731 104.137 116.731 112.366C116.731 115.358 112.55 115.182 112.198 112.366C111.45 106.381 110.218 100.484 108.59 94.6758C99.0848 105.325 92.7921 119.01 92 135.38C112.726 213.092 127.688 300.793 133.012 356.811C139.569 426.074 137.853 579.914 140.493 632.148C139.833 619.606 145.95 613.578 152.154 601.08C152.022 600.464 151.89 599.848 151.758 599.188C151.274 596.988 150.834 594.744 150.834 592.455C150.834 590.563 151.098 588.583 152.154 586.999C153.078 585.635 154.134 584.227 155.543 583.302C156.687 582.554 158.227 582.334 159.415 583.082C160.471 583.743 161.087 584.887 161.395 586.075C161.835 587.615 161.923 589.287 161.923 590.915C174.685 580.354 192.066 574.854 209.14 572.213C215.169 571.289 219.261 572.081 224.85 572.125C227.402 570.145 231.274 566.009 234.179 564.513C235.851 563.632 237.743 562.884 239.679 563.016C239.943 563.016 240.207 563.104 240.471 563.148C240.867 563.148 241.263 563.28 241.615 563.456C242.672 563.852 243.684 564.424 244.564 565.216C246.148 566.581 247.38 568.385 248.656 570.057C249.977 571.861 251.252 573.621 252.573 575.426C263.222 580.398 271.891 589.067 277.611 602.796C274.927 588.847 244.784 416.789 237.391 352.411V352.323Z" fill="url(#paint10_linear_317_405)"/>
<path d="M179.482 627.349C183.178 615.379 188.283 602.134 203.596 597.074C218.69 592.101 231.319 596.545 236.38 603.058C241 608.999 240.648 617.8 232.199 626.205C227.843 627.437 221.726 629.417 211.605 625.104C217.766 631.221 228.767 629.593 232.727 628.361C240.912 621.452 243.421 609.351 237.7 601.298C231.935 593.245 220.362 589.549 203.332 594.873C187.095 599.934 180.274 616.083 179.438 627.349H179.482Z" fill="#FFCFA4"/>
<path d="M1203.91 627.921C1201.88 598.834 1170.46 574.808 1137.37 571.024C1124.22 569.527 1110.97 569.396 1097.99 571.904C1095.92 563.235 1086.11 548.097 1081.62 581.937C1073.87 587.877 1066.97 601.695 1066.97 601.695C1073.57 593.334 1076.51 586.997 1084.92 582.289C1084.52 570.1 1090.33 554.874 1096.27 574.368C1109.39 571.684 1137.64 573.972 1153.65 578.548C1169.23 582.993 1193.13 597.69 1203.86 628.01L1203.91 627.921Z" fill="#FFCFA4"/>
<path d="M579.48 179.868C579.084 179.868 579.084 180.44 579.48 180.44C579.876 180.44 579.876 179.868 579.48 179.868Z" fill="#BC6182"/>
<g style="mix-blend-mode:multiply" opacity="0.15">
<path d="M228.062 121.079C228.37 114.918 228.722 108.889 229.206 103.081C222.121 86.579 208.656 76.194 192.858 71.3535C191.89 71.5735 190.922 71.8815 189.91 72.0135C186.698 72.4976 183.618 71.5735 180.449 70.9574C179.041 70.6934 176.841 70.6494 175.961 70.8254C175.785 70.9134 175.609 71.0014 175.477 71.0894C173.321 72.4976 171.428 74.3458 169.184 75.798C166.984 77.2061 163.903 78.1301 162.143 75.5338C160.867 73.6856 160.867 71.0894 161.263 68.5371C144.673 70.3413 128.216 76.942 115.498 87.8111C116.07 95.996 116.731 104.137 116.731 112.366C116.731 115.358 112.55 115.182 112.198 112.366C111.45 106.381 110.218 100.484 108.59 94.6758C99.0848 105.325 92.7921 119.01 92 135.38C93.5402 141.101 94.9924 146.865 96.4886 152.718C96.4886 141.629 99.3929 131.816 106.39 119.758C109.074 129.219 121.043 158.307 121.043 158.307C121.043 158.307 124.959 120.418 126.94 102.905C146.434 91.9915 170.9 87.1511 191.714 92.2997C191.846 106.249 192.947 120.287 193.079 134.236C193.211 151.398 192.594 168.559 194.091 185.677C194.179 186.645 195.499 186.645 195.587 185.677C197.127 168.603 196.599 151.398 196.819 134.236C196.995 120.947 198.095 107.613 198.315 94.3238C210.68 98.9003 221.329 107.437 228.062 121.123V121.079Z" fill="#BC6182"/>
</g>
<g style="mix-blend-mode:multiply" opacity="0.15">
<path d="M268.238 549.198C259.833 538.549 245.664 533.312 229.602 532.168C229.03 530.012 228.414 527.856 227.974 525.699C226.258 517.867 224.982 509.902 223.75 501.981C222.473 493.576 221.329 485.127 220.361 476.678C219.437 468.669 217.941 460.661 217.149 452.652C217.149 452.212 216.401 452.168 216.445 452.652C216.577 456.964 216.049 461.277 216.269 465.589C216.489 469.286 216.885 472.982 217.237 476.678C217.985 484.511 218.909 492.344 220.009 500.133C221.153 508.098 222.518 516.018 223.882 523.939C224.322 526.491 224.674 529.22 225.026 531.904C217.853 531.772 210.372 532.344 202.98 533.664C202.055 525.875 200.867 518.175 199.503 510.43C199.415 509.99 198.711 510.122 198.755 510.518C198.975 518.439 199.371 526.315 200.031 534.236C174.728 539.253 150.526 551.97 140.977 568.032L139.129 571.112C139.129 600.639 139.305 619.121 140.625 632.719C141.065 617.845 145.818 613.488 152.242 600.991C152.11 600.375 151.978 599.759 151.846 599.099C151.362 596.899 150.922 594.654 150.922 592.366C150.922 590.474 151.186 588.494 152.242 586.91C153.166 585.546 154.222 584.137 155.631 583.213C156.775 582.465 158.315 582.245 159.503 582.993C160.559 583.653 161.175 584.797 161.483 585.986C161.923 587.526 162.011 589.198 162.011 590.826C174.773 580.265 192.154 574.764 209.228 572.124C215.257 571.2 219.349 571.992 224.938 572.036C227.49 570.056 231.362 565.919 234.267 564.423C235.939 563.543 237.831 562.795 239.767 562.927C240.031 562.927 240.295 563.015 240.559 563.059C240.955 563.059 241.351 563.191 241.704 563.367C242.76 563.763 243.772 564.335 244.652 565.127C246.236 566.492 247.468 568.296 248.744 569.968C250.064 571.772 251.34 573.532 252.661 575.337C263.31 580.309 271.979 588.978 277.699 602.707C276.379 598.395 268.282 549.198 268.282 549.198H268.238Z" fill="#BC6182"/>
</g>
<g style="mix-blend-mode:multiply" opacity="0.15">
<path d="M1203.07 581.674C1197.79 567.857 1187.1 557.56 1173.98 550.431C1170.68 548.627 1168.79 545.106 1169.1 541.366C1169.5 536.745 1170.02 530.849 1170.29 527.856C1170.77 522.048 1170.64 516.415 1171.56 510.651C1171.56 510.475 1171.34 510.431 1171.3 510.563C1170.2 515.887 1168.31 520.948 1167.25 526.272C1166.81 528.429 1166.24 531.993 1165.76 535.513C1165.01 540.794 1159.68 544.05 1154.53 542.554C1122.63 533.313 1086.06 538.506 1076.12 555.227C1072.33 576.658 1068.2 598.792 1067.01 602.708C1070.75 593.775 1075.72 586.999 1081.66 581.938C1081.66 581.674 1081.66 581.366 1081.71 581.102C1082.32 578.726 1083.6 576.57 1085.09 574.545C1085.45 571.553 1086.24 568.605 1087.16 565.744C1087.56 564.556 1088.7 563.808 1089.94 564.16C1090.16 564.204 1090.33 564.336 1090.51 564.468C1090.55 564.336 1090.6 564.248 1090.68 564.116C1091.43 562.62 1093.85 562.62 1094.6 564.116C1095.7 566.36 1096.98 568.561 1097.72 570.937C1097.94 571.597 1098.03 572.257 1098.16 572.917C1109.25 569.397 1122.1 569.265 1135.88 571.377C1169.72 576.614 1203.16 596.02 1204.17 635.008C1203.47 622.554 1203.07 581.718 1203.07 581.718V581.674Z" fill="#BC6182"/>
</g>
<g style="mix-blend-mode:multiply" opacity="0.15">
<path d="M1252.62 135.336C1251.74 117.03 1244.04 102.112 1232.6 91.0232C1231.41 92.8274 1230.09 94.5876 1228.77 96.3478C1228.5 96.6998 1228.19 97.0518 1227.93 97.4038C1223.93 102.552 1219.66 107.481 1215.74 112.63C1214.2 114.654 1211.08 113.509 1211.61 110.869C1213.63 100.66 1215.96 90.5391 1219.53 80.7701C1218.21 79.978 1216.84 79.23 1215.52 78.526C1213.41 77.4259 1211.25 76.3696 1209.1 75.4015C1207.91 78.3939 1206.85 81.3862 1205.93 84.4226C1205.18 86.8868 1201.48 86.4027 1201.48 83.8064C1201.48 80.066 1201.57 76.3257 1201.97 72.5853C1169.01 61.5402 1129.67 69.989 1115.5 102.948C1115.98 108.977 1116.34 115.27 1116.69 121.694C1121.18 108.229 1137.9 96.5238 1158.4 92.3874C1163.9 91.2873 1168.88 95.9078 1168.3 101.496V101.584C1167.82 105.809 1167.38 110.077 1166.9 114.302C1166.41 118.746 1166.9 123.059 1166.9 127.503C1166.9 127.811 1167.38 127.899 1167.47 127.591C1168.39 123.631 1169.8 119.934 1170.42 115.886C1170.99 111.617 1171.56 107.305 1172.13 103.036C1172.22 102.288 1172.35 101.54 1172.44 100.792C1173.19 94.8957 1178.6 90.6271 1184.5 91.3752C1191.89 92.2993 1199.33 94.3235 1206.5 97.6678L1198.54 150.297L1229.25 106.733C1243.73 114.918 1249.76 132.432 1248.83 150.297C1250.11 145.237 1251.43 140.176 1252.75 135.204L1252.62 135.336Z" fill="#BC6182"/>
</g>
<g style="mix-blend-mode:multiply" opacity="0.15">
<path d="M1197.31 186.028C1193.65 202.705 1192.33 219.911 1189.34 236.677C1186.35 253.487 1183.8 270.384 1181.33 287.282C1176.45 320.638 1172.14 354.037 1168.84 387.612C1166.94 406.666 1165.84 425.764 1164 444.774C1163.91 445.61 1165.23 445.61 1165.32 444.774C1168.84 411.023 1174.12 377.447 1178.17 343.74C1182.17 310.164 1185.78 276.501 1190.05 242.969C1191.28 233.156 1192.47 223.387 1193.96 213.618C1195.37 204.465 1197.13 195.313 1197.97 186.072C1197.97 185.72 1197.4 185.631 1197.35 185.984L1197.31 186.028Z" fill="#BC6182"/>
</g>
<g style="mix-blend-mode:multiply" opacity="0.15">
<path d="M185.86 399.361C184.452 384.883 183.484 370.406 182.207 355.928C179.699 327.281 177.499 298.59 175.299 269.899C174.067 253.486 173.45 237.028 172.042 220.658C171.998 220.13 171.206 220.086 171.206 220.658C170.986 235.312 171.778 250.097 172.262 264.751C172.702 279.096 173.318 293.442 174.154 307.787C175.827 336.874 178.775 365.785 181.943 394.74C183.704 410.846 185.288 426.996 188.192 442.925C188.368 443.937 190.084 443.717 189.996 442.661C189.072 428.184 187.312 413.75 185.904 399.317L185.86 399.361Z" fill="#BC6182"/>
</g>
<g style="mix-blend-mode:multiply" opacity="0.15">
<path d="M325.138 167.678C322.63 168.426 320.694 170.495 320.122 173.047C319.506 175.643 320.121 178.284 321.838 180.308C322.014 180.484 322.234 180.616 322.41 180.792C322.938 181.32 323.466 181.848 324.126 182.2C329.142 184.928 335.611 180.704 335.611 175.115C335.611 169.967 329.978 166.226 325.182 167.678H325.138Z" fill="#BC6182"/>
</g>
<path d="M320.164 595.71C319.9 595.71 319.9 596.106 320.164 596.106C320.428 596.106 320.428 595.71 320.164 595.71Z" fill="#BC6182"/>
<path d="M140.759 626.072C141.551 618.371 147.492 605.302 152.2 601.033C148.284 590.34 151.144 583.035 156.469 581.627C159.109 580.923 163.466 583.343 161.97 590.868C173.851 580.087 198.361 569.394 224.5 571.286C235.633 558.173 245.71 557.381 252.619 575.379C265.204 579.559 275.017 591.748 277.657 602.749C272.201 592.408 264.676 584.047 249.627 577.315C247.162 569.042 239.77 559.625 225.512 574.366C211.915 574.366 182.388 577.095 159.945 596.501C162.057 580.087 152.2 578.635 155.017 600.593C151.452 605.258 145.732 611.066 140.803 626.072H140.759Z" fill="#FFCFA4"/>
<path d="M606.604 340.531C610.23 329.546 625.769 329.546 629.395 340.531L633.545 353.104C635.456 358.896 641.409 362.333 647.381 361.092L660.344 358.399C671.67 356.047 679.44 369.504 671.739 378.137L662.926 388.017C658.865 392.568 658.865 399.442 662.926 403.993L671.739 413.873C679.44 422.506 671.67 435.963 660.344 433.611L647.381 430.918C641.409 429.677 635.456 433.114 633.545 438.906L629.395 451.479C625.769 462.464 610.23 462.464 606.604 451.479L602.455 438.906C600.543 433.114 594.591 429.677 588.619 430.918L575.656 433.611C564.329 435.963 556.56 422.506 564.26 413.873L573.074 403.993C577.134 399.442 577.134 392.568 573.074 388.017L564.26 378.137C556.56 369.504 564.329 356.047 575.656 358.399L588.619 361.092C594.591 362.333 600.543 358.896 602.455 353.104L606.604 340.531Z" fill="#F5A878"/>
<path d="M744.699 342.266C753.332 334.565 766.789 342.335 764.436 353.661L761.744 366.624C760.503 372.596 763.94 378.548 769.732 380.46L782.305 384.61C793.29 388.235 793.29 403.775 782.305 407.4L769.732 411.55C763.94 413.462 760.503 419.414 761.744 425.386L764.436 438.349C766.789 449.675 753.332 457.445 744.699 449.744L734.819 440.931C730.267 436.871 723.394 436.871 718.843 440.931L708.963 449.744C700.33 457.445 686.873 449.675 689.225 438.349L691.918 425.386C693.158 419.414 689.722 413.462 683.93 411.55L671.357 407.4C660.372 403.775 660.372 388.235 671.357 384.61L683.93 380.46C689.722 378.548 693.158 372.596 691.918 366.624L689.225 353.661C686.873 342.335 700.33 334.565 708.963 342.266L718.843 351.079C723.394 355.139 730.267 355.139 734.819 351.079L744.699 342.266Z" fill="#F5A878"/>
<path fill-rule="evenodd" clip-rule="evenodd" d="M573.255 403.786C573.195 403.855 573.135 403.925 573.074 403.993L564.26 413.873C564.204 413.937 564.148 414 564.093 414.064C563.663 414.565 563.285 415.08 562.954 415.608C560.992 418.741 560.745 422.28 561.738 425.404C562.282 427.116 563.198 428.703 564.408 430.03C566.617 432.452 569.806 434.007 573.501 433.874C574.122 433.852 574.759 433.782 575.407 433.66C575.49 433.644 575.573 433.628 575.656 433.611L588.619 430.918C588.709 430.899 588.799 430.882 588.889 430.865C591.673 430.352 594.44 430.849 596.782 432.119C596.968 432.22 597.152 432.327 597.333 432.438C599.604 433.83 601.418 435.978 602.366 438.646C602.396 438.732 602.426 438.819 602.455 438.906L606.604 451.479C606.631 451.559 606.658 451.64 606.686 451.719C606.905 452.341 607.162 452.927 607.454 453.477C609.186 456.743 612.127 458.727 615.329 459.429C617.084 459.814 618.916 459.814 620.67 459.429C623.872 458.727 626.814 456.743 628.546 453.477C628.838 452.927 629.095 452.341 629.313 451.719C629.341 451.64 629.369 451.559 629.395 451.479L633.545 438.906C633.574 438.819 633.603 438.732 633.634 438.646C634.582 435.978 636.395 433.83 638.667 432.438C638.847 432.327 639.031 432.22 639.218 432.119C641.559 430.849 644.326 430.352 647.111 430.865C647.201 430.882 647.291 430.899 647.381 430.918L660.344 433.611C660.427 433.628 660.51 433.644 660.593 433.66C661.241 433.782 661.877 433.852 662.499 433.874C666.193 434.007 669.382 432.452 671.591 430.03C672.802 428.703 673.718 427.116 674.262 425.404C675.255 422.28 675.007 418.741 673.045 415.608C672.715 415.08 672.336 414.565 671.906 414.064C671.851 414 671.796 413.937 671.739 413.873L662.926 403.993C662.864 403.925 662.804 403.855 662.745 403.786C660.908 401.631 659.955 398.987 659.885 396.323C659.879 396.111 659.879 395.899 659.885 395.687C659.955 393.024 660.908 390.379 662.745 388.224C662.804 388.155 662.864 388.085 662.926 388.017L671.739 378.137C671.796 378.073 671.851 378.01 671.906 377.946C672.336 377.445 672.715 376.93 673.045 376.402C675.007 373.269 675.255 369.73 674.262 366.606C673.718 364.894 672.802 363.307 671.591 361.98C669.382 359.558 666.193 358.003 662.499 358.136C661.877 358.158 661.241 358.228 660.593 358.35C660.51 358.366 660.427 358.382 660.344 358.399L647.381 361.092C647.291 361.111 647.201 361.129 647.111 361.145C644.326 361.658 641.559 361.161 639.218 359.891C639.031 359.79 638.848 359.683 638.667 359.572C636.395 358.18 634.582 356.032 633.634 353.364C633.603 353.278 633.574 353.191 633.545 353.104L629.395 340.531C629.369 340.451 629.341 340.37 629.313 340.291C629.095 339.669 628.838 339.083 628.546 338.533C626.814 335.267 623.872 333.283 620.67 332.581C618.916 332.196 617.084 332.196 615.329 332.581C612.127 333.283 609.186 335.267 607.454 338.533C607.162 339.083 606.905 339.669 606.686 340.291C606.658 340.37 606.631 340.451 606.604 340.531L602.455 353.104C602.426 353.191 602.396 353.278 602.366 353.364C601.418 356.032 599.604 358.18 597.333 359.572C597.152 359.683 596.968 359.79 596.782 359.891C594.44 361.161 591.673 361.658 588.889 361.145C588.799 361.129 588.709 361.111 588.619 361.092L575.656 358.399C575.573 358.382 575.49 358.366 575.407 358.35C574.759 358.228 574.122 358.158 573.501 358.136C569.806 358.003 566.617 359.558 564.408 361.98C563.198 363.307 562.282 364.894 561.738 366.606C560.745 369.73 560.992 373.269 562.954 376.402C563.285 376.93 563.663 377.445 564.093 377.946C564.148 378.01 564.204 378.073 564.26 378.137L573.074 388.017C573.135 388.085 573.195 388.155 573.255 388.224C575.091 390.379 576.045 393.023 576.115 395.687C576.12 395.899 576.12 396.111 576.115 396.323C576.045 398.987 575.091 401.631 573.255 403.786ZM610.019 382.181C606.834 386.461 604.151 391.108 602.038 396.005C604.151 400.902 606.834 405.549 610.019 409.829C615.317 410.447 620.683 410.447 625.981 409.829C629.165 405.549 631.848 400.902 633.962 396.005C631.848 391.108 629.165 386.461 625.981 382.181C620.683 381.563 615.317 381.563 610.019 382.181Z" fill="#880F02"/>
<path fill-rule="evenodd" clip-rule="evenodd" d="M684.19 380.371C684.104 380.401 684.017 380.431 683.93 380.46L671.357 384.61C671.276 384.636 671.196 384.664 671.117 384.692C670.494 384.91 669.908 385.167 669.359 385.459C666.093 387.191 664.109 390.133 663.407 393.334C663.022 395.089 663.022 396.921 663.407 398.676C664.109 401.878 666.093 404.819 669.359 406.551C669.908 406.843 670.494 407.1 671.117 407.319C671.196 407.346 671.276 407.374 671.357 407.4L683.93 411.55C684.017 411.579 684.104 411.609 684.19 411.639C686.858 412.587 689.006 414.401 690.398 416.672C690.509 416.853 690.615 417.037 690.717 417.223C691.987 419.565 692.484 422.332 691.971 425.116C691.954 425.206 691.937 425.296 691.918 425.386L689.225 438.349C689.208 438.432 689.192 438.515 689.176 438.598C689.054 439.246 688.984 439.882 688.961 440.504C688.829 444.198 690.384 447.387 692.806 449.597C694.133 450.807 695.72 451.723 697.432 452.267C700.556 453.26 704.095 453.013 707.228 451.05C707.755 450.72 708.271 450.341 708.772 449.912C708.836 449.857 708.899 449.801 708.963 449.744L718.843 440.931C718.911 440.87 718.98 440.809 719.05 440.75C721.205 438.914 723.849 437.96 726.513 437.89C726.725 437.884 726.937 437.884 727.149 437.89C729.812 437.96 732.457 438.914 734.612 440.75C734.681 440.809 734.75 440.87 734.819 440.931L744.699 449.744C744.762 449.801 744.826 449.857 744.89 449.912C745.39 450.341 745.906 450.72 746.434 451.05C749.566 453.013 753.106 453.26 756.23 452.267C757.942 451.723 759.529 450.807 760.856 449.597C763.277 447.387 764.833 444.198 764.7 440.504C764.678 439.882 764.608 439.246 764.486 438.598C764.47 438.515 764.454 438.432 764.436 438.349L761.744 425.386C761.725 425.296 761.707 425.206 761.691 425.116C761.178 422.332 761.674 419.565 762.945 417.223C763.046 417.037 763.152 416.853 763.263 416.672C764.656 414.401 766.804 412.587 769.471 411.639C769.558 411.609 769.645 411.579 769.732 411.55L782.305 407.4C782.385 407.374 782.465 407.346 782.545 407.319C783.167 407.1 783.753 406.843 784.303 406.551C787.569 404.819 789.553 401.878 790.255 398.676C790.64 396.921 790.64 395.089 790.255 393.334C789.553 390.133 787.569 387.191 784.303 385.459C783.753 385.167 783.167 384.91 782.545 384.692C782.465 384.664 782.385 384.636 782.305 384.61L769.732 380.46C769.645 380.431 769.558 380.401 769.471 380.371C766.804 379.423 764.656 377.609 763.263 375.338C763.152 375.157 763.046 374.973 762.945 374.787C761.674 372.445 761.178 369.679 761.691 366.894C761.707 366.804 761.725 366.714 761.744 366.624L764.436 353.661C764.454 353.578 764.47 353.495 764.486 353.412C764.608 352.764 764.678 352.128 764.7 351.506C764.833 347.812 763.277 344.623 760.856 342.413C759.529 341.203 757.942 340.287 756.23 339.743C753.106 338.75 749.566 338.997 746.434 340.96C745.906 341.29 745.39 341.669 744.89 342.098C744.826 342.153 744.762 342.209 744.699 342.266L734.819 351.079C734.75 351.14 734.681 351.201 734.612 351.26C732.457 353.096 729.812 354.05 727.149 354.12C726.937 354.126 726.725 354.126 726.513 354.12C723.849 354.05 721.205 353.096 719.05 351.26C718.98 351.201 718.911 351.14 718.843 351.079L708.963 342.266C708.899 342.209 708.836 342.153 708.772 342.098C708.271 341.669 707.755 341.29 707.228 340.96C704.095 338.997 700.556 338.75 697.432 339.743C695.72 340.287 694.133 341.203 692.806 342.413C690.384 344.623 688.829 347.812 688.961 351.506C688.984 352.128 689.054 352.764 689.176 353.412C689.192 353.495 689.208 353.578 689.225 353.661L691.918 366.624C691.937 366.714 691.954 366.804 691.971 366.894C692.484 369.679 691.987 372.445 690.717 374.787C690.615 374.973 690.509 375.157 690.398 375.338C689.006 377.609 686.858 379.423 684.19 380.371ZM726.831 380.043C721.933 382.156 717.286 384.839 713.007 388.024C712.389 393.322 712.389 398.688 713.007 403.986C717.286 407.171 721.933 409.854 726.831 411.967C731.728 409.854 736.375 407.171 740.654 403.986C741.273 398.688 741.273 393.322 740.654 388.024C736.375 384.839 731.728 382.156 726.831 380.043Z" fill="#880F02"/>
<mask id="path-41-inside-1_317_405" fill="white">
<path fill-rule="evenodd" clip-rule="evenodd" d="M646 216.005H614V285.166C556.039 288.282 510 336.267 510 395.005C510 453.743 556.039 501.729 614 504.844V574.005H646V505.005V473.005H620C576.922 473.005 542 438.083 542 395.005C542 351.927 576.922 317.005 620 317.005H646V285.005V216.005ZM699 216.005V285.005V317.005H725C768.078 317.005 803 351.927 803 395.005C803 438.083 768.078 473.005 725 473.005H699V505.005V574.005H731V504.844C788.961 501.729 835 453.743 835 395.005C835 336.267 788.961 288.282 731 285.166V216.005H699Z"/>
</mask>
<path fill-rule="evenodd" clip-rule="evenodd" d="M646 216.005H614V285.166C556.039 288.282 510 336.267 510 395.005C510 453.743 556.039 501.729 614 504.844V574.005H646V505.005V473.005H620C576.922 473.005 542 438.083 542 395.005C542 351.927 576.922 317.005 620 317.005H646V285.005V216.005ZM699 216.005V285.005V317.005H725C768.078 317.005 803 351.927 803 395.005C803 438.083 768.078 473.005 725 473.005H699V505.005V574.005H731V504.844C788.961 501.729 835 453.743 835 395.005C835 336.267 788.961 288.282 731 285.166V216.005H699Z" fill="#F5A878"/>
<path d="M614 216.005V214.005H612V216.005H614ZM646 216.005H648V214.005H646V216.005ZM614 285.166L614.107 287.163L616 287.061V285.166H614ZM614 504.844H616V502.949L614.107 502.847L614 504.844ZM614 574.005H612V576.005H614V574.005ZM646 574.005V576.005H648V574.005H646ZM646 473.005H648V471.005H646V473.005ZM646 317.005V319.005H648V317.005H646ZM699 216.005V214.005H697V216.005H699ZM699 317.005H697V319.005H699V317.005ZM699 473.005V471.005H697V473.005H699ZM699 574.005H697V576.005H699V574.005ZM731 574.005V576.005H733V574.005H731ZM731 504.844L730.893 502.847L729 502.949V504.844H731ZM731 285.166H729V287.061L730.893 287.163L731 285.166ZM731 216.005H733V214.005H731V216.005ZM614 218.005H646V214.005H614V218.005ZM616 285.166V216.005H612V285.166H616ZM512 395.005C512 337.335 557.202 290.222 614.107 287.163L613.893 283.169C554.876 286.341 508 335.198 508 395.005H512ZM614.107 502.847C557.202 499.788 512 452.675 512 395.005H508C508 454.812 554.876 503.669 613.893 506.841L614.107 502.847ZM616 574.005V504.844H612V574.005H616ZM646 572.005H614V576.005H646V572.005ZM648 574.005V505.005H644V574.005H648ZM648 505.005V473.005H644V505.005H648ZM620 475.005H646V471.005H620V475.005ZM540 395.005C540 439.188 575.817 475.005 620 475.005V471.005C578.026 471.005 544 436.979 544 395.005H540ZM620 315.005C575.817 315.005 540 350.822 540 395.005H544C544 353.031 578.026 319.005 620 319.005V315.005ZM646 315.005H620V319.005H646V315.005ZM648 317.005V285.005H644V317.005H648ZM648 285.005V216.005H644V285.005H648ZM697 216.005V285.005H701V216.005H697ZM697 285.005V317.005H701V285.005H697ZM725 315.005H699V319.005H725V315.005ZM805 395.005C805 350.822 769.183 315.005 725 315.005V319.005C766.974 319.005 801 353.031 801 395.005H805ZM725 475.005C769.183 475.005 805 439.188 805 395.005H801C801 436.979 766.974 471.005 725 471.005V475.005ZM699 475.005H725V471.005H699V475.005ZM697 473.005V505.005H701V473.005H697ZM697 505.005V574.005H701V505.005H697ZM731 572.005H699V576.005H731V572.005ZM729 504.844V574.005H733V504.844H729ZM833 395.005C833 452.675 787.798 499.788 730.893 502.847L731.107 506.841C790.124 503.669 837 454.812 837 395.005H833ZM730.893 287.163C787.798 290.222 833 337.335 833 395.005H837C837 335.198 790.124 286.341 731.107 283.169L730.893 287.163ZM729 216.005V285.166H733V216.005H729ZM699 218.005H731V214.005H699V218.005Z" fill="#880F02" mask="url(#path-41-inside-1_317_405)"/>
<path d="M746.46 258.005H743.928L748.537 244.914H751.465L756.08 258.005H753.548L750.052 247.599H749.95L746.46 258.005ZM746.543 252.872H753.446V254.777H746.543V252.872Z" fill="#880F02"/>
<path d="M745.376 546.005V532.914H750.388C751.334 532.914 752.12 533.063 752.746 533.362C753.377 533.656 753.848 534.058 754.159 534.57C754.474 535.081 754.632 535.661 754.632 536.308C754.632 536.841 754.53 537.297 754.325 537.676C754.121 538.051 753.846 538.356 753.501 538.59C753.155 538.825 752.77 538.993 752.344 539.095V539.223C752.808 539.249 753.253 539.391 753.679 539.651C754.11 539.907 754.461 540.269 754.734 540.738C755.007 541.207 755.143 541.773 755.143 542.438C755.143 543.116 754.979 543.725 754.651 544.266C754.323 544.803 753.829 545.227 753.168 545.538C752.508 545.849 751.677 546.005 750.675 546.005H745.376ZM747.748 544.023H750.298C751.159 544.023 751.779 543.859 752.158 543.531C752.542 543.199 752.733 542.773 752.733 542.253C752.733 541.865 752.638 541.516 752.446 541.205C752.254 540.889 751.981 540.642 751.628 540.463C751.274 540.28 750.852 540.188 750.362 540.188H747.748V544.023ZM747.748 538.482H750.094C750.503 538.482 750.871 538.407 751.199 538.258C751.527 538.104 751.785 537.889 751.973 537.612C752.165 537.331 752.26 536.999 752.26 536.615C752.26 536.108 752.081 535.69 751.724 535.362C751.37 535.034 750.844 534.87 750.145 534.87H747.748V538.482Z" fill="#880F02"/>
<path fill-rule="evenodd" clip-rule="evenodd" d="M601.838 371.906C601.576 371.419 601.758 370.813 602.244 370.551C611.806 365.403 622.769 366.196 634.324 372.018C634.817 372.266 635.015 372.867 634.767 373.361C634.518 373.854 633.917 374.052 633.424 373.804C622.265 368.182 612.015 367.561 603.192 372.312C602.706 372.574 602.1 372.392 601.838 371.906Z" fill="#F5A878"/>
<path fill-rule="evenodd" clip-rule="evenodd" d="M619.258 373.638C619.128 373.117 619.446 372.588 619.967 372.459L620.202 373.403C619.967 372.459 619.967 372.459 619.967 372.459L619.969 372.458L619.972 372.458L619.98 372.456L620.008 372.449C620.031 372.443 620.065 372.435 620.109 372.425C620.196 372.406 620.322 372.378 620.484 372.345C620.808 372.279 621.277 372.192 621.869 372.103C623.051 371.926 624.726 371.743 626.712 371.714C628.467 371.689 630.189 371.768 631.558 371.862L623.489 364.432C623.093 364.068 623.068 363.452 623.432 363.057C623.796 362.661 624.412 362.636 624.807 363L634.989 372.376C635.301 372.662 635.391 373.117 635.214 373.5C635.036 373.884 634.631 374.11 634.211 374.058L634.21 374.058L634.203 374.057L634.173 374.053C634.146 374.05 634.105 374.045 634.052 374.039C633.946 374.027 633.788 374.01 633.587 373.989C633.183 373.948 632.604 373.893 631.906 373.84C630.505 373.733 628.636 373.634 626.74 373.661C624.856 373.688 623.27 373.862 622.157 374.029C621.602 374.112 621.166 374.194 620.871 374.253C620.724 374.283 620.613 374.308 620.539 374.324C620.503 374.332 620.476 374.339 620.459 374.343L620.44 374.347L620.438 374.348M619.258 373.638C619.388 374.16 619.916 374.478 620.438 374.348Z" fill="#F5A878"/>
<path fill-rule="evenodd" clip-rule="evenodd" d="M744.417 371.647C744.679 371.161 744.497 370.555 744.011 370.293C734.451 365.145 723.489 365.939 711.936 371.759C711.443 372.008 711.245 372.609 711.493 373.102C711.742 373.595 712.343 373.794 712.836 373.545C723.994 367.924 734.241 367.304 743.063 372.054C743.549 372.316 744.155 372.134 744.417 371.647Z" fill="#F5A878"/>
<path fill-rule="evenodd" clip-rule="evenodd" d="M726.966 373.909C727.1 373.373 726.773 372.83 726.237 372.697L725.996 373.667C726.237 372.697 726.237 372.697 726.237 372.697L726.236 372.696L726.233 372.696L726.224 372.694L726.196 372.687C726.171 372.681 726.137 372.673 726.092 372.663C726.003 372.642 725.873 372.614 725.707 372.58C725.374 372.513 724.892 372.423 724.284 372.332C723.07 372.15 721.349 371.961 719.309 371.932C717.506 371.906 715.737 371.987 714.331 372.084L722.62 364.452C723.027 364.078 723.053 363.445 722.679 363.039C722.304 362.633 721.672 362.607 721.266 362.981L710.806 372.611C710.487 372.906 710.394 373.373 710.576 373.767C710.758 374.161 711.174 374.393 711.606 374.34C711.606 374.34 711.606 374.34 711.606 374.34L711.607 374.339L711.615 374.339L711.645 374.335C711.673 374.332 711.714 374.327 711.769 374.321C711.878 374.308 712.04 374.29 712.247 374.269C712.661 374.226 713.256 374.17 713.974 374.115C715.412 374.006 717.333 373.904 719.28 373.932C721.215 373.96 722.845 374.139 723.988 374.31C724.558 374.395 725.007 374.479 725.309 374.54C725.46 374.571 725.575 374.596 725.65 374.613C725.687 374.622 725.715 374.628 725.733 374.632L725.751 374.637L725.754 374.638C725.754 374.638 725.754 374.638 725.754 374.638M726.966 373.909C726.833 374.445 726.29 374.771 725.754 374.638Z" fill="#F5A878"/>
</g>
<defs>
<filter id="filter0_d_317_405" x="0" y="0" width="1344.75" height="797.591" filterUnits="userSpaceOnUse" color-interpolation-filters="sRGB">
<feFlood flood-opacity="0" result="BackgroundImageFix"/>
<feColorMatrix in="SourceAlpha" type="matrix" values="0 0 0 0 0 0 0 0 0 0 0 0 0 0 0 0 0 0 127 0" result="hardAlpha"/>
<feOffset dy="24"/>
<feGaussianBlur stdDeviation="46"/>
<feComposite in2="hardAlpha" operator="out"/>
<feColorMatrix type="matrix" values="0 0 0 0 0 0 0 0 0 0 0 0 0 0 0 0 0 0 0.24 0"/>
<feBlend mode="normal" in2="BackgroundImageFix" result="effect1_dropShadow_317_405"/>
<feBlend mode="normal" in="SourceGraphic" in2="effect1_dropShadow_317_405" result="shape"/>
</filter>
<radialGradient id="paint0_radial_317_405" cx="0" cy="0" r="1" gradientUnits="userSpaceOnUse" gradientTransform="translate(668.365 399.056) scale(430.625 406.25)">
<stop stop-color="#FFC488"/>
<stop offset="0.34" stop-color="#FFBF85"/>
<stop offset="0.69" stop-color="#FFB37E"/>
<stop offset="1" stop-color="#FFA274"/>
</radialGradient>
<linearGradient id="paint1_linear_317_405" x1="1188.59" y1="399.274" x2="1094.46" y2="398.174" gradientUnits="userSpaceOnUse">
<stop stop-color="#8E1613"/>
<stop offset="1" stop-color="#FFA8A6"/>
</linearGradient>
<linearGradient id="paint2_linear_317_405" x1="1067.87" y1="594.145" x2="1167.52" y2="603.81" gradientUnits="userSpaceOnUse">
<stop stop-color="#FFA274"/>
<stop offset="1" stop-color="#FFC488"/>
</linearGradient>
<linearGradient id="paint3_linear_317_405" x1="1104.21" y1="606.558" x2="1134.6" y2="609.507" gradientUnits="userSpaceOnUse">
<stop stop-color="#FFA274"/>
<stop offset="1" stop-color="#FFC488"/>
</linearGradient>
<linearGradient id="paint4_linear_317_405" x1="1106.28" y1="584.695" x2="1168.78" y2="590.757" gradientUnits="userSpaceOnUse">
<stop stop-color="#FFC488"/>
<stop offset="1" stop-color="#FFA274"/>
</linearGradient>
<linearGradient id="paint5_linear_317_405" x1="1092.27" y1="342.122" x2="1231.34" y2="355.61" gradientUnits="userSpaceOnUse">
<stop stop-color="#FFA274"/>
<stop offset="0.37" stop-color="#FFC488"/>
<stop offset="0.68" stop-color="#FFA274"/>
<stop offset="1" stop-color="#BF7258"/>
</linearGradient>
<linearGradient id="paint6_linear_317_405" x1="154.09" y1="398.396" x2="249.8" y2="397.56" gradientUnits="userSpaceOnUse">
<stop stop-color="#8E1613"/>
<stop offset="1" stop-color="#FFA8A6"/>
</linearGradient>
<linearGradient id="paint7_linear_317_405" x1="276.815" y1="594.005" x2="177.172" y2="603.669" gradientUnits="userSpaceOnUse">
<stop stop-color="#FFA274"/>
<stop offset="1" stop-color="#FFC488"/>
</linearGradient>
<linearGradient id="paint8_linear_317_405" x1="240.487" y1="606.462" x2="210.091" y2="609.411" gradientUnits="userSpaceOnUse">
<stop stop-color="#FFA274"/>
<stop offset="1" stop-color="#FFC488"/>
</linearGradient>
<linearGradient id="paint9_linear_317_405" x1="238.413" y1="584.599" x2="175.912" y2="590.661" gradientUnits="userSpaceOnUse">
<stop stop-color="#FFC488"/>
<stop offset="1" stop-color="#FFA274"/>
</linearGradient>
<linearGradient id="paint10_linear_317_405" x1="252.278" y1="340.582" x2="113.26" y2="354.066" gradientUnits="userSpaceOnUse">
<stop stop-color="#FFA274"/>
<stop offset="0.37" stop-color="#FFC488"/>
<stop offset="0.68" stop-color="#FFA274"/>
<stop offset="1" stop-color="#BF7258"/>
</linearGradient>
</defs>
</svg>
