<svg width="1345" height="798" viewBox="0 0 1345 798" fill="none" xmlns="http://www.w3.org/2000/svg">
<g filter="url(#filter0_d_339_954)">
<path d="M1204.13 116.547C1149.87 125.348 1091.48 131.948 1030.84 136.833C1020.58 149.462 1013.63 155.535 1013.63 155.535C1013.63 155.535 1012.8 149.506 1014.78 138.065C1010.82 138.373 1006.81 138.593 1002.81 138.901C992.862 156.503 982.345 168.648 982.345 168.648C982.345 168.648 982.169 157.471 986.877 140.045C951.805 142.377 916.206 144.182 880.254 145.546C874.049 156.415 857.592 182.114 857.592 182.114C857.592 182.114 860.54 159.319 862.432 146.118C787.36 148.626 712.641 149.462 638.097 149.022C633.257 159.671 625.204 178.109 625.204 178.109C625.204 178.109 619.043 158.835 616.755 148.846C551.672 148.318 485.929 146.734 421.375 143.654C401.089 154.743 365.621 169.836 354.576 139.825C279.328 134.765 206.808 127.328 140.45 116.591C223.97 678.529 -34.3365 723.898 409.977 655.603C411.914 650.146 417.678 622.247 417.678 622.247C417.678 622.247 421.507 644.206 426.347 654.239C442.541 652.962 458.998 651.862 475.632 650.894C478.228 627.22 485.357 624.448 487.997 650.146C548.812 646.846 611.694 645.438 672.465 645.438C695.611 626.208 730.419 628.848 753.785 646.318C793.345 647.154 832.949 648.694 871.585 651.026C876.998 631.004 884.082 618.859 884.082 618.859C884.082 618.859 887.383 628.452 885.227 651.862C893.94 652.434 902.564 653.051 911.145 653.711C913.302 644.074 918.494 638.705 918.494 638.705C918.494 638.705 923.027 643.634 922.939 654.679C939.572 656.043 955.81 657.627 971.739 659.299C984.545 653.534 988.769 639.189 999.594 631.004C1004.74 625.504 1024.5 613.314 1025.25 627.264C1030.97 638.617 1030.31 653.887 1026.97 666.12C1084.3 675.493 1203.73 708.364 1204.13 635.009C1204.13 635.009 1167.96 296.085 1204.08 116.547H1204.13ZM1026.48 585.68C1014.6 603.457 991.454 592.456 1003.86 572.918C1013.98 551.4 1042.67 566.274 1026.48 585.68Z" fill="url(#paint0_radial_339_954)"/>
<path style="mix-blend-mode:multiply" opacity="0.35" d="M1204.12 116.545C1161.52 123.453 1116.38 128.998 1069.6 133.398C1106.56 165.17 1098.16 275.357 1091.65 368.251C1084.6 468.185 1062.65 574.676 1029.2 654.236C1028.81 658.329 1028.06 662.333 1027.05 666.029C1084.38 675.402 1203.81 708.274 1204.21 634.918C1204.21 634.918 1168.04 295.995 1204.17 116.457L1204.12 116.545Z" fill="url(#paint1_linear_339_954)"/>
<path d="M1067.01 602.707C1070 629.769 1100.28 651.244 1126.81 653.84C1153.34 651.684 1158.76 639.846 1165.27 626.909C1165.27 626.909 1169.54 578.548 1171.34 564.467C1173.15 550.385 1080.43 531.419 1076.16 555.226L1067.05 602.707H1067.01Z" fill="url(#paint2_linear_339_954)"/>
<g style="mix-blend-mode:multiply" opacity="0.75">
<path d="M1067.01 602.707C1070 629.77 1100.28 651.244 1126.81 653.84C1153.34 651.684 1158.76 639.847 1165.27 626.909C1165.27 626.909 1169.54 578.548 1171.34 564.467C1173.15 550.385 1082.15 529.967 1077.92 553.818L1067.05 602.707H1067.01Z" fill="#BC6182"/>
</g>
<path d="M1103.75 611.026C1103.75 616.658 1111.94 626.208 1111.94 626.208C1111.94 626.208 1125.36 631.004 1133.06 624.667L1136.45 589.596L1106.09 586.647L1103.71 611.026H1103.75Z" fill="url(#paint3_linear_339_954)"/>
<g style="mix-blend-mode:multiply" opacity="0.15">
<path d="M1204.13 116.547C1149.87 125.348 1091.48 131.948 1030.84 136.833C1020.59 149.462 1013.64 155.535 1013.64 155.535C1013.64 155.535 1012.8 149.506 1014.78 138.065C1010.82 138.373 1006.81 138.593 1002.81 138.901C992.865 156.503 982.348 168.648 982.348 168.648C982.348 168.648 982.172 157.471 986.881 140.045C951.809 142.377 916.209 144.182 880.258 145.546C874.053 156.415 857.595 182.113 857.595 182.113C857.595 182.113 860.544 159.319 862.436 146.118C787.364 148.626 712.644 149.462 638.101 149.022C633.26 159.671 625.207 178.109 625.207 178.109C625.207 178.109 619.047 158.835 616.758 148.846C551.676 148.318 485.933 146.734 421.378 143.653C401.092 154.743 365.624 169.792 354.579 139.825C279.331 134.765 206.812 127.328 140.453 116.591C171.608 326.14 155.239 463.831 145.47 550.608C155.107 465.151 194.579 336.966 169.716 146.206C208.748 151.75 252.269 149.814 298.166 150.562C298.254 151.618 298.518 152.674 298.914 153.642C299.97 156.151 301.95 158.307 304.326 159.627C309.871 162.619 316.295 160.331 319.948 155.535C320.96 154.259 321.708 152.762 322.236 151.222C328.573 151.486 334.997 151.838 341.422 152.278C346.834 159.187 350.575 167.68 355.987 173.577C356.163 174.501 356.383 175.381 356.559 176.305C357.836 183.83 359.244 191.354 360.432 198.879C361.62 206.58 362.544 214.325 363.82 222.026C364.26 224.842 364.744 227.658 365.228 230.475C365.052 218.285 364.92 206.14 364.92 193.951C364.524 189.022 364.172 184.094 363.644 179.209C366.02 180.221 368.705 180.837 371.829 180.837C372.093 180.837 372.401 180.793 372.665 180.749C373.633 191.662 374.733 202.488 376.097 213.357C377.726 226.558 378.122 240.024 379.09 253.313C380.058 266.646 381.246 279.936 382.126 293.269C382.126 293.841 382.17 294.413 382.214 294.985C383.314 301.41 384.59 307.835 385.998 314.215C386.263 315.359 386.527 316.503 386.791 317.603C387.187 312.411 387.539 307.218 387.847 301.982C387.627 298.726 387.363 295.469 387.143 292.213C386.263 278.88 385.603 265.59 384.766 252.257C383.93 239.319 382.566 226.294 382.434 213.313C382.302 201.652 381.906 190.078 381.334 178.461C395.327 172.785 414.074 157.999 428.463 150.738C447.913 151.662 469.167 153.158 491.257 154.743C493.502 155.887 494.426 158.351 495.878 160.331C497.242 162.179 498.958 163.676 501.158 164.512C505.295 166.052 509.827 164.996 513.876 163.324C514.536 163.324 515.196 163.103 515.812 162.487C515.988 162.399 516.164 162.311 516.34 162.267C517.968 161.475 519.596 160.639 521.268 159.847C523.645 159.803 526.153 160.771 527.869 162.619C532.006 167.02 531.434 174.589 531.39 180.133C531.258 191.046 531.125 201.916 531.125 212.829C531.565 218.197 531.742 223.61 531.83 229.022C531.918 235.667 531.83 242.268 532.006 248.912C532.226 253.401 532.446 257.889 532.71 262.334C533.194 269.507 533.722 276.679 534.25 283.808C534.382 285.568 534.514 287.372 534.602 289.133C534.822 268.494 535.262 247.856 537.55 227.394C537.022 213.533 536.846 199.539 538.65 185.854C539.09 182.509 539.618 178.857 540.587 175.469C540.498 174.589 540.499 173.709 540.411 172.829C540.763 171.42 541.202 170.012 541.863 168.692C543.403 165.524 545.779 162.751 548.639 160.727C550.444 160.463 552.336 160.375 554.14 160.155C555.02 160.023 555.592 159.539 555.944 158.967C573.942 159.935 591.94 160.683 609.542 160.859C611.346 166.932 623.359 213.093 623.359 213.093C623.359 213.093 639.025 171.156 642.237 158.527C644.833 158.527 668.2 158.263 699.047 157.867C704.328 156.063 710.532 156.195 715.813 156.723C717.793 156.943 719.817 157.207 721.797 157.559C769.542 156.899 826.044 156.019 853.503 155.227C853.063 158.659 847.87 213.269 845.978 233.071C844.526 239.407 843.03 245.744 841.71 252.125C841.314 254.061 844.262 254.853 844.658 252.917C846.022 245.964 847.474 239.055 849.323 232.279C859.312 212.697 885.01 162.443 890.731 153.158C896.539 152.938 905.824 152.498 916.209 151.97C916.077 152.718 915.945 153.51 915.813 154.215C915.285 156.899 914.405 159.495 913.657 162.091C912.909 164.732 912.117 167.328 911.325 169.924C910.533 172.52 909.653 175.029 909.389 177.757C909.301 178.549 910.401 178.725 910.797 178.153C912.249 175.821 913.085 173.225 914.053 170.672C915.021 168.12 916.033 165.568 917.045 163.015C918.058 160.463 919.026 157.867 920.258 155.403C920.874 154.171 921.578 152.938 922.15 151.662C948.377 150.386 978.652 148.846 978.652 149.022L961.226 229.682L1009.41 153.467L999.202 208.516C999.202 208.516 1034.76 154.391 1042.24 145.942C1050.69 145.238 1059.09 144.974 1067.41 145.018C1066.97 147.57 1066.57 150.122 1066 152.674C1065.16 156.679 1064.33 160.683 1063.4 164.688C1061.56 172.828 1060.02 181.013 1058.26 189.198C1058.08 189.99 1059.18 190.298 1059.44 189.506C1062 181.585 1064.77 173.709 1067.23 165.744C1068.47 161.827 1069.74 157.955 1071.02 154.083C1071.99 151.09 1073.17 148.098 1074.23 145.15C1109.3 145.81 1142.83 150.562 1173.81 146.162C1148.16 326.8 1201.49 609.178 1204.18 634.832C1204.18 634.832 1168 295.909 1204.13 116.371V116.547ZM501.774 157.119C501.774 157.119 501.687 156.987 501.643 156.899C501.467 156.415 501.07 155.975 500.498 155.799C499.574 155.535 498.606 156.107 498.342 157.031C498.254 157.471 498.21 157.867 498.21 158.263C497.154 157.207 496.186 156.063 495.042 155.139C497.242 155.315 499.486 155.447 501.687 155.623C501.599 155.975 501.555 156.371 501.687 156.723C501.731 156.855 501.819 156.943 501.863 157.075C501.863 157.075 501.774 157.075 501.774 157.119Z" fill="#BC6182"/>
</g>
<g style="mix-blend-mode:multiply" opacity="0.15">
<path d="M1137.37 669.241C1137.37 669.241 1059.97 667.305 1040.26 653.839C1039.99 653.663 1038.72 626.864 1031.32 615.379C1028.13 610.392 1024.53 605.742 1020.54 601.43C1031.32 596.501 1041.89 582.948 1039.82 567.766C1037.88 553.553 1034.05 550.604 1019.31 550.604C1004.57 550.604 986.087 569.834 997.969 598.877C984.415 658.02 938.474 643.102 931.522 642.442C929.146 637.381 925.361 590.737 925.361 590.737L924.349 592.321C924.877 589.02 925.405 585.676 926.021 582.376C926.769 578.063 927.121 573.795 927.737 569.482C927.737 569.262 927.517 569.218 927.429 569.394C925.757 573.443 923.997 577.271 922.677 581.452C921.357 585.544 920.124 589.637 918.936 593.773C917.792 597.821 916.604 601.87 915.68 605.962L892.93 641.87C892.754 641.166 891.61 606.622 890.818 582.42C890.906 581.54 891.038 580.616 891.126 579.735C891.522 575.951 891.874 572.211 892.182 568.47C893.106 559.141 894.03 549.812 894.734 540.439C894.822 539.075 894.954 537.711 895.042 536.391C894.734 521.869 894.822 507.304 894.998 492.739C894.646 493.707 894.338 494.719 893.986 495.687C893.986 495.819 893.942 495.907 893.898 496.039C893.722 497.931 893.546 499.867 893.282 501.715C891.654 514.697 889.805 527.634 887.957 540.571C886.241 552.409 884.921 564.29 883.513 576.171C882.985 580.616 882.457 585.06 881.973 589.46C876.384 609.835 869.607 634.125 867.231 640.286C857.902 639.802 847.165 638.834 835.856 637.689C835.416 636.677 834.668 635.797 833.655 635.093C833.567 635.005 833.436 634.961 833.348 634.873C833.172 634.609 832.555 634.257 832.379 634.081C831.763 633.509 831.147 632.937 830.575 632.321C830.311 632.013 830.047 631.749 829.783 631.441C829.651 631.265 829.475 631.089 829.343 630.913C828.991 630.473 829.079 630.561 829.519 631.177C829.343 631.177 828.859 630.209 828.727 630.077C828.463 629.681 828.243 629.329 828.023 628.933C826.879 626.952 824.239 626.072 822.082 626.644C821.07 625.808 819.97 625.016 818.65 624.664C816.758 624.136 814.602 624.664 813.193 625.984C814.294 624.928 812.577 626.424 812.269 626.732C811.829 627.172 811.389 627.832 811.081 628.36C810.553 629.241 810.113 630.165 809.629 631.089C809.541 631.265 809.453 631.441 809.365 631.617C808.529 632.101 807.825 632.717 807.473 633.553C807.077 634.477 806.857 635.357 806.725 636.281C801.048 635.885 795.24 636.105 789.739 634.433C788.463 634.037 787.275 633.509 786.175 632.893C777.726 632.233 769.585 631.705 762.148 631.529C747.01 622.2 728.837 607.194 711.015 607.194C694.469 607.194 674.359 622.2 660.806 631.133C660.322 630.781 659.794 630.473 659.222 630.209C659.926 630.517 659.617 630.473 659.309 630.033C659.045 629.637 658.561 629.285 658.209 628.888C657.549 628.184 656.977 627.392 656.361 626.644C655.261 625.28 654.205 623.916 652.885 622.816C649.541 620 644.964 619.032 641.048 621.232C638.847 622.464 637.395 624.312 636.207 626.336C635.371 626.776 634.623 627.392 634.095 628.14C629.386 628.405 624.722 628.845 620.057 629.461C616.977 629.857 613.897 630.341 610.817 630.869C607.516 631.441 603.908 631.749 602.103 634.961C601.883 635.401 601.752 635.929 601.664 636.457C598.011 635.929 594.359 634.873 590.926 633.377C582.346 633.641 573.809 633.949 565.316 634.301C565.008 635.137 564.26 635.753 563.071 635.621C558.363 635.137 553.655 635.357 548.99 636.017C546.57 636.369 544.15 636.765 541.773 637.073C539.485 637.381 536.977 638.041 534.689 637.733C533.017 637.513 531.564 636.765 530.244 635.797C517.571 636.369 505.25 636.941 493.588 637.513C488.352 626.072 487.032 588.756 481.575 588.756C472.466 588.756 467.362 639.714 467.362 639.714L431.806 643.014C431.806 643.014 424.589 597.821 419.881 568.47C419.529 554.961 418.649 541.408 417.725 528.03C417.328 521.913 417.02 515.753 416.756 509.592C416.052 504.224 415.436 498.855 414.908 493.487C414.292 496.127 413.676 498.811 413.016 501.451C413.148 510.648 413.236 519.845 413.104 529.042C412.972 539.955 412.928 551.001 413.192 562.002C409.144 588.888 401.971 636.545 401.135 640.242C386.349 643.19 372.224 645.742 358.626 648.031C356.91 649.879 355.062 651.507 352.642 652.387C349.561 653.575 346.173 653.619 342.917 653.399C342.829 653.311 342.741 653.179 342.609 653.091C339.66 650.583 336.36 649.307 332.752 648.471C329.231 646.886 325.667 645.346 321.927 644.378C316.778 643.058 311.013 642.134 306.085 644.598C301.729 646.798 298.648 650.847 295.788 654.675C294.336 656.611 292.488 658.9 290.375 660.704C288.263 661.54 286.063 662.2 283.775 662.464C279.33 663.036 275.282 661.892 271.673 659.824C245.271 662.508 223.752 663.784 208.087 664.312C157.658 665.94 150.001 651.375 142.256 637.689C140.1 625.5 139.704 614.455 140.628 599.229C134.027 696.26 166.59 692.959 409.98 655.555C411.916 650.099 417.68 622.2 417.68 622.2C417.68 622.2 421.509 644.158 426.349 654.191C442.543 652.915 459.001 651.815 475.634 650.847C478.231 627.172 485.359 624.4 488 650.099C548.814 646.798 611.697 645.39 672.467 645.39C695.613 626.16 730.421 628.801 753.787 646.27C793.347 647.106 832.952 648.647 871.588 650.979C876.076 634.433 881.708 623.3 883.513 619.912C883.821 619.912 884.085 619.868 884.349 619.692C885.053 622.508 887.033 632.409 885.229 651.815C893.942 652.387 902.567 653.003 911.148 653.663C913.304 644.026 918.496 638.658 918.496 638.658C918.496 638.658 923.029 643.586 922.941 654.631C939.575 655.995 955.812 657.58 971.742 659.252C984.547 653.487 988.772 639.142 999.597 630.957C1004.75 625.456 1024.5 613.267 1025.25 627.216C1030.97 638.57 1030.31 653.839 1026.97 666.072C1084.31 675.445 1203.73 708.317 1204.13 634.961C1201.05 656.039 1182.83 669.197 1137.33 669.197L1137.37 669.241ZM1003.87 572.915C1013.99 551.396 1042.68 566.27 1026.48 585.676C1014.6 603.454 991.456 592.453 1003.87 572.915Z" fill="#BC6182"/>
</g>
<g style="mix-blend-mode:multiply" opacity="0.15">
<path d="M140.711 599.232C141.635 585.943 143.263 570.718 145.199 553.468C142.999 572.962 141.459 587.395 140.711 599.232Z" fill="#BC6182"/>
</g>
<g style="mix-blend-mode:multiply" opacity="0.15">
<path d="M145.505 550.606C145.505 550.782 145.505 550.958 145.461 551.178C145.461 551.002 145.461 550.826 145.505 550.65V550.606Z" fill="#BC6182"/>
</g>
<g style="mix-blend-mode:multiply" opacity="0.15">
<path d="M838.278 628.405C838.278 628.405 838.63 628.449 838.762 628.493C841.27 629.813 844.218 629.681 846.682 628.361C848.531 627.349 849.895 625.589 850.511 623.608C850.687 623.168 850.863 622.772 851.039 622.332C851.391 621.276 851.171 620.396 851.039 619.34C851.039 619.12 850.951 618.9 850.863 618.68C850.643 618.064 850.379 617.448 850.071 616.876C849.719 616.304 849.279 615.732 848.839 615.248C848.707 615.072 848.531 614.896 848.355 614.764C847.959 614.411 847.475 614.06 847.034 613.751C846.946 613.663 846.814 613.619 846.726 613.575C846.11 613.267 845.494 613.003 844.834 612.783C844.746 612.783 844.658 612.739 844.57 612.695C843.998 612.563 843.338 612.475 842.766 612.431C842.546 612.431 842.326 612.431 842.106 612.431C841.446 612.519 840.698 612.519 840.038 612.783C839.422 613.003 838.806 613.223 838.278 613.531C837.706 613.839 837.178 614.323 836.649 614.764C835.989 615.292 835.505 616.04 835.065 616.744C834.625 617.492 834.229 618.328 834.053 619.208C833.921 619.868 833.789 620.572 833.789 621.276C833.789 621.98 833.921 622.684 834.009 623.344C834.141 624.225 834.537 625.149 835.021 625.897C835.769 627.085 836.913 628.053 838.278 628.405Z" fill="#BC6182"/>
</g>
<g style="mix-blend-mode:multiply" opacity="0.15">
<path d="M598.362 621.147C598.494 621.543 598.714 621.895 599.066 622.203C599.374 622.511 599.726 622.731 600.122 622.907C600.518 623.127 600.958 623.215 601.398 623.171C601.706 623.171 601.97 623.083 602.278 623.039C602.85 622.863 603.334 622.599 603.73 622.203C603.906 621.983 604.083 621.763 604.259 621.543C604.567 621.015 604.698 620.487 604.698 619.871C604.698 619.606 604.698 619.342 604.698 619.078C604.698 618.946 604.698 618.814 604.698 618.682C604.698 618.286 604.611 617.89 604.523 617.494C604.435 616.966 604.302 616.482 604.17 615.998C604.082 615.778 603.994 615.514 603.862 615.294C603.686 614.942 603.422 614.678 603.114 614.458C602.938 614.282 602.718 614.15 602.454 614.062C602.102 613.886 601.75 613.798 601.31 613.798L600.518 613.886C600.298 613.974 600.034 614.062 599.814 614.194C599.462 614.37 599.198 614.634 598.978 614.942C598.714 615.206 598.538 615.558 598.45 615.954C598.318 616.438 598.186 616.966 598.098 617.45C598.01 617.846 597.922 618.242 597.922 618.638C597.922 618.77 597.922 618.902 597.922 619.034C597.922 619.298 597.922 619.606 597.922 619.871C597.922 620.311 598.01 620.751 598.186 621.147H598.362Z" fill="#BC6182"/>
</g>
<g style="mix-blend-mode:multiply" opacity="0.15">
<path d="M316.464 626.205C316.64 626.425 316.816 626.689 316.992 626.909C317.344 627.349 317.872 627.745 318.357 628.053C318.885 628.361 319.413 628.625 319.985 628.713C320.337 628.757 320.733 628.845 321.085 628.845C321.965 628.845 322.933 628.493 323.549 627.833C324.121 627.173 324.385 626.777 324.649 625.941C324.913 625.105 324.869 623.961 324.649 623.125C324.297 621.849 323.373 620.749 322.229 620.088C321.789 619.824 321.305 619.604 320.777 619.516C319.941 619.34 319.017 619.252 318.181 619.516C317.917 619.56 317.74 619.736 317.52 619.868H317.432C317.256 619.956 317.037 620.001 316.861 620.177C316.42 620.441 316.068 620.837 315.848 621.277L315.452 622.245C315.276 622.949 315.276 623.653 315.452 624.357C315.584 625.061 316.024 625.589 316.464 626.117V626.205Z" fill="#BC6182"/>
</g>
<g style="mix-blend-mode:multiply" opacity="0.2">
<path d="M1103.75 611.026C1103.75 616.658 1111.94 626.208 1111.94 626.208C1111.94 626.208 1125.36 631.004 1133.06 624.667L1136.45 589.596L1106.09 586.647L1103.71 611.026H1103.75Z" fill="#BC6182"/>
</g>
<path d="M1103.75 611.023C1103.79 601.518 1112.15 591.133 1134.38 593.289C1155.85 598.833 1162.06 611.067 1165.22 626.952C1165.22 626.952 1169.36 584.18 1170.95 567.942C1172.53 551.705 1110.44 541.804 1108.5 561.87C1107.05 576.831 1103.75 611.067 1103.75 611.067V611.023Z" fill="url(#paint4_linear_339_954)"/>
<g style="mix-blend-mode:multiply" opacity="0.15">
<path d="M1107.76 570.85L1106.57 582.159C1119.2 570.013 1149.25 574.15 1156.34 586.383C1155.99 592.896 1155.2 599.497 1154.1 602.093C1160.34 607.461 1162.68 617.626 1165.23 626.075C1165.23 626.075 1169.98 584.579 1171.04 566.977C1171.04 566.537 1109.43 558.352 1107.8 570.85H1107.76Z" fill="#8E1613"/>
</g>
<path d="M1252.62 135.335C1251.74 117.029 1244.04 102.111 1232.6 91.0222C1227.54 98.591 1221.25 105.412 1215.75 112.672C1214.21 114.697 1211.08 113.552 1211.61 110.912C1213.63 100.703 1215.97 90.5821 1219.53 80.8131C1216.19 78.7449 1212.67 77.0287 1209.06 75.4445C1207.87 78.4368 1206.81 81.4291 1205.89 84.4654C1205.14 86.9297 1201.44 86.4457 1201.44 83.8494C1201.44 80.109 1201.53 76.3687 1201.93 72.6283C1168.97 61.5832 1129.63 70.032 1115.46 102.991C1121.53 180.307 1114.27 291.683 1107.27 352.233C1099.88 416.612 1071.54 588.098 1067.05 602.619C1070.8 593.686 1075.77 586.91 1081.71 581.849C1081.71 581.585 1081.71 581.277 1081.75 581.013C1082.37 578.637 1083.64 576.48 1085.14 574.456C1085.49 571.464 1086.28 568.516 1087.21 565.655C1087.6 564.467 1088.75 563.719 1089.98 564.071C1090.2 564.115 1090.38 564.247 1090.55 564.379C1090.6 564.247 1090.64 564.159 1090.73 564.027C1091.48 562.531 1093.9 562.531 1094.65 564.027C1095.75 566.271 1097.02 568.472 1097.77 570.848C1097.99 571.508 1098.08 572.168 1098.21 572.828C1109.3 569.308 1122.15 569.176 1135.92 571.288C1169.76 576.524 1203.2 595.93 1204.22 634.919C1201 576.701 1205.1 425.985 1211.65 356.722C1216.93 300.66 1231.94 213.003 1252.67 135.291L1252.62 135.335Z" fill="url(#paint5_linear_339_954)"/>
<path d="M1219.53 80.8158C1216.18 78.7476 1212.66 77.0314 1209.05 75.4473C1208.13 77.8235 1207.25 80.1998 1206.5 82.62C1210.86 81.3439 1215.21 80.8158 1219.53 80.8158Z" fill="#FFB64A"/>
<path style="mix-blend-mode:multiply" opacity="0.35" d="M289.405 134.721C237.524 130.1 187.447 124.16 140.538 116.547C218.294 639.761 -0.276793 715.141 327.953 667.924C284.125 610.982 269.823 485.745 257.854 391.355C245.049 290.233 238.14 181.278 289.449 134.765L289.405 134.721Z" fill="url(#paint6_linear_339_954)"/>
<path d="M252.663 612.475C252.443 609.834 256.404 609.526 257.108 611.859C259.088 618.151 261.596 624.268 264.104 630.341C271.409 622.42 276.47 612.959 277.614 602.662L268.505 555.181C264.236 531.33 171.519 550.34 173.323 564.422C175.127 578.503 179.396 626.864 179.396 626.864C185.864 639.801 191.277 651.595 217.856 653.795C230.529 652.563 243.994 646.974 254.995 638.569C254.247 629.856 253.499 621.144 252.707 612.431L252.663 612.475Z" fill="url(#paint7_linear_339_954)"/>
<g style="mix-blend-mode:multiply" opacity="0.75">
<path d="M252.663 612.475C252.443 609.834 256.404 609.526 257.108 611.859C259.088 618.151 261.596 624.268 264.104 630.341C271.409 622.42 276.47 612.959 277.614 602.662L268.505 555.181C264.236 531.33 171.519 550.34 173.323 564.422C175.127 578.503 179.396 626.864 179.396 626.864C185.864 639.801 191.277 651.595 217.856 653.795C230.529 652.563 243.994 646.974 254.995 638.569C254.247 629.856 253.499 621.144 252.707 612.431L252.663 612.475Z" fill="#BC6182"/>
</g>
<path d="M240.867 611.026C240.867 616.658 232.682 626.208 232.682 626.208C232.682 626.208 219.261 631.004 211.56 624.667L208.172 589.596L238.535 586.647L240.911 611.026H240.867Z" fill="url(#paint8_linear_339_954)"/>
<g style="mix-blend-mode:multiply" opacity="0.2">
<path d="M240.867 611.026C240.867 616.658 232.682 626.208 232.682 626.208C232.682 626.208 219.261 631.004 211.56 624.667L208.172 589.596L238.535 586.647L240.911 611.026H240.867Z" fill="#BC6182"/>
</g>
<path d="M240.873 611.023C240.829 601.518 232.468 591.133 210.246 593.289C188.772 598.833 182.567 611.067 179.399 626.952C179.399 626.952 175.262 584.18 173.678 567.942C172.094 551.705 234.185 541.804 236.121 561.87C237.573 576.831 240.873 611.067 240.873 611.067V611.023Z" fill="url(#paint9_linear_339_954)"/>
<path d="M237.391 352.323C230.438 291.772 223.178 180.397 229.206 103.081C222.121 86.579 208.656 76.194 192.858 71.3535C191.89 71.5735 190.922 71.8815 189.91 72.0135C186.698 72.4976 183.618 71.5735 180.449 70.9574C179.041 70.6934 176.841 70.6494 175.961 70.8254C175.785 70.9134 175.609 71.0014 175.477 71.0894C173.321 72.4976 171.428 74.3458 169.184 75.798C166.984 77.2061 163.903 78.1301 162.143 75.5338C160.867 73.6856 160.867 71.0894 161.263 68.5371C144.673 70.3413 128.216 76.942 115.498 87.8111C116.07 95.996 116.731 104.137 116.731 112.366C116.731 115.358 112.55 115.182 112.198 112.366C111.45 106.381 110.218 100.484 108.59 94.6758C99.0848 105.325 92.7921 119.01 92 135.38C112.726 213.092 127.688 300.793 133.012 356.811C139.569 426.074 137.853 579.914 140.493 632.148C139.833 619.606 145.95 613.578 152.154 601.08C152.022 600.464 151.89 599.848 151.758 599.188C151.274 596.988 150.834 594.744 150.834 592.455C150.834 590.563 151.098 588.583 152.154 586.999C153.078 585.635 154.134 584.227 155.543 583.302C156.687 582.554 158.227 582.334 159.415 583.082C160.471 583.743 161.087 584.887 161.395 586.075C161.835 587.615 161.923 589.287 161.923 590.915C174.685 580.354 192.066 574.854 209.14 572.213C215.169 571.289 219.261 572.081 224.85 572.125C227.402 570.145 231.274 566.009 234.179 564.513C235.851 563.632 237.743 562.884 239.679 563.016C239.943 563.016 240.207 563.104 240.471 563.148C240.867 563.148 241.263 563.28 241.615 563.456C242.672 563.852 243.684 564.424 244.564 565.216C246.148 566.581 247.38 568.385 248.656 570.057C249.977 571.861 251.252 573.621 252.573 575.426C263.222 580.398 271.891 589.067 277.611 602.796C274.927 588.847 244.784 416.789 237.391 352.411V352.323Z" fill="url(#paint10_linear_339_954)"/>
<path d="M179.482 627.349C183.178 615.379 188.282 602.134 203.596 597.074C218.69 592.101 231.319 596.545 236.379 603.058C241 608.999 240.648 617.8 232.199 626.205C227.842 627.437 221.726 629.417 211.605 625.104C217.765 631.221 228.767 629.593 232.727 628.361C240.912 621.452 243.42 609.351 237.699 601.298C231.935 593.245 220.362 589.549 203.332 594.873C187.094 599.934 180.274 616.083 179.438 627.349H179.482Z" fill="#FFCFA4"/>
<path d="M1203.91 627.921C1201.89 598.834 1170.47 574.808 1137.38 571.024C1124.22 569.527 1110.97 569.396 1097.99 571.904C1095.92 563.235 1086.11 548.097 1081.62 581.937C1073.88 587.877 1066.97 601.695 1066.97 601.695C1073.57 593.334 1076.52 586.997 1084.92 582.289C1084.53 570.1 1090.34 554.874 1096.28 574.368C1109.39 571.684 1137.64 573.972 1153.66 578.548C1169.24 582.993 1193.13 597.69 1203.87 628.01L1203.91 627.921Z" fill="#FFCFA4"/>
<path d="M579.477 179.868C579.081 179.868 579.081 180.44 579.477 180.44C579.873 180.44 579.873 179.868 579.477 179.868Z" fill="#BC6182"/>
<g style="mix-blend-mode:multiply" opacity="0.15">
<path d="M228.062 121.079C228.37 114.918 228.722 108.889 229.206 103.081C222.121 86.579 208.656 76.194 192.858 71.3535C191.89 71.5735 190.922 71.8815 189.91 72.0135C186.698 72.4976 183.618 71.5735 180.449 70.9574C179.041 70.6934 176.841 70.6494 175.961 70.8254C175.785 70.9134 175.609 71.0014 175.477 71.0894C173.321 72.4976 171.428 74.3458 169.184 75.798C166.984 77.2061 163.903 78.1301 162.143 75.5338C160.867 73.6856 160.867 71.0894 161.263 68.5371C144.673 70.3413 128.216 76.942 115.498 87.8111C116.07 95.996 116.731 104.137 116.731 112.366C116.731 115.358 112.55 115.182 112.198 112.366C111.45 106.381 110.218 100.484 108.59 94.6758C99.0848 105.325 92.7921 119.01 92 135.38C93.5402 141.101 94.9924 146.865 96.4886 152.718C96.4886 141.629 99.3929 131.816 106.39 119.758C109.074 129.219 121.043 158.307 121.043 158.307C121.043 158.307 124.959 120.418 126.94 102.905C146.434 91.9915 170.9 87.1511 191.714 92.2997C191.846 106.249 192.947 120.287 193.079 134.236C193.211 151.398 192.594 168.559 194.091 185.677C194.179 186.645 195.499 186.645 195.587 185.677C197.127 168.603 196.599 151.398 196.819 134.236C196.995 120.947 198.095 107.613 198.315 94.3238C210.68 98.9003 221.329 107.437 228.062 121.123V121.079Z" fill="#BC6182"/>
</g>
<g style="mix-blend-mode:multiply" opacity="0.15">
<path d="M268.242 549.198C259.837 538.549 245.668 533.312 229.606 532.168C229.034 530.012 228.418 527.856 227.978 525.699C226.262 517.867 224.986 509.902 223.753 501.981C222.477 493.576 221.333 485.127 220.365 476.678C219.441 468.669 217.945 460.661 217.153 452.652C217.153 452.212 216.405 452.168 216.449 452.652C216.581 456.964 216.053 461.277 216.273 465.589C216.493 469.286 216.889 472.982 217.241 476.678C217.989 484.511 218.913 492.344 220.013 500.133C221.157 508.098 222.521 516.018 223.886 523.939C224.326 526.491 224.677 529.22 225.03 531.904C217.857 531.772 210.376 532.344 202.983 533.664C202.059 525.875 200.871 518.175 199.507 510.43C199.419 509.99 198.715 510.122 198.759 510.518C198.979 518.439 199.375 526.315 200.035 534.236C174.732 539.253 150.53 551.97 140.981 568.032L139.133 571.112C139.133 600.639 139.309 619.121 140.629 632.719C141.069 617.845 145.821 613.488 152.246 600.991C152.114 600.375 151.982 599.759 151.85 599.099C151.366 596.899 150.926 594.654 150.926 592.366C150.926 590.474 151.19 588.494 152.246 586.91C153.17 585.546 154.226 584.137 155.635 583.213C156.779 582.465 158.319 582.245 159.507 582.993C160.563 583.653 161.179 584.797 161.487 585.986C161.927 587.526 162.015 589.198 162.015 590.826C174.777 580.265 192.158 574.764 209.232 572.124C215.261 571.2 219.353 571.992 224.942 572.036C227.494 570.056 231.366 565.919 234.271 564.423C235.943 563.543 237.835 562.795 239.771 562.927C240.035 562.927 240.299 563.015 240.563 563.059C240.959 563.059 241.355 563.191 241.707 563.367C242.764 563.763 243.776 564.335 244.656 565.127C246.24 566.492 247.472 568.296 248.748 569.968C250.068 571.772 251.344 573.532 252.665 575.337C263.314 580.309 271.983 588.978 277.703 602.707C276.383 598.395 268.286 549.198 268.286 549.198H268.242Z" fill="#BC6182"/>
</g>
<g style="mix-blend-mode:multiply" opacity="0.15">
<path d="M1203.07 581.674C1197.79 567.857 1187.1 557.56 1173.98 550.431C1170.68 548.627 1168.79 545.106 1169.1 541.366C1169.49 536.745 1170.02 530.849 1170.29 527.856C1170.77 522.048 1170.64 516.415 1171.56 510.651C1171.56 510.475 1171.34 510.431 1171.3 510.563C1170.2 515.887 1168.31 520.948 1167.25 526.272C1166.81 528.429 1166.24 531.993 1165.75 535.513C1165.01 540.794 1159.68 544.05 1154.53 542.554C1122.63 533.313 1086.06 538.506 1076.12 555.227C1072.33 576.658 1068.2 598.792 1067.01 602.708C1070.75 593.775 1075.72 586.999 1081.66 581.938C1081.66 581.674 1081.66 581.366 1081.71 581.102C1082.32 578.726 1083.6 576.57 1085.09 574.545C1085.45 571.553 1086.24 568.605 1087.16 565.744C1087.56 564.556 1088.7 563.808 1089.93 564.16C1090.15 564.204 1090.33 564.336 1090.51 564.468C1090.55 564.336 1090.59 564.248 1090.68 564.116C1091.43 562.62 1093.85 562.62 1094.6 564.116C1095.7 566.36 1096.97 568.561 1097.72 570.937C1097.94 571.597 1098.03 572.257 1098.16 572.917C1109.25 569.397 1122.1 569.265 1135.88 571.377C1169.71 576.614 1203.16 596.02 1204.17 635.008C1203.47 622.554 1203.07 581.718 1203.07 581.718V581.674Z" fill="#BC6182"/>
</g>
<g style="mix-blend-mode:multiply" opacity="0.15">
<path d="M1252.62 135.336C1251.74 117.03 1244.04 102.112 1232.6 91.0232C1231.41 92.8274 1230.09 94.5876 1228.77 96.3478C1228.5 96.6998 1228.2 97.0518 1227.93 97.4038C1223.93 102.552 1219.66 107.481 1215.74 112.63C1214.2 114.654 1211.08 113.509 1211.61 110.869C1213.63 100.66 1215.96 90.5391 1219.53 80.7701C1218.21 79.978 1216.84 79.23 1215.52 78.526C1213.41 77.4259 1211.25 76.3696 1209.1 75.4015C1207.91 78.3939 1206.85 81.3862 1205.93 84.4226C1205.18 86.8868 1201.48 86.4027 1201.48 83.8064C1201.48 80.066 1201.57 76.3257 1201.97 72.5853C1169.01 61.5402 1129.67 69.989 1115.5 102.948C1115.98 108.977 1116.34 115.27 1116.69 121.694C1121.18 108.229 1137.9 96.5238 1158.4 92.3874C1163.91 91.2873 1168.88 95.9078 1168.31 101.496V101.584C1167.82 105.809 1167.38 110.077 1166.9 114.302C1166.41 118.746 1166.9 123.059 1166.9 127.503C1166.9 127.811 1167.38 127.899 1167.47 127.591C1168.39 123.631 1169.8 119.934 1170.42 115.886C1170.99 111.617 1171.56 107.305 1172.13 103.036C1172.22 102.288 1172.35 101.54 1172.44 100.792C1173.19 94.8957 1178.6 90.6271 1184.5 91.3752C1191.89 92.2993 1199.33 94.3235 1206.5 97.6678L1198.54 150.297L1229.25 106.733C1243.73 114.918 1249.76 132.432 1248.83 150.297C1250.11 145.237 1251.43 140.176 1252.75 135.204L1252.62 135.336Z" fill="#BC6182"/>
</g>
<g style="mix-blend-mode:multiply" opacity="0.15">
<path d="M1197.31 186.028C1193.66 202.705 1192.34 219.911 1189.34 236.677C1186.35 253.487 1183.8 270.384 1181.33 287.282C1176.45 320.638 1172.14 354.037 1168.84 387.612C1166.94 406.666 1165.84 425.764 1164 444.774C1163.91 445.61 1165.23 445.61 1165.32 444.774C1168.84 411.023 1174.12 377.447 1178.17 343.74C1182.17 310.164 1185.78 276.501 1190.05 242.969C1191.28 233.156 1192.47 223.387 1193.96 213.618C1195.37 204.465 1197.13 195.313 1197.97 186.072C1197.97 185.72 1197.4 185.631 1197.35 185.984L1197.31 186.028Z" fill="#BC6182"/>
</g>
<g style="mix-blend-mode:multiply" opacity="0.15">
<path d="M185.863 399.361C184.455 384.883 183.487 370.406 182.211 355.928C179.703 327.281 177.502 298.59 175.302 269.899C174.07 253.486 173.454 237.028 172.046 220.658C172.002 220.13 171.21 220.086 171.21 220.658C170.99 235.312 171.782 250.097 172.266 264.751C172.706 279.096 173.322 293.442 174.158 307.787C175.83 336.874 178.778 365.785 181.947 394.74C183.707 410.846 185.291 426.996 188.195 442.925C188.371 443.937 190.088 443.717 190 442.661C189.076 428.184 187.315 413.75 185.907 399.317L185.863 399.361Z" fill="#BC6182"/>
</g>
<g style="mix-blend-mode:multiply" opacity="0.15">
<path d="M325.14 167.678C322.632 168.426 320.696 170.495 320.124 173.047C319.508 175.643 320.124 178.284 321.84 180.308C322.016 180.484 322.236 180.616 322.412 180.792C322.94 181.32 323.468 181.848 324.128 182.2C329.145 184.928 335.613 180.704 335.613 175.115C335.613 169.967 329.981 166.226 325.184 167.678H325.14Z" fill="#BC6182"/>
</g>
<path d="M320.167 595.71C319.903 595.71 319.903 596.106 320.167 596.106C320.431 596.106 320.431 595.71 320.167 595.71Z" fill="#BC6182"/>
<path d="M140.758 626.072C141.55 618.371 147.49 605.302 152.199 601.033C148.282 590.34 151.143 583.035 156.467 581.627C159.108 580.923 163.464 583.343 161.968 590.868C173.849 580.087 198.36 569.394 224.498 571.286C235.631 558.173 245.709 557.381 252.617 575.379C265.203 579.559 275.016 591.748 277.656 602.749C272.199 592.408 264.675 584.047 249.625 577.315C247.161 569.042 239.768 559.625 225.511 574.366C211.913 574.366 182.386 577.095 159.944 596.501C162.056 580.087 152.199 578.635 155.015 600.593C151.451 605.258 145.73 611.066 140.802 626.072H140.758Z" fill="#FFCFA4"/>
<path d="M722 250H817L827 287.5L817 325H722V250Z" fill="#F5A878"/>
<path fill-rule="evenodd" clip-rule="evenodd" d="M816.231 251H723V324H816.231L825.965 287.5L816.231 251ZM817 250H722V325H817L827 287.5L817 250Z" fill="#880F02"/>
<path d="M722 250H817V325H722V250Z" fill="#F5A878"/>
<path fill-rule="evenodd" clip-rule="evenodd" d="M816 251H723V324H816V251ZM722 250V325H817V250H722Z" fill="#880F02"/>
<rect x="817" y="274.999" width="25" height="95" transform="rotate(90 817 274.999)" fill="#880F02"/>
<path d="M756.977 250H781.977V325H756.977V250Z" fill="#F5A878"/>
<path fill-rule="evenodd" clip-rule="evenodd" d="M780.977 251H757.977V324H780.977V251ZM756.977 250V325H781.977V250H756.977Z" fill="#880F02"/>
<mask id="mask0_339_954" style="mask-type:alpha" maskUnits="userSpaceOnUse" x="757" y="250" width="26" height="75">
<rect x="757.523" y="250.5" width="24" height="74" fill="#E38664" stroke="#880F02"/>
</mask>
<g mask="url(#mask0_339_954)">
<path fill-rule="evenodd" clip-rule="evenodd" d="M763.27 250L757.02 256.25L756.312 255.543L762.562 249.293L763.27 250Z" fill="#880F02"/>
<path fill-rule="evenodd" clip-rule="evenodd" d="M782.02 321.251L778.27 325.001L777.562 324.294L781.312 320.544L782.02 321.251Z" fill="#880F02"/>
<path fill-rule="evenodd" clip-rule="evenodd" d="M770.145 250.623L757.02 263.748L756.312 263.041L769.437 249.916L770.145 250.623Z" fill="#880F02"/>
<path fill-rule="evenodd" clip-rule="evenodd" d="M782.035 313.751L770.785 325.001L770.078 324.294L781.328 313.044L782.035 313.751Z" fill="#880F02"/>
<path fill-rule="evenodd" clip-rule="evenodd" d="M778.27 250.001L757.02 271.251L756.312 270.544L777.562 249.294L778.27 250.001Z" fill="#880F02"/>
<path fill-rule="evenodd" clip-rule="evenodd" d="M781.988 306.251L763.238 325.001L762.531 324.294L781.281 305.544L781.988 306.251Z" fill="#880F02"/>
<path fill-rule="evenodd" clip-rule="evenodd" d="M782.02 253.751L757.02 278.751L756.312 278.044L781.312 253.044L782.02 253.751Z" fill="#880F02"/>
<path fill-rule="evenodd" clip-rule="evenodd" d="M782.02 261.249L757.02 286.249L756.312 285.542L781.312 260.542L782.02 261.249Z" fill="#880F02"/>
<path fill-rule="evenodd" clip-rule="evenodd" d="M782.02 268.749L757.02 293.749L756.312 293.042L781.312 268.042L782.02 268.749Z" fill="#880F02"/>
<path fill-rule="evenodd" clip-rule="evenodd" d="M782.02 276.251L757.02 301.251L756.312 300.544L781.312 275.544L782.02 276.251Z" fill="#880F02"/>
<path fill-rule="evenodd" clip-rule="evenodd" d="M782.02 283.751L757.02 308.751L756.312 308.044L781.312 283.044L782.02 283.751Z" fill="#880F02"/>
<path fill-rule="evenodd" clip-rule="evenodd" d="M782.02 291.249L757.02 316.249L756.312 315.542L781.312 290.542L782.02 291.249Z" fill="#880F02"/>
<path fill-rule="evenodd" clip-rule="evenodd" d="M782.02 298.749L757.02 323.749L756.312 323.042L781.312 298.042L782.02 298.749Z" fill="#880F02"/>
</g>
<path d="M839 250H934L944 287.5L934 325H839V250Z" fill="#F5A878"/>
<path fill-rule="evenodd" clip-rule="evenodd" d="M933.231 251H840V324H933.231L942.965 287.5L933.231 251ZM934 250H839V325H934L944 287.5L934 250Z" fill="#880F02"/>
<path d="M839 250H934V325H839V250Z" fill="#F5A878"/>
<path fill-rule="evenodd" clip-rule="evenodd" d="M933 251H840V324H933V251ZM839 250V325H934V250H839Z" fill="#880F02"/>
<path d="M873.977 250H898.977V325H873.977V250Z" fill="#F5A878"/>
<path fill-rule="evenodd" clip-rule="evenodd" d="M897.977 251H874.977V324H897.977V251ZM873.977 250V325H898.977V250H873.977Z" fill="#880F02"/>
<mask id="mask1_339_954" style="mask-type:alpha" maskUnits="userSpaceOnUse" x="874" y="250" width="26" height="75">
<rect x="874.523" y="250.5" width="24" height="74" fill="#E38664" stroke="#880F02"/>
</mask>
<g mask="url(#mask1_339_954)">
<path fill-rule="evenodd" clip-rule="evenodd" d="M880.27 250L874.02 256.25L873.312 255.543L879.562 249.293L880.27 250Z" fill="#880F02"/>
<path fill-rule="evenodd" clip-rule="evenodd" d="M899.02 321.251L895.27 325.001L894.562 324.294L898.312 320.544L899.02 321.251Z" fill="#880F02"/>
<path fill-rule="evenodd" clip-rule="evenodd" d="M887.145 250.623L874.02 263.748L873.312 263.041L886.437 249.916L887.145 250.623Z" fill="#880F02"/>
<path fill-rule="evenodd" clip-rule="evenodd" d="M899.035 313.751L887.785 325.001L887.078 324.294L898.328 313.044L899.035 313.751Z" fill="#880F02"/>
<path fill-rule="evenodd" clip-rule="evenodd" d="M895.27 250.001L874.02 271.251L873.312 270.544L894.562 249.294L895.27 250.001Z" fill="#880F02"/>
<path fill-rule="evenodd" clip-rule="evenodd" d="M898.988 306.251L880.238 325.001L879.531 324.294L898.281 305.544L898.988 306.251Z" fill="#880F02"/>
<path fill-rule="evenodd" clip-rule="evenodd" d="M899.02 253.751L874.02 278.751L873.312 278.044L898.312 253.044L899.02 253.751Z" fill="#880F02"/>
<path fill-rule="evenodd" clip-rule="evenodd" d="M899.02 261.249L874.02 286.249L873.312 285.542L898.312 260.542L899.02 261.249Z" fill="#880F02"/>
<path fill-rule="evenodd" clip-rule="evenodd" d="M899.02 268.749L874.02 293.749L873.312 293.042L898.312 268.042L899.02 268.749Z" fill="#880F02"/>
<path fill-rule="evenodd" clip-rule="evenodd" d="M899.02 276.251L874.02 301.251L873.312 300.544L898.312 275.544L899.02 276.251Z" fill="#880F02"/>
<path fill-rule="evenodd" clip-rule="evenodd" d="M899.02 283.751L874.02 308.751L873.312 308.044L898.312 283.044L899.02 283.751Z" fill="#880F02"/>
<path fill-rule="evenodd" clip-rule="evenodd" d="M899.02 291.249L874.02 316.249L873.312 315.542L898.312 290.542L899.02 291.249Z" fill="#880F02"/>
<path fill-rule="evenodd" clip-rule="evenodd" d="M899.02 298.749L874.02 323.749L873.312 323.042L898.312 298.042L899.02 298.749Z" fill="#880F02"/>
</g>
<path d="M956 250H1051L1061 287.5L1051 325H956V250Z" fill="#F5A878"/>
<path fill-rule="evenodd" clip-rule="evenodd" d="M1050.23 251H957V324H1050.23L1059.96 287.5L1050.23 251ZM1051 250H956V325H1051L1061 287.5L1051 250Z" fill="#880F02"/>
<path d="M956 250H1051V325H956V250Z" fill="#F5A878"/>
<path fill-rule="evenodd" clip-rule="evenodd" d="M1050 251H957V324H1050V251ZM956 250V325H1051V250H956Z" fill="#880F02"/>
<rect x="1051" y="274.999" width="24.9999" height="94.9997" transform="rotate(90 1051 274.999)" fill="#880F02"/>
<rect x="991.5" y="250.5" width="23.9999" height="73.9997" fill="#880F02" stroke="#880F02"/>
<path d="M722 393H817L827 430.5L817 468H722V393Z" fill="#F5A878"/>
<path fill-rule="evenodd" clip-rule="evenodd" d="M816.231 394H723V467H816.231L825.965 430.5L816.231 394ZM817 393H722V468H817L827 430.5L817 393Z" fill="#880F02"/>
<path d="M722 393H817V468H722V393Z" fill="#F5A878"/>
<path fill-rule="evenodd" clip-rule="evenodd" d="M816 394H723V467H816V394ZM722 393V468H817V393H722Z" fill="#880F02"/>
<path d="M817 418L817 443L722 443L722 418L817 418Z" fill="#F5A878"/>
<path fill-rule="evenodd" clip-rule="evenodd" d="M816 442L816 419L723 419L723 442L816 442ZM817 418L722 418L722 443L817 443L817 418Z" fill="#880F02"/>
<mask id="mask2_339_954" style="mask-type:alpha" maskUnits="userSpaceOnUse" x="722" y="418" width="95" height="25">
<rect x="816.5" y="418.5" width="24" height="94" transform="rotate(90 816.5 418.5)" fill="#F5A878" stroke="#880F02"/>
</mask>
<g mask="url(#mask2_339_954)">
<path fill-rule="evenodd" clip-rule="evenodd" d="M723.211 443.447L721.422 442.553L727.448 430.5L721.422 418.447L723.211 417.553L729.684 430.5L723.211 443.447Z" fill="#880F02"/>
<path fill-rule="evenodd" clip-rule="evenodd" d="M730.711 443.447L728.922 442.553L734.948 430.5L728.922 418.447L730.711 417.553L737.184 430.5L730.711 443.447Z" fill="#880F02"/>
<path fill-rule="evenodd" clip-rule="evenodd" d="M738.211 443.447L736.422 442.553L742.448 430.5L736.422 418.447L738.211 417.553L744.684 430.5L738.211 443.447Z" fill="#880F02"/>
<path fill-rule="evenodd" clip-rule="evenodd" d="M745.711 443.447L743.922 442.553L749.948 430.5L743.922 418.447L745.711 417.553L752.184 430.5L745.711 443.447Z" fill="#880F02"/>
<path fill-rule="evenodd" clip-rule="evenodd" d="M753.211 443.447L751.422 442.553L757.448 430.5L751.422 418.447L753.211 417.553L759.684 430.5L753.211 443.447Z" fill="#880F02"/>
<path fill-rule="evenodd" clip-rule="evenodd" d="M760.711 443.447L758.922 442.553L764.948 430.5L758.922 418.447L760.711 417.553L767.184 430.5L760.711 443.447Z" fill="#880F02"/>
<path fill-rule="evenodd" clip-rule="evenodd" d="M768.211 443.447L766.422 442.553L772.448 430.5L766.422 418.447L768.211 417.553L774.684 430.5L768.211 443.447Z" fill="#880F02"/>
<path fill-rule="evenodd" clip-rule="evenodd" d="M775.711 443.447L773.922 442.553L779.948 430.5L773.922 418.447L775.711 417.553L782.184 430.5L775.711 443.447Z" fill="#880F02"/>
<path fill-rule="evenodd" clip-rule="evenodd" d="M783.211 443.447L781.422 442.553L787.448 430.5L781.422 418.447L783.211 417.553L789.684 430.5L783.211 443.447Z" fill="#880F02"/>
<path fill-rule="evenodd" clip-rule="evenodd" d="M790.711 443.447L788.922 442.553L794.948 430.5L788.922 418.447L790.711 417.553L797.184 430.5L790.711 443.447Z" fill="#880F02"/>
<path fill-rule="evenodd" clip-rule="evenodd" d="M798.211 443.447L796.422 442.553L802.448 430.5L796.422 418.447L798.211 417.553L804.684 430.5L798.211 443.447Z" fill="#880F02"/>
<path fill-rule="evenodd" clip-rule="evenodd" d="M805.711 443.447L803.922 442.553L809.948 430.5L803.922 418.447L805.711 417.553L812.184 430.5L805.711 443.447Z" fill="#880F02"/>
<path fill-rule="evenodd" clip-rule="evenodd" d="M813.211 443.447L811.422 442.553L817.448 430.5L811.422 418.447L813.211 417.553L819.684 430.5L813.211 443.447Z" fill="#880F02"/>
</g>
<path d="M757 393H782V468H757V393Z" fill="#E38664"/>
<path fill-rule="evenodd" clip-rule="evenodd" d="M781 394H758V467H781V394ZM757 393V468H782V393H757Z" fill="#880F02"/>
<path d="M838.992 393H933.992L943.992 430.5L933.992 468H838.992V393Z" fill="#F5A878"/>
<path fill-rule="evenodd" clip-rule="evenodd" d="M933.224 394H839.992V467H933.224L942.957 430.5L933.224 394ZM933.992 393H838.992V468H933.992L943.992 430.5L933.992 393Z" fill="#880F02"/>
<path d="M838.992 393H933.992V468H838.992V393Z" fill="#F5A878"/>
<path fill-rule="evenodd" clip-rule="evenodd" d="M932.992 394H839.992V467H932.992V394ZM838.992 393V468H933.992V393H838.992Z" fill="#880F02"/>
<path d="M933.992 417.999L933.992 442.998L838.993 442.998L838.993 417.999L933.992 417.999Z" fill="#F5A878"/>
<path fill-rule="evenodd" clip-rule="evenodd" d="M932.992 441.998L932.992 418.999L839.993 418.999L839.993 441.998L932.992 441.998ZM933.992 417.999L838.993 417.999L838.993 442.998L933.992 442.998L933.992 417.999Z" fill="#880F02"/>
<mask id="mask3_339_954" style="mask-type:alpha" maskUnits="userSpaceOnUse" x="840" y="418" width="94" height="25">
<rect x="840.5" y="418.5" width="93" height="24" fill="#E38664" stroke="#880F02"/>
</mask>
<g mask="url(#mask3_339_954)">
<path fill-rule="evenodd" clip-rule="evenodd" d="M846.246 418L839.996 424.25L839.289 423.543L845.539 417.293L846.246 418Z" fill="#880F02"/>
<path fill-rule="evenodd" clip-rule="evenodd" d="M934.246 420.001L911.246 443.001L910.539 442.294L933.539 419.294L934.246 420.001Z" fill="#880F02"/>
<path fill-rule="evenodd" clip-rule="evenodd" d="M933.731 428.001L918.731 443.001L918.023 442.294L933.023 427.294L933.731 428.001Z" fill="#880F02"/>
<path fill-rule="evenodd" clip-rule="evenodd" d="M934.207 435.001L926.207 443.001L925.5 442.294L933.5 434.294L934.207 435.001Z" fill="#880F02"/>
<path fill-rule="evenodd" clip-rule="evenodd" d="M853.121 418.623L839.996 431.748L839.289 431.041L852.414 417.916L853.121 418.623Z" fill="#880F02"/>
<path fill-rule="evenodd" clip-rule="evenodd" d="M927.762 419.001L903.762 443.001L903.055 442.294L927.055 418.294L927.762 419.001Z" fill="#880F02"/>
<path fill-rule="evenodd" clip-rule="evenodd" d="M861.246 418.001L839.996 439.251L839.289 438.544L860.539 417.294L861.246 418.001Z" fill="#880F02"/>
<path fill-rule="evenodd" clip-rule="evenodd" d="M921.215 418.001L895.215 444.001L894.508 443.294L920.508 417.294L921.215 418.001Z" fill="#880F02"/>
<path fill-rule="evenodd" clip-rule="evenodd" d="M867.996 418.751L843.996 442.751L843.289 442.044L867.289 418.044L867.996 418.751Z" fill="#880F02"/>
<path fill-rule="evenodd" clip-rule="evenodd" d="M876.996 417.249L850.996 443.249L850.289 442.542L876.289 416.542L876.996 417.249Z" fill="#880F02"/>
<path fill-rule="evenodd" clip-rule="evenodd" d="M883.996 417.749L858.996 442.749L858.289 442.042L883.289 417.042L883.996 417.749Z" fill="#880F02"/>
<path fill-rule="evenodd" clip-rule="evenodd" d="M890.996 418.251L865.996 443.251L865.289 442.544L890.289 417.544L890.996 418.251Z" fill="#880F02"/>
<path fill-rule="evenodd" clip-rule="evenodd" d="M898.996 417.751L873.996 442.751L873.289 442.044L898.289 417.044L898.996 417.751Z" fill="#880F02"/>
<path fill-rule="evenodd" clip-rule="evenodd" d="M905.996 418.249L879.996 444.249L879.289 443.542L905.289 417.542L905.996 418.249Z" fill="#880F02"/>
<path fill-rule="evenodd" clip-rule="evenodd" d="M912.996 418.749L886.996 444.749L886.289 444.042L912.289 418.042L912.996 418.749Z" fill="#880F02"/>
</g>
<path d="M873.992 393H898.992V468H873.992V393Z" fill="#F5A878"/>
<path fill-rule="evenodd" clip-rule="evenodd" d="M897.992 394H874.992V467H897.992V394ZM873.992 393V468H898.992V393H873.992Z" fill="#880F02"/>
<mask id="mask4_339_954" style="mask-type:alpha" maskUnits="userSpaceOnUse" x="874" y="393" width="25" height="75">
<rect x="874.5" y="393.5" width="24" height="74" fill="#F5A878" stroke="#880F02"/>
</mask>
<g mask="url(#mask4_339_954)">
<path fill-rule="evenodd" clip-rule="evenodd" d="M899.445 469.293L898.551 471.082L886.498 465.056L874.445 471.082L873.551 469.293L886.498 462.819L899.445 469.293Z" fill="#880F02"/>
<path fill-rule="evenodd" clip-rule="evenodd" d="M899.445 461.793L898.551 463.582L886.498 457.556L874.445 463.582L873.551 461.793L886.498 455.319L899.445 461.793Z" fill="#880F02"/>
<path fill-rule="evenodd" clip-rule="evenodd" d="M899.445 454.293L898.551 456.082L886.498 450.056L874.445 456.082L873.551 454.293L886.498 447.819L899.445 454.293Z" fill="#880F02"/>
<path fill-rule="evenodd" clip-rule="evenodd" d="M899.445 446.793L898.551 448.582L886.498 442.556L874.445 448.582L873.551 446.793L886.498 440.319L899.445 446.793Z" fill="#880F02"/>
<path fill-rule="evenodd" clip-rule="evenodd" d="M899.445 439.293L898.551 441.082L886.498 435.056L874.445 441.082L873.551 439.293L886.498 432.819L899.445 439.293Z" fill="#880F02"/>
<path fill-rule="evenodd" clip-rule="evenodd" d="M899.445 431.793L898.551 433.582L886.498 427.556L874.445 433.582L873.551 431.793L886.498 425.319L899.445 431.793Z" fill="#880F02"/>
<path fill-rule="evenodd" clip-rule="evenodd" d="M899.445 424.293L898.551 426.082L886.498 420.056L874.445 426.082L873.551 424.293L886.498 417.819L899.445 424.293Z" fill="#880F02"/>
<path fill-rule="evenodd" clip-rule="evenodd" d="M899.445 416.793L898.551 418.582L886.498 412.556L874.445 418.582L873.551 416.793L886.498 410.319L899.445 416.793Z" fill="#880F02"/>
<path fill-rule="evenodd" clip-rule="evenodd" d="M899.445 409.293L898.551 411.082L886.498 405.056L874.445 411.082L873.551 409.293L886.498 402.819L899.445 409.293Z" fill="#880F02"/>
<path fill-rule="evenodd" clip-rule="evenodd" d="M899.445 401.793L898.551 403.582L886.498 397.556L874.445 403.582L873.551 401.793L886.498 395.319L899.445 401.793Z" fill="#880F02"/>
<path fill-rule="evenodd" clip-rule="evenodd" d="M899.445 394.293L898.551 396.082L886.498 390.056L874.445 396.082L873.551 394.293L886.498 387.819L899.445 394.293Z" fill="#880F02"/>
</g>
<path d="M956 393H1051L1061 430.5L1051 468H956V393Z" fill="#F5A878"/>
<path fill-rule="evenodd" clip-rule="evenodd" d="M1050.23 394H957V467H1050.23L1059.96 430.5L1050.23 394ZM1051 393H956V468H1051L1061 430.5L1051 393Z" fill="#880F02"/>
<path d="M956 393H1051V468H956V393Z" fill="#F5A878"/>
<path fill-rule="evenodd" clip-rule="evenodd" d="M1050 394H957V467H1050V394ZM956 393V468H1051V393H956Z" fill="#880F02"/>
<path d="M1051 417.999L1051 442.998L956 442.998L956 417.999L1051 417.999Z" fill="#F5A878"/>
<path fill-rule="evenodd" clip-rule="evenodd" d="M1050 441.998L1050 418.999L957 418.999L957 441.998L1050 441.998ZM1051 417.999L956 417.999L956 442.998L1051 442.998L1051 417.999Z" fill="#880F02"/>
<mask id="mask5_339_954" style="mask-type:alpha" maskUnits="userSpaceOnUse" x="956" y="418" width="95" height="25">
<rect x="1050.5" y="418.5" width="24" height="94" transform="rotate(90 1050.5 418.5)" fill="#F5A878" stroke="#880F02"/>
</mask>
<g mask="url(#mask5_339_954)">
<path fill-rule="evenodd" clip-rule="evenodd" d="M957.211 443.447L955.422 442.553L961.448 430.5L955.422 418.447L957.211 417.553L963.684 430.5L957.211 443.447Z" fill="#880F02"/>
<path fill-rule="evenodd" clip-rule="evenodd" d="M964.711 443.447L962.922 442.553L968.948 430.5L962.922 418.447L964.711 417.553L971.184 430.5L964.711 443.447Z" fill="#880F02"/>
<path fill-rule="evenodd" clip-rule="evenodd" d="M972.211 443.447L970.422 442.553L976.448 430.5L970.422 418.447L972.211 417.553L978.684 430.5L972.211 443.447Z" fill="#880F02"/>
<path fill-rule="evenodd" clip-rule="evenodd" d="M979.711 443.447L977.922 442.553L983.948 430.5L977.922 418.447L979.711 417.553L986.184 430.5L979.711 443.447Z" fill="#880F02"/>
<path fill-rule="evenodd" clip-rule="evenodd" d="M987.211 443.447L985.422 442.553L991.448 430.5L985.422 418.447L987.211 417.553L993.684 430.5L987.211 443.447Z" fill="#880F02"/>
<path fill-rule="evenodd" clip-rule="evenodd" d="M994.711 443.447L992.922 442.553L998.948 430.5L992.922 418.447L994.711 417.553L1001.18 430.5L994.711 443.447Z" fill="#880F02"/>
<path fill-rule="evenodd" clip-rule="evenodd" d="M1002.21 443.447L1000.42 442.553L1006.45 430.5L1000.42 418.447L1002.21 417.553L1008.68 430.5L1002.21 443.447Z" fill="#880F02"/>
<path fill-rule="evenodd" clip-rule="evenodd" d="M1009.71 443.447L1007.92 442.553L1013.95 430.5L1007.92 418.447L1009.71 417.553L1016.18 430.5L1009.71 443.447Z" fill="#880F02"/>
<path fill-rule="evenodd" clip-rule="evenodd" d="M1017.21 443.447L1015.42 442.553L1021.45 430.5L1015.42 418.447L1017.21 417.553L1023.68 430.5L1017.21 443.447Z" fill="#880F02"/>
<path fill-rule="evenodd" clip-rule="evenodd" d="M1024.71 443.447L1022.92 442.553L1028.95 430.5L1022.92 418.447L1024.71 417.553L1031.18 430.5L1024.71 443.447Z" fill="#880F02"/>
<path fill-rule="evenodd" clip-rule="evenodd" d="M1032.21 443.447L1030.42 442.553L1036.45 430.5L1030.42 418.447L1032.21 417.553L1038.68 430.5L1032.21 443.447Z" fill="#880F02"/>
<path fill-rule="evenodd" clip-rule="evenodd" d="M1039.71 443.447L1037.92 442.553L1043.95 430.5L1037.92 418.447L1039.71 417.553L1046.18 430.5L1039.71 443.447Z" fill="#880F02"/>
<path fill-rule="evenodd" clip-rule="evenodd" d="M1047.21 443.447L1045.42 442.553L1051.45 430.5L1045.42 418.447L1047.21 417.553L1053.68 430.5L1047.21 443.447Z" fill="#880F02"/>
</g>
<path d="M991 393H1016V468H991V393Z" fill="#F5A878"/>
<path fill-rule="evenodd" clip-rule="evenodd" d="M1015 394H992V467H1015V394ZM991 393V468H1016V393H991Z" fill="#880F02"/>
<mask id="mask6_339_954" style="mask-type:alpha" maskUnits="userSpaceOnUse" x="991" y="393" width="26" height="75">
<rect x="991.523" y="393.5" width="24" height="74" fill="#E38664" stroke="#880F02"/>
</mask>
<g mask="url(#mask6_339_954)">
<path fill-rule="evenodd" clip-rule="evenodd" d="M997.27 393L991.02 399.25L990.312 398.543L996.562 392.293L997.27 393Z" fill="#880F02"/>
<path fill-rule="evenodd" clip-rule="evenodd" d="M1016.02 464.251L1012.27 468.001L1011.56 467.294L1015.31 463.544L1016.02 464.251Z" fill="#880F02"/>
<path fill-rule="evenodd" clip-rule="evenodd" d="M1004.14 393.623L991.02 406.748L990.312 406.041L1003.44 392.916L1004.14 393.623Z" fill="#880F02"/>
<path fill-rule="evenodd" clip-rule="evenodd" d="M1016.04 456.751L1004.79 468.001L1004.08 467.294L1015.33 456.044L1016.04 456.751Z" fill="#880F02"/>
<path fill-rule="evenodd" clip-rule="evenodd" d="M1012.27 393.001L991.02 414.251L990.312 413.544L1011.56 392.294L1012.27 393.001Z" fill="#880F02"/>
<path fill-rule="evenodd" clip-rule="evenodd" d="M1015.99 449.251L997.238 468.001L996.531 467.294L1015.28 448.544L1015.99 449.251Z" fill="#880F02"/>
<path fill-rule="evenodd" clip-rule="evenodd" d="M1016.02 396.751L991.02 421.751L990.312 421.044L1015.31 396.044L1016.02 396.751Z" fill="#880F02"/>
<path fill-rule="evenodd" clip-rule="evenodd" d="M1016.02 404.249L991.02 429.249L990.312 428.542L1015.31 403.542L1016.02 404.249Z" fill="#880F02"/>
<path fill-rule="evenodd" clip-rule="evenodd" d="M1016.02 411.749L991.02 436.749L990.312 436.042L1015.31 411.042L1016.02 411.749Z" fill="#880F02"/>
<path fill-rule="evenodd" clip-rule="evenodd" d="M1016.02 419.251L991.02 444.251L990.312 443.544L1015.31 418.544L1016.02 419.251Z" fill="#880F02"/>
<path fill-rule="evenodd" clip-rule="evenodd" d="M1016.02 426.751L991.02 451.751L990.312 451.044L1015.31 426.044L1016.02 426.751Z" fill="#880F02"/>
<path fill-rule="evenodd" clip-rule="evenodd" d="M1016.02 434.249L991.02 459.249L990.312 458.542L1015.31 433.542L1016.02 434.249Z" fill="#880F02"/>
<path fill-rule="evenodd" clip-rule="evenodd" d="M1016.02 441.749L991.02 466.749L990.312 466.042L1015.31 441.042L1016.02 441.749Z" fill="#880F02"/>
</g>
<rect x="308.5" y="250.5" width="151" height="119" fill="#F5A878" stroke="#880F02"/>
<rect x="460" y="290" width="40" height="152" transform="rotate(90 460 290)" fill="#880F02"/>
<rect x="364.5" y="250.5" width="39" height="119" fill="#E38664" stroke="#880F02"/>
<path d="M308 250H460V370H308V250Z" fill="#F5A878"/>
<path fill-rule="evenodd" clip-rule="evenodd" d="M459 251H309V369H459V251ZM308 250V370H460V250H308Z" fill="#880F02"/>
<path d="M460 290L460 330L308 330L308 290L460 290Z" fill="#880F02"/>
<path d="M364 250H404V370H364V250Z" fill="#E38664"/>
<path fill-rule="evenodd" clip-rule="evenodd" d="M403 251H365V369H403V251ZM364 250V370H404V250H364Z" fill="#880F02"/>
<path d="M480 250H632V370H480V250Z" fill="#F5A878"/>
<path fill-rule="evenodd" clip-rule="evenodd" d="M631 251H481V369H631V251ZM480 250V370H632V250H480Z" fill="#880F02"/>
<rect x="632" y="290" width="40" height="152" transform="rotate(90 632 290)" fill="#880F02"/>
<path d="M536 250H576V370H536V250Z" fill="#F5A878"/>
<path fill-rule="evenodd" clip-rule="evenodd" d="M575 251H537V369H575V251ZM536 250V370H576V250H536Z" fill="#880F02"/>
<mask id="mask7_339_954" style="mask-type:alpha" maskUnits="userSpaceOnUse" x="536" y="250" width="40" height="120">
<rect x="536.5" y="250.5" width="39" height="119" fill="#F5A878" stroke="#880F02"/>
</mask>
<g mask="url(#mask7_339_954)">
<path fill-rule="evenodd" clip-rule="evenodd" d="M545.996 250L535.996 260L535.289 259.293L545.289 249.293L545.996 250Z" fill="#880F02"/>
<path fill-rule="evenodd" clip-rule="evenodd" d="M575.996 364L569.996 370L569.289 369.293L575.289 363.293L575.996 364Z" fill="#880F02"/>
<path fill-rule="evenodd" clip-rule="evenodd" d="M556.996 251L535.996 272L535.289 271.293L556.289 250.293L556.996 251Z" fill="#880F02"/>
<path fill-rule="evenodd" clip-rule="evenodd" d="M575.996 352L557.996 370L557.289 369.293L575.289 351.293L575.996 352Z" fill="#880F02"/>
<path fill-rule="evenodd" clip-rule="evenodd" d="M569.996 250L535.996 284L535.289 283.293L569.289 249.293L569.996 250Z" fill="#880F02"/>
<path fill-rule="evenodd" clip-rule="evenodd" d="M575.996 340L545.996 370L545.289 369.293L575.289 339.293L575.996 340Z" fill="#880F02"/>
<path fill-rule="evenodd" clip-rule="evenodd" d="M575.996 256L535.996 296L535.289 295.293L575.289 255.293L575.996 256Z" fill="#880F02"/>
<path fill-rule="evenodd" clip-rule="evenodd" d="M575.996 268L535.996 308L535.289 307.293L575.289 267.293L575.996 268Z" fill="#880F02"/>
<path fill-rule="evenodd" clip-rule="evenodd" d="M575.996 280L535.996 320L535.289 319.293L575.289 279.293L575.996 280Z" fill="#880F02"/>
<path fill-rule="evenodd" clip-rule="evenodd" d="M575.996 292L535.996 332L535.289 331.293L575.289 291.293L575.996 292Z" fill="#880F02"/>
<path fill-rule="evenodd" clip-rule="evenodd" d="M575.996 304L535.996 344L535.289 343.293L575.289 303.293L575.996 304Z" fill="#880F02"/>
<path fill-rule="evenodd" clip-rule="evenodd" d="M575.996 316L535.996 356L535.289 355.293L575.289 315.293L575.996 316Z" fill="#880F02"/>
<path fill-rule="evenodd" clip-rule="evenodd" d="M575.996 328L535.996 368L535.289 367.293L575.289 327.293L575.996 328Z" fill="#880F02"/>
</g>
<path d="M308 390H460V510H308V390Z" fill="#F5A878"/>
<path fill-rule="evenodd" clip-rule="evenodd" d="M459 391H309V509H459V391ZM308 390V510H460V390H308Z" fill="#880F02"/>
<path d="M460 430L460 470L308 470L308 430L460 430Z" fill="#F5A878"/>
<path fill-rule="evenodd" clip-rule="evenodd" d="M459 469L459 431L309 431L309 469L459 469ZM460 430L308 430L308 470L460 470L460 430Z" fill="#880F02"/>
<mask id="mask8_339_954" style="mask-type:alpha" maskUnits="userSpaceOnUse" x="308" y="430" width="152" height="40">
<rect x="459.5" y="430.5" width="39" height="151" transform="rotate(90 459.5 430.5)" fill="#F5A878" stroke="#880F02"/>
</mask>
<g mask="url(#mask8_339_954)">
<path fill-rule="evenodd" clip-rule="evenodd" d="M309.398 470.447L307.609 469.553L317.386 450L307.609 430.447L309.398 429.553L319.622 450L309.398 470.447Z" fill="#880F02"/>
<path fill-rule="evenodd" clip-rule="evenodd" d="M321.398 470.447L319.609 469.553L329.386 450L319.609 430.447L321.398 429.553L331.622 450L321.398 470.447Z" fill="#880F02"/>
<path fill-rule="evenodd" clip-rule="evenodd" d="M333.398 470.447L331.609 469.553L341.386 450L331.609 430.447L333.398 429.553L343.622 450L333.398 470.447Z" fill="#880F02"/>
<path fill-rule="evenodd" clip-rule="evenodd" d="M345.398 470.447L343.609 469.553L353.386 450L343.609 430.447L345.398 429.553L355.622 450L345.398 470.447Z" fill="#880F02"/>
<path fill-rule="evenodd" clip-rule="evenodd" d="M357.398 470.447L355.609 469.553L365.386 450L355.609 430.447L357.398 429.553L367.622 450L357.398 470.447Z" fill="#880F02"/>
<path fill-rule="evenodd" clip-rule="evenodd" d="M369.398 470.447L367.609 469.553L377.386 450L367.609 430.447L369.398 429.553L379.622 450L369.398 470.447Z" fill="#880F02"/>
<path fill-rule="evenodd" clip-rule="evenodd" d="M381.398 470.447L379.609 469.553L389.386 450L379.609 430.447L381.398 429.553L391.622 450L381.398 470.447Z" fill="#880F02"/>
<path fill-rule="evenodd" clip-rule="evenodd" d="M393.398 470.447L391.609 469.553L401.386 450L391.609 430.447L393.398 429.553L403.622 450L393.398 470.447Z" fill="#880F02"/>
<path fill-rule="evenodd" clip-rule="evenodd" d="M405.398 470.447L403.609 469.553L413.386 450L403.609 430.447L405.398 429.553L415.622 450L405.398 470.447Z" fill="#880F02"/>
<path fill-rule="evenodd" clip-rule="evenodd" d="M417.398 470.447L415.609 469.553L425.386 450L415.609 430.447L417.398 429.553L427.622 450L417.398 470.447Z" fill="#880F02"/>
<path fill-rule="evenodd" clip-rule="evenodd" d="M429.398 470.447L427.609 469.553L437.386 450L427.609 430.447L429.398 429.553L439.622 450L429.398 470.447Z" fill="#880F02"/>
<path fill-rule="evenodd" clip-rule="evenodd" d="M441.398 470.447L439.609 469.553L449.386 450L439.609 430.447L441.398 429.553L451.622 450L441.398 470.447Z" fill="#880F02"/>
<path fill-rule="evenodd" clip-rule="evenodd" d="M453.398 470.447L451.609 469.553L461.386 450L451.609 430.447L453.398 429.553L463.622 450L453.398 470.447Z" fill="#880F02"/>
</g>
<path d="M364 390H404V510H364V390Z" fill="#E38664"/>
<path fill-rule="evenodd" clip-rule="evenodd" d="M403 391H365V509H403V391ZM364 390V510H404V390H364Z" fill="#880F02"/>
<path d="M480 390H632L652 450L632 510H480V390Z" fill="#F5A878"/>
<path fill-rule="evenodd" clip-rule="evenodd" d="M631.279 391H481V509H631.279L650.946 450L631.279 391ZM632 390H480V510H632L652 450L632 390Z" fill="#880F02"/>
<path d="M553.346 455.159V454.864C553.353 453.492 553.482 452.401 553.732 451.591C553.99 450.78 554.353 450.129 554.823 449.636C555.293 449.136 555.865 448.678 556.539 448.261C557.001 447.973 557.414 447.659 557.778 447.318C558.149 446.97 558.441 446.583 558.653 446.159C558.865 445.727 558.971 445.246 558.971 444.716C558.971 444.117 558.831 443.598 558.55 443.159C558.27 442.72 557.891 442.379 557.414 442.136C556.944 441.894 556.418 441.773 555.835 441.773C555.297 441.773 554.785 441.89 554.3 442.125C553.823 442.352 553.425 442.701 553.107 443.17C552.797 443.633 552.622 444.22 552.585 444.932H548.539C548.577 443.492 548.925 442.288 549.585 441.318C550.251 440.348 551.13 439.621 552.221 439.136C553.319 438.651 554.531 438.409 555.857 438.409C557.304 438.409 558.577 438.663 559.675 439.17C560.781 439.678 561.641 440.401 562.255 441.341C562.876 442.273 563.187 443.379 563.187 444.659C563.187 445.523 563.047 446.295 562.766 446.977C562.494 447.659 562.103 448.265 561.596 448.795C561.088 449.326 560.486 449.799 559.789 450.216C559.175 450.595 558.672 450.989 558.278 451.398C557.891 451.807 557.603 452.288 557.414 452.841C557.232 453.386 557.138 454.061 557.13 454.864V455.159H553.346ZM555.323 462.25C554.641 462.25 554.054 462.008 553.562 461.523C553.069 461.038 552.823 460.447 552.823 459.75C552.823 459.068 553.069 458.485 553.562 458C554.054 457.515 554.641 457.273 555.323 457.273C555.997 457.273 556.581 457.515 557.073 458C557.573 458.485 557.823 459.068 557.823 459.75C557.823 460.212 557.706 460.633 557.471 461.011C557.244 461.39 556.941 461.693 556.562 461.92C556.191 462.14 555.778 462.25 555.323 462.25Z" fill="#880F02"/>
</g>
<path fill-rule="evenodd" clip-rule="evenodd" d="M680 250L680 510L679 510L679 250L680 250Z" fill="#880F02"/>
<path d="M773.996 492.909V494.897H767.95V506H765.578V492.909H773.996Z" fill="#880F02"/>
<path d="M880.453 509.158V504.063H881.329C881.623 503.829 881.898 503.499 882.153 503.072C882.409 502.646 882.626 502.062 882.805 501.321C882.984 500.58 883.108 499.621 883.176 498.445L883.521 492.909H891.888V504.063H893.346V509.145H891.07V506H882.729V509.158H880.453ZM884.09 504.063H889.613V494.897H885.656L885.452 498.445C885.396 499.335 885.307 500.132 885.183 500.835C885.06 501.538 884.904 502.158 884.717 502.695C884.529 503.228 884.32 503.684 884.09 504.063Z" fill="#880F02"/>
<path d="M1000.32 506V492.909H1008.83V494.897H1002.69V498.451H1008.39V500.439H1002.69V504.012H1008.89V506H1000.32Z" fill="#880F02"/>
<path d="M765.461 363H762.93L767.538 349.909H770.466L775.081 363H772.55L769.053 352.594H768.951L765.461 363ZM765.544 357.867H772.447V359.772H765.544V357.867Z" fill="#880F02"/>
<path d="M882.406 363V349.909H890.825V351.897H884.778V354.965H887.303C888.304 354.965 889.163 355.129 889.879 355.457C890.599 355.781 891.151 356.239 891.534 356.832C891.918 357.424 892.109 358.121 892.109 358.922C892.109 359.727 891.918 360.437 891.534 361.05C891.151 361.66 890.599 362.137 889.879 362.482C889.163 362.827 888.304 363 887.303 363H882.406ZM884.778 361.057H887.303C887.831 361.057 888.278 360.957 888.645 360.756C889.011 360.556 889.288 360.292 889.476 359.964C889.668 359.636 889.763 359.28 889.763 358.896C889.763 358.342 889.55 357.871 889.124 357.484C888.702 357.092 888.095 356.896 887.303 356.896H884.778V361.057Z" fill="#880F02"/>
<path d="M999.375 363V349.909H1004.39C1005.33 349.909 1006.12 350.058 1006.75 350.357C1007.38 350.651 1007.85 351.053 1008.16 351.565C1008.47 352.076 1008.63 352.656 1008.63 353.303C1008.63 353.836 1008.53 354.292 1008.32 354.671C1008.12 355.046 1007.84 355.351 1007.5 355.585C1007.15 355.82 1006.77 355.988 1006.34 356.09V356.218C1006.81 356.244 1007.25 356.386 1007.68 356.646C1008.11 356.902 1008.46 357.264 1008.73 357.733C1009.01 358.202 1009.14 358.768 1009.14 359.433C1009.14 360.111 1008.98 360.72 1008.65 361.261C1008.32 361.798 1007.83 362.222 1007.17 362.533C1006.51 362.844 1005.68 363 1004.67 363H999.375ZM1001.75 361.018H1004.3C1005.16 361.018 1005.78 360.854 1006.16 360.526C1006.54 360.194 1006.73 359.768 1006.73 359.248C1006.73 358.86 1006.64 358.511 1006.44 358.2C1006.25 357.884 1005.98 357.637 1005.63 357.458C1005.27 357.275 1004.85 357.183 1004.36 357.183H1001.75V361.018ZM1001.75 355.477H1004.09C1004.5 355.477 1004.87 355.402 1005.2 355.253C1005.53 355.099 1005.78 354.884 1005.97 354.607C1006.16 354.326 1006.26 353.994 1006.26 353.61C1006.26 353.103 1006.08 352.685 1005.72 352.357C1005.37 352.029 1004.84 351.865 1004.14 351.865H1001.75V355.477Z" fill="#880F02"/>
<defs>
<filter id="filter0_d_339_954" x="0" y="0" width="1344.75" height="797.591" filterUnits="userSpaceOnUse" color-interpolation-filters="sRGB">
<feFlood flood-opacity="0" result="BackgroundImageFix"/>
<feColorMatrix in="SourceAlpha" type="matrix" values="0 0 0 0 0 0 0 0 0 0 0 0 0 0 0 0 0 0 127 0" result="hardAlpha"/>
<feOffset dy="24"/>
<feGaussianBlur stdDeviation="46"/>
<feComposite in2="hardAlpha" operator="out"/>
<feColorMatrix type="matrix" values="0 0 0 0 0 0 0 0 0 0 0 0 0 0 0 0 0 0 0.24 0"/>
<feBlend mode="normal" in2="BackgroundImageFix" result="effect1_dropShadow_339_954"/>
<feBlend mode="normal" in="SourceGraphic" in2="effect1_dropShadow_339_954" result="shape"/>
</filter>
<radialGradient id="paint0_radial_339_954" cx="0" cy="0" r="1" gradientUnits="userSpaceOnUse" gradientTransform="translate(668.365 399.056) scale(430.625 406.25)">
<stop stop-color="#FFC488"/>
<stop offset="0.34" stop-color="#FFBF85"/>
<stop offset="0.69" stop-color="#FFB37E"/>
<stop offset="1" stop-color="#FFA274"/>
</radialGradient>
<linearGradient id="paint1_linear_339_954" x1="1188.59" y1="399.274" x2="1094.46" y2="398.174" gradientUnits="userSpaceOnUse">
<stop stop-color="#8E1613"/>
<stop offset="1" stop-color="#FFA8A6"/>
</linearGradient>
<linearGradient id="paint2_linear_339_954" x1="1067.87" y1="594.145" x2="1167.52" y2="603.81" gradientUnits="userSpaceOnUse">
<stop stop-color="#FFA274"/>
<stop offset="1" stop-color="#FFC488"/>
</linearGradient>
<linearGradient id="paint3_linear_339_954" x1="1104.21" y1="606.558" x2="1134.6" y2="609.507" gradientUnits="userSpaceOnUse">
<stop stop-color="#FFA274"/>
<stop offset="1" stop-color="#FFC488"/>
</linearGradient>
<linearGradient id="paint4_linear_339_954" x1="1106.28" y1="584.695" x2="1168.78" y2="590.757" gradientUnits="userSpaceOnUse">
<stop stop-color="#FFC488"/>
<stop offset="1" stop-color="#FFA274"/>
</linearGradient>
<linearGradient id="paint5_linear_339_954" x1="1092.28" y1="342.122" x2="1231.34" y2="355.61" gradientUnits="userSpaceOnUse">
<stop stop-color="#FFA274"/>
<stop offset="0.37" stop-color="#FFC488"/>
<stop offset="0.68" stop-color="#FFA274"/>
<stop offset="1" stop-color="#BF7258"/>
</linearGradient>
<linearGradient id="paint6_linear_339_954" x1="154.091" y1="398.396" x2="249.801" y2="397.56" gradientUnits="userSpaceOnUse">
<stop stop-color="#8E1613"/>
<stop offset="1" stop-color="#FFA8A6"/>
</linearGradient>
<linearGradient id="paint7_linear_339_954" x1="276.817" y1="594.005" x2="177.174" y2="603.669" gradientUnits="userSpaceOnUse">
<stop stop-color="#FFA274"/>
<stop offset="1" stop-color="#FFC488"/>
</linearGradient>
<linearGradient id="paint8_linear_339_954" x1="240.487" y1="606.462" x2="210.09" y2="609.411" gradientUnits="userSpaceOnUse">
<stop stop-color="#FFA274"/>
<stop offset="1" stop-color="#FFC488"/>
</linearGradient>
<linearGradient id="paint9_linear_339_954" x1="238.417" y1="584.599" x2="175.915" y2="590.661" gradientUnits="userSpaceOnUse">
<stop stop-color="#FFC488"/>
<stop offset="1" stop-color="#FFA274"/>
</linearGradient>
<linearGradient id="paint10_linear_339_954" x1="252.278" y1="340.582" x2="113.26" y2="354.066" gradientUnits="userSpaceOnUse">
<stop stop-color="#FFA274"/>
<stop offset="0.37" stop-color="#FFC488"/>
<stop offset="0.68" stop-color="#FFA274"/>
<stop offset="1" stop-color="#BF7258"/>
</linearGradient>
</defs>
</svg>
