<svg width="960" height="175" viewBox="0 0 960 175" fill="none" xmlns="http://www.w3.org/2000/svg">
<path fill-rule="evenodd" clip-rule="evenodd" d="M493.128 174.945C463.429 174.945 46.0301 175.142 16.8457 174.788C15.5407 174.788 14.4334 173.882 14.2357 172.582C13.3657 167.344 9.88573 163.365 4.38894 162.341C3.16304 162.105 2.29304 161.12 2.21395 159.899C0.355328 129.019 -0.435576 39.153 0.236693 18.238C0.236693 17.0563 1.0276 16.111 2.17441 15.7959C8.06665 14.181 11.3489 9.06055 11.5071 2.91602C11.5071 1.49805 12.733 0.355794 14.1566 0.316406C32.2683 -0.0380863 462.678 0.00130211 493.128 0.00130211C523.578 0.00130211 927.732 0.0013018 945.843 0.316406C947.267 0.316406 948.453 1.45866 948.493 2.91602C948.612 9.06055 951.933 14.181 957.826 15.7959C958.972 16.111 959.724 17.0957 959.763 18.238C960.436 39.153 959.645 129.019 957.786 159.899C957.707 161.12 956.837 162.105 955.611 162.341C950.114 163.365 946.634 167.344 945.764 172.582C945.567 173.882 944.459 174.788 943.154 174.788C913.97 175.142 522.826 174.945 493.128 174.945Z" fill="url(#paint0_linear_79_6337)"/>
<path fill-rule="evenodd" clip-rule="evenodd" d="M939.199 165.437C941.136 160.218 945.05 156.185 950.229 154.129C951.218 135.863 951.534 103.509 951.811 85.2432C952.009 72.0774 952.167 58.9511 952.206 45.7854C952.206 37.8385 952.246 29.8125 952.088 21.826C946.434 19.0585 942.678 13.9187 941.294 7.82999C923.384 7.55324 156.645 7.59277 138.695 7.59277C127.624 7.59277 116.554 7.59277 105.484 7.59277C94.4135 7.59277 83.3432 7.59277 72.2729 7.59277C54.3627 7.59277 36.3734 7.55324 18.4237 7.82999C17.0794 13.9582 13.3234 19.098 7.63014 21.826C7.43246 29.8125 7.47199 37.8385 7.51153 45.7854C7.51153 58.9511 7.66968 72.0774 7.9069 85.2432C8.22319 103.509 8.49995 135.863 9.48837 154.129C14.7072 156.185 18.5818 160.218 20.5192 165.437C48.8275 165.753 77.1359 165.555 105.444 165.555C133.753 165.555 910.811 165.753 939.119 165.437H939.199Z" fill="url(#paint1_linear_79_6337)"/>
<path style="mix-blend-mode:screen" fill-rule="evenodd" clip-rule="evenodd" d="M19.0067 8.46232C17.5452 14.3928 13.8321 19.414 8.34162 22.2211C8.18362 30.0494 8.18362 37.9173 8.22312 45.7456C8.22312 58.9113 8.38112 72.0376 8.61812 85.2033C8.93412 103.39 9.01237 136.228 9.99988 154.375C15.0559 156.471 19.0462 160.914 21.0607 165.975C49.1848 166.291 77.3089 166.093 105.433 166.093C133.557 166.093 910.985 166.251 939.109 165.975C941.124 160.914 944.916 156.96 949.972 154.865C950.959 136.678 951.236 103.39 951.552 85.2033C951.749 72.0376 951.907 58.9113 951.947 45.7456C951.947 37.9173 951.986 30.0494 951.828 22.2211C946.338 19.414 942.625 14.3928 941.163 8.46232C923.428 8.18556 156.349 8.2251 138.613 8.2251C127.553 8.2251 116.493 8.2251 105.433 8.2251C94.373 8.2251 83.3129 8.2251 72.2529 8.2251C54.5173 8.2251 36.7422 8.18556 19.0067 8.46232Z" fill="url(#paint2_linear_79_6337)"/>
<path style="mix-blend-mode:screen" opacity="0.5" fill-rule="evenodd" clip-rule="evenodd" d="M19.0167 8.46232C17.5538 14.3928 13.8374 19.414 8.34175 22.2211C8.1836 30.0494 8.1836 37.9173 8.22314 45.7456C8.22314 51.597 8.26267 57.4485 8.34175 63.2999C8.53943 86.3895 952.468 86.3895 952.705 63.2999C952.744 57.4485 952.784 51.597 952.823 45.7456C952.823 37.9173 952.863 30.0494 952.705 22.2211C947.209 19.414 943.493 14.3928 942.03 8.46232C924.278 8.18556 156.486 8.2251 138.734 8.2251C127.664 8.2251 116.594 8.2251 105.523 8.2251C94.453 8.2251 83.3827 8.2251 72.3124 8.2251C54.5603 8.2251 36.7687 8.18556 19.0167 8.46232Z" fill="url(#paint3_linear_79_6337)"/>
<path d="M943.627 151.254H18.1234C16.3838 151.254 15 149.831 15 148.13V29.3734C15 27.6338 16.4233 26.25 18.1234 26.25H943.627C945.367 26.25 946.751 27.6733 946.751 29.3734V148.091C946.751 149.831 945.328 151.214 943.627 151.214V151.254Z" fill="url(#paint4_radial_79_6337)"/>
<path d="M943.627 152.504H18.1234C16.3838 152.504 15 151.081 15 149.38V29.3734C15 27.6338 16.4233 26.25 18.1234 26.25H943.627C945.367 26.25 946.751 27.6733 946.751 29.3734V149.341C946.751 151.081 945.328 152.464 943.627 152.464V152.504ZM18.1234 28.0292C17.3722 28.0292 16.7792 28.6222 16.7792 29.3734V149.341C16.7792 150.092 17.3722 150.685 18.1234 150.685H943.627C944.379 150.685 944.972 150.092 944.972 149.341V29.3734C944.972 28.6222 944.379 28.0292 943.627 28.0292H18.1234Z" fill="url(#paint5_linear_79_6337)"/>
<defs>
<linearGradient id="paint0_linear_79_6337" x1="105.408" y1="174.982" x2="105.408" y2="0.00154359" gradientUnits="userSpaceOnUse">
<stop stop-color="#266EE0"/>
<stop offset="0.4" stop-color="#3A9EED"/>
<stop offset="1" stop-color="#AEDDFF"/>
</linearGradient>
<linearGradient id="paint1_linear_79_6337" x1="105.523" y1="140.595" x2="105.523" y2="7.55323" gradientUnits="userSpaceOnUse">
<stop stop-color="#266EE0"/>
<stop offset="0.4" stop-color="#3A9EED"/>
<stop offset="1" stop-color="#AEDDFF"/>
</linearGradient>
<linearGradient id="paint2_linear_79_6337" x1="105.433" y1="139.962" x2="105.433" y2="8.22509" gradientUnits="userSpaceOnUse">
<stop offset="0.02" stop-color="#131932"/>
<stop offset="1" stop-color="#0F4B94"/>
</linearGradient>
<linearGradient id="paint3_linear_79_6337" x1="105.523" y1="80.6566" x2="105.523" y2="8.2251" gradientUnits="userSpaceOnUse">
<stop offset="0.02" stop-color="#150000"/>
<stop offset="0.98" stop-color="#0D64C5"/>
</linearGradient>
<radialGradient id="paint4_radial_79_6337" cx="0" cy="0" r="1" gradientUnits="userSpaceOnUse" gradientTransform="translate(104.946 183.713) scale(147.354 181.917)">
<stop stop-color="#0087F0"/>
<stop offset="1" stop-color="#0058C2"/>
</radialGradient>
<linearGradient id="paint5_linear_79_6337" x1="105.895" y1="152.504" x2="105.895" y2="26.25" gradientUnits="userSpaceOnUse">
<stop stop-color="#3BB0FF"/>
<stop offset="1" stop-color="#A8DCFF"/>
</linearGradient>
</defs>
</svg>
