<svg width="252" height="648" viewBox="0 0 252 648" fill="none" xmlns="http://www.w3.org/2000/svg">
<path fill-rule="evenodd" clip-rule="evenodd" d="M87.4674 79.4416C-50.4481 137.545 2.09745 563.955 92.0387 581.635C181.98 599.33 236.456 392.506 224.525 265.412C212.593 138.318 147.043 54.3287 87.4674 79.4416Z" fill="#77BDFF"/>
<path d="M171.088 245.136C171.088 245.136 178.822 281.751 181.907 292.838C184.991 303.925 189.641 313.47 190.155 314.498C190.669 315.526 188.344 319.393 188.344 319.393L190.222 349.034L168.808 321.629C168.808 321.629 170.037 314.99 173.904 311.905C173.904 311.905 165.812 286.646 156.983 271.178C148.131 255.709 149.673 247.975 149.673 247.975C149.673 247.975 162.303 238.184 171.065 245.136H171.088Z" fill="url(#paint0_linear_231_45551)"/>
<path d="M184.769 402.432C184.769 402.432 195.562 410.93 181.39 414.797C167.218 418.664 168.828 406.467 168.828 406.467L138.383 359.45L168.828 321.651L190.063 346.351C190.063 346.351 193.64 350.151 193.26 352.409C192.88 354.667 190.242 359.316 190.242 359.316C190.242 359.316 189.929 370.783 190.242 375.388C190.555 379.993 186.603 387.758 186.603 387.758L184.769 402.432Z" fill="#17186E"/>
<g style="mix-blend-mode:multiply">
<path d="M167.777 324.177C167.777 324.177 177.166 342.261 182.799 361.037C182.799 361.037 170.929 336.114 167.777 335.242C164.626 334.37 190.913 377.199 190.913 377.199C190.913 377.199 172.136 353.683 168.291 354.846C164.447 356.008 146.251 373.376 146.251 373.376L145.469 370.046L141.445 357.371C145.514 350.598 158.702 340.249 158.702 340.249L167.777 324.199V324.177Z" fill="#EA8BC2"/>
</g>
<path fill-rule="evenodd" clip-rule="evenodd" d="M201.47 610.839C201.47 610.839 200.862 611.075 199.781 611.514C193.194 614.116 168.836 624.217 155.83 635.466V630.264L152.013 629.824C152.013 629.824 152.452 615.365 149.074 608.609L154.512 595.94C154.512 595.94 138.905 558.239 144.682 515.876L158.904 489.796L156.539 486.755L158.904 481.688C158.904 481.688 143.668 405.779 131.135 380.036L123.331 382.3C123.331 382.3 110.122 443.412 83.7043 487.431L72.1844 500.64C72.1844 500.64 55.935 548.071 49.4825 596.177L54.2121 601.92L49.4825 609.386V614.116C49.4825 614.116 28.4698 612.089 4.75443 626.649C4.75443 626.649 -0.110253 616.379 0.700528 614.893C1.47753 613.44 11.3083 603.271 11.3083 602.157C11.3083 601.616 10.4637 600.771 9.55156 599.859C8.5043 598.846 7.38948 597.765 7.35569 596.954C7.25434 595.501 1.81535 527.632 27.5914 490.877C27.5914 490.877 41.1382 480.303 45.6651 473.073L46.4421 468.276L48.8069 465.067L74.887 368.516L72.8601 364.462L75.5965 345.071L76.5424 338.551L76.6099 338.044C76.6099 338.044 81.1368 338.382 88.4338 339.058C100.967 340.24 121.608 342.504 141.135 346.017H141.236C155.256 348.551 152.863 326.244 162.389 330.163C162.389 330.163 182.822 367.672 186.944 390.982C190.727 412.434 194.106 443.412 193.16 483.343L186.234 498.985C186.234 498.985 186.234 498.985 186.234 499.052L185.829 499.998C185.829 499.998 185.829 500.505 185.829 501.485C185.93 510.876 186.741 561.989 193.329 588.069C193.329 588.069 200.592 590.333 201.504 591.684L201.605 591.954C202.315 594.623 201.504 610.872 201.504 610.872L201.47 610.839Z" fill="url(#paint1_linear_231_45551)"/>
<path fill-rule="evenodd" clip-rule="evenodd" d="M155.867 635.467L153.164 646.986H251.066C251.066 646.986 252.586 640.027 247.688 631.582C247.688 631.582 228.803 635.095 199.885 611.481C199.885 611.481 169.447 620.906 155.9 635.467H155.867Z" fill="url(#paint2_radial_231_45551)"/>
<path fill-rule="evenodd" clip-rule="evenodd" d="M46.4408 614.048C46.4408 614.048 49.6501 622.798 62.3523 633.102V648H4.41526C4.41526 648 3.40179 639.622 6.94895 625.332C6.94895 625.332 21.3403 613.913 46.407 614.015L46.4408 614.048Z" fill="url(#paint3_radial_231_45551)"/>
<path fill-rule="evenodd" clip-rule="evenodd" d="M230.627 629.251C230.627 629.251 223.162 632.764 221.81 641.581L155.056 638.879L153.164 646.986H251.066C251.066 646.986 253.329 639.318 247.688 631.582C247.688 631.582 237.181 631.751 230.627 629.251Z" fill="url(#paint4_linear_231_45551)"/>
<path fill-rule="evenodd" clip-rule="evenodd" d="M59.8853 631.007C59.8853 631.007 42.0144 618.17 8.13046 638.102L4.9549 635.467C4.9549 635.467 3.26578 642.797 4.3806 648H62.3177V633.102L59.8516 631.007H59.8853Z" fill="url(#paint5_linear_231_45551)"/>
<g style="mix-blend-mode:multiply" opacity="0.6">
<path fill-rule="evenodd" clip-rule="evenodd" d="M15.1628 612.717C23.068 608.866 54.2155 605.589 54.2155 605.589L49.4859 613.055V617.785C49.4859 617.785 28.4732 615.758 4.75781 630.318C11.7508 619.035 37.9661 612.717 37.9661 612.717H15.1628Z" fill="#3C2E92"/>
</g>
<g style="mix-blend-mode:multiply" opacity="0.5">
<path fill-rule="evenodd" clip-rule="evenodd" d="M172.622 573.306C170.764 577.867 154.515 595.941 154.515 595.941C154.515 595.941 138.907 558.239 144.684 515.876L158.906 489.796L156.541 486.755L158.906 481.688C158.906 481.688 143.67 405.779 131.137 380.036L123.333 382.3C123.333 382.3 110.124 443.412 83.7063 487.431L72.1865 500.64C72.1865 500.64 55.9371 548.071 49.4846 596.177L44.755 595.164L47.1198 555.537L32.3906 595.164C32.3906 595.164 33.2352 576.178 41.039 551.821C48.8427 527.463 64.9232 497.937 64.9232 497.937L61.7139 491.485L59.518 479.796L64.7881 491.485H69.8555L81.7132 481.316C104.077 442.027 113.84 386.354 113.84 386.354C101.307 375.543 83.4023 379.699 83.4023 379.699L62.7274 429.156L74.9229 385.442V368.483L72.8959 364.429L76.5444 338.518L141.17 345.984H141.272C155.292 348.517 153.965 328.445 163.492 332.364C163.492 332.364 182.858 367.638 186.98 390.948L169.446 406.758C168.129 434.46 184.682 486.722 184.682 486.722L188.061 488.073L193.162 483.31L186.236 498.951C186.236 498.951 186.236 498.951 186.236 499.019C186.236 499.221 186.067 500.066 185.831 501.451C183.736 513.917 174.345 569.219 172.656 573.306H172.622Z" fill="#3C2E92"/>
</g>
<g style="mix-blend-mode:multiply" opacity="0.6">
<path fill-rule="evenodd" clip-rule="evenodd" d="M199.846 611.481H199.778C193.19 614.116 168.833 624.217 155.827 635.467V630.264L152.009 629.825C152.009 629.825 152.449 615.366 149.07 608.609L154.509 595.941L151.57 603.846C151.57 603.846 180.049 596.853 179.339 600.468C178.664 604.083 157.651 620.805 157.651 620.805L161.063 622.156C178.9 612.224 199.879 611.481 199.879 611.481H199.846Z" fill="#3C2E92"/>
</g>
<g style="mix-blend-mode:multiply" opacity="0.6">
<path fill-rule="evenodd" clip-rule="evenodd" d="M201.468 610.84C201.468 610.84 200.859 611.076 199.778 611.515C193.191 614.116 168.834 624.217 155.827 635.467V630.265L152.01 629.825C152.01 629.825 152.449 615.366 149.071 608.61L154.51 595.941C154.51 595.941 138.902 558.24 144.679 515.877L158.902 489.797L156.537 486.756L158.902 481.689C158.902 481.689 143.666 405.779 131.132 380.037L123.328 382.301L128.092 373.281L75.5938 345.072L88.4311 339.059C100.964 340.241 121.606 342.505 141.132 346.018H141.233C155.253 348.552 148.824 317.807 158.351 321.725C158.351 321.725 182.684 366.848 186.941 390.983C190.725 412.435 194.103 443.413 193.157 483.344L186.232 498.986C186.232 498.986 186.232 498.986 186.232 499.053L185.826 499.999C185.826 499.999 185.826 500.506 185.826 501.485C185.928 510.877 186.738 561.99 193.326 588.07L169.442 596.212C169.442 596.212 194.306 595.468 201.535 591.685L201.636 591.955C202.346 594.624 201.535 610.873 201.535 610.873L201.468 610.84Z" fill="#3C2E92"/>
</g>
<g style="mix-blend-mode:multiply" opacity="0.6">
<path fill-rule="evenodd" clip-rule="evenodd" d="M7.35938 596.954C7.35938 596.954 24.0817 594.691 29.4869 595.941L11.3119 602.157L7.35938 596.954Z" fill="#3C2E92"/>
</g>
<path style="mix-blend-mode:multiply" opacity="0.5" fill-rule="evenodd" clip-rule="evenodd" d="M62.359 633.102L8.17174 638.102L4.99618 635.467L4.42188 648H62.359V633.102Z" fill="url(#paint6_linear_231_45551)"/>
<path style="mix-blend-mode:multiply" opacity="0.5" fill-rule="evenodd" clip-rule="evenodd" d="M240.56 646.986V640.568L221.81 641.581L155.056 638.879L153.164 646.986H240.56Z" fill="url(#paint7_linear_231_45551)"/>
<g style="mix-blend-mode:soft-light">
<path fill-rule="evenodd" clip-rule="evenodd" d="M62.6868 429.156C62.6868 429.156 54.0722 465.236 56.7748 472.533L64.7475 491.485H69.8149L81.6726 481.317C81.6726 481.317 107.651 431.96 113.8 386.354C113.8 386.354 101.334 375.307 83.3617 379.699L62.6868 429.156Z" fill="#8190BB"/>
</g>
<g style="mix-blend-mode:soft-light">
<path fill-rule="evenodd" clip-rule="evenodd" d="M15.1641 609.049C15.1641 609.049 28.5757 596.313 32.3932 595.164C36.2106 594.015 49.5209 596.177 49.5209 596.177L54.2505 601.92C54.2505 601.92 33.6769 603.576 15.1978 609.049H15.1641Z" fill="#A3AECD"/>
</g>
<g style="mix-blend-mode:soft-light">
<path fill-rule="evenodd" clip-rule="evenodd" d="M193.298 588.036L169.414 596.177C169.414 596.177 193.805 595.671 201.507 591.65C201.507 591.65 199.176 589.184 193.332 588.036H193.298Z" fill="#A3AECD"/>
</g>
<g style="mix-blend-mode:multiply" opacity="0.6">
<path fill-rule="evenodd" clip-rule="evenodd" d="M163.94 647.054C163.94 647.054 173.872 634.183 185.426 633.102C196.979 632.02 221.134 646.986 221.134 646.986L163.906 647.054H163.94Z" fill="#6A4AB3"/>
</g>
<g style="mix-blend-mode:multiply" opacity="0.5">
<path fill-rule="evenodd" clip-rule="evenodd" d="M14.0419 526.822C14.0419 526.822 6.20434 558.138 12.319 574.658C17.6904 589.218 25.1901 593.103 25.1901 593.103C25.1901 593.103 12.8595 593.61 10.765 590.13C8.67047 586.65 4.68412 556.111 14.0757 526.822H14.0419Z" fill="#3C2E92"/>
</g>
<path d="M110.249 97.203L108.684 110.458C107.12 110.704 105.644 110.771 104.325 110.727C98.6254 110.593 95.1607 108.469 95.1607 108.469C98.1784 112.224 103.7 111.509 103.7 111.509C103.7 111.509 93.6407 118.17 88.4548 110.883C83.2912 103.574 81.257 89.7817 81.257 89.7817C78.1052 101.875 65.2969 102.881 65.2969 102.881C79.5582 94.9006 83.3135 81.5781 83.3135 81.5781L104.258 85.0429L110.271 97.1806L110.249 97.203Z" fill="url(#paint8_linear_231_45551)"/>
<g style="mix-blend-mode:multiply">
<path d="M104.306 110.727C98.6058 110.593 95.1411 108.469 95.1411 108.469C98.1588 112.224 103.68 111.509 103.68 111.509C103.68 111.509 91.7211 115.644 89.374 108.894C87.0269 102.188 87.8763 90.5417 87.8763 90.5417L100.908 89.4241C106.318 94.4982 111.325 99.7959 106.608 110.682L104.306 110.727Z" fill="#CE8BC2"/>
</g>
<path d="M105.244 121.255C105.244 121.255 79.7391 126.866 59.6213 128.989C39.5034 131.113 32.1716 126.866 32.1716 126.866C32.1716 126.866 11.6738 155.679 14.1773 201.704H17.8432C17.8432 201.704 16.0997 227.432 15.5185 247.729L12.2326 249.853C12.2326 249.853 8.36549 264.159 7.20312 277.123L9.1255 278.085C9.1255 278.085 12.4114 299.946 20.1456 318.119C20.1456 318.119 64.8072 320.444 89.5745 318.119C114.319 315.794 120.69 314.252 120.69 314.252L105.222 121.277L105.244 121.255Z" fill="url(#paint9_linear_231_45551)"/>
<path d="M47.5703 319.013C47.5703 319.013 50.3868 185.52 63.1728 158.361L102.47 155.321L100.436 298.001L81.4801 318.119L47.5703 319.036V319.013Z" fill="#CC2C36"/>
<path d="M32.1708 126.865C32.1708 126.865 60.8499 137.439 68.7182 144.167L108.35 127.737L108.932 119.981C108.932 119.981 92.3008 124.116 71.1547 127.201C50.0086 130.286 32.1484 126.888 32.1484 126.888L32.1708 126.865Z" fill="url(#paint10_linear_231_45551)"/>
<path d="M160.251 158.003C160.251 158.003 165.146 170.119 167.717 183.777C170.287 197.434 178.223 241.023 178.223 241.023L157.39 242.834C157.39 242.834 155.333 171.929 160.228 158.003H160.251Z" fill="url(#paint11_linear_231_45551)"/>
<path d="M107.81 92.9783C107.81 92.9783 104.926 116.628 104.3 121.769C103.652 126.933 95.6719 131.314 95.6719 131.314C95.6719 131.314 103.786 152.84 119.903 155.299C136.019 157.758 135.751 138.154 135.751 138.154C135.751 138.154 128.397 130.04 128.151 128.095C127.905 126.15 128.285 120.361 128.285 120.361C128.285 120.361 115.209 107.888 107.81 92.9783Z" fill="url(#paint12_linear_231_45551)"/>
<path d="M171.582 313.47C162.551 344.653 140.645 362.96 113.575 370.448C86.5055 377.936 68.3969 375.098 68.3969 373.555C68.3969 372.013 72.264 369.934 72.264 369.934C72.264 369.934 73.876 347.246 75.9324 332.023C77.9889 316.823 87.2878 285.238 84.5608 266.282C81.856 247.349 45.3086 163.234 52.2605 155.5C59.2123 147.788 90.9314 132.454 90.9314 132.454C90.9314 132.454 91.5126 127.827 92.8538 127.715C94.2173 127.603 97.3915 130.196 97.3915 130.196C97.3915 130.196 112.659 156.417 125.288 152.952C137.918 149.465 132.553 134.466 132.553 134.466C133.313 132.387 133.939 131.56 134.453 131.515C134.565 131.471 134.677 131.515 134.788 131.582C135.995 132.275 136.465 136.969 136.465 136.969C137.046 137.439 137.65 137.931 138.253 138.467C147.217 145.911 160.182 158.004 160.182 158.004C159.399 165.47 156.829 231.724 158.661 250.032C160.45 268.339 163.289 304.059 163.289 304.059C163.289 304.059 166.239 302.003 167.402 302.897C168.564 303.791 168.184 311.145 168.184 311.145C168.184 311.145 169.86 307.412 171.537 307.412C173.213 307.412 171.537 313.47 171.537 313.47H171.582Z" fill="url(#paint13_linear_231_45551)"/>
<g style="mix-blend-mode:multiply">
<path d="M160.505 183.508L145.305 188.94L148.188 234.138H160.035L160.505 183.508Z" fill="#E89FC0"/>
</g>
<path style="mix-blend-mode:multiply" opacity="0.5" d="M93.625 144.592C93.625 144.592 108.825 162.362 117.901 166.744C126.976 171.125 152.347 174.634 152.347 174.634C152.347 174.634 130.932 174.388 117.901 171.013C104.869 167.638 94.6309 156.238 94.6309 156.238L93.625 144.592Z" fill="url(#paint14_linear_231_45551)"/>
<path style="mix-blend-mode:multiply" opacity="0.5" d="M86.5272 246.991C86.5272 246.991 94.0378 227.365 96.7426 223.722C99.4473 220.078 120.705 204.476 120.705 204.476C120.705 204.476 97.1896 214.713 93.3225 218.58C89.4554 222.448 84.6719 246.812 84.6719 246.812L86.5272 246.969V246.991Z" fill="url(#paint15_linear_231_45551)"/>
<g style="mix-blend-mode:multiply">
<path d="M76.7422 327.083C76.7422 327.083 90.2882 307.658 91.6741 307.278C93.0823 306.898 89.4388 300.572 91.0706 298.515C92.7023 296.459 92.5012 299.342 96.3683 297.621C100.235 295.878 131.999 273.256 140.382 271.133C148.764 269.009 161.058 276.52 161.058 276.52L159.985 250.054L147.088 246.656L84.6776 273.905C84.6776 273.905 84.8787 283.583 82.2858 294.916C79.6928 306.25 76.7422 327.105 76.7422 327.105V327.083Z" fill="#B2B3E8"/>
</g>
<path d="M140.211 140.054L141.753 138.087C141.753 138.087 151.678 146.604 158.451 147.364C158.451 147.364 175.462 179.53 158.451 209.64C158.451 209.64 163.928 168.644 142.782 143.497L140.211 140.054Z" fill="url(#paint16_linear_231_45551)"/>
<g style="mix-blend-mode:multiply">
<path d="M48.9339 285.037C48.9339 285.037 48.0844 303.657 47.5703 319.013L78.4624 318.387C78.4624 318.387 83.8271 294.514 84.6766 284.075C85.526 273.636 83.693 266.483 83.693 266.483L71.8011 276.162C71.8011 276.162 58.0316 278.845 48.9339 285.059V285.037Z" fill="#D98BA1"/>
</g>
<g style="mix-blend-mode:multiply">
<path d="M7.22656 277.101H34.8104L39.5939 253.653H45.7634L44.8693 318.969L39.3257 318.834L39.0575 268.473L37.7833 278.666L9.14893 278.085L7.22656 277.101Z" fill="#D98BA1"/>
</g>
<g style="mix-blend-mode:multiply">
<path d="M141.753 138.087C141.753 138.087 151.142 148.392 156.976 158.004C162.832 167.616 160.485 193.389 160.485 193.389L158.608 195.691C158.608 195.691 156.305 174.813 152.349 162.251C148.392 149.688 140.211 140.054 140.211 140.054L141.753 138.087Z" fill="#EA8BC2"/>
</g>
<path d="M163.258 172.175C163.258 172.175 171.931 169.202 177.698 172.823C177.698 172.823 170.813 174.5 163.258 172.175Z" fill="#A21642"/>
<path d="M164.664 175.729V172.399C164.664 172.399 172.465 170.856 176.422 172.399V175.729C176.422 175.729 170.074 174.746 164.664 175.729Z" fill="url(#paint17_linear_231_45551)"/>
<path d="M163.257 172.175L162.766 166.833C162.766 166.833 170.477 164.195 178.659 167.056L177.698 172.846C177.698 172.846 173.786 169.873 163.257 172.198V172.175Z" fill="url(#paint18_linear_231_45551)"/>
<path d="M155.99 217.552L155.141 179.686C155.141 179.686 170.81 168.331 184.334 179.686L180.556 264.717C180.556 264.717 165.96 266.461 156.191 264.337L155.968 217.552H155.99Z" fill="url(#paint19_linear_231_45551)"/>
<path style="mix-blend-mode:multiply" opacity="0.3" d="M158.259 261.252C158.259 261.252 173.347 262.415 178.667 260.47L182.042 186.593L156.984 185.811L158.259 261.23V261.252Z" fill="url(#paint20_linear_231_45551)"/>
<path d="M70.9283 277.884C62.0094 291.832 47.5469 299.566 47.5469 299.566V285.126C47.5469 285.126 66.8153 270.708 79.2437 246.231C83.3343 238.162 86.6425 229.02 88.319 218.938C95.025 178.211 73.8565 142.043 73.8565 142.043L70.9283 142.938L71.9789 136.366C71.9789 136.366 82.1943 135.986 86.5308 132.968C86.5308 132.968 99.8086 148.928 102.156 175.998C104.48 203.068 79.8248 263.958 70.9283 277.884Z" fill="url(#paint21_linear_231_45551)"/>
<g style="mix-blend-mode:multiply">
<path d="M43.171 201.704L26.4955 246.992L20.5049 249.786L17.8672 277.124L23.8578 278.398L39.2368 298.538L47.5969 319.036L48.2004 299.007C48.2004 299.007 63.4006 291.027 70.9783 277.884L43.2157 201.704H43.171Z" fill="#D98BA1"/>
</g>
<path d="M37.7812 253.653C37.7812 253.653 66.9074 259.844 86.377 234.451C86.377 234.451 68.338 230.204 37.7812 253.653Z" fill="url(#paint22_linear_231_45551)"/>
<path d="M186.39 224.124L183.887 224.415C183.887 224.415 186.591 229.936 186.39 231.97C186.189 233.982 184.937 235.055 184.937 235.435C184.937 235.815 185.899 239.302 185.72 241.425C185.519 243.549 184.177 246.231 184.446 247.483C184.736 248.78 182.814 253.295 182.21 254.077C181.629 254.86 164.127 254.86 158.538 254.86C157.711 254.86 156.817 254.793 155.878 254.726C150.558 254.189 144.031 252.401 141.326 252.066C138.13 251.686 107.774 268.987 81.8445 275.358C55.9372 281.751 50.5278 280.409 48.9854 279.426C47.443 278.465 45.3865 269.881 43.5759 263.197C41.4971 255.642 41.5865 248.511 41.5865 248.511C41.5865 248.511 60.0055 238.833 71.7856 237.491V246.187C71.7856 246.187 77.4633 246.053 90.0929 247.327C102.722 248.623 130.82 242.543 133.659 239.056C136.498 235.591 144.366 219.206 147.071 218.044C149.776 216.882 155.968 212.098 155.968 212.098V217.53C155.968 217.53 183.686 215.719 184.848 215.585C186.01 215.451 193.432 217.999 193.99 219.072C194.572 220.123 193.61 221.486 192.94 222.448C192.269 223.431 186.368 224.102 186.368 224.102L186.39 224.124Z" fill="url(#paint23_linear_231_45551)"/>
<path d="M52.2885 155.5C52.2885 155.5 50.1649 159.278 46.0296 182.234C41.8942 205.191 37.7812 253.653 37.7812 253.653C37.7812 253.653 61.2521 236.128 86.377 234.451C86.377 234.451 83.9182 224.012 86.377 200.296C88.8359 176.579 63.6886 153.019 52.2885 155.522V155.5Z" fill="url(#paint24_linear_231_45551)"/>
<g style="mix-blend-mode:multiply">
<path d="M93.6181 198.083C93.7076 222.94 82.2851 246.634 82.2851 246.634L79.2674 246.187C83.358 238.117 86.6663 228.975 88.3428 218.894C95.0487 178.166 71.7568 142.647 71.7568 142.647L70.9297 142.893L71.9803 136.321C71.9803 136.321 93.5287 173.204 93.5958 198.06L93.6181 198.083Z" fill="#EA8BC2"/>
</g>
<path d="M63.177 147.453C63.177 147.453 55.577 137.103 34.6991 135.561C34.6991 135.561 18.0684 155.277 17.8672 201.704C17.8672 201.704 22.8966 168.554 33.5368 150.068C33.5368 150.068 44.758 141.842 45.518 144.167C46.3004 146.492 45.3839 152.84 47.5745 152.84C49.7651 152.84 52.2687 155.5 52.2687 155.5L63.1547 147.453H63.177Z" fill="#CC4236"/>
<path style="mix-blend-mode:multiply" opacity="0.5" d="M124.401 161.468C108.329 161.468 90.9609 132.454 90.9609 132.454C90.9609 132.454 91.5421 127.827 92.8833 127.715C94.2469 127.603 97.421 130.196 97.421 130.196C97.421 130.196 112.688 156.417 125.318 152.952C137.947 149.465 132.583 134.466 132.583 134.466C133.343 132.387 133.968 131.56 134.483 131.515C134.639 131.56 134.773 131.582 134.818 131.582C135.533 131.493 137.433 135.561 137.433 135.561C137.433 135.561 137.813 136.679 138.283 138.467C140.048 145.039 137.008 161.468 124.379 161.468H124.401Z" fill="url(#paint25_linear_231_45551)"/>
<path d="M37.7812 253.653V246.209C37.7812 246.209 63.6886 226.538 85.5499 227.589L86.377 234.451C86.377 234.451 58.9273 238.699 37.7812 253.653Z" fill="url(#paint26_linear_231_45551)"/>
<g style="mix-blend-mode:multiply">
<path d="M106.608 101.987C106.608 101.987 108.195 145.888 128.134 128.095L128.269 120.361C128.269 120.361 115.192 114.683 107.793 92.9783L106.586 101.987H106.608Z" fill="#E89FC0"/>
</g>
<g style="mix-blend-mode:multiply" opacity="0.8">
<path d="M132.582 134.488C132.582 134.488 133.23 147.028 127.016 152.393C127.016 152.393 138.684 148.101 132.582 134.488Z" fill="#9C92AD"/>
</g>
<path style="mix-blend-mode:multiply" opacity="0.5" d="M85.5454 227.589C85.5454 227.589 86.596 208.656 86.5513 196.876C86.5066 185.096 76.3359 163.815 76.3359 163.815C76.3359 163.815 89.949 176.378 90.9773 191.086C92.0055 205.772 85.5678 227.611 85.5678 227.611L85.5454 227.589Z" fill="url(#paint27_linear_231_45551)"/>
<path style="mix-blend-mode:multiply" opacity="0.5" d="M162.667 295.833C162.667 295.833 151.982 314.61 139.352 319.908C126.723 325.183 110.606 321.718 105.062 319.014C105.062 319.014 114.339 324.557 127.885 324.155C141.431 323.775 158.844 313.179 163.337 304.059L162.667 295.833Z" fill="url(#paint28_linear_231_45551)"/>
<path style="mix-blend-mode:multiply" opacity="0.5" d="M168.275 307.278C168.275 307.278 163.067 320.377 148.113 335.219C133.159 350.062 102.445 356.768 102.445 356.768C102.445 356.768 125.67 355.605 140.245 347.625C154.819 339.623 158.283 325.451 161.905 320.176C165.504 314.9 168.231 311.145 168.231 311.145L168.275 307.278Z" fill="url(#paint29_linear_231_45551)"/>
<path style="mix-blend-mode:multiply" opacity="0.5" d="M72.2734 369.934C72.2734 369.934 85.7773 374.695 103.146 371.476C120.492 368.257 129.701 361.037 129.701 361.037C129.701 361.037 97.689 373.019 72.2734 368.257V369.934Z" fill="url(#paint30_linear_231_45551)"/>
<path style="mix-blend-mode:multiply" d="M166.499 291.541L182.795 295.855C182.795 295.855 178.771 282.533 177.989 276.743C177.206 270.954 175.463 265.433 175.463 265.433L160.039 265.008L161.403 280.298L166.499 291.564V291.541Z" fill="url(#paint31_linear_231_45551)"/>
<path style="mix-blend-mode:multiply" d="M42.7683 259.688C42.7683 259.688 53.2519 239.794 71.8274 246.209V237.514C71.8274 237.514 54.4813 243.191 41.6953 251.06L42.7683 259.688Z" fill="url(#paint32_linear_231_45551)"/>
<path style="mix-blend-mode:multiply" opacity="0.3" d="M55.0625 158.003L56.1578 243.325L69.1673 238.408L55.0625 158.003Z" fill="url(#paint33_linear_231_45551)"/>
<path style="mix-blend-mode:multiply" opacity="0.5" d="M89.0859 298.516C89.0859 298.516 102.297 311.324 117.474 314.833C132.652 318.365 140.208 314.833 140.208 314.833C140.208 314.833 131.937 320.042 117.474 317.069C103.012 314.096 89.0859 298.516 89.0859 298.516Z" fill="url(#paint34_linear_231_45551)"/>
<path style="mix-blend-mode:multiply" opacity="0.5" d="M186.386 224.124L183.882 224.415C183.882 224.415 186.587 229.936 186.386 231.97C186.184 233.982 184.933 235.055 184.933 235.435C184.933 235.815 185.894 239.302 185.715 241.426C185.514 243.549 184.173 246.231 184.441 247.483C184.731 248.78 182.809 253.295 182.206 254.077C181.624 254.86 164.122 254.86 158.534 254.86C157.706 254.86 156.812 254.793 155.874 254.726L154.555 254.323C154.555 254.323 176.595 253.027 177.69 252.49C178.741 251.976 178.651 245.024 178.651 245.024C179.926 243.236 178.651 236.262 178.651 236.262C179.523 233.423 178.651 224.527 178.651 224.527L184.351 223.722C184.351 223.722 186.05 221.688 186.408 220.19C186.788 218.715 184.888 215.608 184.888 215.608C186.05 215.496 193.472 218.022 194.03 219.095C194.612 220.145 193.65 221.509 192.98 222.47C192.309 223.454 186.408 224.124 186.408 224.124H186.386Z" fill="url(#paint35_linear_231_45551)"/>
<path style="mix-blend-mode:multiply" opacity="0.5" d="M155.983 217.552L147.086 218.067L155.983 212.121V217.552Z" fill="url(#paint36_linear_231_45551)"/>
<path style="mix-blend-mode:multiply" opacity="0.5" d="M147.092 218.067C147.092 218.067 142.576 232.82 141.995 235.234C141.414 237.648 133.68 239.056 133.68 239.056C133.68 239.056 137.413 233.714 139.939 228.55C142.487 223.387 145.84 218.67 147.092 218.044V218.067Z" fill="url(#paint37_linear_231_45551)"/>
<path style="mix-blend-mode:multiply" opacity="0.5" d="M45.5135 144.167C45.5135 144.167 37.7793 151.588 35.4546 159.613C33.1299 167.66 28.5028 193.165 30.4252 195.691C32.3475 198.217 46.6759 159.412 46.4747 155.321C46.2735 151.231 45.5135 144.167 45.5135 144.167Z" fill="url(#paint38_linear_231_45551)"/>
<g style="mix-blend-mode:multiply">
<path d="M156.189 259.688L180.867 258.526L181.046 254.368L155.898 254.726L156.189 259.688Z" fill="#E89FC0"/>
</g>
<path style="mix-blend-mode:multiply" opacity="0.5" d="M49.0078 279.426C49.0078 279.426 56.9879 275.559 62.0844 274.285C67.1809 272.988 81.867 275.38 81.867 275.38C81.867 275.38 55.3338 283.047 49.0078 279.448V279.426Z" fill="url(#paint39_linear_231_45551)"/>
<g style="mix-blend-mode:soft-light">
<path d="M172.328 178.882L173.133 213.887H182.029L183.102 179.954C183.102 179.954 177.425 177.741 172.328 178.882Z" fill="white"/>
</g>
<path d="M164.737 42.7061C164.178 45.2991 159.037 63.1369 160.043 70.8041V70.9829C161.071 78.5606 161.898 84.0371 162.077 90.609C162.144 93.0008 160.691 97.7173 158.433 102.858C154.499 111.889 148.017 122.239 142.875 123.334C142.361 123.446 141.802 123.513 141.176 123.513C132.258 123.781 113.906 114.393 105.21 99.9749C104.115 98.1643 103.176 96.309 102.327 94.409C102.304 94.409 102.304 94.3643 102.304 94.3643C96.0231 80.0806 96.1348 63.6958 93.2513 52.6086C89.9654 40.0461 101.187 17.38 118.175 11.3447C135.141 5.30931 150.364 9.01993 150.364 9.01993C150.364 9.01993 159.931 33.4743 163.932 38.2802C163.932 38.2802 165.318 40.1132 164.737 42.7285V42.7061Z" fill="url(#paint40_linear_231_45551)"/>
<path d="M144.025 42.7954C144.025 42.7954 142.684 47.4896 140.695 49.5014C140.695 49.5014 134.279 49.5014 126.858 51.2002C119.437 52.899 116.844 54.9555 116.844 54.9555C116.844 54.9555 119.973 49.4119 125.137 46.819C130.3 44.2484 144.025 42.7954 144.025 42.7954Z" fill="url(#paint41_linear_231_45551)"/>
<path d="M98.8078 68.1213C98.8078 68.1213 91.543 59.8059 84.4794 60.32C77.4382 60.8118 75.3817 75.5425 80.8135 83.7908C86.2453 92.0391 96.5501 94.6768 97.9807 93.8274C99.389 92.978 102.205 86.7638 102.205 86.7638L98.8078 68.1213Z" fill="url(#paint42_linear_231_45551)"/>
<path d="M124.111 36.067C124.111 36.067 111.101 58.219 102.406 65.1708L101.735 73.0168C101.735 73.0168 96.7504 65.4391 91.7656 62.2649L92.3245 53.1001C92.3245 53.1001 110.967 40.1577 124.111 36.0447V36.067Z" fill="url(#paint43_linear_231_45551)"/>
<path d="M97.8906 67.6747L102.406 65.1711C102.406 65.1711 102.719 73.3748 104.574 77.0854L102.182 81.1984C102.182 81.1984 100.171 71.5641 97.8906 67.6747Z" fill="url(#paint44_linear_231_45551)"/>
<path d="M92.0538 57.5263C92.0538 57.5263 83.716 34.5025 84.0737 27.1036C84.4313 19.7047 108.26 3.0516 108.26 3.0516C108.26 3.0516 139.085 0.257454 146.841 3.96808C154.598 7.6787 163.36 32.6025 163.36 32.6025C163.36 32.6025 134.726 32.2672 118.833 38.839C102.917 45.4108 92.0538 57.5486 92.0538 57.5486V57.5263Z" fill="url(#paint45_linear_231_45551)"/>
<path d="M86.8516 41.4096C86.8516 41.4096 75.9656 37.5872 65.6832 41.0296C65.6832 41.0296 63.202 46.2379 67.8067 47.8026C67.8067 47.8026 80.0116 45.0308 88.9975 48.4732L86.8516 41.4096Z" fill="#A21642"/>
<path d="M104.392 5.86794C104.392 5.86794 103.074 1.39731 103.498 0.92789C103.901 0.458474 106.628 -0.234474 108.17 0.0784704C109.69 0.391415 111.076 2.55967 111.076 2.55967L108.282 3.05144L104.415 5.89029L104.392 5.86794Z" fill="#A21642"/>
<path d="M108.26 3.05158C108.26 3.05158 99.8996 13.2223 99.9219 17.6705C99.9443 22.1188 110.562 42.3708 110.562 42.3708C110.562 42.3708 133.34 27.3048 161.147 25.5836C161.147 25.5836 152.385 5.21983 146.484 3.05158C140.582 0.883321 119.436 0.860968 108.26 3.05158Z" fill="url(#paint46_linear_231_45551)"/>
<path d="M117.25 20.9116C117.25 20.9116 137.748 8.25967 152.68 11.635L157.709 20.5539C157.709 20.5539 141.682 20.3751 120.782 29.3164L117.25 20.9116Z" fill="#FF3748"/>
<path style="mix-blend-mode:multiply" opacity="0.5" d="M99.1434 79.6556C99.1434 79.6556 94.4046 70.6026 88.0116 69.8873C81.6186 69.172 79.0703 74.0674 79.0703 74.0674C79.0703 74.0674 81.1268 71.5191 86.5139 71.4297C86.5139 71.4297 86.1786 76.9956 86.961 81.8686C87.7433 86.7416 91.9457 88.731 93.5552 87.8369C95.1646 86.9651 90.6716 78.9403 92.3481 76.8615C94.0246 74.7827 99.1434 79.6556 99.1434 79.6556Z" fill="url(#paint47_linear_231_45551)"/>
<path style="mix-blend-mode:multiply" opacity="0.5" d="M119.953 67.8758C119.953 67.8758 122.591 74.5147 129.23 74.8723C135.869 75.23 134.55 66.2664 134.55 66.2664L119.953 67.8758Z" fill="url(#paint48_linear_231_45551)"/>
<path style="mix-blend-mode:multiply" opacity="0.5" d="M151.961 68.4568C151.961 68.4568 154.375 74.8945 157.482 74.9392C160.589 74.9839 159.919 68.725 159.919 68.725L151.961 68.4568Z" fill="url(#paint49_linear_231_45551)"/>
<path style="mix-blend-mode:multiply" opacity="0.5" d="M90.2449 70.491C90.2449 70.491 86.512 72.5251 86.579 78.5157C86.6461 84.5064 91.072 88.2841 92.972 87.5464C94.872 86.8088 90.5355 78.4487 92.3461 76.884C94.1567 75.3416 98.225 78.8734 98.225 78.8734C98.225 78.8734 95.0062 72.3463 90.2449 70.491Z" fill="url(#paint50_linear_231_45551)"/>
<path d="M153.055 51.9602C153.055 51.9602 154.463 47.7131 163.941 45.813C163.941 45.813 166.109 40.9177 165.081 37.7212C165.081 37.7212 157.235 40.0012 153.055 51.9602Z" fill="url(#paint51_linear_231_45551)"/>
<path style="mix-blend-mode:multiply" opacity="0.5" d="M119.344 66.5568C119.344 66.5568 122.026 57.0344 132.711 52.519L134.03 55.425L119.344 66.5568Z" fill="url(#paint52_linear_231_45551)"/>
<g style="mix-blend-mode:multiply">
<path d="M162.983 50.1718C162.983 50.1718 154.064 51.6024 138.864 53.1224C123.664 54.6424 108.688 44.0694 108.688 44.0694C108.688 44.0694 123.105 34.8822 133.924 31.3057C144.743 27.7292 158.937 31.2163 158.937 31.2163L163.945 38.2575C163.945 38.2575 167.23 35.8434 162.983 50.1494V50.1718Z" fill="#C98BC2"/>
</g>
<path style="mix-blend-mode:multiply" opacity="0.5" d="M151.714 67.607C151.714 67.607 151.289 57.2799 161.035 51.8257L160.677 55.6257L151.714 67.607Z" fill="url(#paint53_linear_231_45551)"/>
<path d="M151.716 66.8252C151.336 69.1276 154.89 73.0617 157.259 72.1005C159.651 71.1393 161.082 62.9804 160.679 55.6262C160.679 55.6262 153.593 55.5368 151.716 66.8252Z" fill="url(#paint54_linear_231_45551)"/>
<path d="M134.143 69.2615C132.064 73.4416 123.391 76.8169 119.367 66.5345C119.367 66.5345 123.458 57.1461 134.053 55.4026C134.053 55.4026 137.786 61.9297 134.165 69.2392L134.143 69.2615Z" fill="url(#paint55_linear_231_45551)"/>
<mask id="mask0_231_45551" style="mask-type:luminance" maskUnits="userSpaceOnUse" x="151" y="55" width="10" height="18">
<path d="M151.716 66.8252C151.336 69.1276 154.89 73.0617 157.259 72.1005C159.651 71.1393 161.082 62.9804 160.679 55.6262C160.679 55.6262 153.593 55.5368 151.716 66.8252Z" fill="white"/>
</mask>
<g mask="url(#mask0_231_45551)">
<path d="M156.943 68.3231C156.943 68.3231 154.708 60.7677 160.654 55.4253C160.654 55.4253 162.509 64.7466 160.654 67.3842C158.821 70.0219 156.921 68.3231 156.921 68.3231H156.943Z" fill="#AD7A90"/>
<g style="mix-blend-mode:multiply">
<path d="M158.336 68.8596C158.336 68.8596 156.436 61.8407 161.018 57.4595C161.018 57.4595 162.002 63.1595 161.353 65.7301C160.705 68.2784 159.006 68.9937 158.336 68.8596Z" fill="#AB8BC2"/>
</g>
</g>
<path d="M152.055 65.1041C152.055 65.1041 153.821 57.8393 160.638 56.4757L163.142 54.3745C163.142 54.3745 154.603 53.5475 152.055 65.1041Z" fill="#95344D"/>
<path d="M134.59 56.632L136.311 53.5696C136.311 53.5696 123.793 55.6484 119.367 66.5344C119.367 66.5344 123.391 59.359 134.612 56.6096L134.59 56.632Z" fill="#95344D"/>
<mask id="mask1_231_45551" style="mask-type:luminance" maskUnits="userSpaceOnUse" x="119" y="55" width="17" height="19">
<path d="M134.143 69.2615C132.064 73.4416 123.391 76.8169 119.367 66.5345C119.367 66.5345 123.458 57.1461 134.053 55.4026C134.053 55.4026 137.786 61.9297 134.165 69.2392L134.143 69.2615Z" fill="white"/>
</mask>
<g mask="url(#mask1_231_45551)">
<path d="M131.173 72.3462C131.173 72.3462 128.29 60.2978 135.219 58.0625C135.219 58.0625 139.287 68.5685 131.173 72.3462Z" fill="#AD7A90"/>
<g style="mix-blend-mode:multiply">
<path d="M135.718 59.4707C135.718 59.4707 130.622 62.846 133.014 71.2061C133.014 71.2061 137.484 67.9649 135.718 59.4707Z" fill="#AB8BC2"/>
</g>
</g>
<path d="M126.969 66.2437C126.969 66.2437 130.031 66.1096 130.746 68.3673C130.746 68.3673 128.511 69.0155 126.969 66.2437Z" fill="white"/>
<path d="M154.781 66.1098C154.781 66.1098 156.771 66.0427 157.24 67.5851C157.24 67.5851 155.877 67.7863 154.781 66.1098Z" fill="white"/>
<path style="mix-blend-mode:multiply" opacity="0.3" d="M156.274 80.5722C156.274 80.5722 151.423 77.5098 145.254 78.538C139.084 79.5439 143.443 72.2344 150.529 71.1838C150.529 71.1838 151.267 75.9451 156.274 80.5722Z" fill="url(#paint56_linear_231_45551)"/>
<path style="mix-blend-mode:multiply" opacity="0.5" d="M140.698 49.5012C140.698 49.5012 139.424 68.859 134.998 74.0003C130.572 79.1415 123.061 76.1015 118.144 70.6473C113.226 65.1931 116.847 54.933 116.847 54.933C116.847 54.933 125.766 48.5624 140.698 49.4789V49.5012Z" fill="url(#paint57_linear_231_45551)"/>
<path style="mix-blend-mode:multiply" opacity="0.5" d="M141.271 80.8406C141.271 80.8406 138.924 82.7406 137.963 85.0877C137.002 87.4124 139.349 89.4465 142.031 87.9936C144.714 86.5183 145.742 86.7418 145.429 87.8148C145.138 88.8877 146.726 90.0724 150.637 89.9607C154.549 89.8489 158.416 86.2947 157.254 82.5618C157.254 82.5618 159.489 89.1336 150.503 90.8548C141.54 92.576 140.042 88.7312 136.957 87.4795C133.872 86.2277 141.249 80.8406 141.249 80.8406H141.271Z" fill="url(#paint58_linear_231_45551)"/>
<path style="mix-blend-mode:multiply" opacity="0.5" d="M140.156 89.044C140.156 89.044 143.107 87.2558 144.448 87.4793C145.789 87.7028 144.85 89.3793 143.465 89.9605C142.079 90.5417 140.156 89.0664 140.156 89.0664V89.044Z" fill="url(#paint59_linear_231_45551)"/>
<path style="mix-blend-mode:multiply" opacity="0.5" d="M136.281 86.0712C136.281 86.0712 136.974 86.7641 142.272 86.4959C148.374 86.183 152.666 86.8312 157.181 85.6465C157.181 85.6465 154.208 96.8901 148.777 97.0913C141.646 97.3372 136.281 86.0712 136.281 86.0712Z" fill="url(#paint60_linear_231_45551)"/>
<g style="mix-blend-mode:multiply">
<path d="M130.258 92.3745C130.258 92.3745 137.031 97.7169 145.056 99.1475C148.811 99.8181 153.147 98.8569 154.466 97.6946C155.763 96.5322 157.506 94.9898 157.506 94.9898C157.506 94.9898 154.399 98.1193 153.818 98.8793C153.237 99.6393 149.399 106.131 145.912 105.975C142.402 105.818 136.137 97.5604 134.125 96.1522C132.113 94.7439 130.28 92.3745 130.28 92.3745H130.258Z" fill="#EA7F88"/>
</g>
<path style="mix-blend-mode:multiply" opacity="0.5" d="M133.014 90.05C133.014 90.05 130.063 92.5089 128.566 97.2254C128.566 97.2254 127.716 94.6548 128.208 92.3971C128.722 90.1171 133.014 90.05 133.014 90.05Z" fill="url(#paint61_linear_231_45551)"/>
<path d="M139.249 98.8781C139.249 98.8781 143.093 100.826 145.054 101.097C146.993 101.39 151.294 100.107 151.294 100.107C151.294 100.107 148.177 103.296 145.181 103.269C142.208 103.242 139.25 98.8557 139.25 98.8557L139.249 98.8781Z" fill="url(#paint62_linear_231_45551)"/>
<path d="M142.347 100.272L136.773 96.8062L139.705 99.4927L142.347 100.272Z" fill="#C22A57"/>
<path d="M150.931 100.455L153.845 98.2672L150.307 100.373L150.931 100.455Z" fill="#C22A57"/>
<path style="mix-blend-mode:multiply" opacity="0.5" d="M153.051 51.9602C153.051 51.9602 150.502 63.9191 150.972 69.7309C151.441 75.5428 160.785 76.6157 160.74 76.3028C160.695 75.9898 159.578 68.9709 160.137 64.5227C160.695 60.0967 163.937 45.8131 163.937 45.8131C163.937 45.8131 156.493 44.3601 153.051 51.9602Z" fill="url(#paint63_linear_231_45551)"/>
<path d="M110.656 42.8847C110.656 42.8847 134.708 44.4047 143.068 40.7165C151.428 37.0282 169.289 28.6681 180.488 27.6175C191.686 26.5669 195.419 34.0552 195.419 34.0552C195.419 34.0552 192.201 27.7516 180.935 25.7399C170.026 25.7846 160.057 25.561 160.057 25.561C160.057 25.561 128.181 27.8187 110.656 42.8847Z" fill="url(#paint64_linear_231_45551)"/>
<path d="M164.311 38.8613C164.311 38.8613 180.07 39.6437 194.532 37.006C194.532 37.006 189.927 28.2883 176.761 28.5789C163.573 28.8695 160.086 33.4519 160.086 33.4519L164.333 38.8613H164.311Z" fill="#A21642"/>
<path d="M195.394 34.0551L194.5 37.0281C194.5 37.0281 187.168 25.9185 169.688 30.2774C152.208 34.6363 150.621 40.694 141.367 43.8681C132.113 47.0646 108.664 44.0693 108.664 44.0693L110.542 42.3928C110.542 42.3928 130.548 43.4211 138.394 41.2081C146.24 38.9951 161.932 28.668 176.886 26.9915C191.84 25.315 195.394 34.0327 195.394 34.0327V34.0551Z" fill="url(#paint65_linear_231_45551)"/>
<path style="mix-blend-mode:multiply" opacity="0.5" d="M95.0057 64.5897C95.0057 64.5897 103.545 59.8061 107.032 51.0884C107.032 51.0884 100.214 59.3143 91.7422 62.265L94.9834 64.5673L95.0057 64.5897Z" fill="url(#paint66_linear_231_45551)"/>
<path style="mix-blend-mode:multiply" opacity="0.5" d="M149.104 4.95142C149.104 4.95142 115.753 8.23733 99.9043 17.6704C84.0559 27.1034 84.3912 31.0376 84.3912 31.0376C84.3912 31.0376 87.923 46.2601 92.036 57.526C92.036 57.526 104.196 47.0648 111.908 41.5212C119.62 35.9776 138.978 26.7681 161.13 25.5834C161.13 25.5834 154.513 9.46675 149.104 4.95142Z" fill="url(#paint67_linear_231_45551)"/>
<path style="mix-blend-mode:multiply" opacity="0.5" d="M142.536 111.129L148.728 108.827C148.728 108.827 146.671 108.827 141.731 106.703C136.791 104.579 142.536 111.129 142.536 111.129Z" fill="url(#paint68_linear_231_45551)"/>
<path style="mix-blend-mode:multiply" opacity="0.5" d="M141.17 123.535C132.251 123.803 113.899 114.415 105.204 99.9971C104.109 98.1865 103.17 96.3312 102.32 94.4312C102.924 95.2359 110.502 107.172 121.343 113.677C131.357 119.668 139.918 123.088 141.17 123.557V123.535Z" fill="url(#paint69_linear_231_45551)"/>
<defs>
<linearGradient id="paint0_linear_231_45551" x1="169.873" y1="348.788" x2="169.873" y2="242.426" gradientUnits="userSpaceOnUse">
<stop offset="0.02" stop-color="#FFA67F"/>
<stop offset="1" stop-color="#FF8B7C"/>
</linearGradient>
<linearGradient id="paint1_linear_231_45551" x1="101.237" y1="635.466" x2="101.237" y2="338.011" gradientUnits="userSpaceOnUse">
<stop offset="0.02" stop-color="#281D8B"/>
<stop offset="1" stop-color="#2B3698"/>
</linearGradient>
<radialGradient id="paint2_radial_231_45551" cx="0" cy="0" r="1" gradientUnits="userSpaceOnUse" gradientTransform="translate(165.258 618.71) scale(47.4645 47.4645)">
<stop stop-color="#B15C38"/>
<stop offset="1" stop-color="#8D423D"/>
</radialGradient>
<radialGradient id="paint3_radial_231_45551" cx="0" cy="0" r="1" gradientUnits="userSpaceOnUse" gradientTransform="translate(11.442 620.94) scale(30.2016 30.2016)">
<stop stop-color="#B15C38"/>
<stop offset="1" stop-color="#8D423D"/>
</radialGradient>
<linearGradient id="paint4_linear_231_45551" x1="202.318" y1="646.986" x2="202.318" y2="629.251" gradientUnits="userSpaceOnUse">
<stop stop-color="#E2E3F6"/>
<stop offset="1" stop-color="#F1E8FF"/>
</linearGradient>
<linearGradient id="paint5_linear_231_45551" x1="33.1971" y1="648" x2="33.1971" y2="626.953" gradientUnits="userSpaceOnUse">
<stop stop-color="#E2E3F6"/>
<stop offset="1" stop-color="#F1E8FF"/>
</linearGradient>
<linearGradient id="paint6_linear_231_45551" x1="4.42188" y1="640.568" x2="62.359" y2="640.568" gradientUnits="userSpaceOnUse">
<stop stop-color="#8E81F4"/>
<stop offset="0.99" stop-color="#832297"/>
</linearGradient>
<linearGradient id="paint7_linear_231_45551" x1="153.164" y1="642.933" x2="240.56" y2="642.933" gradientUnits="userSpaceOnUse">
<stop offset="0.01" stop-color="#832297"/>
<stop offset="1" stop-color="#8E81F4"/>
</linearGradient>
<linearGradient id="paint8_linear_231_45551" x1="90.4982" y1="115.308" x2="84.3293" y2="81.3958" gradientUnits="userSpaceOnUse">
<stop offset="0.02" stop-color="#E05215"/>
<stop offset="1" stop-color="#A73609"/>
</linearGradient>
<linearGradient id="paint9_linear_231_45551" x1="63.9801" y1="319.125" x2="63.9801" y2="121.255" gradientUnits="userSpaceOnUse">
<stop stop-color="#FF4C59"/>
<stop offset="1" stop-color="#FF813B"/>
</linearGradient>
<linearGradient id="paint10_linear_231_45551" x1="32.1708" y1="132.074" x2="108.932" y2="132.074" gradientUnits="userSpaceOnUse">
<stop stop-color="#FFB159"/>
<stop offset="1" stop-color="#FFA73B"/>
</linearGradient>
<linearGradient id="paint11_linear_231_45551" x1="167.605" y1="242.811" x2="167.605" y2="158.003" gradientUnits="userSpaceOnUse">
<stop stop-color="#006F63"/>
<stop offset="1" stop-color="#009993"/>
</linearGradient>
<linearGradient id="paint12_linear_231_45551" x1="115.685" y1="155.368" x2="115.685" y2="92.8512" gradientUnits="userSpaceOnUse">
<stop offset="0.02" stop-color="#FFA67F"/>
<stop offset="1" stop-color="#FF8B7C"/>
</linearGradient>
<linearGradient id="paint13_linear_231_45551" x1="111.845" y1="375.389" x2="111.845" y2="127.743" gradientUnits="userSpaceOnUse">
<stop offset="0.02" stop-color="#D7D1FD"/>
<stop offset="1" stop-color="white"/>
</linearGradient>
<linearGradient id="paint14_linear_231_45551" x1="93.625" y1="159.613" x2="152.347" y2="159.613" gradientUnits="userSpaceOnUse">
<stop stop-color="#6175B8"/>
<stop offset="1" stop-color="white"/>
</linearGradient>
<linearGradient id="paint15_linear_231_45551" x1="84.6719" y1="225.733" x2="120.705" y2="225.733" gradientUnits="userSpaceOnUse">
<stop stop-color="#6175B8"/>
<stop offset="1" stop-color="white"/>
</linearGradient>
<linearGradient id="paint16_linear_231_45551" x1="153.109" y1="209.617" x2="153.109" y2="138.087" gradientUnits="userSpaceOnUse">
<stop stop-color="#FF8459"/>
<stop offset="1" stop-color="#FB8836"/>
</linearGradient>
<linearGradient id="paint17_linear_231_45551" x1="170.565" y1="175.729" x2="170.565" y2="171.706" gradientUnits="userSpaceOnUse">
<stop stop-color="#B39AD1"/>
<stop offset="1" stop-color="#958EFF"/>
</linearGradient>
<linearGradient id="paint18_linear_231_45551" x1="170.701" y1="172.824" x2="170.701" y2="165.715" gradientUnits="userSpaceOnUse">
<stop stop-color="#FF273D"/>
<stop offset="1" stop-color="#FF3748"/>
</linearGradient>
<linearGradient id="paint19_linear_231_45551" x1="169.76" y1="265.41" x2="169.76" y2="174.634" gradientUnits="userSpaceOnUse">
<stop stop-color="#D0C7F8"/>
<stop offset="1" stop-color="#E1D6FF"/>
</linearGradient>
<linearGradient id="paint20_linear_231_45551" x1="169.524" y1="261.588" x2="169.524" y2="185.833" gradientUnits="userSpaceOnUse">
<stop stop-color="#8B8BE0"/>
<stop offset="1" stop-color="#A177B7"/>
</linearGradient>
<linearGradient id="paint21_linear_231_45551" x1="74.9519" y1="299.544" x2="74.9519" y2="132.946" gradientUnits="userSpaceOnUse">
<stop stop-color="#FF8459"/>
<stop offset="1" stop-color="#FB8836"/>
</linearGradient>
<linearGradient id="paint22_linear_231_45551" x1="62.1007" y1="254.318" x2="62.1007" y2="234.143" gradientUnits="userSpaceOnUse">
<stop offset="0.02" stop-color="#3B3195"/>
<stop offset="1" stop-color="#3D47BB"/>
</linearGradient>
<linearGradient id="paint23_linear_231_45551" x1="41.6089" y1="246.187" x2="194.214" y2="246.187" gradientUnits="userSpaceOnUse">
<stop offset="0.02" stop-color="#FFBEA2"/>
<stop offset="1" stop-color="#FFBDA1"/>
</linearGradient>
<linearGradient id="paint24_linear_231_45551" x1="62.1848" y1="253.653" x2="62.1848" y2="155.303" gradientUnits="userSpaceOnUse">
<stop offset="0.02" stop-color="#3B3195"/>
<stop offset="1" stop-color="#3D47BB"/>
</linearGradient>
<linearGradient id="paint25_linear_231_45551" x1="114.772" y1="161.468" x2="114.772" y2="127.737" gradientUnits="userSpaceOnUse">
<stop stop-color="#8E81F4"/>
<stop offset="0.99" stop-color="#832297"/>
</linearGradient>
<linearGradient id="paint26_linear_231_45551" x1="62.1007" y1="253.653" x2="62.1007" y2="227.539" gradientUnits="userSpaceOnUse">
<stop offset="0.02" stop-color="#3B3195"/>
<stop offset="1" stop-color="#3D47BB"/>
</linearGradient>
<linearGradient id="paint27_linear_231_45551" x1="83.6901" y1="227.589" x2="83.6901" y2="163.793" gradientUnits="userSpaceOnUse">
<stop stop-color="#6175B8"/>
<stop offset="1" stop-color="white"/>
</linearGradient>
<linearGradient id="paint28_linear_231_45551" x1="105.062" y1="310.005" x2="163.337" y2="310.005" gradientUnits="userSpaceOnUse">
<stop stop-color="white"/>
<stop offset="1" stop-color="#6175B8"/>
</linearGradient>
<linearGradient id="paint29_linear_231_45551" x1="102.468" y1="332.023" x2="168.275" y2="332.023" gradientUnits="userSpaceOnUse">
<stop stop-color="white"/>
<stop offset="1" stop-color="#6175B8"/>
</linearGradient>
<linearGradient id="paint30_linear_231_45551" x1="75.9419" y1="366.804" x2="129.701" y2="366.804" gradientUnits="userSpaceOnUse">
<stop stop-color="#6175B8"/>
<stop offset="1" stop-color="white"/>
</linearGradient>
<linearGradient id="paint31_linear_231_45551" x1="171.153" y1="295.233" x2="178.834" y2="269.485" gradientUnits="userSpaceOnUse">
<stop offset="0.02" stop-color="#D1A1D6"/>
<stop offset="0.99" stop-color="#BD89C4"/>
</linearGradient>
<linearGradient id="paint32_linear_231_45551" x1="56.412" y1="259.241" x2="59.5926" y2="239.6" gradientUnits="userSpaceOnUse">
<stop offset="0.02" stop-color="#D1A1D6"/>
<stop offset="0.99" stop-color="#BD89C4"/>
</linearGradient>
<linearGradient id="paint33_linear_231_45551" x1="62.1037" y1="243.325" x2="62.1037" y2="158.003" gradientUnits="userSpaceOnUse">
<stop stop-color="#6175B8"/>
<stop offset="1" stop-color="white"/>
</linearGradient>
<linearGradient id="paint34_linear_231_45551" x1="114.658" y1="317.985" x2="114.658" y2="298.516" gradientUnits="userSpaceOnUse">
<stop stop-color="#6175B8"/>
<stop offset="1" stop-color="white"/>
</linearGradient>
<linearGradient id="paint35_linear_231_45551" x1="174.382" y1="254.86" x2="174.382" y2="215.608" gradientUnits="userSpaceOnUse">
<stop stop-color="white"/>
<stop offset="1" stop-color="#E5658E"/>
</linearGradient>
<linearGradient id="paint36_linear_231_45551" x1="151.534" y1="218.067" x2="151.534" y2="212.121" gradientUnits="userSpaceOnUse">
<stop stop-color="white"/>
<stop offset="1" stop-color="#E5658E"/>
</linearGradient>
<linearGradient id="paint37_linear_231_45551" x1="140.386" y1="239.079" x2="140.386" y2="218.067" gradientUnits="userSpaceOnUse">
<stop stop-color="white"/>
<stop offset="1" stop-color="#E5658E"/>
</linearGradient>
<linearGradient id="paint38_linear_231_45551" x1="38.2264" y1="195.803" x2="38.2264" y2="144.167" gradientUnits="userSpaceOnUse">
<stop stop-color="white"/>
<stop offset="1" stop-color="#D94075"/>
</linearGradient>
<linearGradient id="paint39_linear_231_45551" x1="49.0078" y1="277.146" x2="81.867" y2="277.146" gradientUnits="userSpaceOnUse">
<stop stop-color="#E5658E"/>
<stop offset="1" stop-color="white"/>
</linearGradient>
<linearGradient id="paint40_linear_231_45551" x1="142.734" y1="123.367" x2="122.087" y2="9.86461" gradientUnits="userSpaceOnUse">
<stop offset="0.02" stop-color="#FFB99B"/>
<stop offset="1" stop-color="#FFBEA3"/>
</linearGradient>
<linearGradient id="paint41_linear_231_45551" x1="116.116" y1="51.3031" x2="144.574" y2="46.1263" gradientUnits="userSpaceOnUse">
<stop offset="0.02" stop-color="#E05215"/>
<stop offset="1" stop-color="#A73609"/>
</linearGradient>
<linearGradient id="paint42_linear_231_45551" x1="92.4852" y1="94.8623" x2="86.1402" y2="59.9826" gradientUnits="userSpaceOnUse">
<stop offset="0.02" stop-color="#FFB374"/>
<stop offset="1" stop-color="#FF9577"/>
</linearGradient>
<linearGradient id="paint43_linear_231_45551" x1="111.874" y1="71.1827" x2="106.081" y2="39.3379" gradientUnits="userSpaceOnUse">
<stop offset="0.02" stop-color="#E05215"/>
<stop offset="1" stop-color="#A73609"/>
</linearGradient>
<linearGradient id="paint44_linear_231_45551" x1="102.748" y1="81.0905" x2="99.9354" y2="65.6299" gradientUnits="userSpaceOnUse">
<stop offset="0.02" stop-color="#C23422"/>
<stop offset="1" stop-color="#A73609"/>
</linearGradient>
<linearGradient id="paint45_linear_231_45551" x1="127.326" y1="51.1042" x2="118.253" y2="1.22583" gradientUnits="userSpaceOnUse">
<stop stop-color="#C3041A"/>
<stop offset="1" stop-color="#FF3748"/>
</linearGradient>
<linearGradient id="paint46_linear_231_45551" x1="133.453" y1="38.198" x2="126.456" y2="-0.266427" gradientUnits="userSpaceOnUse">
<stop stop-color="#FFC4BA"/>
<stop offset="1" stop-color="#FFD9D6"/>
</linearGradient>
<linearGradient id="paint47_linear_231_45551" x1="91.1435" y1="88.3587" x2="87.7109" y2="69.4894" gradientUnits="userSpaceOnUse">
<stop stop-color="white"/>
<stop offset="1" stop-color="#E5658E"/>
</linearGradient>
<linearGradient id="paint48_linear_231_45551" x1="120.665" y1="72.1738" x2="135.07" y2="69.5534" gradientUnits="userSpaceOnUse">
<stop stop-color="white"/>
<stop offset="1" stop-color="#E5658E"/>
</linearGradient>
<linearGradient id="paint49_linear_231_45551" x1="152.548" y1="72.0987" x2="160.202" y2="70.7065" gradientUnits="userSpaceOnUse">
<stop stop-color="white"/>
<stop offset="1" stop-color="#E5658E"/>
</linearGradient>
<linearGradient id="paint50_linear_231_45551" x1="93.8505" y1="87.3889" x2="90.758" y2="70.3889" gradientUnits="userSpaceOnUse">
<stop stop-color="white"/>
<stop offset="1" stop-color="#E5658E"/>
</linearGradient>
<linearGradient id="paint51_linear_231_45551" x1="151.935" y1="46.1275" x2="166.12" y2="43.5471" gradientUnits="userSpaceOnUse">
<stop offset="0.02" stop-color="#E05215"/>
<stop offset="1" stop-color="#A73609"/>
</linearGradient>
<linearGradient id="paint52_linear_231_45551" x1="127.39" y1="65.0874" x2="125.346" y2="53.8494" gradientUnits="userSpaceOnUse">
<stop stop-color="white"/>
<stop offset="1" stop-color="#E5658E"/>
</linearGradient>
<linearGradient id="paint53_linear_231_45551" x1="157.555" y1="66.5298" x2="155.074" y2="52.8946" gradientUnits="userSpaceOnUse">
<stop stop-color="white"/>
<stop offset="1" stop-color="#E5658E"/>
</linearGradient>
<linearGradient id="paint54_linear_231_45551" x1="158.027" y1="71.9885" x2="155.219" y2="56.5499" gradientUnits="userSpaceOnUse">
<stop stop-color="#F2DEF8"/>
<stop offset="1" stop-color="white"/>
</linearGradient>
<linearGradient id="paint55_linear_231_45551" x1="129.167" y1="73.1026" x2="126.207" y2="56.8283" gradientUnits="userSpaceOnUse">
<stop stop-color="#F2DEF8"/>
<stop offset="1" stop-color="white"/>
</linearGradient>
<linearGradient id="paint56_linear_231_45551" x1="142.327" y1="77.8657" x2="155.302" y2="75.5053" gradientUnits="userSpaceOnUse">
<stop stop-color="white"/>
<stop offset="1" stop-color="#E5658E"/>
</linearGradient>
<linearGradient id="paint57_linear_231_45551" x1="131.603" y1="76.3411" x2="126.926" y2="50.6322" gradientUnits="userSpaceOnUse">
<stop stop-color="white"/>
<stop offset="1" stop-color="#E5658E"/>
</linearGradient>
<linearGradient id="paint58_linear_231_45551" x1="136.34" y1="87.5651" x2="157.431" y2="83.7285" gradientUnits="userSpaceOnUse">
<stop stop-color="#FFC2C4"/>
<stop offset="1" stop-color="#E5658E"/>
</linearGradient>
<linearGradient id="paint59_linear_231_45551" x1="140.144" y1="89.35" x2="145.114" y2="88.4459" gradientUnits="userSpaceOnUse">
<stop stop-color="#B04C8E"/>
<stop offset="1" stop-color="#FFBDAC"/>
</linearGradient>
<linearGradient id="paint60_linear_231_45551" x1="137.397" y1="92.5294" x2="157.718" y2="88.8328" gradientUnits="userSpaceOnUse">
<stop stop-color="white"/>
<stop offset="1" stop-color="#E5658E"/>
</linearGradient>
<linearGradient id="paint61_linear_231_45551" x1="131.23" y1="96.7445" x2="130.09" y2="90.4767" gradientUnits="userSpaceOnUse">
<stop stop-color="white"/>
<stop offset="1" stop-color="#E5658E"/>
</linearGradient>
<linearGradient id="paint62_linear_231_45551" x1="145.789" y1="103.228" x2="144.963" y2="97.9729" gradientUnits="userSpaceOnUse">
<stop stop-color="#F2DEF8"/>
<stop offset="1" stop-color="white"/>
</linearGradient>
<linearGradient id="paint63_linear_231_45551" x1="160.764" y1="76.3286" x2="155.395" y2="46.815" gradientUnits="userSpaceOnUse">
<stop stop-color="white"/>
<stop offset="1" stop-color="#E5658E"/>
</linearGradient>
<linearGradient id="paint64_linear_231_45551" x1="153.535" y1="41.6569" x2="150.823" y2="26.7461" gradientUnits="userSpaceOnUse">
<stop stop-color="#FF273D"/>
<stop offset="1" stop-color="#FF3748"/>
</linearGradient>
<linearGradient id="paint65_linear_231_45551" x1="152.995" y1="44.5718" x2="150.647" y2="31.6623" gradientUnits="userSpaceOnUse">
<stop stop-color="#C3041A"/>
<stop offset="1" stop-color="#FF3748"/>
</linearGradient>
<linearGradient id="paint66_linear_231_45551" x1="91.2305" y1="59.6245" x2="107.989" y2="56.576" gradientUnits="userSpaceOnUse">
<stop stop-color="#A13D7F"/>
<stop offset="1" stop-color="white"/>
</linearGradient>
<linearGradient id="paint67_linear_231_45551" x1="85.4716" y1="37.3164" x2="160.729" y2="23.6263" gradientUnits="userSpaceOnUse">
<stop stop-color="#E5658E"/>
<stop offset="1" stop-color="white"/>
</linearGradient>
<linearGradient id="paint68_linear_231_45551" x1="140.058" y1="108.929" x2="148.415" y2="107.409" gradientUnits="userSpaceOnUse">
<stop stop-color="white"/>
<stop offset="1" stop-color="#E5658E"/>
</linearGradient>
<linearGradient id="paint69_linear_231_45551" x1="105.454" y1="111.93" x2="137.936" y2="106.021" gradientUnits="userSpaceOnUse">
<stop stop-color="white"/>
<stop offset="1" stop-color="#E5658E"/>
</linearGradient>
</defs>
</svg>
