<svg width="392" height="786" viewBox="0 0 392 786" fill="none" xmlns="http://www.w3.org/2000/svg">
<path d="M189.543 155.075C189.543 155.075 158.487 158.863 134.252 159.107C110.018 159.35 101.757 153.45 101.757 153.45C101.757 153.45 74.0315 185.481 71.7796 240.656L76.1517 241.074C76.1517 241.074 71.1443 271.56 68.1414 295.7L63.9809 297.858C63.9809 297.858 57.7409 314.48 54.8792 329.81L57.0625 331.175C57.0625 331.175 58.4935 357.621 65.6494 380.175C65.6494 380.175 118.649 388.03 148.452 388.076C178.228 388.12 186.001 387.005 186.001 387.005L189.514 155.099L189.543 155.075Z" fill="#FFF0DD"/>
<path d="M98.2623 384.363C98.2623 384.363 116.813 225.476 135.153 194.541L182.365 195.387L163.702 365.32L138.806 387.156L98.2598 384.39L98.2623 384.363Z" fill="#FFF0DD"/>
<path d="M101.767 153.45C101.767 153.45 134.767 169.323 143.385 178.243L192.521 163.159L194.097 153.974C194.097 153.974 173.792 157.014 148.222 158.286C122.651 159.559 101.737 153.474 101.737 153.474L101.767 153.45Z" fill="#FFF0DD"/>
<g style="mix-blend-mode:multiply">
<path d="M103.757 343.997C103.757 343.997 100.625 366.107 98.2642 384.363L135.178 387.132C135.178 387.132 144.293 359.271 146.494 346.918C148.695 334.565 147.323 325.825 147.323 325.825L132.039 336.015C132.039 336.015 115.312 337.647 103.754 344.023L103.757 343.997Z" fill="#FFF0DD"/>
</g>
<g style="mix-blend-mode:multiply">
<path d="M54.9097 329.786L87.8068 332.925L96.1802 305.504L103.538 306.206L95.0387 384.002L88.4426 383.211L93.8539 323.118L91.1744 335.129L57.0904 331.178L54.9097 329.786Z" fill="#FFF0DD"/>
</g>
<g style="mix-blend-mode:multiply">
<path d="M106.358 243.956L81.3163 296.069L73.8537 298.72L67.5969 331.023L74.5965 333.225L90.6458 358.994L98.2836 384.392L101.283 360.574C101.283 360.574 120.319 352.787 130.852 337.974L106.411 243.961L106.358 243.956Z" fill="#FFF0DD"/>
</g>
<path d="M136.395 181.531C136.395 181.531 128.509 168.324 103.785 164.108C103.785 164.108 81.7072 185.729 76.1838 241.076C76.1838 241.076 85.9545 202.114 100.748 181.277C100.748 181.277 115.067 172.744 115.709 175.603C116.377 178.465 114.562 185.931 117.174 186.181C119.787 186.43 122.47 189.887 122.47 189.887L136.369 181.529L136.395 181.531Z" fill="#FFF0DD"/>
<g style="mix-blend-mode:multiply" opacity="0.5">
<path d="M115.711 175.603C115.711 175.603 105.642 183.574 101.957 192.88C98.2684 202.212 89.8475 232.103 91.8527 235.335C93.8579 238.566 115.362 193.917 115.588 189.015C115.814 184.114 115.711 175.603 115.711 175.603Z" fill="#FFF0DD"/>
</g>
<g style="mix-blend-mode:multiply" opacity="0.5">
<path d="M104.473 337.313C104.473 337.313 114.43 333.609 120.653 332.669C126.879 331.703 144.122 336.227 144.122 336.227C144.122 336.227 111.605 342.351 104.47 337.339L104.473 337.313Z" fill="#FFF0DD"/>
</g>
<path d="M386.477 166.036C386.477 166.036 388.056 179.635 379.637 190.846L372.474 193.841C372.474 193.841 350.416 261.471 317.714 282.598C317.714 282.598 293.066 286.928 263.602 275.839L272.465 240.142C272.465 240.142 278.091 242.044 285.255 243.541C291.73 244.877 299.461 245.889 305.531 244.837L305.612 244.553L305.815 243.744L305.977 243.177C306.665 240.951 308.081 237.106 310.631 234.88C311.521 234.111 314.152 232.492 317.754 230.185C329.127 222.819 350.011 208.33 354.544 190.643C354.544 190.643 347.664 184.168 342.767 180.363C337.91 176.559 340.176 155.068 340.743 153.327C341.269 151.587 357.903 140.74 357.903 140.74L360.534 143.371L368.548 144.585V145.395L378.261 147.904C378.261 147.904 378.868 149.766 378.909 151.223L386.477 152.518C386.477 152.518 388.096 156.565 386.477 166.117V166.036Z" fill="#FFF0DD"/>
<g style="mix-blend-mode:multiply" opacity="0.5">
<path d="M317.714 282.598C317.714 282.598 293.066 286.928 263.602 275.839L272.465 240.141C272.465 240.141 278.091 242.044 285.255 243.541C285.255 243.541 278.779 256.897 302.294 275.92L317.714 282.638V282.598Z" fill="#FFF0DD"/>
</g>
<g style="mix-blend-mode:multiply" opacity="0.5">
<path d="M312.816 258.233C308.486 254.995 305.531 244.796 305.531 244.796L305.612 244.513L305.815 243.703L305.976 243.137C306.664 240.911 308.081 237.066 310.631 234.84C311.521 234.071 314.152 232.452 317.754 230.145C308 245.848 312.857 258.273 312.857 258.273L312.816 258.233Z" fill="#FFF0DD"/>
</g>
<g style="mix-blend-mode:multiply" opacity="0.64">
<path d="M386.477 166.036L385.546 167.857C385.546 167.857 382.389 168.221 379.759 167.007L378.909 151.142L377.978 168.545C377.978 168.545 373.526 169.678 370.126 168.343L369.519 145.597L368.548 145.314C368.548 145.314 369.195 162.596 368.426 167.978C368.426 167.978 363.165 168.181 360.332 166.4C360.332 166.4 361.708 161.503 360.534 143.25L357.944 140.7C358.348 141.307 360.453 144.787 358.915 149.725L350.578 155.108C350.578 155.108 348.756 161.503 349.444 164.943C349.444 164.943 363.448 167.574 371.259 174.09L382.308 173.483L386.558 169.516L386.477 165.955V166.036ZM358.348 164.134H351.954V155.553L358.348 153.206C358.348 153.206 359.401 158.508 358.348 164.134Z" fill="#FFF0DD"/>
</g>
<path fill-rule="evenodd" clip-rule="evenodd" d="M296.015 741.479C296.015 741.479 295.286 741.763 293.991 742.289C286.099 745.405 256.918 757.507 241.336 770.984V764.751L236.762 764.225C236.762 764.225 237.288 746.903 233.241 738.808L239.757 723.631C239.757 723.631 221.059 678.463 227.98 627.71L245.019 596.465L242.186 592.822L245.019 586.752C245.019 586.752 226.766 495.809 211.75 464.969L202.401 467.68C202.401 467.68 186.576 540.896 154.926 593.632L141.125 609.457C141.125 609.457 121.657 666.281 113.927 723.914L119.593 730.795L113.927 739.739V745.405C113.927 745.405 88.7529 742.977 60.341 760.421C60.341 760.421 54.5129 748.117 55.4842 746.336C56.4151 744.596 68.1927 732.414 68.1927 731.078C68.1927 730.43 67.1809 729.418 66.0881 728.326C64.8334 727.112 63.4978 725.816 63.4574 724.845C63.3359 723.105 56.8198 641.795 87.7006 597.76C87.7006 597.76 103.93 585.092 109.354 576.431L110.285 570.684L113.118 566.839L144.363 451.167L141.934 446.311L145.213 423.079L146.346 415.268L146.427 414.661C146.427 414.661 151.85 415.065 160.592 415.875C175.608 417.291 200.337 420.003 223.73 424.212H223.851C240.648 427.248 256.756 431.052 268.169 435.747C268.169 435.747 273.674 450.155 278.611 478.082C283.144 503.782 287.192 540.896 286.058 588.735L277.761 607.474C277.761 607.474 277.761 607.474 277.761 607.555L277.276 608.688C277.276 608.688 277.276 609.295 277.276 610.469C277.397 621.72 278.368 682.956 286.261 714.201C286.261 714.201 294.962 716.912 296.055 718.531L296.177 718.855C297.026 722.052 296.055 741.52 296.055 741.52L296.015 741.479Z" fill="#FFF0DD"/>
<path fill-rule="evenodd" clip-rule="evenodd" d="M241.378 770.984L238.141 784.786H355.431C355.431 784.786 357.252 776.448 351.384 766.33C351.384 766.33 328.759 770.539 294.115 742.249C294.115 742.249 257.649 753.54 241.419 770.984H241.378Z" fill="#FFF0DD"/>
<path fill-rule="evenodd" clip-rule="evenodd" d="M110.29 745.324C110.29 745.324 114.135 755.807 129.353 768.151V786H59.9418C59.9418 786 58.7276 775.962 62.9773 758.842C62.9773 758.842 80.2187 745.162 110.25 745.284L110.29 745.324Z" fill="#FFF0DD"/>
<path fill-rule="evenodd" clip-rule="evenodd" d="M330.945 763.537C330.945 763.537 322 767.747 320.382 778.31L240.407 775.072L238.141 784.786H355.431C355.431 784.786 358.143 775.598 351.384 766.33C351.384 766.33 338.797 766.532 330.945 763.537Z" fill="#FFF0DD"/>
<path fill-rule="evenodd" clip-rule="evenodd" d="M126.398 765.642C126.398 765.642 104.988 750.262 64.3938 774.141L60.5893 770.984C60.5893 770.984 58.5657 779.767 59.9013 786H129.312V768.151L126.358 765.642H126.398Z" fill="#FFF0DD"/>
<path d="M170.895 152.01L172.092 166.821C170.438 167.432 168.843 167.829 167.394 168.069C161.143 169.172 156.896 167.614 156.896 167.614C161.013 171.051 166.882 169.06 166.882 169.06C166.882 169.06 157.363 178.536 150.106 171.719C142.868 164.872 137.624 150.265 137.624 150.265C136.835 164.155 123.076 168.06 123.076 168.06C136.892 156.224 138.071 140.86 138.071 140.86L161.691 140.051L170.914 151.981L170.895 152.01Z" fill="#FFF0DD"/>
<g style="mix-blend-mode:multiply">
<path d="M167.367 168.074C161.116 169.177 156.869 167.619 156.869 167.619C160.986 171.056 166.855 169.065 166.855 169.065C166.855 169.065 154.709 176.2 150.667 169.346C146.636 162.541 145.01 149.644 145.01 149.644L158.989 145.568C166.005 149.92 172.632 154.605 169.87 167.521L167.367 168.074Z" fill="#FFF0DD"/>
</g>
<path d="M167.31 152.328C167.31 152.328 169.347 178.773 169.791 184.521C170.215 190.299 162.465 196.83 162.465 196.83C162.465 196.83 176.04 218.547 194.17 217.698C212.299 216.849 207.71 195.511 207.71 195.511C207.71 195.511 197.904 188.267 197.21 186.198C196.515 184.129 195.661 171.844 195.661 171.844C195.661 171.844 178.654 166.979 167.31 152.328Z" fill="#FFF0DD"/>
<g style="mix-blend-mode:multiply">
<path d="M167.085 153.635C167.085 153.635 178.157 201.348 196.02 177.558L195.58 168.768C195.58 168.768 179.237 165.611 166.403 143.543L167.06 153.64L167.085 153.635Z" fill="#FFF0DD"/>
</g>
<path d="M218.427 80.5834C218.386 83.5361 216.684 104.132 219.462 112.28L219.502 112.475C222.285 120.521 224.388 126.317 226.024 133.451C226.621 136.047 226.069 141.513 224.732 147.619C222.417 158.338 217.61 171.055 212.239 173.378C211.702 173.612 211.107 173.808 210.424 173.945C200.748 176.193 178.66 169.968 166.009 156.138C164.416 154.402 162.985 152.583 161.641 150.695C161.617 150.7 161.607 150.651 161.607 150.651C151.621 136.438 148.151 118.53 142.574 107.06C136.234 94.0691 143.513 66.8702 160.733 56.5592C177.928 46.253 195.356 46.9665 195.356 46.9665C195.356 46.9665 211.158 71.5606 216.579 75.9291C216.579 75.9291 218.493 77.6259 218.432 80.6078L218.427 80.5834Z" fill="#FFF0DD"/>
<path d="M195.832 85.2228C195.832 85.2228 195.397 90.6402 193.666 93.2721C193.666 93.2721 186.664 94.6783 178.936 98.1591C171.209 101.64 168.829 104.453 168.829 104.453C168.829 104.453 171.03 97.7164 176.098 93.7545C181.17 89.8169 195.832 85.2228 195.832 85.2228Z" fill="#FFF0DD"/>
<path d="M152.029 122.777C152.029 122.777 142.277 115.293 134.68 117.403C127.103 119.483 128.087 136.012 135.823 143.824C143.56 151.636 155.386 152.256 156.761 151.016C158.112 149.78 159.824 142.38 159.824 142.38L152.029 122.777Z" fill="#FFF0DD"/>
<path d="M172.621 82.2445C172.621 82.2445 163.277 109.274 155.31 118.768L156.298 127.478C156.298 127.478 149.196 120.3 143.06 117.928L141.661 107.803C141.661 107.803 159.172 89.5902 172.616 82.2201L172.621 82.2445Z" fill="#FFF0DD"/>
<path d="M150.932 122.49L155.311 118.768C155.311 118.768 157.451 127.653 160.289 131.297L158.58 136.31C158.58 136.31 154.273 126.236 150.932 122.49Z" fill="#FFF0DD"/>
<path d="M142.344 112.692C142.344 112.692 128.198 89.3902 126.966 81.2361C125.735 73.0821 148.093 49.6829 148.093 49.6829C148.093 49.6829 181.125 39.8767 190.404 42.2266C199.683 44.5765 214.71 69.8593 214.71 69.8593C214.71 69.8593 183.383 75.7697 167.477 86.4262C151.546 97.0876 142.349 112.717 142.349 112.717L142.344 112.692Z" fill="#FFF0DD"/>
<path d="M133.122 96.2433C133.122 96.2433 120.403 94.4573 109.934 100.468C109.934 100.468 108.368 106.697 113.737 107.395C113.737 107.395 126.45 101.695 137.013 103.483L133.122 96.2433Z" fill="#FFF0DD"/>
<path d="M144.487 53.6046C144.487 53.6046 142.068 49.0141 142.428 48.4087C142.764 47.8081 145.589 46.4541 147.341 46.4576C149.069 46.466 151.057 48.5288 151.057 48.5288L148.115 49.678L144.516 53.6241L144.487 53.6046Z" fill="#FFF0DD"/>
<path d="M148.084 49.6828C148.084 49.6828 141.188 62.6162 142.188 67.4665C143.187 72.3167 159.215 92.0938 159.215 92.0938C159.215 92.0938 180.774 70.6571 210.747 62.6834C210.747 62.6834 196.72 42.3777 189.804 41.3046C182.888 40.2315 159.802 44.8421 148.084 49.6828Z" fill="#FFF0DD"/>
<path d="M161.807 67.2071C161.807 67.2071 181.407 48.9051 198.444 49.3163L205.889 57.9485C205.889 57.9485 188.356 61.2663 167.504 75.6065L161.807 67.2071Z" fill="#FFF0DD"/>
<g style="mix-blend-mode:multiply" opacity="0.5">
<path d="M154.925 135.293C154.925 135.293 147.769 126.451 140.634 127.071C133.5 127.692 131.791 133.593 131.791 133.593C131.791 133.593 133.477 130.361 139.338 129.083C139.338 129.083 140.192 135.231 142.114 140.379C144.036 145.526 149.058 146.776 150.619 145.447C152.185 144.143 145.522 136.369 146.896 133.733C148.27 131.096 154.925 135.293 154.925 135.293Z" fill="#FFF0DD"/>
</g>
<g style="mix-blend-mode:multiply" opacity="0.5">
<path d="M175.056 117.874C175.056 117.874 179.39 124.542 186.715 123.477C194.039 122.412 190.635 112.918 190.635 112.918L175.056 117.874Z" fill="#FFF0DD"/>
</g>
<g style="mix-blend-mode:multiply" opacity="0.5">
<path d="M210.125 111.492C210.125 111.492 214.171 117.989 217.572 117.357C220.973 116.725 218.869 110.041 218.869 110.041L210.125 111.492Z" fill="#FFF0DD"/>
</g>
<g style="mix-blend-mode:multiply" opacity="0.5">
<path d="M143.205 127.24C143.205 127.24 139.577 130.278 140.963 136.802C142.349 143.326 148.008 146.479 149.92 145.257C151.832 144.036 145.267 135.862 146.9 133.757C148.538 131.677 153.753 134.64 153.753 134.64C153.753 134.64 148.809 128.221 143.205 127.24Z" fill="#FFF0DD"/>
</g>
<path d="M207.699 93.2464C207.699 93.2464 208.305 88.3021 218.233 84.1509C218.233 84.1509 219.527 78.3326 217.704 75.0691C217.704 75.0691 209.64 79.2774 207.699 93.2464Z" fill="#FFF0DD"/>
<g style="mix-blend-mode:multiply" opacity="0.5">
<path d="M174.108 116.567C174.108 116.567 174.949 105.585 185.621 98.315L187.697 101.198L174.108 116.567Z" fill="#FFF0DD"/>
</g>
<g style="mix-blend-mode:multiply">
<path d="M218.141 89.1191C218.141 89.1191 208.72 92.6354 192.463 97.6262C176.206 102.617 157.542 94.3595 157.542 94.3595C157.542 94.3595 171.265 81.1718 182.289 74.8968C193.314 68.6218 209.571 69.3166 209.571 69.3166L216.579 75.9044C216.579 75.9044 219.636 72.5492 218.137 89.0947L218.141 89.1191Z" fill="#FFF0DD"/>
</g>
<g style="mix-blend-mode:multiply" opacity="0.5">
<path d="M209.665 110.619C209.665 110.619 206.938 99.4399 216.38 91.3507L216.823 95.5767L209.665 110.619Z" fill="#FFF0DD"/>
</g>
<path d="M209.493 109.765C209.583 112.361 214.325 115.876 216.7 114.308C219.1 112.734 218.873 103.516 216.822 95.5769C216.822 95.5769 209.068 97.0325 209.493 109.765Z" fill="#FFF0DD"/>
<path d="M190.852 116.275C189.499 121.293 180.773 126.878 174.127 116.537C174.127 116.537 176.534 105.394 187.717 101.168C187.717 101.168 193.222 107.474 190.872 116.246L190.852 116.275Z" fill="#FFF0DD"/>
<mask id="mask0_335_14279" style="mask-type:luminance" maskUnits="userSpaceOnUse" x="209" y="95" width="10" height="20">
<path d="M209.493 109.765C209.583 112.361 214.325 115.876 216.7 114.308C219.1 112.734 218.873 103.516 216.822 95.5769C216.822 95.5769 209.068 97.0325 209.493 109.765Z" fill="white"/>
</mask>
<g mask="url(#mask0_335_14279)">
<path d="M215.526 110.253C215.526 110.253 211.431 102.497 216.749 95.3625C216.749 95.3625 220.818 105.13 219.371 108.415C217.948 111.696 215.502 110.258 215.502 110.258L215.526 110.253Z" fill="#FFF0DD"/>
<g style="mix-blend-mode:multiply">
<path d="M217.159 110.535C217.159 110.535 213.547 103.291 217.588 97.5042C217.588 97.5042 219.911 103.51 219.767 106.458C219.618 109.381 217.921 110.534 217.159 110.535Z" fill="#FFF0DD"/>
</g>
</g>
<path d="M209.48 107.813C209.48 107.813 209.815 99.4966 216.957 96.514L219.229 93.6718C219.229 93.6718 209.728 94.6408 209.48 107.813Z" fill="#FFF0DD"/>
<path d="M188.575 102.393L189.783 98.6728C189.783 98.6728 176.575 103.686 174.131 116.537C174.131 116.537 176.95 107.824 188.595 102.363L188.575 102.393Z" fill="#FFF0DD"/>
<mask id="mask1_335_14279" style="mask-type:luminance" maskUnits="userSpaceOnUse" x="174" y="101" width="18" height="22">
<path d="M190.852 116.275C189.499 121.293 180.773 126.878 174.127 116.537C174.127 116.537 176.534 105.394 187.717 101.168C187.717 101.168 193.222 107.474 190.872 116.246L190.852 116.275Z" fill="white"/>
</mask>
<g mask="url(#mask1_335_14279)">
<path d="M188.28 120.294C188.28 120.294 182.492 107.776 189.565 103.817C189.565 103.817 196.309 114.392 188.28 120.294Z" fill="#FFF0DD"/>
<g style="mix-blend-mode:multiply">
<path d="M190.407 105.246C190.407 105.246 185.584 110.047 190.027 118.648C190.027 118.648 194.196 114.13 190.407 105.246Z" fill="#FFF0DD"/>
</g>
</g>
<path d="M182.36 114.554C182.36 114.554 185.673 113.736 186.948 116.044C186.948 116.044 184.651 117.241 182.36 114.554Z" fill="#FFF0DD"/>
<g style="mix-blend-mode:multiply" opacity="0.5">
<path d="M193.67 93.2719C193.67 93.2719 196.522 114.68 192.818 121.261C189.115 127.843 180.251 126.171 173.688 121.296C167.125 116.421 168.828 104.428 168.828 104.428C168.828 104.428 177.167 95.5201 193.665 93.2476L193.67 93.2719Z" fill="#FFF0DD"/>
</g>
<path d="M212.68 108.313C212.68 108.313 214.836 107.804 215.687 109.384C215.687 109.384 214.243 109.903 212.68 108.313Z" fill="#FFF0DD"/>
<g style="mix-blend-mode:multiply" opacity="0.3">
<path d="M217.484 123.77C217.484 123.77 211.519 121.491 205.01 123.965C198.497 126.415 201.652 117.482 209.156 114.782C209.156 114.782 211.005 119.817 217.484 123.77Z" fill="#FFF0DD"/>
</g>
<g style="mix-blend-mode:multiply" opacity="0.5">
<path d="M201.172 127.351C201.172 127.351 199.027 129.939 198.492 132.711C197.953 135.459 200.961 137.165 203.57 134.991C206.174 132.793 207.345 132.812 207.239 134.051C207.157 135.286 209.149 136.231 213.394 135.252C217.639 134.272 221.081 129.546 218.994 125.726C218.994 125.726 222.874 132.409 213.444 136.257C204.037 140.101 201.56 136.232 197.919 135.542C194.278 134.852 201.148 127.355 201.148 127.355L201.172 127.351Z" fill="#FFF0DD"/>
</g>
<g style="mix-blend-mode:multiply" opacity="0.5">
<path d="M201.746 136.549C201.746 136.549 204.574 133.951 206.087 133.901C207.6 133.851 206.943 135.886 205.557 136.825C204.172 137.763 201.751 136.574 201.751 136.574L201.746 136.549Z" fill="#FFF0DD"/>
</g>
<g style="mix-blend-mode:multiply" opacity="0.5">
<path d="M196.874 134.152C196.874 134.152 197.783 134.757 203.506 133.303C210.098 131.624 214.924 131.39 219.593 129.108C219.593 129.108 218.813 142.031 212.928 143.441C205.199 145.273 196.874 134.152 196.874 134.152Z" fill="#FFF0DD"/>
</g>
<g style="mix-blend-mode:multiply" opacity="0.5">
<path d="M194.163 139.215C194.163 139.215 191.481 142.546 190.88 148.022C190.88 148.022 189.39 145.402 189.432 142.83C189.493 140.229 194.163 139.215 194.163 139.215Z" fill="#FFF0DD"/>
</g>
<g style="mix-blend-mode:multiply">
<path d="M191.672 142.355C191.672 142.355 200.235 146.701 209.308 146.504C213.554 146.413 218.076 144.413 219.261 142.855C220.421 141.302 221.986 139.237 221.986 139.237C221.986 139.237 219.281 143.334 218.813 144.29C218.345 145.247 215.579 153.174 211.739 153.768C207.874 154.366 199.225 146.727 196.721 145.63C194.216 144.534 191.696 142.35 191.696 142.35L191.672 142.355Z" fill="#FFF0DD"/>
</g>
<path d="M202.918 147.482C202.918 147.482 207.541 148.766 209.741 148.632C211.92 148.526 216.334 146.183 216.334 146.183C216.334 146.183 213.63 150.348 210.355 150.974C207.104 151.597 202.914 147.458 202.914 147.458L202.918 147.482Z" fill="#FFF0DD"/>
<path d="M206.593 148.325L199.75 145.764L203.539 148.053L206.593 148.325Z" fill="#FFF0DD"/>
<path d="M216.005 146.644L218.706 143.617L215.305 146.691L216.005 146.644Z" fill="#FFF0DD"/>
<g style="mix-blend-mode:multiply" opacity="0.5">
<path d="M207.696 93.2466C207.696 93.2466 207.536 106.858 209.322 113.098C211.108 119.339 221.542 118.462 221.424 118.13C221.307 117.799 218.549 110.383 218.184 105.405C217.823 100.452 218.23 84.1512 218.23 84.1512C218.23 84.1512 209.787 84.1969 207.696 93.2466Z" fill="#FFF0DD"/>
</g>
<path d="M159.43 92.6353C159.43 92.6353 186.015 89.0225 194.331 83.1644C202.648 77.3064 220.309 64.2669 232.302 60.6655C244.295 57.0642 250.011 64.4192 250.011 64.4192C250.011 64.4192 245.116 58.2446 232.378 58.5182C220.482 60.9579 209.552 62.8991 209.552 62.8991C209.552 62.8991 175.255 72.35 159.43 92.6353Z" fill="#FFF0DD"/>
<path d="M217.101 76.4849C217.101 76.4849 234.473 73.8847 249.68 67.8358C249.68 67.8358 242.743 59.33 228.437 62.533C214.106 65.7409 211.304 71.5067 211.304 71.5067L217.125 76.48L217.101 76.4849Z" fill="#FFF0DD"/>
<path d="M249.985 64.424L249.661 67.8649C249.661 67.8649 239.223 57.3462 221.1 65.9352C202.976 74.5242 202.571 81.4839 193.167 86.9768C183.766 92.4941 157.517 94.3644 157.517 94.3644L159.199 92.123C159.199 92.123 181.26 88.8602 189.339 84.7251C197.417 80.59 212.281 65.8787 228.235 60.7711C244.19 55.6635 249.98 64.3996 249.98 64.3996L249.985 64.424Z" fill="#FFF0DD"/>
<g style="mix-blend-mode:multiply" opacity="0.5">
<path d="M147.107 119.755C147.107 119.755 155.379 112.662 157.274 102.383C157.274 102.383 151.636 112.856 143.036 117.933L147.078 119.736L147.107 119.755Z" fill="#FFF0DD"/>
</g>
<g style="mix-blend-mode:multiply" opacity="0.5">
<path d="M193.077 42.8051C193.077 42.8051 157.396 53.7016 142.166 67.4712C126.935 81.2408 128.164 85.4614 128.164 85.4614C128.164 85.4614 135.355 101.302 142.314 112.697C142.314 112.697 153.293 98.6135 160.495 90.8726C167.697 83.1316 186.807 68.8367 210.726 62.6882C210.726 62.6882 199.971 46.5477 193.077 42.8051Z" fill="#FFF0DD"/>
</g>
<g style="mix-blend-mode:multiply" opacity="0.5">
<path d="M209.176 160.135L215.43 156.265C215.43 156.265 213.185 156.715 207.328 155.48C201.471 154.245 209.176 160.135 209.176 160.135Z" fill="#FFF0DD"/>
</g>
<g style="mix-blend-mode:multiply" opacity="0.5">
<path d="M210.407 173.974C200.732 176.222 178.643 169.997 165.992 156.167C164.4 154.431 162.969 152.611 161.625 150.724C162.46 151.47 173.347 160.2 186.606 164.924C198.849 169.267 208.943 173.761 210.412 173.999L210.407 173.974Z" fill="#FFF0DD"/>
</g>
<g style="mix-blend-mode:multiply" opacity="0.6">
<path fill-rule="evenodd" clip-rule="evenodd" d="M72.8094 739.335C82.2801 734.721 119.596 730.795 119.596 730.795L113.93 739.739V745.406C113.93 745.406 88.7557 742.977 60.3438 760.421C68.7216 746.903 100.129 739.335 100.129 739.335H72.8094Z" fill="#FFF0DD"/>
</g>
<g style="mix-blend-mode:multiply" opacity="0.5">
<path fill-rule="evenodd" clip-rule="evenodd" d="M261.456 696.514C259.23 701.978 239.763 723.631 239.763 723.631C239.763 723.631 221.064 678.463 227.985 627.71L245.024 596.465L242.191 592.822L245.024 586.751C245.024 586.751 226.771 495.809 211.755 464.968L202.406 467.68C202.406 467.68 186.581 540.896 154.931 593.632L141.13 609.457C141.13 609.457 121.663 666.281 113.932 723.914L108.266 722.7L111.099 675.225L93.4531 722.7C93.4531 722.7 94.4649 699.954 103.814 670.773C113.163 641.592 132.429 606.219 132.429 606.219L128.584 598.489L125.953 584.485L132.267 598.489H138.338L152.544 586.306C179.337 539.236 191.033 472.537 191.033 472.537C176.018 459.586 154.567 464.564 154.567 464.564L129.798 523.816L144.409 471.444V451.127L141.98 446.27L146.351 415.227L223.776 424.172H223.897C240.694 427.207 256.802 431.012 268.215 435.707C268.215 435.707 273.719 450.115 278.657 478.041L257.652 496.983C256.073 530.17 275.905 592.782 275.905 592.782L279.952 594.401L286.064 588.694L277.767 607.433C277.767 607.433 277.767 607.433 277.767 607.514C277.767 607.757 277.564 608.769 277.281 610.428C274.772 625.363 263.52 691.617 261.497 696.514H261.456Z" fill="#FFF0DD"/>
</g>
<g style="mix-blend-mode:multiply" opacity="0.6">
<path fill-rule="evenodd" clip-rule="evenodd" d="M294.073 742.249H293.992C286.1 745.406 256.919 757.507 241.337 770.984V764.752L236.763 764.225C236.763 764.225 237.289 746.903 233.242 738.808L239.758 723.631L236.237 733.102C236.237 733.102 270.356 724.724 269.506 729.055C268.696 733.385 243.522 753.419 243.522 753.419L247.61 755.038C268.98 743.139 294.113 742.249 294.113 742.249H294.073Z" fill="#FFF0DD"/>
</g>
<g style="mix-blend-mode:multiply" opacity="0.6">
<path fill-rule="evenodd" clip-rule="evenodd" d="M296.021 741.48C296.021 741.48 295.292 741.763 293.997 742.289C286.105 745.406 256.924 757.507 241.342 770.984V764.752L236.768 764.225C236.768 764.225 237.295 746.903 233.247 738.808L239.763 723.631C239.763 723.631 221.065 678.463 227.986 627.71L245.025 596.465L242.192 592.823L245.025 586.752C245.025 586.752 226.772 495.809 211.756 464.969L202.407 467.68L208.114 456.874L145.219 423.079L160.598 415.875C175.614 417.292 200.343 420.003 223.736 424.213H223.858C240.654 427.248 256.762 431.052 268.175 435.747C268.175 435.747 273.68 450.156 278.617 478.082C283.15 503.782 287.198 540.896 286.064 588.735L277.768 607.474C277.768 607.474 277.768 607.474 277.768 607.555L277.282 608.688C277.282 608.688 277.282 609.295 277.282 610.469C277.403 621.72 278.375 682.956 286.267 714.201L257.652 723.955C257.652 723.955 287.441 723.064 296.102 718.531L296.223 718.855C297.073 722.053 296.102 741.52 296.102 741.52L296.021 741.48Z" fill="#FFF0DD"/>
</g>
<path fill-rule="evenodd" clip-rule="evenodd" d="M112.431 150.13C112.431 150.13 88.3904 186.798 93.4495 266.894C93.4495 266.894 108.789 259.326 118.543 219.824C128.297 180.323 117.774 150.13 117.774 150.13H112.431Z" fill="#FFF0DD"/>
<path fill-rule="evenodd" clip-rule="evenodd" d="M281.688 463.35L278.166 467.68C278.166 467.68 150.839 446.27 104.578 391.065L105.185 389.77L106.319 387.503C106.319 387.503 111.418 384.549 114.373 381.19C115.465 379.975 116.275 378.68 116.437 377.466C117.003 373.5 116.234 292.271 115.992 270.415C115.992 267.016 115.951 265.032 115.951 265.032L107.007 263.211L100.288 266.449L93.3672 266.854C93.3672 266.854 93.3672 266.854 93.4077 266.813C94.0957 265.639 108.302 242.327 112.228 216.101C116.315 189.186 114.656 152.396 114.656 152.396L112.309 150.089L116.518 148.592C116.518 148.592 116.518 148.592 116.558 148.673C116.841 149.037 118.298 151.101 120.767 153.975C126.191 160.41 136.39 170.811 148.248 174.859L158.205 174.535L161.685 180.808L166.583 178.501L173.463 182.508L172.654 185.26C172.654 185.26 189.328 214.077 198.354 213.875C207.379 213.672 207.986 202.906 207.986 202.906L206.287 195.217C206.287 195.217 210.82 194.771 211.872 195.378C212.843 195.986 213.288 201.49 213.288 201.49C213.288 201.49 213.855 201.854 214.786 202.421C217.821 204.242 224.742 208.208 229.68 209.625C236.196 211.446 241.66 212.013 241.66 212.013C241.66 212.013 241.822 212.094 242.146 212.337C242.915 212.944 244.291 214.805 244.291 219.784C244.291 219.784 257.485 238.158 274.929 236.863C274.929 236.863 275.171 236.863 275.293 236.863V241.072H273.674C273.674 241.072 269.91 276.203 260.439 304.372V304.493C258.497 310.16 256.352 315.502 254.004 320.237L245.262 305.667L260.277 379.733L267.563 387.827V389.81C267.563 394.384 267.684 405.595 268.777 410.33C270.193 416.441 277.721 425.346 277.721 425.346C277.721 425.346 278.733 430.202 274.848 434.452C274.848 434.452 274.16 452.422 281.485 463.269L281.688 463.35Z" fill="#FFF0DD"/>
<path d="M143.56 178.542C139.35 198.738 120.814 216.141 120.814 216.141C120.126 214.846 119.357 213.511 118.466 212.175C108.51 195.986 89.2855 175.911 75.2414 162.191C65.4874 152.72 58.2023 146.245 58.2023 146.245C36.7922 111.033 27.0787 48.1385 27.0787 48.1385C27.0787 48.1385 17.9318 49.3527 15.0987 47.1267C12.2656 44.9006 3.52344 26.8497 3.52344 26.8497L25.7026 0.259033H30.7212L44.5225 17.3791C45.3319 15.7602 44.4011 12.4818 44.4011 12.4818C44.4011 12.4818 42.0941 11.9557 41.0013 9.81064C39.9086 7.6251 41.9727 3.2945 41.9727 3.2945C44.1178 2.48504 49.5411 4.26585 49.5411 4.26585C49.5411 8.19172 52.6575 21.1431 52.6575 21.1431L43.3083 35.0253C43.3083 35.0253 73.5416 114.433 98.1086 137.017C102.196 140.781 108.47 146.528 115.107 152.599C115.795 153.247 116.443 153.854 117.131 154.461C130.082 166.319 143.519 178.542 143.519 178.542H143.56Z" fill="#FFF0DD"/>
<path fill-rule="evenodd" clip-rule="evenodd" d="M275.46 236.863V241.073H273.841C273.841 241.073 270.077 276.203 260.606 304.372V304.494C258.663 310.16 256.518 315.502 254.171 320.238L245.429 305.667L244.619 292.271L247.048 277.255C246.602 269.323 237.334 246.536 237.334 246.536L232.72 222.293L229.766 209.706C236.282 211.527 241.746 212.094 241.746 212.094C241.746 212.094 241.908 212.175 242.231 212.418C243 213.025 244.376 214.887 244.376 219.865C244.376 219.865 257.571 238.24 275.014 236.944C275.014 236.944 275.257 236.944 275.379 236.944L275.46 236.863Z" fill="#FFF0DD"/>
<path fill-rule="evenodd" clip-rule="evenodd" d="M161.766 180.849V191.088C161.766 191.088 155.21 193.598 155.898 195.338C156.545 197.078 154.4 204.971 152.215 208.492C150.029 212.013 149.665 217.679 149.665 217.679C149.665 217.679 146.063 216.951 145.011 217.679C143.918 218.408 141.53 228.081 141.53 228.081C137.604 250.664 117.57 270.537 117.57 270.537L115.992 270.415C115.992 267.016 115.951 265.032 115.951 265.032L107.007 263.211L100.288 266.449L93.3672 266.854C93.3672 266.854 93.3672 266.854 93.4077 266.813C94.0957 265.639 108.302 242.327 112.228 216.101C116.315 189.186 114.656 152.396 114.656 152.396L112.309 150.089L116.518 148.592C116.518 148.592 116.518 148.592 116.558 148.673C116.841 149.037 118.298 151.101 120.767 153.975C126.191 160.41 136.39 170.811 148.248 174.859L158.205 174.535L161.685 180.808L161.766 180.849Z" fill="#FFF0DD"/>
<g style="mix-blend-mode:multiply" opacity="0.5">
<path fill-rule="evenodd" clip-rule="evenodd" d="M171.117 211.973C170.307 210.435 157.032 184.977 158.287 174.535L161.767 180.808C161.767 180.808 165.248 199.709 171.117 211.973Z" fill="#FFF0DD"/>
</g>
<g style="mix-blend-mode:multiply" opacity="0.5">
<path fill-rule="evenodd" clip-rule="evenodd" d="M194.959 275.879C193.663 274.341 192.328 272.52 190.992 270.537C193.016 273.289 194.392 275.11 194.959 275.879Z" fill="#FFF0DD"/>
</g>
<g style="mix-blend-mode:multiply" opacity="0.5">
<path fill-rule="evenodd" clip-rule="evenodd" d="M214.913 202.461C214.913 202.461 212.93 225.207 201.031 232.128C201.354 231.764 204.187 228.647 205.806 224.033C205.806 224.033 201.476 226.664 192.329 220.188C183.182 213.713 171.242 194.812 171.242 194.812L166.75 178.501L173.63 182.508L172.821 185.26C172.821 185.26 189.496 214.077 198.521 213.875C207.547 213.672 208.154 202.907 208.154 202.907L206.454 195.257C206.454 195.257 210.987 194.812 212.039 195.419C213.051 196.026 213.456 201.53 213.456 201.53C213.456 201.53 214.022 201.895 214.994 202.461H214.913Z" fill="#FFF0DD"/>
</g>
<g style="mix-blend-mode:multiply" opacity="0.5">
<path fill-rule="evenodd" clip-rule="evenodd" d="M281.688 463.35L278.166 467.681C278.166 467.681 150.839 446.27 104.578 391.065L105.185 389.77L107.654 390.661C107.654 390.661 116.194 400.172 128.498 403.248C128.498 403.248 119.31 392.36 114.373 381.19C115.465 379.976 116.275 378.681 116.437 377.466C117.084 372.893 115.951 265.033 115.951 265.033L107.007 263.211L100.288 266.449L93.3672 266.854C93.3672 266.854 93.3672 266.854 93.4077 266.813C94.3385 265.923 109.03 251.677 118.703 234.111C128.741 215.979 133.071 195.945 133.071 195.945C133.071 195.945 132.059 229.943 115.223 251.96L119.836 258.476C119.836 258.476 141.57 220.674 136.876 192.991C133.759 174.535 125.786 160.977 120.808 153.975C126.231 160.41 136.43 170.812 148.289 174.859C148.289 174.859 171.925 242.408 190.947 270.537C179.939 255.562 150.798 213.996 141.489 182.266L136.228 178.542C136.228 178.542 177.47 300.163 184.795 314.491C191.838 328.332 205.275 351.038 206.165 352.576C204.708 350.916 181.517 324.002 172.735 308.136C163.669 291.745 143.513 212.054 143.513 212.054C143.513 212.054 142.056 239.575 131.209 261.188C131.209 261.188 126.717 276.608 124.046 290.207C121.374 303.806 122.629 366.701 122.629 366.701L126.312 372.124C126.312 372.124 129.55 338.005 136.309 314.207C142.623 291.907 151.122 271.994 152.215 269.566C151.446 272.115 144.97 293.768 141.206 320.44C137.118 348.852 135.257 387.261 136.309 395.922C137.402 404.624 148.491 417.575 155.817 419.761C163.102 421.906 186.9 409.764 212.358 385.116C235.508 362.734 243.845 332.461 245.181 327.199C244.25 332.056 238.341 358.727 223.164 383.214C206.368 410.249 178.239 414.58 178.239 414.58C178.239 414.58 208.836 431.336 230.449 424.577C252.102 417.818 267.644 387.747 267.644 387.747L268.251 406C268.251 406 238.422 426.317 226.644 428.746C215.191 431.133 188.843 425.427 187.507 425.103C189.774 425.953 263.03 452.827 277.802 425.265C277.802 425.265 278.814 430.122 274.929 434.371C274.929 434.371 263.96 440.645 244.493 440.645C225.026 440.645 166.785 426.479 164.964 426.074C166.906 427.208 231.137 465.009 281.566 463.188L281.688 463.35Z" fill="#FFF0DD"/>
</g>
<g style="mix-blend-mode:multiply" opacity="0.6">
<path fill-rule="evenodd" clip-rule="evenodd" d="M275.462 236.863V241.073H273.843C273.843 241.073 270.079 276.203 260.608 304.372V304.494L254.173 320.238L245.431 305.667L244.622 292.271L247.05 277.255C243.529 257.464 226.652 222.779 225.438 220.35L232.439 230.55L232.763 222.253L238.591 233.585L243.974 248.803L242.234 212.337C243.003 212.944 244.379 214.806 244.379 219.784L255.954 283.407C268.703 269.484 272.386 240.101 272.386 240.101L275.057 236.863C275.057 236.863 275.3 236.863 275.422 236.863H275.462Z" fill="#FFF0DD"/>
</g>
<g style="mix-blend-mode:multiply" opacity="0.6">
<path fill-rule="evenodd" clip-rule="evenodd" d="M254.164 320.238C254.164 320.238 258.778 311.536 261.368 301.984C260.72 291.906 236.234 244.351 236.234 244.351C236.234 244.351 245.422 263.859 247.041 277.255L244.612 292.271L245.422 305.667L254.164 320.238Z" fill="#FFF0DD"/>
</g>
<g style="mix-blend-mode:multiply" opacity="0.6">
<path d="M115.953 265.073L116.317 303.846L131.252 261.228C131.252 261.228 139.63 242.529 141.532 228.121C141.532 228.121 130.564 258.8 117.572 270.577L115.953 265.113V265.073Z" fill="#FFF0DD"/>
</g>
<g style="mix-blend-mode:multiply" opacity="0.6">
<path fill-rule="evenodd" clip-rule="evenodd" d="M63.4609 724.845C63.4609 724.845 83.495 722.134 89.9707 723.631L68.1963 731.078L63.4609 724.845Z" fill="#FFF0DD"/>
</g>
<g style="mix-blend-mode:multiply" opacity="0.5">
<path fill-rule="evenodd" clip-rule="evenodd" d="M129.349 768.151L64.43 774.141L60.6255 770.985L59.9375 786H129.349V768.151Z" fill="#FFF0DD"/>
</g>
<g style="mix-blend-mode:multiply" opacity="0.5">
<path fill-rule="evenodd" clip-rule="evenodd" d="M342.844 784.785V777.096L320.382 778.31L240.407 775.072L238.141 784.785H342.844Z" fill="#FFF0DD"/>
</g>
<g style="mix-blend-mode:soft-light">
<path fill-rule="evenodd" clip-rule="evenodd" d="M129.758 523.816C129.758 523.816 119.438 567.041 122.676 575.783L132.227 598.489H138.298L152.504 586.306C152.504 586.306 183.628 527.175 190.994 472.537C190.994 472.537 176.059 459.302 154.528 464.564L129.758 523.816Z" fill="#FFF0DD"/>
</g>
<g style="mix-blend-mode:soft-light">
<path fill-rule="evenodd" clip-rule="evenodd" d="M72.8125 739.334C72.8125 739.334 88.8802 724.076 93.4537 722.7C98.0271 721.324 113.973 723.914 113.973 723.914L119.64 730.795C119.64 730.795 94.9916 732.778 72.853 739.334H72.8125Z" fill="#FFF0DD"/>
</g>
<g style="mix-blend-mode:soft-light">
<path fill-rule="evenodd" clip-rule="evenodd" d="M286.224 714.16L257.609 723.914C257.609 723.914 286.831 723.307 296.059 718.491C296.059 718.491 293.266 715.536 286.264 714.16H286.224Z" fill="#FFF0DD"/>
</g>
<g style="mix-blend-mode:multiply" opacity="0.6">
<path fill-rule="evenodd" clip-rule="evenodd" d="M251.056 784.866C251.056 784.866 262.955 769.446 276.797 768.151C290.639 766.856 319.577 784.785 319.577 784.785L251.016 784.866H251.056Z" fill="#FFF0DD"/>
</g>
<g style="mix-blend-mode:multiply" opacity="0.5">
<path fill-rule="evenodd" clip-rule="evenodd" d="M136.234 178.542C136.234 178.542 173.065 287.738 180.35 303.805C187.635 319.914 206.212 352.535 206.212 352.535C206.212 352.535 174.562 308.541 166.71 288.304C158.859 268.108 136.275 178.501 136.275 178.501L136.234 178.542Z" fill="#FFF0DD"/>
</g>
<g style="mix-blend-mode:multiply" opacity="0.5">
<path fill-rule="evenodd" clip-rule="evenodd" d="M177.109 412.637C177.109 412.637 205.036 407.497 218.675 389.729C232.314 371.962 242.797 335.334 242.797 335.334C242.797 335.334 224.544 389.406 177.109 412.637Z" fill="#FFF0DD"/>
</g>
<g style="mix-blend-mode:multiply" opacity="0.5">
<path fill-rule="evenodd" clip-rule="evenodd" d="M144.202 410.775C144.202 410.775 138.293 405.838 136.634 397.257C134.974 388.677 138.698 336.022 141.288 320.48L126.596 370.343L122.711 366.781L122.913 303.886C122.913 303.886 117.288 375.483 116.478 377.547C115.669 379.611 114.414 381.271 114.414 381.271C114.414 381.271 120.485 394.343 128.539 403.328C136.593 412.313 151.244 417.413 151.244 417.413L144.202 410.816V410.775Z" fill="#FFF0DD"/>
</g>
<g style="mix-blend-mode:multiply" opacity="0.5">
<path fill-rule="evenodd" clip-rule="evenodd" d="M71.4824 640.823C71.4824 640.823 62.0927 678.342 69.4183 698.133C75.8535 715.577 84.8385 720.231 84.8385 720.231C84.8385 720.231 70.0659 720.838 67.5565 716.669C65.0472 712.501 60.2714 675.913 71.5229 640.823H71.4824Z" fill="#FFF0DD"/>
</g>
<g style="mix-blend-mode:multiply" opacity="0.5">
<path d="M36.0214 16.286L35.4143 16.6502C31.8527 13.1696 30.0314 8.9604 30.0314 8.9604L31.367 8.67709C31.1646 8.06999 30.9623 7.42243 30.8408 6.81533H27.9673C24.3652 4.06317 24.2438 0.622978 24.2438 0.0158844L23.5557 2.97041C31.6503 16.3265 35.0905 19.1596 35.0905 19.1596C33.7954 21.7094 29.7076 23.9758 29.7076 23.9758C26.4698 20.4952 18.4561 8.06999 18.4561 8.06999L17.849 8.71756L28.5744 24.9877C26.6721 27.497 22.7058 28.7112 22.7058 28.7112L13.4375 16.8931L20.6012 28.4279C19.1847 30.492 16.5944 31.6657 16.5944 31.6657L14.9755 30.8158L16.6753 33.3656L21.8559 34.2155L30.5575 29.6016C31.9741 25.3519 35.1714 21.1023 37.9641 17.9859C37.276 17.4597 36.6285 16.8931 36.0214 16.3265V16.286Z" fill="#FFF0DD"/>
</g>
<path d="M30.7188 4.91311V0.218253C30.7188 0.218253 25.2955 -0.712624 22.4219 1.27055C22.4219 1.27055 23.4742 9.81033 25.5383 12.9267L29.7879 12.1173L30.7188 4.91311Z" fill="#FFF0DD"/>
<path d="M19.1842 10.9437H16.7558L12.7085 15.1124H11.3324L6.59708 20.4144H4.41155C4.41155 20.4144 0.323783 21.7904 0 25.352C0 25.352 2.67121 31.0183 7.28512 32.3943L11.6562 28.9541L16.3915 30.8968L20.3174 28.2256L22.3815 28.4685L25.0527 24.4212C25.0527 24.4212 20.6817 16.6908 19.1842 10.9437Z" fill="#FFF0DD"/>
<g style="mix-blend-mode:multiply" opacity="0.5">
<path d="M12.7511 15.1121C12.7511 15.1121 16.1103 24.2589 20.36 28.2658C20.36 28.2658 17.0817 26.5254 11.375 15.1121H12.7511Z" fill="#FFF0DD"/>
</g>
<g style="mix-blend-mode:multiply" opacity="0.5">
<path d="M6.64007 20.4144C6.64007 20.4144 8.42088 26.283 11.6992 28.9542L10.1612 30.1684C10.1612 30.1684 5.91156 26.0806 4.41406 20.4144H6.5996H6.64007Z" fill="#FFF0DD"/>
</g>
<g style="mix-blend-mode:multiply" opacity="0.5">
<path d="M120.208 212.013L118.467 212.175C108.511 195.986 89.2863 175.911 75.2422 162.191C86.8579 160.531 101.873 171.54 107.701 167.857C113.53 164.174 113.894 151.992 115.108 152.599C115.837 152.963 116.525 153.61 117.132 154.46C124.821 165.388 120.167 212.013 120.167 212.013H120.208Z" fill="#FFF0DD"/>
</g>
<path d="M216.446 202.898L218.075 200.385C218.075 200.385 230.834 209.479 238.997 209.657C238.997 209.657 262.756 246.207 245.699 283.964C245.699 283.964 247.822 234.459 219.884 206.729L216.446 202.898Z" fill="#FFF0DD"/>
<g style="mix-blend-mode:multiply">
<path d="M218.075 200.385C218.075 200.385 230.386 211.67 238.382 222.511C246.404 233.35 246.377 264.355 246.377 264.355L244.385 267.304C244.385 267.304 239.391 242.641 233.318 228.077C227.245 213.513 216.446 202.898 216.446 202.898L218.075 200.385Z" fill="#FFF0DD"/>
</g>
<path d="M132.173 338.381C119.451 353.599 101.087 360.588 101.087 360.588L103.285 343.428C103.285 343.428 122.224 326.591 140.72 299.397C146.809 290.43 152.132 280.07 155.659 268.345C169.828 220.968 142.4 172.284 142.4 172.284L138.444 170.086L140.022 162.46C140.022 162.46 152.219 176.749 157.832 173.823C157.832 173.823 175.815 192.938 174.483 225.463C173.125 257.984 144.865 323.187 132.173 338.381Z" fill="#FFF0DD"/>
<g style="mix-blend-mode:multiply">
<path d="M165.129 244.369C161.451 273.92 144.27 300.338 144.27 300.338L140.752 299.347C146.842 290.381 152.165 280.02 155.692 268.296C169.861 220.919 138.444 170.086 138.444 170.086L139.323 166.131L140.202 162.615C140.202 162.615 168.81 214.791 165.106 244.339L165.129 244.369Z" fill="#FFF0DD"/>
</g>
<g style="mix-blend-mode:multiply" opacity="0.5">
<path d="M151.048 278.203C151.048 278.203 155.179 255.864 156.919 241.859C158.659 227.854 149.812 201.017 149.812 201.017C149.812 201.017 164.077 218.018 163.06 235.653C162.046 253.261 151.071 278.233 151.071 278.233L151.048 278.203Z" fill="#FFF0DD"/>
</g>
<path d="M193.543 155.075C193.543 155.075 162.487 158.863 138.252 159.107C114.018 159.35 105.757 153.45 105.757 153.45C105.757 153.45 78.0315 185.481 75.7796 240.656L80.1517 241.074C80.1517 241.074 75.1443 271.56 72.1414 295.7L67.9809 297.858C67.9809 297.858 61.7409 314.48 58.8792 329.81L61.0625 331.175C61.0625 331.175 62.4935 357.621 69.6494 380.175C69.6494 380.175 122.649 388.03 152.452 388.076C182.228 388.12 190.001 387.005 190.001 387.005L193.514 155.099L193.543 155.075Z" fill="url(#paint0_linear_335_14279)"/>
<path d="M102.262 384.363C102.262 384.363 120.813 225.476 139.153 194.541L186.365 195.387L167.702 365.32L142.806 387.156L102.26 384.39L102.262 384.363Z" fill="#CC2C36"/>
<path d="M105.767 153.45C105.767 153.45 138.767 169.323 147.385 178.243L196.521 163.159L198.097 153.974C198.097 153.974 177.792 157.014 152.222 158.286C126.651 159.559 105.737 153.474 105.737 153.474L105.767 153.45Z" fill="url(#paint1_linear_335_14279)"/>
<g style="mix-blend-mode:multiply">
<path d="M107.757 343.997C107.757 343.997 104.625 366.107 102.264 384.363L139.178 387.132C139.178 387.132 148.293 359.271 150.494 346.918C152.695 334.565 151.323 325.825 151.323 325.825L136.039 336.015C136.039 336.015 119.312 337.647 107.754 344.023L107.757 343.997Z" fill="#D98BA1"/>
</g>
<g style="mix-blend-mode:multiply">
<path d="M58.9097 329.786L91.8068 332.925L100.18 305.504L107.538 306.206L99.0387 384.002L92.4426 383.211L97.8539 323.118L95.1744 335.129L61.0904 331.178L58.9097 329.786Z" fill="#D98BA1"/>
</g>
<g style="mix-blend-mode:multiply">
<path d="M110.358 243.956L85.3163 296.069L77.8537 298.72L71.5969 331.023L78.5965 333.225L94.6458 358.994L102.284 384.392L105.283 360.574C105.283 360.574 124.319 352.787 134.852 337.974L110.411 243.961L110.358 243.956Z" fill="#D98BA1"/>
</g>
<path d="M140.395 181.531C140.395 181.531 132.509 168.324 107.785 164.108C107.785 164.108 85.7072 185.729 80.1838 241.076C80.1838 241.076 89.9545 202.114 104.748 181.277C104.748 181.277 119.067 172.744 119.709 175.603C120.377 178.465 118.562 185.931 121.174 186.181C123.787 186.43 126.47 189.887 126.47 189.887L140.369 181.529L140.395 181.531Z" fill="#CC4236"/>
<path style="mix-blend-mode:multiply" opacity="0.5" d="M119.711 175.603C119.711 175.603 109.642 183.574 105.957 192.88C102.268 202.212 93.8475 232.103 95.8527 235.335C97.8579 238.566 119.362 193.917 119.588 189.015C119.814 184.114 119.711 175.603 119.711 175.603Z" fill="url(#paint2_linear_335_14279)"/>
<path style="mix-blend-mode:multiply" opacity="0.5" d="M108.473 337.313C108.473 337.313 118.43 333.609 124.653 332.669C130.879 331.703 148.122 336.227 148.122 336.227C148.122 336.227 115.605 342.351 108.47 337.339L108.473 337.313Z" fill="url(#paint3_linear_335_14279)"/>
<path d="M390.477 166.036C390.477 166.036 392.056 179.635 383.637 190.846L376.474 193.841C376.474 193.841 354.416 261.471 321.714 282.598C321.714 282.598 297.066 286.928 267.602 275.839L276.465 240.142C276.465 240.142 282.091 242.044 289.255 243.541C295.73 244.877 303.461 245.889 309.531 244.837L309.612 244.553L309.815 243.744L309.977 243.177C310.665 240.951 312.081 237.106 314.631 234.88C315.521 234.111 318.152 232.492 321.754 230.185C333.127 222.819 354.011 208.33 358.544 190.643C358.544 190.643 351.664 184.168 346.767 180.363C341.91 176.559 344.176 155.068 344.743 153.327C345.269 151.587 361.903 140.74 361.903 140.74L364.534 143.371L372.548 144.585V145.395L382.261 147.904C382.261 147.904 382.868 149.766 382.909 151.223L390.477 152.518C390.477 152.518 392.096 156.565 390.477 166.117V166.036Z" fill="url(#paint4_linear_335_14279)"/>
<path style="mix-blend-mode:multiply" opacity="0.5" d="M321.714 282.598C321.714 282.598 297.066 286.928 267.602 275.839L276.465 240.141C276.465 240.141 282.091 242.044 289.255 243.541C289.255 243.541 282.779 256.897 306.294 275.92L321.714 282.638V282.598Z" fill="#E392AD"/>
<path style="mix-blend-mode:multiply" opacity="0.5" d="M316.816 258.233C312.486 254.995 309.531 244.796 309.531 244.796L309.612 244.513L309.815 243.703L309.976 243.137C310.664 240.911 312.081 237.066 314.631 234.84C315.521 234.071 318.152 232.452 321.754 230.145C312 245.848 316.857 258.273 316.857 258.273L316.816 258.233Z" fill="#E392AD"/>
<path style="mix-blend-mode:multiply" opacity="0.64" d="M390.477 166.036L389.546 167.857C389.546 167.857 386.389 168.221 383.759 167.007L382.909 151.142L381.978 168.545C381.978 168.545 377.526 169.678 374.126 168.343L373.519 145.597L372.548 145.314C372.548 145.314 373.195 162.596 372.426 167.978C372.426 167.978 367.165 168.181 364.332 166.4C364.332 166.4 365.708 161.503 364.534 143.25L361.944 140.7C362.348 141.307 364.453 144.787 362.915 149.725L354.578 155.108C354.578 155.108 352.756 161.503 353.444 164.943C353.444 164.943 367.448 167.574 375.259 174.09L386.308 173.483L390.558 169.516L390.477 165.955V166.036ZM362.348 164.134H355.954V155.553L362.348 153.206C362.348 153.206 363.401 158.508 362.348 164.134Z" fill="#E392AD"/>
<path fill-rule="evenodd" clip-rule="evenodd" d="M300.015 741.479C300.015 741.479 299.286 741.763 297.991 742.289C290.099 745.405 260.918 757.507 245.336 770.984V764.751L240.762 764.225C240.762 764.225 241.288 746.903 237.241 738.808L243.757 723.631C243.757 723.631 225.059 678.463 231.98 627.71L249.019 596.465L246.186 592.822L249.019 586.752C249.019 586.752 230.766 495.809 215.75 464.969L206.401 467.68C206.401 467.68 190.576 540.896 158.926 593.632L145.125 609.457C145.125 609.457 125.657 666.281 117.927 723.914L123.593 730.795L117.927 739.739V745.405C117.927 745.405 92.7529 742.977 64.341 760.421C64.341 760.421 58.5129 748.117 59.4842 746.336C60.4151 744.596 72.1927 732.414 72.1927 731.078C72.1927 730.43 71.1809 729.418 70.0881 728.326C68.8334 727.112 67.4978 725.816 67.4574 724.845C67.3359 723.105 60.8198 641.795 91.7006 597.76C91.7006 597.76 107.93 585.092 113.354 576.431L114.285 570.684L117.118 566.839L148.363 451.167L145.934 446.311L149.213 423.079L150.346 415.268L150.427 414.661C150.427 414.661 155.85 415.065 164.592 415.875C179.608 417.291 204.337 420.003 227.73 424.212H227.851C244.648 427.248 260.756 431.052 272.169 435.747C272.169 435.747 277.674 450.155 282.611 478.082C287.144 503.782 291.192 540.896 290.058 588.735L281.761 607.474C281.761 607.474 281.761 607.474 281.761 607.555L281.276 608.688C281.276 608.688 281.276 609.295 281.276 610.469C281.397 621.72 282.368 682.956 290.261 714.201C290.261 714.201 298.962 716.912 300.055 718.531L300.177 718.855C301.026 722.052 300.055 741.52 300.055 741.52L300.015 741.479Z" fill="url(#paint5_linear_335_14279)"/>
<path fill-rule="evenodd" clip-rule="evenodd" d="M245.378 770.984L242.141 784.786H359.431C359.431 784.786 361.252 776.448 355.384 766.33C355.384 766.33 332.759 770.539 298.115 742.249C298.115 742.249 261.649 753.54 245.419 770.984H245.378Z" fill="url(#paint6_radial_335_14279)"/>
<path fill-rule="evenodd" clip-rule="evenodd" d="M114.29 745.324C114.29 745.324 118.135 755.807 133.353 768.151V786H63.9418C63.9418 786 62.7276 775.962 66.9773 758.842C66.9773 758.842 84.2187 745.162 114.25 745.284L114.29 745.324Z" fill="url(#paint7_radial_335_14279)"/>
<path fill-rule="evenodd" clip-rule="evenodd" d="M334.945 763.537C334.945 763.537 326 767.747 324.382 778.31L244.407 775.072L242.141 784.786H359.431C359.431 784.786 362.143 775.598 355.384 766.33C355.384 766.33 342.797 766.532 334.945 763.537Z" fill="url(#paint8_linear_335_14279)"/>
<path fill-rule="evenodd" clip-rule="evenodd" d="M130.398 765.642C130.398 765.642 108.988 750.262 68.3938 774.141L64.5893 770.984C64.5893 770.984 62.5657 779.767 63.9013 786H133.312V768.151L130.358 765.642H130.398Z" fill="url(#paint9_linear_335_14279)"/>
<path d="M174.895 152.01L176.092 166.821C174.438 167.432 172.843 167.829 171.394 168.069C165.143 169.172 160.896 167.614 160.896 167.614C165.013 171.051 170.882 169.06 170.882 169.06C170.882 169.06 161.363 178.536 154.106 171.719C146.868 164.872 141.624 150.265 141.624 150.265C140.835 164.155 127.076 168.06 127.076 168.06C140.892 156.224 142.071 140.86 142.071 140.86L165.691 140.051L174.914 151.981L174.895 152.01Z" fill="url(#paint10_linear_335_14279)"/>
<g style="mix-blend-mode:multiply">
<path d="M171.367 168.074C165.116 169.177 160.869 167.619 160.869 167.619C164.986 171.056 170.855 169.065 170.855 169.065C170.855 169.065 158.709 176.2 154.667 169.346C150.636 162.541 149.01 149.644 149.01 149.644L162.989 145.568C170.005 149.92 176.632 154.605 173.87 167.521L171.367 168.074Z" fill="#CE8BC2"/>
</g>
<path d="M171.31 152.328C171.31 152.328 173.347 178.773 173.791 184.521C174.215 190.299 166.465 196.83 166.465 196.83C166.465 196.83 180.04 218.547 198.17 217.698C216.299 216.849 211.71 195.511 211.71 195.511C211.71 195.511 201.904 188.267 201.21 186.198C200.515 184.129 199.661 171.844 199.661 171.844C199.661 171.844 182.654 166.979 171.31 152.328Z" fill="url(#paint11_linear_335_14279)"/>
<g style="mix-blend-mode:multiply">
<path d="M171.085 153.635C171.085 153.635 182.157 201.348 200.02 177.558L199.58 168.768C199.58 168.768 183.237 165.611 170.403 143.543L171.06 153.64L171.085 153.635Z" fill="#E89FC0"/>
</g>
<path d="M222.427 80.5834C222.386 83.5361 220.684 104.132 223.462 112.28L223.502 112.475C226.285 120.521 228.388 126.317 230.024 133.451C230.621 136.047 230.069 141.513 228.732 147.619C226.417 158.338 221.61 171.055 216.239 173.378C215.702 173.612 215.107 173.808 214.424 173.945C204.748 176.193 182.66 169.968 170.009 156.138C168.416 154.402 166.985 152.583 165.641 150.695C165.617 150.7 165.607 150.651 165.607 150.651C155.621 136.438 152.151 118.53 146.574 107.06C140.234 94.0691 147.513 66.8702 164.733 56.5592C181.928 46.253 199.356 46.9665 199.356 46.9665C199.356 46.9665 215.158 71.5606 220.579 75.9291C220.579 75.9291 222.493 77.6259 222.432 80.6078L222.427 80.5834Z" fill="url(#paint12_linear_335_14279)"/>
<path d="M199.832 85.2228C199.832 85.2228 199.397 90.6402 197.666 93.2721C197.666 93.2721 190.664 94.6783 182.936 98.1591C175.209 101.64 172.829 104.453 172.829 104.453C172.829 104.453 175.03 97.7164 180.098 93.7545C185.17 89.8169 199.832 85.2228 199.832 85.2228Z" fill="url(#paint13_linear_335_14279)"/>
<path d="M156.029 122.777C156.029 122.777 146.277 115.293 138.68 117.403C131.103 119.483 132.087 136.012 139.823 143.824C147.56 151.636 159.386 152.256 160.761 151.016C162.112 149.78 163.824 142.38 163.824 142.38L156.029 122.777Z" fill="url(#paint14_linear_335_14279)"/>
<path d="M176.621 82.2445C176.621 82.2445 167.277 109.274 159.31 118.768L160.298 127.478C160.298 127.478 153.196 120.3 147.06 117.928L145.661 107.803C145.661 107.803 163.172 89.5902 176.616 82.2201L176.621 82.2445Z" fill="url(#paint15_linear_335_14279)"/>
<path d="M154.932 122.49L159.311 118.768C159.311 118.768 161.451 127.653 164.289 131.297L162.58 136.31C162.58 136.31 158.273 126.236 154.932 122.49Z" fill="url(#paint16_linear_335_14279)"/>
<path d="M146.344 112.692C146.344 112.692 132.198 89.3902 130.966 81.2361C129.735 73.0821 152.093 49.6829 152.093 49.6829C152.093 49.6829 185.125 39.8767 194.404 42.2266C203.683 44.5765 218.71 69.8593 218.71 69.8593C218.71 69.8593 187.383 75.7697 171.477 86.4262C155.546 97.0876 146.349 112.717 146.349 112.717L146.344 112.692Z" fill="url(#paint17_linear_335_14279)"/>
<path d="M137.122 96.2433C137.122 96.2433 124.403 94.4573 113.934 100.468C113.934 100.468 112.368 106.697 117.737 107.395C117.737 107.395 130.45 101.695 141.013 103.483L137.122 96.2433Z" fill="#A21642"/>
<path d="M148.487 53.6046C148.487 53.6046 146.068 49.0141 146.428 48.4087C146.764 47.8081 149.589 46.4541 151.341 46.4576C153.069 46.466 155.057 48.5288 155.057 48.5288L152.115 49.678L148.516 53.6241L148.487 53.6046Z" fill="#A21642"/>
<path d="M152.084 49.6828C152.084 49.6828 145.188 62.6162 146.188 67.4665C147.187 72.3167 163.215 92.0938 163.215 92.0938C163.215 92.0938 184.774 70.6571 214.747 62.6834C214.747 62.6834 200.72 42.3777 193.804 41.3046C186.888 40.2315 163.802 44.8421 152.084 49.6828Z" fill="url(#paint18_linear_335_14279)"/>
<path d="M165.807 67.2071C165.807 67.2071 185.407 48.9051 202.444 49.3163L209.889 57.9485C209.889 57.9485 192.356 61.2663 171.504 75.6065L165.807 67.2071Z" fill="#FF3748"/>
<path style="mix-blend-mode:multiply" opacity="0.5" d="M158.925 135.293C158.925 135.293 151.769 126.451 144.634 127.071C137.5 127.692 135.791 133.593 135.791 133.593C135.791 133.593 137.477 130.361 143.338 129.083C143.338 129.083 144.192 135.231 146.114 140.379C148.036 145.526 153.058 146.776 154.619 145.447C156.185 144.143 149.522 136.369 150.896 133.733C152.27 131.096 158.925 135.293 158.925 135.293Z" fill="url(#paint19_linear_335_14279)"/>
<path style="mix-blend-mode:multiply" opacity="0.5" d="M179.056 117.874C179.056 117.874 183.39 124.542 190.715 123.477C198.039 122.412 194.635 112.918 194.635 112.918L179.056 117.874Z" fill="url(#paint20_linear_335_14279)"/>
<path style="mix-blend-mode:multiply" opacity="0.5" d="M214.125 111.492C214.125 111.492 218.171 117.989 221.572 117.357C224.973 116.725 222.869 110.041 222.869 110.041L214.125 111.492Z" fill="url(#paint21_linear_335_14279)"/>
<path style="mix-blend-mode:multiply" opacity="0.5" d="M147.205 127.24C147.205 127.24 143.577 130.278 144.963 136.802C146.349 143.326 152.008 146.479 153.92 145.257C155.832 144.036 149.267 135.862 150.9 133.757C152.538 131.677 157.753 134.64 157.753 134.64C157.753 134.64 152.809 128.221 147.205 127.24Z" fill="url(#paint22_linear_335_14279)"/>
<path d="M211.699 93.2464C211.699 93.2464 212.305 88.3021 222.233 84.1509C222.233 84.1509 223.527 78.3326 221.704 75.0691C221.704 75.0691 213.64 79.2774 211.699 93.2464Z" fill="url(#paint23_linear_335_14279)"/>
<path style="mix-blend-mode:multiply" opacity="0.5" d="M178.108 116.567C178.108 116.567 178.949 105.585 189.621 98.315L191.697 101.198L178.108 116.567Z" fill="url(#paint24_linear_335_14279)"/>
<g style="mix-blend-mode:multiply">
<path d="M222.141 89.1191C222.141 89.1191 212.72 92.6354 196.463 97.6262C180.206 102.617 161.542 94.3595 161.542 94.3595C161.542 94.3595 175.265 81.1718 186.289 74.8968C197.314 68.6218 213.571 69.3166 213.571 69.3166L220.579 75.9044C220.579 75.9044 223.636 72.5492 222.137 89.0947L222.141 89.1191Z" fill="#C98BC2"/>
</g>
<path style="mix-blend-mode:multiply" opacity="0.5" d="M213.665 110.619C213.665 110.619 210.938 99.4399 220.38 91.3507L220.823 95.5767L213.665 110.619Z" fill="url(#paint25_linear_335_14279)"/>
<path d="M213.493 109.765C213.583 112.361 218.325 115.876 220.7 114.308C223.1 112.734 222.873 103.516 220.822 95.5769C220.822 95.5769 213.068 97.0325 213.493 109.765Z" fill="url(#paint26_linear_335_14279)"/>
<path d="M194.852 116.275C193.499 121.293 184.773 126.878 178.127 116.537C178.127 116.537 180.534 105.394 191.717 101.168C191.717 101.168 197.222 107.474 194.872 116.246L194.852 116.275Z" fill="url(#paint27_linear_335_14279)"/>
<mask id="mask2_335_14279" style="mask-type:luminance" maskUnits="userSpaceOnUse" x="213" y="95" width="10" height="20">
<path d="M213.493 109.765C213.583 112.361 218.325 115.876 220.7 114.308C223.1 112.734 222.873 103.516 220.822 95.5769C220.822 95.5769 213.068 97.0325 213.493 109.765Z" fill="white"/>
</mask>
<g mask="url(#mask2_335_14279)">
<path d="M219.526 110.253C219.526 110.253 215.431 102.497 220.749 95.3625C220.749 95.3625 224.818 105.13 223.371 108.415C221.948 111.696 219.502 110.258 219.502 110.258L219.526 110.253Z" fill="#AD7A90"/>
<g style="mix-blend-mode:multiply">
<path d="M221.159 110.535C221.159 110.535 217.547 103.291 221.588 97.5042C221.588 97.5042 223.911 103.51 223.767 106.458C223.618 109.381 221.921 110.534 221.159 110.535Z" fill="#AB8BC2"/>
</g>
</g>
<path d="M213.48 107.813C213.48 107.813 213.815 99.4966 220.957 96.514L223.229 93.6718C223.229 93.6718 213.728 94.6408 213.48 107.813Z" fill="#95344D"/>
<path d="M192.575 102.393L193.783 98.6728C193.783 98.6728 180.575 103.686 178.131 116.537C178.131 116.537 180.95 107.824 192.595 102.363L192.575 102.393Z" fill="#95344D"/>
<mask id="mask3_335_14279" style="mask-type:luminance" maskUnits="userSpaceOnUse" x="178" y="101" width="18" height="22">
<path d="M194.852 116.275C193.499 121.293 184.773 126.878 178.127 116.537C178.127 116.537 180.534 105.394 191.717 101.168C191.717 101.168 197.222 107.474 194.872 116.246L194.852 116.275Z" fill="white"/>
</mask>
<g mask="url(#mask3_335_14279)">
<path d="M192.28 120.294C192.28 120.294 186.492 107.776 193.565 103.817C193.565 103.817 200.309 114.392 192.28 120.294Z" fill="#AD7A90"/>
<g style="mix-blend-mode:multiply">
<path d="M194.407 105.246C194.407 105.246 189.584 110.047 194.027 118.648C194.027 118.648 198.196 114.13 194.407 105.246Z" fill="#AB8BC2"/>
</g>
</g>
<path d="M186.36 114.554C186.36 114.554 189.673 113.736 190.948 116.044C190.948 116.044 188.651 117.241 186.36 114.554Z" fill="white"/>
<path style="mix-blend-mode:multiply" opacity="0.5" d="M197.67 93.2719C197.67 93.2719 200.522 114.68 196.818 121.261C193.115 127.843 184.251 126.171 177.688 121.296C171.125 116.421 172.828 104.428 172.828 104.428C172.828 104.428 181.167 95.5201 197.665 93.2476L197.67 93.2719Z" fill="url(#paint28_linear_335_14279)"/>
<path d="M216.68 108.313C216.68 108.313 218.836 107.804 219.687 109.384C219.687 109.384 218.243 109.903 216.68 108.313Z" fill="white"/>
<path style="mix-blend-mode:multiply" opacity="0.3" d="M221.484 123.77C221.484 123.77 215.519 121.491 209.01 123.965C202.497 126.415 205.652 117.482 213.156 114.782C213.156 114.782 215.005 119.817 221.484 123.77Z" fill="url(#paint29_linear_335_14279)"/>
<path style="mix-blend-mode:multiply" opacity="0.5" d="M205.172 127.351C205.172 127.351 203.027 129.939 202.492 132.711C201.953 135.459 204.961 137.165 207.57 134.991C210.174 132.793 211.345 132.812 211.239 134.051C211.157 135.286 213.149 136.231 217.394 135.252C221.639 134.272 225.081 129.546 222.994 125.726C222.994 125.726 226.874 132.409 217.444 136.257C208.037 140.101 205.56 136.232 201.919 135.542C198.278 134.852 205.148 127.355 205.148 127.355L205.172 127.351Z" fill="url(#paint30_linear_335_14279)"/>
<path style="mix-blend-mode:multiply" opacity="0.5" d="M205.746 136.549C205.746 136.549 208.574 133.951 210.087 133.901C211.6 133.851 210.943 135.886 209.557 136.825C208.172 137.763 205.751 136.574 205.751 136.574L205.746 136.549Z" fill="url(#paint31_linear_335_14279)"/>
<path style="mix-blend-mode:multiply" opacity="0.5" d="M200.874 134.152C200.874 134.152 201.783 134.757 207.506 133.303C214.098 131.624 218.924 131.39 223.593 129.108C223.593 129.108 222.813 142.031 216.928 143.441C209.199 145.273 200.874 134.152 200.874 134.152Z" fill="url(#paint32_linear_335_14279)"/>
<path style="mix-blend-mode:multiply" opacity="0.5" d="M198.163 139.215C198.163 139.215 195.481 142.546 194.88 148.022C194.88 148.022 193.39 145.402 193.432 142.83C193.493 140.229 198.163 139.215 198.163 139.215Z" fill="url(#paint33_linear_335_14279)"/>
<g style="mix-blend-mode:multiply">
<path d="M195.672 142.355C195.672 142.355 204.235 146.701 213.308 146.504C217.554 146.413 222.076 144.413 223.261 142.855C224.421 141.302 225.986 139.237 225.986 139.237C225.986 139.237 223.281 143.334 222.813 144.29C222.345 145.247 219.579 153.174 215.739 153.768C211.874 154.366 203.225 146.727 200.721 145.63C198.216 144.534 195.696 142.35 195.696 142.35L195.672 142.355Z" fill="#EA7F88"/>
</g>
<path d="M206.918 147.482C206.918 147.482 211.541 148.766 213.741 148.632C215.92 148.526 220.334 146.183 220.334 146.183C220.334 146.183 217.63 150.348 214.355 150.974C211.104 151.597 206.914 147.458 206.914 147.458L206.918 147.482Z" fill="url(#paint34_linear_335_14279)"/>
<path d="M210.593 148.325L203.75 145.764L207.539 148.053L210.593 148.325Z" fill="#C22A57"/>
<path d="M220.005 146.644L222.706 143.617L219.305 146.691L220.005 146.644Z" fill="#C22A57"/>
<path style="mix-blend-mode:multiply" opacity="0.5" d="M211.696 93.2466C211.696 93.2466 211.536 106.858 213.322 113.098C215.108 119.339 225.542 118.462 225.424 118.13C225.307 117.799 222.549 110.383 222.184 105.405C221.823 100.452 222.23 84.1512 222.23 84.1512C222.23 84.1512 213.787 84.1969 211.696 93.2466Z" fill="url(#paint35_linear_335_14279)"/>
<path d="M163.43 92.6353C163.43 92.6353 190.015 89.0225 198.331 83.1644C206.648 77.3064 224.309 64.2669 236.302 60.6655C248.295 57.0642 254.011 64.4192 254.011 64.4192C254.011 64.4192 249.116 58.2446 236.378 58.5182C224.482 60.9579 213.552 62.8991 213.552 62.8991C213.552 62.8991 179.255 72.35 163.43 92.6353Z" fill="url(#paint36_linear_335_14279)"/>
<path d="M221.101 76.4849C221.101 76.4849 238.473 73.8847 253.68 67.8358C253.68 67.8358 246.743 59.33 232.437 62.533C218.106 65.7409 215.304 71.5067 215.304 71.5067L221.125 76.48L221.101 76.4849Z" fill="#A21642"/>
<path d="M253.985 64.424L253.661 67.8649C253.661 67.8649 243.223 57.3462 225.1 65.9352C206.976 74.5242 206.571 81.4839 197.167 86.9768C187.766 92.4941 161.517 94.3644 161.517 94.3644L163.199 92.123C163.199 92.123 185.26 88.8602 193.339 84.7251C201.417 80.59 216.281 65.8787 232.235 60.7711C248.19 55.6635 253.98 64.3996 253.98 64.3996L253.985 64.424Z" fill="url(#paint37_linear_335_14279)"/>
<path style="mix-blend-mode:multiply" opacity="0.5" d="M151.107 119.755C151.107 119.755 159.379 112.662 161.274 102.383C161.274 102.383 155.636 112.856 147.036 117.933L151.078 119.736L151.107 119.755Z" fill="url(#paint38_linear_335_14279)"/>
<path style="mix-blend-mode:multiply" opacity="0.5" d="M197.077 42.8051C197.077 42.8051 161.396 53.7016 146.166 67.4712C130.935 81.2408 132.164 85.4614 132.164 85.4614C132.164 85.4614 139.355 101.302 146.314 112.697C146.314 112.697 157.293 98.6135 164.495 90.8726C171.697 83.1316 190.807 68.8367 214.726 62.6882C214.726 62.6882 203.971 46.5477 197.077 42.8051Z" fill="url(#paint39_linear_335_14279)"/>
<path style="mix-blend-mode:multiply" opacity="0.5" d="M213.176 160.135L219.43 156.265C219.43 156.265 217.185 156.715 211.328 155.48C205.471 154.245 213.176 160.135 213.176 160.135Z" fill="url(#paint40_linear_335_14279)"/>
<path style="mix-blend-mode:multiply" opacity="0.5" d="M214.407 173.974C204.732 176.222 182.643 169.997 169.992 156.167C168.4 154.431 166.969 152.611 165.625 150.724C166.46 151.47 177.347 160.2 190.606 164.924C202.849 169.267 212.943 173.761 214.412 173.999L214.407 173.974Z" fill="url(#paint41_linear_335_14279)"/>
<g style="mix-blend-mode:multiply" opacity="0.6">
<path fill-rule="evenodd" clip-rule="evenodd" d="M76.8094 739.335C86.2801 734.721 123.596 730.795 123.596 730.795L117.93 739.739V745.406C117.93 745.406 92.7557 742.977 64.3438 760.421C72.7216 746.903 104.129 739.335 104.129 739.335H76.8094Z" fill="#3C2E92"/>
</g>
<g style="mix-blend-mode:multiply" opacity="0.5">
<path fill-rule="evenodd" clip-rule="evenodd" d="M265.456 696.514C263.23 701.978 243.763 723.631 243.763 723.631C243.763 723.631 225.064 678.463 231.985 627.71L249.024 596.465L246.191 592.822L249.024 586.751C249.024 586.751 230.771 495.809 215.755 464.968L206.406 467.68C206.406 467.68 190.581 540.896 158.931 593.632L145.13 609.457C145.13 609.457 125.663 666.281 117.932 723.914L112.266 722.7L115.099 675.225L97.4531 722.7C97.4531 722.7 98.4649 699.954 107.814 670.773C117.163 641.592 136.429 606.219 136.429 606.219L132.584 598.489L129.953 584.485L136.267 598.489H142.338L156.544 586.306C183.337 539.236 195.033 472.537 195.033 472.537C180.018 459.586 158.567 464.564 158.567 464.564L133.798 523.816L148.409 471.444V451.127L145.98 446.27L150.351 415.227L227.776 424.172H227.897C244.694 427.207 260.802 431.012 272.215 435.707C272.215 435.707 277.719 450.115 282.657 478.041L261.652 496.983C260.073 530.17 279.905 592.782 279.905 592.782L283.952 594.401L290.064 588.694L281.767 607.433C281.767 607.433 281.767 607.433 281.767 607.514C281.767 607.757 281.564 608.769 281.281 610.428C278.772 625.363 267.52 691.617 265.497 696.514H265.456Z" fill="#3C2E92"/>
</g>
<g style="mix-blend-mode:multiply" opacity="0.6">
<path fill-rule="evenodd" clip-rule="evenodd" d="M298.073 742.249H297.992C290.1 745.406 260.919 757.507 245.337 770.984V764.752L240.763 764.225C240.763 764.225 241.289 746.903 237.242 738.808L243.758 723.631L240.237 733.102C240.237 733.102 274.356 724.724 273.506 729.055C272.696 733.385 247.522 753.419 247.522 753.419L251.61 755.038C272.98 743.139 298.113 742.249 298.113 742.249H298.073Z" fill="#3C2E92"/>
</g>
<g style="mix-blend-mode:multiply" opacity="0.6">
<path fill-rule="evenodd" clip-rule="evenodd" d="M300.021 741.48C300.021 741.48 299.292 741.763 297.997 742.289C290.105 745.406 260.924 757.507 245.342 770.984V764.752L240.768 764.225C240.768 764.225 241.295 746.903 237.247 738.808L243.763 723.631C243.763 723.631 225.065 678.463 231.986 627.71L249.025 596.465L246.192 592.823L249.025 586.752C249.025 586.752 230.772 495.809 215.756 464.969L206.407 467.68L212.114 456.874L149.219 423.079L164.598 415.875C179.614 417.292 204.343 420.003 227.736 424.213H227.858C244.654 427.248 260.762 431.052 272.175 435.747C272.175 435.747 277.68 450.156 282.617 478.082C287.15 503.782 291.198 540.896 290.064 588.735L281.768 607.474C281.768 607.474 281.768 607.474 281.768 607.555L281.282 608.688C281.282 608.688 281.282 609.295 281.282 610.469C281.403 621.72 282.375 682.956 290.267 714.201L261.652 723.955C261.652 723.955 291.441 723.064 300.102 718.531L300.223 718.855C301.073 722.053 300.102 741.52 300.102 741.52L300.021 741.48Z" fill="#3C2E92"/>
</g>
<path fill-rule="evenodd" clip-rule="evenodd" d="M116.431 150.13C116.431 150.13 92.3904 186.798 97.4495 266.894C97.4495 266.894 112.789 259.326 122.543 219.824C132.297 180.323 121.774 150.13 121.774 150.13H116.431Z" fill="#27166A"/>
<path fill-rule="evenodd" clip-rule="evenodd" d="M285.688 463.35L282.166 467.68C282.166 467.68 154.839 446.27 108.578 391.065L109.185 389.77L110.319 387.503C110.319 387.503 115.418 384.549 118.373 381.19C119.465 379.975 120.275 378.68 120.437 377.466C121.003 373.5 120.234 292.271 119.992 270.415C119.992 267.016 119.951 265.032 119.951 265.032L111.007 263.211L104.288 266.449L97.3672 266.854C97.3672 266.854 97.3672 266.854 97.4077 266.813C98.0957 265.639 112.302 242.327 116.228 216.101C120.315 189.186 118.656 152.396 118.656 152.396L116.309 150.089L120.518 148.592C120.518 148.592 120.518 148.592 120.558 148.673C120.841 149.037 122.298 151.101 124.767 153.975C130.191 160.41 140.39 170.811 152.248 174.859L162.205 174.535L165.685 180.808L170.583 178.501L177.463 182.508L176.654 185.26C176.654 185.26 193.328 214.077 202.354 213.875C211.379 213.672 211.986 202.906 211.986 202.906L210.287 195.217C210.287 195.217 214.82 194.771 215.872 195.378C216.843 195.986 217.288 201.49 217.288 201.49C217.288 201.49 217.855 201.854 218.786 202.421C221.821 204.242 228.742 208.208 233.68 209.625C240.196 211.446 245.66 212.013 245.66 212.013C245.66 212.013 245.822 212.094 246.146 212.337C246.915 212.944 248.291 214.805 248.291 219.784C248.291 219.784 261.485 238.158 278.929 236.863C278.929 236.863 279.171 236.863 279.293 236.863V241.072H277.674C277.674 241.072 273.91 276.203 264.439 304.372V304.493C262.497 310.16 260.352 315.502 258.004 320.237L249.262 305.667L264.277 379.733L271.563 387.827V389.81C271.563 394.384 271.684 405.595 272.777 410.33C274.193 416.441 281.721 425.346 281.721 425.346C281.721 425.346 282.733 430.202 278.848 434.452C278.848 434.452 278.16 452.422 285.485 463.269L285.688 463.35Z" fill="url(#paint42_linear_335_14279)"/>
<path d="M147.56 178.542C143.35 198.738 124.814 216.141 124.814 216.141C124.126 214.846 123.357 213.511 122.466 212.175C112.51 195.986 93.2855 175.911 79.2414 162.191C69.4874 152.72 62.2023 146.245 62.2023 146.245C40.7922 111.033 31.0787 48.1385 31.0787 48.1385C31.0787 48.1385 21.9318 49.3527 19.0987 47.1267C16.2656 44.9006 7.52344 26.8497 7.52344 26.8497L29.7026 0.259033H34.7212L48.5225 17.3791C49.3319 15.7602 48.4011 12.4818 48.4011 12.4818C48.4011 12.4818 46.0941 11.9557 45.0013 9.81064C43.9086 7.6251 45.9727 3.2945 45.9727 3.2945C48.1178 2.48504 53.5411 4.26585 53.5411 4.26585C53.5411 8.19172 56.6575 21.1431 56.6575 21.1431L47.3083 35.0253C47.3083 35.0253 77.5416 114.433 102.109 137.017C106.196 140.781 112.47 146.528 119.107 152.599C119.795 153.247 120.443 153.854 121.131 154.461C134.082 166.319 147.519 178.542 147.519 178.542H147.56Z" fill="url(#paint43_linear_335_14279)"/>
<path fill-rule="evenodd" clip-rule="evenodd" d="M279.46 236.863V241.073H277.841C277.841 241.073 274.077 276.203 264.606 304.372V304.494C262.663 310.16 260.518 315.502 258.171 320.238L249.429 305.667L248.619 292.271L251.048 277.255C250.602 269.323 241.334 246.536 241.334 246.536L236.72 222.293L233.766 209.706C240.282 211.527 245.746 212.094 245.746 212.094C245.746 212.094 245.908 212.175 246.231 212.418C247 213.025 248.376 214.887 248.376 219.865C248.376 219.865 261.571 238.24 279.014 236.944C279.014 236.944 279.257 236.944 279.379 236.944L279.46 236.863Z" fill="url(#paint44_linear_335_14279)"/>
<path fill-rule="evenodd" clip-rule="evenodd" d="M165.766 180.849V191.088C165.766 191.088 159.21 193.598 159.898 195.338C160.545 197.078 158.4 204.971 156.215 208.492C154.029 212.013 153.665 217.679 153.665 217.679C153.665 217.679 150.063 216.951 149.011 217.679C147.918 218.408 145.53 228.081 145.53 228.081C141.604 250.664 121.57 270.537 121.57 270.537L119.992 270.415C119.992 267.016 119.951 265.032 119.951 265.032L111.007 263.211L104.288 266.449L97.3672 266.854C97.3672 266.854 97.3672 266.854 97.4077 266.813C98.0957 265.639 112.302 242.327 116.228 216.101C120.315 189.186 118.656 152.396 118.656 152.396L116.309 150.089L120.518 148.592C120.518 148.592 120.518 148.592 120.558 148.673C120.841 149.037 122.298 151.101 124.767 153.975C130.191 160.41 140.39 170.811 152.248 174.859L162.205 174.535L165.685 180.808L165.766 180.849Z" fill="url(#paint45_linear_335_14279)"/>
<path style="mix-blend-mode:multiply" opacity="0.5" fill-rule="evenodd" clip-rule="evenodd" d="M175.117 211.973C174.307 210.435 161.032 184.977 162.287 174.535L165.767 180.808C165.767 180.808 169.248 199.709 175.117 211.973Z" fill="url(#paint46_linear_335_14279)"/>
<path style="mix-blend-mode:multiply" opacity="0.5" fill-rule="evenodd" clip-rule="evenodd" d="M198.959 275.879C197.663 274.341 196.328 272.52 194.992 270.537C197.016 273.289 198.392 275.11 198.959 275.879Z" fill="url(#paint47_linear_335_14279)"/>
<path style="mix-blend-mode:multiply" opacity="0.5" fill-rule="evenodd" clip-rule="evenodd" d="M218.913 202.461C218.913 202.461 216.93 225.207 205.031 232.128C205.354 231.764 208.187 228.647 209.806 224.033C209.806 224.033 205.476 226.664 196.329 220.188C187.182 213.713 175.242 194.812 175.242 194.812L170.75 178.501L177.63 182.508L176.821 185.26C176.821 185.26 193.496 214.077 202.521 213.875C211.547 213.672 212.154 202.907 212.154 202.907L210.454 195.257C210.454 195.257 214.987 194.812 216.039 195.419C217.051 196.026 217.456 201.53 217.456 201.53C217.456 201.53 218.022 201.895 218.994 202.461H218.913Z" fill="url(#paint48_linear_335_14279)"/>
<path style="mix-blend-mode:multiply" opacity="0.5" fill-rule="evenodd" clip-rule="evenodd" d="M285.688 463.35L282.166 467.681C282.166 467.681 154.839 446.27 108.578 391.065L109.185 389.77L111.654 390.661C111.654 390.661 120.194 400.172 132.498 403.248C132.498 403.248 123.31 392.36 118.373 381.19C119.465 379.976 120.275 378.681 120.437 377.466C121.084 372.893 119.951 265.033 119.951 265.033L111.007 263.211L104.288 266.449L97.3672 266.854C97.3672 266.854 97.3672 266.854 97.4077 266.813C98.3385 265.923 113.03 251.677 122.703 234.111C132.741 215.979 137.071 195.945 137.071 195.945C137.071 195.945 136.059 229.943 119.223 251.96L123.836 258.476C123.836 258.476 145.57 220.674 140.876 192.991C137.759 174.535 129.786 160.977 124.808 153.975C130.231 160.41 140.43 170.812 152.289 174.859C152.289 174.859 175.925 242.408 194.947 270.537C183.939 255.562 154.798 213.996 145.489 182.266L140.228 178.542C140.228 178.542 181.47 300.163 188.795 314.491C195.838 328.332 209.275 351.038 210.165 352.576C208.708 350.916 185.517 324.002 176.735 308.136C167.669 291.745 147.513 212.054 147.513 212.054C147.513 212.054 146.056 239.575 135.209 261.188C135.209 261.188 130.717 276.608 128.046 290.207C125.374 303.806 126.629 366.701 126.629 366.701L130.312 372.124C130.312 372.124 133.55 338.005 140.309 314.207C146.623 291.907 155.122 271.994 156.215 269.566C155.446 272.115 148.97 293.768 145.206 320.44C141.118 348.852 139.257 387.261 140.309 395.922C141.402 404.624 152.491 417.575 159.817 419.761C167.102 421.906 190.9 409.764 216.358 385.116C239.508 362.734 247.845 332.461 249.181 327.199C248.25 332.056 242.341 358.727 227.164 383.214C210.368 410.249 182.239 414.58 182.239 414.58C182.239 414.58 212.836 431.336 234.449 424.577C256.102 417.818 271.644 387.747 271.644 387.747L272.251 406C272.251 406 242.422 426.317 230.644 428.746C219.191 431.133 192.843 425.427 191.507 425.103C193.774 425.953 267.03 452.827 281.802 425.265C281.802 425.265 282.814 430.122 278.929 434.371C278.929 434.371 267.96 440.645 248.493 440.645C229.026 440.645 170.785 426.479 168.964 426.074C170.906 427.208 235.137 465.009 285.566 463.188L285.688 463.35Z" fill="url(#paint49_linear_335_14279)"/>
<g style="mix-blend-mode:multiply" opacity="0.6">
<path fill-rule="evenodd" clip-rule="evenodd" d="M279.462 236.863V241.073H277.843C277.843 241.073 274.079 276.203 264.608 304.372V304.494L258.173 320.238L249.431 305.667L248.622 292.271L251.05 277.255C247.529 257.464 230.652 222.779 229.438 220.35L236.439 230.55L236.763 222.253L242.591 233.585L247.974 248.803L246.234 212.337C247.003 212.944 248.379 214.806 248.379 219.784L259.954 283.407C272.703 269.484 276.386 240.101 276.386 240.101L279.057 236.863C279.057 236.863 279.3 236.863 279.422 236.863H279.462Z" fill="#3C2E92"/>
</g>
<g style="mix-blend-mode:multiply" opacity="0.6">
<path fill-rule="evenodd" clip-rule="evenodd" d="M258.164 320.238C258.164 320.238 262.778 311.536 265.368 301.984C264.72 291.906 240.234 244.351 240.234 244.351C240.234 244.351 249.422 263.859 251.041 277.255L248.612 292.271L249.422 305.667L258.164 320.238Z" fill="#3C2E92"/>
</g>
<path style="mix-blend-mode:multiply" opacity="0.6" d="M119.953 265.073L120.317 303.846L135.252 261.228C135.252 261.228 143.63 242.529 145.532 228.121C145.532 228.121 134.564 258.8 121.572 270.577L119.953 265.113V265.073Z" fill="url(#paint50_linear_335_14279)"/>
<g style="mix-blend-mode:multiply" opacity="0.6">
<path fill-rule="evenodd" clip-rule="evenodd" d="M67.4609 724.845C67.4609 724.845 87.495 722.134 93.9707 723.631L72.1963 731.078L67.4609 724.845Z" fill="#3C2E92"/>
</g>
<path style="mix-blend-mode:multiply" opacity="0.5" fill-rule="evenodd" clip-rule="evenodd" d="M133.349 768.151L68.43 774.141L64.6255 770.985L63.9375 786H133.349V768.151Z" fill="url(#paint51_linear_335_14279)"/>
<path style="mix-blend-mode:multiply" opacity="0.5" fill-rule="evenodd" clip-rule="evenodd" d="M346.844 784.785V777.096L324.382 778.31L244.407 775.072L242.141 784.785H346.844Z" fill="url(#paint52_linear_335_14279)"/>
<g style="mix-blend-mode:soft-light">
<path fill-rule="evenodd" clip-rule="evenodd" d="M133.758 523.816C133.758 523.816 123.438 567.041 126.676 575.783L136.227 598.489H142.298L156.504 586.306C156.504 586.306 187.628 527.175 194.994 472.537C194.994 472.537 180.059 459.302 158.528 464.564L133.758 523.816Z" fill="#8190BB"/>
</g>
<g style="mix-blend-mode:soft-light">
<path fill-rule="evenodd" clip-rule="evenodd" d="M76.8125 739.334C76.8125 739.334 92.8802 724.076 97.4537 722.7C102.027 721.324 117.973 723.914 117.973 723.914L123.64 730.795C123.64 730.795 98.9916 732.778 76.853 739.334H76.8125Z" fill="#A3AECD"/>
</g>
<g style="mix-blend-mode:soft-light">
<path fill-rule="evenodd" clip-rule="evenodd" d="M290.224 714.16L261.609 723.914C261.609 723.914 290.831 723.307 300.059 718.491C300.059 718.491 297.266 715.536 290.264 714.16H290.224Z" fill="#A3AECD"/>
</g>
<g style="mix-blend-mode:multiply" opacity="0.6">
<path fill-rule="evenodd" clip-rule="evenodd" d="M255.056 784.866C255.056 784.866 266.955 769.446 280.797 768.151C294.639 766.856 323.577 784.785 323.577 784.785L255.016 784.866H255.056Z" fill="#6A4AB3"/>
</g>
<path style="mix-blend-mode:multiply" opacity="0.5" fill-rule="evenodd" clip-rule="evenodd" d="M140.234 178.542C140.234 178.542 177.065 287.738 184.35 303.805C191.635 319.914 210.212 352.535 210.212 352.535C210.212 352.535 178.562 308.541 170.71 288.304C162.859 268.108 140.275 178.501 140.275 178.501L140.234 178.542Z" fill="url(#paint53_linear_335_14279)"/>
<path style="mix-blend-mode:multiply" opacity="0.5" fill-rule="evenodd" clip-rule="evenodd" d="M181.109 412.637C181.109 412.637 209.036 407.497 222.675 389.729C236.314 371.962 246.797 335.334 246.797 335.334C246.797 335.334 228.544 389.406 181.109 412.637Z" fill="url(#paint54_linear_335_14279)"/>
<path style="mix-blend-mode:multiply" opacity="0.5" fill-rule="evenodd" clip-rule="evenodd" d="M148.202 410.775C148.202 410.775 142.293 405.838 140.634 397.257C138.974 388.677 142.698 336.022 145.288 320.48L130.596 370.343L126.711 366.781L126.913 303.886C126.913 303.886 121.288 375.483 120.478 377.547C119.669 379.611 118.414 381.271 118.414 381.271C118.414 381.271 124.485 394.343 132.539 403.328C140.593 412.313 155.244 417.413 155.244 417.413L148.202 410.816V410.775Z" fill="url(#paint55_linear_335_14279)"/>
<g style="mix-blend-mode:multiply" opacity="0.5">
<path fill-rule="evenodd" clip-rule="evenodd" d="M75.4824 640.823C75.4824 640.823 66.0927 678.342 73.4183 698.133C79.8535 715.577 88.8385 720.231 88.8385 720.231C88.8385 720.231 74.0659 720.838 71.5565 716.669C69.0472 712.501 64.2714 675.913 75.5229 640.823H75.4824Z" fill="#3C2E92"/>
</g>
<path style="mix-blend-mode:multiply" opacity="0.5" d="M40.0214 16.286L39.4143 16.6502C35.8527 13.1696 34.0314 8.9604 34.0314 8.9604L35.367 8.67709C35.1646 8.06999 34.9623 7.42243 34.8408 6.81533H31.9673C28.3652 4.06317 28.2438 0.622978 28.2438 0.0158844L27.5557 2.97041C35.6503 16.3265 39.0905 19.1596 39.0905 19.1596C37.7954 21.7094 33.7076 23.9758 33.7076 23.9758C30.4698 20.4952 22.4561 8.06999 22.4561 8.06999L21.849 8.71756L32.5744 24.9877C30.6721 27.497 26.7058 28.7112 26.7058 28.7112L17.4375 16.8931L24.6012 28.4279C23.1847 30.492 20.5944 31.6657 20.5944 31.6657L18.9755 30.8158L20.6753 33.3656L25.8559 34.2155L34.5575 29.6016C35.9741 25.3519 39.1714 21.1023 41.9641 17.9859C41.276 17.4597 40.6285 16.8931 40.0214 16.3265V16.286Z" fill="#E392AD"/>
<path d="M34.7188 4.91311V0.218253C34.7188 0.218253 29.2955 -0.712624 26.4219 1.27055C26.4219 1.27055 27.4742 9.81033 29.5383 12.9267L33.7879 12.1173L34.7188 4.91311Z" fill="url(#paint56_linear_335_14279)"/>
<path d="M23.1842 10.9437H20.7558L16.7085 15.1124H15.3324L10.5971 20.4144H8.41155C8.41155 20.4144 4.32378 21.7904 4 25.352C4 25.352 6.67121 31.0183 11.2851 32.3943L15.6562 28.9541L20.3915 30.8968L24.3174 28.2256L26.3815 28.4685L29.0527 24.4212C29.0527 24.4212 24.6817 16.6908 23.1842 10.9437Z" fill="#F9AC95"/>
<path style="mix-blend-mode:multiply" opacity="0.5" d="M16.7511 15.1121C16.7511 15.1121 20.1103 24.2589 24.36 28.2658C24.36 28.2658 21.0817 26.5254 15.375 15.1121H16.7511Z" fill="#EC8A80"/>
<path style="mix-blend-mode:multiply" opacity="0.5" d="M10.6401 20.4144C10.6401 20.4144 12.4209 26.283 15.6992 28.9542L14.1612 30.1684C14.1612 30.1684 9.91156 26.0806 8.41406 20.4144H10.5996H10.6401Z" fill="#EC8A80"/>
<path style="mix-blend-mode:multiply" opacity="0.5" d="M124.208 212.013L122.467 212.175C112.511 195.986 93.2863 175.911 79.2422 162.191C90.8579 160.531 105.873 171.54 111.701 167.857C117.53 164.174 117.894 151.992 119.108 152.599C119.837 152.963 120.525 153.61 121.132 154.46C128.821 165.388 124.167 212.013 124.167 212.013H124.208Z" fill="#E392AD"/>
<path d="M220.446 202.898L222.075 200.385C222.075 200.385 234.834 209.479 242.997 209.657C242.997 209.657 266.756 246.207 249.699 283.964C249.699 283.964 251.822 234.459 223.884 206.729L220.446 202.898Z" fill="url(#paint57_linear_335_14279)"/>
<g style="mix-blend-mode:multiply">
<path d="M222.075 200.385C222.075 200.385 234.386 211.67 242.382 222.511C250.404 233.35 250.377 264.355 250.377 264.355L248.385 267.304C248.385 267.304 243.391 242.641 237.318 228.077C231.245 213.513 220.446 202.898 220.446 202.898L222.075 200.385Z" fill="#EA8BC2"/>
</g>
<path d="M136.173 338.381C123.451 353.599 105.087 360.588 105.087 360.588L107.285 343.428C107.285 343.428 126.224 326.591 144.72 299.397C150.809 290.43 156.132 280.07 159.659 268.345C173.828 220.968 146.4 172.284 146.4 172.284L142.444 170.086L144.022 162.46C144.022 162.46 156.219 176.749 161.832 173.823C161.832 173.823 179.815 192.938 178.483 225.463C177.125 257.984 148.865 323.187 136.173 338.381Z" fill="url(#paint58_linear_335_14279)"/>
<g style="mix-blend-mode:multiply">
<path d="M169.129 244.369C165.451 273.92 148.27 300.338 148.27 300.338L144.752 299.347C150.842 290.381 156.165 280.02 159.692 268.296C173.861 220.919 142.444 170.086 142.444 170.086L143.323 166.131L144.202 162.615C144.202 162.615 172.81 214.791 169.106 244.339L169.129 244.369Z" fill="#EA8BC2"/>
</g>
<path style="mix-blend-mode:multiply" opacity="0.5" d="M155.048 278.203C155.048 278.203 159.179 255.864 160.919 241.859C162.659 227.854 153.812 201.017 153.812 201.017C153.812 201.017 168.077 218.018 167.06 235.653C166.046 253.261 155.071 278.233 155.071 278.233L155.048 278.203Z" fill="url(#paint59_linear_335_14279)"/>
<defs>
<linearGradient id="paint0_linear_335_14279" x1="121.813" y1="386.363" x2="144.331" y2="150.379" gradientUnits="userSpaceOnUse">
<stop stop-color="#FF4C59"/>
<stop offset="1" stop-color="#FF813B"/>
</linearGradient>
<linearGradient id="paint1_linear_335_14279" x1="105.174" y1="159.661" x2="196.721" y2="168.397" gradientUnits="userSpaceOnUse">
<stop stop-color="#FFB159"/>
<stop offset="1" stop-color="#FFA73B"/>
</linearGradient>
<linearGradient id="paint2_linear_335_14279" x1="105.144" y1="236.356" x2="111.02" y2="174.774" gradientUnits="userSpaceOnUse">
<stop stop-color="white"/>
<stop offset="1" stop-color="#D94075"/>
</linearGradient>
<linearGradient id="paint3_linear_335_14279" x1="108.732" y1="334.593" x2="147.921" y2="338.333" gradientUnits="userSpaceOnUse">
<stop stop-color="#E5658E"/>
<stop offset="1" stop-color="white"/>
</linearGradient>
<linearGradient id="paint4_linear_335_14279" x1="318.031" y1="286.766" x2="344.338" y2="137.583" gradientUnits="userSpaceOnUse">
<stop offset="0.02" stop-color="#FFBA9C"/>
<stop offset="1" stop-color="#FFA58B"/>
</linearGradient>
<linearGradient id="paint5_linear_335_14279" x1="179.932" y1="770.984" x2="179.932" y2="414.62" gradientUnits="userSpaceOnUse">
<stop offset="0.02" stop-color="#281D8B"/>
<stop offset="1" stop-color="#2B3698"/>
</linearGradient>
<radialGradient id="paint6_radial_335_14279" cx="0" cy="0" r="1" gradientUnits="userSpaceOnUse" gradientTransform="translate(256.63 750.91) scale(56.8644 56.8644)">
<stop stop-color="#B15C38"/>
<stop offset="1" stop-color="#8D423D"/>
</radialGradient>
<radialGradient id="paint7_radial_335_14279" cx="0" cy="0" r="1" gradientUnits="userSpaceOnUse" gradientTransform="translate(72.3602 753.581) scale(36.1828 36.1828)">
<stop stop-color="#B15C38"/>
<stop offset="1" stop-color="#8D423D"/>
</radialGradient>
<linearGradient id="paint8_linear_335_14279" x1="301.029" y1="784.786" x2="301.029" y2="763.537" gradientUnits="userSpaceOnUse">
<stop stop-color="#E2E3F6"/>
<stop offset="1" stop-color="#F1E8FF"/>
</linearGradient>
<linearGradient id="paint9_linear_335_14279" x1="98.4247" y1="786" x2="98.4247" y2="760.785" gradientUnits="userSpaceOnUse">
<stop stop-color="#E2E3F6"/>
<stop offset="1" stop-color="#F1E8FF"/>
</linearGradient>
<linearGradient id="paint10_linear_335_14279" x1="157.306" y1="176.1" x2="143.139" y2="140.438" gradientUnits="userSpaceOnUse">
<stop offset="0.02" stop-color="#E05215"/>
<stop offset="1" stop-color="#A73609"/>
</linearGradient>
<linearGradient id="paint11_linear_335_14279" x1="193.581" y1="218.698" x2="179.878" y2="150.463" gradientUnits="userSpaceOnUse">
<stop offset="0.02" stop-color="#FFA67F"/>
<stop offset="1" stop-color="#FF8B7C"/>
</linearGradient>
<linearGradient id="paint12_linear_335_14279" x1="216.092" y1="173.444" x2="168.678" y2="54.0864" gradientUnits="userSpaceOnUse">
<stop offset="0.02" stop-color="#FFB99B"/>
<stop offset="1" stop-color="#FFBEA3"/>
</linearGradient>
<linearGradient id="paint13_linear_335_14279" x1="171.235" y1="100.626" x2="201.161" y2="88.7379" gradientUnits="userSpaceOnUse">
<stop offset="0.02" stop-color="#E05215"/>
<stop offset="1" stop-color="#A73609"/>
</linearGradient>
<linearGradient id="paint14_linear_335_14279" x1="164.039" y1="145.456" x2="118.441" y2="113.374" gradientUnits="userSpaceOnUse">
<stop offset="0.02" stop-color="#FFBB9E"/>
<stop offset="1" stop-color="#FF9577"/>
</linearGradient>
<linearGradient id="paint15_linear_335_14279" x1="170.962" y1="123.254" x2="157.659" y2="89.7665" gradientUnits="userSpaceOnUse">
<stop offset="0.02" stop-color="#E05215"/>
<stop offset="1" stop-color="#A73609"/>
</linearGradient>
<linearGradient id="paint16_linear_335_14279" x1="163.174" y1="136.069" x2="156.715" y2="119.81" gradientUnits="userSpaceOnUse">
<stop offset="0.02" stop-color="#C23422"/>
<stop offset="1" stop-color="#A73609"/>
</linearGradient>
<linearGradient id="paint17_linear_335_14279" x1="183.436" y1="97.9516" x2="162.599" y2="45.4998" gradientUnits="userSpaceOnUse">
<stop stop-color="#C3041A"/>
<stop offset="1" stop-color="#FF3748"/>
</linearGradient>
<linearGradient id="paint18_linear_335_14279" x1="187.285" y1="82.5219" x2="171.217" y2="42.073" gradientUnits="userSpaceOnUse">
<stop stop-color="#FFC4BA"/>
<stop offset="1" stop-color="#FFD9D6"/>
</linearGradient>
<linearGradient id="paint19_linear_335_14279" x1="152.101" y1="146.546" x2="144.219" y2="126.703" gradientUnits="userSpaceOnUse">
<stop stop-color="white"/>
<stop offset="1" stop-color="#E5658E"/>
</linearGradient>
<linearGradient id="paint20_linear_335_14279" x1="180.775" y1="122.409" x2="195.923" y2="116.392" gradientUnits="userSpaceOnUse">
<stop stop-color="white"/>
<stop offset="1" stop-color="#E5658E"/>
</linearGradient>
<linearGradient id="paint21_linear_335_14279" x1="215.564" y1="115.338" x2="223.613" y2="112.141" gradientUnits="userSpaceOnUse">
<stop stop-color="white"/>
<stop offset="1" stop-color="#E5658E"/>
</linearGradient>
<linearGradient id="paint22_linear_335_14279" x1="154.845" y1="144.893" x2="147.743" y2="127.016" gradientUnits="userSpaceOnUse">
<stop stop-color="white"/>
<stop offset="1" stop-color="#E5658E"/>
</linearGradient>
<linearGradient id="paint23_linear_335_14279" x1="209.198" y1="87.1258" x2="224.115" y2="81.2002" gradientUnits="userSpaceOnUse">
<stop offset="0.02" stop-color="#E05215"/>
<stop offset="1" stop-color="#A73609"/>
</linearGradient>
<linearGradient id="paint24_linear_335_14279" x1="186.569" y1="113.199" x2="181.874" y2="101.381" gradientUnits="userSpaceOnUse">
<stop stop-color="white"/>
<stop offset="1" stop-color="#E5658E"/>
</linearGradient>
<linearGradient id="paint25_linear_335_14279" x1="219.804" y1="108.163" x2="214.108" y2="93.8239" gradientUnits="userSpaceOnUse">
<stop stop-color="white"/>
<stop offset="1" stop-color="#E5658E"/>
</linearGradient>
<linearGradient id="paint26_linear_335_14279" x1="221.514" y1="114.017" x2="215.064" y2="97.782" gradientUnits="userSpaceOnUse">
<stop stop-color="#F2DEF8"/>
<stop offset="1" stop-color="white"/>
</linearGradient>
<linearGradient id="paint27_linear_335_14279" x1="190.264" y1="121.558" x2="183.465" y2="104.444" gradientUnits="userSpaceOnUse">
<stop stop-color="#F2DEF8"/>
<stop offset="1" stop-color="white"/>
</linearGradient>
<linearGradient id="paint28_linear_335_14279" x1="193.626" y1="124.56" x2="182.886" y2="97.525" gradientUnits="userSpaceOnUse">
<stop stop-color="white"/>
<stop offset="1" stop-color="#E5658E"/>
</linearGradient>
<linearGradient id="paint29_linear_335_14279" x1="205.669" y1="123.873" x2="219.313" y2="118.453" gradientUnits="userSpaceOnUse">
<stop stop-color="white"/>
<stop offset="1" stop-color="#E5658E"/>
</linearGradient>
<linearGradient id="paint30_linear_335_14279" x1="201.264" y1="135.771" x2="223.443" y2="126.961" gradientUnits="userSpaceOnUse">
<stop stop-color="#FFC2C4"/>
<stop offset="1" stop-color="#E5658E"/>
</linearGradient>
<linearGradient id="paint31_linear_335_14279" x1="205.799" y1="136.886" x2="211.026" y2="134.81" gradientUnits="userSpaceOnUse">
<stop stop-color="#B04C8E"/>
<stop offset="1" stop-color="#FFBDAC"/>
</linearGradient>
<linearGradient id="paint32_linear_335_14279" x1="203.508" y1="140.956" x2="224.877" y2="132.468" gradientUnits="userSpaceOnUse">
<stop stop-color="white"/>
<stop offset="1" stop-color="#E5658E"/>
</linearGradient>
<linearGradient id="paint33_linear_335_14279" x1="197.683" y1="146.913" x2="195.065" y2="140.322" gradientUnits="userSpaceOnUse">
<stop stop-color="white"/>
<stop offset="1" stop-color="#E5658E"/>
</linearGradient>
<linearGradient id="paint34_linear_335_14279" x1="215.009" y1="150.797" x2="212.956" y2="145.242" gradientUnits="userSpaceOnUse">
<stop stop-color="#F2DEF8"/>
<stop offset="1" stop-color="white"/>
</linearGradient>
<linearGradient id="paint35_linear_335_14279" x1="225.456" y1="118.153" x2="213.127" y2="87.1169" gradientUnits="userSpaceOnUse">
<stop stop-color="white"/>
<stop offset="1" stop-color="#E5658E"/>
</linearGradient>
<linearGradient id="paint36_linear_335_14279" x1="209.962" y1="81.8966" x2="203.733" y2="66.2166" gradientUnits="userSpaceOnUse">
<stop stop-color="#FF273D"/>
<stop offset="1" stop-color="#FF3748"/>
</linearGradient>
<linearGradient id="paint37_linear_335_14279" x1="210.013" y1="85.196" x2="204.62" y2="71.6205" gradientUnits="userSpaceOnUse">
<stop stop-color="#C3041A"/>
<stop offset="1" stop-color="#FF3748"/>
</linearGradient>
<linearGradient id="paint38_linear_335_14279" x1="145.898" y1="115.163" x2="163.521" y2="108.163" gradientUnits="userSpaceOnUse">
<stop stop-color="#A13D7F"/>
<stop offset="1" stop-color="white"/>
</linearGradient>
<linearGradient id="paint39_linear_335_14279" x1="134.719" y1="92.0777" x2="213.859" y2="60.6399" gradientUnits="userSpaceOnUse">
<stop stop-color="#E5658E"/>
<stop offset="1" stop-color="white"/>
</linearGradient>
<linearGradient id="paint40_linear_335_14279" x1="209.989" y1="158.277" x2="218.778" y2="154.786" gradientUnits="userSpaceOnUse">
<stop stop-color="white"/>
<stop offset="1" stop-color="#E5658E"/>
</linearGradient>
<linearGradient id="paint41_linear_335_14279" x1="172.88" y1="169.136" x2="207.039" y2="155.567" gradientUnits="userSpaceOnUse">
<stop stop-color="white"/>
<stop offset="1" stop-color="#E5658E"/>
</linearGradient>
<linearGradient id="paint42_linear_335_14279" x1="191.548" y1="467.68" x2="191.548" y2="148.632" gradientUnits="userSpaceOnUse">
<stop offset="0.02" stop-color="#D7D1FD"/>
<stop offset="1" stop-color="white"/>
</linearGradient>
<linearGradient id="paint43_linear_335_14279" x1="59.5716" y1="204.607" x2="93.7712" y2="10.6606" gradientUnits="userSpaceOnUse">
<stop offset="0.02" stop-color="#FFC0A5"/>
<stop offset="1" stop-color="#FFA68C"/>
</linearGradient>
<linearGradient id="paint44_linear_335_14279" x1="256.633" y1="320.238" x2="256.633" y2="209.666" gradientUnits="userSpaceOnUse">
<stop offset="0.02" stop-color="#3B3195"/>
<stop offset="1" stop-color="#3D47BB"/>
</linearGradient>
<linearGradient id="paint45_linear_335_14279" x1="131.607" y1="270.537" x2="131.607" y2="148.632" gradientUnits="userSpaceOnUse">
<stop offset="0.02" stop-color="#3B3195"/>
<stop offset="1" stop-color="#3D47BB"/>
</linearGradient>
<linearGradient id="paint46_linear_335_14279" x1="168.681" y1="211.973" x2="168.681" y2="174.576" gradientUnits="userSpaceOnUse">
<stop stop-color="#8E81F4"/>
<stop offset="0.99" stop-color="#832297"/>
</linearGradient>
<linearGradient id="paint47_linear_335_14279" x1="196.975" y1="275.879" x2="196.975" y2="270.537" gradientUnits="userSpaceOnUse">
<stop stop-color="#8E81F4"/>
<stop offset="0.99" stop-color="#832297"/>
</linearGradient>
<linearGradient id="paint48_linear_335_14279" x1="194.791" y1="232.128" x2="194.791" y2="178.542" gradientUnits="userSpaceOnUse">
<stop stop-color="#8E81F4"/>
<stop offset="0.99" stop-color="#832297"/>
</linearGradient>
<linearGradient id="paint49_linear_335_14279" x1="191.548" y1="467.681" x2="191.548" y2="153.975" gradientUnits="userSpaceOnUse">
<stop stop-color="#8E81F4"/>
<stop offset="0.99" stop-color="#832297"/>
</linearGradient>
<linearGradient id="paint50_linear_335_14279" x1="132.743" y1="303.846" x2="132.743" y2="228.121" gradientUnits="userSpaceOnUse">
<stop stop-color="#8E81F4"/>
<stop offset="0.99" stop-color="#832297"/>
</linearGradient>
<linearGradient id="paint51_linear_335_14279" x1="63.9375" y1="777.096" x2="133.349" y2="777.096" gradientUnits="userSpaceOnUse">
<stop stop-color="#8E81F4"/>
<stop offset="0.99" stop-color="#832297"/>
</linearGradient>
<linearGradient id="paint52_linear_335_14279" x1="242.141" y1="779.929" x2="346.844" y2="779.929" gradientUnits="userSpaceOnUse">
<stop offset="0.01" stop-color="#832297"/>
<stop offset="1" stop-color="#8E81F4"/>
</linearGradient>
<linearGradient id="paint53_linear_335_14279" x1="140.234" y1="265.559" x2="210.212" y2="265.559" gradientUnits="userSpaceOnUse">
<stop stop-color="#8E81F4"/>
<stop offset="0.99" stop-color="#832297"/>
</linearGradient>
<linearGradient id="paint54_linear_335_14279" x1="181.109" y1="373.985" x2="246.797" y2="373.985" gradientUnits="userSpaceOnUse">
<stop stop-color="#8E81F4"/>
<stop offset="0.99" stop-color="#832297"/>
</linearGradient>
<linearGradient id="paint55_linear_335_14279" x1="118.414" y1="360.589" x2="155.244" y2="360.589" gradientUnits="userSpaceOnUse">
<stop stop-color="#8E81F4"/>
<stop offset="0.99" stop-color="#832297"/>
</linearGradient>
<linearGradient id="paint56_linear_335_14279" x1="29.0121" y1="12.8053" x2="31.3596" y2="-0.348367" gradientUnits="userSpaceOnUse">
<stop offset="0.02" stop-color="#FBB19A"/>
<stop offset="1" stop-color="#FA9B89"/>
</linearGradient>
<linearGradient id="paint57_linear_335_14279" x1="243.322" y1="284.513" x2="235.624" y2="199.163" gradientUnits="userSpaceOnUse">
<stop stop-color="#FF8459"/>
<stop offset="1" stop-color="#FB8836"/>
</linearGradient>
<linearGradient id="paint58_linear_335_14279" x1="131.504" y1="362.096" x2="156.866" y2="164.123" gradientUnits="userSpaceOnUse">
<stop stop-color="#FF8459"/>
<stop offset="1" stop-color="#FB8836"/>
</linearGradient>
<linearGradient id="paint59_linear_335_14279" x1="152.843" y1="277.921" x2="162.555" y2="202.11" gradientUnits="userSpaceOnUse">
<stop stop-color="#6175B8"/>
<stop offset="1" stop-color="white"/>
</linearGradient>
</defs>
</svg>
