<svg width="305" height="786" viewBox="0 0 305 786" fill="none" xmlns="http://www.w3.org/2000/svg">
<path d="M206.779 297.341C206.779 297.341 216.161 341.753 219.902 355.201C223.644 368.65 229.284 380.227 229.907 381.474C230.531 382.722 227.711 387.412 227.711 387.412L229.989 423.365L204.014 390.124C204.014 390.124 205.505 382.071 210.196 378.329C210.196 378.329 200.381 347.691 189.671 328.928C178.934 310.166 180.805 300.784 180.805 300.784C180.805 300.784 196.124 288.909 206.752 297.341H206.779Z" fill="url(#paint0_linear_36_7381)"/>
<path d="M223.382 488.135C223.382 488.135 236.474 498.442 219.284 503.133C202.094 507.824 204.046 493.03 204.046 493.03L167.117 436L204.046 390.151L229.804 420.111C229.804 420.111 234.142 424.721 233.681 427.459C233.22 430.198 230.021 435.837 230.021 435.837C230.021 435.837 229.641 449.746 230.021 455.332C230.4 460.917 225.607 470.336 225.607 470.336L223.382 488.135Z" fill="#17186E"/>
<g style="mix-blend-mode:multiply">
<path d="M202.768 393.215C202.768 393.215 214.156 415.149 220.988 437.925C220.988 437.925 206.591 407.693 202.768 406.636C198.945 405.578 230.83 457.528 230.83 457.528C230.83 457.528 208.055 429.004 203.392 430.414C198.728 431.824 176.658 452.892 176.658 452.892L175.709 448.852L170.828 433.478C175.763 425.263 191.76 412.709 191.76 412.709L202.768 393.242V393.215Z" fill="#EA8BC2"/>
</g>
<path fill-rule="evenodd" clip-rule="evenodd" d="M243.637 740.925C243.637 740.925 242.899 741.211 241.588 741.744C233.597 744.899 204.053 757.152 188.277 770.797V764.486L183.646 763.954C183.646 763.954 184.179 746.416 180.081 738.22L186.679 722.854C186.679 722.854 167.747 677.123 174.754 625.738L192.006 594.104L189.137 590.416L192.006 584.27C192.006 584.27 173.525 492.194 158.323 460.97L148.857 463.715C148.857 463.715 132.835 537.843 100.791 591.236L86.8179 607.258C86.8179 607.258 67.1079 664.789 59.2813 723.141L65.0181 730.107L59.2813 739.163V744.899C59.2813 744.899 33.7936 742.441 5.0278 760.102C5.0278 760.102 -0.872883 747.645 0.110565 745.842C1.05304 744.08 12.9773 731.746 12.9773 730.394C12.9773 729.738 11.9529 728.714 10.8465 727.607C9.57625 726.378 8.22401 725.067 8.18303 724.083C8.0601 722.321 1.4628 639.998 32.7282 595.415C32.7282 595.415 49.16 582.59 54.6509 573.821L55.5934 568.002L58.4618 564.109L90.096 446.997L87.6374 442.079L90.9565 418.559L92.1039 410.65L92.1859 410.035C92.1859 410.035 97.6768 410.445 106.528 411.265C121.73 412.699 146.767 415.444 170.452 419.706H170.575C187.58 422.779 184.677 395.722 196.233 400.475C196.233 400.475 221.017 445.972 226.017 474.246C230.606 500.267 234.704 537.843 233.556 586.278L225.156 605.25C225.156 605.25 225.156 605.25 225.156 605.332L224.664 606.479C224.664 606.479 224.664 607.094 224.664 608.282C224.787 619.674 225.771 681.672 233.761 713.306C233.761 713.306 242.571 716.052 243.678 717.691L243.801 718.019C244.661 721.256 243.678 740.966 243.678 740.966L243.637 740.925Z" fill="url(#paint1_linear_36_7381)"/>
<path fill-rule="evenodd" clip-rule="evenodd" d="M188.317 770.797L185.039 784.771H303.79C303.79 784.771 305.634 776.329 299.693 766.085C299.693 766.085 276.787 770.347 241.71 741.704C241.71 741.704 204.79 753.136 188.358 770.797H188.317Z" fill="url(#paint2_radial_36_7381)"/>
<path fill-rule="evenodd" clip-rule="evenodd" d="M55.591 744.818C55.591 744.818 59.4839 755.431 74.8912 767.929V786H4.61568C4.61568 786 3.38637 775.837 7.68895 758.504C7.68895 758.504 25.1451 744.654 55.5501 744.777L55.591 744.818Z" fill="url(#paint3_radial_36_7381)"/>
<path fill-rule="evenodd" clip-rule="evenodd" d="M278.999 763.258C278.999 763.258 269.943 767.519 268.304 778.214L187.334 774.936L185.039 784.771H303.79C303.79 784.771 306.536 775.469 299.693 766.085C299.693 766.085 286.949 766.29 278.999 763.258Z" fill="url(#paint4_linear_36_7381)"/>
<path fill-rule="evenodd" clip-rule="evenodd" d="M71.8962 765.388C71.8962 765.388 50.2194 749.817 9.11947 773.994L5.26764 770.797C5.26764 770.797 3.21879 779.689 4.57103 786H74.8466V767.929L71.8552 765.388H71.8962Z" fill="url(#paint5_linear_36_7381)"/>
<g style="mix-blend-mode:multiply" opacity="0.6">
<path fill-rule="evenodd" clip-rule="evenodd" d="M17.6522 743.203C27.2408 738.532 65.0216 734.557 65.0216 734.557L59.2848 743.613V749.35C59.2848 749.35 33.7971 746.891 5.03125 764.552C13.5135 750.866 45.3116 743.203 45.3116 743.203H17.6522Z" fill="#3C2E92"/>
</g>
<g style="mix-blend-mode:multiply" opacity="0.5">
<path fill-rule="evenodd" clip-rule="evenodd" d="M208.642 695.399C206.389 700.931 186.679 722.854 186.679 722.854C186.679 722.854 167.747 677.124 174.754 625.738L192.006 594.104L189.137 590.416L192.006 584.27C192.006 584.27 173.525 492.194 158.323 460.97L148.857 463.715C148.857 463.715 132.835 537.843 100.791 591.236L86.8178 607.258C86.8178 607.258 67.1078 664.79 59.2812 723.141L53.5445 721.911L56.4128 673.845L38.5469 721.911C38.5469 721.911 39.5713 698.882 49.037 669.338C58.5027 639.794 78.0077 603.98 78.0077 603.98L74.1149 596.153L71.4514 581.975L77.8438 596.153H83.9903L98.3733 583.819C125.5 536.163 137.342 468.633 137.342 468.633C122.14 455.52 100.422 460.56 100.422 460.56L75.3442 520.55L90.1369 467.526V446.956L87.6783 442.039L92.1038 410.609L170.493 419.665H170.616C187.621 422.738 186.012 398.392 197.568 403.145C197.568 403.145 221.058 445.931 226.058 474.206L204.791 493.383C203.192 526.984 223.271 590.375 223.271 590.375L227.369 592.014L233.556 586.237L225.156 605.209C225.156 605.209 225.156 605.209 225.156 605.291C225.156 605.537 224.951 606.561 224.664 608.241C222.124 623.362 210.732 690.441 208.683 695.399H208.642Z" fill="#3C2E92"/>
</g>
<g style="mix-blend-mode:multiply" opacity="0.6">
<path fill-rule="evenodd" clip-rule="evenodd" d="M241.674 741.704H241.592C233.602 744.9 204.057 757.152 188.281 770.798V764.487L183.651 763.954C183.651 763.954 184.184 746.416 180.086 738.221L186.683 722.854L183.118 732.443C183.118 732.443 217.662 723.961 216.801 728.345C215.982 732.73 190.494 753.013 190.494 753.013L194.633 754.653C216.269 742.605 241.715 741.704 241.715 741.704H241.674Z" fill="#3C2E92"/>
</g>
<g style="mix-blend-mode:multiply" opacity="0.6">
<path fill-rule="evenodd" clip-rule="evenodd" d="M243.633 740.926C243.633 740.926 242.896 741.213 241.585 741.745C233.594 744.901 204.05 757.153 188.273 770.798V764.488L183.643 763.955C183.643 763.955 184.176 746.417 180.078 738.221L186.675 722.855C186.675 722.855 167.744 677.125 174.751 625.74L192.002 594.105L189.134 590.417L192.002 584.271C192.002 584.271 173.522 492.196 158.319 460.971L148.854 463.717L154.631 452.776L90.9531 418.56L106.524 411.266C121.727 412.7 146.764 415.446 170.448 419.707H170.571C187.577 422.78 179.779 385.488 191.335 390.241C191.335 390.241 220.85 444.973 226.013 474.248C230.603 500.268 234.7 537.844 233.553 586.279L225.153 605.251C225.153 605.251 225.153 605.251 225.153 605.333L224.661 606.48C224.661 606.48 224.661 607.095 224.661 608.283C224.784 619.675 225.767 681.673 233.758 713.307L204.787 723.183C204.787 723.183 234.946 722.281 243.715 717.692L243.838 718.02C244.699 721.257 243.715 740.967 243.715 740.967L243.633 740.926Z" fill="#3C2E92"/>
</g>
<g style="mix-blend-mode:multiply" opacity="0.6">
<path fill-rule="evenodd" clip-rule="evenodd" d="M8.1875 724.084C8.1875 724.084 28.4711 721.338 35.0274 722.854L12.9818 730.394L8.1875 724.084Z" fill="#3C2E92"/>
</g>
<path style="mix-blend-mode:multiply" opacity="0.5" fill-rule="evenodd" clip-rule="evenodd" d="M74.8927 767.929L9.16563 773.994L5.3138 770.798L4.61719 786H74.8927V767.929Z" fill="url(#paint6_linear_36_7381)"/>
<path style="mix-blend-mode:multiply" opacity="0.5" fill-rule="evenodd" clip-rule="evenodd" d="M291.047 784.77V776.985L268.304 778.214L187.334 774.936L185.039 784.77H291.047Z" fill="url(#paint7_linear_36_7381)"/>
<g style="mix-blend-mode:soft-light">
<path fill-rule="evenodd" clip-rule="evenodd" d="M75.2998 520.551C75.2998 520.551 64.8506 564.314 68.1288 573.165L77.7994 596.153H83.9459L98.3288 583.819C98.3288 583.819 129.84 523.952 137.298 468.633C137.298 468.633 122.177 455.233 100.378 460.56L75.2998 520.551Z" fill="#8190BB"/>
</g>
<g style="mix-blend-mode:soft-light">
<path fill-rule="evenodd" clip-rule="evenodd" d="M17.6484 738.753C17.6484 738.753 33.9163 723.305 38.5467 721.912C43.1771 720.519 59.322 723.141 59.322 723.141L65.0588 730.107C65.0588 730.107 40.1038 732.115 17.6894 738.753H17.6484Z" fill="#A3AECD"/>
</g>
<g style="mix-blend-mode:soft-light">
<path fill-rule="evenodd" clip-rule="evenodd" d="M233.721 713.265L204.75 723.141C204.75 723.141 234.335 722.526 243.678 717.65C243.678 717.65 240.851 714.659 233.762 713.265H233.721Z" fill="#A3AECD"/>
</g>
<g style="mix-blend-mode:multiply" opacity="0.6">
<path fill-rule="evenodd" clip-rule="evenodd" d="M198.111 784.852C198.111 784.852 210.159 769.24 224.173 767.929C238.187 766.618 267.485 784.77 267.485 784.77L198.07 784.852H198.111Z" fill="#6A4AB3"/>
</g>
<g style="mix-blend-mode:multiply" opacity="0.5">
<path fill-rule="evenodd" clip-rule="evenodd" d="M16.2975 639.015C16.2975 639.015 6.79082 677.001 14.2077 697.038C20.723 714.7 29.8199 719.412 29.8199 719.412C29.8199 719.412 14.8633 720.027 12.3227 715.806C9.78215 711.585 4.94686 674.542 16.3385 639.015H16.2975Z" fill="#3C2E92"/>
</g>
<path d="M133.01 117.904L131.112 133.982C129.214 134.28 127.424 134.362 125.825 134.307C118.911 134.145 114.708 131.569 114.708 131.569C118.368 136.124 125.065 135.256 125.065 135.256C125.065 135.256 112.864 143.336 106.574 134.497C100.311 125.631 97.8435 108.902 97.8435 108.902C94.0204 123.57 78.4844 124.791 78.4844 124.791C95.7828 115.111 100.338 98.9514 100.338 98.9514L125.743 103.154L133.037 117.877L133.01 117.904Z" fill="url(#paint8_linear_36_7381)"/>
<g style="mix-blend-mode:multiply">
<path d="M125.798 134.307C118.884 134.145 114.681 131.569 114.681 131.569C118.341 136.124 125.038 135.256 125.038 135.256C125.038 135.256 110.533 140.272 107.686 132.084C104.839 123.95 105.869 109.824 105.869 109.824L121.676 108.468C128.238 114.623 134.311 121.049 128.59 134.253L125.798 134.307Z" fill="#CE8BC2"/>
</g>
<path d="M126.936 147.078C126.936 147.078 95.9991 153.883 71.5969 156.459C47.1947 159.035 38.3015 153.883 38.3015 153.883C38.3015 153.883 13.4383 188.833 16.4751 244.66H20.9217C20.9217 244.66 18.8068 275.867 18.1019 300.486L14.1162 303.062C14.1162 303.062 9.42553 320.415 8.01562 336.141L10.3474 337.307C10.3474 337.307 14.3331 363.824 23.7144 385.867C23.7144 385.867 77.8873 388.687 107.929 385.867C137.944 383.047 145.671 381.176 145.671 381.176L126.909 147.105L126.936 147.078Z" fill="url(#paint9_linear_36_7381)"/>
<path d="M56.9844 386.951C56.9844 386.951 60.4007 225.029 75.9096 192.086L123.575 188.399L121.108 361.465L98.1156 385.867L56.9844 386.978V386.951Z" fill="#CC2C36"/>
<path d="M38.3006 153.883C38.3006 153.883 73.0872 166.708 82.6312 174.869L130.704 154.941L131.409 145.532C131.409 145.532 111.236 150.548 85.5866 154.29C59.9372 158.032 38.2734 153.91 38.2734 153.91L38.3006 153.883Z" fill="url(#paint10_linear_36_7381)"/>
<path d="M193.662 191.652C193.662 191.652 199.6 206.348 202.718 222.914C205.836 239.481 215.462 292.352 215.462 292.352L190.192 294.548C190.192 294.548 187.697 208.544 193.635 191.652H193.662Z" fill="url(#paint11_linear_36_7381)"/>
<path d="M130.051 112.779C130.051 112.779 126.553 141.465 125.794 147.701C125.008 153.965 115.328 159.279 115.328 159.279C115.328 159.279 125.17 185.389 144.719 188.372C164.268 191.354 163.943 167.576 163.943 167.576C163.943 167.576 155.022 157.733 154.724 155.375C154.426 153.016 154.887 145.993 154.887 145.993C154.887 145.993 139.025 130.864 130.051 112.779Z" fill="url(#paint12_linear_36_7381)"/>
<path d="M207.406 380.227C196.452 418.051 169.881 440.257 137.046 449.34C104.212 458.423 82.2468 454.979 82.2468 453.109C82.2468 451.238 86.9375 448.716 86.9375 448.716C86.9375 448.716 88.8927 421.196 91.3872 402.732C93.8816 384.294 105.161 345.983 101.853 322.991C98.5723 300.025 54.2416 197.997 62.6739 188.616C71.1062 179.262 109.58 160.662 109.58 160.662C109.58 160.662 110.285 155.049 111.912 154.914C113.566 154.778 117.416 157.923 117.416 157.923C117.416 157.923 135.935 189.727 151.254 185.525C166.573 181.295 160.066 163.102 160.066 163.102C160.988 160.58 161.747 159.577 162.37 159.523C162.506 159.469 162.642 159.523 162.777 159.604C164.241 160.445 164.811 166.139 164.811 166.139C165.516 166.708 166.248 167.305 166.98 167.955C177.852 176.984 193.578 191.653 193.578 191.653C192.629 200.708 189.511 281.073 191.734 303.279C193.904 325.485 197.347 368.813 197.347 368.813C197.347 368.813 200.926 366.318 202.336 367.403C203.746 368.487 203.285 377.408 203.285 377.408C203.285 377.408 205.318 372.88 207.352 372.88C209.385 372.88 207.352 380.227 207.352 380.227H207.406Z" fill="url(#paint13_linear_36_7381)"/>
<g style="mix-blend-mode:multiply">
<path d="M193.961 222.589L175.523 229.177L179.021 284.001H193.391L193.961 222.589Z" fill="#E89FC0"/>
</g>
<path style="mix-blend-mode:multiply" opacity="0.5" d="M112.836 175.384C112.836 175.384 131.273 196.94 142.281 202.254C153.289 207.568 184.063 211.825 184.063 211.825C184.063 211.825 158.088 211.527 142.281 207.432C126.474 203.338 114.056 189.51 114.056 189.51L112.836 175.384Z" fill="url(#paint14_linear_36_7381)"/>
<path style="mix-blend-mode:multiply" opacity="0.5" d="M104.243 299.591C104.243 299.591 113.353 275.786 116.634 271.366C119.914 266.947 145.699 248.021 145.699 248.021C145.699 248.021 117.176 260.439 112.485 265.13C107.794 269.821 101.992 299.374 101.992 299.374L104.243 299.564V299.591Z" fill="url(#paint15_linear_36_7381)"/>
<g style="mix-blend-mode:multiply">
<path d="M92.3672 396.739C92.3672 396.739 108.798 373.178 110.479 372.717C112.187 372.256 107.768 364.582 109.747 362.088C111.726 359.594 111.482 363.091 116.173 361.004C120.864 358.889 159.392 331.45 169.559 328.874C179.727 326.298 194.64 335.408 194.64 335.408L193.338 303.306L177.694 299.185L101.993 332.236C101.993 332.236 102.237 343.976 99.0914 357.723C95.9462 371.469 92.3672 396.766 92.3672 396.766V396.739Z" fill="#B2B3E8"/>
</g>
<path d="M169.344 169.88L171.215 167.494C171.215 167.494 183.253 177.825 191.468 178.747C191.468 178.747 212.102 217.763 191.468 254.285C191.468 254.285 198.111 204.559 172.462 174.056L169.344 169.88Z" fill="url(#paint16_linear_36_7381)"/>
<g style="mix-blend-mode:multiply">
<path d="M58.6383 345.739C58.6383 345.739 57.608 368.325 56.9844 386.952L94.4553 386.192C94.4553 386.192 100.963 357.235 101.993 344.573C103.023 331.911 100.8 323.235 100.8 323.235L86.3755 334.975C86.3755 334.975 69.6735 338.228 58.6383 345.766V345.739Z" fill="#D98BA1"/>
</g>
<g style="mix-blend-mode:multiply">
<path d="M8.04688 336.113H41.505L47.3073 307.671H54.7906L53.7061 386.897L46.9819 386.734L46.6566 325.648L45.1111 338.011L10.3786 337.306L8.04688 336.113Z" fill="#D98BA1"/>
</g>
<g style="mix-blend-mode:multiply">
<path d="M171.215 167.494C171.215 167.494 182.602 179.994 189.679 191.653C196.783 203.312 193.936 234.573 193.936 234.573L191.658 237.366C191.658 237.366 188.865 212.042 184.066 196.804C179.267 181.566 169.344 169.88 169.344 169.88L171.215 167.494Z" fill="#EA8BC2"/>
</g>
<path d="M197.297 208.842C197.297 208.842 207.817 205.236 214.812 209.628C214.812 209.628 206.461 211.662 197.297 208.842Z" fill="#A21642"/>
<path d="M199.008 213.153V209.113C199.008 209.113 208.47 207.242 213.27 209.113V213.153C213.27 213.153 205.569 211.96 199.008 213.153Z" fill="url(#paint17_linear_36_7381)"/>
<path d="M197.292 208.842L196.695 202.362C196.695 202.362 206.049 199.163 215.973 202.633L214.807 209.656C214.807 209.656 210.062 206.05 197.292 208.869V208.842Z" fill="url(#paint18_linear_36_7381)"/>
<path d="M188.483 263.883L187.453 217.952C187.453 217.952 206.46 204.179 222.863 217.952L218.281 321.092C218.281 321.092 200.576 323.207 188.727 320.631L188.456 263.883H188.483Z" fill="url(#paint19_linear_36_7381)"/>
<path style="mix-blend-mode:multiply" opacity="0.3" d="M191.225 316.89C191.225 316.89 209.527 318.299 215.98 315.941L220.074 226.33L189.68 225.381L191.225 316.862V316.89Z" fill="url(#paint20_linear_36_7381)"/>
<path d="M85.3139 337.062C74.4956 353.981 56.9531 363.363 56.9531 363.363V345.847C56.9531 345.847 80.325 328.359 95.4001 298.67C100.362 288.882 104.375 277.792 106.408 265.564C114.542 216.163 88.8658 172.293 88.8658 172.293L85.3139 173.378L86.5882 165.407C86.5882 165.407 98.9791 164.946 104.239 161.285C104.239 161.285 120.345 180.644 123.192 213.479C126.011 246.313 96.1051 320.171 85.3139 337.062Z" fill="url(#paint21_linear_36_7381)"/>
<g style="mix-blend-mode:multiply">
<path d="M51.6457 244.659L31.419 299.592L24.1525 302.981L20.9531 336.141L28.2196 337.686L46.8737 362.115L57.0141 386.979L57.7462 362.685C57.7462 362.685 76.1834 353.005 85.3749 337.062L51.6999 244.659H51.6457Z" fill="#D98BA1"/>
</g>
<path d="M45.1016 307.671C45.1016 307.671 80.4305 315.182 104.046 284.381C104.046 284.381 82.1658 279.229 45.1016 307.671Z" fill="url(#paint22_linear_36_7381)"/>
<path d="M225.353 271.854L222.317 272.207C222.317 272.207 225.597 278.904 225.353 281.371C225.109 283.811 223.591 285.113 223.591 285.574C223.591 286.035 224.757 290.265 224.54 292.84C224.296 295.416 222.669 298.67 222.994 300.188C223.347 301.761 221.015 307.238 220.283 308.187C219.578 309.136 198.348 309.136 191.57 309.136C190.567 309.136 189.482 309.054 188.343 308.973C181.89 308.322 173.973 306.153 170.692 305.746C166.815 305.285 129.995 326.271 98.5431 333.999C67.1185 341.753 60.557 340.126 58.6862 338.933C56.8154 337.767 54.3209 327.356 52.1247 319.249C49.6032 310.085 49.7116 301.435 49.7116 301.435C49.7116 301.435 72.0532 289.695 86.342 288.068V298.615C86.342 298.615 93.2289 298.453 108.548 299.998C123.867 301.571 157.949 294.196 161.392 289.966C164.836 285.764 174.38 265.889 177.661 264.48C180.941 263.07 188.452 257.267 188.452 257.267V263.856C188.452 263.856 222.073 261.66 223.482 261.497C224.892 261.334 233.894 264.425 234.572 265.727C235.277 267.001 234.111 268.655 233.298 269.821C232.484 271.014 225.326 271.827 225.326 271.827L225.353 271.854Z" fill="url(#paint23_linear_36_7381)"/>
<path d="M62.6983 188.616C62.6983 188.616 60.1225 193.198 55.1065 221.043C50.0905 248.889 45.1016 307.671 45.1016 307.671C45.1016 307.671 73.5708 286.414 104.046 284.381C104.046 284.381 101.064 271.719 104.046 242.951C107.029 214.184 76.5262 185.606 62.6983 188.643V188.616Z" fill="url(#paint24_linear_36_7381)"/>
<g style="mix-blend-mode:multiply">
<path d="M112.833 240.267C112.941 270.418 99.0862 299.158 99.0862 299.158L95.4259 298.616C100.388 288.828 104.4 277.738 106.434 265.51C114.568 216.109 86.3157 173.026 86.3157 173.026L85.3125 173.324L86.5868 165.352C86.5868 165.352 112.724 210.09 112.806 240.24L112.833 240.267Z" fill="#EA8BC2"/>
</g>
<path d="M75.9123 178.855C75.9123 178.855 66.6937 166.301 41.3696 164.431C41.3696 164.431 21.1971 188.345 20.9531 244.66C20.9531 244.66 27.0537 204.45 39.9597 182.027C39.9597 182.027 53.5707 172.05 54.4926 174.869C55.4416 177.689 54.3299 185.389 56.987 185.389C59.6442 185.389 62.6809 188.616 62.6809 188.616L75.8852 178.855H75.9123Z" fill="#CC4236"/>
<path style="mix-blend-mode:multiply" opacity="0.5" d="M150.171 195.855C130.677 195.855 109.609 160.662 109.609 160.662C109.609 160.662 110.314 155.049 111.941 154.914C113.595 154.778 117.445 157.923 117.445 157.923C117.445 157.923 135.964 189.727 151.283 185.525C166.602 181.295 160.095 163.102 160.095 163.102C161.017 160.58 161.776 159.577 162.399 159.523C162.589 159.577 162.752 159.604 162.806 159.604C163.674 159.496 165.978 164.431 165.978 164.431C165.978 164.431 166.439 165.786 167.009 167.955C169.151 175.927 165.463 195.855 150.144 195.855H150.171Z" fill="url(#paint25_linear_36_7381)"/>
<path d="M45.1016 307.671V298.643C45.1016 298.643 76.5262 274.783 103.043 276.057L104.046 284.381C104.046 284.381 70.751 289.532 45.1016 307.671Z" fill="url(#paint26_linear_36_7381)"/>
<g style="mix-blend-mode:multiply">
<path d="M128.59 123.706C128.59 123.706 130.515 176.957 154.7 155.375L154.863 145.993C154.863 145.993 139.001 139.106 130.027 112.779L128.562 123.706H128.59Z" fill="#E89FC0"/>
</g>
<g style="mix-blend-mode:multiply" opacity="0.8">
<path d="M160.095 163.129C160.095 163.129 160.881 178.34 153.344 184.847C153.344 184.847 167.497 179.641 160.095 163.129Z" fill="#9C92AD"/>
</g>
<path style="mix-blend-mode:multiply" opacity="0.5" d="M103.046 276.057C103.046 276.057 104.32 253.092 104.266 238.803C104.212 224.514 91.875 198.702 91.875 198.702C91.875 198.702 108.387 213.94 109.634 231.781C110.882 249.594 103.073 276.084 103.073 276.084L103.046 276.057Z" fill="url(#paint27_linear_36_7381)"/>
<path style="mix-blend-mode:multiply" opacity="0.5" d="M196.59 358.835C196.59 358.835 183.63 381.61 168.311 388.036C152.992 394.435 133.443 390.232 126.719 386.951C126.719 386.951 137.971 393.676 154.402 393.188C170.833 392.727 191.954 379.875 197.404 368.812L196.59 358.835Z" fill="url(#paint28_linear_36_7381)"/>
<path style="mix-blend-mode:multiply" opacity="0.5" d="M203.396 372.717C203.396 372.717 197.079 388.605 178.94 406.609C160.801 424.612 123.547 432.746 123.547 432.746C123.547 432.746 151.718 431.336 169.396 421.657C187.074 411.95 191.277 394.76 195.669 388.361C200.034 381.962 203.342 377.407 203.342 377.407L203.396 372.717Z" fill="url(#paint29_linear_36_7381)"/>
<path style="mix-blend-mode:multiply" opacity="0.5" d="M86.9375 448.716C86.9375 448.716 103.317 454.491 124.384 450.587C145.425 446.683 156.595 437.925 156.595 437.925C156.595 437.925 117.766 452.458 86.9375 446.683V448.716Z" fill="url(#paint30_linear_36_7381)"/>
<path style="mix-blend-mode:multiply" d="M201.226 353.629L220.992 358.862C220.992 358.862 216.112 342.702 215.163 335.68C214.214 328.657 212.099 321.96 212.099 321.96L193.391 321.445L195.045 339.991L201.226 353.656V353.629Z" fill="url(#paint31_linear_36_7381)"/>
<path style="mix-blend-mode:multiply" d="M51.153 314.992C51.153 314.992 63.8693 290.861 86.4006 298.642V288.095C86.4006 288.095 65.3605 294.982 49.8516 304.526L51.153 314.992Z" fill="url(#paint32_linear_36_7381)"/>
<path style="mix-blend-mode:multiply" opacity="0.3" d="M66.0625 191.652L67.3911 295.145L83.1712 289.18L66.0625 191.652Z" fill="url(#paint33_linear_36_7381)"/>
<path style="mix-blend-mode:multiply" opacity="0.5" d="M107.328 362.089C107.328 362.089 123.352 377.625 141.762 381.881C160.172 386.165 169.337 381.881 169.337 381.881C169.337 381.881 159.305 388.199 141.762 384.593C124.22 380.987 107.328 362.089 107.328 362.089Z" fill="url(#paint34_linear_36_7381)"/>
<path style="mix-blend-mode:multiply" opacity="0.5" d="M225.36 271.854L222.323 272.207C222.323 272.207 225.604 278.904 225.36 281.371C225.116 283.811 223.597 285.113 223.597 285.574C223.597 286.035 224.763 290.264 224.546 292.84C224.302 295.416 222.675 298.67 223.001 300.188C223.353 301.76 221.022 307.237 220.289 308.186C219.584 309.135 198.355 309.135 191.576 309.135C190.573 309.135 189.488 309.054 188.35 308.973L186.75 308.485C186.75 308.485 213.484 306.912 214.813 306.261C216.087 305.638 215.978 297.205 215.978 297.205C217.524 295.036 215.978 286.577 215.978 286.577C217.036 283.133 215.978 272.342 215.978 272.342L222.892 271.366C222.892 271.366 224.953 268.899 225.387 267.082C225.848 265.293 223.543 261.524 223.543 261.524C224.953 261.388 233.955 264.452 234.633 265.754C235.337 267.028 234.172 268.682 233.358 269.848C232.545 271.041 225.387 271.854 225.387 271.854H225.36Z" fill="url(#paint35_linear_36_7381)"/>
<path style="mix-blend-mode:multiply" opacity="0.5" d="M188.487 263.883L177.695 264.507L188.487 257.294V263.883Z" fill="url(#paint36_linear_36_7381)"/>
<path style="mix-blend-mode:multiply" opacity="0.5" d="M177.698 264.507C177.698 264.507 172.221 282.402 171.516 285.33C170.811 288.258 161.43 289.966 161.43 289.966C161.43 289.966 165.958 283.486 169.021 277.223C172.112 270.96 176.179 265.239 177.698 264.479V264.507Z" fill="url(#paint37_linear_36_7381)"/>
<path style="mix-blend-mode:multiply" opacity="0.5" d="M54.4881 174.869C54.4881 174.869 45.1068 183.871 42.287 193.605C39.4672 203.366 33.8547 234.302 36.1864 237.366C38.5182 240.43 55.898 193.361 55.6539 188.399C55.4099 183.437 54.4881 174.869 54.4881 174.869Z" fill="url(#paint38_linear_36_7381)"/>
<g style="mix-blend-mode:multiply">
<path d="M188.727 314.992L218.661 313.582L218.878 308.539L188.375 308.973L188.727 314.992Z" fill="#E89FC0"/>
</g>
<path style="mix-blend-mode:multiply" opacity="0.5" d="M58.7188 338.933C58.7188 338.933 68.3983 334.242 74.5802 332.697C80.7621 331.124 98.5757 334.026 98.5757 334.026C98.5757 334.026 66.3919 343.325 58.7188 338.96V338.933Z" fill="url(#paint39_linear_36_7381)"/>
<g style="mix-blend-mode:soft-light">
<path d="M208.305 216.977L209.281 259.437H220.072L221.373 218.278C221.373 218.278 214.487 215.594 208.305 216.977Z" fill="white"/>
</g>
<path d="M199.113 51.8009C198.436 54.9461 192.199 76.5827 193.42 85.8826V86.0995C194.667 95.291 195.67 101.934 195.887 109.905C195.968 112.806 194.206 118.527 191.467 124.763C186.695 135.717 178.832 148.271 172.596 149.599C171.973 149.735 171.295 149.816 170.536 149.816C159.717 150.142 137.457 138.754 126.91 121.266C125.581 119.07 124.443 116.819 123.412 114.515C123.385 114.515 123.385 114.46 123.385 114.46C115.766 97.1347 115.902 77.2605 112.404 63.8122C108.419 48.5744 122.03 21.0812 142.636 13.7606C163.215 6.43991 181.679 10.9408 181.679 10.9408C181.679 10.9408 193.284 40.603 198.137 46.4324C198.137 46.4324 199.818 48.6557 199.113 51.828V51.8009Z" fill="url(#paint40_linear_36_7381)"/>
<path d="M173.978 51.9093C173.978 51.9093 172.351 57.6032 169.938 60.0434C169.938 60.0434 162.156 60.0434 153.155 62.104C144.153 64.1647 141.008 66.6591 141.008 66.6591C141.008 66.6591 144.804 59.935 151.067 56.7898C157.33 53.6717 173.978 51.9093 173.978 51.9093Z" fill="url(#paint41_linear_36_7381)"/>
<path d="M119.133 82.6287C119.133 82.6287 110.321 72.5425 101.753 73.1661C93.2127 73.7626 90.7182 91.6304 97.3068 101.635C103.895 111.64 116.395 114.84 118.13 113.809C119.838 112.779 123.254 105.241 123.254 105.241L119.133 82.6287Z" fill="url(#paint42_linear_36_7381)"/>
<path d="M149.819 43.7481C149.819 43.7481 134.039 70.6176 123.492 79.05L122.679 88.5668C122.679 88.5668 116.632 79.3753 110.586 75.5252L111.264 64.4086C111.264 64.4086 133.876 48.7099 149.819 43.721V43.7481Z" fill="url(#paint43_linear_36_7381)"/>
<path d="M118.016 82.0869L123.493 79.0501C123.493 79.0501 123.872 89.0008 126.123 93.5017L123.221 98.4906C123.221 98.4906 120.781 86.8046 118.016 82.0869Z" fill="url(#paint44_linear_36_7381)"/>
<path d="M110.935 69.7772C110.935 69.7772 100.822 41.8502 101.256 32.8756C101.69 23.901 130.593 3.70144 130.593 3.70144C130.593 3.70144 167.982 0.312247 177.391 4.8131C186.799 9.31395 197.428 39.5456 197.428 39.5456C197.428 39.5456 162.695 39.1389 143.417 47.1102C124.112 55.0816 110.935 69.8043 110.935 69.8043V69.7772Z" fill="url(#paint45_linear_36_7381)"/>
<path d="M104.627 50.2283C104.627 50.2283 91.4226 45.5918 78.9503 49.7673C78.9503 49.7673 75.9407 56.0848 81.5261 57.9827C81.5261 57.9827 96.3301 54.6207 107.23 58.7961L104.627 50.2283Z" fill="#A21642"/>
<path d="M125.906 7.11759C125.906 7.11759 124.306 1.69488 124.821 1.1255C125.309 0.556112 128.617 -0.284408 130.488 0.0951816C132.331 0.474771 134.012 3.10479 134.012 3.10479L130.623 3.70128L125.933 7.14471L125.906 7.11759Z" fill="#A21642"/>
<path d="M130.598 3.70135C130.598 3.70135 120.457 16.038 120.484 21.4336C120.512 26.8292 133.39 51.3941 133.39 51.3941C133.39 51.3941 161.019 33.1196 194.748 31.0318C194.748 31.0318 184.12 6.33137 176.962 3.70135C169.804 1.07134 144.155 1.04422 130.598 3.70135Z" fill="url(#paint46_linear_36_7381)"/>
<path d="M141.492 25.365C141.492 25.365 166.355 10.0187 184.467 14.1129L190.568 24.9312C190.568 24.9312 171.127 24.7143 145.776 35.5597L141.492 25.365Z" fill="#FF3748"/>
<path style="mix-blend-mode:multiply" opacity="0.5" d="M119.535 96.6195C119.535 96.6195 113.787 85.6385 106.033 84.7708C98.2784 83.9032 95.1875 89.8411 95.1875 89.8411C95.1875 89.8411 97.682 86.7501 104.216 86.6417C104.216 86.6417 103.81 93.393 104.759 99.3037C105.708 105.214 110.805 107.628 112.757 106.543C114.709 105.486 109.259 95.7518 111.293 93.2303C113.326 90.7087 119.535 96.6195 119.535 96.6195Z" fill="url(#paint47_linear_36_7381)"/>
<path style="mix-blend-mode:multiply" opacity="0.5" d="M144.773 82.3308C144.773 82.3308 147.973 90.3835 156.026 90.8173C164.078 91.2512 162.479 80.3786 162.479 80.3786L144.773 82.3308Z" fill="url(#paint48_linear_36_7381)"/>
<path style="mix-blend-mode:multiply" opacity="0.5" d="M183.602 83.0356C183.602 83.0356 186.53 90.8443 190.299 90.8985C194.067 90.9528 193.254 83.361 193.254 83.361L183.602 83.0356Z" fill="url(#paint49_linear_36_7381)"/>
<path style="mix-blend-mode:multiply" opacity="0.5" d="M108.745 85.5029C108.745 85.5029 104.217 87.9702 104.298 95.2366C104.379 102.503 109.748 107.085 112.052 106.19C114.357 105.296 109.097 95.1553 111.293 93.2573C113.489 91.3865 118.424 95.6704 118.424 95.6704C118.424 95.6704 114.52 87.7533 108.745 85.5029Z" fill="url(#paint50_linear_36_7381)"/>
<path d="M184.938 63.0258C184.938 63.0258 186.646 57.8742 198.142 55.5696C198.142 55.5696 200.772 49.6317 199.525 45.7545C199.525 45.7545 190.008 48.5201 184.938 63.0258Z" fill="url(#paint51_linear_36_7381)"/>
<path style="mix-blend-mode:multiply" opacity="0.5" d="M144.039 80.731C144.039 80.731 147.293 69.1806 160.253 63.7037L161.853 67.2284L144.039 80.731Z" fill="url(#paint52_linear_36_7381)"/>
<g style="mix-blend-mode:multiply">
<path d="M196.976 60.8566C196.976 60.8566 186.158 62.5919 167.72 64.4356C149.283 66.2793 131.117 53.4546 131.117 53.4546C131.117 53.4546 148.605 42.3109 161.728 37.9727C174.851 33.6346 192.068 37.8643 192.068 37.8643L198.142 46.4051C198.142 46.4051 202.128 43.4768 196.976 60.8295V60.8566Z" fill="#C98BC2"/>
</g>
<path style="mix-blend-mode:multiply" opacity="0.5" d="M183.308 82.0049C183.308 82.0049 182.793 69.4784 194.614 62.8627L194.181 67.472L183.308 82.0049Z" fill="url(#paint53_linear_36_7381)"/>
<path d="M183.3 81.0564C182.839 83.8491 187.15 88.6211 190.024 87.4552C192.925 86.2893 194.66 76.3929 194.172 67.4725C194.172 67.4725 185.577 67.364 183.3 81.0564Z" fill="url(#paint54_linear_36_7381)"/>
<path d="M161.992 84.0117C159.471 89.0819 148.951 93.1761 144.07 80.7038C144.07 80.7038 149.032 69.3162 161.884 67.2013C161.884 67.2013 166.412 75.1184 162.019 83.9846L161.992 84.0117Z" fill="url(#paint55_linear_36_7381)"/>
<mask id="mask0_36_7381" style="mask-type:luminance" maskUnits="userSpaceOnUse" x="183" y="67" width="12" height="21">
<path d="M183.3 81.0564C182.839 83.8491 187.15 88.6211 190.024 87.4552C192.925 86.2893 194.66 76.3929 194.172 67.4725C194.172 67.4725 185.577 67.3641 183.3 81.0564Z" fill="white"/>
</mask>
<g mask="url(#mask0_36_7381)">
<path d="M189.648 82.8733C189.648 82.8733 186.937 73.7089 194.149 67.2287C194.149 67.2287 196.399 78.5351 194.149 81.7345C191.925 84.9339 189.621 82.8733 189.621 82.8733H189.648Z" fill="#AD7A90"/>
<g style="mix-blend-mode:multiply">
<path d="M191.325 83.5239C191.325 83.5239 189.021 75.0103 194.579 69.696C194.579 69.696 195.772 76.61 194.986 79.728C194.199 82.819 192.139 83.6866 191.325 83.5239Z" fill="#AB8BC2"/>
</g>
</g>
<path d="M183.711 78.9687C183.711 78.9687 185.853 70.1568 194.123 68.5029L197.159 65.9542C197.159 65.9542 186.802 64.951 183.711 78.9687Z" fill="#95344D"/>
<path d="M162.535 68.6924L164.622 64.9778C164.622 64.9778 149.439 67.4994 144.07 80.7037C144.07 80.7037 148.951 72.0003 162.562 68.6653L162.535 68.6924Z" fill="#95344D"/>
<mask id="mask1_36_7381" style="mask-type:luminance" maskUnits="userSpaceOnUse" x="144" y="67" width="20" height="22">
<path d="M162 84.0117C159.479 89.0819 148.959 93.1761 144.078 80.7038C144.078 80.7038 149.04 69.3162 161.892 67.2013C161.892 67.2013 166.42 75.1184 162.027 83.9846L162 84.0117Z" fill="white"/>
</mask>
<g mask="url(#mask1_36_7381)">
<path d="M158.394 87.7534C158.394 87.7534 154.896 73.1392 163.301 70.4278C163.301 70.4278 168.236 83.1712 158.394 87.7534Z" fill="#AD7A90"/>
<g style="mix-blend-mode:multiply">
<path d="M163.899 72.1358C163.899 72.1358 157.717 76.2299 160.618 86.3704C160.618 86.3704 166.041 82.4389 163.899 72.1358Z" fill="#AB8BC2"/>
</g>
</g>
<path d="M153.289 80.3512C153.289 80.3512 157.004 80.1885 157.871 82.927C157.871 82.927 155.16 83.7132 153.289 80.3512Z" fill="white"/>
<path d="M187.023 80.1887C187.023 80.1887 189.437 80.1073 190.006 81.9782C190.006 81.9782 188.352 82.2222 187.023 80.1887Z" fill="white"/>
<path style="mix-blend-mode:multiply" opacity="0.3" d="M188.835 97.731C188.835 97.731 182.951 94.0164 175.468 95.2636C167.984 96.4837 173.271 87.6176 181.866 86.3433C181.866 86.3433 182.761 92.1185 188.835 97.731Z" fill="url(#paint56_linear_36_7381)"/>
<path style="mix-blend-mode:multiply" opacity="0.5" d="M169.941 60.0432C169.941 60.0432 168.396 83.5236 163.027 89.7597C157.659 95.9958 148.549 92.3084 142.584 85.6927C136.619 79.0769 141.011 66.6318 141.011 66.6318C141.011 66.6318 151.83 58.9045 169.941 60.0161V60.0432Z" fill="url(#paint57_linear_36_7381)"/>
<path style="mix-blend-mode:multiply" opacity="0.5" d="M170.648 98.0566C170.648 98.0566 167.801 100.361 166.635 103.208C165.469 106.028 168.316 108.495 171.569 106.733C174.823 104.943 176.07 105.215 175.691 106.516C175.338 107.818 177.263 109.255 182.008 109.119C186.753 108.983 191.444 104.672 190.034 100.144C190.034 100.144 192.745 108.116 181.845 110.204C170.973 112.291 169.156 107.628 165.415 106.109C161.673 104.591 170.62 98.0566 170.62 98.0566H170.648Z" fill="url(#paint58_linear_36_7381)"/>
<path style="mix-blend-mode:multiply" opacity="0.5" d="M169.289 108.007C169.289 108.007 172.868 105.838 174.495 106.109C176.122 106.38 174.983 108.414 173.302 109.119C171.621 109.824 169.289 108.034 169.289 108.034V108.007Z" fill="url(#paint59_linear_36_7381)"/>
<path style="mix-blend-mode:multiply" opacity="0.5" d="M164.602 104.401C164.602 104.401 165.442 105.242 171.868 104.916C179.27 104.537 184.476 105.323 189.953 103.886C189.953 103.886 186.347 117.524 179.758 117.768C171.109 118.066 164.602 104.401 164.602 104.401Z" fill="url(#paint60_linear_36_7381)"/>
<g style="mix-blend-mode:multiply">
<path d="M157.281 112.047C157.281 112.047 165.497 118.527 175.23 120.262C179.785 121.076 185.046 119.91 186.645 118.5C188.218 117.09 190.333 115.219 190.333 115.219C190.333 115.219 186.564 119.015 185.859 119.937C185.154 120.859 180.499 128.733 176.269 128.543C172.012 128.354 164.412 118.337 161.972 116.629C159.532 114.921 157.308 112.047 157.308 112.047H157.281Z" fill="#EA7F88"/>
</g>
<path style="mix-blend-mode:multiply" opacity="0.5" d="M160.617 109.227C160.617 109.227 157.038 112.21 155.221 117.931C155.221 117.931 154.191 114.813 154.787 112.074C155.411 109.309 160.617 109.227 160.617 109.227Z" fill="url(#paint61_linear_36_7381)"/>
<path d="M168.187 119.935C168.187 119.935 172.849 122.298 175.228 122.627C177.579 122.982 182.797 121.426 182.797 121.426C182.797 121.426 179.015 125.294 175.382 125.261C171.775 125.229 168.188 119.908 168.188 119.908L168.187 119.935Z" fill="url(#paint62_linear_36_7381)"/>
<path d="M171.94 121.626L165.18 117.422L168.736 120.681L171.94 121.626Z" fill="#C22A57"/>
<path d="M182.349 121.849L185.885 119.194L181.592 121.749L182.349 121.849Z" fill="#C22A57"/>
<path style="mix-blend-mode:multiply" opacity="0.5" d="M184.935 63.0259C184.935 63.0259 181.844 77.5317 182.414 84.5812C182.983 91.6307 194.317 92.9322 194.262 92.5526C194.208 92.173 192.852 83.6593 193.53 78.2637C194.208 72.8953 198.14 55.5697 198.14 55.5697C198.14 55.5697 189.111 53.8073 184.935 63.0259Z" fill="url(#paint63_linear_36_7381)"/>
<path d="M133.5 52.0176C133.5 52.0176 162.674 53.8613 172.815 49.3876C182.955 44.9139 204.619 34.7734 218.203 33.4991C231.787 32.2247 236.315 41.3078 236.315 41.3078C236.315 41.3078 232.41 33.6618 218.745 31.2215C205.514 31.2758 193.421 31.0046 193.421 31.0046C193.421 31.0046 154.757 33.7431 133.5 52.0176Z" fill="url(#paint64_linear_36_7381)"/>
<path d="M198.57 47.1372C198.57 47.1372 217.685 48.0862 235.227 44.8868C235.227 44.8868 229.642 34.3125 213.672 34.665C197.675 35.0175 193.445 40.5758 193.445 40.5758L198.597 47.1372H198.57Z" fill="#A21642"/>
<path d="M236.287 41.3076L235.202 44.9137C235.202 44.9137 226.309 31.4382 205.106 36.7254C183.903 42.0125 181.978 49.3603 170.753 53.2104C159.528 57.0877 131.086 53.4544 131.086 53.4544L133.363 51.4209C133.363 51.4209 157.63 52.6682 167.147 49.9839C176.664 47.2997 195.698 34.7732 213.837 32.7397C231.975 30.7062 236.287 41.2805 236.287 41.2805V41.3076Z" fill="url(#paint65_linear_36_7381)"/>
<path style="mix-blend-mode:multiply" opacity="0.5" d="M114.521 78.3449C114.521 78.3449 124.878 72.5426 129.108 61.9683C129.108 61.9683 120.839 71.9461 110.562 75.5251L114.494 78.3177L114.521 78.3449Z" fill="url(#paint66_linear_36_7381)"/>
<path style="mix-blend-mode:multiply" opacity="0.5" d="M180.135 6.00583C180.135 6.00583 139.682 9.99152 120.458 21.4334C101.235 32.8754 101.641 37.6473 101.641 37.6473C101.641 37.6473 105.925 56.1117 110.914 69.7769C110.914 69.7769 125.664 57.0878 135.018 50.3636C144.372 43.6394 167.853 32.4687 194.722 31.0316C194.722 31.0316 186.697 11.4828 180.135 6.00583Z" fill="url(#paint67_linear_36_7381)"/>
<path style="mix-blend-mode:multiply" opacity="0.5" d="M172.166 134.795L179.676 132.002C179.676 132.002 177.182 132.002 171.19 129.427C165.197 126.851 172.166 134.795 172.166 134.795Z" fill="url(#paint68_linear_36_7381)"/>
<path style="mix-blend-mode:multiply" opacity="0.5" d="M170.506 149.843C159.688 150.169 137.428 138.781 126.88 121.293C125.552 119.096 124.413 116.846 123.383 114.541C124.115 115.517 133.306 129.996 146.456 137.886C158.603 145.153 168.988 149.301 170.506 149.87V149.843Z" fill="url(#paint69_linear_36_7381)"/>
<defs>
<linearGradient id="paint0_linear_36_7381" x1="205.306" y1="423.067" x2="205.306" y2="294.054" gradientUnits="userSpaceOnUse">
<stop offset="0.02" stop-color="#FFA67F"/>
<stop offset="1" stop-color="#FF8B7C"/>
</linearGradient>
<linearGradient id="paint1_linear_36_7381" x1="122.058" y1="770.797" x2="122.058" y2="409.995" gradientUnits="userSpaceOnUse">
<stop offset="0.02" stop-color="#281D8B"/>
<stop offset="1" stop-color="#2B3698"/>
</linearGradient>
<radialGradient id="paint2_radial_36_7381" cx="0" cy="0" r="1" gradientUnits="userSpaceOnUse" gradientTransform="translate(199.709 750.473) scale(57.5727 57.5726)">
<stop stop-color="#B15C38"/>
<stop offset="1" stop-color="#8D423D"/>
</radialGradient>
<radialGradient id="paint3_radial_36_7381" cx="0" cy="0" r="1" gradientUnits="userSpaceOnUse" gradientTransform="translate(13.1389 753.177) scale(36.6334 36.6334)">
<stop stop-color="#B15C38"/>
<stop offset="1" stop-color="#8D423D"/>
</radialGradient>
<linearGradient id="paint4_linear_36_7381" x1="244.661" y1="784.771" x2="244.661" y2="763.258" gradientUnits="userSpaceOnUse">
<stop stop-color="#E2E3F6"/>
<stop offset="1" stop-color="#F1E8FF"/>
</linearGradient>
<linearGradient id="paint5_linear_36_7381" x1="39.5244" y1="786" x2="39.5244" y2="760.471" gradientUnits="userSpaceOnUse">
<stop stop-color="#E2E3F6"/>
<stop offset="1" stop-color="#F1E8FF"/>
</linearGradient>
<linearGradient id="paint6_linear_36_7381" x1="4.61719" y1="776.985" x2="74.8927" y2="776.985" gradientUnits="userSpaceOnUse">
<stop stop-color="#8E81F4"/>
<stop offset="0.99" stop-color="#832297"/>
</linearGradient>
<linearGradient id="paint7_linear_36_7381" x1="185.039" y1="779.853" x2="291.047" y2="779.853" gradientUnits="userSpaceOnUse">
<stop offset="0.01" stop-color="#832297"/>
<stop offset="1" stop-color="#8E81F4"/>
</linearGradient>
<linearGradient id="paint8_linear_36_7381" x1="109.053" y1="139.864" x2="101.57" y2="98.7302" gradientUnits="userSpaceOnUse">
<stop offset="0.02" stop-color="#E05215"/>
<stop offset="1" stop-color="#A73609"/>
</linearGradient>
<linearGradient id="paint9_linear_36_7381" x1="76.884" y1="387.087" x2="76.884" y2="147.078" gradientUnits="userSpaceOnUse">
<stop stop-color="#FF4C59"/>
<stop offset="1" stop-color="#FF813B"/>
</linearGradient>
<linearGradient id="paint10_linear_36_7381" x1="38.3006" y1="160.201" x2="131.408" y2="160.201" gradientUnits="userSpaceOnUse">
<stop stop-color="#FFB159"/>
<stop offset="1" stop-color="#FFA73B"/>
</linearGradient>
<linearGradient id="paint11_linear_36_7381" x1="202.583" y1="294.521" x2="202.583" y2="191.652" gradientUnits="userSpaceOnUse">
<stop stop-color="#006F63"/>
<stop offset="1" stop-color="#009993"/>
</linearGradient>
<linearGradient id="paint12_linear_36_7381" x1="139.603" y1="188.455" x2="139.603" y2="112.625" gradientUnits="userSpaceOnUse">
<stop offset="0.02" stop-color="#FFA67F"/>
<stop offset="1" stop-color="#FF8B7C"/>
</linearGradient>
<linearGradient id="paint13_linear_36_7381" x1="134.948" y1="455.333" x2="134.948" y2="154.948" gradientUnits="userSpaceOnUse">
<stop offset="0.02" stop-color="#D7D1FD"/>
<stop offset="1" stop-color="white"/>
</linearGradient>
<linearGradient id="paint14_linear_36_7381" x1="112.836" y1="193.605" x2="184.063" y2="193.605" gradientUnits="userSpaceOnUse">
<stop stop-color="#6175B8"/>
<stop offset="1" stop-color="white"/>
</linearGradient>
<linearGradient id="paint15_linear_36_7381" x1="101.992" y1="273.806" x2="145.699" y2="273.806" gradientUnits="userSpaceOnUse">
<stop stop-color="#6175B8"/>
<stop offset="1" stop-color="white"/>
</linearGradient>
<linearGradient id="paint16_linear_36_7381" x1="184.988" y1="254.258" x2="184.988" y2="167.494" gradientUnits="userSpaceOnUse">
<stop stop-color="#FF8459"/>
<stop offset="1" stop-color="#FB8836"/>
</linearGradient>
<linearGradient id="paint17_linear_36_7381" x1="206.166" y1="213.153" x2="206.166" y2="208.273" gradientUnits="userSpaceOnUse">
<stop stop-color="#B39AD1"/>
<stop offset="1" stop-color="#958EFF"/>
</linearGradient>
<linearGradient id="paint18_linear_36_7381" x1="206.321" y1="209.629" x2="206.321" y2="201.006" gradientUnits="userSpaceOnUse">
<stop stop-color="#FF273D"/>
<stop offset="1" stop-color="#FF3748"/>
</linearGradient>
<linearGradient id="paint19_linear_36_7381" x1="205.185" y1="321.933" x2="205.185" y2="211.825" gradientUnits="userSpaceOnUse">
<stop stop-color="#D0C7F8"/>
<stop offset="1" stop-color="#E1D6FF"/>
</linearGradient>
<linearGradient id="paint20_linear_36_7381" x1="204.89" y1="317.296" x2="204.89" y2="225.408" gradientUnits="userSpaceOnUse">
<stop stop-color="#8B8BE0"/>
<stop offset="1" stop-color="#A177B7"/>
</linearGradient>
<linearGradient id="paint21_linear_36_7381" x1="90.1943" y1="363.336" x2="90.1943" y2="161.258" gradientUnits="userSpaceOnUse">
<stop stop-color="#FF8459"/>
<stop offset="1" stop-color="#FB8836"/>
</linearGradient>
<linearGradient id="paint22_linear_36_7381" x1="74.6001" y1="308.478" x2="74.6001" y2="284.008" gradientUnits="userSpaceOnUse">
<stop offset="0.02" stop-color="#3B3195"/>
<stop offset="1" stop-color="#3D47BB"/>
</linearGradient>
<linearGradient id="paint23_linear_36_7381" x1="49.7387" y1="298.615" x2="234.843" y2="298.615" gradientUnits="userSpaceOnUse">
<stop offset="0.02" stop-color="#FFBEA2"/>
<stop offset="1" stop-color="#FFBDA1"/>
</linearGradient>
<linearGradient id="paint24_linear_36_7381" x1="74.7021" y1="307.671" x2="74.7021" y2="188.377" gradientUnits="userSpaceOnUse">
<stop offset="0.02" stop-color="#3B3195"/>
<stop offset="1" stop-color="#3D47BB"/>
</linearGradient>
<linearGradient id="paint25_linear_36_7381" x1="138.491" y1="195.855" x2="138.491" y2="154.94" gradientUnits="userSpaceOnUse">
<stop stop-color="#8E81F4"/>
<stop offset="0.99" stop-color="#832297"/>
</linearGradient>
<linearGradient id="paint26_linear_36_7381" x1="74.6001" y1="307.671" x2="74.6001" y2="275.996" gradientUnits="userSpaceOnUse">
<stop offset="0.02" stop-color="#3B3195"/>
<stop offset="1" stop-color="#3D47BB"/>
</linearGradient>
<linearGradient id="paint27_linear_36_7381" x1="100.795" y1="276.057" x2="100.795" y2="198.675" gradientUnits="userSpaceOnUse">
<stop stop-color="#6175B8"/>
<stop offset="1" stop-color="white"/>
</linearGradient>
<linearGradient id="paint28_linear_36_7381" x1="126.719" y1="376.025" x2="197.404" y2="376.025" gradientUnits="userSpaceOnUse">
<stop stop-color="white"/>
<stop offset="1" stop-color="#6175B8"/>
</linearGradient>
<linearGradient id="paint29_linear_36_7381" x1="123.574" y1="402.731" x2="203.396" y2="402.731" gradientUnits="userSpaceOnUse">
<stop stop-color="white"/>
<stop offset="1" stop-color="#6175B8"/>
</linearGradient>
<linearGradient id="paint30_linear_36_7381" x1="91.3872" y1="444.92" x2="156.595" y2="444.92" gradientUnits="userSpaceOnUse">
<stop stop-color="#6175B8"/>
<stop offset="1" stop-color="white"/>
</linearGradient>
<linearGradient id="paint31_linear_36_7381" x1="206.871" y1="358.107" x2="216.188" y2="326.875" gradientUnits="userSpaceOnUse">
<stop offset="0.02" stop-color="#D1A1D6"/>
<stop offset="0.99" stop-color="#BD89C4"/>
</linearGradient>
<linearGradient id="paint32_linear_36_7381" x1="67.7024" y1="314.449" x2="71.5603" y2="290.626" gradientUnits="userSpaceOnUse">
<stop offset="0.02" stop-color="#D1A1D6"/>
<stop offset="0.99" stop-color="#BD89C4"/>
</linearGradient>
<linearGradient id="paint33_linear_36_7381" x1="74.6033" y1="295.145" x2="74.6033" y2="191.652" gradientUnits="userSpaceOnUse">
<stop stop-color="#6175B8"/>
<stop offset="1" stop-color="white"/>
</linearGradient>
<linearGradient id="paint34_linear_36_7381" x1="138.346" y1="385.704" x2="138.346" y2="362.089" gradientUnits="userSpaceOnUse">
<stop stop-color="#6175B8"/>
<stop offset="1" stop-color="white"/>
</linearGradient>
<linearGradient id="paint35_linear_36_7381" x1="210.8" y1="309.135" x2="210.8" y2="261.524" gradientUnits="userSpaceOnUse">
<stop stop-color="white"/>
<stop offset="1" stop-color="#E5658E"/>
</linearGradient>
<linearGradient id="paint36_linear_36_7381" x1="183.091" y1="264.507" x2="183.091" y2="257.294" gradientUnits="userSpaceOnUse">
<stop stop-color="white"/>
<stop offset="1" stop-color="#E5658E"/>
</linearGradient>
<linearGradient id="paint37_linear_36_7381" x1="169.564" y1="289.993" x2="169.564" y2="264.507" gradientUnits="userSpaceOnUse">
<stop stop-color="white"/>
<stop offset="1" stop-color="#E5658E"/>
</linearGradient>
<linearGradient id="paint38_linear_36_7381" x1="45.649" y1="237.502" x2="45.649" y2="174.869" gradientUnits="userSpaceOnUse">
<stop stop-color="white"/>
<stop offset="1" stop-color="#D94075"/>
</linearGradient>
<linearGradient id="paint39_linear_36_7381" x1="58.7188" y1="336.167" x2="98.5757" y2="336.167" gradientUnits="userSpaceOnUse">
<stop stop-color="#E5658E"/>
<stop offset="1" stop-color="white"/>
</linearGradient>
<linearGradient id="paint40_linear_36_7381" x1="172.425" y1="149.639" x2="147.381" y2="11.9653" gradientUnits="userSpaceOnUse">
<stop offset="0.02" stop-color="#FFB99B"/>
<stop offset="1" stop-color="#FFBEA3"/>
</linearGradient>
<linearGradient id="paint41_linear_36_7381" x1="140.125" y1="62.2288" x2="174.644" y2="55.9495" gradientUnits="userSpaceOnUse">
<stop offset="0.02" stop-color="#E05215"/>
<stop offset="1" stop-color="#A73609"/>
</linearGradient>
<linearGradient id="paint42_linear_36_7381" x1="111.464" y1="115.065" x2="103.768" y2="72.7568" gradientUnits="userSpaceOnUse">
<stop offset="0.02" stop-color="#FFB374"/>
<stop offset="1" stop-color="#FF9577"/>
</linearGradient>
<linearGradient id="paint43_linear_36_7381" x1="134.976" y1="86.3421" x2="127.95" y2="47.7156" gradientUnits="userSpaceOnUse">
<stop offset="0.02" stop-color="#E05215"/>
<stop offset="1" stop-color="#A73609"/>
</linearGradient>
<linearGradient id="paint44_linear_36_7381" x1="123.907" y1="98.3597" x2="120.496" y2="79.6066" gradientUnits="userSpaceOnUse">
<stop offset="0.02" stop-color="#C23422"/>
<stop offset="1" stop-color="#A73609"/>
</linearGradient>
<linearGradient id="paint45_linear_36_7381" x1="153.719" y1="61.9875" x2="142.714" y2="1.48685" gradientUnits="userSpaceOnUse">
<stop stop-color="#C3041A"/>
<stop offset="1" stop-color="#FF3748"/>
</linearGradient>
<linearGradient id="paint46_linear_36_7381" x1="161.156" y1="46.3327" x2="152.669" y2="-0.323266" gradientUnits="userSpaceOnUse">
<stop stop-color="#FFC4BA"/>
<stop offset="1" stop-color="#FFD9D6"/>
</linearGradient>
<linearGradient id="paint47_linear_36_7381" x1="109.832" y1="107.176" x2="105.668" y2="84.2882" gradientUnits="userSpaceOnUse">
<stop stop-color="white"/>
<stop offset="1" stop-color="#E5658E"/>
</linearGradient>
<linearGradient id="paint48_linear_36_7381" x1="145.637" y1="87.5441" x2="163.11" y2="84.3656" gradientUnits="userSpaceOnUse">
<stop stop-color="white"/>
<stop offset="1" stop-color="#E5658E"/>
</linearGradient>
<linearGradient id="paint49_linear_36_7381" x1="184.314" y1="87.4532" x2="193.597" y2="85.7645" gradientUnits="userSpaceOnUse">
<stop stop-color="white"/>
<stop offset="1" stop-color="#E5658E"/>
</linearGradient>
<linearGradient id="paint50_linear_36_7381" x1="113.118" y1="105.999" x2="109.367" y2="85.3791" gradientUnits="userSpaceOnUse">
<stop stop-color="white"/>
<stop offset="1" stop-color="#E5658E"/>
</linearGradient>
<linearGradient id="paint51_linear_36_7381" x1="183.579" y1="55.9511" x2="200.785" y2="52.8211" gradientUnits="userSpaceOnUse">
<stop offset="0.02" stop-color="#E05215"/>
<stop offset="1" stop-color="#A73609"/>
</linearGradient>
<linearGradient id="paint52_linear_36_7381" x1="153.799" y1="78.9487" x2="151.319" y2="65.3173" gradientUnits="userSpaceOnUse">
<stop stop-color="white"/>
<stop offset="1" stop-color="#E5658E"/>
</linearGradient>
<linearGradient id="paint53_linear_36_7381" x1="190.393" y1="80.6983" x2="187.384" y2="64.1593" gradientUnits="userSpaceOnUse">
<stop stop-color="white"/>
<stop offset="1" stop-color="#E5658E"/>
</linearGradient>
<linearGradient id="paint54_linear_36_7381" x1="190.955" y1="87.3193" x2="187.549" y2="68.5929" gradientUnits="userSpaceOnUse">
<stop stop-color="#F2DEF8"/>
<stop offset="1" stop-color="white"/>
</linearGradient>
<linearGradient id="paint55_linear_36_7381" x1="155.958" y1="88.6707" x2="152.367" y2="68.9306" gradientUnits="userSpaceOnUse">
<stop stop-color="#F2DEF8"/>
<stop offset="1" stop-color="white"/>
</linearGradient>
<linearGradient id="paint56_linear_36_7381" x1="171.918" y1="94.4481" x2="187.656" y2="91.5851" gradientUnits="userSpaceOnUse">
<stop stop-color="white"/>
<stop offset="1" stop-color="#E5658E"/>
</linearGradient>
<linearGradient id="paint57_linear_36_7381" x1="158.909" y1="92.599" x2="153.237" y2="61.415" gradientUnits="userSpaceOnUse">
<stop stop-color="white"/>
<stop offset="1" stop-color="#E5658E"/>
</linearGradient>
<linearGradient id="paint58_linear_36_7381" x1="164.666" y1="106.213" x2="190.249" y2="101.56" gradientUnits="userSpaceOnUse">
<stop stop-color="#FFC2C4"/>
<stop offset="1" stop-color="#E5658E"/>
</linearGradient>
<linearGradient id="paint59_linear_36_7381" x1="169.274" y1="108.378" x2="175.303" y2="107.282" gradientUnits="userSpaceOnUse">
<stop stop-color="#B04C8E"/>
<stop offset="1" stop-color="#FFBDAC"/>
</linearGradient>
<linearGradient id="paint60_linear_36_7381" x1="165.955" y1="112.235" x2="190.604" y2="107.751" gradientUnits="userSpaceOnUse">
<stop stop-color="white"/>
<stop offset="1" stop-color="#E5658E"/>
</linearGradient>
<linearGradient id="paint61_linear_36_7381" x1="158.453" y1="117.348" x2="157.07" y2="109.745" gradientUnits="userSpaceOnUse">
<stop stop-color="white"/>
<stop offset="1" stop-color="#E5658E"/>
</linearGradient>
<linearGradient id="paint62_linear_36_7381" x1="176.119" y1="125.212" x2="175.117" y2="118.837" gradientUnits="userSpaceOnUse">
<stop stop-color="#F2DEF8"/>
<stop offset="1" stop-color="white"/>
</linearGradient>
<linearGradient id="paint63_linear_36_7381" x1="194.292" y1="92.5839" x2="187.78" y2="56.785" gradientUnits="userSpaceOnUse">
<stop stop-color="white"/>
<stop offset="1" stop-color="#E5658E"/>
</linearGradient>
<linearGradient id="paint64_linear_36_7381" x1="185.511" y1="50.5283" x2="182.221" y2="32.4421" gradientUnits="userSpaceOnUse">
<stop stop-color="#FF273D"/>
<stop offset="1" stop-color="#FF3748"/>
</linearGradient>
<linearGradient id="paint65_linear_36_7381" x1="184.858" y1="54.0639" x2="182.009" y2="38.4053" gradientUnits="userSpaceOnUse">
<stop stop-color="#C3041A"/>
<stop offset="1" stop-color="#FF3748"/>
</linearGradient>
<linearGradient id="paint66_linear_36_7381" x1="109.942" y1="72.3222" x2="130.269" y2="68.6245" gradientUnits="userSpaceOnUse">
<stop stop-color="#A13D7F"/>
<stop offset="1" stop-color="white"/>
</linearGradient>
<linearGradient id="paint67_linear_36_7381" x1="102.952" y1="45.2634" x2="194.236" y2="28.6577" gradientUnits="userSpaceOnUse">
<stop stop-color="#E5658E"/>
<stop offset="1" stop-color="white"/>
</linearGradient>
<linearGradient id="paint68_linear_36_7381" x1="169.16" y1="132.127" x2="179.297" y2="130.283" gradientUnits="userSpaceOnUse">
<stop stop-color="white"/>
<stop offset="1" stop-color="#E5658E"/>
</linearGradient>
<linearGradient id="paint69_linear_36_7381" x1="127.183" y1="135.766" x2="166.583" y2="128.599" gradientUnits="userSpaceOnUse">
<stop stop-color="white"/>
<stop offset="1" stop-color="#E5658E"/>
</linearGradient>
</defs>
</svg>
