<svg width="527" height="825" viewBox="0 0 527 825" fill="none" xmlns="http://www.w3.org/2000/svg">
<path fill-rule="evenodd" clip-rule="evenodd" d="M283.128 824.945C253.429 824.945 46.0301 825.142 16.8457 824.788C15.5407 824.788 14.4334 823.882 14.2357 822.582C13.3657 817.344 9.88573 813.365 4.38894 812.341C3.16304 812.105 2.29304 811.12 2.21395 809.899C0.355328 779.019 -0.435576 39.153 0.236693 18.238C0.236693 17.0563 1.0276 16.111 2.17441 15.7959C8.06665 14.181 11.3489 9.06055 11.5071 2.91602C11.5071 1.49805 12.733 0.355794 14.1566 0.316406C32.2683 -0.0380863 252.678 0.00130211 283.128 0.00130211C313.578 0.00130211 494.732 0.0013018 512.843 0.316406C514.267 0.316406 515.453 1.45866 515.493 2.91602C515.612 9.06055 518.933 14.181 524.826 15.7959C525.972 16.111 526.724 17.0957 526.763 18.238C527.436 39.153 526.645 779.019 524.786 809.899C524.707 811.12 523.837 812.105 522.611 812.341C517.114 813.365 513.634 817.344 512.764 822.582C512.567 823.882 511.459 824.788 510.154 824.788C480.97 825.142 312.826 824.945 283.128 824.945Z" fill="url(#paint0_linear_104_17493)"/>
<path fill-rule="evenodd" clip-rule="evenodd" d="M508.198 817.437C510.136 812.218 514.05 808.185 519.229 806.129C520.218 787.863 520.534 103.509 520.811 85.2431C521.008 72.0774 521.167 58.9511 521.206 45.7854C521.206 37.8385 521.246 29.8125 521.088 21.826C515.434 19.0585 511.678 13.9187 510.294 7.82999C492.384 7.55324 486.645 7.59277 468.695 7.59277C457.624 7.59277 282.554 7.59277 271.484 7.59277C260.414 7.59277 83.3432 7.59277 72.2729 7.59277C54.3627 7.59277 36.3734 7.55324 18.4237 7.82999C17.0794 13.9582 13.3234 19.098 7.63014 21.826C7.43246 29.8125 7.47199 37.8385 7.51153 45.7854C7.51153 58.9511 7.66968 72.0774 7.9069 85.2431C8.22319 103.509 8.49995 787.863 9.48837 806.129C14.7072 808.185 18.5818 812.218 20.5192 817.437C48.8275 817.753 247.136 817.555 275.444 817.555C303.753 817.555 479.811 817.753 508.119 817.437H508.198Z" fill="url(#paint1_linear_104_17493)"/>
<path style="mix-blend-mode:screen" fill-rule="evenodd" clip-rule="evenodd" d="M19.0067 8.46232C17.5452 14.3928 13.8321 19.414 8.34162 22.2211C8.18362 30.0494 8.18362 37.9173 8.22312 45.7456C8.22312 58.9113 8.38112 72.0376 8.61812 85.2033C8.93412 103.39 9.01237 787.228 9.99988 805.375C15.0559 807.471 19.0462 811.914 21.0607 816.975C49.1848 817.291 77.3089 817.093 105.433 817.093C133.557 817.093 479.985 817.251 508.109 816.975C510.124 811.914 513.916 807.96 518.972 805.865C519.959 787.678 520.236 103.39 520.552 85.2033C520.749 72.0376 520.907 58.9113 520.947 45.7456C520.947 37.9173 520.986 30.0494 520.828 22.2211C515.338 19.414 511.625 14.3928 510.163 8.46232C492.428 8.18556 156.349 8.2251 138.613 8.2251C127.553 8.2251 116.493 8.2251 105.433 8.2251C94.373 8.2251 83.3129 8.2251 72.2529 8.2251C54.5173 8.2251 36.7422 8.18556 19.0067 8.46232Z" fill="url(#paint2_linear_104_17493)"/>
<path style="mix-blend-mode:screen" opacity="0.5" fill-rule="evenodd" clip-rule="evenodd" d="M19.0167 8.46232C17.5538 14.3928 13.8374 19.414 8.34175 22.2211C8.1836 30.0494 8.1836 367.917 8.22314 375.746C8.22314 381.597 8.26267 387.448 8.34175 393.3C8.53943 416.389 519.468 416.389 519.705 393.3C519.745 387.448 519.784 381.597 519.824 375.746C519.824 367.917 519.863 30.0494 519.705 22.2211C514.209 19.414 510.493 14.3928 509.03 8.46232C491.278 8.18556 156.486 8.2251 138.734 8.2251C127.664 8.2251 116.594 8.2251 105.523 8.2251C94.453 8.2251 83.3827 8.2251 72.3124 8.2251C54.5603 8.2251 36.7687 8.18556 19.0167 8.46232Z" fill="url(#paint3_linear_104_17493)"/>
<path d="M509.627 804.254H18.1234C16.3838 804.254 15 802.831 15 801.13V29.3734C15 27.6338 16.4233 26.25 18.1234 26.25H509.627C511.367 26.25 512.751 27.6733 512.751 29.3734V801.091C512.751 802.831 511.327 804.214 509.627 804.214V804.254Z" fill="url(#paint4_radial_104_17493)"/>
<path d="M510.627 804.504H18.1234C16.3838 804.504 15 803.081 15 801.38V29.3734C15 27.6338 16.4233 26.25 18.1234 26.25H510.627C512.367 26.25 513.751 27.6733 513.751 29.3734V801.341C513.751 803.081 512.327 804.464 510.627 804.464V804.504ZM18.1234 28.0292C17.3722 28.0292 16.7792 28.6222 16.7792 29.3734V801.341C16.7792 802.092 17.3722 802.685 18.1234 802.685H510.627C511.379 802.685 511.972 802.092 511.972 801.341V29.3734C511.972 28.6222 511.379 28.0292 510.627 28.0292H18.1234Z" fill="url(#paint5_linear_104_17493)"/>
<defs>
<linearGradient id="paint0_linear_104_17493" x1="57.8649" y1="824.915" x2="57.8649" y2="0.00727692" gradientUnits="userSpaceOnUse">
<stop stop-color="#266EE0"/>
<stop offset="0.4" stop-color="#3A9EED"/>
<stop offset="1" stop-color="#AEDDFF"/>
</linearGradient>
<linearGradient id="paint1_linear_104_17493" x1="105.523" y1="682.5" x2="105.523" y2="7.55325" gradientUnits="userSpaceOnUse">
<stop stop-color="#266EE0"/>
<stop offset="0.4" stop-color="#3A9EED"/>
<stop offset="1" stop-color="#AEDDFF"/>
</linearGradient>
<linearGradient id="paint2_linear_104_17493" x1="105.433" y1="638" x2="105.433" y2="8.2251" gradientUnits="userSpaceOnUse">
<stop offset="0.02" stop-color="#131932"/>
<stop offset="1" stop-color="#0F4B94"/>
</linearGradient>
<linearGradient id="paint3_linear_104_17493" x1="105.523" y1="80.6566" x2="105.523" y2="8.2251" gradientUnits="userSpaceOnUse">
<stop offset="0.02" stop-color="#150000"/>
<stop offset="0.98" stop-color="#0D64C5"/>
</linearGradient>
<radialGradient id="paint4_radial_104_17493" cx="0" cy="0" r="1" gradientUnits="userSpaceOnUse" gradientTransform="translate(64 744) rotate(-68.9968) scale(719.825 888.666)">
<stop stop-color="#0087F0"/>
<stop offset="1" stop-color="#0058C2"/>
</radialGradient>
<linearGradient id="paint5_linear_104_17493" x1="63.6547" y1="804.504" x2="63.6547" y2="26.25" gradientUnits="userSpaceOnUse">
<stop stop-color="#3BB0FF"/>
<stop offset="1" stop-color="#A8DCFF"/>
</linearGradient>
</defs>
</svg>
