<svg width="170" height="50" viewBox="0 0 170 50" fill="none" xmlns="http://www.w3.org/2000/svg">
<g style="mix-blend-mode:multiply" opacity="0.5">
<path fill-rule="evenodd" clip-rule="evenodd" d="M4.67994 10.4485C10.4492 9.29461 73.6544 3.84589 84.5518 3.07666H84.8082H85.0646C95.9621 3.84589 159.167 9.29461 164.937 10.4485C166.347 10.7049 167.372 11.7946 167.565 13.2049C168.142 16.9228 168.462 21.5382 168.462 26.5382C168.462 31.5382 168.142 36.1536 167.565 39.8716C167.372 41.2818 166.347 42.3716 164.937 42.628C159.167 43.7818 95.9621 49.2306 85.0646 49.9998H84.8082H84.5518C73.6544 49.2306 10.4492 43.7818 4.67994 42.628C3.26969 42.3716 2.24404 41.2818 2.05174 39.8716C1.47481 36.1536 1.1543 31.5382 1.1543 26.5382C1.1543 21.5382 1.47481 16.9228 2.05174 13.2049C2.24404 11.7946 3.26969 10.7049 4.67994 10.4485Z" fill="#AA72A3"/>
</g>
<path fill-rule="evenodd" clip-rule="evenodd" d="M3.58975 7.4359C9.42309 6.28206 73.5257 0.769232 84.5514 0H84.8719H85.1924C96.2181 0.833334 160.321 6.28206 166.154 7.4359C167.564 7.69232 168.59 8.84616 168.846 10.2564C169.423 14.0385 169.744 18.718 169.744 23.7821C169.744 28.8462 169.423 33.5257 168.846 37.3077C168.654 38.718 167.564 39.8077 166.154 40.1283C160.321 41.2821 96.2181 46.7949 85.1924 47.5642H84.8719H84.5514C73.5257 46.7308 9.42309 41.2821 3.58975 40.1283C2.17949 39.8718 1.15385 38.7821 0.897439 37.3077C0.320515 33.5257 0 28.8462 0 23.7821C0 18.718 0.320515 14.0385 0.897439 10.2564C1.08975 8.84616 2.17949 7.75642 3.58975 7.4359Z" fill="url(#paint0_linear_79_5419)"/>
<path style="mix-blend-mode:screen" fill-rule="evenodd" clip-rule="evenodd" d="M84.8727 46.4742H85.065C96.1548 45.6409 160.065 40.1922 165.834 39.0383C166.796 38.846 167.501 38.1409 167.629 37.1793C168.27 32.8204 168.527 28.2691 168.527 23.846C168.527 19.4229 168.27 14.8716 167.629 10.5127C167.501 9.55112 166.796 8.84599 165.834 8.65368C160.001 7.49983 96.1548 2.05111 85.065 1.21777H84.8727H84.6804C73.5906 2.05111 9.6803 7.49983 3.91106 8.65368C2.94952 8.84599 2.24439 9.55112 2.11618 10.5127C1.47516 14.8716 1.21875 19.4229 1.21875 23.846C1.21875 28.2691 1.47516 32.8204 2.11618 37.1793C2.24439 38.1409 2.94952 38.846 3.91106 39.0383C9.7444 40.1922 73.5906 45.705 84.6804 46.4742H84.8727Z" fill="url(#paint1_linear_79_5419)"/>
<path style="mix-blend-mode:screen" opacity="0.5" fill-rule="evenodd" clip-rule="evenodd" d="M2.43657 11.7306C1.92375 15.3845 1.73145 19.1024 1.73145 22.7563C1.73145 24.4229 2.88529 25.8332 4.55196 26.1537C18.9751 28.6537 65.77 29.9358 84.8726 29.9358C103.975 29.9358 150.77 28.6537 165.193 26.1537C166.86 25.8973 168.014 24.487 168.014 22.7563C168.014 19.1024 167.757 15.3845 167.309 11.7306C167.309 11.346 167.18 10.8973 167.116 10.5127C166.988 9.80754 166.475 9.23061 165.77 9.10241C159.937 7.94856 96.1546 2.49984 85.0649 1.6665H84.8726H84.6803C73.5905 2.49984 9.74427 7.94856 3.97503 9.10241C3.2699 9.23061 2.75708 9.80754 2.62888 10.5127C2.62888 10.8973 2.50067 11.346 2.43657 11.7306Z" fill="url(#paint2_linear_79_5419)"/>
<path style="mix-blend-mode:screen" fill-rule="evenodd" clip-rule="evenodd" d="M28.4621 11.4102C20.7698 12.1795 16.6031 12.2436 14.3595 11.9872C11.9236 11.6667 12.0518 9.55127 13.7826 8.97435C18.4621 7.37178 60.8339 3.78203 61.1544 6.41024C61.2827 7.49999 43.0134 9.93589 28.398 11.4102H28.4621ZM7.75695 13.0769C5.51336 13.3974 4.29541 12.5 4.29541 11.4102C4.29541 10.3205 5.32105 9.29486 7.75695 9.10255C10.3211 8.84614 11.4749 9.67948 11.539 10.7051C11.6031 11.7308 10.7057 12.6923 7.75695 13.141V13.0769Z" fill="url(#paint3_radial_79_5419)"/>
<defs>
<linearGradient id="paint0_linear_79_5419" x1="84.8719" y1="47.5642" x2="84.8719" y2="-0.0641016" gradientUnits="userSpaceOnUse">
<stop stop-color="#266EE0"/>
<stop offset="0.4" stop-color="#3A9EED"/>
<stop offset="1" stop-color="#7DC8FF"/>
</linearGradient>
<linearGradient id="paint1_linear_79_5419" x1="84.8727" y1="46.4742" x2="84.8727" y2="1.08957" gradientUnits="userSpaceOnUse">
<stop offset="0.02" stop-color="#131932"/>
<stop offset="1" stop-color="#0F4B94"/>
</linearGradient>
<linearGradient id="paint2_linear_79_5419" x1="84.8726" y1="29.9358" x2="84.8726" y2="1.6665" gradientUnits="userSpaceOnUse">
<stop offset="0.02" stop-color="#150000"/>
<stop offset="0.98" stop-color="#0D64C5"/>
</linearGradient>
<radialGradient id="paint3_radial_79_5419" cx="0" cy="0" r="1" gradientUnits="userSpaceOnUse" gradientTransform="translate(22.2235 -4.415) rotate(4.26) scale(66.9873 66.9872)">
<stop stop-color="#7BC3ED"/>
<stop offset="0.98" stop-color="#080800"/>
</radialGradient>
</defs>
</svg>
