<svg width="1345" height="798" viewBox="0 0 1345 798" fill="none" xmlns="http://www.w3.org/2000/svg">
<g filter="url(#filter0_d_242_45683)">
<path d="M1204.13 116.547C1149.87 125.348 1091.48 131.948 1030.84 136.833C1020.58 149.462 1013.63 155.535 1013.63 155.535C1013.63 155.535 1012.8 149.506 1014.78 138.065C1010.82 138.373 1006.81 138.593 1002.81 138.901C992.862 156.503 982.345 168.648 982.345 168.648C982.345 168.648 982.169 157.471 986.877 140.045C951.805 142.377 916.206 144.182 880.254 145.546C874.049 156.415 857.592 182.114 857.592 182.114C857.592 182.114 860.54 159.319 862.432 146.118C787.361 148.626 712.641 149.462 638.097 149.022C633.257 159.671 625.204 178.109 625.204 178.109C625.204 178.109 619.043 158.835 616.755 148.846C551.672 148.318 485.929 146.734 421.375 143.654C401.089 154.743 365.621 169.836 354.576 139.825C279.328 134.765 206.808 127.328 140.45 116.591C223.97 678.529 -34.3365 723.898 409.977 655.603C411.914 650.146 417.678 622.247 417.678 622.247C417.678 622.247 421.507 644.206 426.347 654.239C442.541 652.962 458.998 651.862 475.632 650.894C478.228 627.22 485.357 624.447 487.997 650.146C548.812 646.846 611.694 645.438 672.465 645.438C695.611 626.208 730.419 628.848 753.785 646.318C793.345 647.154 832.949 648.694 871.585 651.026C876.998 631.004 884.082 618.859 884.082 618.859C884.082 618.859 887.383 628.452 885.227 651.862C893.94 652.434 902.564 653.05 911.145 653.711C913.302 644.073 918.494 638.705 918.494 638.705C918.494 638.705 923.027 643.633 922.939 654.679C939.572 656.043 955.81 657.627 971.739 659.299C984.545 653.534 988.769 639.189 999.594 631.004C1004.74 625.504 1024.5 613.314 1025.25 627.264C1030.97 638.617 1030.31 653.887 1026.97 666.12C1084.3 675.493 1203.73 708.364 1204.13 635.009C1204.13 635.009 1167.96 296.085 1204.08 116.547H1204.13ZM1026.48 585.68C1014.6 603.457 991.454 592.456 1003.86 572.918C1013.98 551.4 1042.67 566.273 1026.48 585.68Z" fill="url(#paint0_radial_242_45683)"/>
<path style="mix-blend-mode:multiply" opacity="0.35" d="M1204.12 116.545C1161.53 123.453 1116.38 128.998 1069.6 133.398C1106.57 165.17 1098.16 275.357 1091.65 368.251C1084.61 468.185 1062.65 574.676 1029.21 654.236C1028.81 658.329 1028.06 662.333 1027.05 666.029C1084.39 675.402 1203.82 708.274 1204.21 634.918C1204.21 634.918 1168.04 295.995 1204.17 116.457L1204.12 116.545Z" fill="url(#paint1_linear_242_45683)"/>
<path d="M1067.01 602.707C1070 629.769 1100.28 651.244 1126.81 653.84C1153.35 651.684 1158.76 639.846 1165.27 626.909C1165.27 626.909 1169.54 578.548 1171.34 564.467C1173.15 550.385 1080.43 531.419 1076.16 555.226L1067.05 602.707H1067.01Z" fill="url(#paint2_linear_242_45683)"/>
<g style="mix-blend-mode:multiply" opacity="0.75">
<path d="M1067.01 602.707C1070 629.77 1100.28 651.244 1126.81 653.84C1153.35 651.684 1158.76 639.847 1165.27 626.909C1165.27 626.909 1169.54 578.548 1171.34 564.467C1173.15 550.385 1082.15 529.967 1077.92 553.818L1067.05 602.707H1067.01Z" fill="#BC6182"/>
</g>
<path d="M1103.75 611.026C1103.75 616.658 1111.94 626.207 1111.94 626.207C1111.94 626.207 1125.36 631.004 1133.06 624.667L1136.45 589.596L1106.09 586.647L1103.71 611.026H1103.75Z" fill="url(#paint3_linear_242_45683)"/>
<g style="mix-blend-mode:multiply" opacity="0.15">
<path d="M1204.13 116.547C1149.87 125.348 1091.48 131.948 1030.84 136.833C1020.59 149.462 1013.63 155.535 1013.63 155.535C1013.63 155.535 1012.8 149.506 1014.78 138.065C1010.82 138.373 1006.81 138.593 1002.81 138.901C992.864 156.503 982.347 168.648 982.347 168.648C982.347 168.648 982.171 157.471 986.88 140.045C951.808 142.377 916.208 144.182 880.257 145.546C874.052 156.415 857.594 182.113 857.594 182.113C857.594 182.113 860.543 159.319 862.435 146.118C787.363 148.626 712.643 149.462 638.1 149.022C633.259 159.671 625.206 178.109 625.206 178.109C625.206 178.109 619.046 158.835 616.757 148.846C551.675 148.318 485.932 146.734 421.377 143.654C401.091 154.743 365.623 169.792 354.578 139.825C279.33 134.765 206.811 127.328 140.452 116.591C171.607 326.14 155.238 463.831 145.469 550.608C155.106 465.151 194.578 336.966 169.715 146.206C208.747 151.75 252.268 149.814 298.165 150.562C298.253 151.618 298.517 152.674 298.913 153.642C299.969 156.151 301.949 158.307 304.325 159.627C309.87 162.619 316.294 160.331 319.947 155.535C320.959 154.259 321.707 152.762 322.235 151.222C328.572 151.486 334.996 151.838 341.421 152.278C346.833 159.187 350.574 167.68 355.986 173.577C356.162 174.501 356.382 175.381 356.558 176.305C357.835 183.83 359.243 191.354 360.431 198.879C361.619 206.58 362.543 214.325 363.819 222.026C364.259 224.842 364.743 227.658 365.227 230.475C365.051 218.285 364.919 206.14 364.919 193.951C364.523 189.022 364.171 184.094 363.643 179.209C366.019 180.221 368.704 180.837 371.828 180.837C372.092 180.837 372.4 180.793 372.664 180.749C373.632 191.662 374.732 202.488 376.096 213.357C377.725 226.558 378.121 240.024 379.089 253.313C380.057 266.646 381.245 279.936 382.125 293.269C382.125 293.841 382.169 294.413 382.213 294.985C383.313 301.41 384.589 307.835 385.998 314.215C386.262 315.359 386.526 316.503 386.79 317.604C387.186 312.411 387.538 307.218 387.846 301.982C387.626 298.726 387.362 295.469 387.142 292.213C386.262 278.88 385.602 265.59 384.766 252.257C383.929 239.319 382.565 226.294 382.433 213.313C382.301 201.652 381.905 190.078 381.333 178.461C395.326 172.785 414.073 157.999 428.462 150.738C447.912 151.662 469.166 153.158 491.256 154.743C493.501 155.887 494.425 158.351 495.877 160.331C497.241 162.179 498.957 163.676 501.157 164.512C505.294 166.052 509.826 164.996 513.875 163.324C514.535 163.324 515.195 163.104 515.811 162.487C515.987 162.399 516.163 162.311 516.339 162.267C517.967 161.475 519.595 160.639 521.267 159.847C523.644 159.803 526.152 160.771 527.868 162.619C532.005 167.02 531.433 174.589 531.389 180.133C531.257 191.046 531.124 201.916 531.124 212.829C531.564 218.197 531.741 223.61 531.829 229.022C531.917 235.667 531.829 242.268 532.005 248.912C532.225 253.401 532.445 257.889 532.709 262.334C533.193 269.507 533.721 276.679 534.249 283.808C534.381 285.568 534.513 287.372 534.601 289.133C534.821 268.494 535.261 247.856 537.549 227.394C537.021 213.533 536.845 199.539 538.649 185.854C539.089 182.51 539.617 178.857 540.586 175.469C540.498 174.589 540.498 173.709 540.41 172.829C540.762 171.42 541.202 170.012 541.862 168.692C543.402 165.524 545.778 162.752 548.638 160.727C550.443 160.463 552.335 160.375 554.139 160.155C555.019 160.023 555.591 159.539 555.943 158.967C573.941 159.935 591.939 160.683 609.541 160.859C611.345 166.932 623.358 213.093 623.358 213.093C623.358 213.093 639.024 171.156 642.236 158.527C644.832 158.527 668.199 158.263 699.046 157.867C704.327 156.063 710.531 156.195 715.812 156.723C717.792 156.943 719.816 157.207 721.796 157.559C769.541 156.899 826.043 156.019 853.502 155.227C853.062 158.659 847.869 213.269 845.977 233.071C844.525 239.407 843.029 245.744 841.709 252.125C841.313 254.061 844.261 254.853 844.657 252.917C846.021 245.964 847.473 239.055 849.322 232.279C859.311 212.697 885.009 162.443 890.73 153.159C896.538 152.938 905.823 152.498 916.208 151.97C916.076 152.719 915.944 153.511 915.812 154.215C915.284 156.899 914.404 159.495 913.656 162.091C912.908 164.732 912.116 167.328 911.324 169.924C910.532 172.521 909.652 175.029 909.388 177.757C909.3 178.549 910.4 178.725 910.796 178.153C912.248 175.821 913.084 173.225 914.052 170.672C915.02 168.12 916.032 165.568 917.044 163.015C918.057 160.463 919.025 157.867 920.257 155.403C920.873 154.171 921.577 152.939 922.149 151.662C948.376 150.386 978.651 148.846 978.651 149.022L961.225 229.682L1009.41 153.467L999.201 208.516C999.201 208.516 1034.76 154.391 1042.24 145.942C1050.69 145.238 1059.09 144.974 1067.41 145.018C1066.97 147.57 1066.57 150.122 1066 152.674C1065.16 156.679 1064.33 160.683 1063.4 164.688C1061.56 172.829 1060.02 181.013 1058.26 189.198C1058.08 189.99 1059.18 190.298 1059.44 189.506C1062 181.586 1064.77 173.709 1067.23 165.744C1068.46 161.827 1069.74 157.955 1071.02 154.083C1071.98 151.09 1073.17 148.098 1074.23 145.15C1109.3 145.81 1142.83 150.562 1173.81 146.162C1148.16 326.801 1201.49 609.178 1204.17 634.832C1204.17 634.832 1168 295.909 1204.13 116.371V116.547ZM501.773 157.119C501.773 157.119 501.686 156.987 501.642 156.899C501.466 156.415 501.07 155.975 500.497 155.799C499.573 155.535 498.605 156.107 498.341 157.031C498.253 157.471 498.209 157.867 498.209 158.263C497.153 157.207 496.185 156.063 495.041 155.139C497.241 155.315 499.485 155.447 501.686 155.623C501.598 155.975 501.554 156.371 501.686 156.723C501.73 156.855 501.818 156.943 501.862 157.075C501.862 157.075 501.773 157.075 501.773 157.119Z" fill="#BC6182"/>
</g>
<g style="mix-blend-mode:multiply" opacity="0.15">
<path d="M1137.37 669.241C1137.37 669.241 1059.97 667.305 1040.25 653.839C1039.99 653.663 1038.71 626.864 1031.32 615.379C1028.12 610.392 1024.53 605.742 1020.54 601.43C1031.32 596.501 1041.88 582.948 1039.81 567.766C1037.88 553.553 1034.05 550.604 1019.31 550.604C1004.57 550.604 986.084 569.834 997.966 598.877C984.412 658.02 938.472 643.102 931.519 642.442C929.143 637.381 925.358 590.737 925.358 590.737L924.346 592.321C924.874 589.02 925.402 585.676 926.018 582.376C926.766 578.063 927.118 573.795 927.734 569.482C927.734 569.262 927.514 569.218 927.426 569.394C925.754 573.443 923.994 577.271 922.674 581.452C921.354 585.544 920.121 589.637 918.933 593.773C917.789 597.821 916.601 601.87 915.677 605.962L892.927 641.87C892.751 641.166 891.607 606.622 890.815 582.42C890.903 581.54 891.035 580.616 891.123 579.735C891.519 575.951 891.871 572.211 892.179 568.47C893.103 559.141 894.027 549.812 894.731 540.439C894.819 539.075 894.951 537.711 895.039 536.391C894.731 521.869 894.819 507.304 894.995 492.739C894.643 493.707 894.335 494.719 893.983 495.687C893.983 495.819 893.939 495.907 893.895 496.039C893.719 497.931 893.543 499.867 893.279 501.715C891.651 514.697 889.802 527.634 887.954 540.571C886.238 552.409 884.918 564.29 883.51 576.171C882.982 580.616 882.454 585.06 881.97 589.46C876.381 609.835 869.604 634.125 867.228 640.286C857.899 639.802 847.162 638.834 835.853 637.689C835.413 636.677 834.665 635.797 833.652 635.093C833.564 635.005 833.433 634.961 833.345 634.873C833.169 634.609 832.552 634.257 832.376 634.081C831.76 633.509 831.144 632.937 830.572 632.321C830.308 632.013 830.044 631.749 829.78 631.441C829.648 631.265 829.472 631.089 829.34 630.913C828.988 630.473 829.076 630.561 829.516 631.177C829.34 631.177 828.856 630.209 828.724 630.077C828.46 629.681 828.24 629.329 828.02 628.933C826.876 626.952 824.236 626.072 822.08 626.644C821.067 625.808 819.967 625.016 818.647 624.664C816.755 624.136 814.599 624.664 813.19 625.984C814.291 624.928 812.574 626.424 812.266 626.732C811.826 627.172 811.386 627.832 811.078 628.36C810.55 629.241 810.11 630.165 809.626 631.089C809.538 631.265 809.45 631.441 809.362 631.617C808.526 632.101 807.822 632.717 807.47 633.553C807.074 634.477 806.854 635.357 806.722 636.281C801.045 635.885 795.237 636.105 789.736 634.433C788.46 634.037 787.272 633.509 786.172 632.893C777.723 632.233 769.582 631.705 762.145 631.529C747.008 622.2 728.834 607.194 711.012 607.194C694.466 607.194 674.356 622.2 660.803 631.133C660.319 630.781 659.791 630.473 659.219 630.209C659.923 630.517 659.615 630.473 659.306 630.033C659.042 629.637 658.558 629.285 658.206 628.888C657.546 628.184 656.974 627.392 656.358 626.644C655.258 625.28 654.202 623.916 652.882 622.816C649.538 620 644.961 619.032 641.045 621.232C638.845 622.464 637.392 624.312 636.204 626.336C635.368 626.776 634.62 627.392 634.092 628.14C629.383 628.405 624.719 628.845 620.054 629.461C616.974 629.857 613.894 630.341 610.814 630.869C607.513 631.441 603.905 631.749 602.101 634.961C601.881 635.401 601.749 635.929 601.661 636.457C598.008 635.929 594.356 634.873 590.923 633.377C582.343 633.641 573.806 633.949 565.313 634.301C565.005 635.137 564.257 635.753 563.069 635.621C558.36 635.137 553.652 635.357 548.987 636.017C546.567 636.369 544.147 636.765 541.77 637.073C539.482 637.381 536.974 638.041 534.686 637.733C533.014 637.513 531.561 636.765 530.241 635.797C517.568 636.369 505.247 636.941 493.585 637.513C488.349 626.072 487.029 588.756 481.572 588.756C472.463 588.756 467.359 639.714 467.359 639.714L431.803 643.014C431.803 643.014 424.586 597.821 419.878 568.47C419.526 554.961 418.646 541.408 417.722 528.03C417.326 521.913 417.017 515.753 416.753 509.592C416.049 504.224 415.433 498.855 414.905 493.487C414.289 496.127 413.673 498.811 413.013 501.451C413.145 510.648 413.233 519.845 413.101 529.042C412.969 539.955 412.925 551.001 413.189 562.002C409.141 588.888 401.968 636.545 401.132 640.242C386.346 643.19 372.221 645.742 358.624 648.031C356.907 649.879 355.059 651.507 352.639 652.387C349.558 653.575 346.17 653.619 342.914 653.399C342.826 653.311 342.738 653.179 342.606 653.091C339.657 650.583 336.357 649.307 332.749 648.471C329.228 646.886 325.664 645.346 321.924 644.378C316.775 643.058 311.011 642.134 306.082 644.598C301.726 646.798 298.645 650.847 295.785 654.675C294.333 656.611 292.485 658.9 290.372 660.704C288.26 661.54 286.06 662.2 283.772 662.464C279.327 663.036 275.279 661.892 271.67 659.824C245.268 662.508 223.749 663.784 208.084 664.312C157.655 665.94 149.998 651.375 142.253 637.689C140.097 625.5 139.701 614.455 140.625 599.229C134.024 696.26 166.588 692.959 409.977 655.555C411.913 650.099 417.678 622.2 417.678 622.2C417.678 622.2 421.506 644.158 426.346 654.191C442.54 652.915 458.998 651.815 475.631 650.847C478.228 627.172 485.356 624.4 487.997 650.099C548.811 646.798 611.694 645.39 672.464 645.39C695.61 626.16 730.418 628.801 753.784 646.27C793.344 647.106 832.949 648.647 871.585 650.979C876.073 634.433 881.706 623.3 883.51 619.912C883.818 619.912 884.082 619.868 884.346 619.692C885.05 622.508 887.03 632.409 885.226 651.815C893.939 652.387 902.564 653.003 911.145 653.663C913.301 644.026 918.493 638.658 918.493 638.658C918.493 638.658 923.026 643.586 922.938 654.631C939.572 655.995 955.809 657.58 971.739 659.252C984.544 653.487 988.769 639.142 999.594 630.957C1004.74 625.456 1024.5 613.267 1025.25 627.216C1030.97 638.57 1030.31 653.839 1026.96 666.072C1084.3 675.445 1203.73 708.317 1204.13 634.961C1201.05 656.039 1182.83 669.197 1137.33 669.197L1137.37 669.241ZM1003.86 572.915C1013.98 551.396 1042.67 566.27 1026.48 585.676C1014.6 603.454 991.453 592.453 1003.86 572.915Z" fill="#BC6182"/>
</g>
<g style="mix-blend-mode:multiply" opacity="0.15">
<path d="M140.712 599.232C141.636 585.943 143.264 570.718 145.2 553.468C143 572.962 141.46 587.395 140.712 599.232Z" fill="#BC6182"/>
</g>
<g style="mix-blend-mode:multiply" opacity="0.15">
<path d="M145.508 550.606C145.508 550.782 145.508 550.958 145.464 551.178C145.464 551.002 145.464 550.826 145.508 550.65V550.606Z" fill="#BC6182"/>
</g>
<g style="mix-blend-mode:multiply" opacity="0.15">
<path d="M838.275 628.405C838.275 628.405 838.627 628.449 838.759 628.493C841.267 629.813 844.215 629.681 846.679 628.361C848.528 627.349 849.892 625.589 850.508 623.608C850.684 623.168 850.86 622.772 851.036 622.332C851.388 621.276 851.168 620.396 851.036 619.34C851.036 619.12 850.948 618.9 850.86 618.68C850.64 618.064 850.376 617.448 850.068 616.876C849.716 616.304 849.276 615.732 848.836 615.248C848.704 615.072 848.528 614.896 848.352 614.764C847.956 614.411 847.472 614.06 847.032 613.751C846.944 613.663 846.811 613.619 846.723 613.575C846.107 613.267 845.491 613.003 844.831 612.783C844.743 612.783 844.655 612.739 844.567 612.695C843.995 612.563 843.335 612.475 842.763 612.431C842.543 612.431 842.323 612.431 842.103 612.431C841.443 612.519 840.695 612.519 840.035 612.783C839.419 613.003 838.803 613.223 838.275 613.531C837.703 613.839 837.175 614.323 836.647 614.764C835.986 615.292 835.502 616.04 835.062 616.744C834.622 617.492 834.226 618.328 834.05 619.208C833.918 619.868 833.786 620.572 833.786 621.276C833.786 621.98 833.918 622.684 834.006 623.344C834.138 624.225 834.534 625.149 835.018 625.897C835.766 627.085 836.911 628.053 838.275 628.405Z" fill="#BC6182"/>
</g>
<g style="mix-blend-mode:multiply" opacity="0.15">
<path d="M598.362 621.147C598.494 621.543 598.714 621.895 599.066 622.203C599.374 622.511 599.726 622.731 600.122 622.907C600.518 623.127 600.958 623.215 601.398 623.171C601.706 623.171 601.97 623.083 602.278 623.039C602.85 622.863 603.334 622.599 603.73 622.203C603.906 621.983 604.083 621.763 604.259 621.543C604.567 621.015 604.698 620.487 604.698 619.871C604.698 619.606 604.698 619.342 604.698 619.078C604.698 618.946 604.698 618.814 604.698 618.682C604.698 618.286 604.611 617.89 604.523 617.494C604.435 616.966 604.302 616.482 604.17 615.998C604.082 615.778 603.994 615.514 603.862 615.294C603.686 614.942 603.422 614.678 603.114 614.458C602.938 614.282 602.718 614.15 602.454 614.062C602.102 613.886 601.75 613.798 601.31 613.798L600.518 613.886C600.298 613.974 600.034 614.062 599.814 614.194C599.462 614.37 599.198 614.634 598.978 614.942C598.714 615.206 598.538 615.558 598.45 615.954C598.318 616.438 598.186 616.966 598.098 617.45C598.01 617.846 597.922 618.242 597.922 618.638C597.922 618.77 597.922 618.902 597.922 619.034C597.922 619.298 597.922 619.606 597.922 619.871C597.922 620.311 598.01 620.751 598.186 621.147H598.362Z" fill="#BC6182"/>
</g>
<g style="mix-blend-mode:multiply" opacity="0.15">
<path d="M316.467 626.205C316.643 626.425 316.819 626.689 316.995 626.909C317.347 627.349 317.875 627.745 318.359 628.053C318.887 628.361 319.416 628.625 319.988 628.713C320.34 628.757 320.736 628.845 321.088 628.845C321.968 628.845 322.936 628.493 323.552 627.833C324.124 627.173 324.388 626.777 324.652 625.941C324.916 625.105 324.872 623.961 324.652 623.125C324.3 621.849 323.376 620.749 322.232 620.088C321.792 619.824 321.308 619.605 320.78 619.517C319.944 619.341 319.02 619.253 318.184 619.517C317.919 619.561 317.743 619.737 317.523 619.869H317.435C317.259 619.957 317.039 620.001 316.863 620.177C316.423 620.441 316.071 620.837 315.851 621.277L315.455 622.245C315.279 622.949 315.279 623.653 315.455 624.357C315.587 625.061 316.027 625.589 316.467 626.117V626.205Z" fill="#BC6182"/>
</g>
<g style="mix-blend-mode:multiply" opacity="0.2">
<path d="M1103.75 611.026C1103.75 616.658 1111.94 626.207 1111.94 626.207C1111.94 626.207 1125.36 631.004 1133.06 624.667L1136.45 589.596L1106.09 586.647L1103.71 611.026H1103.75Z" fill="#BC6182"/>
</g>
<path d="M1103.75 611.023C1103.79 601.518 1112.16 591.133 1134.38 593.289C1155.85 598.833 1162.06 611.067 1165.23 626.952C1165.23 626.952 1169.36 584.18 1170.95 567.942C1172.53 551.705 1110.44 541.803 1108.5 561.87C1107.05 576.831 1103.75 611.067 1103.75 611.067V611.023Z" fill="url(#paint4_linear_242_45683)"/>
<g style="mix-blend-mode:multiply" opacity="0.15">
<path d="M1107.76 570.85L1106.57 582.159C1119.2 570.013 1149.26 574.15 1156.34 586.383C1155.99 592.896 1155.2 599.497 1154.1 602.093C1160.34 607.461 1162.68 617.626 1165.23 626.075C1165.23 626.075 1169.98 584.579 1171.04 566.977C1171.04 566.537 1109.43 558.352 1107.8 570.85H1107.76Z" fill="#8E1613"/>
</g>
<path d="M1252.62 135.335C1251.74 117.029 1244.04 102.111 1232.6 91.0222C1227.54 98.591 1221.24 105.412 1215.74 112.672C1214.2 114.697 1211.08 113.552 1211.61 110.912C1213.63 100.703 1215.96 90.5821 1219.53 80.8131C1216.18 78.7449 1212.66 77.0287 1209.06 75.4445C1207.87 78.4368 1206.81 81.4291 1205.89 84.4654C1205.14 86.9297 1201.44 86.4457 1201.44 83.8494C1201.44 80.109 1201.53 76.3687 1201.93 72.6283C1168.97 61.5832 1129.63 70.032 1115.46 102.991C1121.53 180.307 1114.27 291.683 1107.27 352.233C1099.88 416.612 1071.54 588.098 1067.05 602.619C1070.79 593.686 1075.77 586.91 1081.71 581.849C1081.71 581.585 1081.71 581.277 1081.75 581.013C1082.37 578.637 1083.64 576.48 1085.14 574.456C1085.49 571.464 1086.28 568.516 1087.21 565.655C1087.6 564.467 1088.75 563.719 1089.98 564.071C1090.2 564.115 1090.37 564.247 1090.55 564.379C1090.6 564.247 1090.64 564.159 1090.73 564.027C1091.48 562.531 1093.9 562.531 1094.64 564.027C1095.74 566.271 1097.02 568.472 1097.77 570.848C1097.99 571.508 1098.08 572.168 1098.21 572.828C1109.3 569.308 1122.15 569.176 1135.92 571.288C1169.76 576.524 1203.2 595.93 1204.21 634.919C1201 576.701 1205.09 425.985 1211.65 356.722C1216.93 300.66 1231.94 213.003 1252.66 135.291L1252.62 135.335Z" fill="url(#paint5_linear_242_45683)"/>
<path d="M1219.53 80.8158C1216.18 78.7476 1212.66 77.0314 1209.05 75.4472C1208.13 77.8235 1207.25 80.1997 1206.5 82.62C1210.86 81.3439 1215.21 80.8158 1219.53 80.8158Z" fill="#FFB64A"/>
<path style="mix-blend-mode:multiply" opacity="0.35" d="M289.403 134.721C237.522 130.1 187.445 124.16 140.536 116.547C218.292 639.761 -0.278748 715.141 327.951 667.924C284.123 610.982 269.821 485.745 257.852 391.355C245.047 290.233 238.138 181.278 289.447 134.765L289.403 134.721Z" fill="url(#paint6_linear_242_45683)"/>
<path d="M252.661 612.475C252.441 609.834 256.402 609.526 257.106 611.859C259.086 618.151 261.594 624.268 264.102 630.341C271.407 622.42 276.468 612.959 277.612 602.662L268.503 555.181C264.234 531.33 171.517 550.34 173.321 564.422C175.125 578.503 179.394 626.864 179.394 626.864C185.862 639.801 191.275 651.595 217.854 653.795C230.527 652.563 243.992 646.974 254.993 638.569C254.245 629.856 253.497 621.144 252.705 612.431L252.661 612.475Z" fill="url(#paint7_linear_242_45683)"/>
<g style="mix-blend-mode:multiply" opacity="0.75">
<path d="M252.661 612.475C252.441 609.834 256.402 609.526 257.106 611.859C259.086 618.151 261.594 624.268 264.102 630.341C271.407 622.42 276.468 612.959 277.612 602.662L268.503 555.181C264.234 531.33 171.517 550.34 173.321 564.422C175.125 578.503 179.394 626.864 179.394 626.864C185.862 639.801 191.275 651.595 217.854 653.795C230.527 652.563 243.992 646.974 254.993 638.569C254.245 629.856 253.497 621.144 252.705 612.431L252.661 612.475Z" fill="#BC6182"/>
</g>
<path d="M240.867 611.026C240.867 616.658 232.682 626.207 232.682 626.207C232.682 626.207 219.261 631.004 211.56 624.667L208.172 589.596L238.535 586.647L240.911 611.026H240.867Z" fill="url(#paint8_linear_242_45683)"/>
<g style="mix-blend-mode:multiply" opacity="0.2">
<path d="M240.867 611.026C240.867 616.658 232.682 626.207 232.682 626.207C232.682 626.207 219.261 631.004 211.56 624.667L208.172 589.596L238.535 586.647L240.911 611.026H240.867Z" fill="#BC6182"/>
</g>
<path d="M240.869 611.023C240.825 601.518 232.464 591.133 210.242 593.289C188.768 598.833 182.563 611.067 179.395 626.952C179.395 626.952 175.258 584.18 173.674 567.942C172.09 551.705 234.181 541.803 236.117 561.87C237.569 576.831 240.869 611.067 240.869 611.067V611.023Z" fill="url(#paint9_linear_242_45683)"/>
<path d="M237.391 352.323C230.438 291.772 223.178 180.397 229.206 103.081C222.121 86.579 208.656 76.194 192.858 71.3535C191.89 71.5735 190.922 71.8815 189.91 72.0135C186.698 72.4976 183.618 71.5735 180.449 70.9575C179.041 70.6934 176.841 70.6494 175.961 70.8255C175.785 70.9135 175.609 71.0015 175.477 71.0895C173.321 72.4976 171.428 74.3458 169.184 75.798C166.984 77.2061 163.903 78.1301 162.143 75.5338C160.867 73.6857 160.867 71.0894 161.263 68.5371C144.673 70.3413 128.216 76.942 115.498 87.8112C116.07 95.996 116.731 104.137 116.731 112.366C116.731 115.358 112.55 115.182 112.198 112.366C111.45 106.381 110.218 100.484 108.59 94.6759C99.0848 105.325 92.7921 119.01 92 135.38C112.726 213.092 127.688 300.793 133.012 356.811C139.569 426.074 137.853 579.914 140.493 632.148C139.833 619.606 145.95 613.578 152.154 601.08C152.022 600.464 151.89 599.848 151.758 599.188C151.274 596.988 150.834 594.744 150.834 592.455C150.834 590.563 151.098 588.583 152.154 586.999C153.078 585.635 154.134 584.227 155.543 583.302C156.687 582.554 158.227 582.334 159.415 583.082C160.471 583.743 161.087 584.887 161.395 586.075C161.835 587.615 161.923 589.287 161.923 590.915C174.685 580.354 192.066 574.854 209.14 572.213C215.169 571.289 219.261 572.081 224.85 572.125C227.402 570.145 231.274 566.009 234.179 564.513C235.851 563.632 237.743 562.884 239.679 563.016C239.943 563.016 240.207 563.104 240.471 563.148C240.867 563.148 241.263 563.28 241.615 563.456C242.672 563.852 243.684 564.424 244.564 565.217C246.148 566.581 247.38 568.385 248.656 570.057C249.977 571.861 251.252 573.621 252.573 575.426C263.222 580.398 271.891 589.067 277.611 602.796C274.927 588.847 244.784 416.789 237.391 352.411V352.323Z" fill="url(#paint10_linear_242_45683)"/>
<path d="M179.483 627.349C183.179 615.379 188.283 602.134 203.597 597.074C218.69 592.101 231.32 596.545 236.38 603.058C241.001 608.999 240.649 617.8 232.2 626.205C227.843 627.437 221.727 629.417 211.606 625.104C217.766 631.221 228.768 629.593 232.728 628.361C240.913 621.452 243.421 609.351 237.7 601.298C231.936 593.245 220.363 589.549 203.333 594.873C187.095 599.934 180.275 616.083 179.438 627.349H179.483Z" fill="#FFCFA4"/>
<path d="M1203.91 627.921C1201.88 598.834 1170.46 574.808 1137.37 571.024C1124.22 569.527 1110.97 569.396 1097.99 571.904C1095.92 563.235 1086.11 548.097 1081.62 581.937C1073.87 587.877 1066.97 601.695 1066.97 601.695C1073.57 593.334 1076.51 586.997 1084.92 582.289C1084.52 570.1 1090.33 554.874 1096.27 574.368C1109.39 571.684 1137.64 573.972 1153.65 578.548C1169.23 582.993 1193.13 597.69 1203.86 628.01L1203.91 627.921Z" fill="#FFCFA4"/>
<path d="M579.48 179.868C579.084 179.868 579.084 180.44 579.48 180.44C579.876 180.44 579.876 179.868 579.48 179.868Z" fill="#BC6182"/>
<g style="mix-blend-mode:multiply" opacity="0.15">
<path d="M228.062 121.079C228.37 114.918 228.722 108.889 229.206 103.081C222.121 86.579 208.656 76.194 192.858 71.3535C191.89 71.5735 190.922 71.8815 189.91 72.0135C186.698 72.4976 183.618 71.5735 180.449 70.9575C179.041 70.6934 176.841 70.6494 175.961 70.8255C175.785 70.9135 175.609 71.0015 175.477 71.0895C173.321 72.4976 171.428 74.3458 169.184 75.798C166.984 77.2061 163.903 78.1301 162.143 75.5338C160.867 73.6857 160.867 71.0894 161.263 68.5371C144.673 70.3413 128.216 76.942 115.498 87.8112C116.07 95.996 116.731 104.137 116.731 112.366C116.731 115.358 112.55 115.182 112.198 112.366C111.45 106.381 110.218 100.484 108.59 94.6759C99.0848 105.325 92.7921 119.01 92 135.38C93.5402 141.101 94.9924 146.865 96.4886 152.718C96.4886 141.629 99.3929 131.816 106.39 119.759C109.074 129.219 121.043 158.307 121.043 158.307C121.043 158.307 124.959 120.418 126.94 102.905C146.434 91.9916 170.9 87.1512 191.714 92.2997C191.846 106.249 192.947 120.287 193.079 134.236C193.211 151.398 192.594 168.559 194.091 185.677C194.179 186.645 195.499 186.645 195.587 185.677C197.127 168.603 196.599 151.398 196.819 134.236C196.995 120.947 198.095 107.613 198.315 94.3239C210.68 98.9004 221.329 107.437 228.062 121.123V121.079Z" fill="#BC6182"/>
</g>
<g style="mix-blend-mode:multiply" opacity="0.15">
<path d="M268.238 549.198C259.833 538.549 245.664 533.312 229.602 532.168C229.03 530.012 228.414 527.856 227.974 525.699C226.258 517.867 224.982 509.902 223.75 501.981C222.473 493.576 221.329 485.127 220.361 476.678C219.437 468.669 217.941 460.661 217.149 452.652C217.149 452.212 216.401 452.168 216.445 452.652C216.577 456.964 216.049 461.277 216.269 465.589C216.489 469.286 216.885 472.982 217.237 476.678C217.985 484.511 218.909 492.344 220.009 500.133C221.153 508.098 222.518 516.018 223.882 523.939C224.322 526.491 224.674 529.22 225.026 531.904C217.853 531.772 210.372 532.344 202.98 533.664C202.055 525.875 200.867 518.175 199.503 510.43C199.415 509.99 198.711 510.122 198.755 510.518C198.975 518.439 199.371 526.315 200.031 534.236C174.728 539.253 150.526 551.97 140.977 568.032L139.129 571.112C139.129 600.639 139.305 619.121 140.625 632.719C141.065 617.845 145.818 613.488 152.242 600.991C152.11 600.375 151.978 599.759 151.846 599.099C151.362 596.899 150.922 594.654 150.922 592.366C150.922 590.474 151.186 588.494 152.242 586.91C153.166 585.546 154.222 584.137 155.631 583.213C156.775 582.465 158.315 582.245 159.503 582.993C160.559 583.653 161.175 584.797 161.483 585.986C161.923 587.526 162.011 589.198 162.011 590.826C174.773 580.265 192.154 574.764 209.228 572.124C215.257 571.2 219.349 571.992 224.938 572.036C227.49 570.056 231.362 565.919 234.267 564.423C235.939 563.543 237.831 562.795 239.767 562.927C240.031 562.927 240.295 563.015 240.559 563.059C240.955 563.059 241.351 563.191 241.704 563.367C242.76 563.763 243.772 564.335 244.652 565.127C246.236 566.492 247.468 568.296 248.744 569.968C250.064 571.772 251.34 573.532 252.661 575.337C263.31 580.309 271.979 588.978 277.699 602.707C276.379 598.395 268.282 549.198 268.282 549.198H268.238Z" fill="#BC6182"/>
</g>
<g style="mix-blend-mode:multiply" opacity="0.15">
<path d="M1203.07 581.674C1197.79 567.857 1187.1 557.56 1173.98 550.431C1170.68 548.627 1168.79 545.106 1169.1 541.366C1169.5 536.745 1170.02 530.849 1170.29 527.856C1170.77 522.048 1170.64 516.415 1171.56 510.651C1171.56 510.475 1171.34 510.431 1171.3 510.563C1170.2 515.887 1168.31 520.948 1167.25 526.272C1166.81 528.429 1166.24 531.993 1165.76 535.513C1165.01 540.794 1159.68 544.05 1154.53 542.554C1122.63 533.313 1086.06 538.506 1076.12 555.227C1072.33 576.658 1068.2 598.792 1067.01 602.708C1070.75 593.775 1075.72 586.999 1081.66 581.938C1081.66 581.674 1081.66 581.366 1081.71 581.102C1082.32 578.726 1083.6 576.57 1085.09 574.545C1085.45 571.553 1086.24 568.605 1087.16 565.744C1087.56 564.556 1088.7 563.808 1089.94 564.16C1090.16 564.204 1090.33 564.336 1090.51 564.468C1090.55 564.336 1090.6 564.248 1090.68 564.116C1091.43 562.62 1093.85 562.62 1094.6 564.116C1095.7 566.36 1096.98 568.561 1097.72 570.937C1097.94 571.597 1098.03 572.257 1098.16 572.917C1109.25 569.397 1122.1 569.265 1135.88 571.377C1169.72 576.614 1203.16 596.02 1204.17 635.008C1203.47 622.554 1203.07 581.718 1203.07 581.718V581.674Z" fill="#BC6182"/>
</g>
<g style="mix-blend-mode:multiply" opacity="0.15">
<path d="M1252.62 135.336C1251.74 117.03 1244.04 102.112 1232.6 91.0232C1231.41 92.8274 1230.09 94.5876 1228.77 96.3478C1228.5 96.6998 1228.19 97.0518 1227.93 97.4038C1223.93 102.552 1219.66 107.481 1215.74 112.63C1214.2 114.654 1211.08 113.509 1211.6 110.869C1213.63 100.66 1215.96 90.5391 1219.53 80.7701C1218.21 79.978 1216.84 79.23 1215.52 78.526C1213.41 77.4259 1211.25 76.3696 1209.1 75.4015C1207.91 78.3939 1206.85 81.3862 1205.93 84.4226C1205.18 86.8868 1201.48 86.4027 1201.48 83.8064C1201.48 80.066 1201.57 76.3257 1201.97 72.5853C1169.01 61.5402 1129.67 69.989 1115.5 102.948C1115.98 108.977 1116.33 115.27 1116.69 121.694C1121.18 108.229 1137.9 96.5238 1158.4 92.3874C1163.9 91.2873 1168.88 95.9078 1168.3 101.496V101.584C1167.82 105.809 1167.38 110.077 1166.9 114.302C1166.41 118.746 1166.9 123.059 1166.9 127.503C1166.9 127.811 1167.38 127.899 1167.47 127.591C1168.39 123.631 1169.8 119.934 1170.42 115.886C1170.99 111.617 1171.56 107.305 1172.13 103.036C1172.22 102.288 1172.35 101.54 1172.44 100.792C1173.19 94.8957 1178.6 90.6271 1184.5 91.3752C1191.89 92.2993 1199.33 94.3235 1206.5 97.6678L1198.54 150.297L1229.25 106.733C1243.73 114.918 1249.76 132.432 1248.83 150.297C1250.11 145.237 1251.43 140.176 1252.75 135.204L1252.62 135.336Z" fill="#BC6182"/>
</g>
<g style="mix-blend-mode:multiply" opacity="0.15">
<path d="M1197.31 186.028C1193.65 202.705 1192.33 219.911 1189.34 236.677C1186.35 253.487 1183.8 270.384 1181.33 287.282C1176.45 320.638 1172.14 354.037 1168.84 387.612C1166.94 406.666 1165.84 425.764 1164 444.774C1163.91 445.61 1165.23 445.61 1165.32 444.774C1168.84 411.023 1174.12 377.447 1178.17 343.74C1182.17 310.164 1185.78 276.501 1190.05 242.969C1191.28 233.156 1192.47 223.387 1193.96 213.618C1195.37 204.465 1197.13 195.313 1197.97 186.072C1197.97 185.72 1197.39 185.631 1197.35 185.984L1197.31 186.028Z" fill="#BC6182"/>
</g>
<g style="mix-blend-mode:multiply" opacity="0.15">
<path d="M185.86 399.361C184.452 384.883 183.484 370.406 182.208 355.928C179.7 327.281 177.499 298.59 175.299 269.899C174.067 253.486 173.451 237.028 172.043 220.658C171.999 220.13 171.207 220.086 171.207 220.658C170.987 235.312 171.779 250.097 172.263 264.751C172.703 279.096 173.319 293.442 174.155 307.787C175.827 336.874 178.776 365.785 181.944 394.74C183.704 410.846 185.288 426.996 188.192 442.925C188.368 443.937 190.085 443.717 189.997 442.661C189.073 428.184 187.313 413.75 185.904 399.317L185.86 399.361Z" fill="#BC6182"/>
</g>
<g style="mix-blend-mode:multiply" opacity="0.15">
<path d="M325.138 167.678C322.63 168.426 320.694 170.495 320.122 173.047C319.506 175.643 320.122 178.284 321.838 180.308C322.014 180.484 322.234 180.616 322.41 180.792C322.938 181.32 323.466 181.848 324.126 182.2C329.143 184.928 335.611 180.704 335.611 175.115C335.611 169.967 329.979 166.226 325.182 167.678H325.138Z" fill="#BC6182"/>
</g>
<path d="M320.164 595.71C319.9 595.71 319.9 596.106 320.164 596.106C320.428 596.106 320.428 595.71 320.164 595.71Z" fill="#BC6182"/>
<path d="M140.759 626.072C141.551 618.371 147.491 605.302 152.2 601.033C148.283 590.34 151.144 583.035 156.468 581.627C159.109 580.923 163.465 583.343 161.969 590.868C173.85 580.087 198.361 569.394 224.499 571.286C235.632 558.173 245.71 557.381 252.618 575.379C265.204 579.559 275.017 591.748 277.657 602.749C272.2 592.408 264.676 584.047 249.626 577.315C247.162 569.042 239.769 559.625 225.512 574.366C211.914 574.366 182.387 577.095 159.945 596.501C162.057 580.087 152.2 578.635 155.016 600.593C151.452 605.258 145.731 611.066 140.803 626.072H140.759Z" fill="#FFCFA4"/>
</g>
<rect x="308.5" y="250.5" width="151" height="119" fill="#F5A878" stroke="#880F02"/>
<rect x="460" y="290" width="40" height="152" transform="rotate(90 460 290)" fill="#880F02"/>
<rect x="364.5" y="250.5" width="39" height="119" fill="#E38664" stroke="#880F02"/>
<rect x="308.5" y="250.5" width="151" height="119" fill="#F5A878" stroke="#880F02"/>
<rect x="383.912" y="260.414" width="70" height="70" transform="rotate(45 383.912 260.414)" fill="#F5A878" stroke="#880F02" stroke-width="2"/>
<rect x="408" y="286" width="48" height="48" transform="rotate(90 408 286)" fill="#F5A878" stroke="#880F02" stroke-width="2"/>
<path d="M391 310C391 314.297 390.127 318.137 388.762 320.867C387.368 323.656 385.626 325 384 325C382.374 325 380.632 323.656 379.238 320.867C377.873 318.137 377 314.297 377 310C377 305.703 377.873 301.863 379.238 299.134C380.632 296.345 382.374 295 384 295C385.626 295 387.368 296.345 388.762 299.134C390.127 301.863 391 305.703 391 310Z" stroke="#880F02" stroke-width="2"/>
<rect x="480.5" y="250.5" width="151" height="119" fill="#F5A878" stroke="#880F02"/>
<rect x="555.912" y="260.414" width="70" height="70" transform="rotate(45 555.912 260.414)" fill="#F5A878" stroke="#880F02" stroke-width="2"/>
<rect x="580" y="286" width="48" height="48" transform="rotate(90 580 286)" fill="#F5A878" stroke="#880F02" stroke-width="2"/>
<rect x="308.5" y="390.495" width="151" height="119" fill="#F5A878" stroke="#880F02"/>
<rect x="383.912" y="400.41" width="70" height="70" transform="rotate(45 383.912 400.41)" fill="#F5A878" stroke="#880F02" stroke-width="2"/>
<path d="M391 449.995C391 454.292 390.127 458.132 388.762 460.862C387.368 463.651 385.626 464.995 384 464.995C382.374 464.995 380.632 463.651 379.238 460.862C377.873 458.132 377 454.292 377 449.995C377 445.699 377.873 441.858 379.238 439.129C380.632 436.34 382.374 434.995 384 434.995C385.626 434.995 387.368 436.34 388.762 439.129C390.127 441.858 391 445.699 391 449.995Z" stroke="#880F02" stroke-width="2"/>
<path d="M480.501 390.495H631.641L651.474 449.995L631.641 509.495H480.501V390.495Z" fill="#F5A878" stroke="#880F02"/>
<path d="M553.343 455.154V454.859C553.351 453.488 553.48 452.397 553.73 451.586C553.987 450.775 554.351 450.124 554.821 449.631C555.29 449.131 555.862 448.673 556.536 448.256C556.999 447.969 557.411 447.654 557.775 447.313C558.146 446.965 558.438 446.578 558.65 446.154C558.862 445.722 558.968 445.241 558.968 444.711C558.968 444.113 558.828 443.594 558.548 443.154C558.268 442.715 557.889 442.374 557.411 442.131C556.942 441.889 556.415 441.768 555.832 441.768C555.294 441.768 554.783 441.885 554.298 442.12C553.821 442.347 553.423 442.696 553.105 443.166C552.794 443.628 552.62 444.215 552.582 444.927H548.536C548.574 443.488 548.923 442.283 549.582 441.313C550.249 440.344 551.127 439.616 552.218 439.131C553.317 438.647 554.529 438.404 555.855 438.404C557.302 438.404 558.574 438.658 559.673 439.166C560.779 439.673 561.639 440.397 562.252 441.336C562.874 442.268 563.184 443.374 563.184 444.654C563.184 445.518 563.044 446.291 562.764 446.972C562.491 447.654 562.101 448.26 561.593 448.791C561.086 449.321 560.483 449.794 559.786 450.211C559.173 450.59 558.669 450.984 558.275 451.393C557.889 451.802 557.601 452.283 557.411 452.836C557.23 453.381 557.135 454.056 557.127 454.859V455.154H553.343ZM555.321 462.245C554.639 462.245 554.052 462.003 553.559 461.518C553.067 461.033 552.821 460.442 552.821 459.745C552.821 459.063 553.067 458.48 553.559 457.995C554.052 457.51 554.639 457.268 555.321 457.268C555.995 457.268 556.578 457.51 557.071 457.995C557.571 458.48 557.821 459.063 557.821 459.745C557.821 460.207 557.703 460.628 557.468 461.006C557.241 461.385 556.938 461.688 556.559 461.916C556.188 462.135 555.775 462.245 555.321 462.245Z" fill="#880F02"/>
<line x1="679.5" y1="510" x2="679.5" y2="250" stroke="#880F02"/>
<path d="M722.5 250.5H816.616L826.482 287.5L816.616 324.5H722.5V250.5Z" fill="#F5A878" stroke="#880F02"/>
<path d="M773.504 287.555C773.504 290.167 772.972 292.482 772.16 294.107C771.317 295.793 770.338 296.454 769.554 296.454C768.77 296.454 767.791 295.793 766.949 294.107C766.136 292.482 765.604 290.167 765.604 287.555C765.604 284.943 766.136 282.627 766.949 281.002C767.791 279.317 768.77 278.655 769.554 278.655C770.338 278.655 771.317 279.317 772.16 281.002C772.972 282.627 773.504 284.943 773.504 287.555Z" stroke="#880F02" stroke-width="2"/>
<path d="M839.5 250.5H933.616L943.482 287.5L933.616 324.5H839.5V250.5Z" fill="#F5A878" stroke="#880F02"/>
<rect x="886.5" y="257.414" width="42.5477" height="42.5477" transform="rotate(45 886.5 257.414)" fill="#F5A878" stroke="#880F02" stroke-width="2"/>
<rect x="901.022" y="273.087" width="28.9359" height="28.9359" transform="rotate(90 901.022 273.087)" fill="#F5A878" stroke="#880F02" stroke-width="2"/>
<path d="M956.5 250.5H1050.62L1060.48 287.5L1050.62 324.5H956.5V250.5Z" fill="#F5A878" stroke="#880F02"/>
<rect x="1003.5" y="257.414" width="42.5477" height="42.5477" transform="rotate(45 1003.5 257.414)" fill="#F5A878" stroke="#880F02" stroke-width="2"/>
<rect x="1018.02" y="273.087" width="28.9359" height="28.9359" transform="rotate(90 1018.02 273.087)" fill="#F5A878" stroke="#880F02" stroke-width="2"/>
<path d="M1007.5 287.555C1007.5 290.167 1006.97 292.482 1006.16 294.107C1005.32 295.793 1004.34 296.454 1003.55 296.454C1002.77 296.454 1001.79 295.793 1000.95 294.107C1000.14 292.482 999.604 290.167 999.604 287.555C999.604 284.943 1000.14 282.627 1000.95 281.002C1001.79 279.317 1002.77 278.655 1003.55 278.655C1004.34 278.655 1005.32 279.317 1006.16 281.002C1006.97 282.627 1007.5 284.943 1007.5 287.555Z" stroke="#880F02" stroke-width="2"/>
<path d="M722.5 393.5H816.616L826.482 430.5L816.616 467.5H722.5V393.5Z" fill="#F5A878" stroke="#880F02"/>
<rect x="784.022" y="416.087" width="28.9359" height="28.9359" transform="rotate(90 784.022 416.087)" fill="#F5A878" stroke="#880F02" stroke-width="2"/>
<path d="M773.998 492.909V494.897H767.951V506H765.579V492.909H773.998Z" fill="#880F02"/>
<path d="M880.454 509.158V504.063H881.329C881.623 503.829 881.898 503.499 882.154 503.072C882.41 502.646 882.627 502.062 882.806 501.321C882.985 500.58 883.109 499.621 883.177 498.445L883.522 492.909H891.889V504.063H893.347V509.145H891.071V506H882.729V509.158H880.454ZM884.091 504.063H889.614V494.897H885.657L885.452 498.445C885.397 499.335 885.307 500.132 885.184 500.835C885.06 501.538 884.905 502.158 884.717 502.695C884.53 503.228 884.321 503.684 884.091 504.063Z" fill="#880F02"/>
<path d="M1000.32 506V492.909H1008.84V494.897H1002.7V498.451H1008.4V500.439H1002.7V504.012H1008.89V506H1000.32Z" fill="#880F02"/>
<path d="M839.494 393.5H933.61L943.476 430.5L933.61 467.5H839.494V393.5Z" fill="#F5A878" stroke="#880F02"/>
<rect x="886.5" y="400.414" width="42.5477" height="42.5477" transform="rotate(45 886.5 400.414)" fill="#F5A878" stroke="#880F02" stroke-width="2"/>
<path d="M890.504 430.555C890.504 433.167 889.972 435.482 889.16 437.107C888.317 438.793 887.338 439.454 886.554 439.454C885.77 439.454 884.791 438.793 883.949 437.107C883.136 435.482 882.604 433.167 882.604 430.555C882.604 427.943 883.136 425.627 883.949 424.002C884.791 422.317 885.77 421.655 886.554 421.655C887.338 421.655 888.317 422.317 889.16 424.002C889.972 425.627 890.504 427.943 890.504 430.555Z" stroke="#880F02" stroke-width="2"/>
<path d="M956.5 393.5H1050.62L1060.48 430.5L1050.62 467.5H956.5V393.5Z" fill="#F5A878" stroke="#880F02"/>
<rect x="1003.5" y="400.414" width="42.5477" height="42.5477" transform="rotate(45 1003.5 400.414)" fill="#F5A878" stroke="#880F02" stroke-width="2"/>
<path d="M765.46 363H762.928L767.537 349.909H770.465L775.08 363H772.548L769.052 352.594H768.95L765.46 363ZM765.543 357.867H772.446V359.772H765.543V357.867Z" fill="#880F02"/>
<path d="M882.403 363V349.909H890.821V351.897H884.774V354.965H887.299C888.3 354.965 889.159 355.129 889.875 355.457C890.595 355.781 891.147 356.239 891.53 356.832C891.914 357.424 892.106 358.121 892.106 358.922C892.106 359.727 891.914 360.437 891.53 361.05C891.147 361.66 890.595 362.137 889.875 362.482C889.159 362.827 888.3 363 887.299 363H882.403ZM884.774 361.057H887.299C887.827 361.057 888.275 360.957 888.641 360.756C889.008 360.556 889.285 360.292 889.472 359.964C889.664 359.636 889.76 359.28 889.76 358.896C889.76 358.342 889.547 357.871 889.121 357.484C888.699 357.092 888.091 356.896 887.299 356.896H884.774V361.057Z" fill="#880F02"/>
<path d="M999.376 363V349.909H1004.39C1005.33 349.909 1006.12 350.058 1006.75 350.357C1007.38 350.651 1007.85 351.053 1008.16 351.565C1008.47 352.076 1008.63 352.656 1008.63 353.303C1008.63 353.836 1008.53 354.292 1008.33 354.671C1008.12 355.046 1007.85 355.351 1007.5 355.585C1007.16 355.82 1006.77 355.988 1006.34 356.09V356.218C1006.81 356.244 1007.25 356.386 1007.68 356.646C1008.11 356.902 1008.46 357.264 1008.73 357.733C1009.01 358.202 1009.14 358.768 1009.14 359.433C1009.14 360.111 1008.98 360.72 1008.65 361.261C1008.32 361.798 1007.83 362.222 1007.17 362.533C1006.51 362.844 1005.68 363 1004.68 363H999.376ZM1001.75 361.018H1004.3C1005.16 361.018 1005.78 360.854 1006.16 360.526C1006.54 360.194 1006.73 359.768 1006.73 359.248C1006.73 358.86 1006.64 358.511 1006.45 358.2C1006.25 357.884 1005.98 357.637 1005.63 357.458C1005.27 357.275 1004.85 357.183 1004.36 357.183H1001.75V361.018ZM1001.75 355.477H1004.09C1004.5 355.477 1004.87 355.402 1005.2 355.253C1005.53 355.099 1005.79 354.884 1005.97 354.607C1006.16 354.326 1006.26 353.994 1006.26 353.61C1006.26 353.103 1006.08 352.685 1005.72 352.357C1005.37 352.029 1004.84 351.865 1004.14 351.865H1001.75V355.477Z" fill="#880F02"/>
<defs>
<filter id="filter0_d_242_45683" x="0" y="0" width="1344.75" height="797.591" filterUnits="userSpaceOnUse" color-interpolation-filters="sRGB">
<feFlood flood-opacity="0" result="BackgroundImageFix"/>
<feColorMatrix in="SourceAlpha" type="matrix" values="0 0 0 0 0 0 0 0 0 0 0 0 0 0 0 0 0 0 127 0" result="hardAlpha"/>
<feOffset dy="24"/>
<feGaussianBlur stdDeviation="46"/>
<feComposite in2="hardAlpha" operator="out"/>
<feColorMatrix type="matrix" values="0 0 0 0 0 0 0 0 0 0 0 0 0 0 0 0 0 0 0.24 0"/>
<feBlend mode="normal" in2="BackgroundImageFix" result="effect1_dropShadow_242_45683"/>
<feBlend mode="normal" in="SourceGraphic" in2="effect1_dropShadow_242_45683" result="shape"/>
</filter>
<radialGradient id="paint0_radial_242_45683" cx="0" cy="0" r="1" gradientUnits="userSpaceOnUse" gradientTransform="translate(668.365 399.056) scale(430.625 406.25)">
<stop stop-color="#FFC488"/>
<stop offset="0.34" stop-color="#FFBF85"/>
<stop offset="0.69" stop-color="#FFB37E"/>
<stop offset="1" stop-color="#FFA274"/>
</radialGradient>
<linearGradient id="paint1_linear_242_45683" x1="1188.59" y1="399.274" x2="1094.46" y2="398.174" gradientUnits="userSpaceOnUse">
<stop stop-color="#8E1613"/>
<stop offset="1" stop-color="#FFA8A6"/>
</linearGradient>
<linearGradient id="paint2_linear_242_45683" x1="1067.87" y1="594.145" x2="1167.52" y2="603.81" gradientUnits="userSpaceOnUse">
<stop stop-color="#FFA274"/>
<stop offset="1" stop-color="#FFC488"/>
</linearGradient>
<linearGradient id="paint3_linear_242_45683" x1="1104.21" y1="606.558" x2="1134.6" y2="609.507" gradientUnits="userSpaceOnUse">
<stop stop-color="#FFA274"/>
<stop offset="1" stop-color="#FFC488"/>
</linearGradient>
<linearGradient id="paint4_linear_242_45683" x1="1106.28" y1="584.695" x2="1168.78" y2="590.757" gradientUnits="userSpaceOnUse">
<stop stop-color="#FFC488"/>
<stop offset="1" stop-color="#FFA274"/>
</linearGradient>
<linearGradient id="paint5_linear_242_45683" x1="1092.27" y1="342.122" x2="1231.34" y2="355.61" gradientUnits="userSpaceOnUse">
<stop stop-color="#FFA274"/>
<stop offset="0.37" stop-color="#FFC488"/>
<stop offset="0.68" stop-color="#FFA274"/>
<stop offset="1" stop-color="#BF7258"/>
</linearGradient>
<linearGradient id="paint6_linear_242_45683" x1="154.089" y1="398.396" x2="249.799" y2="397.56" gradientUnits="userSpaceOnUse">
<stop stop-color="#8E1613"/>
<stop offset="1" stop-color="#FFA8A6"/>
</linearGradient>
<linearGradient id="paint7_linear_242_45683" x1="276.815" y1="594.005" x2="177.172" y2="603.669" gradientUnits="userSpaceOnUse">
<stop stop-color="#FFA274"/>
<stop offset="1" stop-color="#FFC488"/>
</linearGradient>
<linearGradient id="paint8_linear_242_45683" x1="240.487" y1="606.462" x2="210.09" y2="609.411" gradientUnits="userSpaceOnUse">
<stop stop-color="#FFA274"/>
<stop offset="1" stop-color="#FFC488"/>
</linearGradient>
<linearGradient id="paint9_linear_242_45683" x1="238.413" y1="584.599" x2="175.912" y2="590.661" gradientUnits="userSpaceOnUse">
<stop stop-color="#FFC488"/>
<stop offset="1" stop-color="#FFA274"/>
</linearGradient>
<linearGradient id="paint10_linear_242_45683" x1="252.278" y1="340.582" x2="113.26" y2="354.066" gradientUnits="userSpaceOnUse">
<stop stop-color="#FFA274"/>
<stop offset="0.37" stop-color="#FFC488"/>
<stop offset="0.68" stop-color="#FFA274"/>
<stop offset="1" stop-color="#BF7258"/>
</linearGradient>
</defs>
</svg>
