<svg width="706" height="516" viewBox="0 0 706 516" fill="none" xmlns="http://www.w3.org/2000/svg">
<path d="M79.882 510.118C81.753 499.082 90.4104 475.679 90.4104 475.679C90.4104 475.679 88.8249 496.006 88.3809 509.674C118 508.278 146.889 507.422 175.874 506.947C188.273 496.196 208.854 475.837 209.742 506.503C253.156 506.122 297.584 506.312 346.04 506.312C347.34 502.475 356.22 488.268 356.727 498.797C357.71 501.207 355.871 503.839 355.68 506.312C361.991 506.312 370.744 506.312 380.923 506.344C392.625 479.199 408.291 467.402 392.086 506.344C445.298 501.334 543.478 520.646 559.049 490.932L694.142 154.342C706.16 122.884 706.002 45.9824 706.002 0.00012207C673.529 2.75906 642.768 4.69349 612.737 6.0571C609.154 15.539 599.355 37.5787 599.355 37.5787C599.355 37.5787 599.133 21.4691 598.023 6.65964C582.706 7.26216 567.484 7.76952 552.358 8.11835C550.867 13.4777 528.447 25.0525 529.367 14.429C526.576 12.9702 524.515 10.4968 522.009 8.6575C496.133 9.03804 470.065 9.16483 443.205 9.19654C443.174 18.1393 441.556 35.898 441.556 35.898C441.747 39.4497 436.26 9.19654 436.26 9.19654C393.671 9.19654 363.133 9.19654 324.254 9.10141C321.368 9.6088 318.482 9.98933 315.565 10.1796C309.73 10.5601 303.895 10.0845 298.155 9.03801C288.166 9.03801 277.542 9.00624 265.936 8.97453C269.044 35.1368 261.56 29.4604 256.232 8.97453C251.19 8.97453 246.179 8.97459 241.264 8.94288C239.615 27.2724 211.518 14.873 202.29 10.0211C183.073 6.05708 153.105 8.91118 146.953 24.5134L11.86 361.072C-0.158782 392.53 -0.00026466 469.431 -0.00026667 515.414C27.6525 513.067 54.0369 511.354 79.8186 510.023L79.882 510.118Z" fill="url(#paint0_radial_317_1123)"/>
<path style="mix-blend-mode:multiply" opacity="0.25" fill-rule="evenodd" clip-rule="evenodd" d="M431.122 505.805C483.479 507.422 546.807 514.335 559.048 490.964L694.141 154.374C702.291 133.031 704.828 90.7278 705.652 51.405C700.483 127.545 515.318 428.65 431.154 505.773L431.122 505.805Z" fill="url(#paint1_linear_317_1123)"/>
<path style="mix-blend-mode:multiply" opacity="0.25" fill-rule="evenodd" clip-rule="evenodd" d="M265.972 9.06934C266.225 11.2257 266.415 13.1602 266.511 14.9043C271.933 12.4942 277.356 10.4963 282.811 9.10098C277.388 9.10098 271.806 9.10105 265.94 9.06934L265.972 9.06934Z" fill="url(#paint2_linear_317_1123)"/>
<path style="mix-blend-mode:multiply" opacity="0.25" fill-rule="evenodd" clip-rule="evenodd" d="M0.0686729 515.509C8.63089 459.886 124.665 89.8716 259.25 18.4564C258.235 15.856 257.22 12.6848 256.269 9.03792C251.227 9.03792 246.216 9.03789 241.301 9.00618C239.652 27.3357 211.555 14.9363 202.327 10.0844C183.11 6.12038 153.142 8.97448 146.99 24.5767L11.8971 361.135C-0.121672 392.593 0.0369061 469.495 0.0369041 515.477L0.0686729 515.509Z" fill="url(#paint3_linear_317_1123)"/>
<path d="M694.111 154.406C683.646 183.486 664.334 215.388 621.364 250.176C598.31 268.854 579.409 285.662 563.775 301.961C568.088 302.691 575.445 307.574 575.445 307.574C575.445 307.574 562.095 309.826 556.64 309.636C527.719 341.697 511.165 372.711 500.478 413.239C520.489 411.05 538.85 417.647 552.866 435.564C564.536 450.437 566.376 470.352 561.334 485.32C611.724 362.975 647.083 279.985 694.08 154.374L694.111 154.406Z" fill="url(#paint4_linear_317_1123)"/>
<path d="M84.667 265.397C140.004 220.588 171.494 186.466 190.838 144.163C190.585 144.099 190.299 144.067 190.046 143.972C188.428 143.433 186.716 142.355 186.367 140.547C186.018 138.772 186.811 137.091 188.143 135.918C189.507 134.681 191.124 133.888 192.836 133.222C193.819 132.841 194.834 132.556 195.849 132.334C199.559 122.852 202.762 112.926 205.553 102.335C185.543 104.523 167.181 97.9266 153.165 80.0094C141.495 65.1365 139.655 45.2214 144.666 30.2534C94.2757 152.566 58.9169 235.588 11.9198 361.199C22.3848 332.119 41.6973 300.217 84.667 265.429L84.667 265.397Z" fill="url(#paint5_linear_317_1123)"/>
<g style="mix-blend-mode:multiply" opacity="0.15">
<path d="M574.906 452.497C574.05 422.276 554.959 404.739 532.285 397.445C535.044 380.067 542.147 353.651 560.413 327.235C563.743 322.415 566.28 317.658 569.832 313.44C576.587 312.87 602.241 316.58 602.241 316.58C602.241 316.58 588.637 305.512 580.297 301.739C609.345 270.788 643.721 259.086 662.589 236.983C672.705 211.106 683.107 183.929 694.143 154.405C683.678 183.485 664.365 215.387 621.395 250.175C598.341 268.853 579.441 285.661 563.807 301.961C568.119 302.69 575.477 307.574 575.477 307.574C575.477 307.574 562.126 309.825 556.671 309.635C530.382 338.778 514.336 367.065 503.617 402.392C503.491 402.836 503.332 403.28 503.205 403.724C502.286 406.832 501.366 410.003 500.51 413.238C501.81 413.111 503.11 412.984 504.379 412.921C504.664 412.921 504.949 412.921 505.266 412.921C506.281 412.889 507.264 412.857 508.247 412.857C508.533 412.857 508.786 412.857 509.072 412.857C510.087 412.857 511.101 412.921 512.116 412.984C512.338 412.984 512.528 413.016 512.75 413.047C513.829 413.143 514.875 413.238 515.953 413.396C516.112 413.396 516.239 413.428 516.397 413.46C517.507 413.618 518.649 413.809 519.759 414.062C519.854 414.062 519.917 414.094 520.013 414.126C521.186 414.379 522.327 414.665 523.501 414.982C523.533 414.982 523.564 414.982 523.596 414.982C524.801 415.331 525.974 415.711 527.116 416.124C528.289 416.567 529.463 417.043 530.636 417.551C538.849 421.229 546.397 427.128 552.961 435.531C564.631 450.404 566.47 470.319 561.428 485.287C566.058 474.029 570.561 463.121 574.969 452.465L574.906 452.497Z" fill="#BC6182"/>
</g>
<g style="mix-blend-mode:multiply" opacity="0.2">
<path d="M84.667 265.397C140.004 220.588 171.494 186.466 190.838 144.163C190.585 144.099 190.299 144.067 190.046 143.972C188.428 143.433 186.716 142.355 186.367 140.547C186.018 138.772 186.811 137.091 188.143 135.918C189.507 134.681 191.124 133.888 192.836 133.222C193.819 132.841 194.834 132.556 195.849 132.334C199.559 122.852 202.762 112.926 205.553 102.335C185.543 104.523 167.181 97.9266 153.165 80.0094C141.495 65.1365 139.655 45.2214 144.666 30.2534C139.402 43.065 134.296 55.4326 129.317 67.4514C127.795 94.0894 171.621 114.322 188.238 117.207C186.621 121.013 184.369 125.96 182.276 130.368C173.302 133.222 165.754 143.909 174.126 147.936C158.905 176.572 131.379 209.711 100.618 230.007C58.8535 257.596 42.0461 282.268 42.0144 282.331C32.374 307.098 22.4165 333.07 11.9198 361.167C22.3848 332.087 41.6973 300.185 84.667 265.397Z" fill="#BC6182"/>
</g>
<path d="M500.479 413.237C529.686 409.812 551.282 426.62 558.861 445.393C566.472 464.167 564.601 473.426 561.334 485.318C563.11 467.718 560.954 455.731 554.96 445.361C547.445 432.391 539.009 418.723 500.479 413.237Z" fill="#FFCFA4"/>
<path d="M144.666 30.2209C139.592 48.4869 140.512 65.4211 161.885 89.205C179.042 108.296 197.181 104.046 205.553 102.302C188.999 102.492 178.217 101.478 165.025 87.0803C149.962 70.6535 142.224 61.4888 144.698 30.2209L144.666 30.2209Z" fill="#FFCFA4"/>
<g style="mix-blend-mode:multiply" opacity="0.15">
<path d="M39.8362 476.566C39.8362 476.566 40.09 476.503 40.2168 476.471C40.6925 476.313 41.1364 476.122 41.5487 475.932C41.6755 475.869 41.8024 475.805 41.8976 475.742C42.3098 475.488 42.6586 475.171 43.0391 474.886C43.1343 474.79 43.2611 474.695 43.3563 474.6C43.6734 474.251 43.9588 473.871 44.2125 473.49C44.2759 473.395 44.371 473.268 44.4027 473.141C44.6247 472.698 44.8151 472.253 44.9736 471.778C45.1322 471.27 45.1638 470.731 45.2273 470.224C45.2907 469.558 45.1639 468.86 45.037 468.226C44.8784 467.56 44.593 466.894 44.2125 466.292C43.9271 465.848 43.5783 465.436 43.2611 465.023C43.166 464.896 43.0391 464.77 42.9123 464.674C42.5 464.326 42.0878 463.977 41.6438 463.723C41.1998 463.438 40.6291 463.247 40.1851 463.057C40.0265 462.994 39.868 462.93 39.7094 462.899C39.1703 462.772 38.5995 462.677 38.0603 462.677C37.4578 462.677 36.8871 462.772 36.348 463.057C35.8089 463.247 35.3332 463.533 34.9209 463.977C34.5086 464.357 34.2232 464.801 34.033 465.34C33.8744 465.435 33.7159 465.531 33.5573 465.689C33.4622 465.784 33.3671 465.879 33.2719 466.006C32.9231 466.419 32.5742 466.862 32.3522 467.338C32.162 467.719 31.9717 468.131 31.8766 468.575C31.7814 469.019 31.718 469.463 31.6863 469.907C31.6229 470.351 31.6863 470.731 31.7497 471.175C31.7814 471.461 31.8132 471.746 31.8766 472.032C32.0034 472.476 32.1937 472.888 32.384 473.3C32.4474 473.427 32.5108 473.522 32.5743 473.649C32.8279 474.029 33.1133 474.41 33.3987 474.727C33.4938 474.822 33.5573 474.917 33.6524 474.981C34.0013 475.266 34.3818 475.583 34.794 475.837C35.1746 476.059 35.6503 476.218 36.0626 476.376C36.1894 476.44 36.3162 476.471 36.4748 476.503C36.9504 476.63 37.4261 476.661 37.9018 476.725C38.0287 476.725 38.1872 476.757 38.3457 476.725C38.8214 476.725 39.3289 476.63 39.8046 476.535L39.8362 476.566Z" fill="#BC6182"/>
</g>
<g style="mix-blend-mode:multiply" opacity="0.15">
<path d="M79.882 510.118C81.753 499.082 90.4104 475.679 90.4104 475.679C90.4104 475.679 88.8249 496.006 88.3809 509.674C118 508.278 146.889 507.422 175.874 506.947C188.273 496.196 208.854 475.837 209.742 506.503C253.156 506.122 297.584 506.312 346.04 506.312C347.34 502.475 356.22 488.268 356.727 498.797C357.71 501.207 355.871 503.839 355.68 506.312C361.991 506.312 370.744 506.312 380.923 506.344C392.625 479.199 408.291 467.402 392.086 506.344C445.298 501.334 543.478 520.646 559.049 490.932L694.142 154.342C706.16 122.884 706.002 45.9823 706.002 6.10352e-05C673.529 2.759 642.768 4.69343 612.737 6.05704C609.154 15.5389 599.355 37.5787 599.355 37.5787C599.355 37.5787 599.133 21.469 598.023 6.65957C582.706 7.2621 567.484 7.76946 552.358 8.11829C550.867 13.4776 528.447 25.0524 529.367 14.4289C526.576 12.9702 524.515 10.4967 522.009 8.65744C496.133 9.03798 470.065 9.16477 443.205 9.19648C443.174 18.1392 441.556 35.8979 441.556 35.8979C441.747 39.4497 436.26 9.19648 436.26 9.19648C393.671 9.19648 363.133 9.19648 324.254 9.10134C321.368 9.60873 318.482 9.98927 315.565 10.1795C309.698 10.5601 303.895 10.0844 298.155 9.03795C288.166 9.03795 277.542 9.00618 265.936 8.97447C269.044 35.1368 261.56 29.4604 256.232 8.97447C251.19 8.97447 246.179 8.97453 241.264 8.94282C239.615 27.2723 211.518 14.8729 202.29 10.021C183.073 6.05702 153.105 8.91112 146.953 24.5134L11.86 361.072C-0.158782 392.53 -0.00026466 469.431 -0.00026667 515.414C27.6525 513.067 54.0369 511.354 79.8186 510.022L79.882 510.118ZM29.9675 495.816C30.8237 494.04 31.1408 491.947 30.7286 489.885C29.8723 485.636 26.0352 482.877 22.0395 481.545C21.8493 479.643 21.2151 477.803 20.3905 476.059C22.1347 475.33 23.7837 474.093 24.6082 472.412C25.2424 471.112 25.4644 469.717 25.1473 468.29C24.8936 467.243 24.2594 466.228 23.4349 465.531C21.6907 464.072 19.2806 463.565 17.0925 464.199C15.7923 464.579 14.619 465.277 13.6359 466.165C13.5091 466.292 13.4139 466.419 13.287 466.514C12.1771 465.499 10.8769 464.706 9.41819 464.579C7.86431 423.861 8.9742 376.23 15.7605 358.345C18.7415 350.956 149.585 30.1897 149.585 30.1897C151.614 28.287 163.348 24.7987 176.223 24.7353C176.54 26.0989 176.794 27.4625 177.206 28.8261C177.079 29.4921 177.047 30.2215 177.206 31.0143C177.523 32.5682 178.252 33.7732 179.204 34.7563C180.726 38.5617 182.692 42.1768 185.197 45.2529C187.607 48.1704 190.398 50.0097 194.172 50.6122C196.17 50.9293 198.136 50.6757 200.102 50.2634C202.544 49.756 204.573 48.551 207.11 49.3755C211.011 50.6123 213.77 53.5297 218.114 53.3711C219.858 53.3077 221.539 52.8321 222.934 51.7539C223.569 51.2465 224.108 50.1999 224.774 49.8194C224.266 50.1048 225.915 49.978 226.296 49.9463C229.879 49.9146 232.892 47.7264 234.446 44.5552C235.588 42.2085 235.746 39.7034 235.524 37.1981C239.076 36.659 242.532 35.6125 245.704 33.8683C250.175 41.0352 258.864 58.5402 269.17 57.2083C271.644 56.8912 276.02 48.0753 279.191 36.8176C281.76 27.7163 289.212 21.0251 298.25 19.4712C298.314 19.4712 298.377 19.5346 298.441 19.5346C299.075 19.6614 299.772 19.9151 300.407 19.9469C301.009 19.9469 301.643 19.8834 302.278 19.8517C303.578 19.7883 304.878 19.6931 306.178 19.7248C307.669 19.7566 309.096 20.042 310.523 20.4543C317.214 19.7883 323.873 19.3443 330.533 20.264C330.787 20.1689 331.009 20.042 331.262 19.9469C331.262 19.9469 331.326 19.9469 331.357 19.9469C339.063 20.2323 346.643 20.5493 354.031 20.8664C356.759 22.3569 360.215 22.3569 363.196 22.7058C365.86 22.9912 368.524 23.0546 371.092 23.6571C373.059 24.1328 375.056 24.8622 376.166 26.7015C376.674 27.526 376.896 28.4773 377.023 29.4287C376.832 33.9635 376.642 38.4666 376.61 43.0014C376.579 48.2021 377.118 53.3712 377.149 58.5719C377.149 63.963 377.086 69.3857 376.832 74.745C376.769 76.0769 378.767 76.0452 378.862 74.745C379.433 68.1489 380.194 61.4894 381.082 54.9251C381.875 49.0267 383.016 43.255 383.65 37.3249C383.682 37.2298 383.746 37.103 383.777 37.0079C384.411 35.454 384.951 33.9001 385.49 32.3145C386.536 29.397 387.995 27.0503 390.627 25.3696C393.196 23.7205 396.208 23.0546 399.221 22.8327C400.045 22.7692 400.87 22.7057 401.726 22.674C402.107 22.674 402.487 22.6741 402.868 22.7058C414.855 22.9595 425.193 31.268 428.015 42.9062C433.723 66.4365 442.286 99.4486 442.286 99.4486C442.286 99.4486 442.349 99.0363 442.476 98.3387C442.856 109.723 443.3 121.171 442.413 132.429C442.349 133.349 443.776 133.349 443.84 132.429C445.298 117.271 447.867 102.366 448.121 87.0809C448.216 80.8019 448.121 74.4913 447.835 68.1806C451.609 46.9654 455.953 22.4838 456.049 21.2153C475.932 21.1519 496.164 20.5811 512.084 20.3908C515.54 25.5915 534.25 47.5679 534.25 47.5679C534.25 47.5679 554.578 24.4183 563.52 17.0928C565.835 17.0294 589.175 18.2027 589.936 28.4774C591.173 44.809 593.615 76.0135 593.615 76.0135C593.678 75.8866 594.756 74.0791 596.501 71.1933C595.549 76.8063 594.661 82.4192 593.773 88.064C590.697 107.408 587.494 126.721 584.514 146.065C584.418 146.731 585.401 147.048 585.56 146.35C589.841 127.894 593.9 109.374 598.055 90.8546C600.084 81.8485 602.177 72.874 603.985 63.8361C604.524 61.2358 605.031 58.6037 605.602 56.0033C610.232 48.2339 615.433 39.4814 619.682 32.0925C625.105 22.6423 635.284 16.9025 646.162 17.3782C662.239 18.0759 679.237 19.82 693.698 18.7101C694.268 27.7162 694.617 38.6886 694.712 50.6122C692.968 52.071 689.765 52.6735 688.116 53.4346C685.294 54.7665 683.423 56.7327 682.63 59.777C682.155 61.5846 681.806 62.9482 680.537 64.1215C679.998 64.4386 679.491 64.7875 679.015 65.1997C677.842 65.7705 676.605 66.0559 675.336 66.4682C671.912 67.5781 669.85 69.2906 669.438 73.0326C668.74 79.5018 671.372 87.0176 676.002 91.5207C678.413 93.8356 681.267 95.5163 684.343 96.7847C686.848 97.8312 689.702 98.624 690.939 101.256C691.51 102.461 692.556 103.064 693.698 103.222C692.302 132.778 689.448 159.955 684.913 171.974L579.218 429.157C566.66 460.457 560.095 478.723 560.095 478.723C560.095 478.691 529.145 491.281 459.315 493.786C452.719 494.008 440.478 494.452 429.918 494.801C419.77 495.15 408.988 492.993 409.971 482.909L413.84 462.423C415.616 458.015 417.328 453.575 418.851 449.072C422.561 438.1 426.176 427.064 430.33 416.219C430.584 415.553 429.442 415.045 429.157 415.711C424.305 426.24 418.946 436.546 413.682 446.852C413.491 447.201 413.333 447.55 413.174 447.931C407.276 454.495 396.208 467.053 385.838 480.213C385.299 480.15 384.697 480.245 384.348 480.404C383.65 480.721 383.048 480.974 382.477 481.482C381.875 481.957 381.335 482.497 380.796 483.004C379.591 484.177 378.894 485.668 377.974 487.063C377.847 487.253 377.72 487.412 377.593 487.602C377.53 487.697 377.53 487.697 377.53 487.729C377.53 487.729 377.53 487.729 377.435 487.824C377.149 488.141 376.864 488.458 376.547 488.744C376.357 488.902 376.008 489.124 375.564 489.346C375.342 489.441 374.93 489.568 374.486 489.695C373.946 489.822 373.407 489.854 372.868 489.854C370.934 477.042 371.092 448.248 371.092 448.248C371.092 448.248 342.964 490.329 338.049 496.767C338.049 496.767 293.874 496.482 257.31 496.355C257.278 496.26 257.247 496.164 257.215 496.038C255.883 493.31 253.727 490.393 250.651 489.505C249.002 489.029 247.226 489.283 245.704 490.076C245.26 490.329 244.721 490.869 244.213 491.059C244.213 490.995 243.928 490.964 243.801 490.9C242.247 490.266 240.915 489.473 239.171 489.442C237.427 489.41 235.524 490.266 234.034 491.122C234.034 491.122 234.002 491.122 233.97 491.154C232.575 491.122 231.18 491.249 230.038 492.074C229.594 492.391 229.277 492.803 229.023 493.279C228.674 493.183 228.357 493.057 228.072 492.74C227.755 492.391 227.406 492.232 227.025 492.232C221.032 488.014 217.163 480.974 217.385 473.078C217.67 463.438 218.241 454.907 218.241 454.907C218.241 454.907 186.815 486.746 175.271 496.767C162.079 498.765 139.818 498.67 120.917 498.638C108.613 498.638 98.719 488.458 99.0678 476.154C99.2581 469.336 99.4483 462.042 99.6069 455.7C99.6069 455.605 99.6386 455.51 99.6703 455.415C101.288 449.643 102.746 443.776 104.649 438.1C108.581 426.493 108.708 414.062 112.514 402.424C112.958 401.092 110.769 400.109 110.199 401.441C105.283 412.984 105.537 425.986 101.288 437.815C100.875 438.924 100.4 440.003 99.9557 441.081C99.9557 439.812 99.9873 439.083 99.9873 439.083C99.5751 440.225 87.4612 461.44 78.7405 478.184C72.9372 489.346 61.8063 496.672 49.2801 497.56C47.7579 497.687 46.204 497.782 44.6184 497.94C39.3225 498.384 34.2804 497.56 29.7138 495.784L29.9675 495.816Z" fill="#BC6182"/>
</g>
<g style="mix-blend-mode:multiply" opacity="0.15">
<path d="M231.849 482.718C231.849 482.655 231.595 482.148 231.564 482.052C231.564 482.052 231.564 482.021 231.564 481.989C231.469 481.862 231.215 481.545 231.12 481.418C231.12 481.418 231.12 481.418 231.088 481.386C231.056 481.355 230.581 480.974 230.517 480.942C230.517 480.942 230.517 480.942 230.485 480.942C230.359 480.879 229.946 480.689 229.819 480.657C229.788 480.657 229.756 480.657 229.724 480.657C229.693 480.657 229.534 480.657 229.407 480.625C229.344 480.562 229.249 480.498 229.185 480.435C228.9 480.276 228.614 480.181 228.266 480.181C227.758 480.181 227.187 480.308 226.743 480.594C226.585 480.689 226.49 480.879 226.331 481.006C226.3 481.006 226.268 481.006 226.236 481.038C226.109 481.133 225.951 481.26 225.824 481.355C225.76 481.418 225.538 481.704 225.507 481.767C225.507 481.83 225.443 481.862 225.443 481.926C225.316 482.179 225.221 482.433 225.158 482.687C225.094 482.909 225.094 483.162 225.063 483.384C225.063 483.448 225.063 483.479 225.063 483.543C225.063 483.765 225.126 483.987 225.158 484.209L225.158 484.272C225.158 484.336 225.38 484.78 225.412 484.843C225.412 484.843 225.412 484.843 225.412 484.875C225.412 484.875 225.412 484.938 225.443 484.938C225.57 485.128 225.729 485.35 225.887 485.509C226.046 485.699 226.268 485.826 226.49 485.985C226.553 486.048 226.648 486.08 226.743 486.143C226.965 486.27 227.219 486.365 227.441 486.429C227.505 486.429 227.536 486.46 227.6 486.46C227.758 486.492 227.917 486.524 228.044 486.524C228.202 486.524 228.361 486.587 228.519 486.587C228.583 486.587 228.614 486.587 228.678 486.587C228.932 486.587 229.217 486.524 229.471 486.46C229.502 486.46 229.566 486.46 229.598 486.429C229.851 486.334 230.105 486.238 230.327 486.112C230.359 486.112 230.422 486.08 230.454 486.048C230.454 486.048 230.485 486.048 230.517 486.016C230.707 485.858 230.929 485.731 231.088 485.572C231.12 485.572 231.151 485.509 231.183 485.477C231.342 485.287 231.5 485.097 231.627 484.906C231.722 484.684 231.817 484.462 231.912 484.272L231.976 483.923C232.071 483.575 232.039 483.194 231.912 482.845L231.849 482.718Z" fill="#BC6182"/>
</g>
<g style="mix-blend-mode:multiply" opacity="0.15">
<path d="M266.161 475.837C266.161 475.837 265.908 475.932 265.781 475.996C265.654 476.027 265.527 476.091 265.4 476.154C265.369 476.154 265.305 476.218 265.273 476.218C265.083 476.344 264.861 476.535 264.671 476.662C264.671 476.662 264.639 476.693 264.607 476.725C264.576 476.757 264.544 476.788 264.512 476.852C264.354 477.074 264.164 477.264 264.005 477.486C264.005 477.518 263.942 477.581 263.91 477.613C263.751 477.898 263.624 478.215 263.529 478.533C263.466 478.786 263.434 479.103 263.402 479.357C263.402 479.42 263.402 479.452 263.402 479.516C263.402 479.516 263.402 479.547 263.402 479.579C263.402 479.833 263.466 480.086 263.498 480.34C263.498 480.404 263.498 480.435 263.529 480.467C263.751 481.101 263.91 481.355 264.322 481.862C264.481 482.053 264.798 482.243 264.956 482.37C264.956 482.37 264.988 482.37 265.02 482.401C265.115 482.433 265.21 482.497 265.337 482.528C265.495 482.592 265.654 482.592 265.813 482.623C265.844 482.623 265.876 482.623 265.939 482.655L266.003 482.655C266.098 482.655 266.193 482.719 266.32 482.719C266.352 482.719 266.383 482.719 266.447 482.719C266.542 482.719 266.637 482.75 266.7 482.75C266.954 482.75 267.208 482.719 267.462 482.655C267.462 482.655 267.493 482.655 267.525 482.655C267.747 482.592 267.937 482.497 268.159 482.401C268.413 482.275 268.667 482.084 268.857 481.894C268.889 481.862 268.92 481.831 268.952 481.799C269.111 481.609 269.269 481.418 269.396 481.228C269.555 481.006 269.681 480.657 269.745 480.435C269.777 480.34 269.808 480.245 269.84 480.118C269.872 479.896 269.935 479.643 269.935 479.389C269.935 479.325 269.935 479.294 269.935 479.23C269.935 479.135 269.903 479.008 269.872 478.881C269.872 478.755 269.967 478.628 269.967 478.469C269.967 477.993 269.84 477.549 269.618 477.137C269.333 476.725 269.015 476.344 268.571 476.122C268.413 476.059 268.064 475.869 267.81 475.805C267.557 475.742 267.271 475.679 267.018 475.71C266.891 475.71 266.732 475.742 266.605 475.774C266.447 475.774 266.257 475.774 266.098 475.869L266.161 475.837Z" fill="#BC6182"/>
</g>
<g style="mix-blend-mode:multiply" opacity="0.15">
<path d="M236.507 64.5975C237.173 63.5827 237.427 62.3777 237.522 61.1727C237.585 60.5701 237.459 59.9359 237.363 59.3651C237.268 58.7943 237.046 58.1283 236.729 57.6526C236.412 57.0818 235.936 56.6379 235.397 56.3207C234.985 56.0988 234.573 55.9719 234.129 55.9085C233.685 55.7182 233.241 55.5596 232.765 55.5913C231.433 55.6548 230.26 56.4158 229.879 57.7477C229.753 58.16 229.784 58.6357 229.848 59.0479C229.816 59.3016 229.816 59.5553 229.848 59.8407C229.784 59.9041 229.689 59.9676 229.657 59.9993C229.34 60.3165 229.15 60.6335 228.96 61.0458C228.833 61.3629 228.77 61.5849 228.706 61.8386C228.674 61.9337 228.611 62.0288 228.579 62.124C228.484 62.5045 228.452 62.8851 228.452 63.2657C228.452 64.7244 229.277 65.9929 230.514 66.7222C231.814 67.4833 233.463 67.3247 234.7 66.4685C235.524 65.866 235.968 65.4537 236.539 64.5975L236.507 64.5975Z" fill="#BC6182"/>
</g>
<g style="mix-blend-mode:multiply" opacity="0.15">
<path d="M671.244 106.996C672.1 106.298 672.512 105.22 672.607 104.142C672.956 104.047 673.305 103.888 673.464 103.539C673.749 103 673.686 102.303 673.242 101.859C673.051 101.668 672.861 101.542 672.671 101.383C672.512 101.098 672.259 100.844 671.973 100.685C671.688 100.527 671.402 100.368 671.117 100.241C670.641 100.019 670.261 99.9242 669.753 99.8291C668.929 99.7023 668.136 99.6388 667.312 99.734L666.677 99.8291C666.36 99.8925 666.075 100.051 665.853 100.273C665.472 100.558 665.06 101.034 664.997 101.541C664.933 102.049 664.901 102.556 664.775 103.032C664.711 103.286 664.584 103.508 664.521 103.73C664.426 103.983 664.394 104.205 664.362 104.459C664.236 104.871 664.204 105.284 664.299 105.664C664.299 106.076 664.426 106.457 664.648 106.806L665.123 107.408C665.504 107.789 665.948 108.042 666.455 108.201C667.185 108.486 668.295 108.391 669.024 108.201C669.88 107.947 670.546 107.535 671.212 106.964L671.244 106.996Z" fill="#BC6182"/>
</g>
<path fill-rule="evenodd" clip-rule="evenodd" d="M260.002 188C260.002 181.925 255.077 177 249.002 177C242.927 177 238.002 181.925 238.002 188C238.002 194.075 242.927 199 249.002 199C255.077 199 260.002 194.075 260.002 188ZM249.002 164C235.747 164 225.002 174.745 225.002 188C225.002 201.255 235.747 212 249.002 212C262.257 212 273.002 201.255 273.002 188C273.002 174.745 262.257 164 249.002 164Z" fill="#880F02"/>
<path fill-rule="evenodd" clip-rule="evenodd" d="M260.002 316C260.002 309.925 255.077 305 249.002 305C242.927 305 238.002 309.925 238.002 316C238.002 322.075 242.927 327 249.002 327C255.077 327 260.002 322.075 260.002 316ZM249.002 292C235.747 292 225.002 302.745 225.002 316C225.002 329.255 235.747 340 249.002 340C262.257 340 273.002 329.255 273.002 316C273.002 302.745 262.257 292 249.002 292Z" fill="#880F02"/>
<path fill-rule="evenodd" clip-rule="evenodd" d="M364.002 188C364.002 181.925 359.077 177 353.002 177C346.927 177 342.002 181.925 342.002 188C342.002 194.075 346.927 199 353.002 199C359.077 199 364.002 194.075 364.002 188ZM353.002 164C339.747 164 329.002 174.745 329.002 188C329.002 201.255 339.747 212 353.002 212C366.257 212 377.002 201.255 377.002 188C377.002 174.745 366.257 164 353.002 164Z" fill="#880F02"/>
<path fill-rule="evenodd" clip-rule="evenodd" d="M364.002 316C364.002 309.925 359.077 305 353.002 305C346.927 305 342.002 309.925 342.002 316C342.002 322.075 346.927 327 353.002 327C359.077 327 364.002 322.075 364.002 316ZM353.002 292C339.747 292 329.002 302.745 329.002 316C329.002 329.255 339.747 340 353.002 340C366.257 340 377.002 329.255 377.002 316C377.002 302.745 366.257 292 353.002 292Z" fill="#880F02"/>
<path fill-rule="evenodd" clip-rule="evenodd" d="M468.002 188C468.002 181.925 463.077 177 457.002 177C450.927 177 446.002 181.925 446.002 188C446.002 194.075 450.927 199 457.002 199C463.077 199 468.002 194.075 468.002 188ZM457.002 164C443.747 164 433.002 174.745 433.002 188C433.002 201.255 443.747 212 457.002 212C470.257 212 481.002 201.255 481.002 188C481.002 174.745 470.257 164 457.002 164Z" fill="#880F02"/>
<path fill-rule="evenodd" clip-rule="evenodd" d="M516.002 252C516.002 245.925 511.077 241 505.002 241C498.927 241 494.002 245.925 494.002 252C494.002 258.075 498.927 263 505.002 263C511.077 263 516.002 258.075 516.002 252ZM505.002 228C491.747 228 481.002 238.745 481.002 252C481.002 265.255 491.747 276 505.002 276C518.257 276 529.002 265.255 529.002 252C529.002 238.745 518.257 228 505.002 228Z" fill="#880F02"/>
<path fill-rule="evenodd" clip-rule="evenodd" d="M212.002 252C212.002 245.925 207.077 241 201.002 241C194.927 241 190.002 245.925 190.002 252C190.002 258.075 194.927 263 201.002 263C207.077 263 212.002 258.075 212.002 252ZM201.002 228C187.747 228 177.002 238.745 177.002 252C177.002 265.255 187.747 276 201.002 276C214.257 276 225.002 265.255 225.002 252C225.002 238.745 214.257 228 201.002 228Z" fill="#880F02"/>
<path fill-rule="evenodd" clip-rule="evenodd" d="M468.002 316C468.002 309.925 463.077 305 457.002 305C450.927 305 446.002 309.925 446.002 316C446.002 322.075 450.927 327 457.002 327C463.077 327 468.002 322.075 468.002 316ZM457.002 292C443.747 292 433.002 302.745 433.002 316C433.002 329.255 443.747 340 457.002 340C470.257 340 481.002 329.255 481.002 316C481.002 302.745 470.257 292 457.002 292Z" fill="#880F02"/>
<path fill-rule="evenodd" clip-rule="evenodd" d="M216.191 170.799L191.525 192.856C156.849 223.863 156.849 278.137 191.525 309.144L216.191 331.201C230.491 343.988 249.001 351.057 268.184 351.057L436.817 351.057C456 351.057 474.51 343.988 488.81 331.201L513.477 309.144C548.153 278.137 548.153 223.863 513.477 192.856L488.81 170.799C474.51 158.012 456 150.943 436.817 150.943L268.184 150.943C249.001 150.943 230.491 158.012 216.191 170.799ZM189.525 190.619C153.515 222.82 153.515 279.18 189.525 311.381L214.192 333.438C229.041 346.716 248.264 354.057 268.184 354.057L436.817 354.057C456.738 354.057 475.96 346.716 490.81 333.438L515.476 311.381C551.486 279.18 551.486 222.82 515.476 190.619L490.81 168.562C475.96 155.284 456.738 147.943 436.817 147.943L268.184 147.943C248.263 147.943 229.041 155.284 214.192 168.562L189.525 190.619Z" fill="#880F02"/>
<path d="M440.561 228.909L443.444 233.703H443.546L446.441 228.909H449.145L445.112 235.455L449.209 242H446.461L443.546 237.238H443.444L440.529 242H437.793L441.929 235.455L437.844 228.909H440.561Z" fill="#880F02"/>
<path d="M303.461 242H300.93L305.538 228.909H308.466L313.081 242H310.55L307.053 231.594H306.951L303.461 242ZM303.544 236.867H310.447V238.772H303.544V236.867Z" fill="#880F02"/>
<path d="M302.377 272V258.909H307.388C308.334 258.909 309.121 259.058 309.747 259.357C310.378 259.651 310.849 260.053 311.16 260.565C311.475 261.076 311.633 261.656 311.633 262.303C311.633 262.836 311.53 263.292 311.326 263.671C311.121 264.046 310.846 264.351 310.501 264.585C310.156 264.82 309.77 264.988 309.344 265.09V265.218C309.809 265.244 310.254 265.386 310.68 265.646C311.111 265.902 311.462 266.264 311.735 266.733C312.008 267.202 312.144 267.768 312.144 268.433C312.144 269.111 311.98 269.72 311.652 270.261C311.324 270.798 310.829 271.222 310.169 271.533C309.508 271.844 308.677 272 307.676 272H302.377ZM304.748 270.018H307.299C308.16 270.018 308.78 269.854 309.159 269.526C309.542 269.194 309.734 268.768 309.734 268.248C309.734 267.86 309.638 267.511 309.447 267.2C309.255 266.884 308.982 266.637 308.628 266.458C308.275 266.275 307.853 266.183 307.363 266.183H304.748V270.018ZM304.748 264.477H307.094C307.503 264.477 307.872 264.402 308.2 264.253C308.528 264.099 308.786 263.884 308.974 263.607C309.165 263.326 309.261 262.994 309.261 262.61C309.261 262.103 309.082 261.685 308.724 261.357C308.371 261.029 307.844 260.865 307.145 260.865H304.748V264.477Z" fill="#880F02"/>
<path fill-rule="evenodd" clip-rule="evenodd" d="M442.461 219.787C442.302 220.316 441.745 220.616 441.216 220.458C430.814 217.337 423.623 209.023 419.569 196.737C419.396 196.213 419.681 195.647 420.205 195.474C420.73 195.301 421.295 195.586 421.468 196.11C425.383 207.977 432.192 215.663 441.79 218.542C442.319 218.701 442.619 219.258 442.461 219.787Z" fill="#880F02"/>
<path fill-rule="evenodd" clip-rule="evenodd" d="M431.718 205.846C431.434 206.319 430.819 206.472 430.346 206.187L430.844 205.359C430.346 206.187 430.346 206.187 430.346 206.187L430.342 206.185L430.335 206.18L430.309 206.165C430.288 206.152 430.258 206.133 430.219 206.109C430.142 206.06 430.03 205.988 429.888 205.894C429.605 205.707 429.201 205.429 428.707 205.064C427.719 204.334 426.369 203.25 424.905 201.828C423.612 200.571 422.418 199.263 421.492 198.2L421.957 209.46C421.98 210.012 421.551 210.478 420.999 210.501C420.447 210.523 419.981 210.094 419.958 209.543L419.373 195.334C419.355 194.9 419.619 194.504 420.027 194.355M421.16 194.678L421.165 194.685L421.184 194.709C421.202 194.731 421.228 194.764 421.262 194.807C421.33 194.893 421.432 195.02 421.564 195.181C421.826 195.505 422.207 195.965 422.676 196.511C423.616 197.606 424.902 199.036 426.299 200.394C427.687 201.743 428.966 202.769 429.896 203.456C430.36 203.799 430.736 204.057 430.993 204.227C431.122 204.312 431.22 204.376 431.286 204.417C431.318 204.437 431.342 204.452 431.358 204.462L431.374 204.472L431.377 204.473C431.85 204.758 432.003 205.373 431.718 205.846M421.16 194.678C421.16 194.678 421.16 194.678 421.16 194.678Z" fill="#880F02"/>
<path fill-rule="evenodd" clip-rule="evenodd" d="M275.989 223.154L273 212L284.154 214.989L280.779 218.364L294.708 232.293L293.293 233.707L279.364 219.778L275.989 223.154Z" fill="#880F02"/>
<path fill-rule="evenodd" clip-rule="evenodd" d="M284.153 288.011L273 291L275.988 279.846L279.364 283.222L293.292 269.293L294.707 270.707L280.778 284.636L284.153 288.011Z" fill="#880F02"/>
<defs>
<radialGradient id="paint0_radial_317_1123" cx="0" cy="0" r="1" gradientUnits="userSpaceOnUse" gradientTransform="translate(353.017 257.786) rotate(90) scale(309.032 309.032)">
<stop stop-color="#FFC488"/>
<stop offset="0.34" stop-color="#FFBF85"/>
<stop offset="0.69" stop-color="#FFB37E"/>
<stop offset="1" stop-color="#FFA274"/>
</radialGradient>
<linearGradient id="paint1_linear_317_1123" x1="637.916" y1="307.891" x2="590.221" y2="287.817" gradientUnits="userSpaceOnUse">
<stop stop-color="#8E1613"/>
<stop offset="1" stop-color="#FFA8A6"/>
</linearGradient>
<linearGradient id="paint2_linear_317_1123" x1="216.12" y1="-27.5261" x2="249.576" y2="-4.94719" gradientUnits="userSpaceOnUse">
<stop stop-color="#8E1613"/>
<stop offset="1" stop-color="#FFA8A6"/>
</linearGradient>
<linearGradient id="paint3_linear_317_1123" x1="54.2009" y1="212.343" x2="87.6569" y2="234.922" gradientUnits="userSpaceOnUse">
<stop stop-color="#8E1613"/>
<stop offset="1" stop-color="#FFA8A6"/>
</linearGradient>
<linearGradient id="paint4_linear_317_1123" x1="630.973" y1="321.337" x2="551.883" y2="285.693" gradientUnits="userSpaceOnUse">
<stop stop-color="#FFA274"/>
<stop offset="0.37" stop-color="#FFC488"/>
<stop offset="0.68" stop-color="#FFA274"/>
<stop offset="1" stop-color="#E3794D"/>
</linearGradient>
<linearGradient id="paint5_linear_317_1123" x1="84.0961" y1="198.295" x2="137.277" y2="222.079" gradientUnits="userSpaceOnUse">
<stop stop-color="#E3794D"/>
<stop offset="0.32" stop-color="#FFA274"/>
<stop offset="0.63" stop-color="#FFC488"/>
<stop offset="1" stop-color="#FFA274"/>
</linearGradient>
</defs>
</svg>
