<svg width="292" height="648" viewBox="0 0 292 648" fill="none" xmlns="http://www.w3.org/2000/svg">
<path fill-rule="evenodd" clip-rule="evenodd" d="M180.175 76.4416C317.973 134.545 265.472 560.951 175.607 578.631C85.7428 596.326 31.3128 389.504 43.2343 262.411C55.1558 135.318 120.65 51.3288 180.175 76.4416Z" fill="#77BDFF"/>
<path d="M42.6721 217.662C44.0736 221.741 74.133 253.448 81.7838 255.373C89.4347 257.297 123.418 225.046 123.418 225.046C123.418 225.046 132.24 204.752 126.139 185.445C120.022 166.138 111.662 175.643 111.662 175.643C111.662 175.643 95.8984 195.247 91.1496 198.569C90.457 199.062 89.9953 199.194 89.8634 198.881C88.9895 196.875 87.1427 192.484 86.4337 192.714C85.7247 192.944 80.8275 198.881 80.8275 198.881C80.8275 198.881 70.8682 195.148 63.9923 188.175C62.7226 186.892 61.5519 185.511 60.5791 184.014C60.5791 184.014 46.7449 180.034 42.7216 194.572L45.1289 198.256C45.1289 198.256 41.3035 213.584 42.7051 217.662H42.6721Z" fill="url(#paint0_linear_332_759)"/>
<path d="M22.534 138.41C23.8861 138.92 50.7795 153.178 56.6331 161.993C56.6331 161.993 54.8358 178.077 57.6719 186.004C57.6719 186.004 50.4003 192.369 46.9871 191.744L45.1898 187.78C45.1898 187.78 34.9172 183.883 18.4117 178.817L22.5175 138.41H22.534Z" fill="url(#paint1_linear_332_759)"/>
<g style="mix-blend-mode:multiply" opacity="0.58">
<path d="M41.7187 178.11C45.8574 182.189 51.7109 184.228 51.7109 184.228L45.1813 187.78L16.4906 178.11H41.7022H41.7187Z" fill="#BF4F9F"/>
</g>
<path d="M8.75788 119.432C8.75788 119.432 10.6211 147.143 6.7957 174.525C6.7957 174.525 26.8957 183.571 39.9879 180.841C39.9879 180.841 56.3284 146.502 61.0938 131.158C61.0938 131.158 39.7241 115.501 8.75788 119.432Z" fill="url(#paint2_radial_332_759)"/>
<path fill-rule="evenodd" clip-rule="evenodd" d="M11.7029 140.795C11.7029 140.795 9.65829 162.849 10.087 174.591C10.087 174.591 22.0745 172.568 36.865 178.817L52.5625 144.314C52.5625 144.314 47.4179 135.45 28.9009 137.062C10.3838 138.673 11.7029 140.811 11.7029 140.811V140.795Z" fill="url(#paint3_linear_332_759)"/>
<path fill-rule="evenodd" clip-rule="evenodd" d="M11.7116 140.795C31.1851 154.807 52.5547 144.298 52.5547 144.298C52.5547 144.298 48.0532 137.67 37.187 137.16C15.9987 136.141 11.7116 140.795 11.7116 140.795Z" fill="url(#paint4_linear_332_759)"/>
<path d="M35.6012 53.0236L25.0318 50.0798L23.3005 80.9486L27.3732 84.8134L38.0251 74.8965L31.8417 143.097L36.2608 142.423L44.5547 64.2561L42.1308 62.9569L29.3189 76.8372L30.3247 71.0482L35.6012 53.0236Z" fill="url(#paint5_linear_332_759)"/>
<path d="M66.6797 123.379C29.1344 106.209 6.95679 111.324 6.95679 111.324C10.0732 107.837 13.2556 105.173 16.2895 103.101C16.6688 102.838 17.0645 102.591 17.4437 102.344C27.2382 96.1279 35.3672 96.2431 35.3672 96.2431C35.3672 96.2431 47.9153 99.8776 48.0472 99.9598C53.6864 103.545 57.7592 107.903 60.6283 111.883C65.1132 118.083 66.6632 123.379 66.6632 123.379H66.6797Z" fill="url(#paint6_linear_332_759)"/>
<path style="mix-blend-mode:multiply" opacity="0.5" d="M66.6797 123.379C29.1344 106.209 6.95679 111.324 6.95679 111.324C10.0732 107.837 13.2556 105.173 16.2895 103.101C14.789 104.45 12.5301 108.101 29.5631 110.436C52.6146 113.594 60.2325 114.218 60.6447 111.883C65.1297 118.083 66.6797 123.379 66.6797 123.379Z" fill="url(#paint7_linear_332_759)"/>
<path d="M0.907059 112.36C1.26982 113.034 3.03414 120.928 3.59476 121.224C4.15539 121.52 9.0526 126.109 9.0526 126.109L8.85471 121.307C8.85471 121.307 28.8228 115.304 60.7619 132.161L59.7725 135.039L68.6271 134.841L73.5078 127.951C73.5078 127.951 59.4263 116.587 36.4407 111.965C15.8131 107.821 0.907059 112.36 0.907059 112.36Z" fill="url(#paint8_linear_332_759)"/>
<g style="mix-blend-mode:soft-light" opacity="0.5">
<path fill-rule="evenodd" clip-rule="evenodd" d="M32.0234 123.724C32.0234 123.724 24.0428 122.26 15.6499 124.842C15.6499 124.842 12.55 163.013 12.5995 170.677L21.3056 171.384C21.3056 171.384 27.423 144.676 32.0234 123.724Z" fill="#FFD6BD"/>
</g>
<path style="mix-blend-mode:multiply" opacity="0.5" d="M3.59962 121.224C3.59962 121.224 18.5056 115.189 41.6231 119.646C56.4301 122.507 68.6484 134.825 68.6484 134.825L59.7939 135.022C59.7939 135.022 49.9335 123.297 29.5532 122.474C11.6792 121.751 9.1399 128.395 9.1399 128.395L9.07393 126.092L3.6161 121.208L3.59962 121.224Z" fill="url(#paint9_linear_332_759)"/>
<path d="M35.3895 96.2432C35.3895 96.2432 40.0393 96.4898 48.0859 99.9599L35.3895 96.2432Z" fill="#FFEAEA"/>
<g style="mix-blend-mode:multiply" opacity="0.4">
<path d="M9.47712 131.618C9.47712 131.618 16.9631 145.646 18.8263 174.41C18.8263 174.41 28.3405 175.134 33.9302 176.926C38.2998 178.324 40.7896 180.512 39.9816 180.84C36.4035 182.304 20.9534 180.758 6.78941 174.525L9.47712 131.618Z" fill="#900477"/>
</g>
<g style="mix-blend-mode:soft-light" opacity="0.5">
<path fill-rule="evenodd" clip-rule="evenodd" d="M44.5503 155.415C44.5503 155.415 47.1226 156.073 48.0625 158.622L40.1478 176.926C40.1478 176.926 36.141 176.022 35.366 174.657L44.5503 155.415Z" fill="#FFD6BD"/>
</g>
<path fill-rule="evenodd" clip-rule="evenodd" d="M22.3109 101.884C25.2954 98.414 29.7969 99.9599 29.7969 99.9599C29.7969 99.9599 29.7969 101.029 26.4661 101.884C23.1353 102.739 22.3274 101.884 22.3274 101.884H22.3109Z" fill="white"/>
<path fill-rule="evenodd" clip-rule="evenodd" d="M19.7738 112.377C16.0473 115.156 13.2276 111.39 13.2276 111.39C13.2276 111.39 22.2471 110.535 19.7738 112.377Z" fill="white"/>
<path d="M9.15722 131.651C9.02531 131.404 6.35411 132.276 6.12326 134.43C5.87593 136.568 8.41522 139.479 9.10776 139.479C9.80029 139.479 9.89922 133.016 9.15722 131.667V131.651Z" fill="url(#paint10_linear_332_759)"/>
<path d="M9.2287 142.144C11.0755 148.475 9.16276 161.138 8.37129 161.731C7.57983 162.323 3.70493 161.731 3.06186 161.073C2.41879 160.398 3.8698 154.461 4.28202 153.853C4.69425 153.245 6.14528 152.866 6.14528 152.866C6.14528 152.866 2.81452 152.751 2.43527 151.139C2.05603 149.528 4.89213 142.621 6.22773 142.176C7.54684 141.732 9.2287 142.144 9.2287 142.144Z" fill="url(#paint11_linear_332_759)"/>
<path d="M7.92549 164.97C9.37652 168.358 7.7606 170.973 7.23296 171.187C6.7218 171.401 3.5724 170.463 2.91284 170.068C2.25328 169.674 2.51713 165.036 3.83624 164.51C5.15536 163.984 8.09039 163.507 8.09039 163.507L7.92549 164.954V164.97Z" fill="url(#paint12_linear_332_759)"/>
<path d="M52.049 179.771C54.5388 179.59 58.084 172.65 58.6116 171.696C58.7105 171.532 58.8259 170.858 58.9743 169.822C59.6669 165.085 60.6892 152.8 60.0626 148.08C59.9967 147.636 54.5059 127.095 53.8463 126.98C52.4283 126.701 49.4602 129.217 49.823 138.41C49.8725 139.759 50.2352 140.943 50.7464 142.012C52.0325 144.709 54.242 146.567 54.6708 148.097C55.2644 150.235 52.2304 157.849 52.2304 157.849C52.2304 157.849 48.6688 158.836 46.2284 168.374C43.788 177.929 49.5427 179.969 52.0325 179.771H52.049Z" fill="url(#paint13_linear_332_759)"/>
<path style="mix-blend-mode:multiply" opacity="0.3" d="M50.7464 141.995C50.7464 141.995 56.2537 149.248 60.0626 148.08C60.6892 152.817 59.6669 165.085 58.9743 169.822C56.8638 158.984 52.2304 157.833 52.2304 157.833L50.7464 141.995Z" fill="url(#paint14_linear_332_759)"/>
<g style="mix-blend-mode:multiply" opacity="0.58">
<path d="M52.2422 157.833C52.2422 157.833 42.2004 170.397 43.6514 179.771L41.7222 178.11L51.0715 156.484L52.2422 157.833Z" fill="#BF4F9F"/>
</g>
<g style="mix-blend-mode:multiply" opacity="0.58">
<path d="M50.7436 129.645C43.1422 139.265 52.9531 145.646 52.9531 145.646C52.9531 145.646 50.7436 141.453 50.7436 135.549V129.645Z" fill="#BF4F9F"/>
</g>
<path style="mix-blend-mode:multiply" opacity="0.5" d="M42.686 194.589C55.333 192.911 60.7578 189.589 60.7578 189.589C60.7578 189.589 55.7946 198.075 45.0933 198.273L42.7024 194.589H42.686Z" fill="url(#paint15_linear_332_759)"/>
<path style="mix-blend-mode:multiply" opacity="0.5" d="M86.4102 192.731C85.0087 207.154 79.7322 217.515 79.7322 217.515C79.7322 217.515 91.6867 203.009 90.1532 199.572C88.6197 196.119 86.4102 192.731 86.4102 192.731Z" fill="url(#paint16_linear_332_759)"/>
<path style="mix-blend-mode:multiply" d="M42.6643 217.662C44.0658 221.741 74.1252 253.448 81.776 255.373C89.4269 257.297 123.411 225.046 123.411 225.046C123.411 225.046 132.232 204.752 126.131 185.445C120.014 166.138 111.654 175.643 111.654 175.643C111.654 175.643 95.8906 195.247 91.1417 198.569C93.6975 214.307 82.8808 236.855 79.7973 237.068C76.6809 237.299 51.7002 227.234 42.6808 217.646L42.6643 217.662Z" fill="url(#paint17_radial_332_759)"/>
<g style="mix-blend-mode:multiply" opacity="0.8">
<path d="M60.0614 184.557C59.4678 191.333 39.6811 196.859 46.0953 189.771C46.0953 189.771 53.7957 189.59 57.6706 186.004L57.077 183.965C57.077 183.965 60.1274 183.866 60.0614 184.574V184.557Z" fill="#DE7881"/>
</g>
<g style="mix-blend-mode:multiply" opacity="0.58">
<path d="M6.224 142.193C6.224 142.193 9.71965 143.689 9.85156 145.646C9.85156 145.646 9.57124 143.015 9.22498 142.16C9.22498 142.16 7.55961 141.699 6.224 142.193Z" fill="#BF4F9F"/>
</g>
<g style="mix-blend-mode:multiply" opacity="0.58">
<path d="M9.94531 151.863C9.00544 152.866 6.15285 152.882 6.15285 152.882C6.15285 152.882 4.60291 153.063 4.28962 153.869C4.28962 153.869 9.56607 153.902 9.665 155.432L9.94531 151.863Z" fill="#BF4F9F"/>
</g>
<g style="mix-blend-mode:multiply" opacity="0.58">
<path d="M4.57379 164.723C7.60775 164.477 8.03645 165.25 8.03645 165.25L8.08594 163.523L3.83179 164.526L4.57379 164.74V164.723Z" fill="#BF4F9F"/>
</g>
<path d="M176.477 257.297C161.043 256.804 92.4984 245.785 70.3703 228.089C70.3703 228.089 96.3733 216.215 134.43 230.112C163.681 240.785 176.477 257.313 176.477 257.313V257.297Z" fill="url(#paint18_linear_332_759)"/>
<path d="M110.046 258.777C110.046 258.777 134.401 265.52 146.174 259.566C146.174 259.566 146.899 255.932 148.268 250.801C150.049 244.14 152.868 235.013 156.578 228.089L113.41 212.169C113.41 212.169 112.14 222.925 111.151 234.848C110.442 243.416 109.881 252.577 110.046 258.777Z" fill="url(#paint19_linear_332_759)"/>
<g style="mix-blend-mode:multiply" opacity="0.8">
<path d="M111.152 234.848C114.087 231.395 136.594 233.385 148.252 250.801C150.033 244.14 152.852 235.013 156.562 228.089L113.394 212.169C113.394 212.169 112.125 222.925 111.135 234.848H111.152Z" fill="#DE7881"/>
</g>
<path d="M70.3844 228.089C70.3844 228.089 99.3224 226.593 124.039 230.095C148.756 233.615 176.491 257.297 176.491 257.297C183.169 236.575 211.859 206.677 211.859 206.677C211.859 206.677 199.113 168.868 197.827 165.529C197.036 163.523 189.781 155.136 182.938 148.113C181.948 147.094 181.338 141.486 180.448 140.581C179.656 139.775 175.666 141.107 175.007 140.417C173.077 138.41 173.275 139.002 173.16 138.706C172.599 137.407 174.05 132.194 173.16 131.454C162.409 122.54 141.831 134.447 141.831 134.447C141.831 134.447 139.391 141.847 138.022 141.913C136.653 141.979 113.437 154.428 111.953 158.129C110.469 161.829 108.622 178.11 108.622 178.11C106.099 181.054 102.29 185.133 99.8666 188.372C90.8141 200.477 84.6308 214.867 82.8335 219.225C82.5862 219.817 70.4008 228.089 70.4008 228.089H70.3844Z" fill="url(#paint20_linear_332_759)"/>
<path style="mix-blend-mode:multiply" opacity="0.8" d="M82.8005 219.225C82.8005 219.225 92.7434 207.565 95.7443 209.275C113.074 219.225 150.405 234.536 166.861 249.929L176.491 257.297C183.169 236.575 211.859 206.676 211.859 206.676C211.859 206.676 199.113 168.868 197.827 165.529C174.594 189.359 167.438 198.7 154.593 199.95C141.765 201.184 105.737 190.609 103.395 187.978C102.373 186.826 108.062 179.689 108.589 178.11C91.7045 195.132 82.8005 219.225 82.8005 219.225Z" fill="url(#paint21_linear_332_759)"/>
<path d="M156.732 131.453C167.12 130.154 171.885 132.095 171.836 132.72C171.77 133.345 157.292 147.274 149.51 149.495C141.727 151.715 140.111 142.094 143.458 137.407C146.789 132.72 150.103 132.292 156.732 131.453Z" fill="url(#paint22_linear_332_759)"/>
<path d="M169.695 18.29C166.628 4.91959 175.548 -3.22108 190.19 1.21928C190.19 1.21928 183.496 0.479221 182.292 2.6994C182.292 2.6994 196.242 3.06121 201.09 12.6985C205.937 22.3192 189.333 27.9108 189.333 27.9108L169.678 18.29H169.695Z" fill="url(#paint23_linear_332_759)"/>
<g style="mix-blend-mode:soft-light" opacity="0.8">
<path d="M188.552 3.70239C173.861 4.93583 180.011 16.7768 180.011 16.7768L188.338 20.5593C188.338 20.5593 179.83 12.616 181.561 8.5539C184.578 1.44932 192.625 5.13318 192.625 5.13318L188.569 3.71884L188.552 3.70239Z" fill="#FFBAEF"/>
</g>
<path style="mix-blend-mode:multiply" d="M182.289 2.69946C172.775 7.15628 175.413 12.6656 180.591 17.254C180.591 17.254 177.326 12.386 179.107 7.89634C180.904 3.40663 188.555 3.70266 188.555 3.70266L182.289 2.69946Z" fill="url(#paint24_linear_332_759)"/>
<path d="M201.716 57.4802C214.33 87.8556 234.528 68.3509 235.106 86.5893C235.369 95.0424 221.75 108.544 221.75 108.544C221.75 108.544 231.907 89.5002 226.416 81.9187C221.832 75.6035 210.488 75.143 203.942 68.6963C202.589 67.3642 201.716 57.4802 201.716 57.4802Z" fill="url(#paint25_linear_332_759)"/>
<path d="M87.1973 94.2367C87.4446 93.25 100.29 75.9161 105.253 70.8179C114.635 61.1807 117.652 51.05 117.85 50.3593C117.735 51.0994 115.707 62.9897 110.958 70.8179C103.785 82.6424 92.144 82.8891 98.3438 103.907C101.559 114.827 112.722 119.728 113.184 119.152C114.536 117.425 113.052 110.206 113.052 110.206C113.052 110.206 113.398 111.028 113.909 112.228C115.261 115.402 117.817 121.257 118.493 121.849C122.352 125.352 130.629 125.878 133.465 125.878C135.642 125.878 139.385 122.82 140.424 119.629C140.424 119.629 141.611 122.787 140.424 125.352C138.544 129.414 164.316 123.971 178.727 128.756C179.915 129.151 188.291 123.839 193.435 115.731C196.453 110.979 198.151 108.068 199.091 106.719C199.751 105.815 200.262 105.584 200.196 106.028C199.503 111.307 197.871 118.034 190.517 126.915C190.352 127.128 190.649 127.293 191.259 127.441C193.37 127.901 199.124 127.803 201.713 126.684C204.598 125.418 215.992 119.465 218.779 108.545C218.779 108.545 219.521 115.945 220.263 113.478C221.005 111.011 232.877 96.7036 221.5 83.6292C216.025 77.3469 211.639 72.9394 208.374 69.1569C204.829 65.0783 202.603 61.7069 201.696 57.4804C200.212 50.5238 206.841 46.9879 206.181 40.4096C206.066 39.2913 205.753 38.0907 205.143 36.7586C203.576 33.3544 200.262 29.7034 196.255 26.332C193.798 24.2598 191.078 22.2863 188.34 20.5595C183.559 17.517 178.744 15.1817 175.182 14.195C160.59 10.1493 152.477 9.93553 147.629 10.9058C143.622 11.7117 141.858 13.3069 140.522 14.2114C139.055 15.1982 137.39 16.1356 135.609 17.0401C124.396 22.7468 108.781 27.2201 113.547 34.5713C116.053 38.4361 116.152 46.1492 116.152 48.3694C116.152 50.5896 115.806 62.1838 103.043 69.6831C83.1905 81.3432 86.9665 95.2399 87.2138 94.2532L87.1973 94.2367Z" fill="url(#paint26_linear_332_759)"/>
<path style="mix-blend-mode:multiply" fill-rule="evenodd" clip-rule="evenodd" d="M113.074 29.6213C119.076 44.3403 117.707 51.1489 117.707 51.1489C117.707 51.1489 116.19 59.2731 114.245 63.7957C114.245 63.7957 119.95 64.1411 122.341 49.0603C124.732 33.9795 113.074 29.6213 113.074 29.6213Z" fill="url(#paint27_linear_332_759)"/>
<path style="mix-blend-mode:multiply" d="M171.656 29.621C171.656 29.621 171.376 27.2199 177.708 26.0194C184.023 24.8188 195.4 26.5785 196.258 26.3154C193.801 24.2432 191.08 22.2697 188.343 20.5429C187.106 26.8088 178.351 24.6873 170.914 25.7563C163.478 26.8088 160.708 19.5397 164.418 16.1684C167.963 12.945 180.049 16.3328 181.104 16.6288C158.399 8.63617 157.344 19.5233 152.842 20.2469C150.237 20.6581 145.95 16.4479 147.632 10.8728C143.625 11.6786 141.861 13.2739 140.525 14.1784C139.058 15.1652 137.392 16.1026 135.612 17.0071L133.089 21.0692L171.673 29.6046L171.656 29.621Z" fill="url(#paint28_linear_332_759)"/>
<path style="mix-blend-mode:multiply" d="M126.082 47.3005C120.459 68.7623 109.708 79.3699 104.135 87.8559C98.5616 96.3419 105.306 112.064 113.072 118.346C113.072 118.346 104.778 110.091 107.565 102.082C110.351 94.0724 122.207 81.8038 126.098 71.8377C129.973 61.8715 126.098 47.3005 126.098 47.3005H126.082Z" fill="url(#paint29_linear_332_759)"/>
<g style="mix-blend-mode:soft-light" opacity="0.8">
<path d="M108.571 113.478C96.3528 100.026 94.539 90.7666 98.4798 85.7341C102.404 80.7017 113.419 74.7483 118.547 66.6077C118.547 66.6077 110.5 78.2842 104.152 87.8556C97.8038 97.4107 108.571 113.478 108.571 113.478Z" fill="#FFBAEF"/>
</g>
<path style="mix-blend-mode:multiply" d="M201.718 100.733C201.47 102.92 199.788 117.787 190.522 126.915C190.324 127.096 190.654 127.293 191.264 127.441L192.27 126.734C192.27 126.734 207.456 122.441 211.858 104.581C213.919 96.2104 208.148 81.6559 205.807 78.4325C205.807 78.4325 208.627 78.8601 214.694 91.0958C219.311 100.437 219.707 112.41 219.79 111.752C222.016 93.2501 207.176 70.1602 202.806 65.3087C198.849 60.9177 204.29 66.2461 208.412 69.157C204.867 65.0785 202.641 61.7071 201.734 57.4805C200.25 50.524 206.879 46.9881 206.219 40.4098C203.235 49.6523 178.369 27.1216 178.369 27.1216L181.552 76.0478C181.552 76.0478 204.537 76.0478 201.751 100.733H201.718Z" fill="url(#paint30_linear_332_759)"/>
<path style="mix-blend-mode:multiply" d="M113.918 112.245C115.27 115.419 117.826 121.274 118.502 121.866C122.36 125.369 130.638 125.895 133.474 125.895C135.65 125.895 139.393 122.836 140.432 119.646C140.432 119.646 141.619 122.803 140.432 125.369C138.552 129.431 164.324 123.987 178.736 128.773C193.345 89.5333 182.776 52.0862 174.036 42.1859C165.297 32.3019 128.065 63.6641 118.024 83.6457C112.203 95.24 112.582 105.601 113.918 112.245Z" fill="url(#paint31_linear_332_759)"/>
<path fill-rule="evenodd" clip-rule="evenodd" d="M154.326 108.873C154.326 108.873 152.314 130.335 144.465 141.189C144.465 141.189 142.454 149.33 149.396 148.837C156.337 148.343 165.027 138.92 165.274 137.193C165.522 135.466 169.281 99.0059 169.281 99.0059L154.326 108.857V108.873Z" fill="url(#paint32_linear_332_759)"/>
<g style="mix-blend-mode:multiply" opacity="0.8">
<path fill-rule="evenodd" clip-rule="evenodd" d="M168.027 111.258C156.452 132.72 151.802 123.313 151.802 123.313C151.802 123.313 153.055 118.61 153.698 113.742L154.341 108.874L169.297 99.4502L168.027 111.258Z" fill="#DE7881"/>
</g>
<g style="mix-blend-mode:multiply" opacity="0.5">
<path fill-rule="evenodd" clip-rule="evenodd" d="M193.159 123.938C211.099 103.742 211.017 91.5887 206.35 79.3037C202.97 70.4229 192.335 69.2059 192.615 72.1004C192.895 74.9949 203.531 87.4772 201.618 101.538C199.788 114.958 193.159 123.938 193.159 123.938Z" fill="#AE89C2"/>
</g>
<path d="M185.801 71.9691C195.117 63.9271 203.131 65.3907 203.395 73.2847C203.642 81.1787 191.935 91.8027 189.214 91.9836C186.493 92.1645 182.915 90.4048 182.915 90.4048L185.801 71.9691Z" fill="url(#paint33_linear_332_759)"/>
<path fill-rule="evenodd" clip-rule="evenodd" d="M117.867 86.721C117.867 93.8092 125.353 103.216 131.833 109.35C131.833 109.35 131.866 109.383 131.882 109.4C135.378 112.722 138.56 115.074 140.127 115.583C140.44 115.682 140.77 115.781 141.116 115.847C141.116 115.847 141.149 115.847 141.182 115.847C141.347 115.879 141.528 115.912 141.693 115.945C145.189 116.439 150.07 115.337 156.797 112.459C158.792 111.62 160.936 110.617 163.261 109.449C171.687 105.239 178.299 96.9503 181.217 92.8389C181.415 92.5593 181.514 92.4113 181.514 92.4113C182.388 91.1614 182.85 90.3884 182.85 90.3884C186.922 81.3268 187.549 54.3228 182.174 37.6632C176.798 21.0036 157.506 17.2704 140.44 22.2699C130.909 25.0657 122.682 25.3288 120.488 34.5549C118.757 41.8404 122.286 54.1583 121.527 73.3835C121.412 76.1135 117.801 77.3469 117.817 86.7046L117.867 86.721Z" fill="url(#paint34_radial_332_759)"/>
<path fill-rule="evenodd" clip-rule="evenodd" d="M183.59 58.4671C187.432 62.9075 187.828 106.949 176.516 125.911C176.516 125.911 188.174 121.504 189.163 103.808C190.153 86.1125 187.498 73.4657 187.119 67.8412C186.739 62.2167 186.129 51.05 186.129 51.05L183.607 58.4507L183.59 58.4671Z" fill="url(#paint35_linear_332_759)"/>
<path d="M184.422 59.0426C180.58 57.2007 173.754 41.1989 174.001 42.1856C174.248 43.1724 177.958 51.8064 177.216 51.8064C176.474 51.8064 171.033 48.9778 167.818 42.0047C167.818 42.0047 166.977 42.9093 158.419 42.0047C150.884 41.1989 147.042 38.732 146.547 37.4986C146.052 36.2651 146.052 26.891 148.773 23.6841C148.773 23.6841 144.074 31.4794 144.568 37.992C144.816 41.1989 133.174 39.6365 130.322 35.5909C125.524 28.7494 130.107 21.6942 130.107 21.6942C130.107 21.6942 124.913 27.9107 124.534 36.5118C124.501 37.4657 121.088 39.7188 119.901 39.8174C119.901 39.8174 108.639 31.9728 111.426 21.9573C114.146 12.2049 122.556 9.62295 139.374 14.31C139.374 14.31 148.179 10.7906 151.114 19.8687C151.593 21.3159 160.216 16.8755 166.482 17.2538C174.1 17.7143 173.539 23.5032 174.248 22.8289C181.536 15.8395 189.072 32.1537 189.385 33.9956C192.155 50.6388 184.422 59.059 184.422 59.059V59.0426Z" fill="url(#paint36_linear_332_759)"/>
<path style="mix-blend-mode:multiply" opacity="0.5" fill-rule="evenodd" clip-rule="evenodd" d="M185.461 83.58C185.461 83.58 188.214 72.2817 194.315 70.7852C200.416 69.2886 200.136 76.5905 199.443 77.2648C198.734 77.9226 197.217 74.2388 192.419 75.982C187.621 77.7253 187.225 81.7545 187.225 81.7545C187.225 81.7545 193.82 74.4855 195.42 79.1725C197.019 83.8596 193.342 86.4416 191.825 84.1885C190.325 81.9354 185.642 86.31 185.642 86.31C185.642 86.31 186.961 83.4813 185.477 83.5964L185.461 83.58Z" fill="url(#paint37_linear_332_759)"/>
<path style="mix-blend-mode:multiply" opacity="0.5" fill-rule="evenodd" clip-rule="evenodd" d="M185.461 83.5797C190.952 76.6396 196.393 76.2614 195.486 80.3564C194.579 84.4514 191.183 81.8694 189.006 82.8726C186.846 83.8758 185.626 86.2933 185.626 86.2933C185.626 86.2933 186.088 84.7803 186.055 84.1718C186.022 83.5633 185.461 83.5962 185.461 83.5962V83.5797Z" fill="url(#paint38_linear_332_759)"/>
<path style="mix-blend-mode:multiply" opacity="0.5" d="M150.14 50.6389C142.225 65.1934 148.293 82.2806 150.14 83.0207C151.987 83.7607 169.35 85.0599 173.01 78.5803C176.671 72.1007 178.814 65.3743 172.268 59.2071C165.722 53.04 153.669 44.1592 150.14 50.6389Z" fill="url(#paint39_linear_332_759)"/>
<path style="mix-blend-mode:multiply" opacity="0.5" d="M130.479 49.899C137.372 59.1251 133.81 79.8797 132.524 81.0802C131.238 82.2808 122.103 78.9423 121.575 73.4C121.048 67.8578 120.833 48.057 121.575 46.0178C122.317 43.9785 128.237 46.8894 130.479 49.899Z" fill="url(#paint40_linear_332_759)"/>
<path d="M175.18 62.9074C175.18 62.9074 169.293 52.1026 148.715 53.6649C148.715 53.6649 147.363 49.5863 149.028 44.4224C149.028 44.4224 149.028 47.7773 150.133 50.6553C150.133 50.6553 150.298 45.1624 150.99 44.85C151.98 44.4224 169.277 43.5343 175.163 62.9074H175.18Z" fill="url(#paint41_linear_332_759)"/>
<path d="M132.499 54.1582C132.499 54.1582 127.322 50.0796 120.71 49.5863C120.71 49.5863 118.83 45.4748 120.149 42.3008C120.149 42.3008 123.216 40.8207 127.866 45.3268C131.988 49.3396 132.516 54.1582 132.516 54.1582H132.499Z" fill="url(#paint42_linear_332_759)"/>
<path style="mix-blend-mode:multiply" opacity="0.77" d="M170.977 75.5378C170.977 75.5378 169.822 79.6328 163.738 81.3268C158.033 82.922 153.218 80.8827 153.218 80.8827C153.218 80.8827 159.022 82.4286 163.458 80.7841C167.893 79.1395 170.977 75.5378 170.977 75.5378Z" fill="url(#paint43_linear_332_759)"/>
<path fill-rule="evenodd" clip-rule="evenodd" d="M171.835 73.4655C171.901 75.0608 168.504 79.7807 161.332 81.3266C156.319 82.412 150.268 80.8003 149.822 77.8401C148.751 70.8835 150.482 62.381 156.748 62.0521C164.003 61.6739 171.687 69.0251 171.852 73.4655H171.835Z" fill="url(#paint44_radial_332_759)"/>
<path style="mix-blend-mode:multiply" opacity="0.77" d="M132.492 79.5341C132.492 79.5341 126.622 80.6853 124.033 76.0476C124.033 76.0476 126.029 80.2742 129.03 80.784C132.031 81.2938 132.492 79.5341 132.492 79.5341Z" fill="url(#paint45_linear_332_759)"/>
<path fill-rule="evenodd" clip-rule="evenodd" d="M133.026 66.6078C135.78 70.9166 133.983 79.1066 132.499 79.5342C128.657 80.6525 123.677 78.1692 122.721 72.5448C120.956 62.0359 125.54 54.8984 133.01 66.6243L133.026 66.6078Z" fill="url(#paint46_radial_332_759)"/>
<path d="M131.447 98.924C135.009 102.46 135.289 105.502 137.812 108.002C139.213 109.383 145.397 110.354 150.36 103.66C154.696 97.8221 155.422 95.1743 155.422 95.1743C155.422 95.1743 152.784 98.2826 148.975 97.8714C135.338 96.3749 131.447 98.924 131.447 98.924Z" fill="#FF514C"/>
<path fill-rule="evenodd" clip-rule="evenodd" d="M153.804 96.8848C153.804 96.8848 147.653 104.45 141.569 104.565C135.485 104.68 133.16 98.7925 133.16 98.7925C133.16 98.7925 138.04 96.8354 144.372 97.6577C150.704 98.48 153.82 96.8848 153.82 96.8848H153.804Z" fill="#6D023B"/>
<path d="M133.457 98.3975C133.457 98.3975 134.727 100.026 136.425 102.558C136.425 102.558 139.096 105.288 145.214 103.019C151.364 100.733 152.617 97.7068 152.617 97.7068C152.617 97.7068 141.339 96.4569 138.371 97.1805C135.403 97.9041 133.457 98.3975 133.457 98.3975Z" fill="#FFEAEA"/>
<path d="M155.422 95.1743C155.422 95.1743 153.921 97.2958 151.415 97.559C149.981 97.707 143.418 95.5526 138.966 96.1446C134.58 96.7202 132.172 97.6412 131.397 97.9372C130.623 98.2332 128.38 96.4406 128.38 96.4406C128.38 96.4406 131.777 99.5818 132.634 99.4502C133.838 99.2693 137.07 98.4141 149.057 98.6115C153.163 98.6773 155.422 95.1908 155.422 95.1908V95.1743Z" fill="#CC134C"/>
<path style="mix-blend-mode:multiply" opacity="0.5" fill-rule="evenodd" clip-rule="evenodd" d="M153.576 96.4407C156.642 96.1282 154.878 92.1977 155.274 92.4279C155.686 92.6746 158.473 93.3818 157.632 96.2269C157.632 96.2269 156.148 94.8784 154.614 96.2269C153.081 97.5755 153.576 96.4407 153.576 96.4407Z" fill="url(#paint47_linear_332_759)"/>
<path d="M171.407 71.5742C171.407 71.5742 170.072 68.4166 167.697 66.4267C163.707 63.0882 157.474 60.6542 153.451 64.0421C151.06 66.0484 149.823 70.1599 149.823 70.1599C149.823 70.1599 150.021 60.0786 151.439 59.3221C153.797 58.0558 163.987 61.1311 168.027 65.588C171.836 69.7816 171.407 71.5742 171.407 71.5742Z" fill="#7E1836"/>
<path d="M162.262 79.847C157.946 79.847 154.447 76.3569 154.447 72.0517C154.447 67.7464 157.946 64.2563 162.262 64.2563C166.579 64.2563 170.078 67.7464 170.078 72.0517C170.078 76.3569 166.579 79.847 162.262 79.847Z" fill="url(#paint48_linear_332_759)"/>
<g style="mix-blend-mode:multiply" opacity="0.68">
<path d="M162.264 76.2453C159.942 76.2453 158.059 74.3677 158.059 72.0516C158.059 69.7355 159.942 67.8579 162.264 67.8579C164.586 67.8579 166.469 69.7355 166.469 72.0516C166.469 74.3677 164.586 76.2453 162.264 76.2453Z" fill="#A16595"/>
</g>
<path d="M155.334 73.2852C154.651 73.2852 154.097 72.733 154.097 72.0518C154.097 71.3706 154.651 70.8184 155.334 70.8184C156.017 70.8184 156.57 71.3706 156.57 72.0518C156.57 72.733 156.017 73.2852 155.334 73.2852Z" fill="white"/>
<mask id="mask0_332_759" style="mask-type:luminance" maskUnits="userSpaceOnUse" x="122" y="60" width="13" height="20">
<path d="M133.026 66.6081C135.78 70.9169 133.983 79.1069 132.499 79.5345C128.657 80.6528 123.677 78.1695 122.721 72.545C120.956 62.0361 125.54 54.8987 133.01 66.6245L133.026 66.6081Z" fill="white"/>
</mask>
<g mask="url(#mask0_332_759)">
<path d="M126.848 70.7031C127.26 74.8639 129.997 78.005 132.949 77.709C135.9 77.413 137.961 73.7949 137.549 69.6341C137.137 65.4733 134.4 62.3322 131.448 62.6282C128.497 62.9242 126.436 66.5423 126.848 70.7031Z" fill="url(#paint49_linear_332_759)"/>
<g style="mix-blend-mode:multiply" opacity="0.68">
<path d="M129.308 70.4566C129.539 72.7097 131.006 74.3871 132.606 74.2391C134.205 74.0747 135.31 72.1341 135.079 69.881C134.848 67.6279 133.381 65.9504 131.781 66.0984C130.182 66.2465 129.077 68.2035 129.308 70.4566Z" fill="#A16595"/>
</g>
<path d="M125.997 70.6538C126.063 71.3116 126.492 71.805 126.954 71.7556C127.415 71.7063 127.745 71.1471 127.679 70.4893C127.613 69.8315 127.184 69.3381 126.723 69.3874C126.261 69.4368 125.931 69.9959 125.997 70.6538Z" fill="white"/>
</g>
<path d="M134.281 70.1765C134.281 70.1765 132.006 63.4501 124.075 61.5753C124.075 61.5753 121.717 65.6045 122.343 69.6173C122.343 69.6173 120.513 63.6475 123.646 58.467C123.646 58.467 132.022 59.6347 134.265 70.1765H134.281Z" fill="#7E1836"/>
<path style="mix-blend-mode:multiply" opacity="0.3" d="M145.402 85.3724C145.402 85.3724 147.166 90.1745 146.359 90.5857C144.677 91.4409 143.522 90.1087 141.412 90.8324C139.301 91.556 135.855 92 133.431 91.0297C131.09 90.0758 128.435 90.1581 128.254 89.27C128.006 88.0695 129.952 85.0599 131.403 84.1389C131.403 84.1389 128.023 87.6748 129.969 88.8589C129.969 88.8589 130.43 86.7374 131.403 85.6848C131.403 85.6848 130.43 87.9379 131.403 88.5299C134.206 90.2568 142.649 88.5299 144.182 88.4806C146.26 88.4148 145.402 85.3724 145.402 85.3724Z" fill="url(#paint50_linear_332_759)"/>
<path style="mix-blend-mode:multiply" opacity="0.5" d="M131.784 82.6425C133.449 80.3236 133.845 76.9687 134.274 75.5379C136.549 67.8084 140.902 77.5114 143.062 81.6558C143.062 81.6558 140.606 81.0802 138 79.8467C135.016 78.4324 131.768 82.6425 131.768 82.6425H131.784Z" fill="url(#paint51_linear_332_759)"/>
<path style="mix-blend-mode:multiply" opacity="0.69" d="M142.508 89.7961C144.668 90.5855 139.293 91.0459 138.369 91.0788C137.446 91.1282 138.138 88.1844 142.508 89.7961Z" fill="url(#paint52_linear_332_759)"/>
<path style="mix-blend-mode:multiply" opacity="0.69" d="M130.513 89.3194C133.118 88.7932 133.25 90.4871 133.085 90.4706C133.085 90.4706 127.644 89.895 130.513 89.3194Z" fill="url(#paint53_linear_332_759)"/>
<g style="mix-blend-mode:multiply" opacity="0.5">
<path d="M146.145 91.0464C142.385 94.8618 137.356 95.1907 134.273 94.3026C131.189 93.4146 128.271 89.2538 128.271 89.2538C128.271 89.2538 129.738 88.4644 132.508 88.9578C137.422 89.8623 144.084 88.5466 144.941 88.267C146.161 87.8559 145.551 85.7344 145.551 85.7344C145.551 85.7344 147.282 89.8952 146.161 91.0299L146.145 91.0464Z" fill="#E56595"/>
</g>
<path style="mix-blend-mode:multiply" d="M124.541 36.5118C112.356 20.4772 120.254 14.0633 129.109 13.9482C132.275 13.9153 139.48 14.014 137.996 15.0994C136.512 16.1848 130.395 19.4411 127.559 25.7727C124.723 32.1208 124.541 36.4954 124.541 36.4954V36.5118Z" fill="url(#paint54_linear_332_759)"/>
<path style="mix-blend-mode:multiply" d="M132.036 22.2701C131.706 23.5199 131.343 25.8881 132.497 29.6213C134.608 36.5121 141.896 37.8936 143.462 37.4989C140.445 29.868 139.588 15.6588 141.236 14.6885C143.331 13.4551 151.41 19.2769 149.827 21.6944C149.019 22.9279 147.057 25.1645 145.688 30.4765C144.336 35.7885 144.584 38.0087 144.584 38.0087C144.402 39.4559 142.589 40.3275 137.592 39.3408C135.136 38.8639 132.514 36.2161 131.426 33.0749C130.057 29.0622 131.277 24.408 132.052 22.2865L132.036 22.2701Z" fill="url(#paint55_linear_332_759)"/>
<path style="mix-blend-mode:multiply" d="M167.828 42.0049C160.903 23.4376 168.933 17.1224 167.333 17.254C165.734 17.3855 156.451 19.8031 155.956 27.9108C155.461 36.0186 167.828 42.0049 167.828 42.0049Z" fill="url(#paint56_linear_332_759)"/>
<path style="mix-blend-mode:multiply" d="M173.629 21.1023C163.62 32.8117 177.372 51.3297 176.927 50.014C176.482 48.7148 174.998 46.5111 174.008 42.1858C173.019 37.8606 173.646 21.1023 173.646 21.1023H173.629Z" fill="url(#paint57_linear_332_759)"/>
<g style="mix-blend-mode:soft-light" opacity="0.8">
<path d="M149.82 18.1913C155.872 13.4385 168.684 12.0242 178.297 15.264C178.297 15.264 165.683 11.0539 159.137 11.4979C152.591 11.9419 149.82 18.1913 149.82 18.1913Z" fill="#FFBAEF"/>
</g>
<g style="mix-blend-mode:soft-light" opacity="0.8">
<path d="M220.268 113.479C229.354 94.6645 226.864 86.7541 216.327 78.4325C208.413 72.1831 203.4 65.8186 203.4 65.8186C203.4 65.8186 212.568 79.6166 215.849 87.856C220.944 100.618 220.268 113.479 220.268 113.479Z" fill="#FFBAEF"/>
</g>
<g style="mix-blend-mode:soft-light" opacity="0.8">
<path d="M180.592 123.313C180.592 123.313 189.331 115.962 189.265 102.081C189.199 88.201 187.056 66.657 187.056 66.657C187.056 66.657 187.666 87.1156 185.555 102.081C183.428 117.047 180.609 123.313 180.609 123.313H180.592Z" fill="#FFBAEF"/>
</g>
<g style="mix-blend-mode:soft-light" opacity="0.8">
<path d="M163.977 18.1914C145.575 18.8657 146.416 27.253 149.516 32.0717C152.616 36.8903 160.679 37.1041 160.679 37.1041C160.679 37.1041 154.331 33.1406 155.633 27.1215C156.936 21.1023 163.96 18.2079 163.96 18.2079L163.977 18.1914Z" fill="#FFBAEF"/>
</g>
<g style="mix-blend-mode:soft-light" opacity="0.8">
<path d="M126.891 12.0405C116.255 11.9747 108.308 19.5726 113.073 28.6178C116.288 34.7192 123.065 37.4821 124.038 36.5118C124.599 35.9527 115.876 28.1409 118.3 20.5594C120.724 12.9614 126.891 12.0405 126.891 12.0405Z" fill="#FFBAEF"/>
</g>
<g style="mix-blend-mode:soft-light" opacity="0.8">
<path d="M180.594 22.8291C171.179 23.5692 170.107 37.1041 178.533 50.0798C178.533 50.0798 175.565 36.6929 176.95 30.6573C178.021 26.0031 180.594 22.8291 180.594 22.8291Z" fill="#FFBAEF"/>
</g>
<path style="mix-blend-mode:multiply" opacity="0.5" fill-rule="evenodd" clip-rule="evenodd" d="M141.231 115.863C141.329 115.879 141.511 115.912 141.742 115.962C146.26 116.603 153.103 114.564 163.309 109.482C171.735 105.272 178.347 96.9833 181.266 92.8718C179.617 95.1413 171.323 105.765 158.066 110.864C145.122 115.863 141.857 115.929 141.231 115.863Z" fill="url(#paint58_linear_332_759)"/>
<g style="mix-blend-mode:soft-light" opacity="0.6">
<path fill-rule="evenodd" clip-rule="evenodd" d="M152.611 91.0957C153.65 93.6448 146.246 94.9111 147.005 91.0957C147.763 87.2802 151.259 87.7901 152.611 91.0957Z" fill="#FFC7AC"/>
</g>
<g style="mix-blend-mode:soft-light" opacity="0.6">
<path fill-rule="evenodd" clip-rule="evenodd" d="M143.461 84.5337C141.664 88.1518 131.77 89.9115 131.77 86.2769C131.77 82.6424 133.766 79.4519 137.608 80.3236C141.466 81.1952 144.368 82.6589 143.445 84.5337H143.461Z" fill="#FFC7AC"/>
</g>
<g style="mix-blend-mode:soft-light" opacity="0.6">
<path fill-rule="evenodd" clip-rule="evenodd" d="M129.693 92.8554C129.776 96.6709 127.269 94.352 127.814 92.4279C128.358 90.5037 129.644 90.4873 129.693 92.8554Z" fill="#FFC7AC"/>
</g>
<g style="mix-blend-mode:soft-light" opacity="0.6">
<path fill-rule="evenodd" clip-rule="evenodd" d="M143.644 109.959C149.152 111.275 143.315 114.827 140.05 113.478C136.785 112.13 136.966 108.364 143.644 109.959Z" fill="#FFC7AC"/>
</g>
<path style="mix-blend-mode:multiply" opacity="0.88" fill-rule="evenodd" clip-rule="evenodd" d="M131.882 109.383C135.378 112.705 138.56 115.057 140.127 115.567C140.44 115.666 140.77 115.764 141.116 115.83C141.116 115.83 141.149 115.83 141.182 115.83C141.347 115.863 141.528 115.896 141.693 115.929C145.189 116.422 150.069 115.32 156.797 112.442V112.377C156.797 112.377 144.974 115.682 139.929 114.07C135.642 112.705 133.152 110.436 131.833 109.367L131.882 109.383Z" fill="url(#paint59_linear_332_759)"/>
<g style="mix-blend-mode:multiply" opacity="0.5">
<path fill-rule="evenodd" clip-rule="evenodd" d="M204.284 46.0999C198.859 56.7403 202.025 65.1935 197.985 65.3086C196.023 65.3744 188.438 69.7161 188.092 68.1537C185.783 57.4804 191.027 42.6463 193.648 40.8866C195.182 39.8505 204.993 44.702 204.284 46.0999Z" fill="#AE89C2"/>
</g>
<g style="mix-blend-mode:multiply" opacity="0.5">
<path fill-rule="evenodd" clip-rule="evenodd" d="M103.265 102.081C103.413 100.683 99.2416 95.3879 105.178 85.7342C111.114 76.0805 113.983 74.0083 117.891 67.5945C117.891 67.5945 116.407 75.4885 109.366 87.8557C102.325 100.223 103.281 102.081 103.281 102.081H103.265Z" fill="#AE89C2"/>
</g>
<g style="mix-blend-mode:multiply" opacity="0.5">
<path fill-rule="evenodd" clip-rule="evenodd" d="M87.1959 94.2369C89.1086 81.0638 97.7983 74.173 103.025 70.8181C108.252 67.4631 110.297 64.8318 110.297 64.8318C110.297 64.8318 103.058 72.0515 96.5946 80.8664C90.1309 89.665 87.1959 94.2369 87.1959 94.2369Z" fill="#AE89C2"/>
</g>
<g style="mix-blend-mode:multiply" opacity="0.5">
<path fill-rule="evenodd" clip-rule="evenodd" d="M147.022 36.7093C147.237 33.6668 155.349 34.8838 161.698 38.4361C167.04 41.4292 167.271 41.5772 163.61 42.0213C159.95 42.4489 146.693 41.347 147.039 36.7257L147.022 36.7093Z" fill="#AE89C2"/>
</g>
<g style="mix-blend-mode:multiply" opacity="0.5">
<path fill-rule="evenodd" clip-rule="evenodd" d="M133.069 34.5386C139.137 36.693 143.984 37.9593 143.984 38.5349C143.984 39.1105 143.061 39.8506 139.532 39.4723C136.004 39.0941 133.563 36.989 132.871 35.8707C132.178 34.7524 131.535 33.9959 133.069 34.5386Z" fill="#AE89C2"/>
</g>
<g style="mix-blend-mode:multiply" opacity="0.5">
<path fill-rule="evenodd" clip-rule="evenodd" d="M123.721 36.5118C118.378 35.8211 112.409 28.4863 112.409 30.2131C112.409 31.9399 118.197 40.4917 119.912 39.8174C121.627 39.1267 125.634 36.7585 123.721 36.5118Z" fill="#AE89C2"/>
</g>
<g style="mix-blend-mode:multiply" opacity="0.5">
<path fill-rule="evenodd" clip-rule="evenodd" d="M168.918 41.199C173.123 44.4881 178.036 51.3954 176.948 51.3132C175.86 51.2309 170.864 47.5471 169.347 44.7677C167.83 42.0048 167.483 40.0642 168.918 41.199Z" fill="#AE89C2"/>
</g>
<g style="mix-blend-mode:multiply" opacity="0.5">
<path fill-rule="evenodd" clip-rule="evenodd" d="M184.25 58.4672C181.529 57.4804 177.259 48.4188 177.473 44.406C177.687 40.3932 188.9 39.2256 189.378 43.6659C189.856 48.1063 185.437 58.8948 184.233 58.4672H184.25Z" fill="#AE89C2"/>
</g>
<g style="mix-blend-mode:multiply" opacity="0.5">
<path fill-rule="evenodd" clip-rule="evenodd" d="M167.219 40.3108C156.105 36.0184 153.566 27.3844 158.067 22.8289C162.569 18.2734 167.713 16.7933 166.493 18.8161C165.273 20.8554 164.317 25.1477 164.663 30.4762C165.125 37.3999 167.219 40.3108 167.219 40.3108Z" fill="#AE89C2"/>
</g>
<g style="mix-blend-mode:multiply" opacity="0.5">
<path fill-rule="evenodd" clip-rule="evenodd" d="M144.552 36.7095C138.286 26.5953 140.594 14.6228 143.48 14.8366C147.866 15.1819 151.098 20.4117 149.845 21.6945C148.592 22.9772 147.173 25.7072 145.772 29.9667C144.37 34.2262 144.568 36.7095 144.568 36.7095H144.552Z" fill="#AE89C2"/>
</g>
<g style="mix-blend-mode:multiply" opacity="0.5">
<path fill-rule="evenodd" clip-rule="evenodd" d="M124.649 33.0583C115.531 21.4805 121.434 14.2772 129.134 13.9483C136.834 13.6359 139.505 14.1128 138.021 15.0995C136.537 16.0863 132.201 16.5797 129.167 22.2206C126.133 27.8615 125.49 34.1109 124.649 33.0419V33.0583Z" fill="#AE89C2"/>
</g>
<path style="mix-blend-mode:multiply" fill-rule="evenodd" clip-rule="evenodd" d="M197.544 23.5198C187.057 21.497 184.402 8.17586 187.502 6.33394C190.602 4.49201 196.043 6.15303 197.939 8.55412C199.621 10.6756 196.785 13.9648 196.785 13.9648C196.785 13.9648 199.588 9.6231 194.131 8.68569C188.656 7.76472 189.184 13.5372 190.569 16.037C191.954 18.5367 199.654 20.7569 200.495 18.8163C201.336 16.8757 201.963 14.8364 201.963 14.8364C201.963 14.8364 202.177 19.1288 200.034 21.1023C197.89 23.0758 197.527 23.5198 197.527 23.5198H197.544Z" fill="url(#paint60_linear_332_759)"/>
<g style="mix-blend-mode:multiply">
<path d="M148.007 106.209C148.007 106.209 145.468 110.271 141.246 109.959C137.009 109.646 136.382 106.209 136.382 106.209C136.382 106.209 137.372 108.298 141.131 108.413C144.874 108.528 148.023 106.209 148.023 106.209H148.007Z" fill="#C98BC2"/>
</g>
<path d="M114.891 574.684L113.407 603.909L98.3193 597.248L100.298 562.219H113.901L114.891 574.684Z" fill="url(#paint61_linear_332_759)"/>
<path d="M199.839 575.901L201.686 597.001C201.686 597.001 217.944 607.477 219.741 598.482C219.989 597.248 214.795 563.452 214.795 563.452C214.795 563.452 198.471 560.442 199.839 575.901Z" fill="url(#paint62_linear_332_759)"/>
<path d="M86.6993 442.493C87.2599 445.634 85.2153 446.753 85.3967 448.973C85.4297 449.269 85.5121 449.532 85.6605 449.779C86.5674 451.423 89.7168 453.084 92.4375 466.356C95.5869 481.716 98.3735 544.704 98.3735 548.585C98.3735 549.111 98.3075 549.753 98.1756 550.443C97.4171 554.818 94.6305 561.775 94.2677 563.814C94.0534 565.047 95.2241 565.228 95.5869 566.33C95.9496 567.432 95.2901 569.948 95.8672 571.708C96.164 572.645 99.6266 573.846 99.6266 573.846L99.7421 571.79C110.41 569.093 114.879 574.652 114.879 574.652L114.747 577.184C114.747 577.184 120.353 575.556 120.568 574.75C120.881 573.517 118.539 569.751 118.539 568.649C118.539 567.547 120.897 566.511 120.815 565.393C120.683 563.584 117.418 556.216 117.286 555.394C116.215 548.749 125.63 526.449 126.322 492.784C127.015 459.103 118.77 451.209 115.621 440.914C114.566 437.477 114.516 433.02 113.774 411.937C113.032 390.853 123.255 335.875 123.255 335.875L125.926 337.552C139.645 359.343 152.54 421.262 153.71 425.751C154.947 430.438 159.152 438.579 159.646 440.059C160.141 441.539 159.646 445.486 159.646 448.693C159.646 451.9 163.109 450.42 165.335 453.38C167.561 456.34 169.919 466.224 179.68 494.692C188.255 519.657 192.773 549.111 194.768 558.601C195.015 559.785 195.229 560.673 195.394 561.183V561.215C195.922 562.696 192.014 567.136 192.014 568.435C192.014 569.734 195.345 570.655 195.724 571.757C196.103 572.859 196.087 576.198 196.087 576.198C198.313 577.678 200.028 578.418 200.028 578.418L199.714 574.438C210.614 569.34 215.56 571.297 215.56 571.297L216.418 574.323C216.418 574.323 220.655 571.675 220.936 570.376C221.216 569.077 218.05 563.83 216.187 561.61C214.324 559.39 212.032 515.151 209.426 488.887C206.821 462.623 188.65 442.263 187.546 439.681C186.441 437.099 189.392 429.682 189.772 427.1C190.151 424.518 185.402 425.028 185.32 423.021C182.863 360.856 180.983 334.05 178.262 321.37C174.552 304.135 167.017 289.416 164.395 283.413C164.032 282.558 164.61 280.173 163.802 279.121C162.4 277.312 160.652 276.884 159.993 276.489C156.81 274.581 149.704 261.968 149.704 261.968C149.704 261.968 152.111 257.988 152.111 257.248C152.111 256.508 146.95 255.685 146.95 255.685L146.587 257.248C146.587 257.248 138.326 258.234 127.674 256.261C117.039 254.287 110.114 247.874 110.114 247.874L110.41 243.927C110.41 243.927 106.964 243.154 106.288 243.927C105.167 245.226 107.162 249.765 107.162 250.735C107.162 251.705 98.3405 264.55 97.3347 265.536C96.3454 266.523 93.2125 263.974 92.9651 267.214C92.7178 270.454 91.8933 273.677 90.904 275.65C89.9147 277.624 82.6595 294.004 80.9282 303.362C79.1969 312.736 79.4442 342.832 80.9282 369.474C82.4122 396.116 86.0563 439.286 86.6169 442.427L86.6993 442.493Z" fill="url(#paint63_radial_332_759)"/>
<path d="M174.992 241.015C189.832 246.936 193.789 273.825 194.531 276.045C195.273 278.265 198.126 280.124 199.857 282.097C201.589 284.071 216.049 317.982 218.275 319.972C218.49 320.153 218.721 320.334 218.984 320.482C221.507 321.962 226.174 322.077 226.174 322.077L230.164 325.876C238.293 327.224 244.476 314.068 244.476 314.068V308.476C244.476 308.476 249.604 303.723 249.538 300.401C249.505 298.247 228.02 245.045 224.92 237.118C219.726 223.78 217.336 213.14 218.374 211.199C219.397 209.275 213.411 207.482 211.861 206.726C211.927 206.693 211.861 206.15 210.361 202.384C210.361 202.384 199.824 206.644 190.541 214.653C176.295 226.954 174.959 241.048 174.959 241.048L174.992 241.015Z" fill="url(#paint64_linear_332_759)"/>
<path d="M258.873 332.438C258.873 332.438 259.945 344.525 261.841 350.216C262.88 353.307 264.249 354.886 265.287 355.692C266.178 356.366 266.804 356.498 266.804 356.498C266.804 356.498 267.464 358.718 269.08 362.451C270.696 366.185 274.917 367.944 275.675 367.451C276.22 367.105 274.818 363.389 273.779 358.619C273.713 358.323 273.647 357.995 273.598 357.666C272.773 352.469 273.103 342.322 273.103 342.322L258.857 332.454L258.873 332.438Z" fill="url(#paint65_linear_332_759)"/>
<path style="mix-blend-mode:multiply" opacity="0.5" d="M266.82 356.498C263.902 345.118 263.786 340.184 263.786 340.184L266.82 340.842C266.82 340.842 266.111 344.328 266.128 349.065C266.144 353.801 266.82 356.498 266.82 356.498Z" fill="url(#paint66_linear_332_759)"/>
<path style="mix-blend-mode:multiply" opacity="0.5" fill-rule="evenodd" clip-rule="evenodd" d="M258.876 332.438C258.876 332.438 259.948 344.525 261.844 350.216C262.883 353.307 264.251 354.886 265.29 355.692C263.081 353.044 262.899 348.341 264.35 344.854C264.581 344.312 264.961 349.574 266.263 352.518C266.115 350.281 266.263 346.071 266.824 344.246C267.434 342.223 269.083 346.844 273.617 357.666C272.793 352.452 273.123 342.305 273.123 342.305L258.876 332.438Z" fill="url(#paint67_linear_332_759)"/>
<path d="M231.469 325.136C231.469 325.136 232.54 325.251 232.178 328.063C231.815 330.875 233.513 338.375 233.513 338.375C234.008 338.753 241.807 344.673 244.28 349.936C244.429 350.232 244.561 350.544 244.693 350.857C246.985 356.333 248.667 366.957 249.557 367.5C251.42 368.668 254.817 360.642 254.141 357.057C253.828 355.412 252.888 353.801 251.832 352.288C251.816 352.255 251.783 352.222 251.766 352.205C250.563 350.479 249.194 348.867 248.452 347.436C247.051 344.772 244.709 336.22 244.709 336.22C244.709 336.22 248.518 336.5 253.366 337.355C254.767 337.602 256.251 337.881 257.735 338.243C259.022 338.539 260.324 338.868 261.594 339.246C269.228 341.516 269.64 341.713 269.64 341.713C269.64 341.713 273.235 352.189 279.072 356.432C286.525 361.909 292.065 360.33 291.999 359.787C291.933 359.294 277.835 343.062 273.647 337.503C273.136 336.829 272.773 336.302 272.608 335.99C272.608 335.99 260.72 331.336 251.057 323.327C241.395 315.334 241.692 315.498 241.395 315.334C241.098 315.17 231.089 317.949 231.485 325.152L231.469 325.136Z" fill="url(#paint68_linear_332_759)"/>
<path d="M37.9548 636.553C38.6803 637.984 48.2604 639.991 54.757 639.991C63.4632 639.991 71.6252 640.681 82.343 638.017C84.7669 637.425 87.3227 636.636 90.0434 635.649C104.224 630.469 123.021 631.258 126.055 630.057C126.187 630.008 126.286 629.959 126.352 629.909C126.467 629.811 126.55 629.597 126.616 629.284C126.929 627.508 126.368 622.427 125.429 616.424C125.198 614.878 124.703 612.921 124.093 610.783C122.362 604.731 119.657 597.199 118.85 593.202C118.289 590.407 120.779 588.384 120.779 586.591C120.779 585.308 115.964 584.848 114.892 585.078C114.892 585.078 112.485 588.4 109.731 588.055C105.774 587.578 99.8543 577.233 97.3315 578.483C96.2102 579.043 94.8581 584.996 90.8678 591.097C90.4391 591.739 89.9939 592.38 89.5157 593.021C84.3712 599.846 75.698 606.178 73.4885 607.642C60.2808 616.44 52.1188 620.108 48.178 621.078C46.7764 621.423 45.919 621.44 45.5397 621.21C44.2536 620.437 38.6639 632.113 37.9878 635.649C37.9054 636.077 37.9054 636.389 37.9878 636.537L37.9548 636.553Z" fill="url(#paint69_linear_332_759)"/>
<g style="mix-blend-mode:multiply" opacity="0.68">
<path d="M37.9713 635.665C50.3545 636.471 67.1732 637.376 82.343 638.034C84.7669 637.442 87.3227 636.652 90.0434 635.665C104.224 630.485 123.021 631.274 126.055 630.074C126.237 629.811 126.418 629.564 126.616 629.284C126.929 627.508 126.368 622.427 125.429 616.424C125.198 614.878 124.703 612.921 124.093 610.783C116.937 614.565 103.267 617.345 98.3373 619.006C93.3906 620.667 84.9813 628.446 74.4613 630.107C63.9579 631.768 45.9684 628.035 48.1615 621.078C46.7599 621.423 45.9025 621.44 45.5233 621.21C44.2371 620.437 38.6474 632.113 37.9713 635.649V635.665Z" fill="#CF6595"/>
</g>
<g style="mix-blend-mode:multiply" opacity="0.8">
<path d="M149.103 132.111C145.31 144.676 148.147 148.491 154.594 147.143C154.594 147.143 149.383 150.596 146.184 148.195C142.986 145.794 144.47 141.189 144.47 141.189C144.47 141.189 145.69 140.005 147.058 137.045C148.427 134.085 149.119 132.128 149.119 132.128L149.103 132.111Z" fill="#DE7881"/>
</g>
<g style="mix-blend-mode:multiply" opacity="0.8">
<path d="M244.492 314.035C237.963 314.462 233.758 317.784 231.449 320.202C229.141 322.619 230.163 325.843 230.163 325.843C230.163 325.843 231.12 326.122 232.076 325.843L231.449 325.119C231.449 325.119 238.375 315.531 243.025 316.666C243.025 316.666 243.272 316.058 243.816 315.301C244.344 314.544 244.476 314.035 244.476 314.035H244.492Z" fill="#DE7881"/>
</g>
<g style="mix-blend-mode:multiply">
<path d="M120.578 574.783C120.298 569.997 95.696 563.205 95.8774 571.724C95.8774 571.724 97.8396 573.418 99.6369 573.862C99.6369 573.862 105.705 572.004 109.877 573.484C114.048 574.964 114.807 576.082 114.807 576.082L114.757 577.217C114.757 577.217 120.627 575.638 120.578 574.783Z" fill="#C98BC2"/>
</g>
<g style="mix-blend-mode:multiply">
<path d="M221 570.441C219.236 561.347 196.333 574.684 196.794 576.263C197.256 577.842 200.076 578.5 200.076 578.5C200.076 578.5 201.428 575.786 207.726 573.961C214.025 572.119 216.202 573.467 216.202 573.467L216.466 574.405C216.466 574.405 221.247 571.823 220.984 570.458L221 570.441Z" fill="#C98BC2"/>
</g>
<path fill-rule="evenodd" clip-rule="evenodd" d="M37.9551 636.554C38.5816 637.82 46.0017 639.497 52.2015 639.909C52.2345 639.909 52.2675 639.909 52.3004 639.909C52.5808 639.909 52.894 639.941 53.2403 639.958C53.3887 639.958 53.5536 639.958 53.7185 639.958C54.0648 639.958 54.411 639.991 54.7408 639.991C65.4256 639.991 75.2695 641.043 90.0271 635.649C104.785 630.255 124.604 631.34 126.336 629.893C127.111 629.268 126.517 623.463 125.412 616.407C119.196 615.454 101.916 616.539 85.3443 627.311C78.6333 631.686 71.2627 632.672 64.7001 631.866C55.0376 630.65 47.1064 625.486 45.5235 621.21C44.089 620.354 37.2295 635.106 37.9551 636.537V636.554Z" fill="url(#paint70_linear_332_759)"/>
<g style="mix-blend-mode:multiply" opacity="0.68">
<path d="M90.8469 591.097C97.7063 586.591 98.3164 588.417 99.3882 592.117C100.922 597.396 105.209 602.412 118.829 593.202C118.268 590.407 120.758 588.384 120.758 586.591C120.758 585.308 115.927 584.848 114.871 585.062C114.871 585.062 112.464 588.384 109.71 588.055C105.753 587.578 99.8334 577.233 97.3106 578.483C96.1728 579.043 94.8372 585.012 90.8469 591.097Z" fill="#CF6595"/>
</g>
<path d="M168.317 645.467C168.317 645.467 191.319 649.908 208.237 647.03C219.729 645.073 228.436 639.826 228.436 639.826C228.436 639.826 228.947 638.363 228.254 631.916C228.073 630.288 227.825 628.331 227.479 626.012C227.298 624.844 227.1 623.611 226.869 622.262C226.737 621.473 226.605 620.716 226.473 619.976C223.885 605.34 221.889 598.778 221.889 598.778L223.588 589.979L218.509 588.351C218.509 588.351 219.103 593.597 218.394 594.025C215.821 595.587 213.414 586.246 207.742 582.447C201.163 578.056 197.074 585.374 197.074 585.374C197.008 586.328 196.711 588.006 196.216 590.111C194.254 598.465 189.34 613.743 185.432 619.532C183.47 622.427 180.997 625.14 178.672 627.492C178.672 627.492 178.54 627.624 178.309 627.87C178.243 627.936 178.177 628.002 178.111 628.084C174.863 631.34 172.093 633.824 171.78 635.024C171.615 635.699 171.4 636.948 171.202 638.363C170.79 641.405 168.317 645.467 168.317 645.467Z" fill="url(#paint71_linear_332_759)"/>
<g style="mix-blend-mode:multiply" opacity="0.68">
<path d="M171.198 638.346L208.892 643.428L228.25 631.916C228.069 630.288 227.821 628.331 227.475 626.012C227.294 624.844 227.096 623.611 226.865 622.262C226.733 621.473 226.601 620.716 226.469 619.976C225.266 633.445 214.762 638.807 209.898 638.988C205.034 639.168 176.969 634.81 175.172 633.807C173.738 633.018 176.805 629.482 178.107 628.068C174.859 631.324 172.089 633.807 171.775 635.008C171.611 635.682 171.396 636.932 171.198 638.346Z" fill="#CF6595"/>
</g>
<path d="M168.312 645.467C168.312 645.467 191.314 649.907 208.232 647.029C219.724 645.072 228.431 639.826 228.431 639.826C228.431 639.826 229.222 637.524 227.474 626.012C225.974 629.876 223.434 635.567 211.843 639.908C209.468 640.797 206.204 640.369 201.686 639.464C194.892 638.099 185.477 635.649 171.214 634.547C169.532 637.507 168.328 645.467 168.328 645.467H168.312Z" fill="url(#paint72_linear_332_759)"/>
<g style="mix-blend-mode:multiply" opacity="0.68">
<path d="M196.214 590.111C212.34 583.072 215.803 605.307 218.573 603.465C221.343 601.623 221.888 598.778 221.888 598.778L223.586 589.979L218.507 588.351C218.507 588.351 219.101 593.597 218.392 594.025C215.82 595.587 213.412 586.246 207.74 582.447C201.161 578.056 197.072 585.374 197.072 585.374C197.006 586.328 196.709 588.006 196.214 590.111Z" fill="#CF6595"/>
</g>
<g style="mix-blend-mode:multiply" opacity="0.2">
<path d="M168.312 645.467C168.312 645.467 191.314 649.907 208.232 647.029C219.724 645.072 228.431 639.826 228.431 639.826C228.431 639.826 229.222 637.524 227.474 626.012C225.974 629.876 223.434 635.567 211.843 639.908C209.468 640.797 206.204 640.369 201.686 639.464C210.606 646.569 190.127 648.378 180.299 646.898C170.472 645.418 171.198 641.471 170.785 635.402C169.285 638.708 168.312 645.451 168.312 645.451V645.467Z" fill="#CF6595"/>
</g>
<g style="mix-blend-mode:multiply" opacity="0.2">
<path d="M53.7185 639.958C54.0648 639.958 54.411 639.991 54.7408 639.991C65.4256 639.991 75.2695 641.043 90.0271 635.649C104.785 630.255 124.604 631.34 126.336 629.893C127.111 629.268 126.517 623.463 125.412 616.407C119.196 615.454 101.916 616.539 85.3443 627.311C78.6333 631.686 71.2627 632.672 64.7001 631.866C67.025 639.201 58.5003 640.04 53.7185 639.958Z" fill="#CF6595"/>
</g>
<path style="mix-blend-mode:multiply" opacity="0.5" d="M189.844 427.149C181.682 426.59 180.758 446.012 181.682 444.911C182.605 443.809 186.332 441.112 187.585 436.046C188.854 430.997 189.844 427.149 189.844 427.149Z" fill="url(#paint73_linear_332_759)"/>
<path style="mix-blend-mode:multiply" opacity="0.5" d="M159.774 449.581C164.803 448.233 172.586 454.696 172.586 454.696C172.586 454.696 165.891 452.903 163.83 452.048C161.769 451.193 159.774 449.581 159.774 449.581Z" fill="url(#paint74_linear_332_759)"/>
<path style="mix-blend-mode:multiply" opacity="0.5" d="M85.3947 448.973C92.2541 448.233 95.9641 458.774 95.7827 461.373C95.6013 463.971 93.8535 476.306 93.7711 475.598C93.6886 474.891 91.5451 463.593 90.2424 458.051C88.9233 452.492 85.3947 448.989 85.3947 448.989V448.973Z" fill="url(#paint75_linear_332_759)"/>
<path style="mix-blend-mode:multiply" opacity="0.5" d="M163.867 279.153C158.524 281.818 150.049 296.306 151.335 295.55C155.622 293.001 163.784 285.304 164.477 283.462C165.169 281.62 163.867 279.153 163.867 279.153Z" fill="url(#paint76_linear_332_759)"/>
<path style="mix-blend-mode:multiply" opacity="0.5" d="M93.6243 266.424C97.9609 273.249 101.687 281.341 101.094 279.992C100.072 277.69 91.4148 276.259 92.0744 273.545C92.9813 269.746 93.0637 265.553 93.6243 266.424Z" fill="url(#paint77_linear_332_759)"/>
<g style="mix-blend-mode:soft-light" opacity="0.8">
<path d="M152.172 257.297C136.491 260.619 113.225 253.498 108.954 249.896C106.613 247.923 105.788 243.992 107.272 243.647C108.756 243.301 110.471 243.976 110.471 243.976L110.174 247.923C110.174 247.923 117.973 254.764 129.45 256.557C138.997 258.053 146.631 257.297 146.631 257.297L146.994 255.734C146.994 255.734 153.87 256.935 152.155 257.297H152.172Z" fill="#FFFFE5"/>
</g>
<path style="mix-blend-mode:multiply" opacity="0.5" d="M218.265 210.031C208.949 218.616 209.559 230.655 210.548 228.056C211.538 225.458 218.331 214.916 218.265 214.159C218.199 213.403 218.265 210.031 218.265 210.031Z" fill="url(#paint78_linear_332_759)"/>
<path style="mix-blend-mode:multiply" opacity="0.5" d="M180.44 140.581C174.256 151.287 164.248 160.908 164.248 160.908C164.248 160.908 181.347 150.498 181.495 147.406C181.644 144.314 180.44 140.581 180.44 140.581Z" fill="url(#paint79_linear_332_759)"/>
<path style="mix-blend-mode:multiply" opacity="0.5" d="M173.133 131.454C165.152 146.847 148.647 151.501 144.096 150.745C139.545 149.988 140.171 141.37 141.804 134.447C141.804 134.447 139.842 140.581 137.995 141.913C136.527 142.966 140.485 167.207 143.453 166.088C146.421 164.97 152.472 157.241 160.667 149.824C168.862 142.407 170.511 139.742 171.83 137.785C173.149 135.812 173.133 131.47 173.133 131.47V131.454Z" fill="url(#paint80_linear_332_759)"/>
<path style="mix-blend-mode:multiply" opacity="0.5" d="M110.009 176.449C122.062 165.529 123.447 153.885 122.326 152.405C121.205 150.925 112.795 154.774 111.905 158.145C111.015 161.516 107.931 178.324 109.992 176.466L110.009 176.449Z" fill="url(#paint81_linear_332_759)"/>
<path style="mix-blend-mode:multiply" opacity="0.5" d="M174.99 241.016C176.028 247.446 177.463 254.55 177.463 254.55C177.463 254.55 180.184 248.071 181.75 245.752C181.75 245.752 173.868 234.174 174.973 241.016H174.99Z" fill="url(#paint82_linear_332_759)"/>
<path style="mix-blend-mode:multiply" opacity="0.5" d="M192.059 568.501C205.234 566.462 206.339 567.942 204.855 568.501C203.371 569.06 197.006 572.974 195.769 571.823C194.533 570.688 192.059 568.501 192.059 568.501Z" fill="url(#paint83_linear_332_759)"/>
<path style="mix-blend-mode:multiply" opacity="0.5" d="M120.827 565.425C111.181 562.942 106.614 564.225 106.614 564.225C106.614 564.225 116.293 567.925 118.568 568.665L120.844 565.425H120.827Z" fill="url(#paint84_linear_332_759)"/>
<path style="mix-blend-mode:multiply" opacity="0.5" d="M94.2807 563.83C98.7492 564.06 102.641 565.54 102.641 565.54C102.641 565.54 96.4738 567.58 95.5998 566.363C94.7259 565.146 94.2807 563.83 94.2807 563.83Z" fill="url(#paint85_linear_332_759)"/>
<path style="mix-blend-mode:multiply" d="M149.766 262.017C135.173 272.838 109.698 256.376 107.224 250.801C107.224 250.801 104.85 263.744 121.322 267.477C138.454 271.358 149.766 262.017 149.766 262.017Z" fill="url(#paint86_linear_332_759)"/>
<path style="mix-blend-mode:multiply" d="M147.539 309.101C141.372 312.801 130.654 329.527 125.922 337.585L123.251 335.908C123.564 334.855 116.606 376.808 116.606 376.808C113.061 324.264 92.1857 301.536 85.3923 299.727C85.3923 299.727 98.3196 302.441 105.608 310.203C105.608 310.203 96.5883 296.323 96.6872 279.976C96.6872 279.976 107.933 315.318 126.367 328.392C127.571 329.247 127.258 314.38 133.622 311.272C139.575 308.377 147.523 309.085 147.523 309.085L147.539 309.101Z" fill="url(#paint87_linear_332_759)"/>
<g style="mix-blend-mode:multiply">
<path d="M109.457 419.124C109.308 421.87 112.375 429.945 114.651 433.925C114.651 433.925 112.622 412.956 114.651 392.975C117.124 368.684 123.258 335.924 123.258 335.924C123.258 335.924 112.853 356.465 109.457 419.124Z" fill="#AE89C2"/>
</g>
<path style="mix-blend-mode:multiply" opacity="0.5" d="M165.349 453.413C167.575 456.373 169.933 466.257 179.694 494.725C188.268 519.689 192.786 549.144 194.781 558.633C194.584 555.377 197.106 551.397 216.25 561.659C214.403 559.439 212.095 515.2 209.49 488.936C206.884 462.672 188.713 442.312 187.609 439.73L181.673 444.91C177.221 466.241 175.737 455.403 165.349 453.413Z" fill="url(#paint88_linear_332_759)"/>
<path style="mix-blend-mode:multiply" opacity="0.5" d="M85.3882 448.973C85.3882 448.973 85.4871 449.252 85.652 449.779C86.5589 451.423 89.7083 453.084 92.429 466.356C95.5784 481.716 98.365 544.704 98.365 548.585C98.365 549.111 98.299 549.753 98.1671 550.443C98.2495 550.542 98.299 550.591 98.299 550.591C98.299 550.591 99.6511 530.906 117.278 555.426C116.206 548.782 125.621 526.482 126.314 492.817C127.006 459.136 115.497 443.414 115.497 443.414C108.737 449.4 98.6948 452.476 93.1215 450.93C88.2243 449.581 85.3882 448.956 85.3882 448.956V448.973Z" fill="url(#paint89_linear_332_759)"/>
<path style="mix-blend-mode:multiply" d="M144.18 299.809C121.31 300.5 120.749 306.914 101.144 287.36C101.144 287.36 97.6314 265.454 97.3841 265.586C96.6421 265.964 94.7789 265.355 93.7895 265.701C92.9486 265.997 92.5364 272.147 91.7449 273.759C85.6935 285.978 81.9175 299.464 81.9175 299.464C105.596 299.661 122.975 336.895 123.239 335.908L125.91 337.585C131.566 311.42 144.163 299.809 144.163 299.809H144.18Z" fill="url(#paint90_linear_332_759)"/>
<path style="mix-blend-mode:multiply" opacity="0.8" d="M181.773 187.978C171.534 217.087 156.875 217.334 143.42 214.867C129.982 212.4 104.754 201.907 104.754 201.907C104.754 201.907 155.606 200.493 162.284 198.224C174.996 193.931 181.773 187.978 181.773 187.978Z" fill="url(#paint91_linear_332_759)"/>
<path style="mix-blend-mode:screen" opacity="0.5" d="M82.801 219.225C104.748 204.933 134.428 230.243 133.867 230.556C133.29 230.868 117.131 228.155 93.7496 227.842C72.3635 227.563 70.3848 228.073 70.3848 228.073L82.8175 219.208L82.801 219.225Z" fill="url(#paint92_linear_332_759)"/>
<path style="mix-blend-mode:multiply" opacity="0.8" d="M108.579 178.11C121.935 167.01 125.266 150.745 125.266 150.745C125.266 150.745 119.857 160.168 114.927 168.309C109.997 176.449 108.562 178.11 108.562 178.11H108.579Z" fill="url(#paint93_linear_332_759)"/>
<path style="mix-blend-mode:multiply" opacity="0.8" d="M174.881 236.328C178.954 190.938 189.375 184.031 189.375 184.031L174.881 236.328Z" fill="url(#paint94_linear_332_759)"/>
<path style="mix-blend-mode:multiply" opacity="0.8" d="M175.007 241.015C174.924 240.275 179.64 206.742 210.408 202.351L211.859 206.677C211.859 206.677 200.762 205.032 188.495 218.32C176.21 231.608 175.023 241.015 175.023 241.015H175.007Z" fill="url(#paint95_linear_332_759)"/>
<path style="mix-blend-mode:multiply" opacity="0.5" d="M212.274 246.706C212.867 247.939 208.662 246.706 197.565 246.18C190.871 245.867 185.001 246.706 185.001 246.706C185.001 246.706 200.517 249.896 201.968 253.07C198.11 253.597 187.557 247.676 186.848 247.989C186.155 248.301 189.915 259.616 189.915 259.616C189.915 259.616 185.43 245.226 174.976 241.032V239.207C182.115 230.605 210.724 243.532 212.257 246.722L212.274 246.706Z" fill="url(#paint96_linear_332_759)"/>
<path style="mix-blend-mode:multiply" opacity="0.3" d="M233.513 338.391C234.008 338.769 241.807 344.69 244.281 349.953C244.429 350.249 244.561 350.561 244.693 350.874C244.693 350.874 247.463 346.68 251.75 352.222C250.546 350.495 249.178 348.884 248.436 347.453C247.034 344.789 244.693 336.237 244.693 336.237C244.726 342.24 234.041 338.556 233.513 338.375V338.391Z" fill="url(#paint97_linear_332_759)"/>
<path style="mix-blend-mode:multiply" opacity="0.5" d="M218.275 319.955L218.984 320.465C221.507 321.945 226.174 322.06 226.174 322.06C226.174 322.06 228.086 312.44 244.476 308.46C244.476 308.46 249.604 303.707 249.538 300.385C238.046 306.897 224.129 320.186 222.645 320.021C221.161 319.84 218.259 319.972 218.259 319.972L218.275 319.955Z" fill="url(#paint98_linear_332_759)"/>
<path style="mix-blend-mode:multiply" opacity="0.5" d="M195.208 277.361C201.968 274.318 221.013 280.798 222.101 291.537C222.184 292.359 211.927 301.75 210.658 304.924C210.658 304.924 201.21 284.021 199.841 282.114C198.984 280.897 195.01 277.459 195.208 277.377V277.361Z" fill="url(#paint99_linear_332_759)"/>
<path fill-rule="evenodd" clip-rule="evenodd" d="M166.486 187.78C169.075 193.207 147.903 192.418 133.871 189.211C119.839 186.004 107.67 186.481 113.062 176.597C118.454 166.713 130.474 170.134 141.11 171.779C151.745 173.423 162.331 179.097 166.486 187.78Z" fill="url(#paint100_linear_332_759)"/>
<path d="M167.114 179.097C161.92 180.265 159.546 174.986 162.069 174.032C164.591 173.078 170.808 178.275 167.114 179.097Z" fill="url(#paint101_linear_332_759)"/>
<g style="mix-blend-mode:soft-light" opacity="0.3">
<path fill-rule="evenodd" clip-rule="evenodd" d="M151.186 276.604C138.506 300.089 124.837 302.309 116.922 298.494C109.007 294.678 98.24 278.792 102.115 268.414C105.99 258.037 116.873 273.365 125.282 273.217C133.691 273.069 156.083 267.526 151.202 276.588L151.186 276.604Z" fill="#90A9EF"/>
</g>
<path style="mix-blend-mode:multiply" d="M134.958 257.987C133.82 262.23 133.309 266.852 130.275 267.164C127.241 267.493 118.222 266.852 112.566 263.743C112.566 263.743 122.262 270.683 131.743 267.904C132.188 267.773 137.3 260.619 136.492 258.201L134.958 257.987Z" fill="url(#paint102_linear_332_759)"/>
<path d="M126.398 259.698C122.523 264.648 130.124 264.697 129.893 261.885C129.662 259.073 128.079 257.543 126.398 259.698Z" fill="url(#paint103_linear_332_759)"/>
<path style="mix-blend-mode:multiply" d="M125.988 260.208C124.191 262.51 124.504 265.289 126.071 265.339C127.868 265.388 130.325 262.905 128.808 262.839C126.301 262.724 127.67 258.07 125.988 260.224V260.208Z" fill="url(#paint104_linear_332_759)"/>
<g style="mix-blend-mode:soft-light" opacity="0.5">
<path d="M121.319 267.477C109.793 284.317 118.071 316.683 122.391 325.448C122.391 325.448 108.045 312.785 106.528 293.527C104.747 270.799 108.359 261.556 112.58 264.336C115.136 266.013 121.319 267.477 121.319 267.477Z" fill="#90A9EF"/>
</g>
<path style="mix-blend-mode:multiply" d="M123.414 267.329C117.016 284.679 116.093 308.394 122.375 325.448C122.375 325.448 114.147 311.601 115.532 294.629C116.917 277.657 123.414 267.312 123.414 267.312V267.329Z" fill="url(#paint105_linear_332_759)"/>
<g style="mix-blend-mode:soft-light" opacity="0.3">
<path d="M162.478 308.147C181.606 320.465 185.316 433.842 172.586 438.612C159.857 443.381 154.844 402.02 144.192 374.062C133.54 346.104 143.186 295.731 162.478 308.147Z" fill="#90A9EF"/>
</g>
<g style="mix-blend-mode:soft-light" opacity="0.3">
<path d="M87.4749 313.081C124.08 334.822 107.806 400.129 102.134 420.489C96.4449 440.848 87.9036 425.751 85.3478 411.065C82.792 396.379 81.4399 309.496 87.4749 313.081Z" fill="#90A9EF"/>
</g>
<g style="mix-blend-mode:multiply">
<path d="M169.487 294.645C182.25 349.508 180.04 437.51 180.04 437.51C180.04 437.51 183.948 428.662 185.383 423.087C185.383 423.087 183.503 362.764 180.634 337.602C177.452 309.66 169.504 294.645 169.504 294.645H169.487Z" fill="#AE89C2"/>
</g>
<path style="mix-blend-mode:multiply" opacity="0.88" d="M181.385 452.048C191.691 460.945 185.722 473.937 180.033 471.536C174.344 469.135 169.513 458.215 172.58 458.774C175.647 459.334 179.588 458.034 180.033 456.176C180.462 454.334 178.945 449.943 181.385 452.048Z" fill="url(#paint106_linear_332_759)"/>
<path style="mix-blend-mode:multiply" opacity="0.88" d="M107.928 454.712C99.4852 457.031 88.553 447.476 89.1301 452.065C89.7072 456.653 97.7868 480.812 101.249 477.111C104.712 473.411 111.885 453.643 107.928 454.729V454.712Z" fill="url(#paint107_linear_332_759)"/>
<g style="mix-blend-mode:multiply">
<path d="M89.762 456.933C106.647 485.795 98.2044 543.01 98.1219 541.119C98.0395 539.227 97.6932 521.318 96.1598 496.863C94.28 466.882 89.762 456.933 89.762 456.933Z" fill="#AE89C2"/>
</g>
<path style="mix-blend-mode:multiply" d="M146.697 263.826C154.365 272.411 155.799 279.384 157.926 279.992C160.053 280.617 161.916 279.926 161.916 282.393C161.916 284.86 168.957 299.036 174.992 328.392C174.992 328.392 162.131 290.961 161.191 287.36C160.251 283.742 160.993 283.248 157.926 282.393C154.859 281.522 153.111 269.171 145.18 264.796L146.45 258.152H149.748C149.748 258.152 145.724 262.74 146.681 263.809L146.697 263.826Z" fill="url(#paint108_linear_332_759)"/>
<g style="mix-blend-mode:soft-light" opacity="0.5">
<path d="M189.373 621.966C208.55 624.433 217.24 633.429 205.368 635.287C193.479 637.145 177.238 634.103 177.139 631.702C177.04 629.301 182.761 621.111 189.373 621.966Z" fill="#FFC7AC"/>
</g>
<g style="mix-blend-mode:soft-light" opacity="0.5">
<path d="M72.3088 612.526C90.2817 612.888 82.1362 623.512 67.6754 624.4C53.2146 625.288 48.1525 623.857 49.8674 621.9C51.5822 619.943 68.7802 612.46 72.3088 612.526Z" fill="#FFC7AC"/>
</g>
<g style="mix-blend-mode:soft-light" opacity="0.3">
<path d="M173.134 186.004C165.334 193.931 153.71 199.062 144.179 197.22C134.648 195.378 127.921 189.211 131.4 185.264C134.896 181.317 181.098 177.896 173.134 186.004Z" fill="#FFBAEF"/>
</g>
<g style="mix-blend-mode:soft-light" opacity="0.3">
<path d="M124.032 169.92C128.88 182.929 131.601 194.145 122.4 193.059C113.199 191.99 105.103 189.425 107.576 182.929C110.033 176.433 121.823 163.95 124.049 169.92H124.032Z" fill="#FFBAEF"/>
</g>
<path style="mix-blend-mode:multiply" opacity="0.5" d="M99.592 210.18C146.618 228.944 155.737 226.214 161.063 225.655C170.264 224.685 181.113 210.657 179.926 211.413C178.739 212.17 175.474 227.514 174.996 241.016C174.996 241.016 105.594 214.39 98.5367 214.39C91.496 214.39 85.0158 217.827 85.0158 217.827C85.0158 217.827 95.9645 190.576 99.8229 188.373C99.8229 188.373 94.7938 208.256 99.592 210.18Z" fill="url(#paint109_linear_332_759)"/>
<path style="mix-blend-mode:multiply" opacity="0.5" fill-rule="evenodd" clip-rule="evenodd" d="M125.317 160.908C126.867 171.45 133.875 180.758 133.875 180.758C133.875 180.758 121.426 170.479 121.31 166.187C121.195 161.878 125.317 160.924 125.317 160.924V160.908Z" fill="url(#paint110_linear_332_759)"/>
<g style="mix-blend-mode:multiply" opacity="0.5">
<path fill-rule="evenodd" clip-rule="evenodd" d="M201.707 201.233C192.72 201.233 185.02 187.649 191.417 176.581C197.815 165.513 197.749 168.555 199.777 179.245C201.805 189.935 214.04 201.217 201.707 201.217V201.233Z" fill="#C486E8"/>
</g>
<g style="mix-blend-mode:screen" opacity="0.2">
<path fill-rule="evenodd" clip-rule="evenodd" d="M244.492 298.855C231.218 298.773 213.246 275.305 214.136 269.385C215.026 263.464 229.273 253.925 236.116 268.579C242.959 283.232 248.35 298.888 244.492 298.855Z" fill="#DC7F4F"/>
</g>
<g style="mix-blend-mode:screen" opacity="0.2">
<path fill-rule="evenodd" clip-rule="evenodd" d="M199.147 233.796C180.564 238.285 181.586 229.668 186.995 223.353C198.075 210.426 214.086 204.44 214.086 210.36C214.086 216.281 202.659 232.941 199.13 233.796H199.147Z" fill="#DC7F4F"/>
</g>
<g style="mix-blend-mode:screen" opacity="0.2">
<path fill-rule="evenodd" clip-rule="evenodd" d="M78.0689 203.453C68.4559 217.827 51.8021 204.933 53.8137 201.233C55.8254 197.533 61.9757 191.711 65.8506 193.142C69.7255 194.572 81.4162 198.454 78.0689 203.453Z" fill="#DC7F4F"/>
</g>
<g style="mix-blend-mode:multiply" opacity="0.68">
<path fill-rule="evenodd" clip-rule="evenodd" d="M223.586 589.963C219.761 598.465 217.304 594.633 216.248 593.186C215.193 591.739 213.033 588.351 213.033 588.351L217.502 591.837L218.689 590.456L218.507 588.367L223.586 589.995V589.963Z" fill="#CF6595"/>
</g>
<g style="mix-blend-mode:multiply" opacity="0.68">
<path fill-rule="evenodd" clip-rule="evenodd" d="M120.77 586.591C115.444 594.715 107.76 588.598 105.815 585.572C105.815 585.572 113.696 587.611 114.34 585.572C114.34 585.572 121.842 584.947 120.77 586.591Z" fill="#CF6595"/>
</g>
<g style="mix-blend-mode:soft-light" opacity="0.5">
<path fill-rule="evenodd" clip-rule="evenodd" d="M164.673 317.242C185.07 331.319 181.492 400.869 174.88 404.322C168.284 407.776 146.453 350.791 151.185 337.585C155.917 324.396 158.737 313.147 164.657 317.225L164.673 317.242Z" fill="#90A9EF"/>
</g>
<g style="mix-blend-mode:soft-light" opacity="0.5">
<path fill-rule="evenodd" clip-rule="evenodd" d="M92.0392 332.438C100.383 363.372 91.4127 399.126 87.1585 398.649C82.9044 398.172 81.3709 353.587 82.789 339.197C84.207 324.807 89.1537 321.797 92.0228 332.438H92.0392Z" fill="#90A9EF"/>
</g>
<g style="mix-blend-mode:soft-light" opacity="0.5">
<path fill-rule="evenodd" clip-rule="evenodd" d="M244.498 331.681C243.063 340.266 234.093 340.118 233.533 331.681C232.972 323.244 246.196 321.501 244.498 331.681Z" fill="#FFC7AC"/>
</g>
<path style="mix-blend-mode:multiply" opacity="0.3" fill-rule="evenodd" clip-rule="evenodd" d="M257.735 338.259C259.022 338.555 260.324 338.884 261.594 339.263C269.228 341.532 269.64 341.729 269.64 341.729C269.64 341.729 273.235 352.205 279.072 356.448C286.525 361.909 292.065 360.33 291.999 359.787C291.933 359.294 277.835 343.062 273.647 337.503C269.311 339.641 262.286 339.016 257.752 338.276L257.735 338.259Z" fill="url(#paint111_linear_332_759)"/>
<defs>
<linearGradient id="paint0_linear_332_759" x1="85.329" y1="255.455" x2="85.329" y2="173.308" gradientUnits="userSpaceOnUse">
<stop stop-color="#FE1331"/>
<stop offset="0.92" stop-color="#FE30B1"/>
</linearGradient>
<linearGradient id="paint1_linear_332_759" x1="57.6884" y1="165.085" x2="18.4282" y2="165.085" gradientUnits="userSpaceOnUse">
<stop offset="0.02" stop-color="#FF8D5B"/>
<stop offset="1" stop-color="#FF6F6B"/>
</linearGradient>
<radialGradient id="paint2_radial_332_759" cx="0" cy="0" r="1" gradientUnits="userSpaceOnUse" gradientTransform="translate(25.5009 148.128) rotate(28.1475) scale(30.2725 30.2286)">
<stop stop-color="#E0E6FF"/>
<stop offset="0.26" stop-color="#DEE3FB"/>
<stop offset="0.48" stop-color="#DBD9F1"/>
<stop offset="0.68" stop-color="#D5CADF"/>
<stop offset="0.88" stop-color="#CDB5C6"/>
<stop offset="1" stop-color="#C7A4B3"/>
</radialGradient>
<linearGradient id="paint3_linear_332_759" x1="8.59722" y1="146.459" x2="44.0679" y2="165.536" gradientUnits="userSpaceOnUse">
<stop stop-color="#331457"/>
<stop offset="0.48" stop-color="#1D0741"/>
<stop offset="0.98" stop-color="#4A2589"/>
</linearGradient>
<linearGradient id="paint4_linear_332_759" x1="52.5712" y1="142.554" x2="11.7116" y2="142.554" gradientUnits="userSpaceOnUse">
<stop offset="0.02" stop-color="#66008B"/>
<stop offset="0.19" stop-color="#640A95"/>
<stop offset="1" stop-color="#593BC8"/>
</linearGradient>
<linearGradient id="paint5_linear_332_759" x1="33.9193" y1="50.0798" x2="33.9193" y2="143.097" gradientUnits="userSpaceOnUse">
<stop stop-color="#FFD6DB"/>
<stop offset="1" stop-color="#FFEDDB"/>
</linearGradient>
<linearGradient id="paint6_linear_332_759" x1="13.9756" y1="98.3681" x2="65.3384" y2="125.992" gradientUnits="userSpaceOnUse">
<stop stop-color="#4A93FF"/>
<stop offset="0.98" stop-color="#66C3FF"/>
</linearGradient>
<linearGradient id="paint7_linear_332_759" x1="12.8922" y1="100.383" x2="64.255" y2="128.007" gradientUnits="userSpaceOnUse">
<stop stop-color="#FFE9EA"/>
<stop offset="0.99" stop-color="#7E459F"/>
</linearGradient>
<linearGradient id="paint8_linear_332_759" x1="4.04665" y1="106.604" x2="66.875" y2="140.395" gradientUnits="userSpaceOnUse">
<stop stop-color="#4A93FF"/>
<stop offset="0.98" stop-color="#66C3FF"/>
</linearGradient>
<linearGradient id="paint9_linear_332_759" x1="36.1679" y1="118.002" x2="36.157" y2="135.035" gradientUnits="userSpaceOnUse">
<stop stop-color="#A411A4"/>
<stop offset="0.93" stop-color="white"/>
</linearGradient>
<linearGradient id="paint10_linear_332_759" x1="9.66838" y1="135.549" x2="6.09029" y2="135.549" gradientUnits="userSpaceOnUse">
<stop stop-color="#FF7763"/>
<stop offset="0.98" stop-color="#FFAE78"/>
</linearGradient>
<linearGradient id="paint11_linear_332_759" x1="10.0202" y1="151.978" x2="2.40229" y2="151.978" gradientUnits="userSpaceOnUse">
<stop stop-color="#FF7763"/>
<stop offset="0.98" stop-color="#FFAE78"/>
</linearGradient>
<linearGradient id="paint12_linear_332_759" x1="8.51909" y1="167.371" x2="2.56658" y2="167.371" gradientUnits="userSpaceOnUse">
<stop stop-color="#FF7763"/>
<stop offset="0.98" stop-color="#FFAE78"/>
</linearGradient>
<linearGradient id="paint13_linear_332_759" x1="52.9724" y1="179.771" x2="52.9724" y2="126.947" gradientUnits="userSpaceOnUse">
<stop offset="0.03" stop-color="#FF9B86"/>
<stop offset="0.95" stop-color="#FFA670"/>
</linearGradient>
<linearGradient id="paint14_linear_332_759" x1="55.5117" y1="169.822" x2="55.5117" y2="141.979" gradientUnits="userSpaceOnUse">
<stop stop-color="#DE5777"/>
<stop offset="1" stop-color="#FFE9EA"/>
</linearGradient>
<linearGradient id="paint15_linear_332_759" x1="51.7219" y1="198.256" x2="51.7219" y2="189.589" gradientUnits="userSpaceOnUse">
<stop stop-color="#FFE9EA"/>
<stop offset="0.99" stop-color="#7E459F"/>
</linearGradient>
<linearGradient id="paint16_linear_332_759" x1="85.0087" y1="217.515" x2="85.0087" y2="192.731" gradientUnits="userSpaceOnUse">
<stop stop-color="#FFE9EA"/>
<stop offset="0.99" stop-color="#7E459F"/>
</linearGradient>
<radialGradient id="paint17_radial_332_759" cx="0" cy="0" r="1" gradientUnits="userSpaceOnUse" gradientTransform="translate(85.4695 214.39) rotate(180) scale(42.0138 41.9039)">
<stop stop-color="#8E47B8"/>
<stop offset="1" stop-color="white"/>
</radialGradient>
<linearGradient id="paint18_linear_332_759" x1="176.477" y1="240.325" x2="70.3703" y2="240.325" gradientUnits="userSpaceOnUse">
<stop stop-color="#331457"/>
<stop offset="0.48" stop-color="#1D0741"/>
<stop offset="0.98" stop-color="#4A2589"/>
</linearGradient>
<linearGradient id="paint19_linear_332_759" x1="156.562" y1="237.085" x2="110.013" y2="237.085" gradientUnits="userSpaceOnUse">
<stop offset="0.02" stop-color="#FF8D5B"/>
<stop offset="1" stop-color="#FF6F6B"/>
</linearGradient>
<linearGradient id="paint20_linear_332_759" x1="141.122" y1="257.297" x2="141.122" y2="128.148" gradientUnits="userSpaceOnUse">
<stop offset="0.02" stop-color="#66008B"/>
<stop offset="0.19" stop-color="#640A95"/>
<stop offset="1" stop-color="#593BC8"/>
</linearGradient>
<linearGradient id="paint21_linear_332_759" x1="147.322" y1="257.297" x2="147.322" y2="165.529" gradientUnits="userSpaceOnUse">
<stop stop-color="#7E459F"/>
<stop offset="1" stop-color="#FFE9EA"/>
</linearGradient>
<linearGradient id="paint22_linear_332_759" x1="171.819" y1="140.416" x2="141.809" y2="140.416" gradientUnits="userSpaceOnUse">
<stop stop-color="#331457"/>
<stop offset="0.48" stop-color="#1D0741"/>
<stop offset="0.98" stop-color="#4A2589"/>
</linearGradient>
<linearGradient id="paint23_linear_332_759" x1="185.541" y1="27.9108" x2="185.541" y2="0.00229227" gradientUnits="userSpaceOnUse">
<stop stop-color="#B60083"/>
<stop offset="1" stop-color="#E10088"/>
</linearGradient>
<linearGradient id="paint24_linear_332_759" x1="182.239" y1="17.254" x2="182.239" y2="2.69946" gradientUnits="userSpaceOnUse">
<stop stop-color="white"/>
<stop offset="1" stop-color="#C22F9B"/>
</linearGradient>
<linearGradient id="paint25_linear_332_759" x1="221.42" y1="108.577" x2="217.139" y2="56.2121" gradientUnits="userSpaceOnUse">
<stop stop-color="#B60083"/>
<stop offset="1" stop-color="#E10088"/>
</linearGradient>
<linearGradient id="paint26_linear_332_759" x1="156.583" y1="128.789" x2="156.583" y2="10.4125" gradientUnits="userSpaceOnUse">
<stop stop-color="#B60083"/>
<stop offset="1" stop-color="#E10088"/>
</linearGradient>
<linearGradient id="paint27_linear_332_759" x1="117.872" y1="63.7957" x2="117.872" y2="29.6213" gradientUnits="userSpaceOnUse">
<stop stop-color="white"/>
<stop offset="1" stop-color="#862F9B"/>
</linearGradient>
<linearGradient id="paint28_linear_332_759" x1="170.766" y1="7.66587" x2="165.858" y2="20.6337" gradientUnits="userSpaceOnUse">
<stop stop-color="white"/>
<stop offset="1" stop-color="#C22F9B"/>
</linearGradient>
<linearGradient id="paint29_linear_332_759" x1="114.952" y1="118.346" x2="114.952" y2="47.3005" gradientUnits="userSpaceOnUse">
<stop stop-color="white"/>
<stop offset="1" stop-color="#C22F9B"/>
</linearGradient>
<linearGradient id="paint30_linear_332_759" x1="199.162" y1="127.441" x2="199.162" y2="27.1216" gradientUnits="userSpaceOnUse">
<stop stop-color="white"/>
<stop offset="1" stop-color="#C22F9B"/>
</linearGradient>
<linearGradient id="paint31_linear_332_759" x1="149.517" y1="40.311" x2="149.517" y2="128.773" gradientUnits="userSpaceOnUse">
<stop stop-color="white"/>
<stop offset="1" stop-color="#862F9B"/>
</linearGradient>
<linearGradient id="paint32_linear_332_759" x1="156.733" y1="148.853" x2="156.733" y2="99.0059" gradientUnits="userSpaceOnUse">
<stop offset="0.02" stop-color="#FF8D5B"/>
<stop offset="1" stop-color="#FF6F6B"/>
</linearGradient>
<linearGradient id="paint33_linear_332_759" x1="193.163" y1="91.9813" x2="193.147" y2="66.6046" gradientUnits="userSpaceOnUse">
<stop offset="0.02" stop-color="#FF705B"/>
<stop offset="0.99" stop-color="#FF9063"/>
</linearGradient>
<radialGradient id="paint34_radial_332_759" cx="0" cy="0" r="1" gradientUnits="userSpaceOnUse" gradientTransform="translate(152.988 90.6516) rotate(180) scale(47.3397 47.2159)">
<stop offset="0.02" stop-color="#FFA774"/>
<stop offset="1" stop-color="#FF9B91"/>
</radialGradient>
<linearGradient id="paint35_linear_332_759" x1="166.194" y1="93.3823" x2="196.662" y2="83.6096" gradientUnits="userSpaceOnUse">
<stop stop-color="#B60083"/>
<stop offset="1" stop-color="#E10088"/>
</linearGradient>
<linearGradient id="paint36_linear_332_759" x1="150.488" y1="59.0426" x2="150.488" y2="12.0405" gradientUnits="userSpaceOnUse">
<stop stop-color="#B60083"/>
<stop offset="1" stop-color="#E10088"/>
</linearGradient>
<linearGradient id="paint37_linear_332_759" x1="185.155" y1="78.7629" x2="199.965" y2="77.8183" gradientUnits="userSpaceOnUse">
<stop stop-color="#FFE9EA"/>
<stop offset="0.99" stop-color="#DE5777"/>
</linearGradient>
<linearGradient id="paint38_linear_332_759" x1="775.627" y1="44.8078" x2="195.742" y2="81.7943" gradientUnits="userSpaceOnUse">
<stop stop-color="#FFE9EA"/>
<stop offset="0.99" stop-color="#DE5777"/>
</linearGradient>
<linearGradient id="paint39_linear_332_759" x1="161.336" y1="83.6456" x2="161.336" y2="48.3694" gradientUnits="userSpaceOnUse">
<stop stop-color="white"/>
<stop offset="1" stop-color="#DC5E7E"/>
</linearGradient>
<linearGradient id="paint40_linear_332_759" x1="127.841" y1="81.3105" x2="127.841" y2="45.327" gradientUnits="userSpaceOnUse">
<stop stop-color="white"/>
<stop offset="1" stop-color="#DC5E7E"/>
</linearGradient>
<linearGradient id="paint41_linear_332_759" x1="161.675" y1="62.9074" x2="161.675" y2="44.4059" gradientUnits="userSpaceOnUse">
<stop offset="0.02" stop-color="#DB3440"/>
<stop offset="1" stop-color="#922046"/>
</linearGradient>
<linearGradient id="paint42_linear_332_759" x1="126.085" y1="54.1582" x2="126.085" y2="42.0705" gradientUnits="userSpaceOnUse">
<stop offset="0.02" stop-color="#DB3440"/>
<stop offset="1" stop-color="#922046"/>
</linearGradient>
<linearGradient id="paint43_linear_332_759" x1="170.977" y1="78.7283" x2="153.218" y2="78.7283" gradientUnits="userSpaceOnUse">
<stop stop-color="#CA00A4"/>
<stop offset="1" stop-color="white"/>
</linearGradient>
<radialGradient id="paint44_radial_332_759" cx="0" cy="0" r="1" gradientUnits="userSpaceOnUse" gradientTransform="translate(160.672 71.8374) rotate(180) scale(10.5199 10.4924)">
<stop offset="0.03" stop-color="#FFD9CC"/>
<stop offset="0.98" stop-color="#FFCED3"/>
</radialGradient>
<linearGradient id="paint45_linear_332_759" x1="132.492" y1="78.4487" x2="124.033" y2="78.4487" gradientUnits="userSpaceOnUse">
<stop stop-color="#CA00A4"/>
<stop offset="1" stop-color="white"/>
</linearGradient>
<radialGradient id="paint46_radial_332_759" cx="0" cy="0" r="1" gradientUnits="userSpaceOnUse" gradientTransform="translate(128.393 70.1766) rotate(180) scale(8.0466 8.02555)">
<stop offset="0.03" stop-color="#FFD9CC"/>
<stop offset="0.98" stop-color="#FFCED3"/>
</radialGradient>
<linearGradient id="paint47_linear_332_759" x1="155.702" y1="96.773" x2="155.479" y2="92.4041" gradientUnits="userSpaceOnUse">
<stop stop-color="#FFE9EA"/>
<stop offset="0.99" stop-color="#DE5777"/>
</linearGradient>
<linearGradient id="paint48_linear_332_759" x1="162.262" y1="79.847" x2="162.262" y2="64.2563" gradientUnits="userSpaceOnUse">
<stop offset="0.02" stop-color="#8C7CA2"/>
<stop offset="1" stop-color="#774C6E"/>
</linearGradient>
<linearGradient id="paint49_linear_332_759" x1="135.392" y1="77.1772" x2="133.889" y2="62.1099" gradientUnits="userSpaceOnUse">
<stop offset="0.02" stop-color="#8C7CA2"/>
<stop offset="1" stop-color="#774C6E"/>
</linearGradient>
<linearGradient id="paint50_linear_332_759" x1="137.405" y1="84.1225" x2="137.405" y2="91.5889" gradientUnits="userSpaceOnUse">
<stop stop-color="white"/>
<stop offset="0.99" stop-color="#CA00A4"/>
</linearGradient>
<linearGradient id="paint51_linear_332_759" x1="143.062" y1="77.643" x2="131.784" y2="77.643" gradientUnits="userSpaceOnUse">
<stop offset="0.39" stop-color="#FFE9EA"/>
<stop offset="0.99" stop-color="#DE5777"/>
</linearGradient>
<linearGradient id="paint52_linear_332_759" x1="142.768" y1="89.3971" x2="138.036" y2="90.8564" gradientUnits="userSpaceOnUse">
<stop stop-color="#CA00A4"/>
<stop offset="1" stop-color="white"/>
</linearGradient>
<linearGradient id="paint53_linear_332_759" x1="133.196" y1="89.7069" x2="129.817" y2="89.9608" gradientUnits="userSpaceOnUse">
<stop stop-color="#CA00A4"/>
<stop offset="1" stop-color="white"/>
</linearGradient>
<linearGradient id="paint54_linear_332_759" x1="128.252" y1="13.9482" x2="128.252" y2="36.5118" gradientUnits="userSpaceOnUse">
<stop stop-color="white"/>
<stop offset="1" stop-color="#C22F9B"/>
</linearGradient>
<linearGradient id="paint55_linear_332_759" x1="140.412" y1="14.5076" x2="140.412" y2="39.7355" gradientUnits="userSpaceOnUse">
<stop stop-color="white"/>
<stop offset="1" stop-color="#C22F9B"/>
</linearGradient>
<linearGradient id="paint56_linear_332_759" x1="161.876" y1="17.254" x2="161.876" y2="42.0049" gradientUnits="userSpaceOnUse">
<stop stop-color="white"/>
<stop offset="1" stop-color="#C22F9B"/>
</linearGradient>
<linearGradient id="paint57_linear_332_759" x1="173.464" y1="21.1023" x2="173.464" y2="50.0798" gradientUnits="userSpaceOnUse">
<stop stop-color="white"/>
<stop offset="1" stop-color="#C22F9B"/>
</linearGradient>
<linearGradient id="paint58_linear_332_759" x1="141.231" y1="104.466" x2="181.266" y2="104.466" gradientUnits="userSpaceOnUse">
<stop stop-color="#FFE9EA"/>
<stop offset="0.99" stop-color="#DE5777"/>
</linearGradient>
<linearGradient id="paint59_linear_332_759" x1="131.882" y1="112.722" x2="156.846" y2="112.722" gradientUnits="userSpaceOnUse">
<stop stop-color="#DC5E7E"/>
<stop offset="1" stop-color="white"/>
</linearGradient>
<linearGradient id="paint60_linear_332_759" x1="201.996" y1="14.5239" x2="186.298" y2="14.5239" gradientUnits="userSpaceOnUse">
<stop stop-color="white"/>
<stop offset="1" stop-color="#C22F9B"/>
</linearGradient>
<linearGradient id="paint61_linear_332_759" x1="114.891" y1="583.072" x2="98.3193" y2="583.072" gradientUnits="userSpaceOnUse">
<stop offset="0.02" stop-color="#FF8D5B"/>
<stop offset="1" stop-color="#FF6F6B"/>
</linearGradient>
<linearGradient id="paint62_linear_332_759" x1="219.758" y1="582.661" x2="199.757" y2="582.661" gradientUnits="userSpaceOnUse">
<stop offset="0.02" stop-color="#FF8D5B"/>
<stop offset="1" stop-color="#FF6F6B"/>
</linearGradient>
<radialGradient id="paint63_radial_332_759" cx="0" cy="0" r="1" gradientUnits="userSpaceOnUse" gradientTransform="translate(150.413 411.065) rotate(180) scale(128.779 128.442)">
<stop stop-color="#5C47B6"/>
<stop offset="1" stop-color="#5A34B5"/>
</radialGradient>
<linearGradient id="paint64_linear_332_759" x1="212.273" y1="325.942" x2="212.273" y2="202.351" gradientUnits="userSpaceOnUse">
<stop stop-color="#FE1331"/>
<stop offset="0.92" stop-color="#FE30B1"/>
</linearGradient>
<linearGradient id="paint65_linear_332_759" x1="275.824" y1="349.985" x2="258.873" y2="349.985" gradientUnits="userSpaceOnUse">
<stop offset="0.02" stop-color="#FF8D5B"/>
<stop offset="1" stop-color="#FF6F6B"/>
</linearGradient>
<linearGradient id="paint66_linear_332_759" x1="265.303" y1="356.498" x2="265.303" y2="340.184" gradientUnits="userSpaceOnUse">
<stop stop-color="#FFE9EA"/>
<stop offset="0.99" stop-color="#DE5777"/>
</linearGradient>
<linearGradient id="paint67_linear_332_759" x1="273.617" y1="345.052" x2="258.876" y2="345.052" gradientUnits="userSpaceOnUse">
<stop stop-color="#FFE9EA"/>
<stop offset="0.99" stop-color="#DE5777"/>
</linearGradient>
<linearGradient id="paint68_linear_332_759" x1="291.999" y1="341.483" x2="231.452" y2="341.483" gradientUnits="userSpaceOnUse">
<stop stop-color="#FDB683"/>
<stop offset="0.99" stop-color="#FC8766"/>
</linearGradient>
<linearGradient id="paint69_linear_332_759" x1="82.2936" y1="578.385" x2="82.2936" y2="640.073" gradientUnits="userSpaceOnUse">
<stop stop-color="#D191FF"/>
<stop offset="1" stop-color="#CF95FF"/>
</linearGradient>
<linearGradient id="paint70_linear_332_759" x1="126.682" y1="628.117" x2="37.9056" y2="628.117" gradientUnits="userSpaceOnUse">
<stop stop-color="#FFC4BA"/>
<stop offset="1" stop-color="#FFE7E5"/>
</linearGradient>
<linearGradient id="paint71_linear_332_759" x1="198.459" y1="581.049" x2="198.459" y2="648" gradientUnits="userSpaceOnUse">
<stop stop-color="#D191FF"/>
<stop offset="1" stop-color="#CF95FF"/>
</linearGradient>
<linearGradient id="paint72_linear_332_759" x1="198.454" y1="648" x2="198.454" y2="626.012" gradientUnits="userSpaceOnUse">
<stop stop-color="#FFC4BA"/>
<stop offset="1" stop-color="#FFE7E5"/>
</linearGradient>
<linearGradient id="paint73_linear_332_759" x1="185.623" y1="444.943" x2="185.623" y2="427.133" gradientUnits="userSpaceOnUse">
<stop stop-color="#FFE9EA"/>
<stop offset="0.99" stop-color="#7E459F"/>
</linearGradient>
<linearGradient id="paint74_linear_332_759" x1="166.172" y1="454.712" x2="166.172" y2="449.4" gradientUnits="userSpaceOnUse">
<stop stop-color="#FFE9EA"/>
<stop offset="0.99" stop-color="#7E459F"/>
</linearGradient>
<linearGradient id="paint75_linear_332_759" x1="90.5887" y1="475.615" x2="90.5887" y2="448.94" gradientUnits="userSpaceOnUse">
<stop stop-color="#FFE9EA"/>
<stop offset="0.99" stop-color="#7E459F"/>
</linearGradient>
<linearGradient id="paint76_linear_332_759" x1="157.931" y1="295.583" x2="157.931" y2="279.153" gradientUnits="userSpaceOnUse">
<stop stop-color="#FFE9EA"/>
<stop offset="0.99" stop-color="#7E459F"/>
</linearGradient>
<linearGradient id="paint77_linear_332_759" x1="96.5923" y1="280.14" x2="96.5923" y2="266.309" gradientUnits="userSpaceOnUse">
<stop stop-color="#FFE9EA"/>
<stop offset="0.99" stop-color="#7E459F"/>
</linearGradient>
<linearGradient id="paint78_linear_332_759" x1="214.143" y1="228.418" x2="214.143" y2="210.031" gradientUnits="userSpaceOnUse">
<stop stop-color="#FFE9EA"/>
<stop offset="0.99" stop-color="#7E459F"/>
</linearGradient>
<linearGradient id="paint79_linear_332_759" x1="172.871" y1="160.908" x2="172.871" y2="140.581" gradientUnits="userSpaceOnUse">
<stop stop-color="#FFE9EA"/>
<stop offset="0.99" stop-color="#7E459F"/>
</linearGradient>
<linearGradient id="paint80_linear_332_759" x1="155.407" y1="166.121" x2="155.407" y2="131.454" gradientUnits="userSpaceOnUse">
<stop stop-color="#FFE9EA"/>
<stop offset="0.99" stop-color="#7E459F"/>
</linearGradient>
<linearGradient id="paint81_linear_332_759" x1="115.978" y1="176.597" x2="115.978" y2="152.06" gradientUnits="userSpaceOnUse">
<stop stop-color="#FFE9EA"/>
<stop offset="0.99" stop-color="#7E459F"/>
</linearGradient>
<linearGradient id="paint82_linear_332_759" x1="178.32" y1="254.55" x2="178.32" y2="238.845" gradientUnits="userSpaceOnUse">
<stop stop-color="#FFE9EA"/>
<stop offset="0.99" stop-color="#7E459F"/>
</linearGradient>
<linearGradient id="paint83_linear_332_759" x1="205.366" y1="569.734" x2="192.059" y2="569.734" gradientUnits="userSpaceOnUse">
<stop stop-color="#FFE9EA"/>
<stop offset="0.99" stop-color="#7E459F"/>
</linearGradient>
<linearGradient id="paint84_linear_332_759" x1="120.827" y1="566.281" x2="106.597" y2="566.281" gradientUnits="userSpaceOnUse">
<stop stop-color="#FFE9EA"/>
<stop offset="0.99" stop-color="#7E459F"/>
</linearGradient>
<linearGradient id="paint85_linear_332_759" x1="102.641" y1="565.294" x2="94.2807" y2="565.294" gradientUnits="userSpaceOnUse">
<stop stop-color="#FFE9EA"/>
<stop offset="0.99" stop-color="#7E459F"/>
</linearGradient>
<linearGradient id="paint86_linear_332_759" x1="128.429" y1="268.414" x2="128.429" y2="250.801" gradientUnits="userSpaceOnUse">
<stop stop-color="#8E47B8"/>
<stop offset="1" stop-color="white"/>
</linearGradient>
<linearGradient id="paint87_linear_332_759" x1="147.539" y1="328.408" x2="85.3923" y2="328.408" gradientUnits="userSpaceOnUse">
<stop stop-color="white"/>
<stop offset="0.48" stop-color="#8E47B8"/>
<stop offset="1" stop-color="white"/>
</linearGradient>
<linearGradient id="paint88_linear_332_759" x1="190.808" y1="561.659" x2="190.808" y2="439.73" gradientUnits="userSpaceOnUse">
<stop stop-color="#FFE9EA"/>
<stop offset="0.99" stop-color="#7E459F"/>
</linearGradient>
<linearGradient id="paint89_linear_332_759" x1="105.867" y1="555.443" x2="105.867" y2="443.431" gradientUnits="userSpaceOnUse">
<stop stop-color="#FFE9EA"/>
<stop offset="0.99" stop-color="#7E459F"/>
</linearGradient>
<linearGradient id="paint90_linear_332_759" x1="113.065" y1="337.602" x2="113.065" y2="265.586" gradientUnits="userSpaceOnUse">
<stop stop-color="#8E47B8"/>
<stop offset="1" stop-color="white"/>
</linearGradient>
<linearGradient id="paint91_linear_332_759" x1="181.773" y1="201.907" x2="104.754" y2="201.907" gradientUnits="userSpaceOnUse">
<stop stop-color="#7E459F"/>
<stop offset="1" stop-color="#FFE9EA"/>
</linearGradient>
<linearGradient id="paint92_linear_332_759" x1="133.867" y1="222.728" x2="70.3683" y2="222.728" gradientUnits="userSpaceOnUse">
<stop/>
<stop offset="1" stop-color="#4C5689"/>
</linearGradient>
<linearGradient id="paint93_linear_332_759" x1="125.282" y1="164.428" x2="108.579" y2="164.428" gradientUnits="userSpaceOnUse">
<stop stop-color="#7E459F"/>
<stop offset="1" stop-color="#FFE9EA"/>
</linearGradient>
<linearGradient id="paint94_linear_332_759" x1="182.136" y1="236.328" x2="182.136" y2="184.031" gradientUnits="userSpaceOnUse">
<stop stop-color="#7E459F"/>
<stop offset="1" stop-color="#FFE9EA"/>
</linearGradient>
<linearGradient id="paint95_linear_332_759" x1="193.425" y1="241.015" x2="193.425" y2="202.351" gradientUnits="userSpaceOnUse">
<stop stop-color="#7E459F"/>
<stop offset="1" stop-color="#FFE9EA"/>
</linearGradient>
<linearGradient id="paint96_linear_332_759" x1="193.658" y1="259.599" x2="193.658" y2="236.279" gradientUnits="userSpaceOnUse">
<stop stop-color="#FFE9EA"/>
<stop offset="0.99" stop-color="#7E459F"/>
</linearGradient>
<linearGradient id="paint97_linear_332_759" x1="251.766" y1="344.229" x2="233.513" y2="344.229" gradientUnits="userSpaceOnUse">
<stop stop-color="#DE5777"/>
<stop offset="1" stop-color="#FFE9EA"/>
</linearGradient>
<linearGradient id="paint98_linear_332_759" x1="233.923" y1="322.06" x2="233.923" y2="300.368" gradientUnits="userSpaceOnUse">
<stop stop-color="#FFE9EA"/>
<stop offset="0.99" stop-color="#7E459F"/>
</linearGradient>
<linearGradient id="paint99_linear_332_759" x1="208.663" y1="304.907" x2="208.663" y2="276.604" gradientUnits="userSpaceOnUse">
<stop stop-color="#FFE9EA"/>
<stop offset="0.99" stop-color="#7E459F"/>
</linearGradient>
<linearGradient id="paint100_linear_332_759" x1="166.701" y1="180.791" x2="111.76" y2="180.791" gradientUnits="userSpaceOnUse">
<stop stop-color="#5BABF1"/>
<stop offset="1" stop-color="#90B6FF"/>
</linearGradient>
<linearGradient id="paint101_linear_332_759" x1="168.268" y1="176.597" x2="161.063" y2="176.597" gradientUnits="userSpaceOnUse">
<stop stop-color="#5BABF1"/>
<stop offset="1" stop-color="#90B6FF"/>
</linearGradient>
<linearGradient id="paint102_linear_332_759" x1="133.591" y1="265.77" x2="115.998" y2="256.81" gradientUnits="userSpaceOnUse">
<stop stop-color="#8E47B8"/>
<stop offset="1" stop-color="white"/>
</linearGradient>
<linearGradient id="paint103_linear_332_759" x1="128.664" y1="259.642" x2="126.849" y2="263.223" gradientUnits="userSpaceOnUse">
<stop stop-color="#331457"/>
<stop offset="0.48" stop-color="#1D0741"/>
<stop offset="0.98" stop-color="#4A2589"/>
</linearGradient>
<linearGradient id="paint104_linear_332_759" x1="128.109" y1="260.447" x2="125.632" y2="265.335" gradientUnits="userSpaceOnUse">
<stop stop-color="#8E47B8"/>
<stop offset="1" stop-color="white"/>
</linearGradient>
<linearGradient id="paint105_linear_332_759" x1="119.407" y1="267.329" x2="119.407" y2="325.448" gradientUnits="userSpaceOnUse">
<stop stop-color="#8E47B8"/>
<stop offset="1" stop-color="white"/>
</linearGradient>
<linearGradient id="paint106_linear_332_759" x1="187.008" y1="461.669" x2="171.64" y2="461.669" gradientUnits="userSpaceOnUse">
<stop stop-color="#8E47B8"/>
<stop offset="1" stop-color="white"/>
</linearGradient>
<linearGradient id="paint107_linear_332_759" x1="109.098" y1="464.136" x2="89.1136" y2="464.136" gradientUnits="userSpaceOnUse">
<stop stop-color="#8E47B8"/>
<stop offset="1" stop-color="white"/>
</linearGradient>
<linearGradient id="paint108_linear_332_759" x1="174.992" y1="293.28" x2="145.18" y2="293.28" gradientUnits="userSpaceOnUse">
<stop stop-color="#8E47B8"/>
<stop offset="1" stop-color="white"/>
</linearGradient>
<linearGradient id="paint109_linear_332_759" x1="85.0158" y1="214.702" x2="180.009" y2="214.702" gradientUnits="userSpaceOnUse">
<stop stop-color="#FFE9EA"/>
<stop offset="0.99" stop-color="#7E459F"/>
</linearGradient>
<linearGradient id="paint110_linear_332_759" x1="133.875" y1="170.825" x2="121.294" y2="170.825" gradientUnits="userSpaceOnUse">
<stop stop-color="#FFE9EA"/>
<stop offset="0.99" stop-color="#7E459F"/>
</linearGradient>
<linearGradient id="paint111_linear_332_759" x1="291.999" y1="348.949" x2="257.735" y2="348.949" gradientUnits="userSpaceOnUse">
<stop stop-color="#DE5777"/>
<stop offset="1" stop-color="#FFE9EA"/>
</linearGradient>
</defs>
</svg>
