<svg width="354" height="786" viewBox="0 0 354 786" fill="none" xmlns="http://www.w3.org/2000/svg">
<path d="M302.421 264.016C300.721 268.964 264.26 307.424 254.979 309.757C245.699 312.091 204.478 272.973 204.478 272.973C204.478 272.973 193.778 248.357 201.178 224.938C208.598 201.519 218.739 213.049 218.739 213.049C218.739 213.049 237.859 236.827 243.619 240.857C244.459 241.455 245.019 241.615 245.179 241.236C246.239 238.802 248.479 233.476 249.339 233.755C250.199 234.034 256.139 241.236 256.139 241.236C256.139 241.236 268.22 236.707 276.56 228.249C278.1 226.693 279.52 225.018 280.7 223.202C280.7 223.202 297.48 218.375 302.361 236.009L299.44 240.478C299.44 240.478 304.081 259.069 302.381 264.016H302.421Z" fill="url(#paint0_linear_332_1180)"/>
<path d="M326.855 167.886C325.215 168.505 292.595 185.8 285.494 196.492C285.494 196.492 287.674 216.001 284.234 225.616C284.234 225.616 293.055 233.336 297.195 232.578L299.375 227.771C299.375 227.771 311.835 223.043 331.855 216.899L326.875 167.886H326.855Z" fill="url(#paint1_linear_332_1180)"/>
<g style="mix-blend-mode:multiply" opacity="0.58">
<path d="M303.581 216.041C298.561 220.988 291.461 223.462 291.461 223.462L299.381 227.771L334.182 216.041H303.601H303.581Z" fill="#BF4F9F"/>
</g>
<path d="M343.56 144.867C343.56 144.867 341.3 178.479 345.94 211.693C345.94 211.693 321.559 222.664 305.679 219.353C305.679 219.353 285.858 177.701 280.078 159.09C280.078 159.09 305.999 140.099 343.56 144.867Z" fill="url(#paint2_radial_332_1180)"/>
<path fill-rule="evenodd" clip-rule="evenodd" d="M339.983 170.779C339.983 170.779 342.463 197.529 341.943 211.772C341.943 211.772 327.403 209.319 309.462 216.899L290.422 175.048C290.422 175.048 296.662 164.296 319.123 166.251C341.583 168.206 339.983 170.799 339.983 170.799V170.779Z" fill="url(#paint3_linear_332_1180)"/>
<path fill-rule="evenodd" clip-rule="evenodd" d="M339.971 170.779C316.35 187.775 290.43 175.028 290.43 175.028C290.43 175.028 295.89 166.989 309.07 166.37C334.771 165.133 339.971 170.779 339.971 170.779Z" fill="url(#paint4_linear_332_1180)"/>
<path d="M310.993 64.3157L323.813 60.745L325.913 98.1877L320.973 102.875L308.053 90.8468L315.553 173.572L310.193 172.754L300.133 77.9403L303.073 76.3644L318.613 93.2006L317.393 86.1789L310.993 64.3157Z" fill="url(#paint5_linear_332_1180)"/>
<path d="M273.297 149.654C318.838 128.828 345.739 135.032 345.739 135.032C341.958 130.803 338.098 127.571 334.418 125.058C333.958 124.738 333.478 124.439 333.018 124.14C321.138 116.6 311.278 116.739 311.278 116.739C311.278 116.739 296.057 121.148 295.897 121.247C289.057 125.596 284.117 130.882 280.637 135.71C275.197 143.23 273.317 149.654 273.317 149.654H273.297Z" fill="url(#paint6_linear_332_1180)"/>
<path style="mix-blend-mode:multiply" opacity="0.5" d="M273.297 149.654C318.838 128.828 345.739 135.032 345.739 135.032C341.958 130.803 338.098 127.571 334.418 125.058C336.238 126.693 338.978 131.122 318.318 133.955C290.357 137.785 281.117 138.543 280.617 135.71C275.177 143.231 273.297 149.654 273.297 149.654Z" fill="url(#paint7_linear_332_1180)"/>
<path d="M353.078 136.289C352.638 137.106 350.498 146.682 349.818 147.041C349.138 147.4 343.197 152.965 343.197 152.965L343.437 147.14C343.437 147.14 319.217 139.859 280.476 160.306L281.676 163.797L270.936 163.558L265.016 155.199C265.016 155.199 282.096 141.415 309.977 135.81C334.997 130.783 353.078 136.289 353.078 136.289Z" fill="url(#paint8_linear_332_1180)"/>
<g style="mix-blend-mode:soft-light" opacity="0.5">
<path fill-rule="evenodd" clip-rule="evenodd" d="M315.336 150.073C315.336 150.073 325.016 148.297 335.196 151.429C335.196 151.429 338.956 197.729 338.896 207.025L328.336 207.882C328.336 207.882 320.916 175.487 315.336 150.073Z" fill="#FFD6BD"/>
</g>
<path style="mix-blend-mode:multiply" opacity="0.5" d="M349.816 147.041C349.816 147.041 331.735 139.72 303.695 145.126C285.734 148.597 270.914 163.538 270.914 163.538L281.654 163.777C281.654 163.777 293.615 149.554 318.335 148.557C340.016 147.679 343.096 155.738 343.096 155.738L343.176 152.945L349.796 147.021L349.816 147.041Z" fill="url(#paint9_linear_332_1180)"/>
<path d="M311.252 116.739C311.252 116.739 305.612 117.039 295.852 121.248L311.252 116.739Z" fill="#FFEAEA"/>
<g style="mix-blend-mode:multiply" opacity="0.4">
<path d="M342.684 159.648C342.684 159.648 333.604 176.664 331.344 211.553C331.344 211.553 319.804 212.431 313.024 214.605C307.723 216.301 304.703 218.954 305.683 219.353C310.023 221.128 328.764 219.253 345.944 211.693L342.684 159.648Z" fill="#900477"/>
</g>
<g style="mix-blend-mode:soft-light" opacity="0.5">
<path fill-rule="evenodd" clip-rule="evenodd" d="M300.143 188.513C300.143 188.513 297.023 189.311 295.883 192.403L305.483 214.605C305.483 214.605 310.343 213.508 311.283 211.852L300.143 188.513Z" fill="#FFD6BD"/>
</g>
<path fill-rule="evenodd" clip-rule="evenodd" d="M327.119 123.582C323.499 119.373 318.039 121.248 318.039 121.248C318.039 121.248 318.039 122.544 322.079 123.582C326.119 124.619 327.099 123.582 327.099 123.582H327.119Z" fill="white"/>
<path fill-rule="evenodd" clip-rule="evenodd" d="M330.193 136.309C334.713 139.68 338.133 135.112 338.133 135.112C338.133 135.112 327.193 134.075 330.193 136.309Z" fill="white"/>
<path d="M343.077 159.688C343.237 159.388 346.477 160.446 346.757 163.059C347.057 165.652 343.977 169.183 343.137 169.183C342.297 169.183 342.177 161.343 343.077 159.708V159.688Z" fill="url(#paint10_linear_332_1180)"/>
<path d="M342.992 172.415C340.752 180.095 343.072 195.455 344.032 196.173C344.992 196.891 349.692 196.173 350.472 195.375C351.252 194.557 349.492 187.356 348.992 186.618C348.492 185.88 346.732 185.421 346.732 185.421C346.732 185.421 350.772 185.281 351.232 183.326C351.692 181.371 348.252 172.993 346.632 172.455C345.032 171.916 342.992 172.415 342.992 172.415Z" fill="url(#paint11_linear_332_1180)"/>
<path d="M344.575 200.103C342.815 204.212 344.775 207.384 345.415 207.643C346.035 207.903 349.855 206.765 350.655 206.287C351.455 205.808 351.135 200.183 349.535 199.544C347.935 198.906 344.375 198.327 344.375 198.327L344.575 200.083V200.103Z" fill="url(#paint12_linear_332_1180)"/>
<path d="M291.051 218.056C288.031 217.836 283.731 209.418 283.091 208.261C282.971 208.062 282.831 207.244 282.651 205.987C281.811 200.242 280.57 185.341 281.331 179.616C281.411 179.077 288.071 154.162 288.871 154.022C290.591 153.683 294.191 156.735 293.751 167.886C293.691 169.522 293.251 170.958 292.631 172.255C291.071 175.526 288.391 177.78 287.871 179.636C287.151 182.229 290.831 191.465 290.831 191.465C290.831 191.465 295.151 192.662 298.111 204.232C301.071 215.822 294.091 218.295 291.071 218.056H291.051Z" fill="url(#paint13_linear_332_1180)"/>
<path style="mix-blend-mode:multiply" opacity="0.3" d="M292.631 172.235C292.631 172.235 285.951 181.032 281.331 179.616C280.57 185.361 281.811 200.242 282.651 205.987C285.211 192.841 290.831 191.445 290.831 191.445L292.631 172.235Z" fill="url(#paint14_linear_332_1180)"/>
<g style="mix-blend-mode:multiply" opacity="0.58">
<path d="M290.82 191.445C290.82 191.445 303.001 206.685 301.241 218.056L303.581 216.041L292.24 189.809L290.82 191.445Z" fill="#BF4F9F"/>
</g>
<g style="mix-blend-mode:multiply" opacity="0.58">
<path d="M292.633 157.254C301.853 168.924 289.953 176.663 289.953 176.663C289.953 176.663 292.633 171.577 292.633 164.415V157.254Z" fill="#BF4F9F"/>
</g>
<path style="mix-blend-mode:multiply" opacity="0.5" d="M302.405 236.029C287.065 233.994 280.484 229.965 280.484 229.965C280.484 229.965 286.505 240.258 299.485 240.497L302.385 236.029H302.405Z" fill="url(#paint15_linear_332_1180)"/>
<path style="mix-blend-mode:multiply" opacity="0.5" d="M249.377 233.775C251.077 251.27 257.477 263.837 257.477 263.837C257.477 263.837 242.977 246.243 244.837 242.074C246.697 237.884 249.377 233.775 249.377 233.775Z" fill="url(#paint16_linear_332_1180)"/>
<path style="mix-blend-mode:multiply" d="M302.436 264.016C300.736 268.964 264.275 307.424 254.995 309.757C245.715 312.091 204.494 272.973 204.494 272.973C204.494 272.973 193.794 248.357 201.194 224.938C208.614 201.519 218.754 213.049 218.754 213.049C218.754 213.049 237.875 236.827 243.635 240.857C240.535 259.947 253.655 287.296 257.395 287.555C261.175 287.834 291.476 275.626 302.416 263.996L302.436 264.016Z" fill="url(#paint17_radial_332_1180)"/>
<g style="mix-blend-mode:multiply" opacity="0.8">
<path d="M281.337 223.861C282.057 232.08 306.058 238.782 298.278 230.184C298.278 230.184 288.937 229.965 284.237 225.616L284.957 223.143C284.957 223.143 281.257 223.023 281.337 223.881V223.861Z" fill="#DE7881"/>
</g>
<g style="mix-blend-mode:multiply" opacity="0.58">
<path d="M346.634 172.474C346.634 172.474 342.394 174.29 342.234 176.664C342.234 176.664 342.574 173.472 342.994 172.435C342.994 172.435 345.014 171.876 346.634 172.474Z" fill="#BF4F9F"/>
</g>
<g style="mix-blend-mode:multiply" opacity="0.58">
<path d="M342.125 184.204C343.265 185.421 346.725 185.441 346.725 185.441C346.725 185.441 348.605 185.66 348.985 186.638C348.985 186.638 342.585 186.677 342.465 188.533L342.125 184.204Z" fill="#BF4F9F"/>
</g>
<g style="mix-blend-mode:multiply" opacity="0.58">
<path d="M348.635 199.803C344.955 199.504 344.435 200.442 344.435 200.442L344.375 198.347L349.535 199.564L348.635 199.823V199.803Z" fill="#BF4F9F"/>
</g>
<path d="M140.125 312.091C158.845 311.493 241.987 298.128 268.828 276.664C268.828 276.664 237.287 262.261 191.126 279.117C155.645 292.064 140.125 312.111 140.125 312.111V312.091Z" fill="url(#paint18_linear_332_1180)"/>
<path d="M220.699 313.887C220.699 313.887 191.158 322.065 176.878 314.844C176.878 314.844 175.998 310.436 174.338 304.212C172.178 296.133 168.758 285.062 164.258 276.663L216.619 257.354C216.619 257.354 218.159 270.4 219.359 284.862C220.219 295.255 220.899 306.366 220.699 313.887Z" fill="url(#paint19_linear_332_1180)"/>
<g style="mix-blend-mode:multiply" opacity="0.8">
<path d="M219.363 284.862C215.802 280.673 188.502 283.087 174.361 304.212C172.201 296.133 168.781 285.062 164.281 276.663L216.642 257.354C216.642 257.354 218.182 270.4 219.383 284.862H219.363Z" fill="#DE7881"/>
</g>
<path d="M268.823 276.664C268.823 276.664 233.722 274.848 203.741 279.097C173.761 283.366 140.12 312.092 140.12 312.092C132.02 286.957 97.2188 250.691 97.2188 250.691C97.2188 250.691 112.679 204.83 114.239 200.781C115.199 198.347 123.999 188.174 132.3 179.656C133.5 178.419 134.24 171.617 135.32 170.52C136.28 169.542 141.12 171.158 141.92 170.32C144.26 167.886 144.02 168.605 144.16 168.245C144.84 166.67 143.08 160.346 144.16 159.448C157.2 148.636 182.161 163.079 182.161 163.079C182.161 163.079 185.121 172.056 186.781 172.135C188.441 172.215 216.601 187.316 218.402 191.804C220.202 196.293 222.442 216.041 222.442 216.041C225.502 219.612 230.122 224.559 233.062 228.489C244.042 243.171 251.542 260.625 253.722 265.912C254.022 266.63 268.803 276.664 268.803 276.664H268.823Z" fill="url(#paint20_linear_332_1180)"/>
<path style="mix-blend-mode:multiply" opacity="0.8" d="M253.755 265.911C253.755 265.911 241.694 251.768 238.054 253.843C217.034 265.911 171.753 284.483 151.792 303.154L140.112 312.091C132.012 286.957 97.2109 250.691 97.2109 250.691C97.2109 250.691 112.671 204.83 114.231 200.781C142.412 229.685 151.092 241.016 166.673 242.532C182.233 244.028 225.934 231.201 228.774 228.01C230.014 226.613 223.114 217.956 222.474 216.041C242.954 236.687 253.755 265.911 253.755 265.911Z" fill="url(#paint21_linear_332_1180)"/>
<path d="M164.063 159.448C151.463 157.872 145.683 160.226 145.743 160.984C145.823 161.742 163.383 178.638 172.823 181.331C182.263 184.024 184.224 172.355 180.163 166.669C176.123 160.984 172.103 160.465 164.063 159.448Z" fill="url(#paint22_linear_332_1180)"/>
<path d="M148.36 22.1851C152.08 5.96728 141.26 -3.90706 123.499 1.47894C123.499 1.47894 131.619 0.581278 133.079 3.27428C133.079 3.27428 116.159 3.71314 110.279 15.4028C104.399 27.0724 124.539 33.8548 124.539 33.8548L148.38 22.1851H148.36Z" fill="url(#paint23_linear_332_1180)"/>
<g style="mix-blend-mode:soft-light" opacity="0.8">
<path d="M125.479 4.49109C143.3 5.9872 135.839 20.3499 135.839 20.3499L125.739 24.9379C125.739 24.9379 136.059 15.303 133.959 10.3758C130.299 1.75819 120.539 6.22658 120.539 6.22658L125.459 4.51104L125.479 4.49109Z" fill="#FFBAEF"/>
</g>
<path style="mix-blend-mode:multiply" d="M133.085 3.27417C144.625 8.68012 141.425 15.3627 135.145 20.9283C135.145 20.9283 139.105 15.0236 136.945 9.57779C134.765 4.13194 125.484 4.49101 125.484 4.49101L133.085 3.27417Z" fill="url(#paint24_linear_332_1180)"/>
<path d="M109.521 69.7216C94.2208 106.566 69.7202 82.9073 69.0202 105.03C68.7002 115.283 85.2206 131.661 85.2206 131.661C85.2206 131.661 72.9003 108.561 79.5605 99.3645C85.1206 91.7044 98.8809 91.1459 106.821 83.3262C108.461 81.7104 109.521 69.7216 109.521 69.7216Z" fill="url(#paint25_linear_332_1180)"/>
<path d="M248.426 114.306C248.126 113.109 232.545 92.0834 226.525 85.8995C215.145 74.2099 211.485 61.9218 211.245 61.084C211.385 61.9817 213.845 76.4042 219.605 85.8995C228.305 100.242 242.425 100.541 234.905 126.035C231.005 139.281 217.465 145.225 216.905 144.527C215.265 142.433 217.065 133.675 217.065 133.675C217.065 133.675 216.645 134.673 216.025 136.129C214.385 139.979 211.285 147.08 210.465 147.799C205.785 152.048 195.744 152.686 192.304 152.686C189.664 152.686 185.124 148.976 183.864 145.106C183.864 145.106 182.424 148.936 183.864 152.048C186.144 156.975 154.883 150.372 137.403 156.177C135.963 156.656 125.803 150.212 119.563 140.378C115.903 134.613 113.843 131.082 112.702 129.446C111.902 128.349 111.282 128.07 111.362 128.608C112.202 135.012 114.183 143.171 123.103 153.943C123.303 154.202 122.943 154.401 122.203 154.581C119.643 155.14 112.662 155.02 109.522 153.663C106.022 152.127 92.202 144.906 88.8219 131.661C88.8219 131.661 87.9219 140.637 87.0219 137.645C86.1219 134.653 71.7215 117.298 85.5219 101.439C92.162 93.8189 97.4821 88.4728 101.442 83.8847C105.742 78.9376 108.442 74.8482 109.542 69.7215C111.342 61.2835 103.302 56.9946 104.102 49.0154C104.242 47.6589 104.622 46.2027 105.362 44.5869C107.262 40.4576 111.282 36.0291 116.143 31.9397C119.123 29.4263 122.423 27.0325 125.743 24.9379C131.543 21.2475 137.383 18.4149 141.703 17.218C159.404 12.3108 169.244 12.0514 175.124 13.2284C179.984 14.2058 182.124 16.1408 183.744 17.238C185.524 18.4349 187.544 19.5719 189.704 20.669C203.305 27.5911 222.245 33.017 216.465 41.9338C213.425 46.6216 213.305 55.9773 213.305 58.6703C213.305 61.3633 213.725 75.4267 229.205 84.5231C253.286 98.6663 248.706 115.522 248.406 114.326L248.426 114.306Z" fill="url(#paint26_linear_332_1180)"/>
<path style="mix-blend-mode:multiply" fill-rule="evenodd" clip-rule="evenodd" d="M217.039 35.9294C209.758 53.783 211.418 62.0416 211.418 62.0416C211.418 62.0416 213.258 71.896 215.619 77.3817C215.619 77.3817 208.698 77.8006 205.798 59.5082C202.898 41.2157 217.039 35.9294 217.039 35.9294Z" fill="url(#paint27_linear_332_1180)"/>
<path style="mix-blend-mode:multiply" d="M145.981 35.9294C145.981 35.9294 146.321 33.0169 138.641 31.5607C130.981 30.1045 117.181 32.239 116.141 31.9198C119.121 29.4063 122.421 27.0125 125.741 24.918C127.241 32.5182 137.861 29.9449 146.881 31.2416C155.902 32.5182 159.262 23.7012 154.762 19.6118C150.461 15.7019 135.801 19.8113 134.521 20.1703C162.062 10.4755 163.342 23.6812 168.802 24.5589C171.962 25.0576 177.162 19.9509 175.122 13.1885C179.982 14.1659 182.122 16.1009 183.742 17.1981C185.522 18.3949 187.542 19.532 189.702 20.6291L192.762 25.5563L145.961 35.9094L145.981 35.9294Z" fill="url(#paint28_linear_332_1180)"/>
<path style="mix-blend-mode:multiply" d="M201.257 57.3737C208.078 83.406 221.118 96.2725 227.878 106.566C234.638 116.859 226.458 135.929 217.038 143.55C217.038 143.55 227.098 133.536 223.718 123.821C220.338 114.106 205.957 99.2249 201.237 87.1363C196.537 75.0477 201.237 57.3737 201.237 57.3737H201.257Z" fill="url(#paint29_linear_332_1180)"/>
<g style="mix-blend-mode:soft-light" opacity="0.8">
<path d="M222.499 137.645C237.319 121.327 239.519 110.097 234.739 103.992C229.979 97.8883 216.619 90.6671 210.398 80.7927C210.398 80.7927 220.159 94.9559 227.859 106.566C235.559 118.156 222.499 137.645 222.499 137.645Z" fill="#FFBAEF"/>
</g>
<path style="mix-blend-mode:multiply" d="M109.515 122.185C109.815 124.838 111.855 142.871 123.095 153.943C123.335 154.162 122.935 154.402 122.195 154.581L120.975 153.723C120.975 153.723 102.555 148.517 97.2148 126.853C94.7147 116.7 101.715 99.0454 104.555 95.1356C104.555 95.1356 101.135 95.6542 93.7747 110.496C88.1745 121.826 87.6945 136.348 87.5945 135.551C84.8945 113.109 102.895 85.1016 108.195 79.2169C112.995 73.8908 106.395 80.354 101.395 83.8848C105.695 78.9377 108.395 74.8483 109.495 69.7216C111.295 61.2836 103.255 56.9947 104.055 49.0154C107.675 60.2263 137.836 32.8973 137.836 32.8973L133.976 92.2431C133.976 92.2431 106.095 92.2431 109.475 122.185H109.515Z" fill="url(#paint30_linear_332_1180)"/>
<path style="mix-blend-mode:multiply" d="M216.016 136.149C214.376 139.999 211.276 147.1 210.456 147.819C205.775 152.068 195.735 152.706 192.295 152.706C189.655 152.706 185.115 148.996 183.855 145.126C183.855 145.126 182.415 148.956 183.855 152.068C186.135 156.995 154.874 150.392 137.394 156.197C119.673 108.601 132.494 63.1786 143.094 51.1698C153.694 39.181 198.855 77.2221 211.036 101.459C218.096 115.523 217.636 128.09 216.016 136.149Z" fill="url(#paint31_linear_332_1180)"/>
<path fill-rule="evenodd" clip-rule="evenodd" d="M167 132.059C167 132.059 169.44 158.092 178.96 171.258C178.96 171.258 181.4 181.132 172.98 180.533C164.56 179.935 154.019 168.505 153.719 166.41C153.419 164.316 148.859 120.091 148.859 120.091L167 132.04V132.059Z" fill="url(#paint32_linear_332_1180)"/>
<g style="mix-blend-mode:multiply" opacity="0.8">
<path fill-rule="evenodd" clip-rule="evenodd" d="M150.384 134.952C164.424 160.984 170.064 149.574 170.064 149.574C170.064 149.574 168.544 143.869 167.764 137.964L166.984 132.059L148.844 120.629L150.384 134.952Z" fill="#DE7881"/>
</g>
<g style="mix-blend-mode:multiply" opacity="0.5">
<path fill-rule="evenodd" clip-rule="evenodd" d="M119.9 150.332C98.1396 125.836 98.2396 111.094 103.9 96.1929C108 85.4209 120.9 83.9447 120.56 87.4556C120.22 90.9665 107.32 106.107 109.64 123.163C111.86 139.44 119.9 150.332 119.9 150.332Z" fill="#AE89C2"/>
</g>
<path d="M128.822 87.296C117.521 77.5413 107.801 79.3167 107.481 88.8918C107.181 98.4669 121.382 111.353 124.682 111.573C127.982 111.792 132.322 109.658 132.322 109.658L128.822 87.296Z" fill="url(#paint33_linear_332_1180)"/>
<path fill-rule="evenodd" clip-rule="evenodd" d="M211.225 105.19C211.225 113.787 202.145 125.198 194.285 132.638C194.285 132.638 194.245 132.678 194.225 132.698C189.985 136.728 186.124 139.58 184.224 140.199C183.844 140.318 183.444 140.438 183.024 140.518C183.024 140.518 182.984 140.518 182.944 140.518C182.744 140.558 182.524 140.597 182.324 140.637C178.084 141.236 172.164 139.899 164.004 136.408C161.584 135.391 158.984 134.174 156.164 132.758C145.944 127.651 137.923 117.597 134.383 112.61C134.143 112.271 134.023 112.092 134.023 112.092C132.963 110.576 132.403 109.638 132.403 109.638C127.463 98.6465 126.703 65.8917 133.223 45.6842C139.743 25.4767 163.144 20.9485 183.844 27.0127C195.405 30.4039 205.385 30.7231 208.045 41.914C210.145 50.751 205.865 65.6922 206.785 89.0116C206.925 92.323 211.305 93.8191 211.285 105.17L211.225 105.19Z" fill="url(#paint34_radial_332_1180)"/>
<path fill-rule="evenodd" clip-rule="evenodd" d="M131.503 70.9186C126.843 76.3046 126.363 129.726 140.083 152.726C140.083 152.726 125.943 147.38 124.743 125.916C123.543 104.451 126.763 89.1113 127.223 82.2891C127.683 75.4668 128.423 61.922 128.423 61.922L131.483 70.8987L131.503 70.9186Z" fill="url(#paint35_linear_332_1180)"/>
<path d="M130.497 71.6166C135.157 69.3824 143.437 49.9729 143.137 51.1697C142.837 52.3666 138.337 62.8394 139.237 62.8394C140.137 62.8394 146.737 59.4083 150.637 50.9503C150.637 50.9503 151.657 52.0475 162.038 50.9503C171.178 49.9729 175.838 46.9806 176.438 45.4845C177.038 43.9884 177.038 32.618 173.738 28.7281C173.738 28.7281 179.438 38.1835 178.838 46.083C178.538 49.9729 192.658 48.0778 196.118 43.1705C201.939 34.8721 196.378 26.3143 196.378 26.3143C196.378 26.3143 202.679 33.8548 203.139 44.2876C203.179 45.4446 207.319 48.1775 208.759 48.2972C208.759 48.2972 222.419 38.7819 219.039 26.6335C215.739 14.8043 205.539 11.6724 185.138 17.3576C185.138 17.3576 174.458 13.0887 170.898 24.1001C170.318 25.8555 159.858 20.4695 152.257 20.9283C143.017 21.4869 143.697 28.5086 142.837 27.6908C133.997 19.2128 124.857 39.0014 124.477 41.2356C121.117 61.4231 130.497 71.6365 130.497 71.6365V71.6166Z" fill="url(#paint36_linear_332_1180)"/>
<path style="mix-blend-mode:multiply" opacity="0.5" fill-rule="evenodd" clip-rule="evenodd" d="M129.241 101.379C129.241 101.379 125.901 87.6749 118.501 85.8596C111.101 84.0443 111.441 92.9013 112.281 93.7192C113.141 94.5171 114.981 90.0487 120.801 92.1632C126.621 94.2777 127.101 99.165 127.101 99.165C127.101 99.165 119.101 90.3479 117.161 96.0332C115.221 101.718 119.681 104.85 121.521 102.117C123.341 99.3844 129.021 104.691 129.021 104.691C129.021 104.691 127.421 101.26 129.221 101.399L129.241 101.379Z" fill="url(#paint37_linear_332_1180)"/>
<path style="mix-blend-mode:multiply" opacity="0.5" fill-rule="evenodd" clip-rule="evenodd" d="M129.242 101.379C122.582 92.9611 115.982 92.5023 117.082 97.4694C118.182 102.436 122.302 99.3046 124.942 100.521C127.562 101.738 129.042 104.671 129.042 104.671C129.042 104.671 128.482 102.835 128.522 102.097C128.562 101.359 129.242 101.399 129.242 101.399V101.379Z" fill="url(#paint38_linear_332_1180)"/>
<path style="mix-blend-mode:multiply" opacity="0.5" d="M172.08 61.4233C181.68 79.0774 174.32 99.8035 172.08 100.701C169.84 101.599 148.779 103.175 144.339 95.3152C139.899 87.4556 137.299 79.2968 145.239 71.8163C153.179 64.3357 167.8 53.5637 172.08 61.4233Z" fill="url(#paint39_linear_332_1180)"/>
<path style="mix-blend-mode:multiply" opacity="0.5" d="M195.928 60.5255C187.568 71.7164 191.888 96.891 193.448 98.3472C195.008 99.8034 206.088 95.7539 206.728 89.0314C207.368 82.3089 207.628 58.2913 206.728 55.8177C205.828 53.3442 198.648 56.875 195.928 60.5255Z" fill="url(#paint40_linear_332_1180)"/>
<path d="M141.703 76.3045C141.703 76.3045 148.843 63.1986 173.804 65.0937C173.804 65.0937 175.444 60.1465 173.424 53.8828C173.424 53.8828 173.424 57.9522 172.084 61.4432C172.084 61.4432 171.884 54.7805 171.044 54.4015C169.844 53.8828 148.863 52.8056 141.723 76.3045H141.703Z" fill="url(#paint41_linear_332_1180)"/>
<path d="M193.481 65.6921C193.481 65.6921 199.761 60.7449 207.781 60.1465C207.781 60.1465 210.061 55.1594 208.461 51.3094C208.461 51.3094 204.741 49.5141 199.101 54.9799C194.101 59.8472 193.461 65.6921 193.461 65.6921H193.481Z" fill="url(#paint42_linear_332_1180)"/>
<path style="mix-blend-mode:multiply" opacity="0.77" d="M146.805 91.6245C146.805 91.6245 148.205 96.5916 155.585 98.6463C162.505 100.581 168.345 98.1077 168.345 98.1077C168.345 98.1077 161.305 99.9828 155.925 97.988C150.545 95.9932 146.805 91.6245 146.805 91.6245Z" fill="url(#paint43_linear_332_1180)"/>
<path fill-rule="evenodd" clip-rule="evenodd" d="M145.762 89.111C145.682 91.046 149.802 96.7711 158.502 98.6463C164.583 99.9628 171.923 98.0079 172.463 94.4173C173.763 85.9792 171.663 75.666 164.063 75.267C155.262 74.8082 145.942 83.725 145.742 89.111H145.762Z" fill="url(#paint44_radial_332_1180)"/>
<path style="mix-blend-mode:multiply" opacity="0.77" d="M193.492 96.4722C193.492 96.4722 200.612 97.8685 203.752 92.2432C203.752 92.2432 201.332 97.3698 197.692 97.9882C194.052 98.6066 193.492 96.4722 193.492 96.4722Z" fill="url(#paint45_linear_332_1180)"/>
<path fill-rule="evenodd" clip-rule="evenodd" d="M192.842 80.793C189.502 86.0194 191.682 95.9536 193.482 96.4723C198.142 97.8287 204.182 94.8166 205.342 87.9943C207.482 75.2474 201.922 66.5899 192.862 80.813L192.842 80.793Z" fill="url(#paint46_radial_332_1180)"/>
<path d="M194.753 119.991C190.432 124.28 190.092 127.97 187.032 131.002C185.332 132.678 177.832 133.855 171.812 125.736C166.552 118.654 165.672 115.443 165.672 115.443C165.672 115.443 168.872 119.213 173.492 118.714C190.032 116.899 194.753 119.991 194.753 119.991Z" fill="#FF514C"/>
<path fill-rule="evenodd" clip-rule="evenodd" d="M167.629 117.517C167.629 117.517 175.09 126.694 182.47 126.833C189.85 126.973 192.67 119.831 192.67 119.831C192.67 119.831 186.75 117.458 179.07 118.455C171.389 119.452 167.609 117.517 167.609 117.517H167.629Z" fill="#6D023B"/>
<path d="M192.311 119.353C192.311 119.353 190.771 121.327 188.711 124.4C188.711 124.4 185.471 127.711 178.051 124.958C170.59 122.185 169.07 118.515 169.07 118.515C169.07 118.515 182.751 116.999 186.351 117.876C189.951 118.754 192.311 119.353 192.311 119.353Z" fill="#FFEAEA"/>
<path d="M165.672 115.443C165.672 115.443 167.492 118.016 170.532 118.335C172.272 118.515 180.232 115.902 185.632 116.62C190.952 117.318 193.873 118.435 194.813 118.794C195.753 119.153 198.473 116.979 198.473 116.979C198.473 116.979 194.353 120.789 193.313 120.629C191.852 120.41 187.932 119.373 173.392 119.612C168.412 119.692 165.672 115.463 165.672 115.463V115.443Z" fill="#CC134C"/>
<path style="mix-blend-mode:multiply" opacity="0.5" fill-rule="evenodd" clip-rule="evenodd" d="M167.908 116.979C164.188 116.6 166.328 111.832 165.848 112.112C165.348 112.411 161.968 113.269 162.988 116.72C162.988 116.72 164.788 115.084 166.648 116.72C168.508 118.355 167.908 116.979 167.908 116.979Z" fill="url(#paint47_linear_332_1180)"/>
<path d="M146.283 86.8171C146.283 86.8171 147.903 82.9871 150.783 80.5733C155.623 76.5239 163.184 73.5715 168.064 77.6808C170.964 80.1145 172.464 85.1016 172.464 85.1016C172.464 85.1016 172.224 72.8733 170.504 71.9557C167.644 70.4197 155.283 74.15 150.383 79.556C145.763 84.6428 146.283 86.8171 146.283 86.8171Z" fill="#7E1836"/>
<path d="M157.363 96.8513C162.599 96.8513 166.843 92.6179 166.843 87.3959C166.843 82.1738 162.599 77.9404 157.363 77.9404C152.127 77.9404 147.883 82.1738 147.883 87.3959C147.883 92.6179 152.127 96.8513 157.363 96.8513Z" fill="url(#paint48_linear_332_1180)"/>
<g style="mix-blend-mode:multiply" opacity="0.68">
<path d="M157.358 92.4826C160.175 92.4826 162.458 90.2052 162.458 87.3959C162.458 84.5865 160.175 82.3091 157.358 82.3091C154.541 82.3091 152.258 84.5865 152.258 87.3959C152.258 90.2052 154.541 92.4826 157.358 92.4826Z" fill="#A16595"/>
</g>
<path d="M165.766 88.8921C166.594 88.8921 167.266 88.2223 167.266 87.396C167.266 86.5697 166.594 85.8999 165.766 85.8999C164.937 85.8999 164.266 86.5697 164.266 87.396C164.266 88.2223 164.937 88.8921 165.766 88.8921Z" fill="white"/>
<mask id="mask0_332_1180" style="mask-type:luminance" maskUnits="userSpaceOnUse" x="191" y="73" width="15" height="24">
<path d="M192.834 80.7929C189.494 86.0193 191.674 95.9535 193.474 96.4721C198.134 97.8286 204.174 94.8164 205.334 87.9942C207.474 75.2473 201.914 66.5898 192.854 80.8128L192.834 80.7929Z" fill="white"/>
</mask>
<g mask="url(#mask0_332_1180)">
<path d="M200.333 85.76C199.833 90.8069 196.513 94.617 192.933 94.2579C189.353 93.8988 186.853 89.5102 187.353 84.4634C187.853 79.4165 191.173 75.6064 194.753 75.9654C198.333 76.3245 200.833 80.7131 200.333 85.76Z" fill="url(#paint49_linear_332_1180)"/>
<g style="mix-blend-mode:multiply" opacity="0.68">
<path d="M197.35 85.4606C197.07 88.1935 195.29 90.2282 193.35 90.0487C191.41 89.8492 190.069 87.4953 190.349 84.7624C190.629 82.0295 192.41 79.9948 194.35 80.1744C196.29 80.3539 197.63 82.7277 197.35 85.4606Z" fill="#A16595"/>
</g>
<path d="M201.378 85.7002C201.298 86.4981 200.778 87.0965 200.218 87.0367C199.658 86.9769 199.258 86.2986 199.338 85.5007C199.418 84.7028 199.938 84.1043 200.498 84.1642C201.058 84.224 201.458 84.9022 201.378 85.7002Z" fill="white"/>
</g>
<path d="M191.312 85.1215C191.312 85.1215 194.073 76.9627 203.693 74.6887C203.693 74.6887 206.553 79.576 205.793 84.4433C205.793 84.4433 208.013 77.2021 204.213 70.9185C204.213 70.9185 194.053 72.3348 191.332 85.1215H191.312Z" fill="#7E1836"/>
<path style="mix-blend-mode:multiply" opacity="0.3" d="M177.831 103.554C177.831 103.554 175.691 109.378 176.671 109.877C178.711 110.914 180.111 109.299 182.671 110.176C185.231 111.054 189.411 111.593 192.351 110.416C195.191 109.259 198.411 109.359 198.631 108.281C198.931 106.825 196.571 103.175 194.811 102.057C194.811 102.057 198.911 106.346 196.551 107.783C196.551 107.783 195.991 105.209 194.811 103.933C194.811 103.933 195.991 106.666 194.811 107.384C191.411 109.478 181.171 107.384 179.311 107.324C176.791 107.244 177.831 103.554 177.831 103.554Z" fill="url(#paint50_linear_332_1180)"/>
<path style="mix-blend-mode:multiply" opacity="0.5" d="M194.344 100.242C192.324 97.4297 191.844 93.3603 191.324 91.6248C188.564 82.2492 183.284 94.0186 180.664 99.0455C180.664 99.0455 183.644 98.3474 186.804 96.8512C190.424 95.1357 194.364 100.242 194.364 100.242H194.344Z" fill="url(#paint51_linear_332_1180)"/>
<path style="mix-blend-mode:multiply" opacity="0.69" d="M181.342 108.92C178.722 109.877 185.242 110.436 186.362 110.476C187.482 110.535 186.642 106.965 181.342 108.92Z" fill="url(#paint52_linear_332_1180)"/>
<path style="mix-blend-mode:multiply" opacity="0.69" d="M195.889 108.341C192.729 107.703 192.569 109.758 192.769 109.738C192.769 109.738 199.369 109.039 195.889 108.341Z" fill="url(#paint53_linear_332_1180)"/>
<g style="mix-blend-mode:multiply" opacity="0.5">
<path d="M176.924 110.436C181.484 115.064 187.584 115.463 191.324 114.385C195.064 113.308 198.604 108.261 198.604 108.261C198.604 108.261 196.824 107.304 193.464 107.902C187.504 108.999 179.424 107.404 178.384 107.064C176.904 106.566 177.644 103.992 177.644 103.992C177.644 103.992 175.544 109.039 176.904 110.416L176.924 110.436Z" fill="#E56595"/>
</g>
<path style="mix-blend-mode:multiply" d="M203.132 44.2877C217.912 24.8383 208.332 17.0585 197.592 16.9189C193.752 16.879 185.011 16.9987 186.812 18.3153C188.612 19.6318 196.032 23.5816 199.472 31.2616C202.912 38.9616 203.132 44.2678 203.132 44.2678V44.2877Z" fill="url(#paint54_linear_332_1180)"/>
<path style="mix-blend-mode:multiply" d="M194.055 27.0125C194.455 28.5286 194.895 31.4011 193.495 35.9294C190.935 44.2876 182.094 45.9633 180.194 45.4845C183.854 36.2286 184.894 18.9934 182.894 17.8164C180.354 16.3203 170.554 23.382 172.474 26.3143C173.454 27.8105 175.834 30.5234 177.494 36.9667C179.134 43.4099 178.834 46.1029 178.834 46.1029C179.054 47.8583 181.254 48.9156 187.314 47.7187C190.295 47.1402 193.475 43.9286 194.795 40.1185C196.455 35.2511 194.975 29.6058 194.035 27.0325L194.055 27.0125Z" fill="url(#paint55_linear_332_1180)"/>
<path style="mix-blend-mode:multiply" d="M150.625 50.9502C159.025 28.4287 149.285 20.7686 151.225 20.9282C153.165 21.0878 164.425 24.0202 165.025 33.8546C165.625 43.6891 150.625 50.9502 150.625 50.9502Z" fill="url(#paint56_linear_332_1180)"/>
<path style="mix-blend-mode:multiply" d="M143.591 25.5964C155.731 39.7995 139.051 62.2611 139.591 60.6653C140.131 59.0894 141.931 56.4163 143.131 51.17C144.331 45.9236 143.571 25.5964 143.571 25.5964H143.591Z" fill="url(#paint57_linear_332_1180)"/>
<g style="mix-blend-mode:soft-light" opacity="0.8">
<path d="M172.47 22.0653C165.13 16.3003 149.59 14.5848 137.93 18.5145C137.93 18.5145 153.23 13.4078 161.17 13.9464C169.11 14.485 172.47 22.0653 172.47 22.0653Z" fill="#FFBAEF"/>
</g>
<g style="mix-blend-mode:soft-light" opacity="0.8">
<path d="M87.0147 137.645C75.9944 114.825 79.0145 105.229 91.7948 95.1357C101.395 87.5554 107.475 79.8354 107.475 79.8354C107.475 79.8354 96.3549 96.5719 92.3748 106.566C86.1947 122.046 87.0147 137.645 87.0147 137.645Z" fill="#FFBAEF"/>
</g>
<g style="mix-blend-mode:soft-light" opacity="0.8">
<path d="M135.146 149.574C135.146 149.574 124.545 140.657 124.625 123.821C124.705 106.985 127.306 80.8525 127.306 80.8525C127.306 80.8525 126.565 105.668 129.126 123.821C131.706 141.974 135.126 149.574 135.126 149.574H135.146Z" fill="#FFBAEF"/>
</g>
<g style="mix-blend-mode:soft-light" opacity="0.8">
<path d="M155.297 22.0653C177.617 22.8832 176.597 33.0567 172.837 38.9015C169.077 44.7464 159.297 45.0057 159.297 45.0057C159.297 45.0057 166.997 40.1982 165.417 32.8972C163.837 25.5961 155.317 22.0853 155.317 22.0853L155.297 22.0653Z" fill="#FFBAEF"/>
</g>
<g style="mix-blend-mode:soft-light" opacity="0.8">
<path d="M200.281 14.6048C213.182 14.525 222.822 23.741 217.042 34.7125C213.142 42.1133 204.921 45.4646 203.741 44.2876C203.061 43.6094 213.642 34.134 210.701 24.9379C207.761 15.7219 200.281 14.6048 200.281 14.6048Z" fill="#FFBAEF"/>
</g>
<g style="mix-blend-mode:soft-light" opacity="0.8">
<path d="M135.141 27.6907C146.561 28.5883 147.861 45.0057 137.641 60.7448C137.641 60.7448 141.241 44.507 139.561 37.186C138.261 31.5407 135.141 27.6907 135.141 27.6907Z" fill="#FFBAEF"/>
</g>
<path style="mix-blend-mode:multiply" opacity="0.5" fill-rule="evenodd" clip-rule="evenodd" d="M182.889 140.537C182.769 140.557 182.549 140.597 182.269 140.657C176.789 141.435 168.489 138.962 156.109 132.798C145.888 127.691 137.868 117.637 134.328 112.65C136.328 115.403 146.388 128.289 162.469 134.473C178.169 140.537 182.129 140.617 182.889 140.537Z" fill="url(#paint58_linear_332_1180)"/>
<g style="mix-blend-mode:soft-light" opacity="0.6">
<path fill-rule="evenodd" clip-rule="evenodd" d="M169.082 110.496C167.822 113.588 176.803 115.124 175.883 110.496C174.963 105.868 170.722 106.486 169.082 110.496Z" fill="#FFC7AC"/>
</g>
<g style="mix-blend-mode:soft-light" opacity="0.6">
<path fill-rule="evenodd" clip-rule="evenodd" d="M180.182 102.536C182.362 106.925 194.362 109.059 194.362 104.651C194.362 100.242 191.942 96.3724 187.282 97.4297C182.602 98.4869 179.082 100.262 180.202 102.536H180.182Z" fill="#FFC7AC"/>
</g>
<g style="mix-blend-mode:soft-light" opacity="0.6">
<path fill-rule="evenodd" clip-rule="evenodd" d="M196.885 112.63C196.785 117.258 199.825 114.445 199.165 112.111C198.505 109.777 196.945 109.758 196.885 112.63Z" fill="#FFC7AC"/>
</g>
<g style="mix-blend-mode:soft-light" opacity="0.6">
<path fill-rule="evenodd" clip-rule="evenodd" d="M179.956 133.376C173.276 134.972 180.356 139.281 184.316 137.645C188.276 136.009 188.056 131.441 179.956 133.376Z" fill="#FFC7AC"/>
</g>
<path style="mix-blend-mode:multiply" opacity="0.88" fill-rule="evenodd" clip-rule="evenodd" d="M194.221 132.678C189.981 136.707 186.121 139.56 184.22 140.178C183.84 140.298 183.44 140.418 183.02 140.497C183.02 140.497 182.98 140.497 182.94 140.497C182.74 140.537 182.52 140.577 182.32 140.617C178.08 141.216 172.16 139.879 164 136.388V136.308C164 136.308 178.34 140.318 184.46 138.363C189.661 136.707 192.681 133.954 194.281 132.658L194.221 132.678Z" fill="url(#paint59_linear_332_1180)"/>
<g style="mix-blend-mode:multiply" opacity="0.5">
<path fill-rule="evenodd" clip-rule="evenodd" d="M106.404 55.9173C112.984 68.8237 109.144 79.0771 114.044 79.2167C116.424 79.2965 125.624 84.5628 126.044 82.6677C128.844 69.7214 122.484 51.7282 119.304 49.5937C117.444 48.337 105.544 54.2217 106.404 55.9173Z" fill="#AE89C2"/>
</g>
<g style="mix-blend-mode:multiply" opacity="0.5">
<path fill-rule="evenodd" clip-rule="evenodd" d="M228.944 123.821C228.764 122.125 233.824 115.702 226.623 103.993C219.423 92.283 215.943 89.7695 211.203 81.9897C211.203 81.9897 213.003 91.5649 221.543 106.566C230.084 121.567 228.924 123.821 228.924 123.821H228.944Z" fill="#AE89C2"/>
</g>
<g style="mix-blend-mode:multiply" opacity="0.5">
<path fill-rule="evenodd" clip-rule="evenodd" d="M248.435 114.306C246.115 98.3273 235.574 89.969 229.234 85.8996C222.894 81.8301 220.414 78.6384 220.414 78.6384C220.414 78.6384 229.194 87.3957 237.034 98.0879C244.875 108.76 248.435 114.306 248.435 114.306Z" fill="#AE89C2"/>
</g>
<g style="mix-blend-mode:multiply" opacity="0.5">
<path fill-rule="evenodd" clip-rule="evenodd" d="M175.864 44.5271C175.604 40.8367 165.764 42.3129 158.063 46.6217C151.583 50.2522 151.303 50.4318 155.743 50.9704C160.184 51.489 176.264 50.1525 175.844 44.5471L175.864 44.5271Z" fill="#AE89C2"/>
</g>
<g style="mix-blend-mode:multiply" opacity="0.5">
<path fill-rule="evenodd" clip-rule="evenodd" d="M192.787 41.8939C185.427 44.5071 179.547 46.0431 179.547 46.7413C179.547 47.4395 180.667 48.3371 184.947 47.8783C189.227 47.4195 192.187 44.8662 193.027 43.5097C193.867 42.1532 194.647 41.2356 192.787 41.8939Z" fill="#AE89C2"/>
</g>
<g style="mix-blend-mode:multiply" opacity="0.5">
<path fill-rule="evenodd" clip-rule="evenodd" d="M204.129 44.2877C210.609 43.4498 217.849 34.553 217.849 36.6475C217.849 38.7421 210.829 49.1151 208.749 48.2972C206.669 47.4594 201.809 44.5869 204.129 44.2877Z" fill="#AE89C2"/>
</g>
<g style="mix-blend-mode:multiply" opacity="0.5">
<path fill-rule="evenodd" clip-rule="evenodd" d="M149.301 49.973C144.201 53.9626 138.241 62.3408 139.561 62.2411C140.881 62.1413 146.941 57.673 148.781 54.3017C150.621 50.9504 151.041 48.5965 149.301 49.973Z" fill="#AE89C2"/>
</g>
<g style="mix-blend-mode:multiply" opacity="0.5">
<path fill-rule="evenodd" clip-rule="evenodd" d="M130.709 70.9186C134.009 69.7217 139.189 58.7303 138.929 53.863C138.669 48.9956 125.069 47.5793 124.489 52.9653C123.909 58.3513 129.269 71.4373 130.729 70.9186H130.709Z" fill="#AE89C2"/>
</g>
<g style="mix-blend-mode:multiply" opacity="0.5">
<path fill-rule="evenodd" clip-rule="evenodd" d="M151.367 48.8956C164.847 43.6892 167.928 33.2164 162.467 27.6908C157.007 22.1651 150.767 20.3698 152.247 22.8234C153.727 25.297 154.887 30.5035 154.467 36.9667C153.907 45.3648 151.367 48.8956 151.367 48.8956Z" fill="#AE89C2"/>
</g>
<g style="mix-blend-mode:multiply" opacity="0.5">
<path fill-rule="evenodd" clip-rule="evenodd" d="M178.86 44.5271C186.46 32.259 183.66 17.7368 180.16 17.9961C174.84 18.415 170.92 24.7585 172.44 26.3145C173.96 27.8704 175.68 31.1818 177.38 36.3484C179.08 41.515 178.84 44.5271 178.84 44.5271H178.86Z" fill="#AE89C2"/>
</g>
<g style="mix-blend-mode:multiply" opacity="0.5">
<path fill-rule="evenodd" clip-rule="evenodd" d="M203.001 40.0984C214.062 26.0549 206.901 17.3176 197.561 16.9186C188.221 16.5396 184.981 17.1181 186.781 18.315C188.581 19.5119 193.841 20.1103 197.521 26.9526C201.201 33.7948 201.981 41.3751 203.001 40.0784V40.0984Z" fill="#AE89C2"/>
</g>
<path style="mix-blend-mode:multiply" fill-rule="evenodd" clip-rule="evenodd" d="M114.586 28.5287C127.306 26.075 130.526 9.91704 126.766 7.68284C123.006 5.44865 116.406 7.46341 114.106 10.3758C112.066 12.9492 115.506 16.9388 115.506 16.9388C115.506 16.9388 112.106 11.6725 118.726 10.5354C125.366 9.41833 124.726 16.4201 123.046 19.4522C121.366 22.4844 112.026 25.1774 111.006 22.8235C109.986 20.4696 109.226 17.996 109.226 17.996C109.226 17.996 108.966 23.2025 111.566 25.5963C114.166 27.9901 114.606 28.5287 114.606 28.5287H114.586Z" fill="url(#paint60_linear_332_1180)"/>
<g style="mix-blend-mode:multiply">
<path d="M174.668 128.828C174.668 128.828 177.749 133.755 182.869 133.376C188.009 132.997 188.769 128.828 188.769 128.828C188.769 128.828 187.569 131.361 183.009 131.501C178.469 131.641 174.648 128.828 174.648 128.828H174.668Z" fill="#C98BC2"/>
</g>
<path d="M214.828 697.071L216.628 732.519L234.929 724.44L232.529 681.95H216.028L214.828 697.071Z" fill="url(#paint61_linear_332_1180)"/>
<path d="M111.784 698.547L109.544 724.14C109.544 724.14 89.8232 736.847 87.6432 725.936C87.3432 724.44 93.6433 683.446 93.6433 683.446C93.6433 683.446 113.444 679.796 111.784 698.547Z" fill="url(#paint62_linear_332_1180)"/>
<path d="M249.025 536.727C248.345 540.538 250.825 541.894 250.605 544.587C250.565 544.946 250.465 545.265 250.285 545.564C249.185 547.559 245.365 549.574 242.064 565.672C238.244 584.304 234.864 660.705 234.864 665.413C234.864 666.051 234.944 666.829 235.104 667.667C236.024 672.973 239.404 681.411 239.844 683.885C240.104 685.381 238.684 685.6 238.244 686.937C237.804 688.273 238.604 691.326 237.904 693.46C237.544 694.597 233.344 696.053 233.344 696.053L233.204 693.56C220.264 690.288 214.844 697.031 214.844 697.031L215.004 700.103C215.004 700.103 208.204 698.128 207.944 697.15C207.564 695.654 210.404 691.086 210.404 689.75C210.404 688.413 207.544 687.156 207.644 685.8C207.804 683.606 211.764 674.669 211.924 673.671C213.224 665.612 201.804 638.563 200.963 597.729C200.123 556.875 210.124 547.3 213.944 534.812C215.224 530.643 215.284 525.237 216.184 499.664C217.084 474.09 204.684 407.404 204.684 407.404L201.443 409.438C184.803 435.87 169.163 510.974 167.743 516.42C166.243 522.105 161.143 531.98 160.543 533.775C159.943 535.57 160.543 540.358 160.543 544.248C160.543 548.138 156.342 546.342 153.642 549.933C150.942 553.524 148.082 565.513 136.242 600.043C125.842 630.324 120.362 666.051 117.942 677.561C117.642 678.998 117.382 680.075 117.182 680.693V680.733C116.542 682.528 121.282 687.914 121.282 689.49C121.282 691.066 117.242 692.183 116.782 693.52C116.322 694.856 116.342 698.906 116.342 698.906C113.641 700.701 111.561 701.599 111.561 701.599L111.941 696.771C98.7211 690.588 92.721 692.961 92.721 692.961L91.681 696.632C91.681 696.632 86.5408 693.42 86.2008 691.844C85.8608 690.268 89.7009 683.905 91.961 681.212C94.221 678.519 97.0011 624.858 100.161 593.001C103.321 561.144 125.362 536.448 126.702 533.316C128.042 530.184 124.462 521.188 124.002 518.056C123.542 514.924 129.302 515.542 129.402 513.109C132.382 437.705 134.662 405.189 137.962 389.809C142.462 368.904 151.602 351.05 154.782 343.769C155.222 342.732 154.522 339.839 155.502 338.563C157.202 336.368 159.323 335.85 160.123 335.371C163.983 333.057 172.603 317.757 172.603 317.757C172.603 317.757 169.683 312.929 169.683 312.031C169.683 311.134 175.943 310.136 175.943 310.136L176.383 312.031C176.383 312.031 186.403 313.228 199.323 310.835C212.224 308.441 220.624 300.661 220.624 300.661L220.264 295.873C220.264 295.873 224.444 294.936 225.264 295.873C226.624 297.449 224.204 302.955 224.204 304.132C224.204 305.309 234.904 320.888 236.124 322.085C237.324 323.282 241.124 320.19 241.424 324.12C241.724 328.05 242.724 331.96 243.924 334.353C245.124 336.747 253.925 356.616 256.025 367.966C258.125 379.337 257.825 415.842 256.025 448.158C254.225 480.474 249.805 532.838 249.125 536.648L249.025 536.727Z" fill="url(#paint63_radial_332_1180)"/>
<path d="M141.923 292.343C123.922 299.524 119.122 332.139 118.222 334.832C117.322 337.525 113.862 339.78 111.762 342.173C109.662 344.567 92.1217 385.7 89.4216 388.114C89.1616 388.333 88.8816 388.553 88.5616 388.732C85.5015 390.528 79.8414 390.667 79.8414 390.667L75.0013 395.275C65.1411 396.911 57.6409 380.952 57.6409 380.952V374.17C57.6409 374.17 51.4208 368.405 51.5008 364.376C51.5408 361.762 77.6014 297.23 81.3615 287.615C87.6616 271.437 90.5617 258.531 89.3016 256.177C88.0616 253.843 95.3218 251.669 97.2018 250.751C97.1218 250.711 97.2018 250.053 99.0219 245.485C99.0219 245.485 111.802 250.651 123.062 260.366C140.343 275.287 141.963 292.383 141.963 292.383L141.923 292.343Z" fill="url(#paint64_linear_332_1180)"/>
<path d="M40.1761 403.235C40.1761 403.235 38.8761 417.897 36.5761 424.799C35.316 428.549 33.656 430.464 32.396 431.441C31.3159 432.259 30.5559 432.419 30.5559 432.419C30.5559 432.419 29.7559 435.112 27.7959 439.64C25.8358 444.168 20.7157 446.303 19.7957 445.704C19.1357 445.285 20.8357 440.777 22.0957 434.992C22.1757 434.633 22.2557 434.234 22.3157 433.835C23.3158 427.531 22.9158 415.223 22.9158 415.223L40.1961 403.255L40.1761 403.235Z" fill="url(#paint65_linear_332_1180)"/>
<path style="mix-blend-mode:multiply" opacity="0.5" d="M30.5391 432.419C34.0791 418.615 34.2191 412.63 34.2191 412.63L30.5391 413.428C30.5391 413.428 31.3991 417.657 31.3791 423.402C31.3591 429.147 30.5391 432.419 30.5391 432.419Z" fill="url(#paint66_linear_332_1180)"/>
<path style="mix-blend-mode:multiply" opacity="0.5" fill-rule="evenodd" clip-rule="evenodd" d="M40.1773 403.235C40.1773 403.235 38.8773 417.897 36.5772 424.799C35.3172 428.549 33.6571 430.464 32.3971 431.441C35.0772 428.23 35.2972 422.524 33.5371 418.295C33.2571 417.637 32.7971 424.021 31.2171 427.591C31.3971 424.878 31.2171 419.772 30.5371 417.557C29.797 415.104 27.797 420.709 22.2969 433.835C23.2969 427.512 22.8969 415.204 22.8969 415.204L40.1773 403.235Z" fill="url(#paint67_linear_332_1180)"/>
<path d="M73.4224 394.377C73.4224 394.377 72.1224 394.517 72.5624 397.928C73.0024 401.339 70.9423 410.436 70.9423 410.436C70.3423 410.894 60.8821 418.076 57.882 424.459C57.702 424.818 57.542 425.197 57.382 425.576C54.602 432.219 52.5619 445.106 51.4819 445.764C49.2218 447.18 45.1017 437.445 45.9218 433.097C46.3018 431.102 47.4418 429.147 48.7218 427.312C48.7418 427.272 48.7818 427.232 48.8018 427.212C50.2619 425.117 51.9219 423.163 52.8219 421.427C54.522 418.195 57.362 407.822 57.362 407.822C57.362 407.822 52.7419 408.162 46.8618 409.199C45.1617 409.498 43.3617 409.837 41.5617 410.276C40.0016 410.635 38.4216 411.034 36.8816 411.493C27.6213 414.246 27.1213 414.485 27.1213 414.485C27.1213 414.485 22.7612 427.192 15.6811 432.339C6.64086 438.981 -0.079295 437.066 0.000706813 436.408C0.0807087 435.81 17.1811 416.121 22.2612 409.378C22.8812 408.561 23.3212 407.922 23.5212 407.543C23.5212 407.543 37.9416 401.898 49.6618 392.183C61.3821 382.488 61.0221 382.688 61.3821 382.488C61.7421 382.289 73.8824 385.66 73.4024 394.397L73.4224 394.377Z" fill="url(#paint68_linear_332_1180)"/>
<path d="M308.148 772.116C307.268 773.851 295.648 776.285 287.768 776.285C277.208 776.285 267.307 777.123 254.307 773.891C251.367 773.173 248.267 772.215 244.967 771.019C227.767 764.735 204.966 765.692 201.286 764.236C201.126 764.176 201.006 764.116 200.926 764.057C200.786 763.937 200.686 763.678 200.606 763.299C200.226 761.144 200.906 754.98 202.046 747.699C202.326 745.824 202.926 743.45 203.666 740.857C205.766 733.516 209.046 724.38 210.026 719.532C210.706 716.141 207.686 713.688 207.686 711.513C207.686 709.957 213.526 709.399 214.826 709.678C214.826 709.678 217.746 713.707 221.086 713.289C225.886 712.71 233.067 700.163 236.127 701.679C237.487 702.357 239.127 709.578 243.967 716.979C244.487 717.757 245.027 718.535 245.607 719.313C251.847 727.591 262.367 735.271 265.047 737.047C281.068 747.719 290.968 752.167 295.748 753.344C297.448 753.763 298.488 753.783 298.948 753.504C300.508 752.566 307.288 766.73 308.108 771.019C308.208 771.537 308.208 771.916 308.108 772.096L308.148 772.116Z" fill="url(#paint69_linear_332_1180)"/>
<g style="mix-blend-mode:multiply" opacity="0.68">
<path d="M308.128 771.038C293.108 772.016 272.708 773.113 254.307 773.911C251.367 773.193 248.267 772.235 244.967 771.038C227.767 764.755 204.966 765.712 201.286 764.256C201.066 763.937 200.846 763.638 200.606 763.299C200.226 761.144 200.906 754.98 202.046 747.699C202.326 745.824 202.926 743.45 203.666 740.857C212.346 745.445 228.927 748.816 234.907 750.831C240.907 752.846 251.107 762.281 263.867 764.296C276.608 766.311 298.428 761.783 295.768 753.344C297.468 753.763 298.508 753.783 298.968 753.504C300.528 752.566 307.308 766.73 308.128 771.019V771.038Z" fill="#CF6595"/>
</g>
<g style="mix-blend-mode:multiply" opacity="0.8">
<path d="M173.332 160.246C177.932 175.486 174.492 180.114 166.672 178.479C166.672 178.479 172.992 182.668 176.872 179.755C180.752 176.843 178.952 171.257 178.952 171.257C178.952 171.257 177.472 169.821 175.812 166.231C174.152 162.64 173.312 160.266 173.312 160.266L173.332 160.246Z" fill="#DE7881"/>
</g>
<g style="mix-blend-mode:multiply" opacity="0.8">
<path d="M57.625 380.912C65.5452 381.431 70.6453 385.461 73.4454 388.393C76.2454 391.325 75.0054 395.235 75.0054 395.235C75.0054 395.235 73.8454 395.574 72.6853 395.235L73.4454 394.357C73.4454 394.357 65.0452 382.728 59.405 384.104C59.405 384.104 59.105 383.366 58.445 382.448C57.805 381.531 57.645 380.912 57.645 380.912H57.625Z" fill="#DE7881"/>
</g>
<g style="mix-blend-mode:multiply">
<path d="M207.93 697.19C208.27 691.386 238.111 683.147 237.891 693.48C237.891 693.48 235.511 695.535 233.331 696.073C233.331 696.073 225.97 693.819 220.91 695.614C215.85 697.41 214.93 698.766 214.93 698.766L214.99 700.143C214.99 700.143 207.87 698.228 207.93 697.19Z" fill="#C98BC2"/>
</g>
<g style="mix-blend-mode:multiply">
<path d="M86.1172 691.924C88.2572 680.893 116.038 697.071 115.478 698.986C114.918 700.901 111.498 701.699 111.498 701.699C111.498 701.699 109.858 698.407 102.218 696.193C94.5774 693.959 91.9373 695.595 91.9373 695.595L91.6173 696.732C91.6173 696.732 85.8172 693.6 86.1372 691.944L86.1172 691.924Z" fill="#C98BC2"/>
</g>
<path fill-rule="evenodd" clip-rule="evenodd" d="M308.153 772.116C307.393 773.652 298.392 775.686 290.872 776.185C290.832 776.185 290.792 776.185 290.752 776.185C290.412 776.185 290.032 776.225 289.612 776.245C289.432 776.245 289.232 776.245 289.032 776.245C288.612 776.245 288.192 776.285 287.792 776.285C274.832 776.285 262.892 777.562 244.991 771.019C227.091 764.476 203.05 765.792 200.95 764.037C200.01 763.279 200.73 756.237 202.07 747.679C209.61 746.522 230.571 747.839 250.671 760.905C258.811 766.211 267.752 767.408 275.712 766.43C287.432 764.954 297.052 758.691 298.972 753.504C300.712 752.467 309.033 770.36 308.153 772.096V772.116Z" fill="url(#paint70_linear_332_1180)"/>
<g style="mix-blend-mode:multiply" opacity="0.68">
<path d="M243.992 716.979C235.672 711.513 234.932 713.727 233.632 718.216C231.771 724.619 226.571 730.703 210.051 719.532C210.731 716.141 207.711 713.688 207.711 711.513C207.711 709.957 213.571 709.399 214.851 709.658C214.851 709.658 217.771 713.688 221.111 713.289C225.911 712.71 233.092 700.163 236.152 701.679C237.532 702.357 239.152 709.598 243.992 716.979Z" fill="#CF6595"/>
</g>
<path d="M150.025 782.928C150.025 782.928 122.124 788.314 101.604 784.823C87.6634 782.449 77.1032 776.085 77.1032 776.085C77.1032 776.085 76.4832 774.31 77.3232 766.49C77.5432 764.516 77.8432 762.142 78.2632 759.329C78.4832 757.913 78.7232 756.417 79.0032 754.781C79.1632 753.823 79.3232 752.906 79.4832 752.008C82.6233 734.254 85.0433 726.295 85.0433 726.295L82.9833 715.623L89.1434 713.648C89.1434 713.648 88.4234 720.011 89.2834 720.53C92.4035 722.425 95.3236 711.094 102.204 706.486C110.184 701.16 115.144 710.037 115.144 710.037C115.224 711.194 115.584 713.229 116.184 715.782C118.564 725.916 124.524 744.448 129.264 751.469C131.644 754.98 134.644 758.272 137.465 761.124C137.465 761.124 137.625 761.284 137.905 761.583C137.985 761.663 138.065 761.743 138.145 761.843C142.085 765.792 145.445 768.804 145.825 770.261C146.025 771.079 146.285 772.595 146.525 774.31C147.025 778.001 150.025 782.928 150.025 782.928Z" fill="url(#paint71_linear_332_1180)"/>
<g style="mix-blend-mode:multiply" opacity="0.68">
<path d="M146.53 774.29L100.809 780.454L77.3281 766.49C77.5481 764.516 77.8481 762.142 78.2681 759.329C78.4882 757.913 78.7282 756.417 79.0082 754.781C79.1682 753.823 79.3282 752.906 79.4882 752.008C80.9482 768.346 93.6885 774.849 99.5886 775.068C105.489 775.288 139.53 770.001 141.71 768.784C143.45 767.827 139.73 763.538 138.15 761.823C142.09 765.772 145.45 768.784 145.83 770.241C146.03 771.059 146.29 772.575 146.53 774.29Z" fill="#CF6595"/>
</g>
<path d="M150.029 782.928C150.029 782.928 122.128 788.314 101.608 784.823C87.6677 782.449 77.1075 776.085 77.1075 776.085C77.1075 776.085 76.1474 773.293 78.2675 759.329C80.0875 764.017 83.1676 770.919 97.2279 776.185C100.108 777.262 104.068 776.744 109.548 775.646C117.788 773.991 129.209 771.018 146.509 769.682C148.549 773.273 150.009 782.928 150.009 782.928H150.029Z" fill="url(#paint72_linear_332_1180)"/>
<g style="mix-blend-mode:multiply" opacity="0.68">
<path d="M116.185 715.782C96.6247 707.244 92.4246 734.214 89.0645 731.98C85.7044 729.746 85.0444 726.295 85.0444 726.295L82.9844 715.623L89.1445 713.648C89.1445 713.648 88.4245 720.011 89.2845 720.53C92.4046 722.425 95.3247 711.094 102.205 706.486C110.185 701.16 115.145 710.037 115.145 710.037C115.225 711.194 115.585 713.229 116.185 715.782Z" fill="#CF6595"/>
</g>
<g style="mix-blend-mode:multiply" opacity="0.2">
<path d="M150.029 782.928C150.029 782.928 122.128 788.314 101.608 784.823C87.6677 782.449 77.1075 776.085 77.1075 776.085C77.1075 776.085 76.1474 773.293 78.2675 759.329C80.0875 764.017 83.1676 770.919 97.2279 776.185C100.108 777.262 104.068 776.744 109.548 775.646C98.728 784.264 123.569 786.458 135.489 784.663C147.409 782.868 146.529 778.08 147.029 770.719C148.849 774.729 150.029 782.908 150.029 782.908V782.928Z" fill="#CF6595"/>
</g>
<g style="mix-blend-mode:multiply" opacity="0.2">
<path d="M289.032 776.245C288.612 776.245 288.192 776.285 287.792 776.285C274.832 776.285 262.892 777.562 244.991 771.019C227.091 764.476 203.05 765.792 200.95 764.037C200.01 763.279 200.73 756.237 202.07 747.679C209.61 746.522 230.571 747.839 250.671 760.905C258.811 766.211 267.752 767.408 275.712 766.43C272.892 775.327 283.232 776.345 289.032 776.245Z" fill="#CF6595"/>
</g>
<path style="mix-blend-mode:multiply" opacity="0.5" d="M123.922 518.116C133.822 517.438 134.942 540.996 133.822 539.66C132.702 538.323 128.182 535.052 126.662 528.908C125.122 522.784 123.922 518.116 123.922 518.116Z" fill="url(#paint73_linear_332_1180)"/>
<path style="mix-blend-mode:multiply" opacity="0.5" d="M160.384 545.325C154.284 543.69 144.844 551.529 144.844 551.529C144.844 551.529 152.964 549.355 155.464 548.318C157.964 547.28 160.384 545.325 160.384 545.325Z" fill="url(#paint74_linear_332_1180)"/>
<path style="mix-blend-mode:multiply" opacity="0.5" d="M250.608 544.587C242.288 543.689 237.788 556.476 238.008 559.628C238.228 562.78 240.348 577.741 240.448 576.883C240.548 576.025 243.148 562.321 244.728 555.598C246.328 548.856 250.608 544.607 250.608 544.607V544.587Z" fill="url(#paint75_linear_332_1180)"/>
<path style="mix-blend-mode:multiply" opacity="0.5" d="M155.424 338.603C161.904 341.834 172.184 359.408 170.624 358.491C165.424 355.399 155.524 346.063 154.684 343.829C153.844 341.595 155.424 338.603 155.424 338.603Z" fill="url(#paint76_linear_332_1180)"/>
<path style="mix-blend-mode:multiply" opacity="0.5" d="M240.62 323.163C235.36 331.441 230.84 341.256 231.56 339.62C232.8 336.827 243.3 335.092 242.5 331.8C241.4 327.192 241.3 322.106 240.62 323.163Z" fill="url(#paint77_linear_332_1180)"/>
<g style="mix-blend-mode:soft-light" opacity="0.8">
<path d="M169.602 312.091C188.623 316.121 216.843 307.483 222.023 303.115C224.863 300.721 225.864 295.953 224.063 295.534C222.263 295.116 220.183 295.933 220.183 295.933L220.543 300.721C220.543 300.721 211.083 309.019 197.163 311.194C185.583 313.009 176.322 312.091 176.322 312.091L175.882 310.196C175.882 310.196 167.542 311.653 169.622 312.091H169.602Z" fill="#FFFFE5"/>
</g>
<path style="mix-blend-mode:multiply" opacity="0.5" d="M89.4381 254.76C100.738 265.173 99.9983 279.775 98.7983 276.624C97.5983 273.472 89.3581 260.685 89.4381 259.767C89.5181 258.85 89.4381 254.76 89.4381 254.76Z" fill="url(#paint78_linear_332_1180)"/>
<path style="mix-blend-mode:multiply" opacity="0.5" d="M135.319 170.519C142.819 183.506 154.959 195.175 154.959 195.175C154.959 195.175 134.219 182.548 134.039 178.798C133.859 175.048 135.319 170.519 135.319 170.519Z" fill="url(#paint79_linear_332_1180)"/>
<path style="mix-blend-mode:multiply" opacity="0.5" d="M144.18 159.448C153.86 178.119 173.88 183.765 179.401 182.847C184.921 181.93 184.161 171.477 182.181 163.079C182.181 163.079 184.561 170.519 186.801 172.135C188.581 173.412 183.781 202.815 180.181 201.459C176.58 200.102 169.24 190.727 159.3 181.73C149.36 172.733 147.36 169.502 145.76 167.128C144.16 164.734 144.18 159.468 144.18 159.468V159.448Z" fill="url(#paint80_linear_332_1180)"/>
<path style="mix-blend-mode:multiply" opacity="0.5" d="M220.744 214.026C206.124 200.781 204.444 186.657 205.804 184.862C207.164 183.067 217.364 187.735 218.444 191.824C219.524 195.913 223.264 216.3 220.764 214.046L220.744 214.026Z" fill="url(#paint81_linear_332_1180)"/>
<path style="mix-blend-mode:multiply" opacity="0.5" d="M141.927 292.343C140.667 300.143 138.927 308.76 138.927 308.76C138.927 308.76 135.627 300.901 133.727 298.088C133.727 298.088 143.287 284.044 141.947 292.343H141.927Z" fill="url(#paint82_linear_332_1180)"/>
<path style="mix-blend-mode:multiply" opacity="0.5" d="M121.218 689.57C105.238 687.097 103.898 688.892 105.698 689.57C107.498 690.249 115.218 694.996 116.718 693.6C118.218 692.223 121.218 689.57 121.218 689.57Z" fill="url(#paint83_linear_332_1180)"/>
<path style="mix-blend-mode:multiply" opacity="0.5" d="M207.622 685.84C219.322 682.828 224.862 684.384 224.862 684.384C224.862 684.384 213.122 688.872 210.362 689.77L207.602 685.84H207.622Z" fill="url(#paint84_linear_332_1180)"/>
<path style="mix-blend-mode:multiply" opacity="0.5" d="M239.828 683.905C234.408 684.184 229.688 685.979 229.688 685.979C229.688 685.979 237.168 688.453 238.228 686.977C239.288 685.501 239.828 683.905 239.828 683.905Z" fill="url(#paint85_linear_332_1180)"/>
<path style="mix-blend-mode:multiply" d="M172.523 317.817C190.224 330.943 221.125 310.974 224.125 304.212C224.125 304.212 227.005 319.911 207.024 324.439C186.244 329.147 172.523 317.817 172.523 317.817Z" fill="url(#paint86_linear_332_1180)"/>
<path style="mix-blend-mode:multiply" d="M175.227 374.928C182.707 379.416 195.707 399.704 201.447 409.478L204.687 407.444C204.307 406.167 212.747 457.055 212.747 457.055C217.048 393.32 242.368 365.752 250.608 363.558C250.608 363.558 234.928 366.849 226.088 376.265C226.088 376.265 237.028 359.428 236.908 339.6C236.908 339.6 223.268 382.469 200.907 398.327C199.447 399.365 199.827 381.332 192.107 377.561C184.887 374.05 175.247 374.908 175.247 374.908L175.227 374.928Z" fill="url(#paint87_linear_332_1180)"/>
<g style="mix-blend-mode:multiply">
<path d="M221.42 508.381C221.6 511.713 217.88 521.507 215.12 526.335C215.12 526.335 217.58 500.901 215.12 476.664C212.12 447.2 204.68 407.464 204.68 407.464C204.68 407.464 217.3 432.379 221.42 508.381Z" fill="#AE89C2"/>
</g>
<path style="mix-blend-mode:multiply" opacity="0.5" d="M153.624 549.973C150.924 553.564 148.064 565.553 136.224 600.083C125.824 630.364 120.343 666.091 117.923 677.601C118.163 673.652 115.103 668.824 91.8828 681.272C94.1229 678.579 96.9229 624.918 100.083 593.061C103.243 561.204 125.284 536.508 126.624 533.376L133.824 539.66C139.224 565.533 141.024 552.387 153.624 549.973Z" fill="url(#paint88_linear_332_1180)"/>
<path style="mix-blend-mode:multiply" opacity="0.5" d="M250.615 544.587C250.615 544.587 250.495 544.926 250.295 545.565C249.195 547.559 245.375 549.574 242.075 565.672C238.255 584.304 234.875 660.705 234.875 665.413C234.875 666.051 234.955 666.829 235.115 667.667C235.015 667.787 234.955 667.847 234.955 667.847C234.955 667.847 233.315 643.969 211.934 673.712C213.234 665.653 201.814 638.603 200.974 597.769C200.134 556.915 214.094 537.845 214.094 537.845C222.294 545.106 234.475 548.836 241.235 546.961C247.175 545.325 250.615 544.567 250.615 544.567V544.587Z" fill="url(#paint89_linear_332_1180)"/>
<path style="mix-blend-mode:multiply" d="M179.305 363.657C207.045 364.495 207.725 372.275 231.506 348.557C231.506 348.557 235.766 321.986 236.066 322.145C236.966 322.604 239.226 321.866 240.426 322.285C241.446 322.644 241.946 330.105 242.906 332.06C250.246 346.881 254.826 363.239 254.826 363.239C226.106 363.478 205.025 408.641 204.705 407.444L201.465 409.478C194.605 377.741 179.325 363.657 179.325 363.657H179.305Z" fill="url(#paint90_linear_332_1180)"/>
<path style="mix-blend-mode:multiply" opacity="0.8" d="M133.703 228.01C146.123 263.318 163.904 263.617 180.224 260.625C196.525 257.633 227.125 244.906 227.125 244.906C227.125 244.906 165.444 243.191 157.344 240.438C141.923 235.231 133.703 228.01 133.703 228.01Z" fill="url(#paint91_linear_332_1180)"/>
<path style="mix-blend-mode:screen" opacity="0.5" d="M253.748 265.912C227.127 248.577 191.126 279.277 191.806 279.656C192.506 280.035 212.107 276.743 240.467 276.364C266.408 276.025 268.808 276.644 268.808 276.644L253.728 265.892L253.748 265.912Z" fill="url(#paint92_linear_332_1180)"/>
<path style="mix-blend-mode:multiply" opacity="0.8" d="M222.483 216.041C206.282 202.576 202.242 182.847 202.242 182.847C202.242 182.847 208.802 194.278 214.782 204.152C220.763 214.026 222.503 216.041 222.503 216.041H222.483Z" fill="url(#paint93_linear_332_1180)"/>
<path style="mix-blend-mode:multiply" opacity="0.8" d="M142.057 286.658C137.117 231.601 124.477 223.223 124.477 223.223L142.057 286.658Z" fill="url(#paint94_linear_332_1180)"/>
<path style="mix-blend-mode:multiply" opacity="0.8" d="M141.92 292.343C142.02 291.445 136.3 250.771 98.9788 245.445L97.2188 250.691C97.2188 250.691 110.679 248.696 125.559 264.814C140.46 280.932 141.9 292.343 141.9 292.343H141.92Z" fill="url(#paint95_linear_332_1180)"/>
<path style="mix-blend-mode:multiply" opacity="0.5" d="M96.699 299.245C95.979 300.741 101.079 299.245 114.539 298.607C122.66 298.228 129.78 299.245 129.78 299.245C129.78 299.245 110.959 303.115 109.199 306.965C113.879 307.603 126.68 300.422 127.54 300.801C128.38 301.18 123.82 314.904 123.82 314.904C123.82 314.904 129.26 297.45 141.94 292.363V290.149C133.28 279.716 98.5791 295.395 96.719 299.265L96.699 299.245Z" fill="url(#paint96_linear_332_1180)"/>
<path style="mix-blend-mode:multiply" opacity="0.3" d="M70.9408 410.456C70.3408 410.915 60.8806 418.096 57.8805 424.479C57.7005 424.838 57.5405 425.218 57.3805 425.597C57.3805 425.597 54.0204 420.51 48.8203 427.232C50.2803 425.138 51.9404 423.183 52.8404 421.447C54.5404 418.216 57.3805 407.843 57.3805 407.843C57.3405 415.124 70.3008 410.655 70.9408 410.436V410.456Z" fill="url(#paint97_linear_332_1180)"/>
<path style="mix-blend-mode:multiply" opacity="0.5" d="M89.4216 388.094L88.5616 388.712C85.5015 390.508 79.8414 390.647 79.8414 390.647C79.8414 390.647 77.5214 378.978 57.6409 374.15C57.6409 374.15 51.4208 368.385 51.5008 364.356C65.4411 372.255 82.3215 388.373 84.1215 388.174C85.9216 387.954 89.4416 388.114 89.4416 388.114L89.4216 388.094Z" fill="url(#paint98_linear_332_1180)"/>
<path style="mix-blend-mode:multiply" opacity="0.5" d="M117.41 336.428C109.21 332.738 86.1097 340.597 84.7897 353.623C84.6897 354.621 97.1299 366.011 98.67 369.861C98.67 369.861 110.13 344.507 111.79 342.193C112.83 340.717 117.65 336.548 117.41 336.448V336.428Z" fill="url(#paint99_linear_332_1180)"/>
<path fill-rule="evenodd" clip-rule="evenodd" d="M152.24 227.771C149.099 234.354 174.78 233.396 191.8 229.506C208.821 225.616 223.581 226.195 217.041 214.206C210.501 202.217 195.921 206.366 183.02 208.361C170.12 210.356 157.28 217.238 152.24 227.771Z" fill="url(#paint100_linear_332_1180)"/>
<path d="M151.481 217.238C157.781 218.654 160.661 212.251 157.601 211.094C154.541 209.937 147.001 216.241 151.481 217.238Z" fill="url(#paint101_linear_332_1180)"/>
<g style="mix-blend-mode:soft-light" opacity="0.3">
<path fill-rule="evenodd" clip-rule="evenodd" d="M170.8 335.511C186.18 363.997 202.761 366.69 212.361 362.062C221.961 357.434 235.021 338.164 230.321 325.576C225.621 312.989 212.421 331.581 202.221 331.401C192.02 331.222 164.86 324.499 170.78 335.491L170.8 335.511Z" fill="#90A9EF"/>
</g>
<path style="mix-blend-mode:multiply" d="M190.48 312.929C191.861 318.076 192.481 323.681 196.161 324.06C199.841 324.459 210.781 323.681 217.641 319.911C217.641 319.911 205.881 328.329 194.381 324.958C193.841 324.798 187.64 316.121 188.62 313.188L190.48 312.929Z" fill="url(#paint102_linear_332_1180)"/>
<path d="M200.871 315.004C205.571 321.008 196.351 321.068 196.631 317.657C196.911 314.246 198.831 312.391 200.871 315.004Z" fill="url(#paint103_linear_332_1180)"/>
<path style="mix-blend-mode:multiply" d="M201.369 315.622C203.55 318.415 203.17 321.786 201.269 321.846C199.089 321.906 196.109 318.894 197.949 318.814C200.989 318.674 199.329 313.029 201.369 315.642V315.622Z" fill="url(#paint104_linear_332_1180)"/>
<g style="mix-blend-mode:soft-light" opacity="0.5">
<path d="M207.027 324.439C221.007 344.866 210.967 384.124 205.727 394.757C205.727 394.757 223.127 379.397 224.967 356.037C227.127 328.469 222.747 317.258 217.627 320.629C214.527 322.664 207.027 324.439 207.027 324.439Z" fill="#90A9EF"/>
</g>
<path style="mix-blend-mode:multiply" d="M204.484 324.26C212.245 345.305 213.365 374.07 205.744 394.757C205.744 394.757 215.725 377.96 214.045 357.374C212.365 336.787 204.484 324.24 204.484 324.24V324.26Z" fill="url(#paint105_linear_332_1180)"/>
<g style="mix-blend-mode:soft-light" opacity="0.3">
<path d="M157.105 373.771C133.905 388.712 129.404 526.235 144.845 532.02C160.285 537.805 166.365 487.635 179.286 453.723C192.206 419.811 180.506 358.71 157.105 373.771Z" fill="#90A9EF"/>
</g>
<g style="mix-blend-mode:soft-light" opacity="0.3">
<path d="M248.081 379.756C203.68 406.127 223.42 485.341 230.3 510.037C237.2 534.733 247.561 516.42 250.661 498.607C253.761 480.793 255.401 375.407 248.081 379.756Z" fill="#90A9EF"/>
</g>
<g style="mix-blend-mode:multiply">
<path d="M148.601 357.394C133.12 423.941 135.8 530.683 135.8 530.683C135.8 530.683 131.06 519.951 129.32 513.189C129.32 513.189 131.6 440.019 135.08 409.498C138.941 375.606 148.581 357.394 148.581 357.394H148.601Z" fill="#AE89C2"/>
</g>
<path style="mix-blend-mode:multiply" opacity="0.88" d="M134.178 548.317C121.677 559.109 128.918 574.868 135.818 571.956C142.718 569.044 148.578 555.798 144.858 556.476C141.138 557.154 136.358 555.579 135.818 553.324C135.298 551.09 137.138 545.764 134.178 548.317Z" fill="url(#paint106_linear_332_1180)"/>
<path style="mix-blend-mode:multiply" opacity="0.88" d="M223.272 551.549C233.513 554.362 246.773 542.772 246.073 548.337C245.373 553.903 235.573 583.207 231.373 578.718C227.172 574.23 218.472 550.252 223.272 551.569V551.549Z" fill="url(#paint107_linear_332_1180)"/>
<g style="mix-blend-mode:multiply">
<path d="M245.303 554.242C224.823 589.251 235.063 658.651 235.163 656.357C235.263 654.063 235.683 632.339 237.543 602.676C239.823 566.311 245.303 554.242 245.303 554.242Z" fill="#AE89C2"/>
</g>
<path style="mix-blend-mode:multiply" d="M176.25 320.011C166.95 330.424 165.21 338.882 162.63 339.62C160.05 340.378 157.79 339.54 157.79 342.532C157.79 345.525 149.25 362.72 141.93 398.327C141.93 398.327 157.53 352.925 158.67 348.557C159.81 344.168 158.91 343.57 162.63 342.532C166.35 341.475 168.47 326.494 178.091 321.188L176.55 313.129H172.55C172.55 313.129 177.431 318.694 176.27 319.991L176.25 320.011Z" fill="url(#paint108_linear_332_1180)"/>
<g style="mix-blend-mode:soft-light" opacity="0.5">
<path d="M124.483 754.422C101.222 757.414 90.6817 768.326 105.082 770.58C119.502 772.834 139.203 769.143 139.323 766.231C139.443 763.319 132.503 753.384 124.483 754.422Z" fill="#FFC7AC"/>
</g>
<g style="mix-blend-mode:soft-light" opacity="0.5">
<path d="M266.471 742.971C244.67 743.41 254.551 756.297 272.091 757.374C289.631 758.451 295.771 756.716 293.691 754.342C291.611 751.968 270.751 742.892 266.471 742.971Z" fill="#FFC7AC"/>
</g>
<g style="mix-blend-mode:soft-light" opacity="0.3">
<path d="M144.18 225.616C153.64 235.231 167.74 241.455 179.301 239.221C190.861 236.987 199.021 229.506 194.801 224.719C190.561 219.931 134.52 215.782 144.18 225.616Z" fill="#FFBAEF"/>
</g>
<g style="mix-blend-mode:soft-light" opacity="0.3">
<path d="M203.753 206.107C197.873 221.886 194.573 235.49 205.733 234.174C216.894 232.877 226.714 229.765 223.714 221.886C220.734 214.006 206.433 198.866 203.733 206.107H203.753Z" fill="#FFBAEF"/>
</g>
<path style="mix-blend-mode:multiply" opacity="0.5" d="M233.387 254.94C176.345 277.701 165.285 274.39 158.825 273.711C147.665 272.534 134.505 255.519 135.945 256.436C137.385 257.354 141.345 275.965 141.925 292.343C141.925 292.343 226.107 260.047 234.667 260.047C243.207 260.047 251.067 264.216 251.067 264.216C251.067 264.216 237.787 231.162 233.107 228.489C233.107 228.489 239.207 252.606 233.387 254.94Z" fill="url(#paint109_linear_332_1180)"/>
<path style="mix-blend-mode:multiply" opacity="0.5" fill-rule="evenodd" clip-rule="evenodd" d="M202.177 195.175C200.297 207.962 191.797 219.253 191.797 219.253C191.797 219.253 206.897 206.785 207.037 201.579C207.177 196.352 202.177 195.195 202.177 195.195V195.175Z" fill="url(#paint110_linear_332_1180)"/>
<g style="mix-blend-mode:multiply" opacity="0.5">
<path fill-rule="evenodd" clip-rule="evenodd" d="M109.529 244.088C120.429 244.088 129.769 227.611 122.009 214.186C114.249 200.761 114.329 204.451 111.869 217.418C109.409 230.384 94.5685 244.068 109.529 244.068V244.088Z" fill="#C486E8"/>
</g>
<g style="mix-blend-mode:screen" opacity="0.2">
<path fill-rule="evenodd" clip-rule="evenodd" d="M57.6263 362.5C73.7266 362.401 95.5271 333.935 94.4471 326.753C93.3671 319.572 76.0867 308.002 67.7865 325.776C59.4863 343.55 52.9461 362.54 57.6263 362.5Z" fill="#DC7F4F"/>
</g>
<g style="mix-blend-mode:screen" opacity="0.2">
<path fill-rule="evenodd" clip-rule="evenodd" d="M112.628 283.585C135.169 289.031 133.929 278.578 127.369 270.918C113.928 255.239 94.5078 247.978 94.5078 255.159C94.5078 262.341 108.368 282.548 112.648 283.585H112.628Z" fill="#DC7F4F"/>
</g>
<g style="mix-blend-mode:screen" opacity="0.2">
<path fill-rule="evenodd" clip-rule="evenodd" d="M259.488 246.781C271.148 264.216 291.348 248.576 288.908 244.088C286.468 239.6 279.008 232.538 274.308 234.274C269.608 236.009 255.427 240.717 259.488 246.781Z" fill="#DC7F4F"/>
</g>
<g style="mix-blend-mode:multiply" opacity="0.68">
<path fill-rule="evenodd" clip-rule="evenodd" d="M82.9844 715.603C87.6245 725.916 90.6045 721.268 91.8846 719.513C93.1646 717.757 95.7847 713.648 95.7847 713.648L90.3645 717.877L88.9245 716.201L89.1445 713.668L82.9844 715.643V715.603Z" fill="#CF6595"/>
</g>
<g style="mix-blend-mode:multiply" opacity="0.68">
<path fill-rule="evenodd" clip-rule="evenodd" d="M207.705 711.513C214.165 721.368 223.486 713.947 225.846 710.277C225.846 710.277 216.285 712.75 215.505 710.277C215.505 710.277 206.405 709.519 207.705 711.513Z" fill="#CF6595"/>
</g>
<g style="mix-blend-mode:soft-light" opacity="0.5">
<path fill-rule="evenodd" clip-rule="evenodd" d="M154.44 384.802C129.7 401.878 134.04 486.239 142.06 490.428C150.06 494.617 176.541 425.497 170.801 409.478C165.06 393.48 161.64 379.835 154.46 384.783L154.44 384.802Z" fill="#90A9EF"/>
</g>
<g style="mix-blend-mode:soft-light" opacity="0.5">
<path fill-rule="evenodd" clip-rule="evenodd" d="M242.543 403.234C232.422 440.757 243.303 484.124 248.463 483.546C253.623 482.967 255.483 428.888 253.763 411.433C252.043 393.978 246.043 390.328 242.563 403.234H242.543Z" fill="#90A9EF"/>
</g>
<g style="mix-blend-mode:soft-light" opacity="0.5">
<path fill-rule="evenodd" clip-rule="evenodd" d="M57.6125 402.317C59.3526 412.73 70.2328 412.55 70.9128 402.317C71.5929 392.083 55.5525 389.969 57.6125 402.317Z" fill="#FFC7AC"/>
</g>
<path style="mix-blend-mode:multiply" opacity="0.3" fill-rule="evenodd" clip-rule="evenodd" d="M41.5617 410.296C40.0016 410.655 38.4216 411.054 36.8815 411.513C27.6213 414.266 27.1213 414.505 27.1213 414.505C27.1213 414.505 22.7612 427.212 15.6811 432.359C6.64086 438.981 -0.079295 437.066 0.000706813 436.408C0.0807086 435.81 17.1811 416.121 22.2612 409.378C27.5213 411.972 36.0415 411.214 41.5417 410.316L41.5617 410.296Z" fill="url(#paint111_linear_332_1180)"/>
<defs>
<linearGradient id="paint0_linear_332_1180" x1="250.679" y1="309.857" x2="250.679" y2="210.216" gradientUnits="userSpaceOnUse">
<stop stop-color="#FE1331"/>
<stop offset="0.92" stop-color="#FE30B1"/>
</linearGradient>
<linearGradient id="paint1_linear_332_1180" x1="284.214" y1="200.242" x2="331.835" y2="200.242" gradientUnits="userSpaceOnUse">
<stop offset="0.02" stop-color="#FF8D5B"/>
<stop offset="1" stop-color="#FF6F6B"/>
</linearGradient>
<radialGradient id="paint2_radial_332_1180" cx="0" cy="0" r="1" gradientUnits="userSpaceOnUse" gradientTransform="translate(323.251 179.674) rotate(151.852) scale(36.7194 36.6662)">
<stop stop-color="#E0E6FF"/>
<stop offset="0.26" stop-color="#DEE3FB"/>
<stop offset="0.48" stop-color="#DBD9F1"/>
<stop offset="0.68" stop-color="#D5CADF"/>
<stop offset="0.88" stop-color="#CDB5C6"/>
<stop offset="1" stop-color="#C7A4B3"/>
</radialGradient>
<linearGradient id="paint3_linear_332_1180" x1="343.75" y1="177.65" x2="300.726" y2="200.79" gradientUnits="userSpaceOnUse">
<stop stop-color="#331457"/>
<stop offset="0.48" stop-color="#1D0741"/>
<stop offset="0.98" stop-color="#4A2589"/>
</linearGradient>
<linearGradient id="paint4_linear_332_1180" x1="290.41" y1="172.913" x2="339.971" y2="172.913" gradientUnits="userSpaceOnUse">
<stop offset="0.02" stop-color="#66008B"/>
<stop offset="0.19" stop-color="#640A95"/>
<stop offset="1" stop-color="#593BC8"/>
</linearGradient>
<linearGradient id="paint5_linear_332_1180" x1="313.033" y1="60.745" x2="313.033" y2="173.572" gradientUnits="userSpaceOnUse">
<stop stop-color="#FFD6DB"/>
<stop offset="1" stop-color="#FFEDDB"/>
</linearGradient>
<linearGradient id="paint6_linear_332_1180" x1="337.225" y1="119.317" x2="274.924" y2="152.824" gradientUnits="userSpaceOnUse">
<stop stop-color="#4A93FF"/>
<stop offset="0.98" stop-color="#66C3FF"/>
</linearGradient>
<linearGradient id="paint7_linear_332_1180" x1="338.539" y1="121.76" x2="276.238" y2="155.268" gradientUnits="userSpaceOnUse">
<stop stop-color="#FFE9EA"/>
<stop offset="0.99" stop-color="#7E459F"/>
</linearGradient>
<linearGradient id="paint8_linear_332_1180" x1="349.269" y1="129.307" x2="273.061" y2="170.294" gradientUnits="userSpaceOnUse">
<stop stop-color="#4A93FF"/>
<stop offset="0.98" stop-color="#66C3FF"/>
</linearGradient>
<linearGradient id="paint9_linear_332_1180" x1="310.312" y1="143.132" x2="310.325" y2="163.792" gradientUnits="userSpaceOnUse">
<stop stop-color="#A411A4"/>
<stop offset="0.93" stop-color="white"/>
</linearGradient>
<linearGradient id="paint10_linear_332_1180" x1="342.457" y1="164.415" x2="346.797" y2="164.415" gradientUnits="userSpaceOnUse">
<stop stop-color="#FF7763"/>
<stop offset="0.98" stop-color="#FFAE78"/>
</linearGradient>
<linearGradient id="paint11_linear_332_1180" x1="342.032" y1="184.344" x2="351.272" y2="184.344" gradientUnits="userSpaceOnUse">
<stop stop-color="#FF7763"/>
<stop offset="0.98" stop-color="#FFAE78"/>
</linearGradient>
<linearGradient id="paint12_linear_332_1180" x1="343.855" y1="203.015" x2="351.075" y2="203.015" gradientUnits="userSpaceOnUse">
<stop stop-color="#FF7763"/>
<stop offset="0.98" stop-color="#FFAE78"/>
</linearGradient>
<linearGradient id="paint13_linear_332_1180" x1="289.931" y1="218.056" x2="289.931" y2="153.982" gradientUnits="userSpaceOnUse">
<stop offset="0.03" stop-color="#FF9B86"/>
<stop offset="0.95" stop-color="#FFA670"/>
</linearGradient>
<linearGradient id="paint14_linear_332_1180" x1="286.851" y1="205.987" x2="286.851" y2="172.215" gradientUnits="userSpaceOnUse">
<stop stop-color="#DE5777"/>
<stop offset="1" stop-color="#FFE9EA"/>
</linearGradient>
<linearGradient id="paint15_linear_332_1180" x1="291.445" y1="240.477" x2="291.445" y2="229.965" gradientUnits="userSpaceOnUse">
<stop stop-color="#FFE9EA"/>
<stop offset="0.99" stop-color="#7E459F"/>
</linearGradient>
<linearGradient id="paint16_linear_332_1180" x1="251.077" y1="263.837" x2="251.077" y2="233.775" gradientUnits="userSpaceOnUse">
<stop stop-color="#FFE9EA"/>
<stop offset="0.99" stop-color="#7E459F"/>
</linearGradient>
<radialGradient id="paint17_radial_332_1180" cx="0" cy="0" r="1" gradientUnits="userSpaceOnUse" gradientTransform="translate(250.515 260.047) scale(50.9612 50.8279)">
<stop stop-color="#8E47B8"/>
<stop offset="1" stop-color="white"/>
</radialGradient>
<linearGradient id="paint18_linear_332_1180" x1="140.125" y1="291.505" x2="268.828" y2="291.505" gradientUnits="userSpaceOnUse">
<stop stop-color="#331457"/>
<stop offset="0.48" stop-color="#1D0741"/>
<stop offset="0.98" stop-color="#4A2589"/>
</linearGradient>
<linearGradient id="paint19_linear_332_1180" x1="164.278" y1="287.575" x2="220.739" y2="287.575" gradientUnits="userSpaceOnUse">
<stop offset="0.02" stop-color="#FF8D5B"/>
<stop offset="1" stop-color="#FF6F6B"/>
</linearGradient>
<linearGradient id="paint20_linear_332_1180" x1="183.021" y1="312.092" x2="183.021" y2="155.439" gradientUnits="userSpaceOnUse">
<stop offset="0.02" stop-color="#66008B"/>
<stop offset="0.19" stop-color="#640A95"/>
<stop offset="1" stop-color="#593BC8"/>
</linearGradient>
<linearGradient id="paint21_linear_332_1180" x1="175.493" y1="312.091" x2="175.493" y2="200.781" gradientUnits="userSpaceOnUse">
<stop stop-color="#7E459F"/>
<stop offset="1" stop-color="#FFE9EA"/>
</linearGradient>
<linearGradient id="paint22_linear_332_1180" x1="145.763" y1="170.32" x2="182.163" y2="170.32" gradientUnits="userSpaceOnUse">
<stop stop-color="#331457"/>
<stop offset="0.48" stop-color="#1D0741"/>
<stop offset="0.98" stop-color="#4A2589"/>
</linearGradient>
<linearGradient id="paint23_linear_332_1180" x1="129.139" y1="33.8548" x2="129.139" y2="0.00278044" gradientUnits="userSpaceOnUse">
<stop stop-color="#B60083"/>
<stop offset="1" stop-color="#E10088"/>
</linearGradient>
<linearGradient id="paint24_linear_332_1180" x1="133.145" y1="20.9283" x2="133.145" y2="3.27417" gradientUnits="userSpaceOnUse">
<stop stop-color="white"/>
<stop offset="1" stop-color="#C22F9B"/>
</linearGradient>
<linearGradient id="paint25_linear_332_1180" x1="85.6206" y1="131.7" x2="90.8136" y2="68.1833" gradientUnits="userSpaceOnUse">
<stop stop-color="#B60083"/>
<stop offset="1" stop-color="#E10088"/>
</linearGradient>
<linearGradient id="paint26_linear_332_1180" x1="164.264" y1="156.217" x2="164.264" y2="12.6299" gradientUnits="userSpaceOnUse">
<stop stop-color="#B60083"/>
<stop offset="1" stop-color="#E10088"/>
</linearGradient>
<linearGradient id="paint27_linear_332_1180" x1="211.218" y1="77.3817" x2="211.218" y2="35.9294" gradientUnits="userSpaceOnUse">
<stop stop-color="white"/>
<stop offset="1" stop-color="#862F9B"/>
</linearGradient>
<linearGradient id="paint28_linear_332_1180" x1="147.061" y1="9.29859" x2="153.014" y2="25.0281" gradientUnits="userSpaceOnUse">
<stop stop-color="white"/>
<stop offset="1" stop-color="#C22F9B"/>
</linearGradient>
<linearGradient id="paint29_linear_332_1180" x1="214.758" y1="143.55" x2="214.758" y2="57.3737" gradientUnits="userSpaceOnUse">
<stop stop-color="white"/>
<stop offset="1" stop-color="#C22F9B"/>
</linearGradient>
<linearGradient id="paint30_linear_332_1180" x1="112.615" y1="154.581" x2="112.615" y2="32.8973" gradientUnits="userSpaceOnUse">
<stop stop-color="white"/>
<stop offset="1" stop-color="#C22F9B"/>
</linearGradient>
<linearGradient id="paint31_linear_332_1180" x1="172.835" y1="48.8957" x2="172.835" y2="156.197" gradientUnits="userSpaceOnUse">
<stop stop-color="white"/>
<stop offset="1" stop-color="#862F9B"/>
</linearGradient>
<linearGradient id="paint32_linear_332_1180" x1="164.08" y1="180.553" x2="164.08" y2="120.091" gradientUnits="userSpaceOnUse">
<stop offset="0.02" stop-color="#FF8D5B"/>
<stop offset="1" stop-color="#FF6F6B"/>
</linearGradient>
<linearGradient id="paint33_linear_332_1180" x1="119.892" y1="111.57" x2="119.911" y2="80.789" gradientUnits="userSpaceOnUse">
<stop offset="0.02" stop-color="#FF705B"/>
<stop offset="0.99" stop-color="#FF9063"/>
</linearGradient>
<radialGradient id="paint34_radial_332_1180" cx="0" cy="0" r="1" gradientUnits="userSpaceOnUse" gradientTransform="translate(168.624 109.957) scale(57.4213 57.2711)">
<stop offset="0.02" stop-color="#FFA774"/>
<stop offset="1" stop-color="#FF9B91"/>
</radialGradient>
<linearGradient id="paint35_linear_332_1180" x1="152.604" y1="113.269" x2="115.647" y2="101.416" gradientUnits="userSpaceOnUse">
<stop stop-color="#B60083"/>
<stop offset="1" stop-color="#E10088"/>
</linearGradient>
<linearGradient id="paint36_linear_332_1180" x1="171.658" y1="71.6166" x2="171.658" y2="14.6048" gradientUnits="userSpaceOnUse">
<stop stop-color="#B60083"/>
<stop offset="1" stop-color="#E10088"/>
</linearGradient>
<linearGradient id="paint37_linear_332_1180" x1="129.611" y1="95.5363" x2="111.648" y2="94.3905" gradientUnits="userSpaceOnUse">
<stop stop-color="#FFE9EA"/>
<stop offset="0.99" stop-color="#DE5777"/>
</linearGradient>
<linearGradient id="paint38_linear_332_1180" x1="-586.608" y1="54.3502" x2="116.772" y2="99.2135" gradientUnits="userSpaceOnUse">
<stop stop-color="#FFE9EA"/>
<stop offset="0.99" stop-color="#DE5777"/>
</linearGradient>
<linearGradient id="paint39_linear_332_1180" x1="158.499" y1="101.459" x2="158.499" y2="58.6705" gradientUnits="userSpaceOnUse">
<stop stop-color="white"/>
<stop offset="1" stop-color="#DC5E7E"/>
</linearGradient>
<linearGradient id="paint40_linear_332_1180" x1="199.128" y1="98.6265" x2="199.128" y2="54.9799" gradientUnits="userSpaceOnUse">
<stop stop-color="white"/>
<stop offset="1" stop-color="#DC5E7E"/>
</linearGradient>
<linearGradient id="paint41_linear_332_1180" x1="158.084" y1="76.3045" x2="158.084" y2="53.8629" gradientUnits="userSpaceOnUse">
<stop offset="0.02" stop-color="#DB3440"/>
<stop offset="1" stop-color="#922046"/>
</linearGradient>
<linearGradient id="paint42_linear_332_1180" x1="201.261" y1="65.6921" x2="201.261" y2="51.0302" gradientUnits="userSpaceOnUse">
<stop offset="0.02" stop-color="#DB3440"/>
<stop offset="1" stop-color="#922046"/>
</linearGradient>
<linearGradient id="paint43_linear_332_1180" x1="146.805" y1="95.4945" x2="168.345" y2="95.4945" gradientUnits="userSpaceOnUse">
<stop stop-color="#CA00A4"/>
<stop offset="1" stop-color="white"/>
</linearGradient>
<radialGradient id="paint44_radial_332_1180" cx="0" cy="0" r="1" gradientUnits="userSpaceOnUse" gradientTransform="translate(159.303 87.1362) scale(12.7603 12.7269)">
<stop offset="0.03" stop-color="#FFD9CC"/>
<stop offset="0.98" stop-color="#FFCED3"/>
</radialGradient>
<linearGradient id="paint45_linear_332_1180" x1="193.492" y1="95.1556" x2="203.752" y2="95.1556" gradientUnits="userSpaceOnUse">
<stop stop-color="#CA00A4"/>
<stop offset="1" stop-color="white"/>
</linearGradient>
<radialGradient id="paint46_radial_332_1180" cx="0" cy="0" r="1" gradientUnits="userSpaceOnUse" gradientTransform="translate(198.462 85.1218) scale(9.76022 9.7347)">
<stop offset="0.03" stop-color="#FFD9CC"/>
<stop offset="0.98" stop-color="#FFCED3"/>
</radialGradient>
<linearGradient id="paint47_linear_332_1180" x1="165.328" y1="117.382" x2="165.599" y2="112.083" gradientUnits="userSpaceOnUse">
<stop stop-color="#FFE9EA"/>
<stop offset="0.99" stop-color="#DE5777"/>
</linearGradient>
<linearGradient id="paint48_linear_332_1180" x1="157.363" y1="96.8513" x2="157.363" y2="77.9404" gradientUnits="userSpaceOnUse">
<stop offset="0.02" stop-color="#8C7CA2"/>
<stop offset="1" stop-color="#774C6E"/>
</linearGradient>
<linearGradient id="paint49_linear_332_1180" x1="189.97" y1="93.6129" x2="191.792" y2="75.3368" gradientUnits="userSpaceOnUse">
<stop offset="0.02" stop-color="#8C7CA2"/>
<stop offset="1" stop-color="#774C6E"/>
</linearGradient>
<linearGradient id="paint50_linear_332_1180" x1="187.531" y1="102.038" x2="187.531" y2="111.094" gradientUnits="userSpaceOnUse">
<stop stop-color="white"/>
<stop offset="0.99" stop-color="#CA00A4"/>
</linearGradient>
<linearGradient id="paint51_linear_332_1180" x1="180.664" y1="94.1782" x2="194.344" y2="94.1782" gradientUnits="userSpaceOnUse">
<stop offset="0.39" stop-color="#FFE9EA"/>
<stop offset="0.99" stop-color="#DE5777"/>
</linearGradient>
<linearGradient id="paint52_linear_332_1180" x1="181.027" y1="108.436" x2="186.767" y2="110.206" gradientUnits="userSpaceOnUse">
<stop stop-color="#CA00A4"/>
<stop offset="1" stop-color="white"/>
</linearGradient>
<linearGradient id="paint53_linear_332_1180" x1="192.634" y1="108.811" x2="196.733" y2="109.119" gradientUnits="userSpaceOnUse">
<stop stop-color="#CA00A4"/>
<stop offset="1" stop-color="white"/>
</linearGradient>
<linearGradient id="paint54_linear_332_1180" x1="198.632" y1="16.9189" x2="198.632" y2="44.2877" gradientUnits="userSpaceOnUse">
<stop stop-color="white"/>
<stop offset="1" stop-color="#C22F9B"/>
</linearGradient>
<linearGradient id="paint55_linear_332_1180" x1="183.894" y1="17.597" x2="183.894" y2="48.1975" gradientUnits="userSpaceOnUse">
<stop stop-color="white"/>
<stop offset="1" stop-color="#C22F9B"/>
</linearGradient>
<linearGradient id="paint56_linear_332_1180" x1="157.845" y1="20.9282" x2="157.845" y2="50.9502" gradientUnits="userSpaceOnUse">
<stop stop-color="white"/>
<stop offset="1" stop-color="#C22F9B"/>
</linearGradient>
<linearGradient id="paint57_linear_332_1180" x1="143.791" y1="25.5964" x2="143.791" y2="60.7451" gradientUnits="userSpaceOnUse">
<stop stop-color="white"/>
<stop offset="1" stop-color="#C22F9B"/>
</linearGradient>
<linearGradient id="paint58_linear_332_1180" x1="182.889" y1="126.713" x2="134.328" y2="126.713" gradientUnits="userSpaceOnUse">
<stop stop-color="#FFE9EA"/>
<stop offset="0.99" stop-color="#DE5777"/>
</linearGradient>
<linearGradient id="paint59_linear_332_1180" x1="194.221" y1="136.727" x2="163.94" y2="136.727" gradientUnits="userSpaceOnUse">
<stop stop-color="#DC5E7E"/>
<stop offset="1" stop-color="white"/>
</linearGradient>
<linearGradient id="paint60_linear_332_1180" x1="109.186" y1="17.617" x2="128.226" y2="17.617" gradientUnits="userSpaceOnUse">
<stop stop-color="white"/>
<stop offset="1" stop-color="#C22F9B"/>
</linearGradient>
<linearGradient id="paint61_linear_332_1180" x1="214.828" y1="707.244" x2="234.929" y2="707.244" gradientUnits="userSpaceOnUse">
<stop offset="0.02" stop-color="#FF8D5B"/>
<stop offset="1" stop-color="#FF6F6B"/>
</linearGradient>
<linearGradient id="paint62_linear_332_1180" x1="87.6232" y1="706.746" x2="111.884" y2="706.746" gradientUnits="userSpaceOnUse">
<stop offset="0.02" stop-color="#FF8D5B"/>
<stop offset="1" stop-color="#FF6F6B"/>
</linearGradient>
<radialGradient id="paint63_radial_332_1180" cx="0" cy="0" r="1" gradientUnits="userSpaceOnUse" gradientTransform="translate(171.743 498.607) scale(156.204 155.795)">
<stop stop-color="#5C47B6"/>
<stop offset="1" stop-color="#5A34B5"/>
</radialGradient>
<linearGradient id="paint64_linear_332_1180" x1="96.7018" y1="395.355" x2="96.7018" y2="245.445" gradientUnits="userSpaceOnUse">
<stop stop-color="#FE1331"/>
<stop offset="0.92" stop-color="#FE30B1"/>
</linearGradient>
<linearGradient id="paint65_linear_332_1180" x1="19.6157" y1="424.519" x2="40.1761" y2="424.519" gradientUnits="userSpaceOnUse">
<stop offset="0.02" stop-color="#FF8D5B"/>
<stop offset="1" stop-color="#FF6F6B"/>
</linearGradient>
<linearGradient id="paint66_linear_332_1180" x1="32.3791" y1="432.419" x2="32.3791" y2="412.63" gradientUnits="userSpaceOnUse">
<stop stop-color="#FFE9EA"/>
<stop offset="0.99" stop-color="#DE5777"/>
</linearGradient>
<linearGradient id="paint67_linear_332_1180" x1="22.2969" y1="418.535" x2="40.1773" y2="418.535" gradientUnits="userSpaceOnUse">
<stop stop-color="#FFE9EA"/>
<stop offset="0.99" stop-color="#DE5777"/>
</linearGradient>
<linearGradient id="paint68_linear_332_1180" x1="0.000706813" y1="414.206" x2="73.4424" y2="414.206" gradientUnits="userSpaceOnUse">
<stop stop-color="#FDB683"/>
<stop offset="0.99" stop-color="#FC8766"/>
</linearGradient>
<linearGradient id="paint69_linear_332_1180" x1="254.367" y1="701.559" x2="254.367" y2="776.385" gradientUnits="userSpaceOnUse">
<stop stop-color="#D191FF"/>
<stop offset="1" stop-color="#CF95FF"/>
</linearGradient>
<linearGradient id="paint70_linear_332_1180" x1="200.53" y1="761.882" x2="308.213" y2="761.882" gradientUnits="userSpaceOnUse">
<stop stop-color="#FFC4BA"/>
<stop offset="1" stop-color="#FFE7E5"/>
</linearGradient>
<linearGradient id="paint71_linear_332_1180" x1="113.464" y1="704.791" x2="113.464" y2="786" gradientUnits="userSpaceOnUse">
<stop stop-color="#D191FF"/>
<stop offset="1" stop-color="#CF95FF"/>
</linearGradient>
<linearGradient id="paint72_linear_332_1180" x1="113.468" y1="786" x2="113.468" y2="759.329" gradientUnits="userSpaceOnUse">
<stop stop-color="#FFC4BA"/>
<stop offset="1" stop-color="#FFE7E5"/>
</linearGradient>
<linearGradient id="paint73_linear_332_1180" x1="129.042" y1="539.7" x2="129.042" y2="518.096" gradientUnits="userSpaceOnUse">
<stop stop-color="#FFE9EA"/>
<stop offset="0.99" stop-color="#7E459F"/>
</linearGradient>
<linearGradient id="paint74_linear_332_1180" x1="152.624" y1="551.549" x2="152.624" y2="545.106" gradientUnits="userSpaceOnUse">
<stop stop-color="#FFE9EA"/>
<stop offset="0.99" stop-color="#7E459F"/>
</linearGradient>
<linearGradient id="paint75_linear_332_1180" x1="244.308" y1="576.903" x2="244.308" y2="544.547" gradientUnits="userSpaceOnUse">
<stop stop-color="#FFE9EA"/>
<stop offset="0.99" stop-color="#7E459F"/>
</linearGradient>
<linearGradient id="paint76_linear_332_1180" x1="162.624" y1="358.531" x2="162.624" y2="338.603" gradientUnits="userSpaceOnUse">
<stop stop-color="#FFE9EA"/>
<stop offset="0.99" stop-color="#7E459F"/>
</linearGradient>
<linearGradient id="paint77_linear_332_1180" x1="237.02" y1="339.8" x2="237.02" y2="323.023" gradientUnits="userSpaceOnUse">
<stop stop-color="#FFE9EA"/>
<stop offset="0.99" stop-color="#7E459F"/>
</linearGradient>
<linearGradient id="paint78_linear_332_1180" x1="94.4382" y1="277.062" x2="94.4382" y2="254.76" gradientUnits="userSpaceOnUse">
<stop stop-color="#FFE9EA"/>
<stop offset="0.99" stop-color="#7E459F"/>
</linearGradient>
<linearGradient id="paint79_linear_332_1180" x1="144.499" y1="195.175" x2="144.499" y2="170.519" gradientUnits="userSpaceOnUse">
<stop stop-color="#FFE9EA"/>
<stop offset="0.99" stop-color="#7E459F"/>
</linearGradient>
<linearGradient id="paint80_linear_332_1180" x1="165.68" y1="201.499" x2="165.68" y2="159.448" gradientUnits="userSpaceOnUse">
<stop stop-color="#FFE9EA"/>
<stop offset="0.99" stop-color="#7E459F"/>
</linearGradient>
<linearGradient id="paint81_linear_332_1180" x1="213.504" y1="214.206" x2="213.504" y2="184.443" gradientUnits="userSpaceOnUse">
<stop stop-color="#FFE9EA"/>
<stop offset="0.99" stop-color="#7E459F"/>
</linearGradient>
<linearGradient id="paint82_linear_332_1180" x1="137.887" y1="308.76" x2="137.887" y2="289.71" gradientUnits="userSpaceOnUse">
<stop stop-color="#FFE9EA"/>
<stop offset="0.99" stop-color="#7E459F"/>
</linearGradient>
<linearGradient id="paint83_linear_332_1180" x1="105.078" y1="691.066" x2="121.218" y2="691.066" gradientUnits="userSpaceOnUse">
<stop stop-color="#FFE9EA"/>
<stop offset="0.99" stop-color="#7E459F"/>
</linearGradient>
<linearGradient id="paint84_linear_332_1180" x1="207.622" y1="686.877" x2="224.882" y2="686.877" gradientUnits="userSpaceOnUse">
<stop stop-color="#FFE9EA"/>
<stop offset="0.99" stop-color="#7E459F"/>
</linearGradient>
<linearGradient id="paint85_linear_332_1180" x1="229.688" y1="685.68" x2="239.828" y2="685.68" gradientUnits="userSpaceOnUse">
<stop stop-color="#FFE9EA"/>
<stop offset="0.99" stop-color="#7E459F"/>
</linearGradient>
<linearGradient id="paint86_linear_332_1180" x1="198.404" y1="325.577" x2="198.404" y2="304.212" gradientUnits="userSpaceOnUse">
<stop stop-color="#8E47B8"/>
<stop offset="1" stop-color="white"/>
</linearGradient>
<linearGradient id="paint87_linear_332_1180" x1="175.227" y1="398.347" x2="250.608" y2="398.347" gradientUnits="userSpaceOnUse">
<stop stop-color="white"/>
<stop offset="0.48" stop-color="#8E47B8"/>
<stop offset="1" stop-color="white"/>
</linearGradient>
<linearGradient id="paint88_linear_332_1180" x1="122.744" y1="681.272" x2="122.744" y2="533.376" gradientUnits="userSpaceOnUse">
<stop stop-color="#FFE9EA"/>
<stop offset="0.99" stop-color="#7E459F"/>
</linearGradient>
<linearGradient id="paint89_linear_332_1180" x1="225.775" y1="673.732" x2="225.775" y2="537.865" gradientUnits="userSpaceOnUse">
<stop stop-color="#FFE9EA"/>
<stop offset="0.99" stop-color="#7E459F"/>
</linearGradient>
<linearGradient id="paint90_linear_332_1180" x1="217.046" y1="409.498" x2="217.046" y2="322.145" gradientUnits="userSpaceOnUse">
<stop stop-color="#8E47B8"/>
<stop offset="1" stop-color="white"/>
</linearGradient>
<linearGradient id="paint91_linear_332_1180" x1="133.703" y1="244.906" x2="227.125" y2="244.906" gradientUnits="userSpaceOnUse">
<stop stop-color="#7E459F"/>
<stop offset="1" stop-color="#FFE9EA"/>
</linearGradient>
<linearGradient id="paint92_linear_332_1180" x1="191.806" y1="270.16" x2="268.828" y2="270.16" gradientUnits="userSpaceOnUse">
<stop/>
<stop offset="1" stop-color="#4C5689"/>
</linearGradient>
<linearGradient id="paint93_linear_332_1180" x1="202.222" y1="199.444" x2="222.483" y2="199.444" gradientUnits="userSpaceOnUse">
<stop stop-color="#7E459F"/>
<stop offset="1" stop-color="#FFE9EA"/>
</linearGradient>
<linearGradient id="paint94_linear_332_1180" x1="133.257" y1="286.658" x2="133.257" y2="223.223" gradientUnits="userSpaceOnUse">
<stop stop-color="#7E459F"/>
<stop offset="1" stop-color="#FFE9EA"/>
</linearGradient>
<linearGradient id="paint95_linear_332_1180" x1="119.579" y1="292.343" x2="119.579" y2="245.445" gradientUnits="userSpaceOnUse">
<stop stop-color="#7E459F"/>
<stop offset="1" stop-color="#FFE9EA"/>
</linearGradient>
<linearGradient id="paint96_linear_332_1180" x1="119.28" y1="314.884" x2="119.28" y2="286.598" gradientUnits="userSpaceOnUse">
<stop stop-color="#FFE9EA"/>
<stop offset="0.99" stop-color="#7E459F"/>
</linearGradient>
<linearGradient id="paint97_linear_332_1180" x1="48.8003" y1="417.537" x2="70.9408" y2="417.537" gradientUnits="userSpaceOnUse">
<stop stop-color="#DE5777"/>
<stop offset="1" stop-color="#FFE9EA"/>
</linearGradient>
<linearGradient id="paint98_linear_332_1180" x1="70.4412" y1="390.647" x2="70.4412" y2="364.336" gradientUnits="userSpaceOnUse">
<stop stop-color="#FFE9EA"/>
<stop offset="0.99" stop-color="#7E459F"/>
</linearGradient>
<linearGradient id="paint99_linear_332_1180" x1="101.09" y1="369.841" x2="101.09" y2="335.511" gradientUnits="userSpaceOnUse">
<stop stop-color="#FFE9EA"/>
<stop offset="0.99" stop-color="#7E459F"/>
</linearGradient>
<linearGradient id="paint100_linear_332_1180" x1="151.98" y1="219.293" x2="218.621" y2="219.293" gradientUnits="userSpaceOnUse">
<stop stop-color="#5BABF1"/>
<stop offset="1" stop-color="#90B6FF"/>
</linearGradient>
<linearGradient id="paint101_linear_332_1180" x1="150.081" y1="214.206" x2="158.821" y2="214.206" gradientUnits="userSpaceOnUse">
<stop stop-color="#5BABF1"/>
<stop offset="1" stop-color="#90B6FF"/>
</linearGradient>
<linearGradient id="paint102_linear_332_1180" x1="192.139" y1="322.37" x2="213.479" y2="311.501" gradientUnits="userSpaceOnUse">
<stop stop-color="#8E47B8"/>
<stop offset="1" stop-color="white"/>
</linearGradient>
<linearGradient id="paint103_linear_332_1180" x1="198.122" y1="314.936" x2="200.323" y2="319.28" gradientUnits="userSpaceOnUse">
<stop stop-color="#331457"/>
<stop offset="0.48" stop-color="#1D0741"/>
<stop offset="0.98" stop-color="#4A2589"/>
</linearGradient>
<linearGradient id="paint104_linear_332_1180" x1="198.797" y1="315.913" x2="201.801" y2="321.842" gradientUnits="userSpaceOnUse">
<stop stop-color="#8E47B8"/>
<stop offset="1" stop-color="white"/>
</linearGradient>
<linearGradient id="paint105_linear_332_1180" x1="209.344" y1="324.26" x2="209.344" y2="394.757" gradientUnits="userSpaceOnUse">
<stop stop-color="#8E47B8"/>
<stop offset="1" stop-color="white"/>
</linearGradient>
<linearGradient id="paint106_linear_332_1180" x1="127.358" y1="559.987" x2="145.998" y2="559.987" gradientUnits="userSpaceOnUse">
<stop stop-color="#8E47B8"/>
<stop offset="1" stop-color="white"/>
</linearGradient>
<linearGradient id="paint107_linear_332_1180" x1="221.852" y1="562.979" x2="246.093" y2="562.979" gradientUnits="userSpaceOnUse">
<stop stop-color="#8E47B8"/>
<stop offset="1" stop-color="white"/>
</linearGradient>
<linearGradient id="paint108_linear_332_1180" x1="141.93" y1="355.738" x2="178.091" y2="355.738" gradientUnits="userSpaceOnUse">
<stop stop-color="#8E47B8"/>
<stop offset="1" stop-color="white"/>
</linearGradient>
<linearGradient id="paint109_linear_332_1180" x1="251.067" y1="260.426" x2="135.845" y2="260.426" gradientUnits="userSpaceOnUse">
<stop stop-color="#FFE9EA"/>
<stop offset="0.99" stop-color="#7E459F"/>
</linearGradient>
<linearGradient id="paint110_linear_332_1180" x1="191.797" y1="207.204" x2="207.057" y2="207.204" gradientUnits="userSpaceOnUse">
<stop stop-color="#FFE9EA"/>
<stop offset="0.99" stop-color="#7E459F"/>
</linearGradient>
<linearGradient id="paint111_linear_332_1180" x1="0.000706813" y1="423.262" x2="41.5617" y2="423.262" gradientUnits="userSpaceOnUse">
<stop stop-color="#DE5777"/>
<stop offset="1" stop-color="#FFE9EA"/>
</linearGradient>
</defs>
</svg>
