<svg width="305" height="784" viewBox="0 0 305 784" fill="none" xmlns="http://www.w3.org/2000/svg">
<path d="M97.955 297.341C97.955 297.341 88.5737 341.753 84.832 355.201C81.0903 368.65 75.4507 380.227 74.8271 381.474C74.2035 382.721 77.0233 387.412 77.0233 387.412L74.7458 423.365L100.721 390.123C100.721 390.123 99.2293 382.071 94.5387 378.329C94.5387 378.329 104.354 347.691 115.064 328.928C125.801 310.166 123.93 300.784 123.93 300.784C123.93 300.784 108.611 288.909 97.9821 297.341H97.955Z" fill="#FFF0DD"/>
<path d="M81.3525 488.135C81.3525 488.135 68.2607 498.442 85.4507 503.133C102.641 507.824 100.689 493.03 100.689 493.03L137.617 436L100.689 390.151L74.9307 420.111C74.9307 420.111 70.5925 424.721 71.0534 427.459C71.5143 430.198 74.7137 435.837 74.7137 435.837C74.7137 435.837 75.0933 449.746 74.7137 455.332C74.3341 460.917 79.1276 470.336 79.1276 470.336L81.3525 488.135Z" fill="#FFF0DD"/>
<g style="mix-blend-mode:multiply">
<path d="M101.966 393.215C101.966 393.215 90.5788 415.149 83.7462 437.925C83.7462 437.925 98.1435 407.693 101.966 406.636C105.789 405.578 73.904 457.528 73.904 457.528C73.904 457.528 96.6793 429.004 101.343 430.414C106.006 431.824 128.077 452.892 128.077 452.892L129.026 448.852L133.906 433.478C128.972 425.263 112.975 412.709 112.975 412.709L101.966 393.242V393.215Z" fill="#FFF0DD"/>
</g>
<path fill-rule="evenodd" clip-rule="evenodd" d="M61.0976 740.925C61.0976 740.925 61.8352 741.211 63.1465 741.744C71.137 744.899 100.681 757.152 116.458 770.797V764.486L121.088 763.954C121.088 763.954 120.555 746.415 124.653 738.22L118.056 722.854C118.056 722.854 136.987 677.123 129.98 625.738L112.729 594.104L115.597 590.416L112.729 584.27C112.729 584.27 131.209 492.194 146.412 460.97L155.877 463.715C155.877 463.715 171.899 537.843 203.943 591.236L217.917 607.258C217.917 607.258 237.626 664.789 245.453 723.141L239.716 730.107L245.453 739.163V744.899C245.453 744.899 270.941 742.441 299.707 760.102C299.707 760.102 305.607 747.645 304.624 745.842C303.681 744.08 291.757 731.746 291.757 730.394C291.757 729.738 292.781 728.713 293.888 727.607C295.158 726.378 296.51 725.066 296.551 724.083C296.674 722.321 303.272 639.998 272.006 595.415C272.006 595.415 255.574 582.59 250.083 573.82L249.141 568.002L246.273 564.109L214.638 446.997L217.097 442.079L213.778 418.559L212.63 410.65L212.549 410.035C212.549 410.035 207.058 410.445 198.207 411.265C183.004 412.699 157.967 415.444 134.283 419.706H134.16C117.154 422.779 120.057 395.722 108.501 400.475C108.501 400.475 83.7169 445.972 78.7177 474.246C74.1283 500.267 70.0306 537.843 71.1779 586.278L79.5782 605.25C79.5782 605.25 79.5782 605.25 79.5782 605.332L80.07 606.479C80.07 606.479 80.07 607.094 80.07 608.282C79.947 619.674 78.9636 681.672 70.9731 713.306C70.9731 713.306 62.163 716.052 61.0567 717.691L60.9337 718.018C60.0732 721.256 61.0567 740.966 61.0567 740.966L61.0976 740.925Z" fill="#FFF0DD"/>
<path fill-rule="evenodd" clip-rule="evenodd" d="M116.417 770.797L119.695 784.77H0.944046C0.944046 784.77 -0.899918 776.329 5.04175 766.085C5.04175 766.085 27.9479 770.347 63.0241 741.704C63.0241 741.704 99.9444 753.136 116.376 770.797H116.417Z" fill="#FFF0DD"/>
<path fill-rule="evenodd" clip-rule="evenodd" d="M249.143 744.818C249.143 744.818 245.251 755.431 229.843 767.929V786H300.119C300.119 786 301.348 775.837 297.045 758.504C297.045 758.504 279.589 744.654 249.184 744.777L249.143 744.818Z" fill="#FFF0DD"/>
<path fill-rule="evenodd" clip-rule="evenodd" d="M25.7351 763.258C25.7351 763.258 34.791 767.519 36.4301 778.214L117.401 774.936L119.695 784.77H0.944046C0.944046 784.77 -1.80141 775.469 5.04175 766.085C5.04175 766.085 17.7856 766.29 25.7351 763.258Z" fill="#FFF0DD"/>
<path fill-rule="evenodd" clip-rule="evenodd" d="M232.83 765.388C232.83 765.388 254.507 749.817 295.607 773.994L299.459 770.797C299.459 770.797 301.508 779.689 300.156 786H229.88V767.929L232.871 765.388H232.83Z" fill="#FFF0DD"/>
<g style="mix-blend-mode:multiply" opacity="0.6">
<path fill-rule="evenodd" clip-rule="evenodd" d="M287.082 743.203C277.494 738.532 239.713 734.557 239.713 734.557L245.45 743.613V749.35C245.45 749.35 270.937 746.891 299.703 764.552C291.221 750.866 259.423 743.203 259.423 743.203H287.082Z" fill="#FFF0DD"/>
</g>
<g style="mix-blend-mode:multiply" opacity="0.5">
<path fill-rule="evenodd" clip-rule="evenodd" d="M96.0921 695.399C98.3458 700.931 118.056 722.854 118.056 722.854C118.056 722.854 136.987 677.123 129.98 625.738L112.729 594.104L115.597 590.416L112.729 584.27C112.729 584.27 131.209 492.194 146.412 460.97L155.877 463.715C155.877 463.715 171.899 537.843 203.943 591.236L217.917 607.258C217.917 607.258 237.627 664.789 245.453 723.141L251.19 721.911L248.322 673.845L266.188 721.911C266.188 721.911 265.163 698.882 255.697 669.338C246.232 639.793 226.727 603.98 226.727 603.98L230.619 596.153L233.283 581.975L226.891 596.153H220.744L206.361 583.819C179.234 536.163 167.392 468.633 167.392 468.633C182.594 455.52 204.312 460.56 204.312 460.56L229.39 520.55L214.597 467.526V446.956L217.056 442.039L212.631 410.609L134.242 419.665H134.119C117.113 422.738 118.722 398.392 107.167 403.145C107.167 403.145 83.6761 445.931 78.6769 474.205L99.9439 493.383C101.542 526.984 81.4633 590.375 81.4633 590.375L77.3656 592.014L71.1781 586.237L79.5783 605.209C79.5783 605.209 79.5783 605.209 79.5783 605.291C79.5783 605.537 79.7832 606.561 80.0701 608.241C82.6106 623.362 94.0022 690.441 96.0511 695.399H96.0921Z" fill="#FFF0DD"/>
</g>
<g style="mix-blend-mode:multiply" opacity="0.6">
<path fill-rule="evenodd" clip-rule="evenodd" d="M63.0678 741.704H63.1498C71.1403 744.9 100.685 757.152 116.461 770.797V764.487L121.091 763.954C121.091 763.954 120.559 746.416 124.656 738.221L118.059 722.854L121.624 732.443C121.624 732.443 87.0803 723.961 87.9409 728.345C88.7604 732.73 114.248 753.013 114.248 753.013L110.109 754.652C88.4736 742.605 63.0269 741.704 63.0269 741.704H63.0678Z" fill="#FFF0DD"/>
</g>
<g style="mix-blend-mode:multiply" opacity="0.6">
<path fill-rule="evenodd" clip-rule="evenodd" d="M61.101 740.926C61.101 740.926 61.8386 741.213 63.1499 741.745C71.1404 744.901 100.685 757.153 116.461 770.798V764.488L121.091 763.955C121.091 763.955 120.559 746.417 124.656 738.221L118.059 722.855C118.059 722.855 136.99 677.125 129.983 625.739L112.732 594.105L115.6 590.417L112.732 584.271C112.732 584.271 131.213 492.196 146.415 460.971L155.881 463.717L150.103 452.776L213.781 418.56L198.21 411.266C183.008 412.7 157.971 415.446 134.286 419.707H134.163C117.158 422.78 124.955 385.488 113.4 390.241C113.4 390.241 83.8845 444.973 78.7211 474.248C74.1317 500.268 70.034 537.844 71.1814 586.279L79.5816 605.251C79.5816 605.251 79.5816 605.251 79.5816 605.333L80.0733 606.48C80.0733 606.48 80.0733 607.095 80.0733 608.283C79.9504 619.675 78.967 681.673 70.9765 713.307L99.9472 723.183C99.9472 723.183 69.7881 722.281 61.0191 717.692L60.8961 718.02C60.0356 721.257 61.0191 740.967 61.0191 740.967L61.101 740.926Z" fill="#FFF0DD"/>
</g>
<g style="mix-blend-mode:multiply" opacity="0.6">
<path fill-rule="evenodd" clip-rule="evenodd" d="M296.547 724.084C296.547 724.084 276.263 721.338 269.707 722.854L291.753 730.394L296.547 724.084Z" fill="#FFF0DD"/>
</g>
<g style="mix-blend-mode:multiply" opacity="0.5">
<path fill-rule="evenodd" clip-rule="evenodd" d="M229.842 767.929L295.569 773.994L299.421 770.798L300.117 786H229.842V767.929Z" fill="#FFF0DD"/>
</g>
<g style="mix-blend-mode:multiply" opacity="0.5">
<path fill-rule="evenodd" clip-rule="evenodd" d="M13.6879 784.77V776.985L36.4301 778.214L117.401 774.936L119.695 784.77H13.6879Z" fill="#FFF0DD"/>
</g>
<g style="mix-blend-mode:soft-light">
<path fill-rule="evenodd" clip-rule="evenodd" d="M229.427 520.551C229.427 520.551 239.876 564.314 236.598 573.165L226.927 596.153H220.781L206.398 583.819C206.398 583.819 174.886 523.952 167.429 468.633C167.429 468.633 182.549 455.233 204.349 460.56L229.427 520.551Z" fill="#FFF0DD"/>
</g>
<g style="mix-blend-mode:soft-light">
<path fill-rule="evenodd" clip-rule="evenodd" d="M287.086 738.753C287.086 738.753 270.818 723.305 266.188 721.912C261.557 720.518 245.412 723.141 245.412 723.141L239.676 730.107C239.676 730.107 264.631 732.115 287.045 738.753H287.086Z" fill="#FFF0DD"/>
</g>
<g style="mix-blend-mode:soft-light">
<path fill-rule="evenodd" clip-rule="evenodd" d="M71.0137 713.265L99.9844 723.141C99.9844 723.141 70.399 722.526 61.0562 717.65C61.0562 717.65 63.8837 714.658 70.9727 713.265H71.0137Z" fill="#FFF0DD"/>
</g>
<g style="mix-blend-mode:multiply" opacity="0.6">
<path fill-rule="evenodd" clip-rule="evenodd" d="M106.623 784.852C106.623 784.852 94.5759 769.24 80.5617 767.929C66.5476 766.618 37.2491 784.77 37.2491 784.77L106.664 784.852H106.623Z" fill="#FFF0DD"/>
</g>
<g style="mix-blend-mode:multiply" opacity="0.5">
<path fill-rule="evenodd" clip-rule="evenodd" d="M288.437 639.015C288.437 639.015 297.944 677.001 290.527 697.038C284.011 714.699 274.914 719.412 274.914 719.412C274.914 719.412 289.871 720.026 292.412 715.806C294.952 711.585 299.788 674.542 288.396 639.015H288.437Z" fill="#FFF0DD"/>
</g>
<path d="M171.732 117.904L173.63 133.982C175.528 134.28 177.318 134.362 178.918 134.307C185.832 134.145 190.034 131.569 190.034 131.569C186.374 136.124 179.677 135.256 179.677 135.256C179.677 135.256 191.878 143.336 198.168 134.497C204.431 125.631 206.899 108.902 206.899 108.902C210.722 123.57 226.258 124.791 226.258 124.791C208.959 115.111 204.404 98.9513 204.404 98.9513L178.999 103.154L171.705 117.877L171.732 117.904Z" fill="#FFF0DD"/>
<g style="mix-blend-mode:multiply">
<path d="M178.945 134.307C185.859 134.145 190.061 131.569 190.061 131.569C186.401 136.124 179.704 135.256 179.704 135.256C179.704 135.256 194.21 140.272 197.056 132.084C199.903 123.95 198.873 109.824 198.873 109.824L183.066 108.468C176.504 114.623 170.431 121.049 176.152 134.253L178.945 134.307Z" fill="#FFF0DD"/>
</g>
<path d="M111.08 191.652C111.08 191.652 105.142 206.348 102.024 222.914C98.9058 239.481 89.2805 292.352 89.2805 292.352L114.55 294.548C114.55 294.548 117.045 208.544 111.107 191.652H111.08Z" fill="#FFF0DD"/>
<path d="M174.691 112.779C174.691 112.779 178.189 141.465 178.948 147.701C179.735 153.965 189.414 159.279 189.414 159.279C189.414 159.279 179.572 185.389 160.023 188.372C140.474 191.354 140.799 167.576 140.799 167.576C140.799 167.576 149.72 157.733 150.018 155.374C150.316 153.016 149.855 145.993 149.855 145.993C149.855 145.993 165.717 130.864 174.691 112.779Z" fill="#FFF0DD"/>
<path d="M97.3361 380.227C108.29 418.051 134.861 440.257 167.696 449.34C200.53 458.423 222.495 454.979 222.495 453.109C222.495 451.238 217.805 448.716 217.805 448.716C217.805 448.716 215.849 421.196 213.355 402.732C210.861 384.294 199.581 345.983 202.889 322.991C206.17 300.025 250.501 197.997 242.068 188.616C233.636 179.262 195.162 160.662 195.162 160.662C195.162 160.662 194.457 155.049 192.83 154.914C191.176 154.778 187.326 157.923 187.326 157.923C187.326 157.923 168.807 189.728 153.488 185.525C138.169 181.295 144.676 163.102 144.676 163.102C143.755 160.58 142.995 159.577 142.372 159.523C142.236 159.469 142.101 159.523 141.965 159.604C140.501 160.445 139.932 166.139 139.932 166.139C139.227 166.708 138.494 167.305 137.762 167.955C126.89 176.984 111.164 191.653 111.164 191.653C112.113 200.709 115.231 281.073 113.008 303.279C110.839 325.485 107.395 368.813 107.395 368.813C107.395 368.813 103.816 366.318 102.406 367.403C100.996 368.487 101.457 377.408 101.457 377.408C101.457 377.408 99.4239 372.88 97.3904 372.88C95.3568 372.88 97.3904 380.227 97.3904 380.227H97.3361Z" fill="#FFF0DD"/>
<g style="mix-blend-mode:multiply" opacity="0.5">
<path d="M191.906 175.384C191.906 175.384 173.469 196.939 162.461 202.254C151.453 207.568 120.679 211.825 120.679 211.825C120.679 211.825 146.654 211.527 162.461 207.432C178.268 203.338 190.686 189.51 190.686 189.51L191.906 175.384Z" fill="#FFF0DD"/>
</g>
<g style="mix-blend-mode:multiply" opacity="0.5">
<path d="M200.507 299.591C200.507 299.591 191.397 275.786 188.117 271.366C184.836 266.947 159.051 248.021 159.051 248.021C159.051 248.021 187.574 260.439 192.265 265.13C196.956 269.821 202.758 299.374 202.758 299.374L200.507 299.564V299.591Z" fill="#FFF0DD"/>
</g>
<g style="mix-blend-mode:multiply">
<path d="M212.383 396.739C212.383 396.739 195.952 373.177 194.271 372.717C192.563 372.256 196.982 364.582 195.003 362.088C193.024 359.594 193.268 363.091 188.577 361.003C183.886 358.889 145.358 331.45 135.191 328.874C125.023 326.298 110.11 335.408 110.11 335.408L111.412 303.306L127.056 299.185L202.757 332.236C202.757 332.236 202.513 343.976 205.659 357.723C208.804 371.469 212.383 396.766 212.383 396.766V396.739Z" fill="#FFF0DD"/>
</g>
<path d="M259.641 307.671C259.641 307.671 224.312 315.182 200.696 284.381C200.696 284.381 222.576 279.229 259.641 307.671Z" fill="#FFF0DD"/>
<path d="M79.3889 271.854L82.4257 272.207C82.4257 272.207 79.1449 278.904 79.3889 281.371C79.633 283.811 81.1513 285.113 81.1513 285.574C81.1513 286.035 79.9855 290.265 80.2024 292.84C80.4464 295.416 82.0732 298.67 81.7478 300.188C81.3953 301.761 83.7271 307.238 84.4592 308.187C85.1641 309.136 106.394 309.136 113.172 309.136C114.176 309.136 115.26 309.054 116.399 308.973C122.852 308.322 130.769 306.153 134.05 305.746C137.927 305.285 174.747 326.271 206.199 333.999C237.624 341.753 244.185 340.126 246.056 338.933C247.927 337.767 250.421 327.356 252.617 319.249C255.139 310.085 255.031 301.435 255.031 301.435C255.031 301.435 232.689 289.695 218.4 288.068V298.615C218.4 298.615 211.513 298.453 196.194 299.998C180.875 301.571 146.793 294.196 143.35 289.966C139.906 285.764 130.362 265.889 127.082 264.48C123.801 263.07 116.29 257.267 116.29 257.267V263.856C116.29 263.856 82.6697 261.66 81.2598 261.497C79.8499 261.334 70.8482 264.425 70.1703 265.727C69.4654 267.001 70.6313 268.655 71.4447 269.821C72.2581 271.014 79.4161 271.827 79.4161 271.827L79.3889 271.854Z" fill="#FFF0DD"/>
<path d="M242.044 188.616C242.044 188.616 244.62 193.198 249.636 221.043C254.652 248.889 259.641 307.671 259.641 307.671C259.641 307.671 231.171 286.414 200.696 284.381C200.696 284.381 203.678 271.719 200.696 242.951C197.713 214.184 228.216 185.606 242.044 188.643V188.616Z" fill="#FFF0DD"/>
<g style="mix-blend-mode:multiply" opacity="0.5">
<path d="M154.579 195.855C174.073 195.855 195.141 160.662 195.141 160.662C195.141 160.662 194.436 155.049 192.809 154.914C191.155 154.778 187.305 157.923 187.305 157.923C187.305 157.923 168.786 189.728 153.467 185.525C138.148 181.295 144.655 163.102 144.655 163.102C143.733 160.58 142.974 159.577 142.351 159.523C142.161 159.577 141.998 159.604 141.944 159.604C141.076 159.496 138.772 164.431 138.772 164.431C138.772 164.431 138.311 165.786 137.741 167.955C135.599 175.927 139.287 195.855 154.606 195.855H154.579Z" fill="#FFF0DD"/>
</g>
<path d="M259.641 307.671V298.643C259.641 298.643 228.216 274.783 201.699 276.057L200.696 284.381C200.696 284.381 233.991 289.532 259.641 307.671Z" fill="#FFF0DD"/>
<g style="mix-blend-mode:multiply">
<path d="M176.153 123.706C176.153 123.706 174.228 176.957 150.042 155.374L149.88 145.993C149.88 145.993 165.741 139.106 174.716 112.779L176.18 123.706H176.153Z" fill="#FFF0DD"/>
</g>
<g style="mix-blend-mode:multiply" opacity="0.8">
<path d="M144.647 163.129C144.647 163.129 143.861 178.34 151.398 184.847C151.398 184.847 137.245 179.641 144.647 163.129Z" fill="#FFF0DD"/>
</g>
<g style="mix-blend-mode:multiply" opacity="0.5">
<path d="M201.696 276.057C201.696 276.057 200.422 253.092 200.476 238.803C200.531 224.514 212.867 198.702 212.867 198.702C212.867 198.702 196.355 213.94 195.108 231.781C193.861 249.594 201.669 276.084 201.669 276.084L201.696 276.057Z" fill="#FFF0DD"/>
</g>
<g style="mix-blend-mode:multiply" opacity="0.5">
<path d="M108.16 358.835C108.16 358.835 121.12 381.61 136.439 388.036C151.758 394.435 171.307 390.232 178.031 386.951C178.031 386.951 166.779 393.676 150.348 393.187C133.918 392.727 112.796 379.875 107.346 368.812L108.16 358.835Z" fill="#FFF0DD"/>
</g>
<g style="mix-blend-mode:multiply" opacity="0.5">
<path d="M101.346 372.717C101.346 372.717 107.663 388.605 125.802 406.609C143.941 424.612 181.195 432.746 181.195 432.746C181.195 432.746 153.024 431.336 135.346 421.657C117.668 411.95 113.466 394.76 109.073 388.361C104.708 381.962 101.4 377.407 101.4 377.407L101.346 372.717Z" fill="#FFF0DD"/>
</g>
<g style="mix-blend-mode:multiply" opacity="0.5">
<path d="M217.812 448.716C217.812 448.716 201.433 454.491 180.366 450.587C159.325 446.683 148.155 437.925 148.155 437.925C148.155 437.925 186.984 452.458 217.812 446.683V448.716Z" fill="#FFF0DD"/>
</g>
<g style="mix-blend-mode:multiply">
<path d="M103.524 353.629L83.7578 358.862C83.7578 358.862 88.6382 342.702 89.5872 335.68C90.5362 328.657 92.651 321.96 92.651 321.96L111.359 321.445L109.705 339.991L103.524 353.656V353.629Z" fill="#FFF0DD"/>
</g>
<g style="mix-blend-mode:multiply">
<path d="M253.589 314.992C253.589 314.992 240.873 290.861 218.342 298.642V288.095C218.342 288.095 239.382 294.982 254.891 304.526L253.589 314.992Z" fill="#FFF0DD"/>
</g>
<g style="mix-blend-mode:multiply" opacity="0.3">
<path d="M238.68 191.652L237.351 295.145L221.571 289.18L238.68 191.652Z" fill="#FFF0DD"/>
</g>
<g style="mix-blend-mode:multiply" opacity="0.5">
<path d="M197.414 362.088C197.414 362.088 181.39 377.625 162.98 381.881C144.57 386.165 135.405 381.881 135.405 381.881C135.405 381.881 145.437 388.199 162.98 384.593C180.522 380.987 197.414 362.088 197.414 362.088Z" fill="#FFF0DD"/>
</g>
<g style="mix-blend-mode:multiply" opacity="0.5">
<path d="M79.3903 271.854L82.427 272.207C82.427 272.207 79.1463 278.904 79.3903 281.371C79.6343 283.811 81.1527 285.113 81.1527 285.574C81.1527 286.035 79.9868 290.264 80.2037 292.84C80.4478 295.416 82.0746 298.67 81.7492 300.188C81.3967 301.761 83.7285 307.237 84.4606 308.186C85.1655 309.135 106.395 309.135 113.174 309.135C114.177 309.135 115.262 309.054 116.4 308.973L118 308.485C118 308.485 91.266 306.912 89.9375 306.261C88.6631 305.638 88.7716 297.205 88.7716 297.205C87.2261 295.036 88.7716 286.577 88.7716 286.577C87.7142 283.134 88.7716 272.342 88.7716 272.342L81.8577 271.366C81.8577 271.366 79.797 268.899 79.3632 267.082C78.9023 265.293 81.2069 261.524 81.2069 261.524C79.797 261.388 70.7953 264.452 70.1175 265.754C69.4125 267.028 70.5784 268.682 71.3918 269.848C72.2052 271.041 79.3632 271.854 79.3632 271.854H79.3903Z" fill="#FFF0DD"/>
</g>
<g style="mix-blend-mode:multiply" opacity="0.5">
<path d="M116.263 263.883L127.055 264.507L116.263 257.294V263.883Z" fill="#FFF0DD"/>
</g>
<g style="mix-blend-mode:multiply" opacity="0.5">
<path d="M127.06 264.507C127.06 264.507 132.537 282.401 133.242 285.33C133.947 288.258 143.328 289.966 143.328 289.966C143.328 289.966 138.8 283.486 135.736 277.223C132.645 270.96 128.578 265.239 127.06 264.479V264.507Z" fill="#FFF0DD"/>
</g>
<g style="mix-blend-mode:multiply">
<path d="M116.015 314.992L86.0814 313.582L85.8644 308.539L116.367 308.973L116.015 314.992Z" fill="#FFF0DD"/>
</g>
<g style="mix-blend-mode:multiply" opacity="0.5">
<path d="M246.031 338.933C246.031 338.933 236.352 334.242 230.17 332.697C223.988 331.124 206.174 334.025 206.174 334.025C206.174 334.025 238.358 343.325 246.031 338.96V338.933Z" fill="#FFF0DD"/>
</g>
<path d="M105.629 51.8008C106.307 54.946 112.543 76.5826 111.323 85.8826V86.0995C110.075 95.291 109.072 101.934 108.855 109.905C108.774 112.806 110.536 118.527 113.275 124.763C118.047 135.717 125.91 148.271 132.146 149.599C132.769 149.735 133.447 149.816 134.206 149.816C145.025 150.142 167.285 138.754 177.832 121.266C179.161 119.07 180.3 116.819 181.33 114.514C181.357 114.514 181.357 114.46 181.357 114.46C188.976 97.1347 188.84 77.2604 192.338 63.8121C196.324 48.5743 182.713 21.0812 162.106 13.7605C141.527 6.43985 123.063 10.9407 123.063 10.9407C123.063 10.9407 111.458 40.6029 106.605 46.4323C106.605 46.4323 104.924 48.6556 105.629 51.8279V51.8008Z" fill="#FFF0DD"/>
<g style="mix-blend-mode:multiply" opacity="0.6">
<path d="M122.607 128.242C128.139 129.079 134.427 128.701 135.102 128.026C135.102 128.026 130.244 130.725 126.52 129.699C124.091 129.025 122.607 128.242 122.607 128.242Z" fill="#FFF0DD"/>
</g>
<g style="mix-blend-mode:multiply" opacity="0.6">
<path d="M128.326 124.275C138.311 120.929 142.898 116.827 142.898 116.827C142.898 116.827 133.345 117.987 126.275 119.93C122.443 120.983 119.124 124.086 119.124 124.086L128.326 124.302V124.275Z" fill="#FFF0DD"/>
</g>
<g style="mix-blend-mode:multiply" opacity="0.6">
<path d="M133.156 128.89C133.156 128.89 132.347 135.096 130.107 135.474C127.867 135.852 123.9 128.809 123.9 128.809C123.9 128.809 126.976 130.536 133.156 128.89Z" fill="#FFF0DD"/>
</g>
<path d="M119.126 124.059C119.126 124.059 131.702 125.031 145.438 114.803C145.438 114.803 138.178 121.037 130.784 123.735C123.417 126.434 119.099 124.059 119.099 124.059H119.126Z" fill="#FFF0DD"/>
<path d="M130.764 51.9093C130.764 51.9093 132.391 57.6031 134.804 60.0434C134.804 60.0434 142.586 60.0434 151.588 62.104C160.589 64.1646 163.734 66.6591 163.734 66.6591C163.734 66.6591 159.938 59.9349 153.675 56.7897C147.412 53.6717 130.764 51.9093 130.764 51.9093Z" fill="#FFF0DD"/>
<path d="M185.617 82.6287C185.617 82.6287 194.429 72.5424 202.997 73.1661C211.537 73.7626 214.032 91.6304 207.443 101.635C200.855 111.64 188.355 114.84 186.62 113.809C184.912 112.779 181.496 105.241 181.496 105.241L185.617 82.6287Z" fill="#FFF0DD"/>
<path d="M154.923 43.7481C154.923 43.7481 170.703 70.6176 181.25 79.0499L182.064 88.5668C182.064 88.5668 188.11 79.3753 194.156 75.5252L193.478 64.4086C193.478 64.4086 170.866 48.7099 154.923 43.721V43.7481Z" fill="#FFF0DD"/>
<path d="M186.727 82.0869L181.25 79.0501C181.25 79.0501 180.87 89.0008 178.62 93.5017L181.521 98.4906C181.521 98.4906 183.961 86.8046 186.727 82.0869Z" fill="#FFF0DD"/>
<path d="M193.807 69.7771C193.807 69.7771 203.92 41.8502 203.486 32.8756C203.053 23.901 174.15 3.70139 174.15 3.70139C174.15 3.70139 136.76 0.312201 127.352 4.81305C117.943 9.3139 107.315 39.5455 107.315 39.5455C107.315 39.5455 142.047 39.1388 161.325 47.1102C180.63 55.0816 193.807 69.8042 193.807 69.8042V69.7771Z" fill="#FFF0DD"/>
<path d="M200.123 50.2282C200.123 50.2282 213.327 45.5918 225.8 49.7673C225.8 49.7673 228.809 56.0847 223.224 57.9827C223.224 57.9827 208.42 54.6206 197.52 58.7961L200.123 50.2282Z" fill="#FFF0DD"/>
<path d="M178.844 7.11759C178.844 7.11759 180.444 1.69488 179.929 1.1255C179.441 0.556112 176.133 -0.284408 174.262 0.0951816C172.419 0.474771 170.738 3.10479 170.738 3.10479L174.127 3.70128L178.817 7.1447L178.844 7.11759Z" fill="#FFF0DD"/>
<path d="M174.152 3.70138C174.152 3.70138 184.293 16.038 184.266 21.4336C184.238 26.8292 171.36 51.3941 171.36 51.3941C171.36 51.3941 143.731 33.1196 110.002 31.0318C110.002 31.0318 120.63 6.33139 127.788 3.70138C134.946 1.07137 160.595 1.04425 174.152 3.70138Z" fill="#FFF0DD"/>
<path d="M163.25 25.365C163.25 25.365 138.387 10.0187 120.275 14.1129L114.174 24.9312C114.174 24.9312 133.615 24.7143 158.966 35.5597L163.25 25.365Z" fill="#FFF0DD"/>
<g style="mix-blend-mode:multiply" opacity="0.5">
<path d="M185.215 96.6195C185.215 96.6195 190.963 85.6385 198.717 84.7708C206.472 83.9032 209.562 89.8411 209.562 89.8411C209.562 89.8411 207.068 86.7501 200.534 86.6417C200.534 86.6417 200.94 93.3929 199.991 99.3037C199.042 105.214 193.945 107.628 191.993 106.543C190.041 105.486 195.491 95.7518 193.457 93.2303C191.424 90.7087 185.215 96.6195 185.215 96.6195Z" fill="#FFF0DD"/>
</g>
<g style="mix-blend-mode:multiply" opacity="0.5">
<path d="M159.969 82.3308C159.969 82.3308 156.769 90.3835 148.717 90.8173C140.664 91.2511 142.264 80.3786 142.264 80.3786L159.969 82.3308Z" fill="#FFF0DD"/>
</g>
<g style="mix-blend-mode:multiply" opacity="0.5">
<path d="M121.141 83.0356C121.141 83.0356 118.212 90.8443 114.444 90.8986C110.675 90.9528 111.488 83.361 111.488 83.361L121.141 83.0356Z" fill="#FFF0DD"/>
</g>
<g style="mix-blend-mode:multiply" opacity="0.5">
<path d="M196.005 85.5028C196.005 85.5028 200.533 87.9702 200.452 95.2366C200.371 102.503 195.002 107.085 192.698 106.19C190.393 105.296 195.653 95.1553 193.457 93.2573C191.261 91.3865 186.326 95.6704 186.326 95.6704C186.326 95.6704 190.23 87.7533 196.005 85.5028Z" fill="#FFF0DD"/>
</g>
<path d="M119.812 63.0257C119.812 63.0257 118.104 57.8742 106.608 55.5695C106.608 55.5695 103.978 49.6316 105.225 45.7544C105.225 45.7544 114.742 48.52 119.812 63.0257Z" fill="#FFF0DD"/>
<g style="mix-blend-mode:multiply" opacity="0.5">
<path d="M160.703 80.7309C160.703 80.7309 157.45 69.1806 144.489 63.7036L142.89 67.2284L160.703 80.7309Z" fill="#FFF0DD"/>
</g>
<g style="mix-blend-mode:multiply">
<path d="M107.782 60.8566C107.782 60.8566 118.6 62.5919 137.037 64.4356C155.475 66.2793 173.641 53.4546 173.641 53.4546C173.641 53.4546 156.152 42.3109 143.029 37.9727C129.906 33.6346 112.689 37.8643 112.689 37.8643L106.616 46.4051C106.616 46.4051 102.63 43.4768 107.782 60.8295V60.8566Z" fill="#FFF0DD"/>
</g>
<g style="mix-blend-mode:multiply" opacity="0.5">
<path d="M121.442 82.0049C121.442 82.0049 121.957 69.4784 110.136 62.8627L110.569 67.472L121.442 82.0049Z" fill="#FFF0DD"/>
</g>
<path d="M121.442 81.0564C121.903 83.8491 117.592 88.6211 114.718 87.4552C111.817 86.2893 110.082 76.3929 110.57 67.4725C110.57 67.4725 119.165 67.364 121.442 81.0564Z" fill="#FFF0DD"/>
<path d="M142.758 84.0116C145.279 89.0819 155.799 93.176 160.68 80.7038C160.68 80.7038 155.718 69.3161 142.866 67.2012C142.866 67.2012 138.338 75.1184 142.731 83.9845L142.758 84.0116Z" fill="#FFF0DD"/>
<mask id="mask0_332_4730" style="mask-type:luminance" maskUnits="userSpaceOnUse" x="110" y="67" width="12" height="21">
<path d="M121.442 81.0565C121.903 83.8492 117.592 88.6212 114.718 87.4553C111.817 86.2894 110.082 76.393 110.57 67.4726C110.57 67.4726 119.165 67.3642 121.442 81.0565Z" fill="white"/>
</mask>
<g mask="url(#mask0_332_4730)">
<path d="M115.102 82.8733C115.102 82.8733 117.813 73.7089 110.601 67.2288C110.601 67.2288 108.351 78.5351 110.601 81.7345C112.825 84.9339 115.129 82.8733 115.129 82.8733H115.102Z" fill="#FFF0DD"/>
<g style="mix-blend-mode:multiply">
<path d="M113.417 83.524C113.417 83.524 115.722 75.0104 110.163 69.6961C110.163 69.6961 108.97 76.6101 109.757 79.7281C110.543 82.8191 112.604 83.6867 113.417 83.524Z" fill="#FFF0DD"/>
</g>
</g>
<path d="M121.031 78.9687C121.031 78.9687 118.889 70.1568 110.62 68.5029L107.583 65.9542C107.583 65.9542 117.94 64.951 121.031 78.9687Z" fill="#FFF0DD"/>
<path d="M142.215 68.6924L140.128 64.9778C140.128 64.9778 155.311 67.4994 160.68 80.7037C160.68 80.7037 155.799 72.0003 142.188 68.6653L142.215 68.6924Z" fill="#FFF0DD"/>
<mask id="mask1_332_4730" style="mask-type:luminance" maskUnits="userSpaceOnUse" x="140" y="67" width="21" height="22">
<path d="M142.75 84.0118C145.271 89.082 155.791 93.1761 160.672 80.7039C160.672 80.7039 155.71 69.3162 142.858 67.2014C142.858 67.2014 138.33 75.1185 142.723 83.9846L142.75 84.0118Z" fill="white"/>
</mask>
<g mask="url(#mask1_332_4730)">
<path d="M146.364 87.7534C146.364 87.7534 149.862 73.1392 141.457 70.4278C141.457 70.4278 136.522 83.1712 146.364 87.7534Z" fill="#FFF0DD"/>
<g style="mix-blend-mode:multiply">
<path d="M140.859 72.1358C140.859 72.1358 147.041 76.2299 144.139 86.3704C144.139 86.3704 138.717 82.4389 140.859 72.1358Z" fill="#FFF0DD"/>
</g>
</g>
<path d="M151.453 80.3512C151.453 80.3512 147.739 80.1885 146.871 82.927C146.871 82.927 149.582 83.7132 151.453 80.3512Z" fill="#FFF0DD"/>
<path d="M117.727 80.1886C117.727 80.1886 115.313 80.1073 114.744 81.9781C114.744 81.9781 116.398 82.2221 117.727 80.1886Z" fill="#FFF0DD"/>
<g style="mix-blend-mode:multiply" opacity="0.3">
<path d="M115.915 97.731C115.915 97.731 121.799 94.0165 129.282 95.2637C136.766 96.4838 131.479 87.6177 122.884 86.3433C122.884 86.3433 121.989 92.1185 115.915 97.731Z" fill="#FFF0DD"/>
</g>
<g style="mix-blend-mode:multiply" opacity="0.5">
<path d="M134.809 60.0432C134.809 60.0432 136.354 83.5235 141.723 89.7596C147.091 95.9957 156.201 92.3083 162.166 85.6926C168.131 79.0769 163.739 66.6318 163.739 66.6318C163.739 66.6318 152.92 58.9044 134.809 60.0161V60.0432Z" fill="#FFF0DD"/>
</g>
<g style="mix-blend-mode:multiply" opacity="0.5">
<path d="M134.11 98.0565C134.11 98.0565 136.957 100.361 138.123 103.208C139.289 106.028 136.442 108.495 133.188 106.733C129.935 104.943 128.688 105.215 129.067 106.516C129.42 107.817 127.495 109.254 122.75 109.119C118.005 108.983 113.314 104.672 114.724 100.144C114.724 100.144 112.013 108.116 122.912 110.203C133.785 112.291 135.602 107.628 139.343 106.109C143.085 104.591 134.137 98.0565 134.137 98.0565H134.11Z" fill="#FFF0DD"/>
</g>
<g style="mix-blend-mode:multiply" opacity="0.5">
<path d="M135.469 108.007C135.469 108.007 131.89 105.838 130.263 106.109C128.636 106.38 129.775 108.414 131.456 109.119C133.137 109.824 135.469 108.034 135.469 108.034V108.007Z" fill="#FFF0DD"/>
</g>
<g style="mix-blend-mode:multiply" opacity="0.5">
<path d="M140.156 104.401C140.156 104.401 139.316 105.242 132.89 104.916C125.488 104.537 120.282 105.323 114.805 103.886C114.805 103.886 118.411 117.524 125 117.768C133.649 118.066 140.156 104.401 140.156 104.401Z" fill="#FFF0DD"/>
</g>
<g style="mix-blend-mode:multiply" opacity="0.5">
<path d="M144.133 109.227C144.133 109.227 147.712 112.21 149.529 117.931C149.529 117.931 150.559 114.813 149.963 112.074C149.339 109.309 144.133 109.227 144.133 109.227Z" fill="#FFF0DD"/>
</g>
<g style="mix-blend-mode:multiply" opacity="0.5">
<path d="M119.815 63.0259C119.815 63.0259 122.906 77.5317 122.336 84.5812C121.767 91.6307 110.433 92.9322 110.488 92.5526C110.542 92.173 111.898 83.6594 111.22 78.2638C110.542 72.8953 106.61 55.5697 106.61 55.5697C106.61 55.5697 115.639 53.8073 119.815 63.0259Z" fill="#FFF0DD"/>
</g>
<path d="M171.25 52.0176C171.25 52.0176 142.076 53.8613 131.935 49.3876C121.795 44.9138 100.131 34.7734 86.5473 33.499C72.9634 32.2247 68.4354 41.3077 68.4354 41.3077C68.4354 41.3077 72.3398 33.6617 86.005 31.2215C99.2364 31.2757 111.329 31.0046 111.329 31.0046C111.329 31.0046 149.993 33.743 171.25 52.0176Z" fill="#FFF0DD"/>
<path d="M106.18 47.1372C106.18 47.1372 87.0652 48.0862 69.5227 44.8868C69.5227 44.8868 75.1081 34.3125 91.078 34.665C107.075 35.0175 111.305 40.5757 111.305 40.5757L106.153 47.1372H106.18Z" fill="#FFF0DD"/>
<path d="M68.4635 41.3075L69.548 44.9136C69.548 44.9136 78.4413 31.4382 99.6441 36.7254C120.847 42.0125 122.772 49.3603 133.997 53.2104C145.222 57.0876 173.664 53.4544 173.664 53.4544L171.387 51.4209C171.387 51.4209 147.12 52.6681 137.603 49.9839C128.086 47.2996 109.052 34.7732 90.9135 32.7397C72.7745 30.7061 68.4635 41.2804 68.4635 41.2804V41.3075Z" fill="#FFF0DD"/>
<g style="mix-blend-mode:multiply" opacity="0.5">
<path d="M190.229 78.3449C190.229 78.3449 179.872 72.5426 175.642 61.9683C175.642 61.9683 183.911 71.9461 194.188 75.5251L190.256 78.3178L190.229 78.3449Z" fill="#FFF0DD"/>
</g>
<g style="mix-blend-mode:multiply" opacity="0.5">
<path d="M124.615 6.00587C124.615 6.00587 165.068 9.99157 184.292 21.4335C203.515 32.8754 203.109 37.6474 203.109 37.6474C203.109 37.6474 198.825 56.1117 193.836 69.7769C193.836 69.7769 179.086 57.0878 169.732 50.3636C160.378 43.6395 136.897 32.4687 110.028 31.0317C110.028 31.0317 118.054 11.4828 124.615 6.00587Z" fill="#FFF0DD"/>
</g>
<g style="mix-blend-mode:multiply" opacity="0.5">
<path d="M134.236 149.843C145.054 150.169 167.315 138.781 177.862 121.293C179.19 119.096 180.329 116.846 181.359 114.541C180.627 115.518 171.436 129.996 158.286 137.886C146.139 145.153 135.754 149.301 134.236 149.87V149.843Z" fill="#FFF0DD"/>
</g>
<path d="M96.2678 296.055C96.2678 296.055 87.0102 339.882 83.3179 353.153C79.6255 366.424 74.0603 377.849 73.4449 379.079C72.8295 380.31 75.6121 384.939 75.6121 384.939L73.3646 420.418L98.9969 387.615C98.9969 387.615 97.5254 379.668 92.8966 375.976C92.8966 375.976 102.582 345.741 113.151 327.226C123.746 308.711 121.9 299.453 121.9 299.453C121.9 299.453 106.783 287.734 96.2946 296.055H96.2678Z" fill="url(#paint0_linear_332_4730)"/>
<path d="M79.8912 484.334C79.8912 484.334 66.972 494.505 83.9354 499.134C100.899 503.763 98.9723 489.164 98.9723 489.164L135.414 432.886L98.9723 387.642L73.554 417.207C73.554 417.207 69.273 421.756 69.7279 424.458C70.1827 427.16 73.3399 432.726 73.3399 432.726C73.3399 432.726 73.7145 446.451 73.3399 451.963C72.9654 457.475 77.6956 466.77 77.6956 466.77L79.8912 484.334Z" fill="#17186E"/>
<g style="mix-blend-mode:multiply">
<path d="M100.224 390.665C100.224 390.665 88.986 412.311 82.2434 434.786C82.2434 434.786 96.4509 404.953 100.224 403.909C103.996 402.866 72.531 454.13 72.531 454.13C72.531 454.13 95.0061 425.983 99.6081 427.374C104.21 428.766 125.99 449.555 125.99 449.555L126.926 445.568L131.742 430.398C126.873 422.291 111.086 409.903 111.086 409.903L100.224 390.692V390.665Z" fill="#EA8BC2"/>
</g>
<path fill-rule="evenodd" clip-rule="evenodd" d="M59.8957 733.791C59.8957 733.791 60.6236 734.074 61.9176 734.599C69.8027 737.713 98.9576 749.804 114.526 763.269V757.042L119.095 756.516C119.095 756.516 118.569 739.209 122.613 731.122L116.103 715.958C116.103 715.958 134.785 670.831 127.87 620.123L110.846 588.906L113.677 585.267L110.846 579.201C110.846 579.201 129.083 488.34 144.085 457.527L153.426 460.236C153.426 460.236 169.237 533.386 200.858 586.075L214.647 601.886C214.647 601.886 234.097 658.659 241.821 716.241L236.159 723.115L241.821 732.052V737.713C241.821 737.713 266.972 735.287 295.359 752.715C295.359 752.715 301.182 740.422 300.211 738.643C299.281 736.904 287.514 724.733 287.514 723.398C287.514 722.751 288.525 721.74 289.617 720.649C290.87 719.436 292.205 718.142 292.245 717.171C292.366 715.432 298.877 634.195 268.024 590.2C268.024 590.2 251.808 577.543 246.39 568.89L245.46 563.148L242.629 559.306L211.412 443.738L213.838 438.886L210.563 415.675L209.431 407.871L209.35 407.264C209.35 407.264 203.931 407.668 195.197 408.477C180.195 409.892 155.488 412.602 132.116 416.807H131.994C115.213 419.84 118.078 393.139 106.675 397.83C106.675 397.83 82.2168 442.727 77.2835 470.628C72.7546 496.306 68.7109 533.386 69.8432 581.182L78.1327 599.905C78.1327 599.905 78.1327 599.905 78.1327 599.986L78.6179 601.118C78.6179 601.118 78.6179 601.724 78.6179 602.897C78.4966 614.138 77.5261 675.319 69.641 706.536C69.641 706.536 60.9471 709.245 59.8553 710.863L59.734 711.187C58.8848 714.381 59.8553 733.831 59.8553 733.831L59.8957 733.791Z" fill="url(#paint1_linear_332_4730)"/>
<path fill-rule="evenodd" clip-rule="evenodd" d="M114.484 763.269L117.719 777.058H0.533134C0.533134 777.058 -1.28651 768.728 4.57681 758.619C4.57681 758.619 27.1809 762.825 61.7948 734.559C61.7948 734.559 98.2283 745.841 114.443 763.269H114.484Z" fill="url(#paint2_radial_332_4730)"/>
<path fill-rule="evenodd" clip-rule="evenodd" d="M245.458 737.633C245.458 737.633 241.617 748.106 226.412 760.439V778.271H295.761C295.761 778.271 296.975 768.243 292.729 751.138C292.729 751.138 275.503 737.471 245.499 737.592L245.458 737.633Z" fill="url(#paint3_radial_332_4730)"/>
<path fill-rule="evenodd" clip-rule="evenodd" d="M24.9973 755.829C24.9973 755.829 33.9339 760.035 35.5513 770.589L115.454 767.354L117.719 777.059H0.53315C0.53315 777.059 -2.17611 767.879 4.57682 758.619C4.57682 758.619 17.1526 758.822 24.9973 755.829Z" fill="url(#paint4_linear_332_4730)"/>
<path fill-rule="evenodd" clip-rule="evenodd" d="M229.365 757.932C229.365 757.932 250.756 742.566 291.314 766.424L295.115 763.27C295.115 763.27 297.137 772.044 295.802 778.272H226.453V760.439L229.405 757.932H229.365Z" fill="url(#paint5_linear_332_4730)"/>
<g style="mix-blend-mode:multiply" opacity="0.6">
<path fill-rule="evenodd" clip-rule="evenodd" d="M282.905 736.039C273.443 731.429 236.16 727.507 236.16 727.507L241.821 736.444V742.105C241.821 742.105 266.973 739.679 295.359 757.107C286.989 743.601 255.61 736.039 255.61 736.039H282.905Z" fill="#3C2E92"/>
</g>
<g style="mix-blend-mode:multiply" opacity="0.5">
<path fill-rule="evenodd" clip-rule="evenodd" d="M94.4284 688.865C96.6524 694.324 116.102 715.958 116.102 715.958C116.102 715.958 134.784 670.831 127.87 620.123L110.846 588.906L113.676 585.267L110.846 579.201C110.846 579.201 129.083 488.34 144.085 457.527L153.426 460.236C153.426 460.236 169.236 533.386 200.858 586.075L214.647 601.886C214.647 601.886 234.097 658.659 241.82 716.241L247.481 715.028L244.651 667.596L262.281 715.028C262.281 715.028 261.27 692.303 251.929 663.148C242.589 633.993 223.341 598.651 223.341 598.651L227.182 590.928L229.811 576.937L223.502 590.928H217.437L203.244 578.756C176.475 531.728 164.788 465.089 164.788 465.089C179.79 452.149 201.222 457.123 201.222 457.123L225.969 516.322L211.371 463.997V443.698L213.798 438.845L209.43 407.83L132.075 416.767H131.954C115.172 419.8 116.76 395.774 105.357 400.465C105.357 400.465 82.1761 442.687 77.2428 470.588L98.2294 489.512C99.8065 522.671 79.9925 585.226 79.9925 585.226L75.9488 586.844L69.8429 581.142L78.1324 599.864C78.1324 599.864 78.1324 599.864 78.1324 599.945C78.1324 600.188 78.3346 601.199 78.6176 602.857C81.1247 617.778 92.3661 683.973 94.388 688.865H94.4284Z" fill="#3C2E92"/>
</g>
<g style="mix-blend-mode:multiply" opacity="0.6">
<path fill-rule="evenodd" clip-rule="evenodd" d="M61.833 734.56H61.9139C69.799 737.714 98.9539 749.804 114.522 763.27V757.042L119.091 756.517C119.091 756.517 118.566 739.21 122.609 731.122L116.099 715.959L119.617 725.421C119.617 725.421 85.5289 717.051 86.3781 721.377C87.1868 725.704 112.338 745.72 112.338 745.72L108.254 747.338C86.9037 735.449 61.7925 734.56 61.7925 734.56H61.833Z" fill="#3C2E92"/>
</g>
<g style="mix-blend-mode:multiply" opacity="0.6">
<path fill-rule="evenodd" clip-rule="evenodd" d="M59.8953 733.792C59.8953 733.792 60.6231 734.075 61.9171 734.601C69.8023 737.714 98.9571 749.805 114.525 763.27V757.043L119.095 756.517C119.095 756.517 118.569 739.21 122.613 731.123L116.102 715.959C116.102 715.959 134.784 670.832 127.869 620.124L110.846 588.907L113.676 585.268L110.846 579.202C110.846 579.202 129.082 488.341 144.085 457.528L153.425 460.237L147.724 449.441L210.562 415.676L195.197 408.478C180.195 409.894 155.488 412.603 132.115 416.808H131.994C115.213 419.841 122.908 383.04 111.504 387.731C111.504 387.731 82.3783 441.741 77.2831 470.63C72.7541 496.307 68.7105 533.387 69.8427 581.184L78.1322 599.906C78.1322 599.906 78.1322 599.906 78.1322 599.987L78.6175 601.119C78.6175 601.119 78.6175 601.726 78.6175 602.898C78.4962 614.14 77.5257 675.32 69.6405 706.538L98.2293 716.283C98.2293 716.283 68.4678 715.393 59.8144 710.864L59.6931 711.188C58.8439 714.382 59.8144 733.832 59.8144 733.832L59.8953 733.792Z" fill="#3C2E92"/>
</g>
<g style="mix-blend-mode:multiply" opacity="0.6">
<path fill-rule="evenodd" clip-rule="evenodd" d="M292.242 717.172C292.242 717.172 272.226 714.462 265.756 715.959L287.511 723.399L292.242 717.172Z" fill="#3C2E92"/>
</g>
<path style="mix-blend-mode:multiply" opacity="0.5" fill-rule="evenodd" clip-rule="evenodd" d="M226.417 760.439L291.277 766.424L295.078 763.27L295.766 778.272H226.417V760.439Z" fill="url(#paint6_linear_332_4730)"/>
<path style="mix-blend-mode:multiply" opacity="0.5" fill-rule="evenodd" clip-rule="evenodd" d="M13.109 777.058V769.375L35.5513 770.589L115.454 767.354L117.719 777.058H13.109Z" fill="url(#paint7_linear_332_4730)"/>
<g style="mix-blend-mode:soft-light">
<path fill-rule="evenodd" clip-rule="evenodd" d="M226.006 516.322C226.006 516.322 236.318 559.509 233.083 568.243L223.54 590.928H217.474L203.281 578.756C203.281 578.756 172.185 519.678 164.826 465.089C164.826 465.089 179.747 451.866 201.259 457.123L226.006 516.322Z" fill="#8190BB"/>
</g>
<g style="mix-blend-mode:soft-light">
<path fill-rule="evenodd" clip-rule="evenodd" d="M282.898 731.648C282.898 731.648 266.845 716.403 262.276 715.028C257.706 713.654 241.774 716.242 241.774 716.242L236.113 723.116C236.113 723.116 260.739 725.097 282.858 731.648H282.898Z" fill="#A3AECD"/>
</g>
<g style="mix-blend-mode:soft-light">
<path fill-rule="evenodd" clip-rule="evenodd" d="M69.6847 706.496L98.2734 716.241C98.2734 716.241 69.0781 715.635 59.8585 710.823C59.8585 710.823 62.6487 707.871 69.6442 706.496H69.6847Z" fill="#A3AECD"/>
</g>
<g style="mix-blend-mode:multiply" opacity="0.6">
<path fill-rule="evenodd" clip-rule="evenodd" d="M104.819 777.139C104.819 777.139 92.9305 761.733 79.1012 760.439C65.2718 759.145 36.3596 777.058 36.3596 777.058L104.859 777.139H104.819Z" fill="#6A4AB3"/>
</g>
<g style="mix-blend-mode:multiply" opacity="0.5">
<path fill-rule="evenodd" clip-rule="evenodd" d="M284.235 633.225C284.235 633.225 293.616 670.71 286.297 690.483C279.868 707.911 270.891 712.562 270.891 712.562C270.891 712.562 285.65 713.168 288.157 709.003C290.664 704.838 295.436 668.283 284.194 633.225H284.235Z" fill="#3C2E92"/>
</g>
<path d="M169.069 118.984L170.941 134.85C172.814 135.145 174.58 135.225 176.159 135.171C182.982 135.011 187.129 132.469 187.129 132.469C183.517 136.964 176.908 136.108 176.908 136.108C176.908 136.108 188.948 144.081 195.156 135.359C201.336 126.609 203.771 110.101 203.771 110.101C207.544 124.576 222.875 125.78 222.875 125.78C205.805 116.228 201.31 100.281 201.31 100.281L176.239 104.429L169.042 118.957L169.069 118.984Z" fill="url(#paint8_linear_332_4730)"/>
<g style="mix-blend-mode:multiply">
<path d="M176.186 135.171C183.009 135.011 187.156 132.469 187.156 132.469C183.544 136.964 176.935 136.108 176.935 136.108C176.935 136.108 191.25 141.058 194.059 132.977C196.869 124.95 195.852 111.011 195.852 111.011L180.253 109.673C173.778 115.746 167.785 122.088 173.43 135.118L176.186 135.171Z" fill="#CE8BC2"/>
</g>
<path d="M109.211 191.76C109.211 191.76 103.351 206.262 100.274 222.61C97.197 238.958 87.6986 291.132 87.6986 291.132L112.635 293.299C112.635 293.299 115.097 208.429 109.237 191.76H109.211Z" fill="url(#paint9_linear_332_4730)"/>
<path d="M171.987 113.927C171.987 113.927 175.439 142.235 176.188 148.389C176.964 154.569 186.516 159.813 186.516 159.813C186.516 159.813 176.803 185.58 157.512 188.523C138.221 191.466 138.542 168.001 138.542 168.001C138.542 168.001 147.345 158.288 147.639 155.961C147.933 153.633 147.479 146.703 147.479 146.703C147.479 146.703 163.131 131.773 171.987 113.927Z" fill="url(#paint10_linear_332_4730)"/>
<path d="M95.649 377.849C106.458 415.174 132.679 437.087 165.081 446.05C197.483 455.013 219.158 451.615 219.158 449.769C219.158 447.923 214.529 445.435 214.529 445.435C214.529 445.435 212.6 418.277 210.138 400.056C207.677 381.862 196.546 344.056 199.81 321.367C203.048 298.704 246.794 198.021 238.473 188.764C230.152 179.533 192.185 161.178 192.185 161.178C192.185 161.178 191.489 155.64 189.884 155.506C188.252 155.372 184.452 158.476 184.452 158.476C184.452 158.476 166.178 189.861 151.061 185.713C135.944 181.54 142.365 163.586 142.365 163.586C141.455 161.098 140.706 160.108 140.091 160.054C139.957 160.001 139.823 160.054 139.689 160.135C138.245 160.964 137.683 166.583 137.683 166.583C136.987 167.145 136.265 167.733 135.542 168.376C124.813 177.285 109.295 191.76 109.295 191.76C110.231 200.697 113.308 280.002 111.114 301.915C108.974 323.828 105.575 366.585 105.575 366.585C105.575 366.585 102.044 364.123 100.652 365.193C99.261 366.263 99.7159 375.066 99.7159 375.066C99.7159 375.066 97.7092 370.598 95.7025 370.598C93.6958 370.598 95.7025 377.849 95.7025 377.849H95.649Z" fill="url(#paint11_linear_332_4730)"/>
<path style="mix-blend-mode:multiply" opacity="0.5" d="M188.977 175.707C188.977 175.707 170.782 196.978 159.919 202.222C149.057 207.466 118.688 211.667 118.688 211.667C118.688 211.667 144.321 211.372 159.919 207.332C175.518 203.292 187.773 189.646 187.773 189.646L188.977 175.707Z" fill="url(#paint12_linear_332_4730)"/>
<path style="mix-blend-mode:multiply" opacity="0.5" d="M197.451 298.276C197.451 298.276 188.461 274.784 185.224 270.423C181.986 266.062 156.541 247.386 156.541 247.386C156.541 247.386 184.688 259.64 189.317 264.269C193.946 268.898 199.672 298.062 199.672 298.062L197.451 298.249V298.276Z" fill="url(#paint13_linear_332_4730)"/>
<g style="mix-blend-mode:multiply">
<path d="M209.18 394.143C209.18 394.143 192.966 370.892 191.307 370.437C189.621 369.982 193.982 362.41 192.029 359.949C190.076 357.487 190.317 360.939 185.688 358.878C181.059 356.792 143.039 329.714 133.005 327.173C122.972 324.631 108.256 333.621 108.256 333.621L109.54 301.942L124.978 297.875L199.681 330.49C199.681 330.49 199.44 342.076 202.544 355.641C205.648 369.206 209.18 394.17 209.18 394.17V394.143Z" fill="#B2B3E8"/>
</g>
<path d="M255.812 306.25C255.812 306.25 220.949 313.661 197.645 283.266C197.645 283.266 219.237 278.182 255.812 306.25Z" fill="url(#paint14_linear_332_4730)"/>
<path d="M113.629 293.711C113.629 293.711 98.2539 301.75 91.3233 300.615C91.3233 300.615 64.2256 258.277 50.6612 232.628C49.788 230.97 50.2479 228.928 51.7672 227.829L74.1094 211.455C74.1094 211.455 109.401 273.909 113.629 293.711Z" fill="url(#paint15_linear_332_4730)"/>
<path d="M120.487 289.229L113.621 293.72C113.621 293.72 84.7458 232.456 72.462 214.503C73.4692 210.935 75.1871 210.279 78.3286 211.069C78.3286 211.069 114.558 271.175 120.487 289.229Z" fill="url(#paint16_linear_332_4730)"/>
<path d="M65.919 246.742C68.7424 251.059 72.7198 253.462 74.7892 252.108C76.8587 250.755 76.2516 246.148 73.4281 241.831C70.6047 237.514 66.6274 235.111 64.5579 236.464C62.4885 237.818 63.0956 242.425 65.919 246.742Z" fill="#8BFFFF"/>
<path style="mix-blend-mode:multiply" opacity="0.5" d="M109.975 273.209L106.568 268.252L79.0231 281.028L68.0455 263.025C68.6015 262.283 73.4554 260.208 79.0231 259.073C86.647 257.518 95.5009 256.955 95.5009 256.955L111.044 267.9L109.981 273.226L109.975 273.209Z" fill="url(#paint17_linear_332_4730)"/>
<path d="M77.9391 270.905L80.9357 271.253C80.9357 271.253 77.6983 277.861 77.9391 280.296C78.1799 282.704 79.6782 283.988 79.6782 284.443C79.6782 284.898 78.5277 289.072 78.7418 291.614C78.9826 294.156 80.5879 297.367 80.2668 298.865C79.919 300.417 82.22 305.821 82.9425 306.758C83.6381 307.694 104.588 307.694 111.277 307.694C112.267 307.694 113.337 307.614 114.461 307.534C120.829 306.892 128.642 304.751 131.879 304.35C135.705 303.895 172.04 324.604 203.077 332.23C234.088 339.882 240.563 338.277 242.409 337.099C244.255 335.949 246.716 325.674 248.884 317.674C251.372 308.631 251.265 300.096 251.265 300.096C251.265 300.096 229.218 288.51 215.117 286.905V297.313C215.117 297.313 208.321 297.152 193.204 298.678C178.087 300.229 144.455 292.952 141.057 288.778C137.659 284.631 128.24 265.018 125.003 263.627C121.766 262.236 101.869 252.047 101.869 252.047L106.699 260.684C106.699 260.684 81.1766 260.844 79.7852 260.684C78.3939 260.523 69.5109 263.574 68.842 264.858C68.1463 266.115 69.2969 267.748 70.0995 268.898C70.9022 270.075 77.9658 270.878 77.9658 270.878L77.9391 270.905Z" fill="url(#paint18_linear_332_4730)"/>
<path d="M238.448 188.763C238.448 188.763 240.99 193.285 245.94 220.764C250.889 248.242 255.812 306.249 255.812 306.249C255.812 306.249 227.719 285.272 197.645 283.266C197.645 283.266 200.588 270.771 197.645 242.383C194.702 213.994 224.802 185.793 238.448 188.79V188.763Z" fill="url(#paint19_linear_332_4730)"/>
<path style="mix-blend-mode:multiply" opacity="0.5" d="M152.137 195.908C171.375 195.908 192.164 161.178 192.164 161.178C192.164 161.178 191.468 155.64 189.863 155.506C188.231 155.372 184.432 158.476 184.432 158.476C184.432 158.476 166.157 189.861 151.04 185.713C135.923 181.54 142.344 163.586 142.344 163.586C141.435 161.098 140.685 160.108 140.07 160.054C139.883 160.108 139.722 160.135 139.669 160.135C138.812 160.028 136.538 164.897 136.538 164.897C136.538 164.897 136.083 166.235 135.521 168.376C133.408 176.242 137.047 195.908 152.164 195.908H152.137Z" fill="url(#paint20_linear_332_4730)"/>
<path d="M255.812 306.25V297.34C255.812 297.34 224.802 273.794 198.635 275.052L197.645 283.266C197.645 283.266 230.501 288.35 255.812 306.25Z" fill="url(#paint21_linear_332_4730)"/>
<g style="mix-blend-mode:multiply">
<path d="M173.434 124.71C173.434 124.71 171.535 177.258 147.668 155.961L147.508 146.703C147.508 146.703 163.16 139.907 172.016 113.927L173.461 124.71H173.434Z" fill="#E89FC0"/>
</g>
<g style="mix-blend-mode:multiply" opacity="0.8">
<path d="M142.338 163.613C142.338 163.613 141.562 178.623 149 185.045C149 185.045 135.033 179.908 142.338 163.613Z" fill="#9C92AD"/>
</g>
<path style="mix-blend-mode:multiply" opacity="0.5" d="M198.633 275.052C198.633 275.052 197.375 252.39 197.429 238.289C197.482 224.189 209.656 198.717 209.656 198.717C209.656 198.717 193.362 213.754 192.131 231.359C190.9 248.938 198.606 275.079 198.606 275.079L198.633 275.052Z" fill="url(#paint22_linear_332_4730)"/>
<path style="mix-blend-mode:multiply" opacity="0.5" d="M106.331 356.738C106.331 356.738 119.12 379.213 134.237 385.555C149.355 391.869 168.646 387.722 175.281 384.484C175.281 384.484 164.177 391.12 147.963 390.638C131.749 390.183 110.906 377.501 105.528 366.585L106.331 356.738Z" fill="url(#paint23_linear_332_4730)"/>
<path style="mix-blend-mode:multiply" opacity="0.5" d="M99.6096 370.437C99.6096 370.437 105.844 386.116 123.744 403.882C141.643 421.648 178.406 429.675 178.406 429.675C178.406 429.675 150.607 428.284 133.162 418.732C115.717 409.153 111.57 392.19 107.235 385.875C102.927 379.561 99.6631 375.066 99.6631 375.066L99.6096 370.437Z" fill="url(#paint24_linear_332_4730)"/>
<path style="mix-blend-mode:multiply" opacity="0.5" d="M214.531 445.435C214.531 445.435 198.368 451.134 177.578 447.281C156.815 443.428 145.792 434.786 145.792 434.786C145.792 434.786 184.11 449.127 214.531 443.428V445.435Z" fill="url(#paint25_linear_332_4730)"/>
<path style="mix-blend-mode:multiply" d="M101.744 351.601L82.2389 356.765C82.2389 356.765 87.055 340.818 87.9914 333.888C88.9279 326.959 91.0149 320.35 91.0149 320.35L109.477 319.842L107.844 338.143L101.744 351.628V351.601Z" fill="url(#paint26_linear_332_4730)"/>
<path style="mix-blend-mode:multiply" d="M249.849 313.474C249.849 313.474 237.3 289.661 215.066 297.34V286.932C215.066 286.932 235.828 293.728 251.133 303.146L249.849 313.474Z" fill="url(#paint27_linear_332_4730)"/>
<path style="mix-blend-mode:multiply" opacity="0.3" d="M235.125 191.76L233.814 293.888L218.242 288.002L235.125 191.76Z" fill="url(#paint28_linear_332_4730)"/>
<path style="mix-blend-mode:multiply" opacity="0.5" d="M194.406 359.949C194.406 359.949 178.593 375.28 160.426 379.481C142.259 383.709 133.215 379.481 133.215 379.481C133.215 379.481 143.115 385.715 160.426 382.157C177.737 378.598 194.406 359.949 194.406 359.949Z" fill="url(#paint29_linear_332_4730)"/>
<path style="mix-blend-mode:multiply" opacity="0.5" d="M77.9384 270.905L80.9351 271.252C80.9351 271.252 77.6976 277.861 77.9384 280.296C78.1792 282.704 79.6776 283.988 79.6776 284.443C79.6776 284.898 78.5271 289.072 78.7411 291.614C78.9819 294.156 80.5873 297.366 80.2662 298.865C79.9184 300.417 82.2194 305.821 82.9418 306.758C83.6375 307.694 104.587 307.694 111.276 307.694C112.266 307.694 113.337 307.614 114.46 307.534L116.039 307.052C116.039 307.052 89.6576 305.5 88.3465 304.858C87.089 304.243 87.196 295.922 87.196 295.922C85.6709 293.781 87.196 285.433 87.196 285.433C86.1525 282.035 87.196 271.386 87.196 271.386L80.3732 270.423C80.3732 270.423 78.3397 267.988 77.9117 266.196C77.4568 264.43 79.7311 260.711 79.7311 260.711C78.3398 260.577 69.4567 263.6 68.7878 264.885C68.0922 266.142 69.2427 267.774 70.0454 268.925C70.8481 270.102 77.9117 270.905 77.9117 270.905H77.9384Z" fill="url(#paint30_linear_332_4730)"/>
<path style="mix-blend-mode:multiply" opacity="0.5" d="M119.865 262.585L124.969 263.654L101.862 252.047L107.131 260.829L119.865 262.585Z" fill="url(#paint31_linear_332_4730)"/>
<path style="mix-blend-mode:multiply" opacity="0.5" d="M124.978 263.654C124.978 263.654 130.382 281.313 131.078 284.202C131.774 287.092 141.031 288.778 141.031 288.778C141.031 288.778 136.563 282.383 133.54 276.202C130.489 270.022 126.476 264.376 124.978 263.627V263.654Z" fill="url(#paint32_linear_332_4730)"/>
<g style="mix-blend-mode:multiply">
<path d="M110.217 313.522L84.4972 312.179L84.3099 307.374L110.656 307.788L110.217 313.522Z" fill="#E89FC0"/>
</g>
<path style="mix-blend-mode:multiply" opacity="0.5" d="M242.375 337.099C242.375 337.099 232.823 332.47 226.723 330.945C220.622 329.393 203.044 332.256 203.044 332.256C203.044 332.256 234.803 341.434 242.375 337.126V337.099Z" fill="url(#paint33_linear_332_4730)"/>
<path d="M103.836 53.7525C104.505 56.8562 110.659 78.2076 109.455 87.3849V87.5989C108.224 96.6693 107.234 103.224 107.02 111.091C106.94 113.954 108.679 119.599 111.381 125.753C116.09 136.563 123.849 148.951 130.003 150.262C130.619 150.395 131.288 150.476 132.037 150.476C142.712 150.797 164.679 139.559 175.087 122.302C176.398 120.134 177.522 117.914 178.539 115.639C178.566 115.639 178.566 115.586 178.566 115.586C186.084 98.4887 185.95 78.8765 189.402 65.6055C193.335 50.5685 179.903 23.4379 159.569 16.2137C139.261 8.98959 121.04 13.4311 121.04 13.4311C121.04 13.4311 109.588 42.7022 104.799 48.4548C104.799 48.4548 103.14 50.6488 103.836 53.7793V53.7525Z" fill="url(#paint34_linear_332_4730)"/>
<path style="mix-blend-mode:multiply" opacity="0.6" d="M120.584 129.186C126.043 130.011 132.248 129.639 132.914 128.973C132.914 128.973 128.121 131.636 124.446 130.624C122.049 129.958 120.584 129.186 120.584 129.186Z" fill="url(#paint35_linear_332_4730)"/>
<path style="mix-blend-mode:multiply" opacity="0.6" d="M126.229 125.271C136.082 121.969 140.609 117.921 140.609 117.921C140.609 117.921 131.182 119.066 124.205 120.984C120.424 122.022 117.148 125.085 117.148 125.085L126.229 125.298V125.271Z" fill="url(#paint36_linear_332_4730)"/>
<path style="mix-blend-mode:multiply" opacity="0.6" d="M131 129.825C131 129.825 130.201 135.95 127.991 136.323C125.78 136.696 121.866 129.745 121.866 129.745C121.866 129.745 124.902 131.449 131 129.825Z" fill="url(#paint37_linear_332_4730)"/>
<path d="M117.153 125.058C117.153 125.058 129.562 126.017 143.117 115.924C143.117 115.924 135.954 122.076 128.657 124.739C121.387 127.402 117.126 125.058 117.126 125.058H117.153Z" fill="#C44A4C"/>
<path d="M128.644 53.8595C128.644 53.8595 130.25 59.4783 132.631 61.8864C132.631 61.8864 140.31 61.8864 149.193 63.9198C158.076 65.9533 161.18 68.4148 161.18 68.4148C161.18 68.4148 157.434 61.7793 151.253 58.6756C145.073 55.5987 128.644 53.8595 128.644 53.8595Z" fill="url(#paint38_linear_332_4730)"/>
<path d="M182.774 84.1739C182.774 84.1739 191.47 74.2206 199.925 74.836C208.353 75.4247 210.815 93.0569 204.313 102.93C197.811 112.803 185.477 115.96 183.764 114.943C182.079 113.927 178.707 106.488 178.707 106.488L182.774 84.1739Z" fill="url(#paint39_linear_332_4730)"/>
<path d="M152.479 45.8059C152.479 45.8059 168.051 72.3212 178.459 80.6423L179.262 90.0337C179.262 90.0337 185.229 80.9634 191.195 77.164L190.526 66.194C190.526 66.194 168.212 50.7023 152.479 45.7792V45.8059Z" fill="url(#paint40_linear_332_4730)"/>
<path d="M183.867 83.6392L178.462 80.6425C178.462 80.6425 178.088 90.462 175.867 94.9035L178.73 99.8267C178.73 99.8267 181.138 88.2948 183.867 83.6392Z" fill="url(#paint41_linear_332_4730)"/>
<path d="M190.849 71.4918C190.849 71.4918 200.829 43.9331 200.401 35.0768C199.973 26.2206 171.451 6.28729 171.451 6.28729C171.451 6.28729 134.554 2.94278 125.27 7.38429C115.985 11.8258 105.497 41.6588 105.497 41.6588C105.497 41.6588 139.771 41.2575 158.795 49.1238C177.845 56.9901 190.849 71.5186 190.849 71.5186V71.4918Z" fill="url(#paint42_linear_332_4730)"/>
<path d="M197.082 52.2006C197.082 52.2006 210.112 47.6253 222.42 51.7458C222.42 51.7458 225.39 57.9799 219.878 59.8529C219.878 59.8529 205.269 56.5351 194.513 60.6556L197.082 52.2006Z" fill="#A21642"/>
<path d="M176.079 9.65838C176.079 9.65838 177.657 4.30716 177.149 3.74529C176.668 3.18341 173.403 2.35397 171.557 2.72856C169.738 3.10314 168.079 5.69848 168.079 5.69848L171.423 6.28711L176.052 9.68514L176.079 9.65838Z" fill="#A21642"/>
<path d="M171.45 6.28715C171.45 6.28715 181.456 18.4612 181.43 23.7856C181.403 29.1101 168.694 53.3511 168.694 53.3511C168.694 53.3511 141.429 35.3175 108.145 33.2573C108.145 33.2573 118.633 8.88249 125.697 6.28715C132.76 3.69181 158.072 3.66505 171.45 6.28715Z" fill="url(#paint43_linear_332_4730)"/>
<path d="M160.695 27.6651C160.695 27.6651 136.16 12.5212 118.287 16.5614L112.267 27.237C112.267 27.237 131.451 27.023 156.468 37.7254L160.695 27.6651Z" fill="#FF3748"/>
<path style="mix-blend-mode:multiply" opacity="0.5" d="M182.364 97.9802C182.364 97.9802 188.036 87.144 195.688 86.2878C203.34 85.4316 206.391 91.2912 206.391 91.2912C206.391 91.2912 203.929 88.241 197.481 88.134C197.481 88.134 197.882 94.7962 196.946 100.629C196.009 106.462 190.979 108.843 189.053 107.773C187.126 106.729 192.504 97.124 190.498 94.6357C188.491 92.1474 182.364 97.9802 182.364 97.9802Z" fill="url(#paint44_linear_332_4730)"/>
<path style="mix-blend-mode:multiply" opacity="0.5" d="M157.461 83.88C157.461 83.88 154.304 91.8265 146.357 92.2546C138.411 92.6827 139.989 81.9535 139.989 81.9535L157.461 83.88Z" fill="url(#paint45_linear_332_4730)"/>
<path style="mix-blend-mode:multiply" opacity="0.5" d="M119.141 84.5754C119.141 84.5754 116.251 92.2812 112.532 92.3347C108.813 92.3882 109.615 84.8965 109.615 84.8965L119.141 84.5754Z" fill="url(#paint46_linear_332_4730)"/>
<path style="mix-blend-mode:multiply" opacity="0.5" d="M193.017 87.0101C193.017 87.0101 197.485 89.4449 197.405 96.6155C197.325 103.786 192.027 108.308 189.753 107.425C187.479 106.542 192.669 96.5353 190.502 94.6623C188.335 92.8162 183.465 97.0436 183.465 97.0436C183.465 97.0436 187.318 89.2309 193.017 87.0101Z" fill="url(#paint47_linear_332_4730)"/>
<path d="M117.828 64.8294C117.828 64.8294 116.142 59.7458 104.798 57.4715C104.798 57.4715 102.203 51.6119 103.433 47.7858C103.433 47.7858 112.825 50.5149 117.828 64.8294Z" fill="url(#paint48_linear_332_4730)"/>
<path style="mix-blend-mode:multiply" opacity="0.5" d="M158.18 82.3012C158.18 82.3012 154.969 70.9031 142.18 65.4984L140.601 68.9767L158.18 82.3012Z" fill="url(#paint49_linear_332_4730)"/>
<g style="mix-blend-mode:multiply">
<path d="M105.955 62.6889C105.955 62.6889 116.63 64.4013 134.825 66.2207C153.019 68.0401 170.945 55.3845 170.945 55.3845C170.945 55.3845 153.688 44.3877 140.738 40.1068C127.788 35.8258 110.798 39.9997 110.798 39.9997L104.804 48.4279C104.804 48.4279 100.871 45.5383 105.955 62.6621V62.6889Z" fill="#C98BC2"/>
</g>
<path style="mix-blend-mode:multiply" opacity="0.5" d="M119.442 83.5583C119.442 83.5583 119.95 71.197 108.285 64.6685L108.713 69.2171L119.442 83.5583Z" fill="url(#paint50_linear_332_4730)"/>
<path d="M119.435 82.6223C119.89 85.3782 115.636 90.0873 112.8 88.9368C109.937 87.7863 108.224 78.0203 108.706 69.2176C108.706 69.2176 117.188 69.1105 119.435 82.6223Z" fill="url(#paint51_linear_332_4730)"/>
<path d="M140.47 85.5387C142.959 90.5421 153.34 94.5823 158.156 82.2745C158.156 82.2745 153.26 71.0369 140.577 68.95C140.577 68.95 136.109 76.7627 140.444 85.512L140.47 85.5387Z" fill="url(#paint52_linear_332_4730)"/>
<mask id="mask2_332_4730" style="mask-type:luminance" maskUnits="userSpaceOnUse" x="108" y="69" width="12" height="21">
<path d="M119.443 82.6223C119.898 85.3782 115.644 90.0873 112.807 88.9368C109.944 87.7863 108.232 78.0203 108.714 69.2176C108.714 69.2176 117.195 69.1105 119.443 82.6223Z" fill="white"/>
</mask>
<g mask="url(#mask2_332_4730)">
<path d="M113.179 84.4153C113.179 84.4153 115.855 75.3717 108.738 68.977C108.738 68.977 106.517 80.1343 108.738 83.2915C110.932 86.4487 113.206 84.4153 113.206 84.4153H113.179Z" fill="#AD7A90"/>
<g style="mix-blend-mode:multiply">
<path d="M111.517 85.0573C111.517 85.0573 113.791 76.6559 108.306 71.4117C108.306 71.4117 107.129 78.2345 107.905 81.3115C108.681 84.3617 110.714 85.2178 111.517 85.0573Z" fill="#AB8BC2"/>
</g>
</g>
<path d="M119.039 80.5621C119.039 80.5621 116.925 71.8664 108.765 70.2343L105.768 67.7192C105.768 67.7192 115.989 66.7293 119.039 80.5621Z" fill="#95344D"/>
<path d="M139.935 70.4214L137.875 66.7558C137.875 66.7558 152.859 69.2441 158.156 82.2743C158.156 82.2743 153.34 73.6856 139.909 70.3946L139.935 70.4214Z" fill="#95344D"/>
<mask id="mask3_332_4730" style="mask-type:luminance" maskUnits="userSpaceOnUse" x="138" y="68" width="21" height="23">
<path d="M140.463 85.5387C142.951 90.5421 153.332 94.5823 158.148 82.2745C158.148 82.2745 153.252 71.0369 140.57 68.95C140.57 68.95 136.101 76.7627 140.436 85.512L140.463 85.5387Z" fill="white"/>
</mask>
<g mask="url(#mask3_332_4730)">
<path d="M144.022 89.231C144.022 89.231 147.474 74.8095 139.179 72.1339C139.179 72.1339 134.31 84.7092 144.022 89.231Z" fill="#AD7A90"/>
<g style="mix-blend-mode:multiply">
<path d="M138.592 73.8193C138.592 73.8193 144.692 77.8595 141.829 87.8663C141.829 87.8663 136.478 83.9866 138.592 73.8193Z" fill="#AB8BC2"/>
</g>
</g>
<path d="M149.055 81.9264C149.055 81.9264 145.389 81.7659 144.533 84.4682C144.533 84.4682 147.209 85.2442 149.055 81.9264Z" fill="white"/>
<path d="M115.773 81.766C115.773 81.766 113.392 81.6857 112.83 83.5319C112.83 83.5319 114.462 83.7727 115.773 81.766Z" fill="white"/>
<path style="mix-blend-mode:multiply" opacity="0.3" d="M113.983 99.0771C113.983 99.0771 119.789 95.4115 127.173 96.6423C134.558 97.8463 129.341 89.0971 120.859 87.8395C120.859 87.8395 119.976 93.5386 113.983 99.0771Z" fill="url(#paint53_linear_332_4730)"/>
<path style="mix-blend-mode:multiply" opacity="0.5" d="M132.632 61.8862C132.632 61.8862 134.158 85.057 139.455 91.2109C144.753 97.3648 153.743 93.726 159.629 87.1975C165.516 80.669 161.181 68.388 161.181 68.388C161.181 68.388 150.506 60.7625 132.632 61.8595V61.8862Z" fill="url(#paint54_linear_332_4730)"/>
<path style="mix-blend-mode:multiply" opacity="0.5" d="M131.933 99.3985C131.933 99.3985 134.743 101.673 135.893 104.482C137.044 107.265 134.235 109.7 131.024 107.96C127.813 106.195 126.582 106.462 126.957 107.746C127.305 109.031 125.405 110.449 120.723 110.315C116.04 110.181 111.412 105.927 112.803 101.459C112.803 101.459 110.127 109.325 120.883 111.385C131.612 113.445 133.405 108.843 137.097 107.345C140.79 105.847 131.96 99.3985 131.96 99.3985H131.933Z" fill="url(#paint55_linear_332_4730)"/>
<path style="mix-blend-mode:multiply" opacity="0.5" d="M133.273 109.218C133.273 109.218 129.742 107.077 128.136 107.345C126.531 107.612 127.655 109.619 129.314 110.315C130.972 111.01 133.273 109.245 133.273 109.245V109.218Z" fill="url(#paint56_linear_332_4730)"/>
<path style="mix-blend-mode:multiply" opacity="0.5" d="M137.898 105.659C137.898 105.659 137.069 106.489 130.728 106.168C123.423 105.793 118.286 106.569 112.882 105.151C112.882 105.151 116.44 118.609 122.942 118.85C131.477 119.144 137.898 105.659 137.898 105.659Z" fill="url(#paint57_linear_332_4730)"/>
<path style="mix-blend-mode:multiply" opacity="0.5" d="M141.83 110.422C141.83 110.422 145.361 113.365 147.154 119.011C147.154 119.011 148.171 115.934 147.582 113.231C146.967 110.502 141.83 110.422 141.83 110.422Z" fill="url(#paint58_linear_332_4730)"/>
<path style="mix-blend-mode:multiply" opacity="0.5" d="M117.833 64.8296C117.833 64.8296 120.883 79.1441 120.322 86.1007C119.76 93.0572 108.576 94.3415 108.629 93.9669C108.683 93.5924 110.02 85.191 109.352 79.8665C108.683 74.5688 104.803 57.4717 104.803 57.4717C104.803 57.4717 113.713 55.7325 117.833 64.8296Z" fill="url(#paint59_linear_332_4730)"/>
<path d="M168.586 53.9664C168.586 53.9664 139.796 55.7858 129.79 51.3711C119.783 46.9563 98.4047 36.9495 84.9999 35.692C71.5952 34.4345 67.1269 43.3977 67.1269 43.3977C67.1269 43.3977 70.9798 35.8525 84.4648 33.4445C97.5218 33.498 109.455 33.2304 109.455 33.2304C109.455 33.2304 147.609 35.9328 168.586 53.9664Z" fill="url(#paint60_linear_332_4730)"/>
<path d="M104.373 49.1504C104.373 49.1504 85.5097 50.0869 68.1986 46.9296C68.1986 46.9296 73.7103 36.4948 89.4697 36.8426C105.256 37.1904 109.43 42.6754 109.43 42.6754L104.346 49.1504H104.373Z" fill="#A21642"/>
<path d="M67.1552 43.3976L68.2254 46.9562C68.2254 46.9562 77.0014 33.6584 97.9247 38.8758C118.848 44.0933 120.748 51.3442 131.825 55.1435C142.902 58.9697 170.969 55.3843 170.969 55.3843L168.721 53.3776C168.721 53.3776 144.775 54.6084 135.383 51.9596C125.992 49.3107 107.209 36.9494 89.3092 34.9427C71.4094 32.936 67.1552 43.3709 67.1552 43.3709V43.3976Z" fill="url(#paint61_linear_332_4730)"/>
<path style="mix-blend-mode:multiply" opacity="0.5" d="M187.32 79.9466C187.32 79.9466 177.099 74.2208 172.925 63.7859C172.925 63.7859 181.086 73.6322 191.227 77.164L187.347 79.9199L187.32 79.9466Z" fill="url(#paint62_linear_332_4730)"/>
<path style="mix-blend-mode:multiply" opacity="0.5" d="M122.564 8.56128C122.564 8.56128 162.484 12.4944 181.454 23.7855C200.424 35.0766 200.023 39.7856 200.023 39.7856C200.023 39.7856 195.795 58.0065 190.872 71.4916C190.872 71.4916 176.317 58.9697 167.086 52.3342C157.855 45.6987 134.684 34.6752 108.169 33.2571C108.169 33.2571 116.089 13.966 122.564 8.56128Z" fill="url(#paint63_linear_332_4730)"/>
<path style="mix-blend-mode:multiply" opacity="0.5" d="M132.068 150.502C142.744 150.823 164.711 139.586 175.119 122.328C176.43 120.161 177.554 117.94 178.57 115.666C177.848 116.629 168.778 130.917 155.801 138.703C143.814 145.873 133.567 149.967 132.068 150.529V150.502Z" fill="url(#paint64_linear_332_4730)"/>
<defs>
<linearGradient id="paint0_linear_332_4730" x1="97.722" y1="420.123" x2="97.722" y2="292.812" gradientUnits="userSpaceOnUse">
<stop offset="0.02" stop-color="#FFA67F"/>
<stop offset="1" stop-color="#FF8B7C"/>
</linearGradient>
<linearGradient id="paint1_linear_332_4730" x1="179.872" y1="763.269" x2="179.872" y2="407.224" gradientUnits="userSpaceOnUse">
<stop offset="0.02" stop-color="#281D8B"/>
<stop offset="1" stop-color="#2B3698"/>
</linearGradient>
<radialGradient id="paint2_radial_332_4730" cx="0" cy="0" r="1" gradientUnits="userSpaceOnUse" gradientTransform="translate(103.242 743.213) rotate(180) scale(56.8136 56.8136)">
<stop stop-color="#B15C38"/>
<stop offset="1" stop-color="#8D423D"/>
</radialGradient>
<radialGradient id="paint3_radial_332_4730" cx="0" cy="0" r="1" gradientUnits="userSpaceOnUse" gradientTransform="translate(287.351 745.882) rotate(180) scale(36.1504 36.1504)">
<stop stop-color="#B15C38"/>
<stop offset="1" stop-color="#8D423D"/>
</radialGradient>
<linearGradient id="paint4_linear_332_4730" x1="58.8833" y1="777.059" x2="58.8833" y2="755.829" gradientUnits="userSpaceOnUse">
<stop stop-color="#E2E3F6"/>
<stop offset="1" stop-color="#F1E8FF"/>
</linearGradient>
<linearGradient id="paint5_linear_332_4730" x1="261.31" y1="778.272" x2="261.31" y2="753.08" gradientUnits="userSpaceOnUse">
<stop stop-color="#E2E3F6"/>
<stop offset="1" stop-color="#F1E8FF"/>
</linearGradient>
<linearGradient id="paint6_linear_332_4730" x1="295.766" y1="769.376" x2="226.417" y2="769.376" gradientUnits="userSpaceOnUse">
<stop stop-color="#8E81F4"/>
<stop offset="0.99" stop-color="#832297"/>
</linearGradient>
<linearGradient id="paint7_linear_332_4730" x1="117.719" y1="772.206" x2="13.109" y2="772.206" gradientUnits="userSpaceOnUse">
<stop offset="0.01" stop-color="#832297"/>
<stop offset="1" stop-color="#8E81F4"/>
</linearGradient>
<linearGradient id="paint8_linear_332_4730" x1="192.71" y1="140.655" x2="200.094" y2="100.063" gradientUnits="userSpaceOnUse">
<stop offset="0.02" stop-color="#E05215"/>
<stop offset="1" stop-color="#A73609"/>
</linearGradient>
<linearGradient id="paint9_linear_332_4730" x1="100.412" y1="293.299" x2="100.412" y2="191.723" gradientUnits="userSpaceOnUse">
<stop offset="0.02" stop-color="#3B3195"/>
<stop offset="1" stop-color="#3D47BB"/>
</linearGradient>
<linearGradient id="paint10_linear_332_4730" x1="162.56" y1="188.605" x2="162.56" y2="113.775" gradientUnits="userSpaceOnUse">
<stop offset="0.02" stop-color="#FFA67F"/>
<stop offset="1" stop-color="#FF8B7C"/>
</linearGradient>
<linearGradient id="paint11_linear_332_4730" x1="167.151" y1="451.964" x2="167.151" y2="155.539" gradientUnits="userSpaceOnUse">
<stop offset="0.02" stop-color="#D7D1FD"/>
<stop offset="1" stop-color="white"/>
</linearGradient>
<linearGradient id="paint12_linear_332_4730" x1="188.977" y1="193.687" x2="118.688" y2="193.687" gradientUnits="userSpaceOnUse">
<stop stop-color="#6175B8"/>
<stop offset="1" stop-color="white"/>
</linearGradient>
<linearGradient id="paint13_linear_332_4730" x1="199.672" y1="272.831" x2="156.541" y2="272.831" gradientUnits="userSpaceOnUse">
<stop stop-color="#6175B8"/>
<stop offset="1" stop-color="white"/>
</linearGradient>
<linearGradient id="paint14_linear_332_4730" x1="226.703" y1="307.046" x2="226.703" y2="282.898" gradientUnits="userSpaceOnUse">
<stop offset="0.02" stop-color="#3B3195"/>
<stop offset="1" stop-color="#3D47BB"/>
</linearGradient>
<linearGradient id="paint15_linear_332_4730" x1="109.236" y1="296.585" x2="59.7168" y2="220.867" gradientUnits="userSpaceOnUse">
<stop stop-color="#8988FE"/>
<stop offset="1" stop-color="#A8CEFF"/>
</linearGradient>
<linearGradient id="paint16_linear_332_4730" x1="120.199" y1="289.418" x2="70.6764" y2="213.696" gradientUnits="userSpaceOnUse">
<stop stop-color="#B9CBFE"/>
<stop offset="1" stop-color="#E2FFFF"/>
</linearGradient>
<linearGradient id="paint17_linear_332_4730" x1="93.2402" y1="278.53" x2="85.0888" y2="252.895" gradientUnits="userSpaceOnUse">
<stop stop-color="#71C7C4"/>
<stop offset="1" stop-color="#4F3188"/>
</linearGradient>
<linearGradient id="paint18_linear_332_4730" x1="159.964" y1="338.1" x2="159.964" y2="252.021" gradientUnits="userSpaceOnUse">
<stop offset="0.02" stop-color="#FFAE78"/>
<stop offset="1" stop-color="#FF957C"/>
</linearGradient>
<linearGradient id="paint19_linear_332_4730" x1="226.602" y1="306.249" x2="226.602" y2="188.528" gradientUnits="userSpaceOnUse">
<stop offset="0.02" stop-color="#3B3195"/>
<stop offset="1" stop-color="#3D47BB"/>
</linearGradient>
<linearGradient id="paint20_linear_332_4730" x1="163.663" y1="195.908" x2="163.663" y2="155.532" gradientUnits="userSpaceOnUse">
<stop stop-color="#8E81F4"/>
<stop offset="0.99" stop-color="#832297"/>
</linearGradient>
<linearGradient id="paint21_linear_332_4730" x1="226.703" y1="306.25" x2="226.703" y2="274.992" gradientUnits="userSpaceOnUse">
<stop offset="0.02" stop-color="#3B3195"/>
<stop offset="1" stop-color="#3D47BB"/>
</linearGradient>
<linearGradient id="paint22_linear_332_4730" x1="200.854" y1="275.052" x2="200.854" y2="198.69" gradientUnits="userSpaceOnUse">
<stop stop-color="#6175B8"/>
<stop offset="1" stop-color="white"/>
</linearGradient>
<linearGradient id="paint23_linear_332_4730" x1="175.281" y1="373.702" x2="105.528" y2="373.702" gradientUnits="userSpaceOnUse">
<stop stop-color="white"/>
<stop offset="1" stop-color="#6175B8"/>
</linearGradient>
<linearGradient id="paint24_linear_332_4730" x1="178.379" y1="400.056" x2="99.6096" y2="400.056" gradientUnits="userSpaceOnUse">
<stop stop-color="white"/>
<stop offset="1" stop-color="#6175B8"/>
</linearGradient>
<linearGradient id="paint25_linear_332_4730" x1="210.14" y1="441.689" x2="145.792" y2="441.689" gradientUnits="userSpaceOnUse">
<stop stop-color="#6175B8"/>
<stop offset="1" stop-color="white"/>
</linearGradient>
<linearGradient id="paint26_linear_332_4730" x1="96.1735" y1="356.02" x2="86.98" y2="325.2" gradientUnits="userSpaceOnUse">
<stop offset="0.02" stop-color="#D1A1D6"/>
<stop offset="0.99" stop-color="#BD89C4"/>
</linearGradient>
<linearGradient id="paint27_linear_332_4730" x1="233.517" y1="312.938" x2="229.71" y2="289.428" gradientUnits="userSpaceOnUse">
<stop offset="0.02" stop-color="#D1A1D6"/>
<stop offset="0.99" stop-color="#BD89C4"/>
</linearGradient>
<linearGradient id="paint28_linear_332_4730" x1="226.697" y1="293.888" x2="226.697" y2="191.76" gradientUnits="userSpaceOnUse">
<stop stop-color="#6175B8"/>
<stop offset="1" stop-color="white"/>
</linearGradient>
<linearGradient id="paint29_linear_332_4730" x1="163.797" y1="383.254" x2="163.797" y2="359.949" gradientUnits="userSpaceOnUse">
<stop stop-color="#6175B8"/>
<stop offset="1" stop-color="white"/>
</linearGradient>
<linearGradient id="paint30_linear_332_4730" x1="92.3064" y1="307.694" x2="92.3064" y2="260.711" gradientUnits="userSpaceOnUse">
<stop stop-color="white"/>
<stop offset="1" stop-color="#E5658E"/>
</linearGradient>
<linearGradient id="paint31_linear_332_4730" x1="119.644" y1="263.654" x2="119.644" y2="256.537" gradientUnits="userSpaceOnUse">
<stop stop-color="white"/>
<stop offset="1" stop-color="#E5658E"/>
</linearGradient>
<linearGradient id="paint32_linear_332_4730" x1="133.004" y1="288.805" x2="133.004" y2="263.654" gradientUnits="userSpaceOnUse">
<stop stop-color="white"/>
<stop offset="1" stop-color="#E5658E"/>
</linearGradient>
<linearGradient id="paint33_linear_332_4730" x1="242.375" y1="334.37" x2="203.044" y2="334.37" gradientUnits="userSpaceOnUse">
<stop stop-color="#E5658E"/>
<stop offset="1" stop-color="white"/>
</linearGradient>
<linearGradient id="paint34_linear_332_4730" x1="146.884" y1="150.486" x2="146.884" y2="12.0392" gradientUnits="userSpaceOnUse">
<stop offset="0.02" stop-color="#FFAE78"/>
<stop offset="1" stop-color="#FF957C"/>
</linearGradient>
<linearGradient id="paint35_linear_332_4730" x1="133.237" y1="128.997" x2="121.02" y2="130.204" gradientUnits="userSpaceOnUse">
<stop stop-color="#D188B8"/>
<stop offset="0.99" stop-color="#A938F4"/>
</linearGradient>
<linearGradient id="paint36_linear_332_4730" x1="139.26" y1="115.338" x2="117.961" y2="126.545" gradientUnits="userSpaceOnUse">
<stop stop-color="#D188B8"/>
<stop offset="0.99" stop-color="#A938F4"/>
</linearGradient>
<linearGradient id="paint37_linear_332_4730" x1="128.274" y1="135.951" x2="126.459" y2="128.335" gradientUnits="userSpaceOnUse">
<stop stop-color="#FFEADB"/>
<stop offset="0.99" stop-color="#B060F4"/>
</linearGradient>
<linearGradient id="paint38_linear_332_4730" x1="162.05" y1="64.0429" x2="127.987" y2="57.8464" gradientUnits="userSpaceOnUse">
<stop offset="0.02" stop-color="#E05215"/>
<stop offset="1" stop-color="#A73609"/>
</linearGradient>
<linearGradient id="paint39_linear_332_4730" x1="190.342" y1="116.182" x2="197.937" y2="74.4321" gradientUnits="userSpaceOnUse">
<stop offset="0.02" stop-color="#FFB374"/>
<stop offset="1" stop-color="#FF9577"/>
</linearGradient>
<linearGradient id="paint40_linear_332_4730" x1="167.127" y1="87.8383" x2="174.061" y2="49.7211" gradientUnits="userSpaceOnUse">
<stop offset="0.02" stop-color="#E05215"/>
<stop offset="1" stop-color="#A73609"/>
</linearGradient>
<linearGradient id="paint41_linear_332_4730" x1="178.053" y1="99.6975" x2="181.42" y2="81.1917" gradientUnits="userSpaceOnUse">
<stop offset="0.02" stop-color="#C23422"/>
<stop offset="1" stop-color="#A73609"/>
</linearGradient>
<linearGradient id="paint42_linear_332_4730" x1="148.629" y1="63.8049" x2="159.489" y2="4.1019" gradientUnits="userSpaceOnUse">
<stop stop-color="#C3041A"/>
<stop offset="1" stop-color="#FF3748"/>
</linearGradient>
<linearGradient id="paint43_linear_332_4730" x1="141.294" y1="48.3564" x2="149.669" y2="2.31559" gradientUnits="userSpaceOnUse">
<stop stop-color="#FFC4BA"/>
<stop offset="1" stop-color="#FFD9D6"/>
</linearGradient>
<linearGradient id="paint44_linear_332_4730" x1="191.939" y1="108.398" x2="196.048" y2="85.8115" gradientUnits="userSpaceOnUse">
<stop stop-color="white"/>
<stop offset="1" stop-color="#E5658E"/>
</linearGradient>
<linearGradient id="paint45_linear_332_4730" x1="156.609" y1="89.0245" x2="139.367" y2="85.888" gradientUnits="userSpaceOnUse">
<stop stop-color="white"/>
<stop offset="1" stop-color="#E5658E"/>
</linearGradient>
<linearGradient id="paint46_linear_332_4730" x1="118.438" y1="88.9347" x2="109.277" y2="87.2683" gradientUnits="userSpaceOnUse">
<stop stop-color="white"/>
<stop offset="1" stop-color="#E5658E"/>
</linearGradient>
<linearGradient id="paint47_linear_332_4730" x1="188.701" y1="107.236" x2="192.403" y2="86.888" gradientUnits="userSpaceOnUse">
<stop stop-color="white"/>
<stop offset="1" stop-color="#E5658E"/>
</linearGradient>
<linearGradient id="paint48_linear_332_4730" x1="119.169" y1="57.8479" x2="102.19" y2="54.7593" gradientUnits="userSpaceOnUse">
<stop offset="0.02" stop-color="#E05215"/>
<stop offset="1" stop-color="#A73609"/>
</linearGradient>
<linearGradient id="paint49_linear_332_4730" x1="148.548" y1="80.5424" x2="150.995" y2="67.0908" gradientUnits="userSpaceOnUse">
<stop stop-color="white"/>
<stop offset="1" stop-color="#E5658E"/>
</linearGradient>
<linearGradient id="paint50_linear_332_4730" x1="112.45" y1="82.269" x2="115.419" y2="65.948" gradientUnits="userSpaceOnUse">
<stop stop-color="white"/>
<stop offset="1" stop-color="#E5658E"/>
</linearGradient>
<linearGradient id="paint51_linear_332_4730" x1="111.88" y1="88.8027" x2="115.242" y2="70.3232" gradientUnits="userSpaceOnUse">
<stop stop-color="#F2DEF8"/>
<stop offset="1" stop-color="white"/>
</linearGradient>
<linearGradient id="paint52_linear_332_4730" x1="146.426" y1="90.1363" x2="149.969" y2="70.6565" gradientUnits="userSpaceOnUse">
<stop stop-color="#F2DEF8"/>
<stop offset="1" stop-color="white"/>
</linearGradient>
<linearGradient id="paint53_linear_332_4730" x1="130.676" y1="95.8375" x2="115.145" y2="93.0122" gradientUnits="userSpaceOnUse">
<stop stop-color="white"/>
<stop offset="1" stop-color="#E5658E"/>
</linearGradient>
<linearGradient id="paint54_linear_332_4730" x1="143.519" y1="94.0128" x2="149.117" y2="63.24" gradientUnits="userSpaceOnUse">
<stop stop-color="white"/>
<stop offset="1" stop-color="#E5658E"/>
</linearGradient>
<linearGradient id="paint55_linear_332_4730" x1="137.836" y1="107.448" x2="112.591" y2="102.855" gradientUnits="userSpaceOnUse">
<stop stop-color="#FFC2C4"/>
<stop offset="1" stop-color="#E5658E"/>
</linearGradient>
<linearGradient id="paint56_linear_332_4730" x1="133.288" y1="109.584" x2="127.339" y2="108.502" gradientUnits="userSpaceOnUse">
<stop stop-color="#B04C8E"/>
<stop offset="1" stop-color="#FFBDAC"/>
</linearGradient>
<linearGradient id="paint57_linear_332_4730" x1="136.563" y1="113.39" x2="112.239" y2="108.965" gradientUnits="userSpaceOnUse">
<stop stop-color="white"/>
<stop offset="1" stop-color="#E5658E"/>
</linearGradient>
<linearGradient id="paint58_linear_332_4730" x1="143.965" y1="118.435" x2="145.33" y2="110.933" gradientUnits="userSpaceOnUse">
<stop stop-color="white"/>
<stop offset="1" stop-color="#E5658E"/>
</linearGradient>
<linearGradient id="paint59_linear_332_4730" x1="108.6" y1="93.9979" x2="115.026" y2="58.671" gradientUnits="userSpaceOnUse">
<stop stop-color="white"/>
<stop offset="1" stop-color="#E5658E"/>
</linearGradient>
<linearGradient id="paint60_linear_332_4730" x1="117.261" y1="52.4967" x2="120.508" y2="34.649" gradientUnits="userSpaceOnUse">
<stop stop-color="#FF273D"/>
<stop offset="1" stop-color="#FF3748"/>
</linearGradient>
<linearGradient id="paint61_linear_332_4730" x1="117.906" y1="55.9858" x2="120.717" y2="40.5336" gradientUnits="userSpaceOnUse">
<stop stop-color="#C3041A"/>
<stop offset="1" stop-color="#FF3748"/>
</linearGradient>
<linearGradient id="paint62_linear_332_4730" x1="191.839" y1="74.0034" x2="171.78" y2="70.3544" gradientUnits="userSpaceOnUse">
<stop stop-color="#A13D7F"/>
<stop offset="1" stop-color="white"/>
</linearGradient>
<linearGradient id="paint63_linear_332_4730" x1="198.73" y1="47.3013" x2="108.649" y2="30.9145" gradientUnits="userSpaceOnUse">
<stop stop-color="#E5658E"/>
<stop offset="1" stop-color="white"/>
</linearGradient>
<linearGradient id="paint64_linear_332_4730" x1="174.82" y1="136.611" x2="135.939" y2="129.538" gradientUnits="userSpaceOnUse">
<stop stop-color="white"/>
<stop offset="1" stop-color="#E5658E"/>
</linearGradient>
</defs>
</svg>
