<svg width="307" height="786" viewBox="0 0 307 786" fill="none" xmlns="http://www.w3.org/2000/svg">
<path d="M207.068 297.341C207.068 297.341 216.45 341.753 220.191 355.201C223.933 368.65 229.573 380.227 230.196 381.474C230.82 382.721 228 387.412 228 387.412L230.278 423.365L204.303 390.123C204.303 390.123 205.794 382.071 210.485 378.329C210.485 378.329 200.67 347.691 189.96 328.928C179.223 310.166 181.094 300.784 181.094 300.784C181.094 300.784 196.413 288.909 207.041 297.341H207.068Z" fill="#FFF0DD"/>
<path d="M223.663 488.135C223.663 488.135 236.755 498.442 219.565 503.133C202.375 507.824 204.327 493.03 204.327 493.03L167.398 436L204.327 390.151L230.085 420.111C230.085 420.111 234.423 424.721 233.962 427.459C233.501 430.198 230.302 435.837 230.302 435.837C230.302 435.837 229.922 449.746 230.302 455.332C230.681 460.917 225.888 470.336 225.888 470.336L223.663 488.135Z" fill="#FFF0DD"/>
<g style="mix-blend-mode:multiply">
<path d="M203.057 393.215C203.057 393.215 214.445 415.149 221.277 437.925C221.277 437.925 206.88 407.693 203.057 406.636C199.234 405.578 231.119 457.528 231.119 457.528C231.119 457.528 208.344 429.004 203.681 430.414C199.017 431.824 176.947 452.891 176.947 452.891L175.998 448.852L171.117 433.478C176.052 425.263 192.049 412.709 192.049 412.709L203.057 393.242V393.215Z" fill="#FFF0DD"/>
</g>
<path fill-rule="evenodd" clip-rule="evenodd" d="M243.926 740.925C243.926 740.925 243.188 741.211 241.877 741.744C233.886 744.899 204.342 757.151 188.566 770.797V764.486L183.936 763.954C183.936 763.954 184.468 746.415 180.371 738.22L186.968 722.854C186.968 722.854 168.036 677.123 175.044 625.738L192.295 594.104L189.426 590.416L192.295 584.27C192.295 584.27 173.814 492.194 158.612 460.97L149.146 463.715C149.146 463.715 133.124 537.843 101.08 591.236L87.1069 607.258C87.1069 607.258 67.397 664.789 59.5704 723.141L65.3072 730.107L59.5704 739.163V744.899C59.5704 744.899 34.0827 742.441 5.31686 760.102C5.31686 760.102 -0.58382 747.645 0.399628 745.842C1.3421 744.08 13.2664 731.746 13.2664 730.394C13.2664 729.738 12.242 728.713 11.1356 727.607C9.86531 726.378 8.51307 725.066 8.4721 724.083C8.34916 722.321 1.75187 639.998 33.0173 595.415C33.0173 595.415 49.4491 582.59 54.94 573.82L55.8825 568.002L58.7509 564.109L90.3851 446.997L87.9265 442.079L91.2456 418.559L92.393 410.65L92.4749 410.035C92.4749 410.035 97.9658 410.445 106.817 411.265C122.019 412.699 147.056 415.444 170.741 419.706H170.864C187.869 422.779 184.966 395.722 196.522 400.475C196.522 400.475 221.307 445.972 226.306 474.246C230.895 500.267 234.993 537.843 233.846 586.277L225.445 605.25C225.445 605.25 225.445 605.25 225.445 605.332L224.954 606.479C224.954 606.479 224.954 607.094 224.954 608.282C225.076 619.674 226.06 681.672 234.05 713.306C234.05 713.306 242.86 716.052 243.967 717.691L244.09 718.018C244.95 721.256 243.967 740.966 243.967 740.966L243.926 740.925Z" fill="#FFF0DD"/>
<path fill-rule="evenodd" clip-rule="evenodd" d="M188.606 770.797L185.328 784.77H304.079C304.079 784.77 305.923 776.329 299.982 766.085C299.982 766.085 277.076 770.347 241.999 741.704C241.999 741.704 205.079 753.136 188.647 770.797H188.606Z" fill="#FFF0DD"/>
<path fill-rule="evenodd" clip-rule="evenodd" d="M55.8801 744.818C55.8801 744.818 59.7729 755.431 75.1803 767.929V786H4.90474C4.90474 786 3.67543 775.837 7.97801 758.504C7.97801 758.504 25.4342 744.654 55.8391 744.777L55.8801 744.818Z" fill="#FFF0DD"/>
<path fill-rule="evenodd" clip-rule="evenodd" d="M279.288 763.258C279.288 763.258 270.232 767.519 268.593 778.214L187.623 774.936L185.328 784.77H304.079C304.079 784.77 306.825 775.469 299.982 766.085C299.982 766.085 287.238 766.29 279.288 763.258Z" fill="#FFF0DD"/>
<path fill-rule="evenodd" clip-rule="evenodd" d="M72.1931 765.388C72.1931 765.388 50.5163 749.817 9.41635 773.994L5.56451 770.797C5.56451 770.797 3.51566 779.689 4.8679 786H75.1434V767.929L72.1521 765.388H72.1931Z" fill="#FFF0DD"/>
<g style="mix-blend-mode:multiply" opacity="0.6">
<path fill-rule="evenodd" clip-rule="evenodd" d="M17.9412 743.203C27.5298 738.532 65.3106 734.557 65.3106 734.557L59.5738 743.613V749.35C59.5738 749.35 34.0862 746.891 5.32031 764.552C13.8025 750.866 45.6007 743.203 45.6007 743.203H17.9412Z" fill="#FFF0DD"/>
</g>
<g style="mix-blend-mode:multiply" opacity="0.5">
<path fill-rule="evenodd" clip-rule="evenodd" d="M208.931 695.399C206.678 700.931 186.968 722.854 186.968 722.854C186.968 722.854 168.036 677.124 175.043 625.738L192.295 594.104L189.426 590.416L192.295 584.27C192.295 584.27 173.814 492.194 158.612 460.97L149.146 463.715C149.146 463.715 133.124 537.843 101.08 591.236L87.1068 607.258C87.1068 607.258 67.3969 664.789 59.5703 723.141L53.8335 721.911L56.7019 673.845L38.8359 721.911C38.8359 721.911 39.8604 698.882 49.326 669.338C58.7917 639.794 78.2968 603.98 78.2968 603.98L74.404 596.153L71.7405 581.975L78.1329 596.153H84.2794L98.6623 583.819C125.789 536.163 137.631 468.633 137.631 468.633C122.429 455.52 100.711 460.56 100.711 460.56L75.6333 520.55L90.4259 467.526V446.956L87.9673 442.039L92.3929 410.609L170.782 419.665H170.905C187.91 422.738 186.301 398.392 197.857 403.145C197.857 403.145 221.347 445.931 226.347 474.206L205.08 493.383C203.481 526.984 223.56 590.375 223.56 590.375L227.658 592.014L233.845 586.237L225.445 605.209C225.445 605.209 225.445 605.209 225.445 605.291C225.445 605.537 225.24 606.561 224.953 608.241C222.413 623.362 211.021 690.441 208.972 695.399H208.931Z" fill="#FFF0DD"/>
</g>
<g style="mix-blend-mode:multiply" opacity="0.6">
<path fill-rule="evenodd" clip-rule="evenodd" d="M241.963 741.704H241.881C233.891 744.9 204.347 757.152 188.57 770.797V764.487L183.94 763.954C183.94 763.954 184.473 746.416 180.375 738.221L186.972 722.854L183.407 732.443C183.407 732.443 217.951 723.961 217.09 728.345C216.271 732.73 190.783 753.013 190.783 753.013L194.922 754.653C216.558 742.605 242.004 741.704 242.004 741.704H241.963Z" fill="#FFF0DD"/>
</g>
<g style="mix-blend-mode:multiply" opacity="0.6">
<path fill-rule="evenodd" clip-rule="evenodd" d="M243.93 740.926C243.93 740.926 243.193 741.213 241.881 741.745C233.891 744.901 204.346 757.153 188.57 770.798V764.488L183.94 763.955C183.94 763.955 184.473 746.417 180.375 738.221L186.972 722.855C186.972 722.855 168.041 677.125 175.048 625.739L192.299 594.105L189.431 590.417L192.299 584.271C192.299 584.271 173.819 492.196 158.616 460.971L149.15 463.717L154.928 452.776L91.25 418.56L106.821 411.266C122.024 412.7 147.061 415.446 170.745 419.707H170.868C187.874 422.78 180.076 385.488 191.632 390.241C191.632 390.241 221.147 444.973 226.31 474.248C230.9 500.268 234.997 537.844 233.85 586.279L225.45 605.251C225.45 605.251 225.45 605.251 225.45 605.333L224.958 606.48C224.958 606.48 224.958 607.095 224.958 608.283C225.081 619.675 226.064 681.673 234.055 713.307L205.084 723.183C205.084 723.183 235.243 722.281 244.012 717.692L244.135 718.02C244.996 721.257 244.012 740.967 244.012 740.967L243.93 740.926Z" fill="#FFF0DD"/>
</g>
<g style="mix-blend-mode:multiply" opacity="0.6">
<path fill-rule="evenodd" clip-rule="evenodd" d="M8.46875 724.084C8.46875 724.084 28.7524 721.338 35.3087 722.854L13.2631 730.394L8.46875 724.084Z" fill="#FFF0DD"/>
</g>
<g style="mix-blend-mode:multiply" opacity="0.5">
<path fill-rule="evenodd" clip-rule="evenodd" d="M75.1818 767.929L9.45469 773.994L5.60286 770.798L4.90625 786H75.1818V767.929Z" fill="#FFF0DD"/>
</g>
<g style="mix-blend-mode:multiply" opacity="0.5">
<path fill-rule="evenodd" clip-rule="evenodd" d="M291.336 784.77V776.985L268.593 778.214L187.623 774.936L185.328 784.77H291.336Z" fill="#FFF0DD"/>
</g>
<g style="mix-blend-mode:soft-light">
<path fill-rule="evenodd" clip-rule="evenodd" d="M75.5966 520.551C75.5966 520.551 65.1475 564.314 68.4257 573.165L78.0962 596.153H84.2428L98.6257 583.819C98.6257 583.819 130.137 523.952 137.595 468.633C137.595 468.633 122.474 455.233 100.675 460.56L75.5966 520.551Z" fill="#FFF0DD"/>
</g>
<g style="mix-blend-mode:soft-light">
<path fill-rule="evenodd" clip-rule="evenodd" d="M17.9375 738.753C17.9375 738.753 34.2054 723.305 38.8358 721.912C43.4662 720.518 59.6111 723.141 59.6111 723.141L65.3479 730.107C65.3479 730.107 40.3929 732.115 17.9785 738.753H17.9375Z" fill="#FFF0DD"/>
</g>
<g style="mix-blend-mode:soft-light">
<path fill-rule="evenodd" clip-rule="evenodd" d="M234.01 713.265L205.039 723.141C205.039 723.141 234.624 722.526 243.967 717.65C243.967 717.65 241.14 714.659 234.051 713.265H234.01Z" fill="#FFF0DD"/>
</g>
<g style="mix-blend-mode:multiply" opacity="0.6">
<path fill-rule="evenodd" clip-rule="evenodd" d="M198.4 784.852C198.4 784.852 210.448 769.24 224.462 767.929C238.476 766.618 267.774 784.77 267.774 784.77L198.359 784.852H198.4Z" fill="#FFF0DD"/>
</g>
<g style="mix-blend-mode:multiply" opacity="0.5">
<path fill-rule="evenodd" clip-rule="evenodd" d="M16.5865 639.015C16.5865 639.015 7.07988 677.001 14.4967 697.038C21.0121 714.7 30.109 719.412 30.109 719.412C30.109 719.412 15.1524 720.027 12.6118 715.806C10.0712 711.585 5.23592 674.542 16.6275 639.015H16.5865Z" fill="#FFF0DD"/>
</g>
<path d="M133.291 117.904L131.393 133.982C129.495 134.28 127.706 134.362 126.106 134.307C119.192 134.145 114.989 131.569 114.989 131.569C118.65 136.124 125.347 135.256 125.347 135.256C125.347 135.256 113.146 143.336 106.855 134.497C100.592 125.631 98.1247 108.902 98.1247 108.902C94.3017 123.57 78.7656 124.791 78.7656 124.791C96.0641 115.111 100.619 98.9513 100.619 98.9513L126.025 103.154L133.318 117.877L133.291 117.904Z" fill="#FFF0DD"/>
<g style="mix-blend-mode:multiply">
<path d="M126.071 134.307C119.157 134.145 114.954 131.569 114.954 131.569C118.615 136.124 125.312 135.256 125.312 135.256C125.312 135.256 110.806 140.272 107.959 132.084C105.112 123.95 106.143 109.824 106.143 109.824L121.95 108.468C128.511 114.623 134.585 121.049 128.864 134.253L126.071 134.307Z" fill="#FFF0DD"/>
</g>
<path d="M127.217 147.078C127.217 147.078 96.2803 153.883 71.8782 156.459C47.476 159.035 38.5827 153.883 38.5827 153.883C38.5827 153.883 13.7196 188.833 16.7563 244.66H21.2029C21.2029 244.66 19.0881 275.867 18.3831 300.486L14.3974 303.062C14.3974 303.062 9.70678 320.415 8.29688 336.141L10.6286 337.307C10.6286 337.307 14.6143 363.824 23.9956 385.867C23.9956 385.867 78.1685 388.687 108.21 385.867C138.225 383.047 145.952 381.176 145.952 381.176L127.19 147.105L127.217 147.078Z" fill="#FFF0DD"/>
<path d="M57.2656 386.951C57.2656 386.951 60.6819 225.029 76.1909 192.086L123.857 188.399L121.389 361.464L98.3969 385.867L57.2656 386.978V386.951Z" fill="#FFF0DD"/>
<path d="M38.5818 153.883C38.5818 153.883 73.3685 166.708 82.9125 174.869L130.985 154.941L131.69 145.532C131.69 145.532 111.517 150.548 85.8678 154.29C60.2184 158.032 38.5547 153.91 38.5547 153.91L38.5818 153.883Z" fill="#FFF0DD"/>
<path d="M193.944 191.652C193.944 191.652 199.882 206.348 203 222.914C206.118 239.481 215.743 292.352 215.743 292.352L190.473 294.548C190.473 294.548 187.979 208.544 193.917 191.652H193.944Z" fill="#FFF0DD"/>
<path d="M130.34 112.779C130.34 112.779 126.842 141.465 126.083 147.701C125.297 153.965 115.617 159.279 115.617 159.279C115.617 159.279 125.459 185.389 145.008 188.372C164.557 191.354 164.232 167.576 164.232 167.576C164.232 167.576 155.311 157.733 155.013 155.375C154.715 153.016 155.176 145.993 155.176 145.993C155.176 145.993 139.314 130.864 130.34 112.779Z" fill="#FFF0DD"/>
<path d="M207.687 380.227C196.733 418.051 170.162 440.257 137.328 449.34C104.493 458.423 82.5281 454.979 82.5281 453.109C82.5281 451.238 87.2187 448.716 87.2187 448.716C87.2187 448.716 89.174 421.196 91.6684 402.732C94.1629 384.294 105.442 345.983 102.134 322.991C98.8535 300.025 54.5229 197.997 62.9552 188.616C71.3875 179.262 109.862 160.662 109.862 160.662C109.862 160.662 110.567 155.049 112.193 154.914C113.847 154.778 117.697 157.923 117.697 157.923C117.697 157.923 136.216 189.727 151.535 185.525C166.854 181.295 160.347 163.102 160.347 163.102C161.269 160.58 162.028 159.577 162.652 159.523C162.787 159.469 162.923 159.523 163.058 159.604C164.523 160.445 165.092 166.139 165.092 166.139C165.797 166.708 166.529 167.305 167.261 167.955C178.134 176.984 193.859 191.653 193.859 191.653C192.91 200.708 189.792 281.073 192.016 303.279C194.185 325.485 197.628 368.812 197.628 368.812C197.628 368.812 201.207 366.318 202.617 367.403C204.027 368.487 203.566 377.407 203.566 377.407C203.566 377.407 205.6 372.88 207.633 372.88C209.667 372.88 207.633 380.227 207.633 380.227H207.687Z" fill="#FFF0DD"/>
<g style="mix-blend-mode:multiply" opacity="0.5">
<path d="M113.117 175.384C113.117 175.384 131.554 196.939 142.562 202.254C153.571 207.568 184.344 211.825 184.344 211.825C184.344 211.825 158.37 211.527 142.562 207.432C126.755 203.338 114.337 189.51 114.337 189.51L113.117 175.384Z" fill="#FFF0DD"/>
</g>
<g style="mix-blend-mode:multiply" opacity="0.5">
<path d="M104.524 299.591C104.524 299.591 113.634 275.786 116.915 271.366C120.195 266.947 145.98 248.021 145.98 248.021C145.98 248.021 117.457 260.439 112.766 265.13C108.076 269.821 102.273 299.374 102.273 299.374L104.524 299.564V299.591Z" fill="#FFF0DD"/>
</g>
<path d="M169.625 169.88L171.496 167.494C171.496 167.494 183.534 177.825 191.75 178.747C191.75 178.747 212.383 217.763 191.75 254.285C191.75 254.285 198.392 204.559 172.743 174.056L169.625 169.88Z" fill="#FFF0DD"/>
<g style="mix-blend-mode:multiply">
<path d="M58.9196 345.739C58.9196 345.739 57.8892 368.324 57.2656 386.951L94.7366 386.192C94.7366 386.192 101.244 357.235 102.274 344.573C103.304 331.911 101.081 323.235 101.081 323.235L86.6567 334.975C86.6567 334.975 69.9548 338.228 58.9196 345.766V345.739Z" fill="#FFF0DD"/>
</g>
<g style="mix-blend-mode:multiply">
<path d="M8.32812 336.113H41.7862L47.5885 307.671H55.0719L53.9873 386.897L47.2632 386.734L46.9378 325.648L45.3923 338.011L10.6599 337.306L8.32812 336.113Z" fill="#FFF0DD"/>
</g>
<g style="mix-blend-mode:multiply">
<path d="M171.496 167.494C171.496 167.494 182.884 179.994 189.96 191.653C197.064 203.311 194.217 234.573 194.217 234.573L191.939 237.366C191.939 237.366 189.147 212.042 184.348 196.804C179.549 181.566 169.625 169.88 169.625 169.88L171.496 167.494Z" fill="#FFF0DD"/>
</g>
<path d="M85.5951 337.062C74.7768 353.981 57.2344 363.363 57.2344 363.363V345.847C57.2344 345.847 80.6063 328.359 95.6814 298.67C100.643 288.882 104.656 277.792 106.689 265.564C114.824 216.163 89.147 172.293 89.147 172.293L85.5951 173.378L86.8695 165.407C86.8695 165.407 99.2604 164.946 104.52 161.285C104.52 161.285 120.626 180.644 123.473 213.479C126.293 246.313 96.3863 320.171 85.5951 337.062Z" fill="#FFF0DD"/>
<g style="mix-blend-mode:multiply">
<path d="M51.9191 244.659L31.6924 299.591L24.426 302.981L21.2266 336.141L28.493 337.686L47.1471 362.115L57.2876 386.978L58.0196 362.685C58.0196 362.685 76.4569 353.005 85.6484 337.062L51.9733 244.659H51.9191Z" fill="#FFF0DD"/>
</g>
<g style="mix-blend-mode:multiply">
<path d="M46.1248 308.811C46.1248 308.811 45.5966 306.679 51.4644 322.605C54.5793 331.06 59.2514 334.619 63.9237 339.959C67.0385 343.519 75.1856 356.92 80.8327 360.873C89.7321 367.102 111.756 381.531 116.875 390.686C121.995 399.84 116.875 453.872 116.875 453.872L144.909 447.642L149.561 393.9L98.0431 329.332C98.0431 329.332 86.7662 332.607 72.674 333.127C58.5818 333.646 67.0384 311.036 67.0384 311.036L46.1248 308.811Z" fill="#FFF0DD"/>
</g>
<path d="M45.3906 307.671C45.3906 307.671 80.7196 315.182 104.335 284.381C104.335 284.381 82.4548 279.229 45.3906 307.671Z" fill="#FFF0DD"/>
<path d="M62.9873 188.616C62.9873 188.616 60.4115 193.198 55.3955 221.043C50.3795 248.889 45.3906 307.671 45.3906 307.671C45.3906 307.671 73.8599 286.414 104.335 284.381C104.335 284.381 101.353 271.719 104.335 242.951C107.318 214.184 76.8152 185.606 62.9873 188.643V188.616Z" fill="#FFF0DD"/>
<g style="mix-blend-mode:multiply">
<path d="M113.122 240.267C113.23 270.418 99.3753 299.158 99.3753 299.158L95.7149 298.616C100.677 288.828 104.69 277.738 106.723 265.51C114.857 216.109 86.6048 173.026 86.6048 173.026L85.6016 173.324L86.8759 165.352C86.8759 165.352 113.013 210.09 113.095 240.24L113.122 240.267Z" fill="#FFF0DD"/>
</g>
<path d="M76.1857 178.855C76.1857 178.855 66.9671 166.301 41.6431 164.431C41.6431 164.431 21.4706 188.345 21.2266 244.66C21.2266 244.66 27.3271 204.45 40.2332 182.027C40.2332 182.027 53.8442 172.05 54.766 174.869C55.715 177.689 54.6033 185.389 57.2605 185.389C59.9176 185.389 62.9543 188.616 62.9543 188.616L76.1586 178.855H76.1857Z" fill="#FFF0DD"/>
<g style="mix-blend-mode:multiply" opacity="0.5">
<path d="M150.452 195.855C130.958 195.855 109.891 160.662 109.891 160.662C109.891 160.662 110.596 155.049 112.222 154.914C113.876 154.778 117.726 157.923 117.726 157.923C117.726 157.923 136.245 189.727 151.564 185.525C166.883 181.295 160.376 163.102 160.376 163.102C161.298 160.58 162.057 159.577 162.681 159.523C162.871 159.577 163.033 159.604 163.087 159.604C163.955 159.496 166.26 164.431 166.26 164.431C166.26 164.431 166.721 165.786 167.29 167.955C169.432 175.927 165.745 195.855 150.425 195.855H150.452Z" fill="#FFF0DD"/>
</g>
<path d="M45.3906 307.671V298.643C45.3906 298.643 76.8152 274.783 103.332 276.057L104.335 284.381C104.335 284.381 71.04 289.532 45.3906 307.671Z" fill="#FFF0DD"/>
<g style="mix-blend-mode:multiply">
<path d="M128.871 123.706C128.871 123.706 130.796 176.957 154.981 155.375L155.144 145.993C155.144 145.993 139.282 139.106 130.308 112.779L128.844 123.706H128.871Z" fill="#FFF0DD"/>
</g>
<g style="mix-blend-mode:multiply" opacity="0.8">
<path d="M160.376 163.129C160.376 163.129 161.163 178.34 153.625 184.847C153.625 184.847 167.778 179.641 160.376 163.129Z" fill="#FFF0DD"/>
</g>
<g style="mix-blend-mode:multiply" opacity="0.5">
<path d="M103.327 276.057C103.327 276.057 104.601 253.092 104.547 238.803C104.493 224.514 92.1562 198.702 92.1562 198.702C92.1562 198.702 108.668 213.94 109.916 231.781C111.163 249.594 103.354 276.084 103.354 276.084L103.327 276.057Z" fill="#FFF0DD"/>
</g>
<g style="mix-blend-mode:multiply" opacity="0.5">
<path d="M196.872 358.835C196.872 358.835 183.911 381.61 168.592 388.036C153.273 394.435 133.724 390.232 127 386.951C127 386.951 138.252 393.676 154.683 393.188C171.114 392.727 192.235 379.875 197.685 368.812L196.872 358.835Z" fill="#FFF0DD"/>
</g>
<g style="mix-blend-mode:multiply" opacity="0.5">
<path d="M203.678 372.717C203.678 372.717 197.36 388.605 179.221 406.609C161.082 424.612 123.828 432.746 123.828 432.746C123.828 432.746 151.999 431.336 169.677 421.657C187.355 411.95 191.558 394.76 195.95 388.361C200.315 381.962 203.623 377.407 203.623 377.407L203.678 372.717Z" fill="#FFF0DD"/>
</g>
<g style="mix-blend-mode:multiply" opacity="0.5">
<path d="M87.2266 448.716C87.2266 448.716 103.606 454.491 124.673 450.587C145.714 446.683 156.884 437.925 156.884 437.925C156.884 437.925 118.055 452.458 87.2266 446.683V448.716Z" fill="#FFF0DD"/>
</g>
<g style="mix-blend-mode:multiply">
<path d="M51.4343 314.992C51.4343 314.992 64.1505 290.861 86.6819 298.642V288.095C86.6819 288.095 65.6418 294.982 50.1328 304.526L51.4343 314.992Z" fill="#FFF0DD"/>
</g>
<g style="mix-blend-mode:multiply" opacity="0.3">
<path d="M66.3438 191.652L67.6723 295.145L83.4524 289.18L66.3438 191.652Z" fill="#FFF0DD"/>
</g>
<g style="mix-blend-mode:multiply" opacity="0.5">
<path d="M107.617 362.089C107.617 362.089 123.641 377.625 142.051 381.881C160.461 386.165 169.626 381.881 169.626 381.881C169.626 381.881 159.594 388.199 142.051 384.593C124.509 380.987 107.617 362.089 107.617 362.089Z" fill="#FFF0DD"/>
</g>
<g style="mix-blend-mode:multiply" opacity="0.5">
<path d="M54.7693 174.869C54.7693 174.869 45.388 183.871 42.5682 193.605C39.7484 203.366 34.1359 234.302 36.4677 237.366C38.7994 240.43 56.1792 193.361 55.9352 188.399C55.6912 183.437 54.7693 174.869 54.7693 174.869Z" fill="#FFF0DD"/>
</g>
<g style="mix-blend-mode:multiply" opacity="0.5">
<path d="M59 338.933C59 338.933 68.6795 334.242 74.8614 332.697C81.0433 331.124 98.8569 334.026 98.8569 334.026C98.8569 334.026 66.6731 343.325 59 338.96V338.933Z" fill="#FFF0DD"/>
</g>
<path d="M199.395 51.8009C198.717 54.9461 192.481 76.5827 193.701 85.8826V86.0995C194.948 95.291 195.951 101.934 196.168 109.905C196.249 112.806 194.487 118.527 191.749 124.763C186.977 135.717 179.114 148.271 172.878 149.599C172.254 149.735 171.576 149.816 170.817 149.816C159.999 150.142 137.738 138.754 127.191 121.266C125.863 119.07 124.724 116.819 123.694 114.515C123.666 114.515 123.666 114.46 123.666 114.46C116.048 97.1348 116.183 77.2605 112.686 63.8122C108.7 48.5744 122.311 21.0812 142.917 13.7606C163.496 6.43992 181.961 10.9408 181.961 10.9408C181.961 10.9408 193.565 40.603 198.419 46.4324C198.419 46.4324 200.1 48.6557 199.395 51.828V51.8009Z" fill="#FFF0DD"/>
<path d="M174.259 51.9093C174.259 51.9093 172.632 57.6032 170.219 60.0434C170.219 60.0434 162.438 60.0434 153.436 62.104C144.434 64.1646 141.289 66.6591 141.289 66.6591C141.289 66.6591 145.085 59.9349 151.348 56.7898C157.611 53.6717 174.259 51.9093 174.259 51.9093Z" fill="#FFF0DD"/>
<path d="M119.407 82.6287C119.407 82.6287 110.595 72.5424 102.027 73.166C93.4861 73.7625 90.9917 91.6304 97.5802 101.635C104.169 111.64 116.668 114.84 118.403 113.809C120.112 112.779 123.528 105.241 123.528 105.241L119.407 82.6287Z" fill="#FFF0DD"/>
<path d="M150.101 43.7482C150.101 43.7482 134.32 70.6177 123.773 79.05L122.96 88.5669C122.96 88.5669 116.914 79.3754 110.867 75.5252L111.545 64.4087C111.545 64.4087 134.158 48.7099 150.101 43.7211V43.7482Z" fill="#FFF0DD"/>
<path d="M118.297 82.0869L123.774 79.0501C123.774 79.0501 124.153 89.0008 126.404 93.5017L123.503 98.4906C123.503 98.4906 121.062 86.8046 118.297 82.0869Z" fill="#FFF0DD"/>
<path d="M111.217 69.7771C111.217 69.7771 101.103 41.8502 101.537 32.8756C101.971 23.901 130.874 3.70141 130.874 3.70141C130.874 3.70141 168.263 0.312216 177.672 4.81307C187.08 9.31391 197.709 39.5455 197.709 39.5455C197.709 39.5455 162.976 39.1388 143.699 47.1102C124.394 55.0816 111.217 69.8042 111.217 69.8042V69.7771Z" fill="#FFF0DD"/>
<path d="M104.9 50.2282C104.9 50.2282 91.696 45.5918 79.2238 49.7673C79.2238 49.7673 76.2142 56.0848 81.7996 57.9827C81.7996 57.9827 96.6036 54.6206 107.503 58.7961L104.9 50.2282Z" fill="#FFF0DD"/>
<path d="M126.187 7.11759C126.187 7.11759 124.587 1.69488 125.102 1.1255C125.59 0.556112 128.898 -0.284408 130.769 0.0951816C132.613 0.474771 134.294 3.10479 134.294 3.10479L130.905 3.70128L126.214 7.14471L126.187 7.11759Z" fill="#FFF0DD"/>
<path d="M130.879 3.7014C130.879 3.7014 120.739 16.0381 120.766 21.4337C120.793 26.8293 133.672 51.3941 133.672 51.3941C133.672 51.3941 161.3 33.1196 195.03 31.0319C195.03 31.0319 184.401 6.33141 177.243 3.7014C170.085 1.07138 144.436 1.04427 130.879 3.7014Z" fill="#FFF0DD"/>
<path d="M141.773 25.365C141.773 25.365 166.637 10.0187 184.748 14.1128L190.849 24.9311C190.849 24.9311 171.409 24.7142 146.057 35.5597L141.773 25.365Z" fill="#FFF0DD"/>
<g style="mix-blend-mode:multiply" opacity="0.5">
<path d="M119.817 96.6195C119.817 96.6195 114.069 85.6385 106.314 84.7708C98.5597 83.9032 95.4688 89.8411 95.4688 89.8411C95.4688 89.8411 97.9632 86.7501 104.498 86.6417C104.498 86.6417 104.091 93.393 105.04 99.3037C105.989 105.214 111.086 107.628 113.038 106.543C114.991 105.486 109.541 95.7518 111.574 93.2303C113.608 90.7087 119.817 96.6195 119.817 96.6195Z" fill="#FFF0DD"/>
</g>
<g style="mix-blend-mode:multiply" opacity="0.5">
<path d="M145.055 82.3308C145.055 82.3308 148.254 90.3836 156.307 90.8174C164.36 91.2512 162.76 80.3787 162.76 80.3787L145.055 82.3308Z" fill="#FFF0DD"/>
</g>
<g style="mix-blend-mode:multiply" opacity="0.5">
<path d="M183.883 83.0356C183.883 83.0356 186.811 90.8443 190.58 90.8985C194.349 90.9527 193.535 83.3609 193.535 83.3609L183.883 83.0356Z" fill="#FFF0DD"/>
</g>
<g style="mix-blend-mode:multiply" opacity="0.5">
<path d="M109.026 85.5028C109.026 85.5028 104.498 87.9701 104.579 95.2365C104.661 102.503 110.029 107.085 112.334 106.19C114.638 105.296 109.378 95.1552 111.575 93.2572C113.771 91.3864 118.705 95.6704 118.705 95.6704C118.705 95.6704 114.801 87.7532 109.026 85.5028Z" fill="#FFF0DD"/>
</g>
<path d="M185.211 63.0258C185.211 63.0258 186.919 57.8742 198.415 55.5696C198.415 55.5696 201.045 49.6317 199.798 45.7545C199.798 45.7545 190.281 48.5201 185.211 63.0258Z" fill="#FFF0DD"/>
<g style="mix-blend-mode:multiply" opacity="0.5">
<path d="M144.328 80.731C144.328 80.731 147.582 69.1806 160.542 63.7037L162.142 67.2284L144.328 80.731Z" fill="#FFF0DD"/>
</g>
<g style="mix-blend-mode:multiply">
<path d="M197.249 60.8566C197.249 60.8566 186.431 62.5918 167.994 64.4355C149.557 66.2793 131.391 53.4545 131.391 53.4545C131.391 53.4545 148.879 42.3109 162.002 37.9727C175.125 33.6345 192.342 37.8643 192.342 37.8643L198.415 46.405C198.415 46.405 202.401 43.4768 197.249 60.8294V60.8566Z" fill="#FFF0DD"/>
</g>
<g style="mix-blend-mode:multiply" opacity="0.5">
<path d="M183.581 82.0049C183.581 82.0049 183.066 69.4784 194.888 62.8627L194.454 67.472L183.581 82.0049Z" fill="#FFF0DD"/>
</g>
<path d="M183.589 81.0564C183.128 83.8491 187.439 88.6211 190.313 87.4552C193.214 86.2893 194.949 76.3929 194.461 67.4725C194.461 67.4725 185.866 67.3641 183.589 81.0564Z" fill="#FFF0DD"/>
<path d="M162.274 84.0116C159.752 89.0819 149.232 93.176 144.352 80.7038C144.352 80.7038 149.313 69.3161 162.165 67.2012C162.165 67.2012 166.693 75.1184 162.301 83.9845L162.274 84.0116Z" fill="#FFF0DD"/>
<mask id="mask0_332_7473" style="mask-type:luminance" maskUnits="userSpaceOnUse" x="183" y="67" width="12" height="21">
<path d="M183.589 81.0564C183.128 83.8491 187.439 88.621 190.313 87.4552C193.214 86.2893 194.949 76.3928 194.461 67.4725C194.461 67.4725 185.866 67.364 183.589 81.0564Z" fill="white"/>
</mask>
<g mask="url(#mask0_332_7473)">
<path d="M189.937 82.8733C189.937 82.8733 187.226 73.7089 194.438 67.2288C194.438 67.2288 196.688 78.5351 194.438 81.7345C192.214 84.9339 189.91 82.8733 189.91 82.8733H189.937Z" fill="#FFF0DD"/>
<g style="mix-blend-mode:multiply">
<path d="M191.614 83.524C191.614 83.524 189.31 75.0104 194.868 69.6961C194.868 69.6961 196.061 76.6101 195.275 79.7281C194.488 82.8191 192.428 83.6867 191.614 83.524Z" fill="#FFF0DD"/>
</g>
</g>
<path d="M183.992 78.9687C183.992 78.9687 186.134 70.1568 194.404 68.5028L197.441 65.9542C197.441 65.9542 187.083 64.951 183.992 78.9687Z" fill="#FFF0DD"/>
<path d="M162.816 68.6924L164.904 64.9779C164.904 64.9779 149.72 67.4994 144.352 80.7037C144.352 80.7037 149.232 72.0003 162.843 68.6653L162.816 68.6924Z" fill="#FFF0DD"/>
<mask id="mask1_332_7473" style="mask-type:luminance" maskUnits="userSpaceOnUse" x="144" y="67" width="21" height="22">
<path d="M162.281 84.0116C159.76 89.0818 149.24 93.1759 144.359 80.7037C144.359 80.7037 149.321 69.316 162.173 67.2012C162.173 67.2012 166.701 75.1183 162.309 83.9844L162.281 84.0116Z" fill="white"/>
</mask>
<g mask="url(#mask1_332_7473)">
<path d="M158.675 87.7533C158.675 87.7533 155.177 73.1391 163.582 70.4277C163.582 70.4277 168.517 83.1711 158.675 87.7533Z" fill="#FFF0DD"/>
<g style="mix-blend-mode:multiply">
<path d="M164.18 72.1358C164.18 72.1358 157.999 76.2299 160.9 86.3704C160.9 86.3704 166.322 82.4389 164.18 72.1358Z" fill="#FFF0DD"/>
</g>
</g>
<path d="M153.57 80.3511C153.57 80.3511 157.285 80.1884 158.152 82.9269C158.152 82.9269 155.441 83.7132 153.57 80.3511Z" fill="#FFF0DD"/>
<path d="M187.297 80.1887C187.297 80.1887 189.71 80.1074 190.279 81.9782C190.279 81.9782 188.625 82.2222 187.297 80.1887Z" fill="#FFF0DD"/>
<g style="mix-blend-mode:multiply" opacity="0.3">
<path d="M189.116 97.7309C189.116 97.7309 183.232 94.0164 175.749 95.2636C168.266 96.4837 173.553 87.6176 182.148 86.3432C182.148 86.3432 183.042 92.1184 189.116 97.7309Z" fill="#FFF0DD"/>
</g>
<g style="mix-blend-mode:multiply" opacity="0.5">
<path d="M170.215 60.0432C170.215 60.0432 168.669 83.5235 163.301 89.7596C157.932 95.9957 148.822 92.3083 142.857 85.6926C136.892 79.0769 141.285 66.6317 141.285 66.6317C141.285 66.6317 152.103 58.9044 170.215 60.016V60.0432Z" fill="#FFF0DD"/>
</g>
<g style="mix-blend-mode:multiply" opacity="0.5">
<path d="M170.921 98.0565C170.921 98.0565 168.074 100.361 166.908 103.208C165.742 106.028 168.589 108.495 171.843 106.733C175.096 104.943 176.344 105.215 175.964 106.516C175.612 107.817 177.537 109.254 182.282 109.119C187.026 108.983 191.717 104.672 190.307 100.144C190.307 100.144 193.019 108.116 182.119 110.203C171.246 112.291 169.43 107.628 165.688 106.109C161.946 104.591 170.894 98.0565 170.894 98.0565H170.921Z" fill="#FFF0DD"/>
</g>
<g style="mix-blend-mode:multiply" opacity="0.5">
<path d="M169.57 108.007C169.57 108.007 173.149 105.838 174.776 106.109C176.403 106.38 175.264 108.414 173.583 109.119C171.902 109.824 169.57 108.034 169.57 108.034V108.007Z" fill="#FFF0DD"/>
</g>
<g style="mix-blend-mode:multiply" opacity="0.5">
<path d="M164.875 104.401C164.875 104.401 165.716 105.242 172.141 104.916C179.543 104.537 184.749 105.323 190.226 103.886C190.226 103.886 186.62 117.524 180.031 117.768C171.382 118.066 164.875 104.401 164.875 104.401Z" fill="#FFF0DD"/>
</g>
<g style="mix-blend-mode:multiply">
<path d="M157.562 112.047C157.562 112.047 165.778 118.527 175.512 120.262C180.067 121.076 185.327 119.91 186.926 118.5C188.499 117.09 190.614 115.219 190.614 115.219C190.614 115.219 186.845 119.015 186.14 119.937C185.435 120.859 180.78 128.733 176.55 128.543C172.293 128.354 164.693 118.337 162.253 116.629C159.813 114.921 157.59 112.047 157.59 112.047H157.562Z" fill="#FFF0DD"/>
</g>
<g style="mix-blend-mode:multiply" opacity="0.5">
<path d="M160.89 109.227C160.89 109.227 157.311 112.21 155.495 117.931C155.495 117.931 154.464 114.813 155.061 112.074C155.684 109.309 160.89 109.227 160.89 109.227Z" fill="#FFF0DD"/>
</g>
<path d="M168.468 119.935C168.468 119.935 173.13 122.298 175.509 122.627C177.86 122.982 183.078 121.426 183.078 121.426C183.078 121.426 179.296 125.294 175.663 125.261C172.056 125.229 168.469 119.908 168.469 119.908L168.468 119.935Z" fill="#FFF0DD"/>
<path d="M172.222 121.626L165.461 117.422L169.017 120.681L172.222 121.626Z" fill="#FFF0DD"/>
<path d="M182.631 121.849L186.166 119.194L181.874 121.749L182.631 121.849Z" fill="#FFF0DD"/>
<g style="mix-blend-mode:multiply" opacity="0.5">
<path d="M185.217 63.0259C185.217 63.0259 182.126 77.5317 182.695 84.5812C183.264 91.6307 194.598 92.9322 194.544 92.5526C194.489 92.173 193.134 83.6593 193.812 78.2637C194.489 72.8953 198.421 55.5697 198.421 55.5697C198.421 55.5697 189.392 53.8073 185.217 63.0259Z" fill="#FFF0DD"/>
</g>
<path d="M133.781 52.0176C133.781 52.0176 162.955 53.8613 173.096 49.3876C183.236 44.9139 204.9 34.7734 218.484 33.4991C232.068 32.2247 236.596 41.3078 236.596 41.3078C236.596 41.3078 232.691 33.6618 219.026 31.2215C205.795 31.2758 193.702 31.0046 193.702 31.0046C193.702 31.0046 155.038 33.7431 133.781 52.0176Z" fill="#FFF0DD"/>
<path d="M198.851 47.1372C198.851 47.1372 217.966 48.0862 235.509 44.8868C235.509 44.8868 229.923 34.3125 213.953 34.665C197.956 35.0175 193.727 40.5757 193.727 40.5757L198.878 47.1372H198.851Z" fill="#FFF0DD"/>
<path d="M236.568 41.3076L235.483 44.9137C235.483 44.9137 226.59 31.4382 205.387 36.7254C184.184 42.0125 182.259 49.3603 171.034 53.2104C159.809 57.0877 131.367 53.4544 131.367 53.4544L133.645 51.4209C133.645 51.4209 157.911 52.6681 167.428 49.9839C176.945 47.2997 195.979 34.7732 214.118 32.7397C232.257 30.7062 236.568 41.2804 236.568 41.2804V41.3076Z" fill="#FFF0DD"/>
<g style="mix-blend-mode:multiply" opacity="0.5">
<path d="M114.802 78.3449C114.802 78.3449 125.16 72.5426 129.389 61.9683C129.389 61.9683 121.12 71.9461 110.844 75.5251L114.775 78.3177L114.802 78.3449Z" fill="#FFF0DD"/>
</g>
<g style="mix-blend-mode:multiply" opacity="0.5">
<path d="M180.416 6.00586C180.416 6.00586 139.963 9.99155 120.739 21.4335C101.516 32.8754 101.923 37.6474 101.923 37.6474C101.923 37.6474 106.206 56.1117 111.195 69.7769C111.195 69.7769 125.945 57.0878 135.299 50.3636C144.654 43.6395 168.134 32.4687 195.003 31.0317C195.003 31.0317 186.978 11.4828 180.416 6.00586Z" fill="#FFF0DD"/>
</g>
<g style="mix-blend-mode:multiply" opacity="0.5">
<path d="M172.447 134.795L179.957 132.002C179.957 132.002 177.463 132.002 171.471 129.427C165.479 126.851 172.447 134.795 172.447 134.795Z" fill="#FFF0DD"/>
</g>
<g style="mix-blend-mode:multiply" opacity="0.5">
<path d="M170.787 149.843C159.969 150.169 137.709 138.781 127.162 121.293C125.833 119.096 124.694 116.846 123.664 114.541C124.396 115.518 133.588 129.996 146.738 137.886C158.885 145.153 169.269 149.301 170.787 149.87V149.843Z" fill="#FFF0DD"/>
</g>
<path d="M87.059 304.923C87.059 304.923 100.2 331.682 115.605 347.144C131.011 362.605 144.061 369.073 146.134 369.854C148.208 370.68 152.247 376.923 155.635 387.073C159.683 399.262 168.934 416.968 169.316 420.194C169.321 420.413 169.326 420.588 169.329 420.719C165.529 433.793 166.426 442.166 166.426 442.166C166.426 442.166 165.101 445.257 161.514 445.211C158.41 445.197 156.308 441.356 156.308 441.356L154.62 447.604C151.694 453.269 141.845 449.087 141.845 449.087C133.156 449.555 133.675 443.772 133.675 443.772C133.675 443.772 126.885 443.189 126.755 437.684C126.624 432.178 128.384 425.229 127.37 421.187C127.077 419.883 126.784 418.622 126.492 417.361C126.491 417.317 126.49 417.273 126.49 417.273C124.098 406.706 122.362 396.167 121 388.505C120.037 382.932 119.24 378.798 118.46 377.242C116.571 373.177 86.1888 362.18 74.4375 351.485C64.7865 342.707 55.5144 324.084 52.0615 316.733C51.9679 316.473 51.8785 316.388 51.8785 316.388C51.2326 314.961 50.8166 314.009 50.6793 313.75C49.9835 312.061 50.5709 304.806 50.5709 304.806C74.5381 290.005 90.1735 287.453 90.1735 287.453L87.059 304.923Z" fill="#FFF0DD"/>
<path d="M142.365 439.806C143.289 441.883 141.457 447.61 141.457 447.61C139.13 449.02 135.862 445.775 135.862 445.775C137.306 442.156 141.398 437.731 142.365 439.806Z" fill="#FFF0DD"/>
<g style="mix-blend-mode:multiply">
<path d="M144.703 412.908C145.439 416.3 148.977 425.397 148.848 427.324C148.719 429.251 142.648 446.139 141.799 449.044C142.654 442.685 147.769 429.754 147.493 427.356C146.998 423.04 144.747 412.907 144.747 412.907L144.703 412.908Z" fill="#FFF0DD"/>
</g>
<g style="mix-blend-mode:multiply">
<path d="M138.452 431.068C138.452 431.068 137.27 419.948 135.015 415.149C135.015 415.149 138.293 422.503 139.602 429.773C139.602 429.773 137.5 438.873 138.223 443.577C138.947 448.282 133.635 443.686 133.635 443.686C133.635 443.686 136.205 443.275 136.98 442.776C137.754 442.233 136.854 437.445 138.495 431.067L138.452 431.068Z" fill="#FFF0DD"/>
</g>
<g style="mix-blend-mode:multiply">
<path d="M160.423 425.214C161.374 426.591 156.782 437.629 156.259 441.358C156.904 437.233 158.893 428.923 159.292 427.296C159.691 425.669 155.577 418.115 154.188 409.273C154.188 409.273 158.115 421.902 160.422 425.17L160.423 425.214Z" fill="#FFF0DD"/>
</g>
<g style="mix-blend-mode:multiply" opacity="0.5">
<path d="M119.905 377.514C120.014 382.146 120.907 388.464 120.907 388.464C119.945 382.89 119.147 378.756 118.367 377.201C116.479 373.136 86.096 362.138 74.3448 351.443C64.6937 342.666 55.4217 324.042 51.9688 316.692C53.2012 318.892 60.0595 331.583 76.7994 348.019C97.7011 368.509 119.795 372.882 119.905 377.514Z" fill="#FFF0DD"/>
</g>
<path d="M164.273 434.217C166.923 435.378 165.592 441.924 165.592 441.924C164.2 445.935 157.487 443.033 157.939 441.842C158.436 440.65 161.622 433.055 164.273 434.217Z" fill="#FFF0DD"/>
<path d="M152.13 438.57C156.216 439.435 154.006 447.663 154.006 447.663C148.912 452.242 145.093 447.874 145.093 447.874C145.093 447.874 148.043 437.705 152.13 438.57Z" fill="#FFF0DD"/>
<path d="M135.836 433.709C137.58 435.329 136.676 441.471 136.676 441.471C136.676 441.471 129.195 443.135 129.954 440.1C130.713 437.066 134.049 432.09 135.792 433.71L135.836 433.709Z" fill="#FFF0DD"/>
<g style="mix-blend-mode:multiply" opacity="0.3">
<path d="M127.326 421.189C127.033 419.884 126.74 418.623 126.448 417.362C126.86 418.139 130.114 424.489 132.18 426.801C134.426 429.327 139.3 428.381 139.3 428.381C142.625 430.313 147.467 428.013 147.467 428.013L148.401 425.018C148.401 425.018 149.459 429.059 152.13 429.258C154.758 429.458 159.298 427.296 159.298 427.296L159.654 423.877C159.654 423.877 167.963 425.823 169.315 420.151C169.32 420.369 169.324 420.544 169.327 420.675C165.527 433.75 166.425 442.122 166.425 442.122C166.425 442.122 165.099 445.214 161.513 445.168C158.409 445.154 156.307 441.313 156.307 441.313L154.619 447.561C151.692 453.226 141.844 449.044 141.844 449.044C133.155 449.512 133.674 443.728 133.674 443.728C133.674 443.728 126.884 443.146 126.753 437.64C126.623 432.135 128.382 425.186 127.368 421.144L127.326 421.189Z" fill="#FFF0DD"/>
</g>
<g style="mix-blend-mode:multiply" opacity="0.2">
<path d="M148.161 374.353C151.677 376.981 154.792 390.372 147.948 389.354C141.104 388.336 129.817 386.198 132.167 382.033C134.473 377.869 142.063 369.776 148.161 374.353Z" fill="#FFF0DD"/>
</g>
<g style="mix-blend-mode:multiply" opacity="0.8">
<path d="M98.3167 285.163C102.483 286.61 100.752 289.22 100.752 289.22C92.9542 287.215 50.1479 304.788 50.1479 304.788C66.8223 294.241 94.1703 283.748 98.3167 285.163Z" fill="#FFF0DD"/>
</g>
<path d="M209.312 297.624C209.312 297.624 218.674 341.946 222.409 355.367C226.143 368.788 231.771 380.342 232.393 381.587C233.015 382.831 230.201 387.512 230.201 387.512L232.474 423.392L206.552 390.218C206.552 390.218 208.041 382.182 212.722 378.448C212.722 378.448 202.926 347.872 192.238 329.147C181.523 310.423 183.39 301.061 183.39 301.061C183.39 301.061 198.678 289.209 209.285 297.624H209.312Z" fill="url(#paint0_linear_332_7473)"/>
<path d="M225.877 488.03C225.877 488.03 238.942 498.317 221.787 502.998C204.632 507.679 206.58 492.915 206.58 492.915L169.727 436.001L206.58 390.245L232.286 420.145C232.286 420.145 236.615 424.745 236.155 427.478C235.695 430.211 232.502 435.839 232.502 435.839C232.502 435.839 232.123 449.72 232.502 455.294C232.881 460.868 228.097 470.268 228.097 470.268L225.877 488.03Z" fill="#17186E"/>
<g style="mix-blend-mode:multiply">
<path d="M205.304 393.303C205.304 393.303 216.669 415.193 223.488 437.922C223.488 437.922 209.12 407.752 205.304 406.697C201.489 405.642 233.31 457.486 233.31 457.486C233.31 457.486 210.581 429.02 205.927 430.427C201.273 431.834 179.247 452.859 179.247 452.859L178.3 448.827L173.43 433.485C178.354 425.286 194.319 412.758 194.319 412.758L205.304 393.33V393.303Z" fill="#EA8BC2"/>
</g>
<path fill-rule="evenodd" clip-rule="evenodd" d="M246.094 740.306C246.094 740.306 245.358 740.592 244.05 741.124C236.076 744.273 206.591 756.5 190.847 770.117V763.82L186.226 763.288C186.226 763.288 186.758 745.786 182.668 737.607L189.252 722.272C189.252 722.272 170.359 676.635 177.352 625.354L194.568 593.784L191.706 590.104L194.568 583.97C194.568 583.97 176.125 492.081 160.954 460.92L151.507 463.66C151.507 463.66 135.518 537.637 103.539 590.921L89.5945 606.911C89.5945 606.911 69.9246 664.326 62.1139 722.558L67.839 729.51L62.1139 738.548V744.273C62.1139 744.273 36.6781 741.819 7.9707 759.444C7.9707 759.444 2.08202 747.012 3.06347 745.213C4.00402 743.455 15.9041 731.146 15.9041 729.796C15.9041 729.142 14.8817 728.12 13.7776 727.015C12.5099 725.789 11.1604 724.48 11.1195 723.499C10.9968 721.74 4.41295 639.585 35.6148 595.093C35.6148 595.093 52.0132 582.293 57.4929 573.542L58.4335 567.735L61.296 563.85L92.8659 446.976L90.4123 442.069L93.7247 418.596L94.8697 410.703L94.9515 410.09C94.9515 410.09 100.431 410.499 109.264 411.316C124.436 412.748 149.422 415.488 173.058 419.741H173.181C190.152 422.808 187.255 395.805 198.787 400.549C198.787 400.549 223.521 445.953 228.51 474.17C233.09 500.138 237.18 537.637 236.035 585.973L227.651 604.907C227.651 604.907 227.651 604.907 227.651 604.989L227.161 606.134C227.161 606.134 227.161 606.747 227.161 607.933C227.283 619.302 228.265 681.174 236.239 712.744C236.239 712.744 245.031 715.483 246.135 717.119L246.258 717.446C247.117 720.677 246.135 740.347 246.135 740.347L246.094 740.306Z" fill="url(#paint1_linear_332_7473)"/>
<path fill-rule="evenodd" clip-rule="evenodd" d="M190.889 770.118L187.617 784.063H306.127C306.127 784.063 307.967 775.639 302.038 765.415C302.038 765.415 279.178 769.668 244.173 741.083C244.173 741.083 207.328 752.493 190.93 770.118H190.889Z" fill="url(#paint2_radial_332_7473)"/>
<path fill-rule="evenodd" clip-rule="evenodd" d="M58.4324 744.191C58.4324 744.191 62.3173 754.783 77.6933 767.255V785.289H7.56066C7.56066 785.289 6.33385 775.148 10.6277 757.85C10.6277 757.85 28.0484 744.028 58.3915 744.15L58.4324 744.191Z" fill="url(#paint3_radial_332_7473)"/>
<path fill-rule="evenodd" clip-rule="evenodd" d="M281.386 762.594C281.386 762.594 272.349 766.847 270.713 777.52L189.907 774.248L187.617 784.063H306.127C306.127 784.063 308.867 774.78 302.038 765.415C302.038 765.415 289.32 765.62 281.386 762.594Z" fill="url(#paint4_linear_332_7473)"/>
<path fill-rule="evenodd" clip-rule="evenodd" d="M74.7115 764.72C74.7115 764.72 53.0787 749.181 12.0624 773.308L8.21841 770.118C8.21841 770.118 6.17372 778.992 7.52321 785.29H77.6558V767.255L74.6706 764.72H74.7115Z" fill="url(#paint5_linear_332_7473)"/>
<g style="mix-blend-mode:multiply" opacity="0.6">
<path fill-rule="evenodd" clip-rule="evenodd" d="M20.564 742.58C30.1331 737.918 67.8371 733.951 67.8371 733.951L62.1119 742.989V748.714C62.1119 748.714 36.6761 746.26 7.96875 763.886C16.4337 750.227 48.1672 742.58 48.1672 742.58H20.564Z" fill="#3C2E92"/>
</g>
<g style="mix-blend-mode:multiply" opacity="0.5">
<path fill-rule="evenodd" clip-rule="evenodd" d="M211.171 694.873C208.922 700.394 189.252 722.272 189.252 722.272C189.252 722.272 170.36 676.635 177.352 625.354L194.569 593.784L191.706 590.104L194.569 583.97C194.569 583.97 176.126 492.082 160.954 460.921L151.508 463.66C151.508 463.66 135.518 537.637 103.539 590.921L89.5946 606.911C89.5946 606.911 69.9248 664.326 62.1141 722.558L56.389 721.331L59.2515 673.363L41.4219 721.331C41.4219 721.331 42.4442 698.349 51.8906 668.865C61.3371 639.38 80.8025 603.639 80.8025 603.639L76.9176 595.829L74.2595 581.68L80.6389 595.829H86.7729L101.127 583.52C128.198 535.96 140.016 468.568 140.016 468.568C124.845 455.482 103.171 460.512 103.171 460.512L78.1444 520.38L92.907 467.464V446.935L90.4534 442.028L94.8699 410.662L173.099 419.7H173.222C190.193 422.767 188.587 398.47 200.119 403.213C200.119 403.213 223.562 445.913 228.551 474.129L207.327 493.267C205.733 526.8 225.77 590.063 225.77 590.063L229.86 591.698L236.035 585.932L227.652 604.866C227.652 604.866 227.652 604.866 227.652 604.948C227.652 605.193 227.447 606.216 227.161 607.892C224.625 622.982 213.257 689.925 211.212 694.873H211.171Z" fill="#3C2E92"/>
</g>
<g style="mix-blend-mode:multiply" opacity="0.6">
<path fill-rule="evenodd" clip-rule="evenodd" d="M244.135 741.084H244.053C236.079 744.273 206.595 756.501 190.851 770.118V763.82L186.23 763.289C186.23 763.289 186.761 745.786 182.672 737.608L189.256 722.273L185.698 731.842C185.698 731.842 220.171 723.377 219.313 727.752C218.495 732.128 193.059 752.37 193.059 752.37L197.189 754.006C218.781 741.983 244.176 741.084 244.176 741.084H244.135Z" fill="#3C2E92"/>
</g>
<g style="mix-blend-mode:multiply" opacity="0.6">
<path fill-rule="evenodd" clip-rule="evenodd" d="M246.096 740.307C246.096 740.307 245.36 740.593 244.052 741.125C236.077 744.274 206.593 756.501 190.849 770.119V763.821L186.228 763.289C186.228 763.289 186.76 745.787 182.67 737.608L189.254 722.273C189.254 722.273 170.361 676.636 177.354 625.355L194.57 593.785L191.708 590.105L194.57 583.971C194.57 583.971 176.127 492.083 160.956 460.922L151.509 463.662L157.275 452.743L93.7266 418.597L109.266 411.318C124.438 412.749 149.424 415.489 173.06 419.742H173.183C190.154 422.809 182.372 385.592 193.904 390.335C193.904 390.335 223.359 444.956 228.512 474.171C233.092 500.139 237.182 537.638 236.036 585.975L227.653 604.908C227.653 604.908 227.653 604.908 227.653 604.99L227.163 606.135C227.163 606.135 227.163 606.749 227.163 607.934C227.285 619.303 228.267 681.175 236.241 712.745L207.329 722.6C207.329 722.6 237.427 721.701 246.178 717.12L246.301 717.448C247.16 720.678 246.178 740.348 246.178 740.348L246.096 740.307Z" fill="#3C2E92"/>
</g>
<g style="mix-blend-mode:multiply" opacity="0.6">
<path fill-rule="evenodd" clip-rule="evenodd" d="M11.1172 723.499C11.1172 723.499 31.3595 720.759 37.9025 722.272L15.9017 729.797L11.1172 723.499Z" fill="#3C2E92"/>
</g>
<path style="mix-blend-mode:multiply" opacity="0.5" fill-rule="evenodd" clip-rule="evenodd" d="M77.6951 767.256L12.1017 773.308L8.25769 770.118L7.5625 785.29H77.6951V767.256Z" fill="url(#paint6_linear_332_7473)"/>
<path style="mix-blend-mode:multiply" opacity="0.5" fill-rule="evenodd" clip-rule="evenodd" d="M293.409 784.063V776.293L270.713 777.52L189.907 774.248L187.617 784.063H293.409Z" fill="url(#paint7_linear_332_7473)"/>
<g style="mix-blend-mode:soft-light">
<path fill-rule="evenodd" clip-rule="evenodd" d="M78.1042 520.38C78.1042 520.38 67.6763 564.055 70.9478 572.888L80.5987 595.829H86.7328L101.086 583.52C101.086 583.52 132.534 523.774 139.976 468.568C139.976 468.568 124.887 455.196 103.131 460.512L78.1042 520.38Z" fill="#8190BB"/>
</g>
<g style="mix-blend-mode:soft-light">
<path fill-rule="evenodd" clip-rule="evenodd" d="M20.5625 738.139C20.5625 738.139 36.7973 722.722 41.4183 721.332C46.0392 719.941 62.1513 722.559 62.1513 722.559L67.8765 729.511C67.8765 729.511 42.9722 731.514 20.6034 738.139H20.5625Z" fill="#A3AECD"/>
</g>
<g style="mix-blend-mode:soft-light">
<path fill-rule="evenodd" clip-rule="evenodd" d="M236.201 712.703L207.289 722.558C207.289 722.558 236.814 721.945 246.138 717.079C246.138 717.079 243.316 714.093 236.242 712.703H236.201Z" fill="#A3AECD"/>
</g>
<g style="mix-blend-mode:multiply" opacity="0.6">
<path fill-rule="evenodd" clip-rule="evenodd" d="M200.658 784.144C200.658 784.144 212.681 768.564 226.666 767.255C240.652 765.947 269.891 784.063 269.891 784.063L200.617 784.144H200.658Z" fill="#6A4AB3"/>
</g>
<g style="mix-blend-mode:multiply" opacity="0.5">
<path fill-rule="evenodd" clip-rule="evenodd" d="M19.2204 638.604C19.2204 638.604 9.73302 676.512 17.1348 696.509C23.6369 714.134 32.7153 718.837 32.7153 718.837C32.7153 718.837 17.7891 719.45 15.2537 715.238C12.7183 711.026 7.89281 674.058 19.2612 638.604H19.2204Z" fill="#3C2E92"/>
</g>
<path d="M135.68 118.552L133.786 134.598C131.892 134.895 130.106 134.976 128.51 134.922C121.61 134.76 117.416 132.189 117.416 132.189C121.069 136.735 127.752 135.869 127.752 135.869C127.752 135.869 115.576 143.933 109.298 135.112C103.048 126.264 100.585 109.569 100.585 109.569C96.7701 124.207 81.2656 125.425 81.2656 125.425C98.5289 115.765 103.075 99.6381 103.075 99.6381L128.428 103.832L135.707 118.525L135.68 118.552Z" fill="url(#paint8_linear_332_7473)"/>
<g style="mix-blend-mode:multiply">
<path d="M128.491 134.922C121.591 134.76 117.397 132.189 117.397 132.189C121.05 136.735 127.733 135.869 127.733 135.869C127.733 135.869 113.257 140.875 110.416 132.703C107.575 124.586 108.603 110.489 108.603 110.489L124.378 109.136C130.926 115.278 136.987 121.691 131.278 134.868L128.491 134.922Z" fill="#CE8BC2"/>
</g>
<path d="M129.624 147.667C129.624 147.667 98.7499 154.458 74.3973 157.029C50.0447 159.599 41.1696 154.458 41.1696 154.458C41.1696 154.458 16.357 189.337 19.3875 245.05H23.8251C23.8251 245.05 21.7146 276.194 21.011 300.763L17.0335 303.334C17.0335 303.334 12.3524 320.651 10.9453 336.345L13.2723 337.509C13.2723 337.509 17.2499 363.972 26.6121 385.97C26.6121 385.97 80.6749 388.784 110.656 385.97C140.609 383.156 148.321 381.289 148.321 381.289L129.596 147.694L129.624 147.667Z" fill="url(#paint9_linear_332_7473)"/>
<path d="M59.8125 387.052C59.8125 387.052 63.2219 225.46 78.6993 192.584L126.268 188.904L123.806 361.618L100.86 385.97L59.8125 387.079V387.052Z" fill="#CC2C36"/>
<path d="M41.1677 154.458C41.1677 154.458 75.8836 167.257 85.4082 175.401L133.383 155.513L134.086 146.124C134.086 146.124 113.955 151.13 88.3576 154.864C62.7603 158.598 41.1406 154.485 41.1406 154.485L41.1677 154.458Z" fill="url(#paint10_linear_332_7473)"/>
<path d="M196.209 192.151C196.209 192.151 202.135 206.816 205.247 223.349C208.358 239.882 217.964 292.646 217.964 292.646L192.746 294.837C192.746 294.837 190.256 209.008 196.182 192.151H196.209Z" fill="url(#paint11_linear_332_7473)"/>
<path d="M132.732 113.438C132.732 113.438 129.241 142.066 128.484 148.289C127.699 154.539 118.039 159.843 118.039 159.843C118.039 159.843 127.861 185.9 147.37 188.877C166.88 191.853 166.555 168.123 166.555 168.123C166.555 168.123 157.653 158.301 157.355 155.946C157.057 153.592 157.517 146.584 157.517 146.584C157.517 146.584 141.688 131.486 132.732 113.438Z" fill="url(#paint12_linear_332_7473)"/>
<path d="M209.938 380.342C199.006 418.089 172.489 440.249 139.721 449.314C106.953 458.379 85.033 454.942 85.033 453.075C85.033 451.208 89.7141 448.692 89.7141 448.692C89.7141 448.692 91.6654 421.227 94.1547 402.801C96.6441 384.401 107.9 346.167 104.599 323.222C101.325 300.303 57.0847 198.482 65.4999 189.12C73.915 179.785 112.311 161.223 112.311 161.223C112.311 161.223 113.014 155.622 114.638 155.487C116.289 155.351 120.131 158.49 120.131 158.49C120.131 158.49 138.612 190.23 153.9 186.036C169.188 181.814 162.694 163.658 162.694 163.658C163.614 161.142 164.371 160.141 164.994 160.087C165.129 160.032 165.264 160.087 165.4 160.168C166.861 161.006 167.429 166.689 167.429 166.689C168.132 167.257 168.863 167.852 169.594 168.502C180.444 177.512 196.138 192.151 196.138 192.151C195.191 201.188 192.079 281.389 194.298 303.55C196.463 325.711 199.899 368.95 199.899 368.95C199.899 368.95 203.471 366.461 204.878 367.543C206.285 368.626 205.825 377.528 205.825 377.528C205.825 377.528 207.854 373.009 209.884 373.009C211.913 373.009 209.884 380.342 209.884 380.342H209.938Z" fill="url(#paint13_linear_332_7473)"/>
<path style="mix-blend-mode:multiply" opacity="0.5" d="M115.555 175.916C115.555 175.916 133.954 197.427 144.94 202.73C155.926 208.034 186.637 212.282 186.637 212.282C186.637 212.282 160.715 211.984 144.94 207.899C129.165 203.813 116.772 190.013 116.772 190.013L115.555 175.916Z" fill="url(#paint14_linear_332_7473)"/>
<path style="mix-blend-mode:multiply" opacity="0.5" d="M106.972 299.87C106.972 299.87 116.064 276.113 119.338 271.702C122.612 267.292 148.345 248.405 148.345 248.405C148.345 248.405 119.879 260.798 115.198 265.479C110.517 270.16 104.727 299.654 104.727 299.654L106.972 299.843V299.87Z" fill="url(#paint15_linear_332_7473)"/>
<path d="M171.938 170.423L173.805 168.042C173.805 168.042 185.818 178.351 194.017 179.271C194.017 179.271 214.609 218.208 194.017 254.656C194.017 254.656 200.646 205.031 175.049 174.59L171.938 170.423Z" fill="url(#paint16_linear_332_7473)"/>
<g style="mix-blend-mode:multiply">
<path d="M61.4631 345.924C61.4631 345.924 60.4348 368.463 59.8125 387.053L97.2072 386.295C97.2072 386.295 103.701 357.397 104.729 344.76C105.758 332.124 103.539 323.465 103.539 323.465L89.1438 335.182C89.1438 335.182 72.4758 338.429 61.4631 345.951V345.924Z" fill="#D98BA1"/>
</g>
<g style="mix-blend-mode:multiply">
<path d="M10.9766 336.318H44.3666L50.1571 307.934H57.6253L56.5429 386.998L49.8324 386.836L49.5077 325.873L47.9654 338.212L13.3036 337.508L10.9766 336.318Z" fill="#D98BA1"/>
</g>
<g style="mix-blend-mode:multiply">
<path d="M173.805 168.042C173.805 168.042 185.169 180.516 192.231 192.151C199.321 203.786 196.479 234.984 196.479 234.984L194.207 237.771C194.207 237.771 191.42 212.499 186.63 197.292C181.841 182.085 171.938 170.423 171.938 170.423L173.805 168.042Z" fill="#EA8BC2"/>
</g>
<path d="M88.0922 337.265C77.2959 354.15 59.7891 363.512 59.7891 363.512V346.032C59.7891 346.032 83.1134 328.579 98.1579 298.95C103.11 289.182 107.114 278.115 109.144 265.912C117.261 216.612 91.6368 172.831 91.6368 172.831L88.0922 173.913L89.3639 165.958C89.3639 165.958 101.73 165.498 106.979 161.845C106.979 161.845 123.052 181.165 125.893 213.933C128.707 246.701 98.8614 320.408 88.0922 337.265Z" fill="url(#paint17_linear_332_7473)"/>
<g style="mix-blend-mode:multiply">
<path d="M54.4817 245.05L34.2961 299.87L27.0445 303.253L23.8516 336.345L31.1032 337.887L49.7194 362.267L59.8393 387.08L60.5698 362.835C60.5698 362.835 78.9696 353.175 88.1424 337.265L54.5358 245.05H54.4817Z" fill="#D98BA1"/>
</g>
<g style="mix-blend-mode:multiply">
<path d="M48.6918 309.071C48.6918 309.071 48.1647 306.943 54.0206 322.837C57.1291 331.274 61.7918 334.827 66.4545 340.156C69.563 343.708 77.6935 357.082 83.3291 361.027C92.2104 367.244 114.189 381.644 119.298 390.779C124.408 399.915 119.299 453.837 119.299 453.837L147.275 447.62L151.918 393.987L100.505 329.551C100.505 329.551 89.2505 332.818 75.187 333.337C61.1235 333.856 69.5629 311.291 69.5629 311.291L48.6918 309.071Z" fill="#B2B3E8"/>
</g>
<path d="M47.9609 307.934C47.9609 307.934 83.2181 315.429 106.786 284.69C106.786 284.69 84.9498 279.549 47.9609 307.934Z" fill="url(#paint18_linear_332_7473)"/>
<path d="M65.5219 189.12C65.5219 189.12 62.9513 193.693 57.9455 221.482C52.9397 249.271 47.9609 307.933 47.9609 307.933C47.9609 307.933 76.3723 286.72 106.786 284.69C106.786 284.69 103.81 272.054 106.786 243.345C109.762 214.636 79.3216 186.116 65.5219 189.147V189.12Z" fill="url(#paint19_linear_332_7473)"/>
<g style="mix-blend-mode:multiply">
<path d="M115.55 240.667C115.658 270.756 101.832 299.437 101.832 299.437L98.1787 298.896C103.13 289.128 107.135 278.061 109.164 265.858C117.282 216.558 89.0871 173.562 89.0871 173.562L88.0859 173.859L89.3577 165.904C89.3577 165.904 115.442 210.551 115.523 240.64L115.55 240.667Z" fill="#EA8BC2"/>
</g>
<path d="M78.699 179.379C78.699 179.379 69.4991 166.851 44.2266 164.984C44.2266 164.984 24.0951 188.85 23.8516 245.05C23.8516 245.05 29.9397 204.922 42.8195 182.545C42.8195 182.545 56.4028 172.588 57.3228 175.402C58.2699 178.216 57.1605 185.9 59.8122 185.9C62.4639 185.9 65.4945 189.12 65.4945 189.12L78.6719 179.379H78.699Z" fill="#CC4236"/>
<path style="mix-blend-mode:multiply" opacity="0.5" d="M152.808 196.345C133.353 196.345 112.328 161.223 112.328 161.223C112.328 161.223 113.032 155.622 114.655 155.487C116.306 155.351 120.148 158.49 120.148 158.49C120.148 158.49 138.629 190.23 153.917 186.036C169.205 181.814 162.711 163.658 162.711 163.658C163.631 161.142 164.389 160.141 165.011 160.087C165.2 160.141 165.363 160.168 165.417 160.168C166.283 160.059 168.583 164.984 168.583 164.984C168.583 164.984 169.043 166.337 169.611 168.502C171.748 176.457 168.068 196.345 152.78 196.345H152.808Z" fill="url(#paint20_linear_332_7473)"/>
<path d="M47.9609 307.934V298.923C47.9609 298.923 79.3216 275.112 105.785 276.384L106.786 284.691C106.786 284.691 73.5582 289.832 47.9609 307.934Z" fill="url(#paint21_linear_332_7473)"/>
<g style="mix-blend-mode:multiply">
<path d="M131.269 124.342C131.269 124.342 133.19 177.485 157.326 155.946L157.489 146.584C157.489 146.584 141.66 139.711 132.703 113.438L131.242 124.342H131.269Z" fill="#E89FC0"/>
</g>
<g style="mix-blend-mode:multiply" opacity="0.8">
<path d="M162.722 163.686C162.722 163.686 163.507 178.865 155.984 185.359C155.984 185.359 170.109 180.164 162.722 163.686Z" fill="#9C92AD"/>
</g>
<path style="mix-blend-mode:multiply" opacity="0.5" d="M105.789 276.384C105.789 276.384 107.06 253.465 107.006 239.205C106.952 224.946 94.6406 199.186 94.6406 199.186C94.6406 199.186 111.119 214.393 112.364 232.197C113.609 249.975 105.816 276.411 105.816 276.411L105.789 276.384Z" fill="url(#paint22_linear_332_7473)"/>
<path style="mix-blend-mode:multiply" opacity="0.5" d="M199.136 358.993C199.136 358.993 186.202 381.722 170.914 388.135C155.626 394.521 136.117 390.327 129.406 387.053C129.406 387.053 140.635 393.763 157.033 393.276C173.43 392.816 194.509 379.99 199.948 368.951L199.136 358.993Z" fill="url(#paint23_linear_332_7473)"/>
<path style="mix-blend-mode:multiply" opacity="0.5" d="M205.929 372.847C205.929 372.847 199.625 388.703 181.523 406.67C163.42 424.637 126.242 432.754 126.242 432.754C126.242 432.754 154.356 431.347 171.998 421.687C189.64 412 193.834 394.845 198.218 388.459C202.574 382.074 205.875 377.528 205.875 377.528L205.929 372.847Z" fill="url(#paint24_linear_332_7473)"/>
<path style="mix-blend-mode:multiply" opacity="0.5" d="M89.7109 448.692C89.7109 448.692 106.057 454.455 127.082 450.559C148.079 446.662 159.227 437.922 159.227 437.922C159.227 437.922 120.476 452.426 89.7109 446.662V448.692Z" fill="url(#paint25_linear_332_7473)"/>
<path style="mix-blend-mode:multiply" d="M53.9941 315.239C53.9941 315.239 66.6845 291.157 89.1701 298.923V288.397C89.1701 288.397 68.1727 295.27 52.6953 304.795L53.9941 315.239Z" fill="url(#paint26_linear_332_7473)"/>
<path style="mix-blend-mode:multiply" opacity="0.3" d="M68.875 192.151L70.2009 295.433L85.9489 289.48L68.875 192.151Z" fill="url(#paint27_linear_332_7473)"/>
<path style="mix-blend-mode:multiply" opacity="0.5" d="M110.062 362.24C110.062 362.24 126.054 377.745 144.427 381.993C162.799 386.268 171.945 381.993 171.945 381.993C171.945 381.993 161.933 388.297 144.427 384.699C126.92 381.1 110.062 362.24 110.062 362.24Z" fill="url(#paint28_linear_332_7473)"/>
<path style="mix-blend-mode:multiply" opacity="0.5" d="M57.3247 175.402C57.3247 175.402 47.9625 184.385 45.1484 194.099C42.3344 203.84 36.7333 234.714 39.0603 237.771C41.3873 240.829 58.7318 193.855 58.4882 188.904C58.2447 183.952 57.3247 175.402 57.3247 175.402Z" fill="url(#paint29_linear_332_7473)"/>
<path style="mix-blend-mode:multiply" opacity="0.5" d="M61.5391 339.132C61.5391 339.132 71.1989 334.451 77.3682 332.908C83.5376 331.339 101.315 334.234 101.315 334.234C101.315 334.234 69.1966 343.515 61.5391 339.159V339.132Z" fill="url(#paint30_linear_332_7473)"/>
<path d="M201.654 52.5835C200.978 55.7223 194.755 77.3149 195.972 86.5959V86.8124C197.217 95.9852 198.218 102.615 198.434 110.57C198.516 113.465 196.757 119.174 194.024 125.398C189.262 136.329 181.415 148.857 175.191 150.183C174.569 150.319 173.892 150.4 173.135 150.4C162.339 150.724 140.124 139.36 129.598 121.907C128.272 119.715 127.136 117.47 126.107 115.17C126.08 115.17 126.08 115.116 126.08 115.116C118.477 97.8252 118.612 77.9914 115.122 64.5704C111.144 49.3635 124.727 21.9263 145.292 14.6205C165.829 7.31476 184.256 11.8065 184.256 11.8065C184.256 11.8065 195.837 41.4084 200.68 47.2259C200.68 47.2259 202.358 49.4447 201.654 52.6106V52.5835Z" fill="url(#paint31_linear_332_7473)"/>
<path d="M176.567 52.6918C176.567 52.6918 174.944 58.3741 172.535 60.8093C172.535 60.8093 164.77 60.8093 155.786 62.8658C146.803 64.9222 143.664 67.4116 143.664 67.4116C143.664 67.4116 147.452 60.7011 153.703 57.5623C159.953 54.4506 176.567 52.6918 176.567 52.6918Z" fill="url(#paint32_linear_332_7473)"/>
<path d="M121.831 83.3487C121.831 83.3487 113.037 73.283 104.487 73.9053C95.9634 74.5006 93.474 92.3321 100.049 102.317C106.624 112.301 119.098 115.494 120.83 114.466C122.535 113.438 125.944 105.915 125.944 105.915L121.831 83.3487Z" fill="url(#paint33_linear_332_7473)"/>
<path d="M152.466 44.5472C152.466 44.5472 136.718 71.3621 126.192 79.7773L125.381 89.2748C125.381 89.2748 119.347 80.102 113.312 76.2597L113.989 65.1657C113.989 65.1657 136.556 49.4989 152.466 44.5201V44.5472Z" fill="url(#paint34_linear_332_7473)"/>
<path d="M120.719 82.8079L126.185 79.7773C126.185 79.7773 126.563 89.7078 128.809 94.1995L125.914 99.1782C125.914 99.1782 123.479 87.5161 120.719 82.8079Z" fill="url(#paint35_linear_332_7473)"/>
<path d="M113.658 70.5233C113.658 70.5233 103.565 42.6531 103.998 33.6968C104.431 24.7404 133.275 4.58192 133.275 4.58192C133.275 4.58192 170.589 1.19962 179.978 5.69131C189.367 10.183 199.974 40.3531 199.974 40.3531C199.974 40.3531 165.312 39.9473 146.074 47.9024C126.808 55.8576 113.658 70.5503 113.658 70.5503V70.5233Z" fill="url(#paint36_linear_332_7473)"/>
<path d="M107.354 51.0141C107.354 51.0141 94.1768 46.3871 81.7299 50.5541C81.7299 50.5541 78.7265 56.8587 84.3005 58.7528C84.3005 58.7528 99.0744 55.3975 109.952 59.5645L107.354 51.0141Z" fill="#A21642"/>
<path d="M128.591 7.9911C128.591 7.9911 126.994 2.57942 127.508 2.01119C127.995 1.44297 131.296 0.604155 133.163 0.982973C135.003 1.36179 136.681 3.98646 136.681 3.98646L133.299 4.58174L128.618 8.01816L128.591 7.9911Z" fill="#A21642"/>
<path d="M133.273 4.58176C133.273 4.58176 123.153 16.8933 123.18 22.278C123.207 27.6626 136.06 52.1775 136.06 52.1775C136.06 52.1775 163.632 33.9401 197.293 31.8566C197.293 31.8566 186.686 7.20643 179.542 4.58176C172.399 1.9571 146.802 1.93004 133.273 4.58176Z" fill="url(#paint37_linear_332_7473)"/>
<path d="M144.148 26.2014C144.148 26.2014 168.961 10.8864 187.036 14.9722L193.124 25.7685C193.124 25.7685 173.723 25.552 148.424 36.3754L144.148 26.2014Z" fill="#FF3748"/>
<path style="mix-blend-mode:multiply" opacity="0.5" d="M122.236 97.3109C122.236 97.3109 116.5 86.3523 108.761 85.4864C101.022 84.6205 97.9375 90.5463 97.9375 90.5463C97.9375 90.5463 100.427 87.4617 106.948 87.3534C106.948 87.3534 106.542 94.091 107.489 99.9897C108.436 105.888 113.523 108.297 115.471 107.214C117.42 106.159 111.981 96.445 114.01 93.9286C116.04 91.4122 122.236 97.3109 122.236 97.3109Z" fill="url(#paint38_linear_332_7473)"/>
<path style="mix-blend-mode:multiply" opacity="0.5" d="M147.43 83.0514C147.43 83.0514 150.623 91.0877 158.659 91.5206C166.695 91.9536 165.099 81.1031 165.099 81.1031L147.43 83.0514Z" fill="url(#paint39_linear_332_7473)"/>
<path style="mix-blend-mode:multiply" opacity="0.5" d="M186.18 83.7548C186.18 83.7548 189.102 91.5476 192.863 91.6017C196.624 91.6558 195.812 84.0795 195.812 84.0795L186.18 83.7548Z" fill="url(#paint40_linear_332_7473)"/>
<path style="mix-blend-mode:multiply" opacity="0.5" d="M111.47 86.217C111.47 86.217 106.951 88.6793 107.032 95.9309C107.114 103.183 112.471 107.755 114.771 106.863C117.071 105.97 111.822 95.8498 114.013 93.9557C116.205 92.0887 121.13 96.3639 121.13 96.3639C121.13 96.3639 117.233 88.4628 111.47 86.217Z" fill="url(#paint41_linear_332_7473)"/>
<path d="M187.5 63.7857C187.5 63.7857 189.205 58.6446 200.677 56.3446C200.677 56.3446 203.302 50.4188 202.057 46.5495C202.057 46.5495 192.56 49.3094 187.5 63.7857Z" fill="url(#paint42_linear_332_7473)"/>
<path style="mix-blend-mode:multiply" opacity="0.5" d="M146.695 81.4548C146.695 81.4548 149.942 69.9279 162.876 64.4621L164.473 67.9797L146.695 81.4548Z" fill="url(#paint43_linear_332_7473)"/>
<g style="mix-blend-mode:multiply">
<path d="M199.514 61.6208C199.514 61.6208 188.718 63.3526 170.318 65.1926C151.918 67.0325 133.789 54.2339 133.789 54.2339C133.789 54.2339 151.242 43.1129 164.338 38.7835C177.434 34.4542 194.616 38.6753 194.616 38.6753L200.677 47.1987C200.677 47.1987 204.655 44.2764 199.514 61.5938V61.6208Z" fill="#C98BC2"/>
</g>
<path style="mix-blend-mode:multiply" opacity="0.5" d="M185.878 82.7261C185.878 82.7261 185.364 70.2251 197.162 63.6229L196.729 68.2228L185.878 82.7261Z" fill="url(#paint44_linear_332_7473)"/>
<path d="M185.878 81.7795C185.418 84.5665 189.72 89.3288 192.588 88.1653C195.484 87.0018 197.215 77.1255 196.728 68.2233C196.728 68.2233 188.151 68.115 185.878 81.7795Z" fill="url(#paint45_linear_332_7473)"/>
<path d="M164.612 84.7289C162.096 89.7888 151.597 93.8746 146.727 81.4277C146.727 81.4277 151.678 70.0632 164.504 67.9526C164.504 67.9526 169.023 75.8537 164.639 84.7018L164.612 84.7289Z" fill="url(#paint46_linear_332_7473)"/>
<mask id="mask2_332_7473" style="mask-type:luminance" maskUnits="userSpaceOnUse" x="185" y="68" width="12" height="21">
<path d="M185.886 81.7795C185.426 84.5665 189.728 89.3288 192.596 88.1653C195.491 87.0018 197.223 77.1255 196.736 68.2232C196.736 68.2232 188.159 68.115 185.886 81.7795Z" fill="white"/>
</mask>
<g mask="url(#mask2_332_7473)">
<path d="M192.217 83.5926C192.217 83.5926 189.511 74.4469 196.709 67.9799C196.709 67.9799 198.955 79.2633 196.709 82.4562C194.49 85.6491 192.19 83.5926 192.19 83.5926H192.217Z" fill="#AD7A90"/>
<g style="mix-blend-mode:multiply">
<path d="M193.895 84.2419C193.895 84.2419 191.595 75.7456 197.142 70.4422C197.142 70.4422 198.332 77.342 197.547 80.4538C196.763 83.5384 194.706 84.4043 193.895 84.2419Z" fill="#AB8BC2"/>
</g>
</g>
<path d="M186.281 79.6962C186.281 79.6962 188.419 70.9022 196.672 69.2516L199.702 66.7081C199.702 66.7081 189.366 65.707 186.281 79.6962Z" fill="#95344D"/>
<path d="M165.153 69.4407L167.237 65.7337C167.237 65.7337 152.084 68.2501 146.727 81.4276C146.727 81.4276 151.597 72.7418 165.18 69.4137L165.153 69.4407Z" fill="#95344D"/>
<mask id="mask3_332_7473" style="mask-type:luminance" maskUnits="userSpaceOnUse" x="146" y="67" width="21" height="23">
<path d="M164.612 84.7289C162.096 89.7888 151.597 93.8746 146.727 81.4278C146.727 81.4278 151.678 70.0632 164.504 67.9527C164.504 67.9527 169.023 75.8537 164.639 84.7018L164.612 84.7289Z" fill="white"/>
</mask>
<g mask="url(#mask3_332_7473)">
<path d="M161.017 88.4629C161.017 88.4629 157.527 73.8784 165.915 71.1725C165.915 71.1725 170.839 83.89 161.017 88.4629Z" fill="#AD7A90"/>
<g style="mix-blend-mode:multiply">
<path d="M166.508 72.877C166.508 72.877 160.339 76.9629 163.234 87.0827C163.234 87.0827 168.646 83.1592 166.508 72.877Z" fill="#AB8BC2"/>
</g>
</g>
<path d="M155.93 81.0757C155.93 81.0757 159.637 80.9134 160.503 83.6463C160.503 83.6463 157.797 84.431 155.93 81.0757Z" fill="white"/>
<path d="M189.586 80.9136C189.586 80.9136 191.994 80.8324 192.562 82.6995C192.562 82.6995 190.912 82.943 189.586 80.9136Z" fill="white"/>
<path style="mix-blend-mode:multiply" opacity="0.3" d="M191.394 98.4202C191.394 98.4202 185.522 94.7132 178.054 95.9579C170.586 97.1755 175.862 88.3274 184.44 87.0557C184.44 87.0557 185.333 92.8191 191.394 98.4202Z" fill="url(#paint47_linear_332_7473)"/>
<path style="mix-blend-mode:multiply" opacity="0.5" d="M172.536 60.8091C172.536 60.8091 170.993 84.2417 165.636 90.4651C160.278 96.6886 151.187 93.0086 145.234 86.4064C139.281 79.8041 143.664 67.3843 143.664 67.3843C143.664 67.3843 154.461 59.6727 172.536 60.7821V60.8091Z" fill="url(#paint48_linear_332_7473)"/>
<path style="mix-blend-mode:multiply" opacity="0.5" d="M173.244 98.7452C173.244 98.7452 170.403 101.045 169.24 103.886C168.076 106.7 170.917 109.163 174.164 107.404C177.411 105.618 178.656 105.889 178.277 107.187C177.926 108.486 179.847 109.92 184.582 109.785C189.317 109.65 193.998 105.347 192.591 100.829C192.591 100.829 195.297 108.784 184.42 110.867C173.569 112.951 171.756 108.297 168.022 106.782C164.288 105.266 173.217 98.7452 173.217 98.7452H173.244Z" fill="url(#paint49_linear_332_7473)"/>
<path style="mix-blend-mode:multiply" opacity="0.5" d="M171.891 108.675C171.891 108.675 175.462 106.511 177.086 106.781C178.709 107.052 177.573 109.081 175.895 109.785C174.218 110.488 171.891 108.702 171.891 108.702V108.675Z" fill="url(#paint50_linear_332_7473)"/>
<path style="mix-blend-mode:multiply" opacity="0.5" d="M167.211 105.077C167.211 105.077 168.05 105.916 174.463 105.591C181.85 105.212 187.045 105.997 192.511 104.563C192.511 104.563 188.912 118.173 182.337 118.417C173.705 118.714 167.211 105.077 167.211 105.077Z" fill="url(#paint51_linear_332_7473)"/>
<g style="mix-blend-mode:multiply">
<path d="M159.898 112.707C159.898 112.707 168.097 119.174 177.811 120.906C182.357 121.717 187.606 120.554 189.203 119.147C190.772 117.74 192.883 115.873 192.883 115.873C192.883 115.873 189.122 119.661 188.418 120.581C187.714 121.501 183.069 129.359 178.848 129.17C174.599 128.981 167.015 118.984 164.58 117.28C162.144 115.575 159.925 112.707 159.925 112.707H159.898Z" fill="#EA7F88"/>
</g>
<path style="mix-blend-mode:multiply" opacity="0.5" d="M163.23 109.893C163.23 109.893 159.658 112.87 157.845 118.579C157.845 118.579 156.817 115.467 157.412 112.734C158.034 109.974 163.23 109.893 163.23 109.893Z" fill="url(#paint52_linear_332_7473)"/>
<path d="M170.788 120.579C170.788 120.579 175.441 122.938 177.815 123.265C180.161 123.62 185.368 122.067 185.368 122.067C185.368 122.067 181.595 125.928 177.969 125.895C174.369 125.862 170.789 120.552 170.789 120.552L170.788 120.579Z" fill="url(#paint53_linear_332_7473)"/>
<path d="M174.536 122.267L167.789 118.071L171.338 121.324L174.536 122.267Z" fill="#C22A57"/>
<path d="M184.918 122.489L188.446 119.84L184.163 122.39L184.918 122.489Z" fill="#C22A57"/>
<path style="mix-blend-mode:multiply" opacity="0.5" d="M187.5 63.7857C187.5 63.7857 184.416 78.262 184.984 85.2972C185.552 92.3323 196.863 93.6312 196.808 93.2523C196.754 92.8735 195.401 84.3772 196.078 78.9926C196.754 73.635 200.678 56.3447 200.678 56.3447C200.678 56.3447 191.667 54.5859 187.5 63.7857Z" fill="url(#paint54_linear_332_7473)"/>
<path d="M136.172 52.7998C136.172 52.7998 165.287 54.6398 175.407 50.1751C185.526 45.7105 207.146 35.5906 220.702 34.3189C234.259 33.0471 238.777 42.1117 238.777 42.1117C238.777 42.1117 234.881 34.4812 221.244 32.046C208.039 32.1001 195.971 31.8295 195.971 31.8295C195.971 31.8295 157.386 34.5624 136.172 52.7998Z" fill="url(#paint55_linear_332_7473)"/>
<path d="M201.114 47.9293C201.114 47.9293 220.19 48.8764 237.697 45.6835C237.697 45.6835 232.123 35.1307 216.186 35.4825C200.221 35.8342 196 41.3812 196 41.3812L201.141 47.9293H201.114Z" fill="#A21642"/>
<path d="M238.752 42.1116L237.67 45.7103C237.67 45.7103 228.795 32.2623 207.635 37.5387C186.475 42.8151 184.554 50.1479 173.352 53.9902C162.15 57.8596 133.766 54.2337 133.766 54.2337L136.039 52.2044C136.039 52.2044 160.256 53.449 169.753 50.7703C179.251 48.0915 198.246 35.5905 216.348 33.5611C234.45 31.5317 238.752 42.0845 238.752 42.0845V42.1116Z" fill="url(#paint56_linear_332_7473)"/>
<path style="mix-blend-mode:multiply" opacity="0.5" d="M117.232 79.0736C117.232 79.0736 127.568 73.2831 131.789 62.7303C131.789 62.7303 123.536 72.6878 113.281 76.2595L117.205 79.0465L117.232 79.0736Z" fill="url(#paint57_linear_332_7473)"/>
<path style="mix-blend-mode:multiply" opacity="0.5" d="M182.718 6.88159C182.718 6.88159 142.346 10.8592 123.162 22.2778C103.978 33.6965 104.383 38.4588 104.383 38.4588C104.383 38.4588 108.659 56.8855 113.637 70.523C113.637 70.523 128.357 57.8596 137.692 51.1492C147.028 44.4387 170.46 33.2906 197.275 31.8565C197.275 31.8565 189.266 12.3474 182.718 6.88159Z" fill="url(#paint58_linear_332_7473)"/>
<path style="mix-blend-mode:multiply" opacity="0.5" d="M174.76 135.409L182.255 132.622C182.255 132.622 179.766 132.622 173.786 130.051C167.806 127.481 174.76 135.409 174.76 135.409Z" fill="url(#paint59_linear_332_7473)"/>
<path style="mix-blend-mode:multiply" opacity="0.5" d="M173.106 150.426C162.309 150.751 140.094 139.387 129.569 121.934C128.243 119.742 127.106 117.496 126.078 115.196C126.809 116.171 135.982 130.62 149.105 138.494C161.227 145.745 171.59 149.885 173.106 150.454V150.426Z" fill="url(#paint60_linear_332_7473)"/>
<path d="M89.5457 305.191C89.5457 305.191 102.66 331.896 118.034 347.326C133.408 362.756 146.432 369.21 148.501 369.99C150.571 370.814 154.601 377.045 157.982 387.174C162.023 399.339 171.254 417.008 171.636 420.228C171.641 420.446 171.645 420.62 171.648 420.751C167.856 433.799 168.752 442.155 168.752 442.155C168.752 442.155 167.429 445.24 163.85 445.194C160.752 445.18 158.654 441.347 158.654 441.347L156.969 447.582C154.049 453.236 144.221 449.062 144.221 449.062C135.549 449.529 136.067 443.757 136.067 443.757C136.067 443.757 129.291 443.176 129.161 437.682C129.031 432.188 130.786 425.253 129.775 421.219C129.482 419.917 129.19 418.659 128.899 417.4C128.898 417.357 128.897 417.313 128.897 417.313C126.509 406.767 124.777 396.25 123.418 388.603C122.457 383.041 121.661 378.915 120.883 377.363C118.998 373.307 88.6773 362.332 76.95 351.658C67.3185 342.898 58.0653 324.313 54.6194 316.977C54.526 316.718 54.4368 316.633 54.4368 316.633C53.7922 315.208 53.3771 314.258 53.24 314C52.5457 312.315 53.1318 305.075 53.1318 305.075C77.0503 290.304 92.6539 287.756 92.6539 287.756L89.5457 305.191Z" fill="url(#paint61_linear_332_7473)"/>
<path d="M144.743 439.8C145.664 441.873 143.836 447.588 143.836 447.588C141.513 448.995 138.252 445.757 138.252 445.757C139.693 442.145 143.777 437.729 144.743 439.8Z" fill="#FFD8CC"/>
<g style="mix-blend-mode:multiply">
<path d="M147.078 412.956C147.813 416.342 151.344 425.421 151.215 427.343C151.086 429.266 145.027 446.12 144.18 449.019C145.033 442.673 150.138 429.768 149.863 427.375C149.368 423.068 147.122 412.955 147.122 412.955L147.078 412.956Z" fill="#E392AD"/>
</g>
<g style="mix-blend-mode:multiply">
<path d="M140.823 431.08C140.823 431.08 139.644 419.982 137.393 415.193C137.393 415.193 140.665 422.532 141.971 429.787C141.971 429.787 139.873 438.868 140.595 443.563C141.317 448.258 136.017 443.672 136.017 443.672C136.017 443.672 138.581 443.262 139.355 442.764C140.127 442.222 139.229 437.444 140.867 431.079L140.823 431.08Z" fill="#E392AD"/>
</g>
<g style="mix-blend-mode:multiply">
<path d="M162.77 425.238C163.719 426.611 159.136 437.627 158.614 441.348C159.258 437.232 161.243 428.939 161.641 427.315C162.039 425.691 157.934 418.153 156.547 409.329C156.547 409.329 160.467 421.933 162.769 425.194L162.77 425.238Z" fill="#E392AD"/>
</g>
<g style="mix-blend-mode:multiply" opacity="0.5">
<path d="M122.329 377.634C122.439 382.257 123.33 388.562 123.33 388.562C122.369 383 121.573 378.874 120.795 377.322C118.91 373.265 88.5891 362.29 76.8618 351.617C67.2304 342.857 57.9771 324.271 54.5312 316.936C55.7612 319.132 62.6055 331.797 79.3114 348.199C100.171 368.648 122.22 373.012 122.329 377.634Z" fill="#E392AD"/>
</g>
<path d="M166.603 434.222C169.248 435.381 167.92 441.913 167.92 441.913C166.531 445.916 159.831 443.021 160.283 441.832C160.778 440.642 163.958 433.063 166.603 434.222Z" fill="#FFD8CC"/>
<path d="M154.482 438.566C158.56 439.429 156.355 447.64 156.355 447.64C151.271 452.211 147.459 447.851 147.459 447.851C147.459 447.851 150.404 437.703 154.482 438.566Z" fill="#FFD8CC"/>
<path d="M138.23 433.715C139.97 435.332 139.068 441.462 139.068 441.462C139.068 441.462 131.603 443.122 132.36 440.093C133.117 437.065 136.447 432.1 138.186 433.716L138.23 433.715Z" fill="#FFD8CC"/>
<g style="mix-blend-mode:multiply" opacity="0.3">
<path d="M129.73 421.22C129.437 419.918 129.146 418.66 128.854 417.402C129.265 418.177 132.513 424.514 134.574 426.821C136.816 429.342 141.68 428.398 141.68 428.398C144.998 430.327 149.83 428.031 149.83 428.031L150.763 425.042C150.763 425.042 151.818 429.074 154.484 429.273C157.107 429.473 161.637 427.315 161.637 427.315L161.992 423.903C161.992 423.903 170.284 425.845 171.634 420.185C171.639 420.403 171.643 420.577 171.646 420.708C167.854 433.756 168.75 442.112 168.75 442.112C168.75 442.112 167.426 445.197 163.848 445.151C160.75 445.137 158.652 441.303 158.652 441.303L156.967 447.539C154.047 453.193 144.219 449.019 144.219 449.019C135.547 449.486 136.065 443.714 136.065 443.714C136.065 443.714 129.289 443.133 129.159 437.639C129.029 432.144 130.784 425.209 129.772 421.176L129.73 421.22Z" fill="#EE7CAD"/>
</g>
<g style="mix-blend-mode:multiply" opacity="0.2">
<path d="M150.526 374.48C154.035 377.102 157.143 390.467 150.313 389.45C143.483 388.434 132.219 386.301 134.564 382.144C136.866 377.989 144.44 369.912 150.526 374.48Z" fill="#E392AD"/>
</g>
<g style="mix-blend-mode:multiply" opacity="0.8">
<path d="M100.773 285.471C104.931 286.916 103.204 289.52 103.204 289.52C95.4218 287.519 52.7026 305.057 52.7026 305.057C69.3431 294.531 96.6354 284.059 100.773 285.471Z" fill="#9C92AD"/>
</g>
<defs>
<linearGradient id="paint0_linear_332_7473" x1="207.87" y1="423.395" x2="183.245" y2="229.139" gradientUnits="userSpaceOnUse">
<stop offset="0.02" stop-color="#FFBDA1"/>
<stop offset="1" stop-color="#FF957C"/>
</linearGradient>
<linearGradient id="paint1_linear_332_7473" x1="124.763" y1="770.118" x2="124.763" y2="410.049" gradientUnits="userSpaceOnUse">
<stop offset="0.02" stop-color="#281D8B"/>
<stop offset="1" stop-color="#2B3698"/>
</linearGradient>
<radialGradient id="paint2_radial_332_7473" cx="0" cy="0" r="1" gradientUnits="userSpaceOnUse" gradientTransform="translate(202.257 749.835) scale(57.4556 57.4556)">
<stop stop-color="#B15C38"/>
<stop offset="1" stop-color="#8D423D"/>
</radialGradient>
<radialGradient id="paint3_radial_332_7473" cx="0" cy="0" r="1" gradientUnits="userSpaceOnUse" gradientTransform="translate(16.0665 752.534) scale(36.5589 36.5589)">
<stop stop-color="#B15C38"/>
<stop offset="1" stop-color="#8D423D"/>
</radialGradient>
<linearGradient id="paint4_linear_332_7473" x1="247.117" y1="784.063" x2="247.117" y2="762.594" gradientUnits="userSpaceOnUse">
<stop stop-color="#E2E3F6"/>
<stop offset="1" stop-color="#F1E8FF"/>
</linearGradient>
<linearGradient id="paint5_linear_332_7473" x1="42.4055" y1="785.29" x2="42.4055" y2="759.813" gradientUnits="userSpaceOnUse">
<stop stop-color="#E2E3F6"/>
<stop offset="1" stop-color="#F1E8FF"/>
</linearGradient>
<linearGradient id="paint6_linear_332_7473" x1="7.5625" y1="776.293" x2="77.6951" y2="776.293" gradientUnits="userSpaceOnUse">
<stop stop-color="#8E81F4"/>
<stop offset="0.99" stop-color="#832297"/>
</linearGradient>
<linearGradient id="paint7_linear_332_7473" x1="187.617" y1="779.155" x2="293.409" y2="779.155" gradientUnits="userSpaceOnUse">
<stop offset="0.01" stop-color="#832297"/>
<stop offset="1" stop-color="#8E81F4"/>
</linearGradient>
<linearGradient id="paint8_linear_332_7473" x1="111.772" y1="140.468" x2="104.304" y2="99.4174" gradientUnits="userSpaceOnUse">
<stop offset="0.02" stop-color="#E05215"/>
<stop offset="1" stop-color="#A73609"/>
</linearGradient>
<linearGradient id="paint9_linear_332_7473" x1="79.6737" y1="387.188" x2="79.6737" y2="147.667" gradientUnits="userSpaceOnUse">
<stop stop-color="#FF4C59"/>
<stop offset="1" stop-color="#FF813B"/>
</linearGradient>
<linearGradient id="paint10_linear_332_7473" x1="41.1677" y1="160.763" x2="134.086" y2="160.763" gradientUnits="userSpaceOnUse">
<stop stop-color="#FFB159"/>
<stop offset="1" stop-color="#FFA73B"/>
</linearGradient>
<linearGradient id="paint11_linear_332_7473" x1="205.107" y1="294.837" x2="205.107" y2="192.113" gradientUnits="userSpaceOnUse">
<stop offset="0.02" stop-color="#3B3195"/>
<stop offset="1" stop-color="#3D47BB"/>
</linearGradient>
<linearGradient id="paint12_linear_332_7473" x1="142.265" y1="188.96" x2="142.265" y2="113.284" gradientUnits="userSpaceOnUse">
<stop offset="0.02" stop-color="#FFA67F"/>
<stop offset="1" stop-color="#FF8B7C"/>
</linearGradient>
<linearGradient id="paint13_linear_332_7473" x1="137.627" y1="455.295" x2="137.627" y2="155.52" gradientUnits="userSpaceOnUse">
<stop offset="0.02" stop-color="#D7D1FD"/>
<stop offset="1" stop-color="white"/>
</linearGradient>
<linearGradient id="paint14_linear_332_7473" x1="115.555" y1="194.099" x2="186.637" y2="194.099" gradientUnits="userSpaceOnUse">
<stop stop-color="#6175B8"/>
<stop offset="1" stop-color="white"/>
</linearGradient>
<linearGradient id="paint15_linear_332_7473" x1="104.727" y1="274.138" x2="148.345" y2="274.138" gradientUnits="userSpaceOnUse">
<stop stop-color="#6175B8"/>
<stop offset="1" stop-color="white"/>
</linearGradient>
<linearGradient id="paint16_linear_332_7473" x1="187.55" y1="254.629" x2="187.55" y2="168.042" gradientUnits="userSpaceOnUse">
<stop stop-color="#FF8459"/>
<stop offset="1" stop-color="#FB8836"/>
</linearGradient>
<linearGradient id="paint17_linear_332_7473" x1="92.9627" y1="363.485" x2="92.9627" y2="161.818" gradientUnits="userSpaceOnUse">
<stop stop-color="#FF8459"/>
<stop offset="1" stop-color="#FB8836"/>
</linearGradient>
<linearGradient id="paint18_linear_332_7473" x1="77.3995" y1="308.739" x2="77.3995" y2="284.318" gradientUnits="userSpaceOnUse">
<stop offset="0.02" stop-color="#3B3195"/>
<stop offset="1" stop-color="#3D47BB"/>
</linearGradient>
<linearGradient id="paint19_linear_332_7473" x1="77.5013" y1="307.933" x2="77.5013" y2="188.882" gradientUnits="userSpaceOnUse">
<stop offset="0.02" stop-color="#3B3195"/>
<stop offset="1" stop-color="#3D47BB"/>
</linearGradient>
<linearGradient id="paint20_linear_332_7473" x1="141.151" y1="196.345" x2="141.151" y2="155.513" gradientUnits="userSpaceOnUse">
<stop stop-color="#8E81F4"/>
<stop offset="0.99" stop-color="#832297"/>
</linearGradient>
<linearGradient id="paint21_linear_332_7473" x1="77.3995" y1="307.934" x2="77.3995" y2="276.323" gradientUnits="userSpaceOnUse">
<stop offset="0.02" stop-color="#3B3195"/>
<stop offset="1" stop-color="#3D47BB"/>
</linearGradient>
<linearGradient id="paint22_linear_332_7473" x1="103.543" y1="276.384" x2="103.543" y2="199.159" gradientUnits="userSpaceOnUse">
<stop stop-color="#6175B8"/>
<stop offset="1" stop-color="white"/>
</linearGradient>
<linearGradient id="paint23_linear_332_7473" x1="129.406" y1="376.148" x2="199.948" y2="376.148" gradientUnits="userSpaceOnUse">
<stop stop-color="white"/>
<stop offset="1" stop-color="#6175B8"/>
</linearGradient>
<linearGradient id="paint24_linear_332_7473" x1="126.269" y1="402.8" x2="205.929" y2="402.8" gradientUnits="userSpaceOnUse">
<stop stop-color="white"/>
<stop offset="1" stop-color="#6175B8"/>
</linearGradient>
<linearGradient id="paint25_linear_332_7473" x1="94.1516" y1="444.904" x2="159.227" y2="444.904" gradientUnits="userSpaceOnUse">
<stop stop-color="#6175B8"/>
<stop offset="1" stop-color="white"/>
</linearGradient>
<linearGradient id="paint26_linear_332_7473" x1="70.5098" y1="314.698" x2="74.3599" y2="290.923" gradientUnits="userSpaceOnUse">
<stop offset="0.02" stop-color="#D1A1D6"/>
<stop offset="0.99" stop-color="#BD89C4"/>
</linearGradient>
<linearGradient id="paint27_linear_332_7473" x1="77.3984" y1="295.433" x2="77.3984" y2="192.151" gradientUnits="userSpaceOnUse">
<stop stop-color="#6175B8"/>
<stop offset="1" stop-color="white"/>
</linearGradient>
<linearGradient id="paint28_linear_332_7473" x1="141.017" y1="385.808" x2="141.017" y2="362.24" gradientUnits="userSpaceOnUse">
<stop stop-color="#6175B8"/>
<stop offset="1" stop-color="white"/>
</linearGradient>
<linearGradient id="paint29_linear_332_7473" x1="48.5037" y1="237.907" x2="48.5037" y2="175.402" gradientUnits="userSpaceOnUse">
<stop stop-color="white"/>
<stop offset="1" stop-color="#D94075"/>
</linearGradient>
<linearGradient id="paint30_linear_332_7473" x1="61.5391" y1="336.372" x2="101.315" y2="336.372" gradientUnits="userSpaceOnUse">
<stop stop-color="#E5658E"/>
<stop offset="1" stop-color="white"/>
</linearGradient>
<linearGradient id="paint31_linear_332_7473" x1="175.02" y1="150.223" x2="150.027" y2="12.8289" gradientUnits="userSpaceOnUse">
<stop offset="0.02" stop-color="#FFB99B"/>
<stop offset="1" stop-color="#FFBEA3"/>
</linearGradient>
<linearGradient id="paint32_linear_332_7473" x1="142.784" y1="62.9903" x2="177.232" y2="56.7238" gradientUnits="userSpaceOnUse">
<stop offset="0.02" stop-color="#E05215"/>
<stop offset="1" stop-color="#A73609"/>
</linearGradient>
<linearGradient id="paint33_linear_332_7473" x1="114.178" y1="115.719" x2="106.497" y2="73.4969" gradientUnits="userSpaceOnUse">
<stop offset="0.02" stop-color="#FFB374"/>
<stop offset="1" stop-color="#FF9577"/>
</linearGradient>
<linearGradient id="paint34_linear_332_7473" x1="137.653" y1="87.0546" x2="130.641" y2="48.5066" gradientUnits="userSpaceOnUse">
<stop offset="0.02" stop-color="#E05215"/>
<stop offset="1" stop-color="#A73609"/>
</linearGradient>
<linearGradient id="paint35_linear_332_7473" x1="126.598" y1="99.0476" x2="123.194" y2="80.3327" gradientUnits="userSpaceOnUse">
<stop offset="0.02" stop-color="#C23422"/>
<stop offset="1" stop-color="#A73609"/>
</linearGradient>
<linearGradient id="paint36_linear_332_7473" x1="156.355" y1="62.7494" x2="145.372" y2="2.37183" gradientUnits="userSpaceOnUse">
<stop stop-color="#C3041A"/>
<stop offset="1" stop-color="#FF3748"/>
</linearGradient>
<linearGradient id="paint37_linear_332_7473" x1="163.769" y1="47.1264" x2="155.299" y2="0.565331" gradientUnits="userSpaceOnUse">
<stop stop-color="#FFC4BA"/>
<stop offset="1" stop-color="#FFD9D6"/>
</linearGradient>
<linearGradient id="paint38_linear_332_7473" x1="112.552" y1="107.846" x2="108.397" y2="85.0047" gradientUnits="userSpaceOnUse">
<stop stop-color="white"/>
<stop offset="1" stop-color="#E5658E"/>
</linearGradient>
<linearGradient id="paint39_linear_332_7473" x1="148.291" y1="88.2541" x2="165.728" y2="85.0821" gradientUnits="userSpaceOnUse">
<stop stop-color="white"/>
<stop offset="1" stop-color="#E5658E"/>
</linearGradient>
<linearGradient id="paint40_linear_332_7473" x1="186.891" y1="88.1633" x2="196.155" y2="86.4781" gradientUnits="userSpaceOnUse">
<stop stop-color="white"/>
<stop offset="1" stop-color="#E5658E"/>
</linearGradient>
<linearGradient id="paint41_linear_332_7473" x1="115.834" y1="106.672" x2="112.091" y2="86.0935" gradientUnits="userSpaceOnUse">
<stop stop-color="white"/>
<stop offset="1" stop-color="#E5658E"/>
</linearGradient>
<linearGradient id="paint42_linear_332_7473" x1="186.144" y1="56.7253" x2="203.315" y2="53.6017" gradientUnits="userSpaceOnUse">
<stop offset="0.02" stop-color="#E05215"/>
<stop offset="1" stop-color="#A73609"/>
</linearGradient>
<linearGradient id="paint43_linear_332_7473" x1="156.436" y1="79.6761" x2="153.961" y2="66.0725" gradientUnits="userSpaceOnUse">
<stop stop-color="white"/>
<stop offset="1" stop-color="#E5658E"/>
</linearGradient>
<linearGradient id="paint44_linear_332_7473" x1="192.949" y1="81.4222" x2="189.946" y2="64.9168" gradientUnits="userSpaceOnUse">
<stop stop-color="white"/>
<stop offset="1" stop-color="#E5658E"/>
</linearGradient>
<linearGradient id="paint45_linear_332_7473" x1="193.518" y1="88.0297" x2="190.118" y2="69.3414" gradientUnits="userSpaceOnUse">
<stop stop-color="#F2DEF8"/>
<stop offset="1" stop-color="white"/>
</linearGradient>
<linearGradient id="paint46_linear_332_7473" x1="158.59" y1="89.3784" x2="155.006" y2="69.6785" gradientUnits="userSpaceOnUse">
<stop stop-color="#F2DEF8"/>
<stop offset="1" stop-color="white"/>
</linearGradient>
<linearGradient id="paint47_linear_332_7473" x1="174.511" y1="95.144" x2="190.218" y2="92.2868" gradientUnits="userSpaceOnUse">
<stop stop-color="white"/>
<stop offset="1" stop-color="#E5658E"/>
</linearGradient>
<linearGradient id="paint48_linear_332_7473" x1="161.526" y1="93.2987" x2="155.865" y2="62.1781" gradientUnits="userSpaceOnUse">
<stop stop-color="white"/>
<stop offset="1" stop-color="#E5658E"/>
</linearGradient>
<linearGradient id="paint49_linear_332_7473" x1="167.276" y1="106.885" x2="192.806" y2="102.241" gradientUnits="userSpaceOnUse">
<stop stop-color="#FFC2C4"/>
<stop offset="1" stop-color="#E5658E"/>
</linearGradient>
<linearGradient id="paint50_linear_332_7473" x1="171.876" y1="109.046" x2="177.892" y2="107.951" gradientUnits="userSpaceOnUse">
<stop stop-color="#B04C8E"/>
<stop offset="1" stop-color="#FFBDAC"/>
</linearGradient>
<linearGradient id="paint51_linear_332_7473" x1="168.562" y1="112.894" x2="193.16" y2="108.42" gradientUnits="userSpaceOnUse">
<stop stop-color="white"/>
<stop offset="1" stop-color="#E5658E"/>
</linearGradient>
<linearGradient id="paint52_linear_332_7473" x1="161.07" y1="117.997" x2="159.69" y2="110.41" gradientUnits="userSpaceOnUse">
<stop stop-color="white"/>
<stop offset="1" stop-color="#E5658E"/>
</linearGradient>
<linearGradient id="paint53_linear_332_7473" x1="178.704" y1="125.846" x2="177.704" y2="119.484" gradientUnits="userSpaceOnUse">
<stop stop-color="#F2DEF8"/>
<stop offset="1" stop-color="white"/>
</linearGradient>
<linearGradient id="paint54_linear_332_7473" x1="196.838" y1="93.2836" x2="190.339" y2="57.5575" gradientUnits="userSpaceOnUse">
<stop stop-color="white"/>
<stop offset="1" stop-color="#E5658E"/>
</linearGradient>
<linearGradient id="paint55_linear_332_7473" x1="188.077" y1="51.3134" x2="184.793" y2="33.2641" gradientUnits="userSpaceOnUse">
<stop stop-color="#FF273D"/>
<stop offset="1" stop-color="#FF3748"/>
</linearGradient>
<linearGradient id="paint56_linear_332_7473" x1="187.428" y1="54.842" x2="184.585" y2="39.2152" gradientUnits="userSpaceOnUse">
<stop stop-color="#C3041A"/>
<stop offset="1" stop-color="#FF3748"/>
</linearGradient>
<linearGradient id="paint57_linear_332_7473" x1="112.662" y1="73.0632" x2="132.947" y2="69.373" gradientUnits="userSpaceOnUse">
<stop stop-color="#A13D7F"/>
<stop offset="1" stop-color="white"/>
</linearGradient>
<linearGradient id="paint58_linear_332_7473" x1="105.691" y1="46.0593" x2="196.79" y2="29.4874" gradientUnits="userSpaceOnUse">
<stop stop-color="#E5658E"/>
<stop offset="1" stop-color="white"/>
</linearGradient>
<linearGradient id="paint59_linear_332_7473" x1="171.761" y1="132.746" x2="181.877" y2="130.906" gradientUnits="userSpaceOnUse">
<stop stop-color="white"/>
<stop offset="1" stop-color="#E5658E"/>
</linearGradient>
<linearGradient id="paint60_linear_332_7473" x1="129.871" y1="136.378" x2="169.191" y2="129.225" gradientUnits="userSpaceOnUse">
<stop stop-color="white"/>
<stop offset="1" stop-color="#E5658E"/>
</linearGradient>
<linearGradient id="paint61_linear_332_7473" x1="114.302" y1="451.384" x2="110.754" y2="301.512" gradientUnits="userSpaceOnUse">
<stop stop-color="#FFB595"/>
<stop offset="0.98" stop-color="#FFC2A9"/>
</linearGradient>
</defs>
</svg>
