<svg width="307" height="786" viewBox="0 0 307 786" fill="none" xmlns="http://www.w3.org/2000/svg">
<path d="M207.068 297.341C207.068 297.341 216.45 341.753 220.191 355.201C223.933 368.65 229.573 380.227 230.196 381.474C230.82 382.721 228 387.412 228 387.412L230.278 423.365L204.303 390.123C204.303 390.123 205.794 382.071 210.485 378.329C210.485 378.329 200.67 347.691 189.96 328.928C179.223 310.166 181.094 300.784 181.094 300.784C181.094 300.784 196.413 288.909 207.041 297.341H207.068Z" fill="#FFF0DD"/>
<path d="M223.663 488.135C223.663 488.135 236.755 498.442 219.565 503.133C202.375 507.824 204.327 493.03 204.327 493.03L167.398 436L204.327 390.151L230.085 420.111C230.085 420.111 234.423 424.721 233.962 427.459C233.501 430.198 230.302 435.837 230.302 435.837C230.302 435.837 229.922 449.746 230.302 455.332C230.681 460.917 225.888 470.336 225.888 470.336L223.663 488.135Z" fill="#FFF0DD"/>
<g style="mix-blend-mode:multiply">
<path d="M203.057 393.215C203.057 393.215 214.445 415.149 221.277 437.925C221.277 437.925 206.88 407.693 203.057 406.636C199.234 405.578 231.119 457.528 231.119 457.528C231.119 457.528 208.344 429.004 203.681 430.414C199.017 431.824 176.947 452.891 176.947 452.891L175.998 448.852L171.117 433.478C176.052 425.263 192.049 412.709 192.049 412.709L203.057 393.242V393.215Z" fill="#FFF0DD"/>
</g>
<path fill-rule="evenodd" clip-rule="evenodd" d="M243.926 740.925C243.926 740.925 243.188 741.211 241.877 741.744C233.886 744.899 204.342 757.151 188.566 770.797V764.486L183.936 763.954C183.936 763.954 184.468 746.415 180.371 738.22L186.968 722.854C186.968 722.854 168.036 677.123 175.044 625.738L192.295 594.104L189.426 590.416L192.295 584.27C192.295 584.27 173.814 492.194 158.612 460.97L149.146 463.715C149.146 463.715 133.124 537.843 101.08 591.236L87.1069 607.258C87.1069 607.258 67.397 664.789 59.5704 723.141L65.3072 730.107L59.5704 739.163V744.899C59.5704 744.899 34.0827 742.441 5.31686 760.102C5.31686 760.102 -0.58382 747.645 0.399628 745.842C1.3421 744.08 13.2664 731.746 13.2664 730.394C13.2664 729.738 12.242 728.713 11.1356 727.607C9.86531 726.378 8.51307 725.066 8.4721 724.083C8.34916 722.321 1.75187 639.998 33.0173 595.415C33.0173 595.415 49.4491 582.59 54.94 573.82L55.8825 568.002L58.7509 564.109L90.3851 446.997L87.9265 442.079L91.2456 418.559L92.393 410.65L92.4749 410.035C92.4749 410.035 97.9658 410.445 106.817 411.265C122.019 412.699 147.056 415.444 170.741 419.706H170.864C187.869 422.779 184.966 395.722 196.522 400.475C196.522 400.475 221.307 445.972 226.306 474.246C230.895 500.267 234.993 537.843 233.846 586.277L225.445 605.25C225.445 605.25 225.445 605.25 225.445 605.332L224.954 606.479C224.954 606.479 224.954 607.094 224.954 608.282C225.076 619.674 226.06 681.672 234.05 713.306C234.05 713.306 242.86 716.052 243.967 717.691L244.09 718.018C244.95 721.256 243.967 740.966 243.967 740.966L243.926 740.925Z" fill="#FFF0DD"/>
<path fill-rule="evenodd" clip-rule="evenodd" d="M188.606 770.797L185.328 784.77H304.079C304.079 784.77 305.923 776.329 299.982 766.085C299.982 766.085 277.076 770.347 241.999 741.704C241.999 741.704 205.079 753.136 188.647 770.797H188.606Z" fill="#FFF0DD"/>
<path fill-rule="evenodd" clip-rule="evenodd" d="M55.8801 744.818C55.8801 744.818 59.7729 755.431 75.1803 767.929V786H4.90474C4.90474 786 3.67543 775.837 7.97801 758.504C7.97801 758.504 25.4342 744.654 55.8391 744.777L55.8801 744.818Z" fill="#FFF0DD"/>
<path fill-rule="evenodd" clip-rule="evenodd" d="M279.288 763.258C279.288 763.258 270.232 767.519 268.593 778.214L187.623 774.936L185.328 784.77H304.079C304.079 784.77 306.825 775.469 299.982 766.085C299.982 766.085 287.238 766.29 279.288 763.258Z" fill="#FFF0DD"/>
<path fill-rule="evenodd" clip-rule="evenodd" d="M72.1892 765.388C72.1892 765.388 50.5124 749.817 9.41244 773.994L5.56061 770.797C5.56061 770.797 3.51176 779.689 4.864 786H75.1395V767.929L72.1482 765.388H72.1892Z" fill="#FFF0DD"/>
<g style="mix-blend-mode:multiply" opacity="0.6">
<path fill-rule="evenodd" clip-rule="evenodd" d="M17.9412 743.203C27.5298 738.532 65.3106 734.557 65.3106 734.557L59.5738 743.613V749.35C59.5738 749.35 34.0862 746.891 5.32031 764.552C13.8025 750.866 45.6007 743.203 45.6007 743.203H17.9412Z" fill="#FFF0DD"/>
</g>
<g style="mix-blend-mode:multiply" opacity="0.5">
<path fill-rule="evenodd" clip-rule="evenodd" d="M208.927 695.399C206.674 700.931 186.964 722.854 186.964 722.854C186.964 722.854 168.032 677.124 175.04 625.738L192.291 594.104L189.422 590.416L192.291 584.27C192.291 584.27 173.81 492.194 158.608 460.97L149.142 463.715C149.142 463.715 133.12 537.843 101.076 591.236L87.1029 607.258C87.1029 607.258 67.393 664.789 59.5664 723.141L53.8296 721.911L56.698 673.845L38.832 721.911C38.832 721.911 39.8565 698.882 49.3221 669.338C58.7878 639.794 78.2929 603.98 78.2929 603.98L74.4001 596.153L71.7365 581.975L78.1289 596.153H84.2755L98.6584 583.819C125.785 536.163 137.628 468.633 137.628 468.633C122.425 455.52 100.707 460.56 100.707 460.56L75.6294 520.55L90.422 467.526V446.956L87.9634 442.039L92.389 410.609L170.778 419.665H170.901C187.906 422.738 186.297 398.392 197.853 403.145C197.853 403.145 221.343 445.931 226.343 474.206L205.076 493.383C203.478 526.984 223.556 590.375 223.556 590.375L227.654 592.014L233.841 586.237L225.441 605.209C225.441 605.209 225.441 605.209 225.441 605.291C225.441 605.537 225.236 606.561 224.949 608.241C222.409 623.362 211.017 690.441 208.968 695.399H208.927Z" fill="#FFF0DD"/>
</g>
<g style="mix-blend-mode:multiply" opacity="0.6">
<path fill-rule="evenodd" clip-rule="evenodd" d="M241.96 741.704H241.878C233.887 744.9 204.343 757.152 188.566 770.797V764.487L183.936 763.954C183.936 763.954 184.469 746.416 180.371 738.221L186.968 722.854L183.403 732.443C183.403 732.443 217.947 723.961 217.086 728.345C216.267 732.73 190.779 753.013 190.779 753.013L194.918 754.653C216.554 742.605 242 741.704 242 741.704H241.96Z" fill="#FFF0DD"/>
</g>
<g style="mix-blend-mode:multiply" opacity="0.6">
<path fill-rule="evenodd" clip-rule="evenodd" d="M243.926 740.926C243.926 740.926 243.189 741.213 241.877 741.745C233.887 744.901 204.343 757.153 188.566 770.798V764.488L183.936 763.955C183.936 763.955 184.469 746.417 180.371 738.221L186.968 722.855C186.968 722.855 168.037 677.125 175.044 625.739L192.295 594.105L189.427 590.417L192.295 584.271C192.295 584.271 173.815 492.196 158.612 460.971L149.147 463.717L154.924 452.776L91.2461 418.56L106.817 411.266C122.02 412.7 147.057 415.446 170.741 419.707H170.864C187.87 422.78 180.072 385.488 191.628 390.241C191.628 390.241 221.143 444.973 226.306 474.248C230.896 500.268 234.993 537.844 233.846 586.279L225.446 605.251C225.446 605.251 225.446 605.251 225.446 605.333L224.954 606.48C224.954 606.48 224.954 607.095 224.954 608.283C225.077 619.675 226.06 681.673 234.051 713.307L205.08 723.183C205.08 723.183 235.239 722.281 244.008 717.692L244.131 718.02C244.992 721.257 244.008 740.967 244.008 740.967L243.926 740.926Z" fill="#FFF0DD"/>
</g>
<g style="mix-blend-mode:multiply" opacity="0.6">
<path fill-rule="evenodd" clip-rule="evenodd" d="M8.46875 724.084C8.46875 724.084 28.7524 721.338 35.3087 722.854L13.2631 730.394L8.46875 724.084Z" fill="#FFF0DD"/>
</g>
<g style="mix-blend-mode:multiply" opacity="0.5">
<path fill-rule="evenodd" clip-rule="evenodd" d="M75.1857 767.929L9.4586 773.994L5.60677 770.798L4.91016 786H75.1857V767.929Z" fill="#FFF0DD"/>
</g>
<g style="mix-blend-mode:multiply" opacity="0.5">
<path fill-rule="evenodd" clip-rule="evenodd" d="M291.336 784.77V776.985L268.593 778.214L187.623 774.936L185.328 784.77H291.336Z" fill="#FFF0DD"/>
</g>
<g style="mix-blend-mode:soft-light">
<path fill-rule="evenodd" clip-rule="evenodd" d="M75.5966 520.551C75.5966 520.551 65.1475 564.314 68.4257 573.165L78.0962 596.153H84.2428L98.6257 583.819C98.6257 583.819 130.137 523.952 137.595 468.633C137.595 468.633 122.474 455.233 100.675 460.56L75.5966 520.551Z" fill="#FFF0DD"/>
</g>
<g style="mix-blend-mode:soft-light">
<path fill-rule="evenodd" clip-rule="evenodd" d="M17.9414 738.753C17.9414 738.753 34.2093 723.305 38.8397 721.912C43.4701 720.518 59.615 723.141 59.615 723.141L65.3518 730.107C65.3518 730.107 40.3968 732.115 17.9824 738.753H17.9414Z" fill="#FFF0DD"/>
</g>
<g style="mix-blend-mode:soft-light">
<path fill-rule="evenodd" clip-rule="evenodd" d="M234.01 713.265L205.039 723.141C205.039 723.141 234.624 722.526 243.967 717.65C243.967 717.65 241.14 714.659 234.051 713.265H234.01Z" fill="#FFF0DD"/>
</g>
<g style="mix-blend-mode:multiply" opacity="0.6">
<path fill-rule="evenodd" clip-rule="evenodd" d="M198.396 784.852C198.396 784.852 210.444 769.24 224.458 767.929C238.472 766.618 267.77 784.77 267.77 784.77L198.355 784.852H198.396Z" fill="#FFF0DD"/>
</g>
<g style="mix-blend-mode:multiply" opacity="0.5">
<path fill-rule="evenodd" clip-rule="evenodd" d="M16.5865 639.015C16.5865 639.015 7.07988 677.001 14.4967 697.038C21.0121 714.7 30.109 719.412 30.109 719.412C30.109 719.412 15.1524 720.027 12.6118 715.806C10.0712 711.585 5.23592 674.542 16.6275 639.015H16.5865Z" fill="#FFF0DD"/>
</g>
<path d="M133.287 117.904L131.389 133.982C129.491 134.28 127.702 134.362 126.102 134.307C119.188 134.145 114.985 131.569 114.985 131.569C118.646 136.124 125.343 135.256 125.343 135.256C125.343 135.256 113.142 143.336 106.851 134.497C100.588 125.631 98.1208 108.902 98.1208 108.902C94.2978 123.57 78.7617 124.791 78.7617 124.791C96.0602 115.111 100.615 98.9513 100.615 98.9513L126.021 103.154L133.314 117.877L133.287 117.904Z" fill="#FFF0DD"/>
<g style="mix-blend-mode:multiply">
<path d="M126.071 134.307C119.157 134.145 114.954 131.569 114.954 131.569C118.615 136.124 125.312 135.256 125.312 135.256C125.312 135.256 110.806 140.272 107.959 132.084C105.112 123.95 106.143 109.824 106.143 109.824L121.95 108.468C128.511 114.623 134.585 121.049 128.864 134.253L126.071 134.307Z" fill="#FFF0DD"/>
</g>
<path d="M127.213 147.078C127.213 147.078 96.2764 153.883 71.8742 156.459C47.472 159.035 38.5788 153.883 38.5788 153.883C38.5788 153.883 13.7157 188.833 16.7524 244.66H21.199C21.199 244.66 19.0842 275.867 18.3792 300.486L14.3935 303.062C14.3935 303.062 9.70287 320.415 8.29297 336.141L10.6247 337.307C10.6247 337.307 14.6104 363.824 23.9917 385.867C23.9917 385.867 78.1646 388.687 108.206 385.867C138.221 383.047 145.948 381.176 145.948 381.176L127.186 147.105L127.213 147.078Z" fill="#FFF0DD"/>
<path d="M57.2578 386.951C57.2578 386.951 60.6741 225.029 76.1831 192.086L123.849 188.399L121.381 361.464L98.3891 385.867L57.2578 386.978V386.951Z" fill="#FFF0DD"/>
<path d="M38.5779 153.883C38.5779 153.883 73.3646 166.708 82.9086 174.869L130.981 154.941L131.686 145.532C131.686 145.532 111.513 150.548 85.8639 154.29C60.2145 158.032 38.5508 153.91 38.5508 153.91L38.5779 153.883Z" fill="#FFF0DD"/>
<path d="M193.944 191.652C193.944 191.652 199.882 206.348 203 222.914C206.118 239.481 215.743 292.352 215.743 292.352L190.473 294.548C190.473 294.548 187.979 208.544 193.917 191.652H193.944Z" fill="#FFF0DD"/>
<path d="M130.336 112.779C130.336 112.779 126.838 141.465 126.079 147.701C125.293 153.965 115.613 159.279 115.613 159.279C115.613 159.279 125.455 185.389 145.004 188.372C164.553 191.354 164.228 167.576 164.228 167.576C164.228 167.576 155.308 157.733 155.009 155.375C154.711 153.016 155.172 145.993 155.172 145.993C155.172 145.993 139.311 130.864 130.336 112.779Z" fill="#FFF0DD"/>
<path d="M207.683 380.227C196.73 418.051 170.158 440.257 137.324 449.34C104.489 458.423 82.5241 454.979 82.5241 453.109C82.5241 451.238 87.2148 448.716 87.2148 448.716C87.2148 448.716 89.1701 421.196 91.6645 402.732C94.159 384.294 105.438 345.983 102.13 322.991C98.8496 300.025 54.5189 197.997 62.9513 188.616C71.3836 179.262 109.858 160.662 109.858 160.662C109.858 160.662 110.563 155.049 112.189 154.914C113.843 154.778 117.694 157.923 117.694 157.923C117.694 157.923 136.212 189.727 151.531 185.525C166.85 181.295 160.343 163.102 160.343 163.102C161.265 160.58 162.024 159.577 162.648 159.523C162.783 159.469 162.919 159.523 163.055 159.604C164.519 160.445 165.088 166.139 165.088 166.139C165.793 166.708 166.525 167.305 167.257 167.955C178.13 176.984 193.855 191.653 193.855 191.653C192.907 200.708 189.788 281.073 192.012 303.279C194.181 325.485 197.624 368.812 197.624 368.812C197.624 368.812 201.203 366.318 202.613 367.403C204.023 368.487 203.562 377.407 203.562 377.407C203.562 377.407 205.596 372.88 207.629 372.88C209.663 372.88 207.629 380.227 207.629 380.227H207.683Z" fill="#FFF0DD"/>
<g style="mix-blend-mode:multiply" opacity="0.5">
<path d="M113.113 175.384C113.113 175.384 131.55 196.939 142.559 202.254C153.567 207.568 184.341 211.825 184.341 211.825C184.341 211.825 158.366 211.527 142.559 207.432C126.751 203.338 114.333 189.51 114.333 189.51L113.113 175.384Z" fill="#FFF0DD"/>
</g>
<g style="mix-blend-mode:multiply" opacity="0.5">
<path d="M104.52 299.591C104.52 299.591 113.63 275.786 116.911 271.366C120.192 266.947 145.977 248.021 145.977 248.021C145.977 248.021 117.453 260.439 112.762 265.13C108.072 269.821 102.27 299.374 102.27 299.374L104.52 299.564V299.591Z" fill="#FFF0DD"/>
</g>
<path d="M169.621 169.88L171.492 167.494C171.492 167.494 183.53 177.825 191.746 178.747C191.746 178.747 212.379 217.763 191.746 254.285C191.746 254.285 198.389 204.559 172.739 174.056L169.621 169.88Z" fill="#FFF0DD"/>
<g style="mix-blend-mode:multiply">
<path d="M58.9117 345.739C58.9117 345.739 57.8814 368.324 57.2578 386.951L94.7287 386.192C94.7287 386.192 101.236 357.235 102.266 344.573C103.297 331.911 101.073 323.235 101.073 323.235L86.6489 334.975C86.6489 334.975 69.947 338.228 58.9117 345.766V345.739Z" fill="#FFF0DD"/>
</g>
<g style="mix-blend-mode:multiply">
<path d="M8.32031 336.113H41.7784L47.5807 307.671H55.0641L53.9795 386.897L47.2554 386.734L46.93 325.648L45.3845 338.011L10.6521 337.306L8.32031 336.113Z" fill="#FFF0DD"/>
</g>
<g style="mix-blend-mode:multiply">
<path d="M171.492 167.494C171.492 167.494 182.88 179.994 189.956 191.653C197.06 203.311 194.213 234.573 194.213 234.573L191.936 237.366C191.936 237.366 189.143 212.042 184.344 196.804C179.545 181.566 169.621 169.88 169.621 169.88L171.492 167.494Z" fill="#FFF0DD"/>
</g>
<path d="M85.5912 337.062C74.7729 353.981 57.2305 363.363 57.2305 363.363V345.847C57.2305 345.847 80.6024 328.359 95.6775 298.67C100.639 288.882 104.652 277.792 106.686 265.564C114.82 216.163 89.1431 172.293 89.1431 172.293L85.5912 173.378L86.8656 165.407C86.8656 165.407 99.2565 164.946 104.516 161.285C104.516 161.285 120.622 180.644 123.469 213.479C126.289 246.313 96.3824 320.171 85.5912 337.062Z" fill="#FFF0DD"/>
<g style="mix-blend-mode:multiply">
<path d="M51.9191 244.659L31.6924 299.591L24.426 302.981L21.2266 336.141L28.493 337.686L47.1471 362.115L57.2876 386.978L58.0196 362.685C58.0196 362.685 76.4569 353.005 85.6484 337.062L51.9733 244.659H51.9191Z" fill="#FFF0DD"/>
</g>
<g style="mix-blend-mode:multiply">
<path d="M46.117 308.811C46.117 308.811 45.5888 306.679 51.4566 322.605C54.5715 331.06 59.2436 334.619 63.9159 339.959C67.0307 343.519 75.1777 356.92 80.8248 360.873C89.7243 367.102 111.748 381.531 116.868 390.686C121.987 399.84 116.868 453.872 116.868 453.872L144.901 447.642L149.553 393.9L98.0353 329.332C98.0353 329.332 86.7584 332.607 72.6662 333.127C58.574 333.646 67.0306 311.036 67.0306 311.036L46.117 308.811Z" fill="#FFF0DD"/>
</g>
<path d="M45.3867 307.671C45.3867 307.671 80.7157 315.182 104.332 284.381C104.332 284.381 82.4509 279.229 45.3867 307.671Z" fill="#FFF0DD"/>
<path d="M62.9834 188.616C62.9834 188.616 60.4076 193.198 55.3916 221.043C50.3756 248.889 45.3867 307.671 45.3867 307.671C45.3867 307.671 73.8559 286.414 104.332 284.381C104.332 284.381 101.349 271.719 104.332 242.951C107.314 214.184 76.8113 185.606 62.9834 188.643V188.616Z" fill="#FFF0DD"/>
<g style="mix-blend-mode:multiply">
<path d="M113.114 240.267C113.222 270.418 99.3674 299.158 99.3674 299.158L95.7071 298.616C100.669 288.828 104.682 277.738 106.715 265.51C114.849 216.109 86.597 173.026 86.597 173.026L85.5938 173.324L86.8681 165.352C86.8681 165.352 113.006 210.09 113.087 240.24L113.114 240.267Z" fill="#FFF0DD"/>
</g>
<path d="M76.1857 178.855C76.1857 178.855 66.9671 166.301 41.6431 164.431C41.6431 164.431 21.4706 188.345 21.2266 244.66C21.2266 244.66 27.3271 204.45 40.2332 182.027C40.2332 182.027 53.8442 172.05 54.766 174.869C55.715 177.689 54.6033 185.389 57.2605 185.389C59.9176 185.389 62.9543 188.616 62.9543 188.616L76.1586 178.855H76.1857Z" fill="#FFF0DD"/>
<g style="mix-blend-mode:multiply" opacity="0.5">
<path d="M150.449 195.855C130.954 195.855 109.887 160.662 109.887 160.662C109.887 160.662 110.592 155.049 112.218 154.914C113.872 154.778 117.723 157.923 117.723 157.923C117.723 157.923 136.241 189.727 151.56 185.525C166.879 181.295 160.372 163.102 160.372 163.102C161.294 160.58 162.053 159.577 162.677 159.523C162.867 159.577 163.029 159.604 163.084 159.604C163.951 159.496 166.256 164.431 166.256 164.431C166.256 164.431 166.717 165.786 167.286 167.955C169.428 175.927 165.741 195.855 150.421 195.855H150.449Z" fill="#FFF0DD"/>
</g>
<path d="M45.3867 307.671V298.643C45.3867 298.643 76.8113 274.783 103.328 276.057L104.332 284.381C104.332 284.381 71.0361 289.532 45.3867 307.671Z" fill="#FFF0DD"/>
<g style="mix-blend-mode:multiply">
<path d="M128.863 123.706C128.863 123.706 130.788 176.957 154.973 155.375L155.136 145.993C155.136 145.993 139.275 139.106 130.3 112.779L128.836 123.706H128.863Z" fill="#FFF0DD"/>
</g>
<g style="mix-blend-mode:multiply" opacity="0.8">
<path d="M160.372 163.129C160.372 163.129 161.159 178.34 153.621 184.847C153.621 184.847 167.774 179.641 160.372 163.129Z" fill="#FFF0DD"/>
</g>
<g style="mix-blend-mode:multiply" opacity="0.5">
<path d="M103.323 276.057C103.323 276.057 104.597 253.092 104.543 238.803C104.489 224.514 92.1523 198.702 92.1523 198.702C92.1523 198.702 108.664 213.94 109.912 231.781C111.159 249.594 103.35 276.084 103.35 276.084L103.323 276.057Z" fill="#FFF0DD"/>
</g>
<g style="mix-blend-mode:multiply" opacity="0.5">
<path d="M196.868 358.835C196.868 358.835 183.907 381.61 168.588 388.036C153.269 394.435 133.72 390.232 126.996 386.951C126.996 386.951 138.248 393.676 154.679 393.188C171.11 392.727 192.231 379.875 197.681 368.812L196.868 358.835Z" fill="#FFF0DD"/>
</g>
<g style="mix-blend-mode:multiply" opacity="0.5">
<path d="M203.678 372.717C203.678 372.717 197.36 388.605 179.221 406.609C161.082 424.612 123.828 432.746 123.828 432.746C123.828 432.746 151.999 431.336 169.677 421.657C187.355 411.95 191.558 394.76 195.95 388.361C200.315 381.962 203.623 377.407 203.623 377.407L203.678 372.717Z" fill="#FFF0DD"/>
</g>
<g style="mix-blend-mode:multiply" opacity="0.5">
<path d="M87.2188 448.716C87.2188 448.716 103.598 454.491 124.666 450.587C145.706 446.683 156.877 437.925 156.877 437.925C156.877 437.925 118.047 452.458 87.2188 446.683V448.716Z" fill="#FFF0DD"/>
</g>
<g style="mix-blend-mode:multiply">
<path d="M51.4264 314.992C51.4264 314.992 64.1427 290.861 86.6741 298.642V288.095C86.6741 288.095 65.634 294.982 50.125 304.526L51.4264 314.992Z" fill="#FFF0DD"/>
</g>
<g style="mix-blend-mode:multiply" opacity="0.3">
<path d="M66.3398 191.652L67.6684 295.145L83.4485 289.18L66.3398 191.652Z" fill="#FFF0DD"/>
</g>
<g style="mix-blend-mode:multiply" opacity="0.5">
<path d="M107.613 362.089C107.613 362.089 123.637 377.625 142.047 381.881C160.458 386.165 169.622 381.881 169.622 381.881C169.622 381.881 159.59 388.199 142.047 384.593C124.505 380.987 107.613 362.089 107.613 362.089Z" fill="#FFF0DD"/>
</g>
<g style="mix-blend-mode:multiply" opacity="0.5">
<path d="M54.7654 174.869C54.7654 174.869 45.3841 183.871 42.5643 193.605C39.7445 203.366 34.132 234.302 36.4638 237.366C38.7955 240.43 56.1753 193.361 55.9313 188.399C55.6873 183.437 54.7654 174.869 54.7654 174.869Z" fill="#FFF0DD"/>
</g>
<g style="mix-blend-mode:multiply" opacity="0.5">
<path d="M58.9922 338.933C58.9922 338.933 68.6717 334.242 74.8536 332.697C81.0355 331.124 98.8491 334.026 98.8491 334.026C98.8491 334.026 66.6653 343.325 58.9922 338.96V338.933Z" fill="#FFF0DD"/>
</g>
<path d="M199.391 51.8009C198.713 54.9461 192.477 76.5827 193.697 85.8826V86.0995C194.944 95.291 195.947 101.934 196.164 109.905C196.246 112.806 194.483 118.527 191.745 124.763C186.973 135.717 179.11 148.271 172.874 149.599C172.25 149.735 171.572 149.816 170.813 149.816C159.995 150.142 137.735 138.754 127.187 121.266C125.859 119.07 124.72 116.819 123.69 114.515C123.663 114.515 123.663 114.46 123.663 114.46C116.044 97.1348 116.179 77.2605 112.682 63.8122C108.696 48.5744 122.307 21.0812 142.913 13.7606C163.492 6.43992 181.957 10.9408 181.957 10.9408C181.957 10.9408 193.561 40.603 198.415 46.4324C198.415 46.4324 200.096 48.6557 199.391 51.828V51.8009Z" fill="#FFF0DD"/>
<path d="M174.255 51.9093C174.255 51.9093 172.628 57.6032 170.215 60.0434C170.215 60.0434 162.434 60.0434 153.432 62.104C144.43 64.1646 141.285 66.6591 141.285 66.6591C141.285 66.6591 145.081 59.9349 151.344 56.7898C157.608 53.6717 174.255 51.9093 174.255 51.9093Z" fill="#FFF0DD"/>
<path d="M119.403 82.6287C119.403 82.6287 110.591 72.5424 102.023 73.166C93.4822 73.7625 90.9877 91.6304 97.5763 101.635C104.165 111.64 116.664 114.84 118.4 113.809C120.108 112.779 123.524 105.241 123.524 105.241L119.403 82.6287Z" fill="#FFF0DD"/>
<path d="M150.101 43.7482C150.101 43.7482 134.32 70.6177 123.773 79.05L122.96 88.5669C122.96 88.5669 116.914 79.3754 110.867 75.5252L111.545 64.4087C111.545 64.4087 134.158 48.7099 150.101 43.7211V43.7482Z" fill="#FFF0DD"/>
<path d="M118.289 82.0869L123.766 79.0501C123.766 79.0501 124.146 89.0008 126.396 93.5017L123.495 98.4906C123.495 98.4906 121.055 86.8046 118.289 82.0869Z" fill="#FFF0DD"/>
<path d="M111.213 69.7771C111.213 69.7771 101.099 41.8502 101.533 32.8756C101.967 23.901 130.87 3.70141 130.87 3.70141C130.87 3.70141 168.26 0.312216 177.668 4.81307C187.076 9.31391 197.705 39.5455 197.705 39.5455C197.705 39.5455 162.972 39.1388 143.695 47.1102C124.39 55.0816 111.213 69.8042 111.213 69.8042V69.7771Z" fill="#FFF0DD"/>
<path d="M104.9 50.2282C104.9 50.2282 91.696 45.5918 79.2238 49.7673C79.2238 49.7673 76.2142 56.0848 81.7996 57.9827C81.7996 57.9827 96.6036 54.6206 107.503 58.7961L104.9 50.2282Z" fill="#FFF0DD"/>
<path d="M126.179 7.11759C126.179 7.11759 124.579 1.69488 125.094 1.1255C125.582 0.556112 128.89 -0.284408 130.761 0.0951816C132.605 0.474771 134.286 3.10479 134.286 3.10479L130.897 3.70128L126.206 7.14471L126.179 7.11759Z" fill="#FFF0DD"/>
<path d="M130.875 3.7014C130.875 3.7014 120.735 16.0381 120.762 21.4337C120.789 26.8293 133.668 51.3941 133.668 51.3941C133.668 51.3941 161.297 33.1196 195.026 31.0319C195.026 31.0319 184.397 6.33141 177.239 3.7014C170.081 1.07138 144.432 1.04427 130.875 3.7014Z" fill="#FFF0DD"/>
<path d="M141.77 25.365C141.77 25.365 166.633 10.0187 184.745 14.1128L190.845 24.9311C190.845 24.9311 171.405 24.7142 146.053 35.5597L141.77 25.365Z" fill="#FFF0DD"/>
<g style="mix-blend-mode:multiply" opacity="0.5">
<path d="M119.809 96.6195C119.809 96.6195 114.061 85.6385 106.306 84.7708C98.5519 83.9032 95.4609 89.8411 95.4609 89.8411C95.4609 89.8411 97.9554 86.7501 104.49 86.6417C104.49 86.6417 104.083 93.393 105.032 99.3037C105.981 105.214 111.078 107.628 113.031 106.543C114.983 105.486 109.533 95.7518 111.566 93.2303C113.6 90.7087 119.809 96.6195 119.809 96.6195Z" fill="#FFF0DD"/>
</g>
<g style="mix-blend-mode:multiply" opacity="0.5">
<path d="M145.051 82.3308C145.051 82.3308 148.25 90.3836 156.303 90.8174C164.356 91.2512 162.756 80.3787 162.756 80.3787L145.051 82.3308Z" fill="#FFF0DD"/>
</g>
<g style="mix-blend-mode:multiply" opacity="0.5">
<path d="M183.879 83.0356C183.879 83.0356 186.807 90.8443 190.576 90.8985C194.345 90.9527 193.531 83.3609 193.531 83.3609L183.879 83.0356Z" fill="#FFF0DD"/>
</g>
<g style="mix-blend-mode:multiply" opacity="0.5">
<path d="M109.022 85.5028C109.022 85.5028 104.494 87.9701 104.575 95.2365C104.657 102.503 110.025 107.085 112.33 106.19C114.634 105.296 109.374 95.1552 111.571 93.2572C113.767 91.3864 118.701 95.6704 118.701 95.6704C118.701 95.6704 114.797 87.7532 109.022 85.5028Z" fill="#FFF0DD"/>
</g>
<path d="M185.207 63.0258C185.207 63.0258 186.915 57.8742 198.411 55.5696C198.411 55.5696 201.041 49.6317 199.794 45.7545C199.794 45.7545 190.277 48.5201 185.207 63.0258Z" fill="#FFF0DD"/>
<g style="mix-blend-mode:multiply" opacity="0.5">
<path d="M144.324 80.731C144.324 80.731 147.578 69.1806 160.538 63.7037L162.138 67.2284L144.324 80.731Z" fill="#FFF0DD"/>
</g>
<g style="mix-blend-mode:multiply">
<path d="M197.249 60.8566C197.249 60.8566 186.431 62.5918 167.994 64.4355C149.557 66.2793 131.391 53.4545 131.391 53.4545C131.391 53.4545 148.879 42.3109 162.002 37.9727C175.125 33.6345 192.342 37.8643 192.342 37.8643L198.415 46.405C198.415 46.405 202.401 43.4768 197.249 60.8294V60.8566Z" fill="#FFF0DD"/>
</g>
<g style="mix-blend-mode:multiply" opacity="0.5">
<path d="M183.578 82.0049C183.578 82.0049 183.062 69.4784 194.884 62.8627L194.45 67.472L183.578 82.0049Z" fill="#FFF0DD"/>
</g>
<path d="M183.581 81.0564C183.12 83.8491 187.431 88.6211 190.305 87.4552C193.206 86.2893 194.942 76.3929 194.454 67.4725C194.454 67.4725 185.859 67.3641 183.581 81.0564Z" fill="#FFF0DD"/>
<path d="M162.274 84.0116C159.752 89.0819 149.232 93.176 144.352 80.7038C144.352 80.7038 149.313 69.3161 162.165 67.2012C162.165 67.2012 166.693 75.1184 162.301 83.9845L162.274 84.0116Z" fill="#FFF0DD"/>
<mask id="mask0_335_41299" style="mask-type:luminance" maskUnits="userSpaceOnUse" x="183" y="67" width="12" height="21">
<path d="M183.585 81.0564C183.124 83.8491 187.435 88.621 190.309 87.4552C193.21 86.2893 194.945 76.3928 194.457 67.4725C194.457 67.4725 185.862 67.364 183.585 81.0564Z" fill="white"/>
</mask>
<g mask="url(#mask0_335_41299)">
<path d="M189.929 82.8733C189.929 82.8733 187.218 73.7089 194.43 67.2288C194.43 67.2288 196.68 78.5351 194.43 81.7345C192.207 84.9339 189.902 82.8733 189.902 82.8733H189.929Z" fill="#FFF0DD"/>
<g style="mix-blend-mode:multiply">
<path d="M191.61 83.524C191.61 83.524 189.306 75.0104 194.864 69.6961C194.864 69.6961 196.057 76.6101 195.271 79.7281C194.484 82.8191 192.424 83.6867 191.61 83.524Z" fill="#FFF0DD"/>
</g>
</g>
<path d="M183.992 78.9687C183.992 78.9687 186.134 70.1568 194.404 68.5028L197.441 65.9542C197.441 65.9542 187.083 64.951 183.992 78.9687Z" fill="#FFF0DD"/>
<path d="M162.816 68.6924L164.904 64.9779C164.904 64.9779 149.72 67.4994 144.352 80.7037C144.352 80.7037 149.232 72.0003 162.843 68.6653L162.816 68.6924Z" fill="#FFF0DD"/>
<mask id="mask1_335_41299" style="mask-type:luminance" maskUnits="userSpaceOnUse" x="144" y="67" width="21" height="22">
<path d="M162.274 84.0116C159.752 89.0818 149.232 93.1759 144.352 80.7037C144.352 80.7037 149.313 69.316 162.165 67.2012C162.165 67.2012 166.693 75.1183 162.301 83.9844L162.274 84.0116Z" fill="white"/>
</mask>
<g mask="url(#mask1_335_41299)">
<path d="M158.663 87.7533C158.663 87.7533 155.165 73.1391 163.571 70.4277C163.571 70.4277 168.505 83.1711 158.663 87.7533Z" fill="#FFF0DD"/>
<g style="mix-blend-mode:multiply">
<path d="M164.169 72.1358C164.169 72.1358 157.987 76.2299 160.888 86.3704C160.888 86.3704 166.311 82.4389 164.169 72.1358Z" fill="#FFF0DD"/>
</g>
</g>
<path d="M153.566 80.3511C153.566 80.3511 157.281 80.1884 158.149 82.9269C158.149 82.9269 155.437 83.7132 153.566 80.3511Z" fill="#FFF0DD"/>
<path d="M187.293 80.1887C187.293 80.1887 189.706 80.1074 190.275 81.9782C190.275 81.9782 188.622 82.2222 187.293 80.1887Z" fill="#FFF0DD"/>
<g style="mix-blend-mode:multiply" opacity="0.3">
<path d="M189.112 97.7309C189.112 97.7309 183.228 94.0164 175.745 95.2636C168.262 96.4837 173.549 87.6176 182.144 86.3432C182.144 86.3432 183.039 92.1184 189.112 97.7309Z" fill="#FFF0DD"/>
</g>
<g style="mix-blend-mode:multiply" opacity="0.5">
<path d="M170.211 60.0432C170.211 60.0432 168.665 83.5235 163.297 89.7596C157.928 95.9957 148.818 92.3083 142.853 85.6926C136.888 79.0769 141.281 66.6317 141.281 66.6317C141.281 66.6317 152.099 58.9044 170.211 60.016V60.0432Z" fill="#FFF0DD"/>
</g>
<g style="mix-blend-mode:multiply" opacity="0.5">
<path d="M170.917 98.0565C170.917 98.0565 168.07 100.361 166.904 103.208C165.738 106.028 168.585 108.495 171.839 106.733C175.093 104.943 176.34 105.215 175.96 106.516C175.608 107.817 177.533 109.254 182.278 109.119C187.023 108.983 191.713 104.672 190.303 100.144C190.303 100.144 193.015 108.116 182.115 110.203C171.242 112.291 169.426 107.628 165.684 106.109C161.942 104.591 170.89 98.0565 170.89 98.0565H170.917Z" fill="#FFF0DD"/>
</g>
<g style="mix-blend-mode:multiply" opacity="0.5">
<path d="M169.562 108.007C169.562 108.007 173.141 105.838 174.768 106.109C176.395 106.38 175.256 108.414 173.575 109.119C171.894 109.824 169.562 108.034 169.562 108.034V108.007Z" fill="#FFF0DD"/>
</g>
<g style="mix-blend-mode:multiply" opacity="0.5">
<path d="M164.875 104.401C164.875 104.401 165.716 105.242 172.141 104.916C179.543 104.537 184.749 105.323 190.226 103.886C190.226 103.886 186.62 117.524 180.031 117.768C171.382 118.066 164.875 104.401 164.875 104.401Z" fill="#FFF0DD"/>
</g>
<g style="mix-blend-mode:multiply">
<path d="M157.555 112.047C157.555 112.047 165.77 118.527 175.504 120.262C180.059 121.076 185.319 119.91 186.919 118.5C188.491 117.09 190.606 115.219 190.606 115.219C190.606 115.219 186.837 119.015 186.132 119.937C185.427 120.859 180.772 128.733 176.542 128.543C172.286 128.354 164.686 118.337 162.245 116.629C159.805 114.921 157.582 112.047 157.582 112.047H157.555Z" fill="#FFF0DD"/>
</g>
<g style="mix-blend-mode:multiply" opacity="0.5">
<path d="M160.886 109.227C160.886 109.227 157.307 112.21 155.491 117.931C155.491 117.931 154.46 114.813 155.057 112.074C155.681 109.309 160.886 109.227 160.886 109.227Z" fill="#FFF0DD"/>
</g>
<path d="M168.46 119.935C168.46 119.935 173.123 122.298 175.501 122.627C177.852 122.982 183.07 121.426 183.07 121.426C183.07 121.426 179.288 125.294 175.655 125.261C172.049 125.229 168.461 119.908 168.461 119.908L168.46 119.935Z" fill="#FFF0DD"/>
<path d="M172.218 121.626L165.457 117.422L169.013 120.681L172.218 121.626Z" fill="#FFF0DD"/>
<path d="M182.623 121.849L186.158 119.194L181.866 121.749L182.623 121.849Z" fill="#FFF0DD"/>
<g style="mix-blend-mode:multiply" opacity="0.5">
<path d="M185.209 63.0259C185.209 63.0259 182.118 77.5317 182.687 84.5812C183.257 91.6307 194.59 92.9322 194.536 92.5526C194.482 92.173 193.126 83.6593 193.804 78.2637C194.482 72.8953 198.413 55.5697 198.413 55.5697C198.413 55.5697 189.384 53.8073 185.209 63.0259Z" fill="#FFF0DD"/>
</g>
<path d="M133.777 52.0176C133.777 52.0176 162.952 53.8613 173.092 49.3876C183.232 44.9139 204.896 34.7734 218.48 33.4991C232.064 32.2247 236.592 41.3078 236.592 41.3078C236.592 41.3078 232.688 33.6618 219.022 31.2215C205.791 31.2758 193.698 31.0046 193.698 31.0046C193.698 31.0046 155.034 33.7431 133.777 52.0176Z" fill="#FFF0DD"/>
<path d="M198.843 47.1372C198.843 47.1372 217.958 48.0862 235.501 44.8868C235.501 44.8868 229.915 34.3125 213.945 34.665C197.948 35.0175 193.719 40.5757 193.719 40.5757L198.87 47.1372H198.843Z" fill="#FFF0DD"/>
<path d="M236.564 41.3076L235.479 44.9137C235.479 44.9137 226.586 31.4382 205.383 36.7254C184.18 42.0125 182.255 49.3603 171.03 53.2104C159.805 57.0877 131.363 53.4544 131.363 53.4544L133.641 51.4209C133.641 51.4209 157.907 52.6681 167.424 49.9839C176.941 47.2997 195.975 34.7732 214.114 32.7397C232.253 30.7062 236.564 41.2804 236.564 41.2804V41.3076Z" fill="#FFF0DD"/>
<g style="mix-blend-mode:multiply" opacity="0.5">
<path d="M114.798 78.3449C114.798 78.3449 125.156 72.5426 129.386 61.9683C129.386 61.9683 121.116 71.9461 110.84 75.5251L114.771 78.3177L114.798 78.3449Z" fill="#FFF0DD"/>
</g>
<g style="mix-blend-mode:multiply" opacity="0.5">
<path d="M180.408 6.00586C180.408 6.00586 139.955 9.99155 120.732 21.4335C101.508 32.8754 101.915 37.6474 101.915 37.6474C101.915 37.6474 106.199 56.1117 111.188 69.7769C111.188 69.7769 125.937 57.0878 135.292 50.3636C144.646 43.6395 168.126 32.4687 194.996 31.0317C194.996 31.0317 186.97 11.4828 180.408 6.00586Z" fill="#FFF0DD"/>
</g>
<g style="mix-blend-mode:multiply" opacity="0.5">
<path d="M172.439 134.795L179.949 132.002C179.949 132.002 177.455 132.002 171.463 129.427C165.471 126.851 172.439 134.795 172.439 134.795Z" fill="#FFF0DD"/>
</g>
<g style="mix-blend-mode:multiply" opacity="0.5">
<path d="M170.784 149.843C159.965 150.169 137.705 138.781 127.158 121.293C125.829 119.096 124.69 116.846 123.66 114.541C124.392 115.518 133.584 129.996 146.734 137.886C158.881 145.153 169.265 149.301 170.784 149.87V149.843Z" fill="#FFF0DD"/>
</g>
<path d="M87.059 304.923C87.059 304.923 100.2 331.682 115.605 347.144C131.011 362.605 144.061 369.073 146.134 369.854C148.208 370.68 152.247 376.923 155.635 387.073C159.683 399.262 168.934 416.968 169.316 420.194C169.321 420.413 169.326 420.588 169.329 420.719C165.529 433.793 166.426 442.166 166.426 442.166C166.426 442.166 165.101 445.257 161.514 445.211C158.41 445.197 156.308 441.356 156.308 441.356L154.62 447.604C151.694 453.269 141.845 449.087 141.845 449.087C133.156 449.555 133.675 443.772 133.675 443.772C133.675 443.772 126.885 443.189 126.755 437.684C126.624 432.178 128.384 425.229 127.37 421.187C127.077 419.883 126.784 418.622 126.492 417.361C126.491 417.317 126.49 417.273 126.49 417.273C124.098 406.706 122.362 396.167 121 388.505C120.037 382.932 119.24 378.798 118.46 377.242C116.571 373.177 86.1888 362.18 74.4375 351.485C64.7865 342.707 55.5144 324.084 52.0615 316.733C51.9679 316.473 51.8785 316.388 51.8785 316.388C51.2326 314.961 50.8166 314.009 50.6793 313.75C49.9835 312.061 50.5709 304.806 50.5709 304.806C74.5381 290.005 90.1735 287.453 90.1735 287.453L87.059 304.923Z" fill="#FFF0DD"/>
<path d="M142.365 439.806C143.289 441.883 141.457 447.61 141.457 447.61C139.13 449.02 135.862 445.775 135.862 445.775C137.306 442.156 141.398 437.731 142.365 439.806Z" fill="#FFF0DD"/>
<g style="mix-blend-mode:multiply">
<path d="M144.703 412.908C145.439 416.3 148.977 425.397 148.848 427.324C148.719 429.251 142.648 446.139 141.799 449.044C142.654 442.685 147.769 429.754 147.493 427.356C146.998 423.04 144.747 412.907 144.747 412.907L144.703 412.908Z" fill="#FFF0DD"/>
</g>
<g style="mix-blend-mode:multiply">
<path d="M138.448 431.068C138.448 431.068 137.266 419.948 135.011 415.149C135.011 415.149 138.289 422.503 139.598 429.773C139.598 429.773 137.496 438.873 138.219 443.577C138.943 448.282 133.631 443.686 133.631 443.686C133.631 443.686 136.201 443.275 136.976 442.776C137.75 442.233 136.85 437.445 138.492 431.067L138.448 431.068Z" fill="#FFF0DD"/>
</g>
<g style="mix-blend-mode:multiply">
<path d="M160.423 425.214C161.374 426.591 156.782 437.629 156.259 441.358C156.904 437.233 158.893 428.923 159.292 427.296C159.691 425.669 155.577 418.115 154.188 409.273C154.188 409.273 158.115 421.902 160.422 425.17L160.423 425.214Z" fill="#FFF0DD"/>
</g>
<g style="mix-blend-mode:multiply" opacity="0.5">
<path d="M119.905 377.514C120.014 382.146 120.907 388.464 120.907 388.464C119.945 382.89 119.147 378.756 118.367 377.201C116.479 373.136 86.096 362.138 74.3448 351.443C64.6937 342.666 55.4217 324.042 51.9688 316.692C53.2012 318.892 60.0595 331.583 76.7994 348.019C97.7011 368.509 119.795 372.882 119.905 377.514Z" fill="#FFF0DD"/>
</g>
<path d="M164.273 434.217C166.923 435.378 165.592 441.924 165.592 441.924C164.2 445.935 157.487 443.033 157.939 441.842C158.436 440.65 161.622 433.055 164.273 434.217Z" fill="#FFF0DD"/>
<path d="M152.134 438.57C156.22 439.435 154.01 447.663 154.01 447.663C148.916 452.242 145.097 447.874 145.097 447.874C145.097 447.874 148.047 437.705 152.134 438.57Z" fill="#FFF0DD"/>
<path d="M135.84 433.709C137.583 435.329 136.68 441.471 136.68 441.471C136.68 441.471 129.199 443.135 129.958 440.1C130.717 437.066 134.053 432.09 135.796 433.71L135.84 433.709Z" fill="#FFF0DD"/>
<g style="mix-blend-mode:multiply" opacity="0.3">
<path d="M127.33 421.189C127.036 419.884 126.744 418.623 126.452 417.362C126.864 418.139 130.118 424.489 132.184 426.801C134.43 429.327 139.304 428.381 139.304 428.381C142.629 430.313 147.471 428.013 147.471 428.013L148.405 425.018C148.405 425.018 149.463 429.059 152.134 429.258C154.762 429.458 159.301 427.296 159.301 427.296L159.658 423.877C159.658 423.877 167.967 425.823 169.319 420.151C169.324 420.369 169.328 420.544 169.331 420.675C165.531 433.75 166.429 442.122 166.429 442.122C166.429 442.122 165.103 445.214 161.517 445.168C158.413 445.154 156.311 441.313 156.311 441.313L154.622 447.561C151.696 453.226 141.848 449.044 141.848 449.044C133.159 449.512 133.678 443.728 133.678 443.728C133.678 443.728 126.888 443.146 126.757 437.64C126.627 432.135 128.386 425.186 127.372 421.144L127.33 421.189Z" fill="#FFF0DD"/>
</g>
<g style="mix-blend-mode:multiply" opacity="0.2">
<path d="M148.161 374.353C151.677 376.981 154.792 390.372 147.948 389.354C141.104 388.336 129.817 386.198 132.167 382.033C134.473 377.869 142.063 369.776 148.161 374.353Z" fill="#FFF0DD"/>
</g>
<g style="mix-blend-mode:multiply" opacity="0.8">
<path d="M98.3128 285.163C102.479 286.61 100.748 289.22 100.748 289.22C92.9503 287.215 50.144 304.788 50.144 304.788C66.8184 294.241 94.1664 283.748 98.3128 285.163Z" fill="#FFF0DD"/>
</g>
<path d="M209.312 297.624C209.312 297.624 218.674 341.946 222.409 355.367C226.143 368.788 231.771 380.342 232.393 381.587C233.015 382.831 230.201 387.512 230.201 387.512L232.474 423.392L206.552 390.218C206.552 390.218 208.041 382.182 212.722 378.448C212.722 378.448 202.926 347.872 192.238 329.147C181.523 310.423 183.39 301.061 183.39 301.061C183.39 301.061 198.678 289.209 209.285 297.624H209.312Z" fill="url(#paint0_linear_335_41299)"/>
<path d="M225.877 488.03C225.877 488.03 238.942 498.317 221.787 502.998C204.632 507.679 206.58 492.915 206.58 492.915L169.727 436.001L206.58 390.245L232.286 420.145C232.286 420.145 236.615 424.745 236.155 427.478C235.695 430.211 232.502 435.839 232.502 435.839C232.502 435.839 232.123 449.72 232.502 455.294C232.881 460.868 228.097 470.268 228.097 470.268L225.877 488.03Z" fill="#17186E"/>
<g style="mix-blend-mode:multiply">
<path d="M205.308 393.303C205.308 393.303 216.673 415.193 223.492 437.922C223.492 437.922 209.124 407.752 205.308 406.697C201.493 405.642 233.314 457.486 233.314 457.486C233.314 457.486 210.585 429.02 205.931 430.427C201.277 431.834 179.251 452.859 179.251 452.859L178.304 448.827L173.434 433.485C178.358 425.286 194.323 412.758 194.323 412.758L205.308 393.33V393.303Z" fill="#EA8BC2"/>
</g>
<path fill-rule="evenodd" clip-rule="evenodd" d="M246.094 740.306C246.094 740.306 245.358 740.592 244.05 741.124C236.076 744.273 206.591 756.5 190.847 770.117V763.82L186.226 763.288C186.226 763.288 186.758 745.786 182.668 737.607L189.252 722.272C189.252 722.272 170.359 676.635 177.352 625.354L194.568 593.784L191.706 590.104L194.568 583.97C194.568 583.97 176.125 492.081 160.954 460.92L151.507 463.66C151.507 463.66 135.518 537.637 103.539 590.921L89.5945 606.911C89.5945 606.911 69.9246 664.326 62.1139 722.558L67.839 729.51L62.1139 738.548V744.273C62.1139 744.273 36.6781 741.819 7.9707 759.444C7.9707 759.444 2.08202 747.012 3.06347 745.213C4.00402 743.455 15.9041 731.146 15.9041 729.796C15.9041 729.142 14.8817 728.12 13.7776 727.015C12.5099 725.789 11.1604 724.48 11.1195 723.499C10.9968 721.74 4.41295 639.585 35.6148 595.093C35.6148 595.093 52.0132 582.293 57.4929 573.542L58.4335 567.735L61.296 563.85L92.8659 446.976L90.4123 442.069L93.7247 418.596L94.8697 410.703L94.9515 410.09C94.9515 410.09 100.431 410.499 109.264 411.316C124.436 412.748 149.422 415.488 173.058 419.741H173.181C190.152 422.808 187.255 395.805 198.787 400.549C198.787 400.549 223.521 445.953 228.51 474.17C233.09 500.138 237.18 537.637 236.035 585.973L227.651 604.907C227.651 604.907 227.651 604.907 227.651 604.989L227.161 606.134C227.161 606.134 227.161 606.747 227.161 607.933C227.283 619.302 228.265 681.174 236.239 712.744C236.239 712.744 245.031 715.483 246.135 717.119L246.258 717.446C247.117 720.677 246.135 740.347 246.135 740.347L246.094 740.306Z" fill="url(#paint1_linear_335_41299)"/>
<path fill-rule="evenodd" clip-rule="evenodd" d="M190.889 770.118L187.617 784.063H306.127C306.127 784.063 307.967 775.639 302.038 765.415C302.038 765.415 279.178 769.668 244.173 741.083C244.173 741.083 207.328 752.493 190.93 770.118H190.889Z" fill="url(#paint2_radial_335_41299)"/>
<path fill-rule="evenodd" clip-rule="evenodd" d="M58.4363 744.191C58.4363 744.191 62.3212 754.783 77.6972 767.255V785.289H7.56457C7.56457 785.289 6.33776 775.148 10.6316 757.85C10.6316 757.85 28.0523 744.028 58.3954 744.15L58.4363 744.191Z" fill="url(#paint3_radial_335_41299)"/>
<path fill-rule="evenodd" clip-rule="evenodd" d="M281.386 762.594C281.386 762.594 272.349 766.847 270.713 777.52L189.907 774.248L187.617 784.063H306.127C306.127 784.063 308.867 774.78 302.038 765.415C302.038 765.415 289.32 765.62 281.386 762.594Z" fill="url(#paint4_linear_335_41299)"/>
<path fill-rule="evenodd" clip-rule="evenodd" d="M74.7115 764.72C74.7115 764.72 53.0787 749.181 12.0624 773.308L8.21841 770.118C8.21841 770.118 6.17372 778.992 7.52321 785.29H77.6558V767.255L74.6706 764.72H74.7115Z" fill="url(#paint5_linear_335_41299)"/>
<g style="mix-blend-mode:multiply" opacity="0.6">
<path fill-rule="evenodd" clip-rule="evenodd" d="M20.564 742.58C30.1331 737.918 67.8371 733.951 67.8371 733.951L62.1119 742.989V748.714C62.1119 748.714 36.6761 746.26 7.96875 763.886C16.4337 750.227 48.1672 742.58 48.1672 742.58H20.564Z" fill="#3C2E92"/>
</g>
<g style="mix-blend-mode:multiply" opacity="0.5">
<path fill-rule="evenodd" clip-rule="evenodd" d="M211.171 694.873C208.922 700.394 189.252 722.272 189.252 722.272C189.252 722.272 170.36 676.635 177.352 625.354L194.569 593.784L191.706 590.104L194.569 583.97C194.569 583.97 176.126 492.082 160.954 460.921L151.508 463.66C151.508 463.66 135.518 537.637 103.539 590.921L89.5946 606.911C89.5946 606.911 69.9248 664.326 62.1141 722.558L56.389 721.331L59.2515 673.363L41.4219 721.331C41.4219 721.331 42.4442 698.349 51.8906 668.865C61.3371 639.38 80.8025 603.639 80.8025 603.639L76.9176 595.829L74.2595 581.68L80.6389 595.829H86.7729L101.127 583.52C128.198 535.96 140.016 468.568 140.016 468.568C124.845 455.482 103.171 460.512 103.171 460.512L78.1444 520.38L92.907 467.464V446.935L90.4534 442.028L94.8699 410.662L173.099 419.7H173.222C190.193 422.767 188.587 398.47 200.119 403.213C200.119 403.213 223.562 445.913 228.551 474.129L207.327 493.267C205.733 526.8 225.77 590.063 225.77 590.063L229.86 591.698L236.035 585.932L227.652 604.866C227.652 604.866 227.652 604.866 227.652 604.948C227.652 605.193 227.447 606.216 227.161 607.892C224.625 622.982 213.257 689.925 211.212 694.873H211.171Z" fill="#3C2E92"/>
</g>
<g style="mix-blend-mode:multiply" opacity="0.6">
<path fill-rule="evenodd" clip-rule="evenodd" d="M244.131 741.084H244.049C236.075 744.273 206.591 756.501 190.847 770.118V763.82L186.226 763.289C186.226 763.289 186.757 745.786 182.668 737.608L189.252 722.273L185.694 731.842C185.694 731.842 220.167 723.377 219.309 727.752C218.491 732.128 193.055 752.37 193.055 752.37L197.185 754.006C218.777 741.983 244.172 741.084 244.172 741.084H244.131Z" fill="#3C2E92"/>
</g>
<g style="mix-blend-mode:multiply" opacity="0.6">
<path fill-rule="evenodd" clip-rule="evenodd" d="M246.092 740.307C246.092 740.307 245.356 740.593 244.048 741.125C236.073 744.274 206.589 756.501 190.845 770.119V763.821L186.224 763.289C186.224 763.289 186.756 745.787 182.666 737.608L189.25 722.273C189.25 722.273 170.357 676.636 177.35 625.355L194.566 593.785L191.704 590.105L194.566 583.971C194.566 583.971 176.123 492.083 160.952 460.922L151.505 463.662L157.271 452.743L93.7227 418.597L109.262 411.318C124.434 412.749 149.42 415.489 173.056 419.742H173.179C190.15 422.809 182.368 385.592 193.9 390.335C193.9 390.335 223.355 444.956 228.508 474.171C233.088 500.139 237.178 537.638 236.033 585.975L227.649 604.908C227.649 604.908 227.649 604.908 227.649 604.99L227.159 606.135C227.159 606.135 227.159 606.749 227.159 607.934C227.281 619.303 228.263 681.175 236.237 712.745L207.325 722.6C207.325 722.6 237.423 721.701 246.174 717.12L246.297 717.448C247.156 720.678 246.174 740.348 246.174 740.348L246.092 740.307Z" fill="#3C2E92"/>
</g>
<g style="mix-blend-mode:multiply" opacity="0.6">
<path fill-rule="evenodd" clip-rule="evenodd" d="M11.1211 723.499C11.1211 723.499 31.3635 720.759 37.9064 722.272L15.9057 729.797L11.1211 723.499Z" fill="#3C2E92"/>
</g>
<path style="mix-blend-mode:multiply" opacity="0.5" fill-rule="evenodd" clip-rule="evenodd" d="M77.6912 767.256L12.0978 773.308L8.25379 770.118L7.55859 785.29H77.6912V767.256Z" fill="url(#paint6_linear_335_41299)"/>
<path style="mix-blend-mode:multiply" opacity="0.5" fill-rule="evenodd" clip-rule="evenodd" d="M293.409 784.063V776.293L270.713 777.52L189.907 774.248L187.617 784.063H293.409Z" fill="url(#paint7_linear_335_41299)"/>
<g style="mix-blend-mode:soft-light">
<path fill-rule="evenodd" clip-rule="evenodd" d="M78.1042 520.38C78.1042 520.38 67.6763 564.055 70.9478 572.888L80.5987 595.829H86.7328L101.086 583.52C101.086 583.52 132.534 523.774 139.976 468.568C139.976 468.568 124.887 455.196 103.131 460.512L78.1042 520.38Z" fill="#8190BB"/>
</g>
<g style="mix-blend-mode:soft-light">
<path fill-rule="evenodd" clip-rule="evenodd" d="M20.5625 738.139C20.5625 738.139 36.7973 722.722 41.4183 721.332C46.0392 719.941 62.1513 722.559 62.1513 722.559L67.8765 729.511C67.8765 729.511 42.9722 731.514 20.6034 738.139H20.5625Z" fill="#A3AECD"/>
</g>
<g style="mix-blend-mode:soft-light">
<path fill-rule="evenodd" clip-rule="evenodd" d="M236.197 712.703L207.285 722.558C207.285 722.558 236.81 721.945 246.134 717.079C246.134 717.079 243.312 714.093 236.238 712.703H236.197Z" fill="#A3AECD"/>
</g>
<g style="mix-blend-mode:multiply" opacity="0.6">
<path fill-rule="evenodd" clip-rule="evenodd" d="M200.658 784.144C200.658 784.144 212.681 768.564 226.666 767.255C240.652 765.947 269.891 784.063 269.891 784.063L200.617 784.144H200.658Z" fill="#6A4AB3"/>
</g>
<g style="mix-blend-mode:multiply" opacity="0.5">
<path fill-rule="evenodd" clip-rule="evenodd" d="M19.2164 638.604C19.2164 638.604 9.72912 676.512 17.1309 696.509C23.633 714.134 32.7114 718.837 32.7114 718.837C32.7114 718.837 17.7852 719.45 15.2498 715.238C12.7144 711.026 7.8889 674.058 19.2573 638.604H19.2164Z" fill="#3C2E92"/>
</g>
<path d="M135.684 118.552L133.79 134.598C131.896 134.895 130.11 134.976 128.514 134.922C121.614 134.76 117.42 132.189 117.42 132.189C121.072 136.735 127.756 135.869 127.756 135.869C127.756 135.869 115.58 143.933 109.302 135.112C103.052 126.264 100.589 109.569 100.589 109.569C96.774 124.207 81.2695 125.425 81.2695 125.425C98.5328 115.765 103.079 99.6381 103.079 99.6381L128.432 103.832L135.711 118.525L135.684 118.552Z" fill="url(#paint8_linear_335_41299)"/>
<g style="mix-blend-mode:multiply">
<path d="M128.487 134.922C121.587 134.76 117.393 132.189 117.393 132.189C121.046 136.735 127.73 135.869 127.73 135.869C127.73 135.869 113.253 140.875 110.412 132.703C107.571 124.586 108.599 110.489 108.599 110.489L124.374 109.136C130.922 115.278 136.984 121.691 131.274 134.868L128.487 134.922Z" fill="#CE8BC2"/>
</g>
<path d="M129.624 147.667C129.624 147.667 98.7499 154.458 74.3973 157.029C50.0447 159.599 41.1696 154.458 41.1696 154.458C41.1696 154.458 16.357 189.337 19.3875 245.05H23.8251C23.8251 245.05 21.7146 276.194 21.011 300.763L17.0335 303.334C17.0335 303.334 12.3524 320.651 10.9453 336.345L13.2723 337.509C13.2723 337.509 17.2499 363.972 26.6121 385.97C26.6121 385.97 80.6749 388.784 110.656 385.97C140.609 383.156 148.321 381.289 148.321 381.289L129.596 147.694L129.624 147.667Z" fill="url(#paint9_linear_335_41299)"/>
<path d="M59.8125 387.052C59.8125 387.052 63.2219 225.46 78.6993 192.584L126.268 188.904L123.806 361.618L100.86 385.97L59.8125 387.079V387.052Z" fill="#CC2C36"/>
<path d="M41.1677 154.458C41.1677 154.458 75.8836 167.257 85.4082 175.401L133.383 155.513L134.086 146.124C134.086 146.124 113.955 151.13 88.3576 154.864C62.7603 158.598 41.1406 154.485 41.1406 154.485L41.1677 154.458Z" fill="url(#paint10_linear_335_41299)"/>
<path d="M196.213 192.151C196.213 192.151 202.139 206.816 205.25 223.349C208.362 239.882 217.968 292.646 217.968 292.646L192.749 294.837C192.749 294.837 190.26 209.008 196.186 192.151H196.213Z" fill="url(#paint11_linear_335_41299)"/>
<path d="M132.736 113.438C132.736 113.438 129.245 142.066 128.488 148.289C127.703 154.539 118.043 159.843 118.043 159.843C118.043 159.843 127.865 185.9 147.374 188.877C166.883 191.853 166.559 168.123 166.559 168.123C166.559 168.123 157.656 158.301 157.359 155.946C157.061 153.592 157.521 146.584 157.521 146.584C157.521 146.584 141.692 131.486 132.736 113.438Z" fill="url(#paint12_linear_335_41299)"/>
<path d="M209.934 380.342C199.002 418.089 172.485 440.249 139.717 449.314C106.949 458.379 85.0291 454.942 85.0291 453.075C85.0291 451.208 89.7102 448.692 89.7102 448.692C89.7102 448.692 91.6615 421.227 94.1508 402.801C96.6402 384.401 107.897 346.167 104.595 323.222C101.321 300.303 57.0808 198.482 65.496 189.12C73.9111 179.785 112.307 161.223 112.307 161.223C112.307 161.223 113.011 155.622 114.634 155.487C116.285 155.351 120.127 158.49 120.127 158.49C120.127 158.49 138.608 190.23 153.896 186.036C169.184 181.814 162.69 163.658 162.69 163.658C163.61 161.142 164.367 160.141 164.99 160.087C165.125 160.032 165.26 160.087 165.396 160.168C166.857 161.006 167.425 166.689 167.425 166.689C168.129 167.257 168.859 167.852 169.59 168.502C180.44 177.512 196.134 192.151 196.134 192.151C195.187 201.188 192.075 281.389 194.294 303.55C196.459 325.711 199.895 368.95 199.895 368.95C199.895 368.95 203.467 366.461 204.874 367.543C206.281 368.626 205.821 377.528 205.821 377.528C205.821 377.528 207.85 373.009 209.88 373.009C211.909 373.009 209.88 380.342 209.88 380.342H209.934Z" fill="url(#paint13_linear_335_41299)"/>
<path style="mix-blend-mode:multiply" opacity="0.5" d="M115.551 175.916C115.551 175.916 133.95 197.427 144.936 202.73C155.922 208.034 186.633 212.282 186.633 212.282C186.633 212.282 160.711 211.984 144.936 207.899C129.161 203.813 116.768 190.013 116.768 190.013L115.551 175.916Z" fill="url(#paint14_linear_335_41299)"/>
<path style="mix-blend-mode:multiply" opacity="0.5" d="M106.972 299.87C106.972 299.87 116.064 276.113 119.338 271.702C122.612 267.292 148.345 248.405 148.345 248.405C148.345 248.405 119.879 260.798 115.198 265.479C110.517 270.16 104.727 299.654 104.727 299.654L106.972 299.843V299.87Z" fill="url(#paint15_linear_335_41299)"/>
<path d="M171.941 170.423L173.808 168.042C173.808 168.042 185.822 178.351 194.021 179.271C194.021 179.271 214.613 218.208 194.021 254.656C194.021 254.656 200.65 205.031 175.053 174.59L171.941 170.423Z" fill="url(#paint16_linear_335_41299)"/>
<g style="mix-blend-mode:multiply">
<path d="M61.4631 345.924C61.4631 345.924 60.4348 368.463 59.8125 387.053L97.2072 386.295C97.2072 386.295 103.701 357.397 104.729 344.76C105.758 332.124 103.539 323.465 103.539 323.465L89.1438 335.182C89.1438 335.182 72.4758 338.429 61.4631 345.951V345.924Z" fill="#D98BA1"/>
</g>
<g style="mix-blend-mode:multiply">
<path d="M10.9727 336.318H44.3627L50.1532 307.934H57.6214L56.539 386.998L49.8285 386.836L49.5038 325.873L47.9615 338.212L13.2997 337.508L10.9727 336.318Z" fill="#D98BA1"/>
</g>
<g style="mix-blend-mode:multiply">
<path d="M173.808 168.042C173.808 168.042 185.173 180.516 192.235 192.151C199.325 203.786 196.483 234.984 196.483 234.984L194.21 237.771C194.21 237.771 191.423 212.499 186.634 197.292C181.845 182.085 171.941 170.423 171.941 170.423L173.808 168.042Z" fill="#EA8BC2"/>
</g>
<path d="M88.0883 337.265C77.292 354.15 59.7852 363.512 59.7852 363.512V346.032C59.7852 346.032 83.1095 328.579 98.154 298.95C103.106 289.182 107.11 278.115 109.14 265.912C117.257 216.612 91.6329 172.831 91.6329 172.831L88.0883 173.913L89.36 165.958C89.36 165.958 101.726 165.498 106.975 161.845C106.975 161.845 123.048 181.165 125.889 213.933C128.703 246.701 98.8575 320.408 88.0883 337.265Z" fill="url(#paint17_linear_335_41299)"/>
<g style="mix-blend-mode:multiply">
<path d="M54.4817 245.05L34.2961 299.87L27.0445 303.253L23.8516 336.345L31.1032 337.887L49.7194 362.267L59.8393 387.08L60.5698 362.835C60.5698 362.835 78.9696 353.175 88.1424 337.265L54.5358 245.05H54.4817Z" fill="#D98BA1"/>
</g>
<g style="mix-blend-mode:multiply">
<path d="M48.6957 309.071C48.6957 309.071 48.1686 306.943 54.0245 322.837C57.133 331.274 61.7957 334.827 66.4584 340.156C69.5669 343.708 77.6974 357.082 83.333 361.027C92.2143 367.244 114.193 381.644 119.302 390.779C124.412 399.915 119.302 453.837 119.302 453.837L147.279 447.62L151.922 393.987L100.508 329.551C100.508 329.551 89.2544 332.818 75.1909 333.337C61.1274 333.856 69.5668 311.291 69.5668 311.291L48.6957 309.071Z" fill="#B2B3E8"/>
</g>
<path d="M47.9609 307.934C47.9609 307.934 83.2181 315.429 106.786 284.69C106.786 284.69 84.9498 279.549 47.9609 307.934Z" fill="url(#paint18_linear_335_41299)"/>
<path d="M65.5219 189.12C65.5219 189.12 62.9513 193.693 57.9455 221.482C52.9397 249.271 47.9609 307.933 47.9609 307.933C47.9609 307.933 76.3723 286.72 106.786 284.69C106.786 284.69 103.81 272.054 106.786 243.345C109.762 214.636 79.3216 186.116 65.5219 189.147V189.12Z" fill="url(#paint19_linear_335_41299)"/>
<g style="mix-blend-mode:multiply">
<path d="M115.554 240.667C115.662 270.756 101.836 299.437 101.836 299.437L98.1826 298.896C103.134 289.128 107.139 278.061 109.168 265.858C117.286 216.558 89.091 173.562 89.091 173.562L88.0898 173.859L89.3616 165.904C89.3616 165.904 115.446 210.551 115.527 240.64L115.554 240.667Z" fill="#EA8BC2"/>
</g>
<path d="M78.699 179.379C78.699 179.379 69.4991 166.851 44.2266 164.984C44.2266 164.984 24.0951 188.85 23.8516 245.05C23.8516 245.05 29.9397 204.922 42.8195 182.545C42.8195 182.545 56.4028 172.588 57.3228 175.402C58.2699 178.216 57.1605 185.9 59.8122 185.9C62.4639 185.9 65.4945 189.12 65.4945 189.12L78.6719 179.379H78.699Z" fill="#CC4236"/>
<path style="mix-blend-mode:multiply" opacity="0.5" d="M152.811 196.345C133.356 196.345 112.332 161.223 112.332 161.223C112.332 161.223 113.036 155.622 114.659 155.487C116.31 155.351 120.152 158.49 120.152 158.49C120.152 158.49 138.633 190.23 153.921 186.036C169.209 181.814 162.715 163.658 162.715 163.658C163.635 161.142 164.392 160.141 165.015 160.087C165.204 160.141 165.367 160.168 165.421 160.168C166.287 160.059 168.586 164.984 168.586 164.984C168.586 164.984 169.046 166.337 169.615 168.502C171.752 176.457 168.072 196.345 152.784 196.345H152.811Z" fill="url(#paint20_linear_335_41299)"/>
<path d="M47.9609 307.934V298.923C47.9609 298.923 79.3216 275.112 105.785 276.384L106.786 284.691C106.786 284.691 73.5582 289.832 47.9609 307.934Z" fill="url(#paint21_linear_335_41299)"/>
<g style="mix-blend-mode:multiply">
<path d="M131.273 124.342C131.273 124.342 133.194 177.485 157.33 155.946L157.493 146.584C157.493 146.584 141.664 139.711 132.707 113.438L131.246 124.342H131.273Z" fill="#E89FC0"/>
</g>
<g style="mix-blend-mode:multiply" opacity="0.8">
<path d="M162.718 163.686C162.718 163.686 163.503 178.865 155.98 185.359C155.98 185.359 170.105 180.164 162.718 163.686Z" fill="#9C92AD"/>
</g>
<path style="mix-blend-mode:multiply" opacity="0.5" d="M105.785 276.384C105.785 276.384 107.057 253.465 107.002 239.205C106.948 224.946 94.6367 199.186 94.6367 199.186C94.6367 199.186 111.115 214.393 112.36 232.197C113.605 249.975 105.812 276.411 105.812 276.411L105.785 276.384Z" fill="url(#paint22_linear_335_41299)"/>
<path style="mix-blend-mode:multiply" opacity="0.5" d="M199.136 358.993C199.136 358.993 186.202 381.722 170.914 388.135C155.626 394.521 136.117 390.327 129.406 387.053C129.406 387.053 140.635 393.763 157.033 393.276C173.43 392.816 194.509 379.99 199.948 368.951L199.136 358.993Z" fill="url(#paint23_linear_335_41299)"/>
<path style="mix-blend-mode:multiply" opacity="0.5" d="M205.929 372.847C205.929 372.847 199.625 388.703 181.523 406.67C163.42 424.637 126.242 432.754 126.242 432.754C126.242 432.754 154.356 431.347 171.998 421.687C189.64 412 193.834 394.845 198.218 388.459C202.574 382.074 205.875 377.528 205.875 377.528L205.929 372.847Z" fill="url(#paint24_linear_335_41299)"/>
<path style="mix-blend-mode:multiply" opacity="0.5" d="M89.7109 448.692C89.7109 448.692 106.057 454.455 127.082 450.559C148.079 446.662 159.227 437.922 159.227 437.922C159.227 437.922 120.476 452.426 89.7109 446.662V448.692Z" fill="url(#paint25_linear_335_41299)"/>
<path style="mix-blend-mode:multiply" d="M53.9941 315.239C53.9941 315.239 66.6845 291.157 89.1701 298.923V288.397C89.1701 288.397 68.1727 295.27 52.6953 304.795L53.9941 315.239Z" fill="url(#paint26_linear_335_41299)"/>
<path style="mix-blend-mode:multiply" opacity="0.3" d="M68.875 192.151L70.2009 295.433L85.9489 289.48L68.875 192.151Z" fill="url(#paint27_linear_335_41299)"/>
<path style="mix-blend-mode:multiply" opacity="0.5" d="M110.062 362.24C110.062 362.24 126.054 377.745 144.427 381.993C162.799 386.268 171.945 381.993 171.945 381.993C171.945 381.993 161.933 388.297 144.427 384.699C126.92 381.1 110.062 362.24 110.062 362.24Z" fill="url(#paint28_linear_335_41299)"/>
<path style="mix-blend-mode:multiply" opacity="0.5" d="M57.3208 175.402C57.3208 175.402 47.9586 184.385 45.1445 194.099C42.3305 203.84 36.7294 234.714 39.0564 237.771C41.3834 240.829 58.7279 193.855 58.4843 188.904C58.2408 183.952 57.3208 175.402 57.3208 175.402Z" fill="url(#paint29_linear_335_41299)"/>
<path style="mix-blend-mode:multiply" opacity="0.5" d="M61.543 339.132C61.543 339.132 71.2028 334.451 77.3721 332.908C83.5415 331.339 101.319 334.234 101.319 334.234C101.319 334.234 69.2005 343.515 61.543 339.159V339.132Z" fill="url(#paint30_linear_335_41299)"/>
<path d="M201.651 52.5835C200.974 55.7223 194.751 77.3149 195.968 86.5959V86.8124C197.213 95.9852 198.214 102.615 198.431 110.57C198.512 113.465 196.753 119.174 194.02 125.398C189.258 136.329 181.411 148.857 175.187 150.183C174.565 150.319 173.889 150.4 173.131 150.4C162.335 150.724 140.12 139.36 129.594 121.907C128.268 119.715 127.132 117.47 126.103 115.17C126.076 115.17 126.076 115.116 126.076 115.116C118.473 97.8252 118.608 77.9914 115.118 64.5704C111.14 49.3635 124.723 21.9263 145.288 14.6205C165.825 7.31476 184.252 11.8065 184.252 11.8065C184.252 11.8065 195.833 41.4084 200.676 47.2259C200.676 47.2259 202.354 49.4447 201.651 52.6106V52.5835Z" fill="url(#paint31_linear_335_41299)"/>
<path d="M176.571 52.6918C176.571 52.6918 174.947 58.3741 172.539 60.8093C172.539 60.8093 164.774 60.8093 155.79 62.8658C146.807 64.9222 143.668 67.4116 143.668 67.4116C143.668 67.4116 147.456 60.7011 153.707 57.5623C159.957 54.4506 176.571 52.6918 176.571 52.6918Z" fill="url(#paint32_linear_335_41299)"/>
<path d="M121.827 83.3487C121.827 83.3487 113.033 73.283 104.483 73.9053C95.9595 74.5006 93.4701 92.3321 100.045 102.317C106.62 112.301 119.094 115.494 120.826 114.466C122.531 113.438 125.94 105.915 125.94 105.915L121.827 83.3487Z" fill="url(#paint33_linear_335_41299)"/>
<path d="M152.462 44.5472C152.462 44.5472 136.714 71.3621 126.188 79.7773L125.377 89.2748C125.377 89.2748 119.343 80.102 113.309 76.2597L113.985 65.1657C113.985 65.1657 136.552 49.4989 152.462 44.5201V44.5472Z" fill="url(#paint34_linear_335_41299)"/>
<path d="M120.719 82.8079L126.185 79.7773C126.185 79.7773 126.563 89.7078 128.809 94.1995L125.914 99.1782C125.914 99.1782 123.479 87.5161 120.719 82.8079Z" fill="url(#paint35_linear_335_41299)"/>
<path d="M113.658 70.5233C113.658 70.5233 103.565 42.6531 103.998 33.6968C104.431 24.7404 133.275 4.58192 133.275 4.58192C133.275 4.58192 170.589 1.19962 179.978 5.69131C189.367 10.183 199.974 40.3531 199.974 40.3531C199.974 40.3531 165.312 39.9473 146.074 47.9024C126.808 55.8576 113.658 70.5503 113.658 70.5503V70.5233Z" fill="url(#paint36_linear_335_41299)"/>
<path d="M107.354 51.0141C107.354 51.0141 94.1768 46.3871 81.7299 50.5541C81.7299 50.5541 78.7265 56.8587 84.3005 58.7528C84.3005 58.7528 99.0744 55.3975 109.952 59.5645L107.354 51.0141Z" fill="#A21642"/>
<path d="M128.595 7.9911C128.595 7.9911 126.998 2.57942 127.512 2.01119C127.999 1.44297 131.3 0.604155 133.167 0.982973C135.007 1.36179 136.685 3.98646 136.685 3.98646L133.303 4.58174L128.622 8.01816L128.595 7.9911Z" fill="#A21642"/>
<path d="M133.276 4.58176C133.276 4.58176 123.157 16.8933 123.184 22.278C123.211 27.6626 136.063 52.1775 136.063 52.1775C136.063 52.1775 163.636 33.9401 197.297 31.8566C197.297 31.8566 186.69 7.20643 179.546 4.58176C172.403 1.9571 146.806 1.93004 133.276 4.58176Z" fill="url(#paint37_linear_335_41299)"/>
<path d="M144.152 26.2014C144.152 26.2014 168.965 10.8864 187.04 14.9722L193.128 25.7685C193.128 25.7685 173.727 25.552 148.428 36.3754L144.152 26.2014Z" fill="#FF3748"/>
<path style="mix-blend-mode:multiply" opacity="0.5" d="M122.24 97.3109C122.24 97.3109 116.503 86.3523 108.765 85.4864C101.026 84.6205 97.9414 90.5463 97.9414 90.5463C97.9414 90.5463 100.431 87.4617 106.952 87.3534C106.952 87.3534 106.546 94.091 107.493 99.9897C108.44 105.888 113.527 108.297 115.475 107.214C117.423 106.159 111.985 96.445 114.014 93.9286C116.043 91.4122 122.24 97.3109 122.24 97.3109Z" fill="url(#paint38_linear_335_41299)"/>
<path style="mix-blend-mode:multiply" opacity="0.5" d="M147.426 83.0514C147.426 83.0514 150.619 91.0877 158.655 91.5206C166.691 91.9536 165.095 81.1031 165.095 81.1031L147.426 83.0514Z" fill="url(#paint39_linear_335_41299)"/>
<path style="mix-blend-mode:multiply" opacity="0.5" d="M186.18 83.7548C186.18 83.7548 189.102 91.5476 192.863 91.6017C196.624 91.6558 195.812 84.0795 195.812 84.0795L186.18 83.7548Z" fill="url(#paint40_linear_335_41299)"/>
<path style="mix-blend-mode:multiply" opacity="0.5" d="M111.47 86.217C111.47 86.217 106.951 88.6793 107.032 95.9309C107.114 103.183 112.471 107.755 114.771 106.863C117.071 105.97 111.822 95.8498 114.013 93.9557C116.205 92.0887 121.13 96.3639 121.13 96.3639C121.13 96.3639 117.233 88.4628 111.47 86.217Z" fill="url(#paint41_linear_335_41299)"/>
<path d="M187.504 63.7857C187.504 63.7857 189.209 58.6446 200.681 56.3446C200.681 56.3446 203.306 50.4188 202.061 46.5495C202.061 46.5495 192.564 49.3094 187.504 63.7857Z" fill="url(#paint42_linear_335_41299)"/>
<path style="mix-blend-mode:multiply" opacity="0.5" d="M146.699 81.4548C146.699 81.4548 149.946 69.9279 162.88 64.4621L164.477 67.9797L146.699 81.4548Z" fill="url(#paint43_linear_335_41299)"/>
<g style="mix-blend-mode:multiply">
<path d="M199.518 61.6208C199.518 61.6208 188.722 63.3526 170.322 65.1926C151.922 67.0325 133.793 54.2339 133.793 54.2339C133.793 54.2339 151.246 43.1129 164.342 38.7835C177.438 34.4542 194.62 38.6753 194.62 38.6753L200.681 47.1987C200.681 47.1987 204.659 44.2764 199.518 61.5938V61.6208Z" fill="#C98BC2"/>
</g>
<path style="mix-blend-mode:multiply" opacity="0.5" d="M185.878 82.7261C185.878 82.7261 185.364 70.2251 197.162 63.6229L196.729 68.2228L185.878 82.7261Z" fill="url(#paint44_linear_335_41299)"/>
<path d="M185.878 81.7795C185.418 84.5665 189.72 89.3288 192.588 88.1653C195.484 87.0018 197.215 77.1255 196.728 68.2233C196.728 68.2233 188.151 68.115 185.878 81.7795Z" fill="url(#paint45_linear_335_41299)"/>
<path d="M164.612 84.7289C162.096 89.7888 151.597 93.8746 146.727 81.4277C146.727 81.4277 151.678 70.0632 164.504 67.9526C164.504 67.9526 169.023 75.8537 164.639 84.7018L164.612 84.7289Z" fill="url(#paint46_linear_335_41299)"/>
<mask id="mask2_335_41299" style="mask-type:luminance" maskUnits="userSpaceOnUse" x="185" y="68" width="12" height="21">
<path d="M185.882 81.7795C185.422 84.5665 189.724 89.3288 192.592 88.1653C195.487 87.0018 197.219 77.1255 196.732 68.2232C196.732 68.2232 188.155 68.115 185.882 81.7795Z" fill="white"/>
</mask>
<g mask="url(#mask2_335_41299)">
<path d="M192.209 83.5926C192.209 83.5926 189.504 74.4469 196.701 67.9799C196.701 67.9799 198.947 79.2633 196.701 82.4562C194.482 85.6491 192.182 83.5926 192.182 83.5926H192.209Z" fill="#AD7A90"/>
<g style="mix-blend-mode:multiply">
<path d="M193.883 84.2419C193.883 84.2419 191.583 75.7456 197.13 70.4422C197.13 70.4422 198.32 77.342 197.536 80.4538C196.751 83.5384 194.695 84.4043 193.883 84.2419Z" fill="#AB8BC2"/>
</g>
</g>
<path d="M186.281 79.6962C186.281 79.6962 188.419 70.9022 196.672 69.2516L199.702 66.7081C199.702 66.7081 189.366 65.707 186.281 79.6962Z" fill="#95344D"/>
<path d="M165.153 69.4407L167.237 65.7337C167.237 65.7337 152.084 68.2501 146.727 81.4276C146.727 81.4276 151.597 72.7418 165.18 69.4137L165.153 69.4407Z" fill="#95344D"/>
<mask id="mask3_335_41299" style="mask-type:luminance" maskUnits="userSpaceOnUse" x="146" y="67" width="21" height="23">
<path d="M164.608 84.7289C162.092 89.7888 151.593 93.8746 146.723 81.4278C146.723 81.4278 151.674 70.0632 164.5 67.9527C164.5 67.9527 169.019 75.8537 164.635 84.7018L164.608 84.7289Z" fill="white"/>
</mask>
<g mask="url(#mask3_335_41299)">
<path d="M161.009 88.4629C161.009 88.4629 157.519 73.8784 165.907 71.1725C165.907 71.1725 170.831 83.89 161.009 88.4629Z" fill="#AD7A90"/>
<g style="mix-blend-mode:multiply">
<path d="M166.5 72.877C166.5 72.877 160.331 76.9629 163.226 87.0827C163.226 87.0827 168.638 83.1592 166.5 72.877Z" fill="#AB8BC2"/>
</g>
</g>
<path d="M155.926 81.0757C155.926 81.0757 159.633 80.9134 160.499 83.6463C160.499 83.6463 157.793 84.431 155.926 81.0757Z" fill="white"/>
<path d="M189.586 80.9136C189.586 80.9136 191.994 80.8324 192.562 82.6995C192.562 82.6995 190.912 82.943 189.586 80.9136Z" fill="white"/>
<path style="mix-blend-mode:multiply" opacity="0.3" d="M191.398 98.4202C191.398 98.4202 185.526 94.7132 178.058 95.9579C170.59 97.1755 175.866 88.3274 184.444 87.0557C184.444 87.0557 185.337 92.8191 191.398 98.4202Z" fill="url(#paint47_linear_335_41299)"/>
<path style="mix-blend-mode:multiply" opacity="0.5" d="M172.54 60.8091C172.54 60.8091 170.997 84.2417 165.64 90.4651C160.282 96.6886 151.19 93.0086 145.238 86.4064C139.285 79.8041 143.668 67.3843 143.668 67.3843C143.668 67.3843 154.465 59.6727 172.54 60.7821V60.8091Z" fill="url(#paint48_linear_335_41299)"/>
<path style="mix-blend-mode:multiply" opacity="0.5" d="M173.241 98.7452C173.241 98.7452 170.399 101.045 169.236 103.886C168.072 106.7 170.913 109.163 174.161 107.404C177.408 105.618 178.652 105.889 178.273 107.187C177.922 108.486 179.843 109.92 184.578 109.785C189.313 109.65 193.994 105.347 192.587 100.829C192.587 100.829 195.293 108.784 184.416 110.867C173.565 112.951 171.752 108.297 168.018 106.782C164.284 105.266 173.213 98.7452 173.213 98.7452H173.241Z" fill="url(#paint49_linear_335_41299)"/>
<path style="mix-blend-mode:multiply" opacity="0.5" d="M171.887 108.675C171.887 108.675 175.458 106.511 177.082 106.781C178.705 107.052 177.569 109.081 175.891 109.785C174.214 110.488 171.887 108.702 171.887 108.702V108.675Z" fill="url(#paint50_linear_335_41299)"/>
<path style="mix-blend-mode:multiply" opacity="0.5" d="M167.211 105.077C167.211 105.077 168.05 105.916 174.463 105.591C181.85 105.212 187.045 105.997 192.511 104.563C192.511 104.563 188.912 118.173 182.337 118.417C173.705 118.714 167.211 105.077 167.211 105.077Z" fill="url(#paint51_linear_335_41299)"/>
<path style="mix-blend-mode:multiply" opacity="0.5" d="M163.226 109.893C163.226 109.893 159.654 112.87 157.841 118.579C157.841 118.579 156.813 115.467 157.408 112.734C158.03 109.974 163.226 109.893 163.226 109.893Z" fill="url(#paint52_linear_335_41299)"/>
<path style="mix-blend-mode:multiply" opacity="0.5" d="M187.5 63.7857C187.5 63.7857 184.416 78.262 184.984 85.2972C185.552 92.3323 196.863 93.6312 196.808 93.2523C196.754 92.8735 195.401 84.3772 196.078 78.9926C196.754 73.635 200.678 56.3447 200.678 56.3447C200.678 56.3447 191.667 54.5859 187.5 63.7857Z" fill="url(#paint53_linear_335_41299)"/>
<path d="M136.172 52.7998C136.172 52.7998 165.287 54.6398 175.407 50.1751C185.526 45.7105 207.146 35.5906 220.702 34.3189C234.259 33.0471 238.777 42.1117 238.777 42.1117C238.777 42.1117 234.881 34.4812 221.244 32.046C208.039 32.1001 195.971 31.8295 195.971 31.8295C195.971 31.8295 157.386 34.5624 136.172 52.7998Z" fill="url(#paint54_linear_335_41299)"/>
<path d="M201.11 47.9293C201.11 47.9293 220.186 48.8764 237.693 45.6835C237.693 45.6835 232.119 35.1307 216.182 35.4825C200.217 35.8342 195.996 41.3812 195.996 41.3812L201.137 47.9293H201.11Z" fill="#A21642"/>
<path d="M238.752 42.1116L237.67 45.7103C237.67 45.7103 228.795 32.2623 207.635 37.5387C186.475 42.8151 184.554 50.1479 173.352 53.9902C162.15 57.8596 133.766 54.2337 133.766 54.2337L136.039 52.2044C136.039 52.2044 160.256 53.449 169.753 50.7703C179.251 48.0915 198.246 35.5905 216.348 33.5611C234.45 31.5317 238.752 42.0845 238.752 42.0845V42.1116Z" fill="url(#paint55_linear_335_41299)"/>
<path style="mix-blend-mode:multiply" opacity="0.5" d="M117.232 79.0736C117.232 79.0736 127.568 73.2831 131.789 62.7303C131.789 62.7303 123.536 72.6878 113.281 76.2595L117.205 79.0465L117.232 79.0736Z" fill="url(#paint56_linear_335_41299)"/>
<path style="mix-blend-mode:multiply" opacity="0.5" d="M182.714 6.88159C182.714 6.88159 142.343 10.8592 123.158 22.2778C103.974 33.6965 104.38 38.4588 104.38 38.4588C104.38 38.4588 108.655 56.8855 113.634 70.523C113.634 70.523 128.353 57.8596 137.688 51.1492C147.024 44.4387 170.456 33.2906 197.271 31.8565C197.271 31.8565 189.262 12.3474 182.714 6.88159Z" fill="url(#paint57_linear_335_41299)"/>
<path style="mix-blend-mode:multiply" opacity="0.6" d="M185.265 129.889C179.833 130.71 173.659 130.339 172.996 129.677C172.996 129.677 177.766 132.327 181.422 131.32C183.807 130.657 185.265 129.889 185.265 129.889Z" fill="url(#paint58_linear_335_41299)"/>
<path style="mix-blend-mode:multiply" opacity="0.6" d="M179.649 125.994C169.844 122.708 165.34 118.68 165.34 118.68C165.34 118.68 174.72 119.82 181.662 121.727C185.425 122.761 188.684 125.808 188.684 125.808L179.649 126.02V125.994Z" fill="url(#paint59_linear_335_41299)"/>
<path style="mix-blend-mode:multiply" opacity="0.6" d="M174.906 130.525C174.906 130.525 175.701 136.619 177.9 136.99C180.1 137.361 183.995 130.445 183.995 130.445C183.995 130.445 180.974 132.141 174.906 130.525Z" fill="url(#paint60_linear_335_41299)"/>
<path d="M188.687 125.782C188.687 125.782 176.339 126.736 162.852 116.693C162.852 116.693 169.979 122.814 177.24 125.464C184.474 128.113 188.713 125.782 188.713 125.782H188.687Z" fill="#C44A4C"/>
<path style="mix-blend-mode:multiply" opacity="0.5" d="M173.106 150.426C162.309 150.751 140.094 139.387 129.569 121.934C128.243 119.742 127.106 117.496 126.078 115.196C126.809 116.171 135.982 130.62 149.105 138.494C161.227 145.745 171.59 149.885 173.106 150.454V150.426Z" fill="url(#paint61_linear_335_41299)"/>
<path d="M89.5497 305.191C89.5497 305.191 102.664 331.896 118.038 347.326C133.412 362.756 146.435 369.21 148.505 369.99C150.575 370.814 154.605 377.045 157.986 387.174C162.026 399.339 171.258 417.008 171.64 420.228C171.645 420.446 171.649 420.62 171.652 420.751C167.86 433.799 168.756 442.155 168.756 442.155C168.756 442.155 167.432 445.24 163.854 445.194C160.756 445.18 158.658 441.347 158.658 441.347L156.973 447.582C154.053 453.236 144.225 449.062 144.225 449.062C135.553 449.529 136.071 443.757 136.071 443.757C136.071 443.757 129.295 443.176 129.165 437.682C129.035 432.188 130.79 425.253 129.778 421.219C129.486 419.917 129.194 418.659 128.903 417.4C128.902 417.357 128.901 417.313 128.901 417.313C126.513 406.767 124.781 396.25 123.422 388.603C122.461 383.041 121.665 378.915 120.887 377.363C119.002 373.307 88.6812 362.332 76.9539 351.658C67.3224 342.898 58.0692 324.313 54.6233 316.977C54.5299 316.718 54.4407 316.633 54.4407 316.633C53.7961 315.208 53.381 314.258 53.2439 314C52.5496 312.315 53.1358 305.075 53.1358 305.075C77.0542 290.304 92.6578 287.756 92.6578 287.756L89.5497 305.191Z" fill="url(#paint62_linear_335_41299)"/>
<path d="M144.746 439.8C145.668 441.873 143.84 447.588 143.84 447.588C141.517 448.995 138.256 445.757 138.256 445.757C139.697 442.145 143.781 437.729 144.746 439.8Z" fill="#FFD8CC"/>
<g style="mix-blend-mode:multiply">
<path d="M147.078 412.956C147.813 416.342 151.344 425.421 151.215 427.343C151.086 429.266 145.027 446.12 144.18 449.019C145.033 442.673 150.138 429.768 149.863 427.375C149.368 423.068 147.122 412.955 147.122 412.955L147.078 412.956Z" fill="#E392AD"/>
</g>
<g style="mix-blend-mode:multiply">
<path d="M140.831 431.08C140.831 431.08 139.652 419.982 137.401 415.193C137.401 415.193 140.672 422.532 141.979 429.787C141.979 429.787 139.881 438.868 140.603 443.563C141.325 448.258 136.025 443.672 136.025 443.672C136.025 443.672 138.589 443.262 139.363 442.764C140.135 442.222 139.237 437.444 140.875 431.079L140.831 431.08Z" fill="#E392AD"/>
</g>
<g style="mix-blend-mode:multiply">
<path d="M162.77 425.238C163.719 426.611 159.136 437.627 158.614 441.348C159.258 437.232 161.243 428.939 161.641 427.315C162.039 425.691 157.934 418.153 156.547 409.329C156.547 409.329 160.467 421.933 162.769 425.194L162.77 425.238Z" fill="#E392AD"/>
</g>
<g style="mix-blend-mode:multiply" opacity="0.5">
<path d="M122.333 377.634C122.443 382.257 123.333 388.562 123.333 388.562C122.373 383 121.577 378.874 120.799 377.322C118.914 373.265 88.593 362.29 76.8657 351.617C67.2343 342.857 57.9811 324.271 54.5352 316.936C55.7651 319.132 62.6095 331.797 79.3153 348.199C100.175 368.648 122.224 373.012 122.333 377.634Z" fill="#E392AD"/>
</g>
<path d="M166.603 434.222C169.248 435.381 167.92 441.913 167.92 441.913C166.531 445.916 159.831 443.021 160.283 441.832C160.778 440.642 163.958 433.063 166.603 434.222Z" fill="#FFD8CC"/>
<path d="M154.49 438.566C158.568 439.429 156.363 447.64 156.363 447.64C151.279 452.211 147.467 447.851 147.467 447.851C147.467 447.851 150.412 437.703 154.49 438.566Z" fill="#FFD8CC"/>
<path d="M138.234 433.715C139.974 435.332 139.072 441.462 139.072 441.462C139.072 441.462 131.607 443.122 132.364 440.093C133.121 437.065 136.45 432.1 138.19 433.716L138.234 433.715Z" fill="#FFD8CC"/>
<g style="mix-blend-mode:multiply" opacity="0.3">
<path d="M129.734 421.22C129.441 419.918 129.15 418.66 128.858 417.402C129.269 418.177 132.517 424.514 134.578 426.821C136.82 429.342 141.684 428.398 141.684 428.398C145.002 430.327 149.834 428.031 149.834 428.031L150.767 425.042C150.767 425.042 151.822 429.074 154.488 429.273C157.111 429.473 161.641 427.315 161.641 427.315L161.996 423.903C161.996 423.903 170.288 425.845 171.638 420.185C171.643 420.403 171.647 420.577 171.65 420.708C167.858 433.756 168.753 442.112 168.753 442.112C168.753 442.112 167.43 445.197 163.852 445.151C160.754 445.137 158.656 441.303 158.656 441.303L156.971 447.539C154.051 453.193 144.222 449.019 144.222 449.019C135.551 449.486 136.069 443.714 136.069 443.714C136.069 443.714 129.293 443.133 129.163 437.639C129.033 432.144 130.788 425.209 129.776 421.176L129.734 421.22Z" fill="#EE7CAD"/>
</g>
<g style="mix-blend-mode:multiply" opacity="0.2">
<path d="M150.53 374.48C154.039 377.102 157.147 390.467 150.317 389.45C143.487 388.434 132.223 386.301 134.568 382.144C136.869 377.989 144.444 369.912 150.53 374.48Z" fill="#E392AD"/>
</g>
<g style="mix-blend-mode:multiply" opacity="0.8">
<path d="M100.777 285.471C104.935 286.916 103.208 289.52 103.208 289.52C95.4257 287.519 52.7065 305.057 52.7065 305.057C69.347 294.531 96.6393 284.059 100.777 285.471Z" fill="#9C92AD"/>
</g>
<defs>
<linearGradient id="paint0_linear_335_41299" x1="207.87" y1="423.395" x2="183.245" y2="229.139" gradientUnits="userSpaceOnUse">
<stop offset="0.02" stop-color="#FFBDA1"/>
<stop offset="1" stop-color="#FF957C"/>
</linearGradient>
<linearGradient id="paint1_linear_335_41299" x1="124.763" y1="770.118" x2="124.763" y2="410.049" gradientUnits="userSpaceOnUse">
<stop offset="0.02" stop-color="#281D8B"/>
<stop offset="1" stop-color="#2B3698"/>
</linearGradient>
<radialGradient id="paint2_radial_335_41299" cx="0" cy="0" r="1" gradientUnits="userSpaceOnUse" gradientTransform="translate(202.257 749.835) scale(57.4556 57.4556)">
<stop stop-color="#B15C38"/>
<stop offset="1" stop-color="#8D423D"/>
</radialGradient>
<radialGradient id="paint3_radial_335_41299" cx="0" cy="0" r="1" gradientUnits="userSpaceOnUse" gradientTransform="translate(16.0704 752.534) scale(36.5589 36.5589)">
<stop stop-color="#B15C38"/>
<stop offset="1" stop-color="#8D423D"/>
</radialGradient>
<linearGradient id="paint4_linear_335_41299" x1="247.117" y1="784.063" x2="247.117" y2="762.594" gradientUnits="userSpaceOnUse">
<stop stop-color="#E2E3F6"/>
<stop offset="1" stop-color="#F1E8FF"/>
</linearGradient>
<linearGradient id="paint5_linear_335_41299" x1="42.4055" y1="785.29" x2="42.4055" y2="759.813" gradientUnits="userSpaceOnUse">
<stop stop-color="#E2E3F6"/>
<stop offset="1" stop-color="#F1E8FF"/>
</linearGradient>
<linearGradient id="paint6_linear_335_41299" x1="7.55859" y1="776.293" x2="77.6912" y2="776.293" gradientUnits="userSpaceOnUse">
<stop stop-color="#8E81F4"/>
<stop offset="0.99" stop-color="#832297"/>
</linearGradient>
<linearGradient id="paint7_linear_335_41299" x1="187.617" y1="779.155" x2="293.409" y2="779.155" gradientUnits="userSpaceOnUse">
<stop offset="0.01" stop-color="#832297"/>
<stop offset="1" stop-color="#8E81F4"/>
</linearGradient>
<linearGradient id="paint8_linear_335_41299" x1="111.776" y1="140.468" x2="104.308" y2="99.4174" gradientUnits="userSpaceOnUse">
<stop offset="0.02" stop-color="#E05215"/>
<stop offset="1" stop-color="#A73609"/>
</linearGradient>
<linearGradient id="paint9_linear_335_41299" x1="79.6737" y1="387.188" x2="79.6737" y2="147.667" gradientUnits="userSpaceOnUse">
<stop stop-color="#FF4C59"/>
<stop offset="1" stop-color="#FF813B"/>
</linearGradient>
<linearGradient id="paint10_linear_335_41299" x1="41.1677" y1="160.763" x2="134.086" y2="160.763" gradientUnits="userSpaceOnUse">
<stop stop-color="#FFB159"/>
<stop offset="1" stop-color="#FFA73B"/>
</linearGradient>
<linearGradient id="paint11_linear_335_41299" x1="205.111" y1="294.837" x2="205.111" y2="192.113" gradientUnits="userSpaceOnUse">
<stop offset="0.02" stop-color="#3B3195"/>
<stop offset="1" stop-color="#3D47BB"/>
</linearGradient>
<linearGradient id="paint12_linear_335_41299" x1="142.269" y1="188.96" x2="142.269" y2="113.284" gradientUnits="userSpaceOnUse">
<stop offset="0.02" stop-color="#FFA67F"/>
<stop offset="1" stop-color="#FF8B7C"/>
</linearGradient>
<linearGradient id="paint13_linear_335_41299" x1="137.623" y1="455.295" x2="137.623" y2="155.52" gradientUnits="userSpaceOnUse">
<stop offset="0.02" stop-color="#D7D1FD"/>
<stop offset="1" stop-color="white"/>
</linearGradient>
<linearGradient id="paint14_linear_335_41299" x1="115.551" y1="194.099" x2="186.633" y2="194.099" gradientUnits="userSpaceOnUse">
<stop stop-color="#6175B8"/>
<stop offset="1" stop-color="white"/>
</linearGradient>
<linearGradient id="paint15_linear_335_41299" x1="104.727" y1="274.138" x2="148.345" y2="274.138" gradientUnits="userSpaceOnUse">
<stop stop-color="#6175B8"/>
<stop offset="1" stop-color="white"/>
</linearGradient>
<linearGradient id="paint16_linear_335_41299" x1="187.554" y1="254.629" x2="187.554" y2="168.042" gradientUnits="userSpaceOnUse">
<stop stop-color="#FF8459"/>
<stop offset="1" stop-color="#FB8836"/>
</linearGradient>
<linearGradient id="paint17_linear_335_41299" x1="92.9588" y1="363.485" x2="92.9588" y2="161.818" gradientUnits="userSpaceOnUse">
<stop stop-color="#FF8459"/>
<stop offset="1" stop-color="#FB8836"/>
</linearGradient>
<linearGradient id="paint18_linear_335_41299" x1="77.3995" y1="308.739" x2="77.3995" y2="284.318" gradientUnits="userSpaceOnUse">
<stop offset="0.02" stop-color="#3B3195"/>
<stop offset="1" stop-color="#3D47BB"/>
</linearGradient>
<linearGradient id="paint19_linear_335_41299" x1="77.5013" y1="307.933" x2="77.5013" y2="188.882" gradientUnits="userSpaceOnUse">
<stop offset="0.02" stop-color="#3B3195"/>
<stop offset="1" stop-color="#3D47BB"/>
</linearGradient>
<linearGradient id="paint20_linear_335_41299" x1="141.155" y1="196.345" x2="141.155" y2="155.513" gradientUnits="userSpaceOnUse">
<stop stop-color="#8E81F4"/>
<stop offset="0.99" stop-color="#832297"/>
</linearGradient>
<linearGradient id="paint21_linear_335_41299" x1="77.3995" y1="307.934" x2="77.3995" y2="276.323" gradientUnits="userSpaceOnUse">
<stop offset="0.02" stop-color="#3B3195"/>
<stop offset="1" stop-color="#3D47BB"/>
</linearGradient>
<linearGradient id="paint22_linear_335_41299" x1="103.539" y1="276.384" x2="103.539" y2="199.159" gradientUnits="userSpaceOnUse">
<stop stop-color="#6175B8"/>
<stop offset="1" stop-color="white"/>
</linearGradient>
<linearGradient id="paint23_linear_335_41299" x1="129.406" y1="376.148" x2="199.948" y2="376.148" gradientUnits="userSpaceOnUse">
<stop stop-color="white"/>
<stop offset="1" stop-color="#6175B8"/>
</linearGradient>
<linearGradient id="paint24_linear_335_41299" x1="126.269" y1="402.8" x2="205.929" y2="402.8" gradientUnits="userSpaceOnUse">
<stop stop-color="white"/>
<stop offset="1" stop-color="#6175B8"/>
</linearGradient>
<linearGradient id="paint25_linear_335_41299" x1="94.1516" y1="444.904" x2="159.227" y2="444.904" gradientUnits="userSpaceOnUse">
<stop stop-color="#6175B8"/>
<stop offset="1" stop-color="white"/>
</linearGradient>
<linearGradient id="paint26_linear_335_41299" x1="70.5098" y1="314.698" x2="74.3599" y2="290.923" gradientUnits="userSpaceOnUse">
<stop offset="0.02" stop-color="#D1A1D6"/>
<stop offset="0.99" stop-color="#BD89C4"/>
</linearGradient>
<linearGradient id="paint27_linear_335_41299" x1="77.3984" y1="295.433" x2="77.3984" y2="192.151" gradientUnits="userSpaceOnUse">
<stop stop-color="#6175B8"/>
<stop offset="1" stop-color="white"/>
</linearGradient>
<linearGradient id="paint28_linear_335_41299" x1="141.017" y1="385.808" x2="141.017" y2="362.24" gradientUnits="userSpaceOnUse">
<stop stop-color="#6175B8"/>
<stop offset="1" stop-color="white"/>
</linearGradient>
<linearGradient id="paint29_linear_335_41299" x1="48.4998" y1="237.907" x2="48.4998" y2="175.402" gradientUnits="userSpaceOnUse">
<stop stop-color="white"/>
<stop offset="1" stop-color="#D94075"/>
</linearGradient>
<linearGradient id="paint30_linear_335_41299" x1="61.543" y1="336.372" x2="101.319" y2="336.372" gradientUnits="userSpaceOnUse">
<stop stop-color="#E5658E"/>
<stop offset="1" stop-color="white"/>
</linearGradient>
<linearGradient id="paint31_linear_335_41299" x1="175.016" y1="150.223" x2="150.023" y2="12.8289" gradientUnits="userSpaceOnUse">
<stop offset="0.02" stop-color="#FFB99B"/>
<stop offset="1" stop-color="#FFBEA3"/>
</linearGradient>
<linearGradient id="paint32_linear_335_41299" x1="142.787" y1="62.9903" x2="177.236" y2="56.7238" gradientUnits="userSpaceOnUse">
<stop offset="0.02" stop-color="#E05215"/>
<stop offset="1" stop-color="#A73609"/>
</linearGradient>
<linearGradient id="paint33_linear_335_41299" x1="114.174" y1="115.719" x2="106.493" y2="73.4969" gradientUnits="userSpaceOnUse">
<stop offset="0.02" stop-color="#FFB374"/>
<stop offset="1" stop-color="#FF9577"/>
</linearGradient>
<linearGradient id="paint34_linear_335_41299" x1="137.649" y1="87.0546" x2="130.637" y2="48.5066" gradientUnits="userSpaceOnUse">
<stop offset="0.02" stop-color="#E05215"/>
<stop offset="1" stop-color="#A73609"/>
</linearGradient>
<linearGradient id="paint35_linear_335_41299" x1="126.598" y1="99.0476" x2="123.194" y2="80.3327" gradientUnits="userSpaceOnUse">
<stop offset="0.02" stop-color="#C23422"/>
<stop offset="1" stop-color="#A73609"/>
</linearGradient>
<linearGradient id="paint36_linear_335_41299" x1="156.355" y1="62.7494" x2="145.372" y2="2.37183" gradientUnits="userSpaceOnUse">
<stop stop-color="#C3041A"/>
<stop offset="1" stop-color="#FF3748"/>
</linearGradient>
<linearGradient id="paint37_linear_335_41299" x1="163.773" y1="47.1264" x2="155.303" y2="0.565331" gradientUnits="userSpaceOnUse">
<stop stop-color="#FFC4BA"/>
<stop offset="1" stop-color="#FFD9D6"/>
</linearGradient>
<linearGradient id="paint38_linear_335_41299" x1="112.556" y1="107.846" x2="108.401" y2="85.0047" gradientUnits="userSpaceOnUse">
<stop stop-color="white"/>
<stop offset="1" stop-color="#E5658E"/>
</linearGradient>
<linearGradient id="paint39_linear_335_41299" x1="148.287" y1="88.2541" x2="165.725" y2="85.0821" gradientUnits="userSpaceOnUse">
<stop stop-color="white"/>
<stop offset="1" stop-color="#E5658E"/>
</linearGradient>
<linearGradient id="paint40_linear_335_41299" x1="186.891" y1="88.1633" x2="196.155" y2="86.4781" gradientUnits="userSpaceOnUse">
<stop stop-color="white"/>
<stop offset="1" stop-color="#E5658E"/>
</linearGradient>
<linearGradient id="paint41_linear_335_41299" x1="115.834" y1="106.672" x2="112.091" y2="86.0935" gradientUnits="userSpaceOnUse">
<stop stop-color="white"/>
<stop offset="1" stop-color="#E5658E"/>
</linearGradient>
<linearGradient id="paint42_linear_335_41299" x1="186.148" y1="56.7253" x2="203.319" y2="53.6017" gradientUnits="userSpaceOnUse">
<stop offset="0.02" stop-color="#E05215"/>
<stop offset="1" stop-color="#A73609"/>
</linearGradient>
<linearGradient id="paint43_linear_335_41299" x1="156.439" y1="79.6761" x2="153.965" y2="66.0725" gradientUnits="userSpaceOnUse">
<stop stop-color="white"/>
<stop offset="1" stop-color="#E5658E"/>
</linearGradient>
<linearGradient id="paint44_linear_335_41299" x1="192.949" y1="81.4222" x2="189.946" y2="64.9168" gradientUnits="userSpaceOnUse">
<stop stop-color="white"/>
<stop offset="1" stop-color="#E5658E"/>
</linearGradient>
<linearGradient id="paint45_linear_335_41299" x1="193.518" y1="88.0297" x2="190.118" y2="69.3414" gradientUnits="userSpaceOnUse">
<stop stop-color="#F2DEF8"/>
<stop offset="1" stop-color="white"/>
</linearGradient>
<linearGradient id="paint46_linear_335_41299" x1="158.59" y1="89.3784" x2="155.006" y2="69.6785" gradientUnits="userSpaceOnUse">
<stop stop-color="#F2DEF8"/>
<stop offset="1" stop-color="white"/>
</linearGradient>
<linearGradient id="paint47_linear_335_41299" x1="174.515" y1="95.144" x2="190.222" y2="92.2868" gradientUnits="userSpaceOnUse">
<stop stop-color="white"/>
<stop offset="1" stop-color="#E5658E"/>
</linearGradient>
<linearGradient id="paint48_linear_335_41299" x1="161.53" y1="93.2987" x2="155.869" y2="62.1781" gradientUnits="userSpaceOnUse">
<stop stop-color="white"/>
<stop offset="1" stop-color="#E5658E"/>
</linearGradient>
<linearGradient id="paint49_linear_335_41299" x1="167.272" y1="106.885" x2="192.802" y2="102.241" gradientUnits="userSpaceOnUse">
<stop stop-color="#FFC2C4"/>
<stop offset="1" stop-color="#E5658E"/>
</linearGradient>
<linearGradient id="paint50_linear_335_41299" x1="171.872" y1="109.046" x2="177.888" y2="107.951" gradientUnits="userSpaceOnUse">
<stop stop-color="#B04C8E"/>
<stop offset="1" stop-color="#FFBDAC"/>
</linearGradient>
<linearGradient id="paint51_linear_335_41299" x1="168.562" y1="112.894" x2="193.16" y2="108.42" gradientUnits="userSpaceOnUse">
<stop stop-color="white"/>
<stop offset="1" stop-color="#E5658E"/>
</linearGradient>
<linearGradient id="paint52_linear_335_41299" x1="161.066" y1="117.997" x2="159.686" y2="110.41" gradientUnits="userSpaceOnUse">
<stop stop-color="white"/>
<stop offset="1" stop-color="#E5658E"/>
</linearGradient>
<linearGradient id="paint53_linear_335_41299" x1="196.838" y1="93.2836" x2="190.339" y2="57.5575" gradientUnits="userSpaceOnUse">
<stop stop-color="white"/>
<stop offset="1" stop-color="#E5658E"/>
</linearGradient>
<linearGradient id="paint54_linear_335_41299" x1="188.077" y1="51.3134" x2="184.793" y2="33.2641" gradientUnits="userSpaceOnUse">
<stop stop-color="#FF273D"/>
<stop offset="1" stop-color="#FF3748"/>
</linearGradient>
<linearGradient id="paint55_linear_335_41299" x1="187.428" y1="54.842" x2="184.585" y2="39.2152" gradientUnits="userSpaceOnUse">
<stop stop-color="#C3041A"/>
<stop offset="1" stop-color="#FF3748"/>
</linearGradient>
<linearGradient id="paint56_linear_335_41299" x1="112.662" y1="73.0632" x2="132.947" y2="69.373" gradientUnits="userSpaceOnUse">
<stop stop-color="#A13D7F"/>
<stop offset="1" stop-color="white"/>
</linearGradient>
<linearGradient id="paint57_linear_335_41299" x1="105.687" y1="46.0593" x2="196.786" y2="29.4874" gradientUnits="userSpaceOnUse">
<stop stop-color="#E5658E"/>
<stop offset="1" stop-color="white"/>
</linearGradient>
<linearGradient id="paint58_linear_335_41299" x1="172.675" y1="129.701" x2="184.831" y2="130.901" gradientUnits="userSpaceOnUse">
<stop stop-color="#D188B8"/>
<stop offset="0.99" stop-color="#A938F4"/>
</linearGradient>
<linearGradient id="paint59_linear_335_41299" x1="166.682" y1="116.11" x2="187.875" y2="127.262" gradientUnits="userSpaceOnUse">
<stop stop-color="#D188B8"/>
<stop offset="0.99" stop-color="#A938F4"/>
</linearGradient>
<linearGradient id="paint60_linear_335_41299" x1="177.619" y1="136.621" x2="179.424" y2="129.042" gradientUnits="userSpaceOnUse">
<stop stop-color="#FFEADB"/>
<stop offset="0.99" stop-color="#B060F4"/>
</linearGradient>
<linearGradient id="paint61_linear_335_41299" x1="129.871" y1="136.378" x2="169.191" y2="129.225" gradientUnits="userSpaceOnUse">
<stop stop-color="white"/>
<stop offset="1" stop-color="#E5658E"/>
</linearGradient>
<linearGradient id="paint62_linear_335_41299" x1="114.306" y1="451.384" x2="110.758" y2="301.512" gradientUnits="userSpaceOnUse">
<stop stop-color="#FFB595"/>
<stop offset="0.98" stop-color="#FFC2A9"/>
</linearGradient>
</defs>
</svg>
