<svg width="14" height="22" viewBox="0 0 14 22" fill="none" xmlns="http://www.w3.org/2000/svg">
<path d="M3.25 6.5C3.25 7.34375 2.54688 8 1.75 8C0.90625 8 0.25 7.34375 0.25 6.5C0.25 3.21875 2.92188 0.5 6.25 0.5H7.75C11.0312 0.5 13.75 3.21875 13.75 6.5V6.6875C13.75 8.75 12.6719 10.625 10.9844 11.75L9.01562 13.0156C8.6875 13.2031 8.5 13.5781 8.5 13.9531V14C8.5 14.8438 7.79688 15.5 7 15.5C6.15625 15.5 5.5 14.8438 5.5 14V13.9531C5.5 12.5469 6.20312 11.2344 7.375 10.4844L9.34375 9.21875C10.1875 8.65625 10.75 7.71875 10.75 6.6875V6.5C10.75 4.85938 9.39062 3.5 7.75 3.5H6.25C4.5625 3.5 3.25 4.85938 3.25 6.5ZM7 21.5C6.29688 21.5 5.6875 21.1719 5.35938 20.5625C5.03125 20 5.03125 19.2969 5.35938 18.6875C5.6875 18.125 6.29688 17.75 7 17.75C7.65625 17.75 8.26562 18.125 8.59375 18.6875C8.92188 19.2969 8.92188 20 8.59375 20.5625C8.26562 21.1719 7.65625 21.5 7 21.5Z" fill="white"/>
</svg>
