<svg width="32" height="32" viewBox="0 0 32 32" fill="none" xmlns="http://www.w3.org/2000/svg">
<path d="M4 15.25C4 20.6406 9.39062 25 16 25C17.7812 25 19.4219 24.7188 20.9219 24.2031C21.4375 24.5781 22.375 25.1406 23.4531 25.6094C24.5781 26.125 25.9375 26.5 27.25 26.5C27.5781 26.5 27.8594 26.3594 27.9531 26.0781C28.0938 25.7969 28 25.4688 27.8125 25.2344C27.7656 25.2344 27.7656 25.1875 27.7188 25.1406C27.6719 25.0938 27.5781 25 27.4844 24.9062C27.2969 24.6719 27.0625 24.2969 26.7812 23.875C26.3125 23.125 25.8906 22.0938 25.7969 20.9219C27.2031 19.3281 28 17.4062 28 15.25C28 9.90625 22.6562 5.5 16 5.5C9.39062 5.5 4 9.90625 4 15.25Z" fill="white"/>
</svg>
